<svg version="1.1" id="Layer_1" xmlns="http://www.w3.org/2000/svg" xmlns:xlink="http://www.w3.org/1999/xlink" x="0px" y="0px"
	 width="100%" viewBox="0 0 1411 1158" enable-background="new 0 0 1411 1158" xml:space="preserve">
<path fill="#D95B2F" opacity="1.000000" stroke="none" 
	d="
M20.964081,673.256104 
	C14.782047,670.541626 14.575474,664.555542 14.148785,659.312378 
	C13.317184,649.093628 13.267509,638.807617 13.013004,628.546448 
	C12.622295,612.793701 12.467072,597.034119 11.960506,581.285522 
	C11.471704,566.089233 10.632670,550.904480 10.008502,535.712158 
	C9.614455,526.121094 9.341449,516.525024 8.998157,506.931763 
	C8.335374,488.410553 7.675869,469.889221 6.984896,451.369080 
	C6.695237,443.605286 6.293595,435.845673 6.004527,428.081879 
	C5.314980,409.561920 4.657424,391.040771 3.996364,372.519775 
	C3.653972,362.926941 3.378518,353.331299 2.956249,343.742065 
	C2.881708,342.049347 2.231829,340.381927 1.423821,338.851410 
	C1.000000,329.312439 1.000000,319.624878 1.397965,309.409851 
	C3.404631,309.267395 5.080801,309.476715 6.611611,310.064575 
	C22.095966,316.010773 37.534744,322.075958 53.029022,327.996002 
	C75.027298,336.401001 97.061493,344.712036 119.249191,353.362000 
	C133.154556,359.452332 146.817642,365.426147 160.643112,370.997009 
	C188.042969,382.037598 215.532455,392.855743 243.022278,404.142212 
	C262.065674,436.880280 281.120972,469.213226 300.048279,501.620911 
	C305.900421,511.641022 311.404022,521.864685 316.701721,532.041748 
	C257.544647,558.347046 199.216431,585.595886 140.532669,612.903870 
	C141.570786,614.598511 141.813751,615.235657 142.253174,615.677368 
	C153.500778,626.983398 164.601364,638.442383 176.068970,649.521362 
	C198.549438,671.239990 221.229507,692.752014 243.844452,714.331177 
	C247.809372,718.114441 252.126389,721.564026 255.815155,725.593994 
	C263.398010,733.878052 270.665863,742.450500 277.674377,750.877808 
	C255.421143,743.920044 233.535126,737.056641 211.697372,730.042908 
	C170.197708,716.714294 128.727005,703.295471 87.241440,689.922852 
	C68.095177,683.751282 48.989174,677.445007 29.735579,671.627686 
	C27.206612,670.863586 23.906845,672.650635 20.964081,673.256104 
z"/>
<path fill="#D1B6A9" opacity="1.000000" stroke="none" 
	d="
M1412.000000,699.600037 
	C1409.113647,702.744751 1405.883179,705.211487 1403.401245,708.283020 
	C1393.331421,720.745483 1383.463623,733.371887 1373.574829,745.979919 
	C1365.312622,756.513855 1357.214600,767.177490 1348.878174,777.651917 
	C1341.498901,786.923767 1333.831421,795.965942 1326.401367,805.198181 
	C1318.813599,814.626404 1311.412964,824.205139 1303.832520,833.639404 
	C1296.412476,842.874146 1288.809326,851.962097 1281.396362,861.202515 
	C1273.839722,870.621704 1266.479858,880.198853 1258.917358,889.613220 
	C1251.493408,898.855164 1243.838623,907.911926 1236.438599,917.172546 
	C1227.861816,927.905762 1219.511963,938.820068 1210.953247,949.567993 
	C1202.584106,960.077942 1194.070068,970.472473 1185.637085,980.931702 
	C1184.633789,982.175964 1183.740723,983.508972 1182.053711,984.906616 
	C1180.647827,984.959045 1179.957397,985.007080 1179.325195,984.838074 
	C1153.320190,977.888306 1127.299561,970.995850 1101.326660,963.927917 
	C1079.359985,957.950195 1057.461548,951.721680 1035.505981,945.702393 
	C1029.446289,944.041199 1028.105957,945.298706 1029.149658,951.417969 
	C1029.958374,956.159302 1031.081177,960.846069 1031.998169,965.569946 
	C1037.561768,994.227234 1043.169434,1022.876099 1048.627686,1051.553467 
	C1050.952026,1063.765747 1052.864502,1076.055908 1055.127563,1088.280518 
	C1056.606567,1096.270386 1057.759033,1104.421997 1063.042358,1111.114258 
	C1062.107300,1112.558716 1061.388916,1114.217285 1060.204590,1115.415283 
	C1045.971191,1129.810791 1031.668701,1144.137817 1017.692139,1158.741455 
	C1011.645569,1159.000000 1005.291199,1159.000000 998.468384,1159.000000 
	C997.307190,1158.336304 996.697693,1157.222412 995.908997,1157.076416 
	C983.073730,1154.699463 970.225342,1152.389404 957.360291,1150.178345 
	C943.198303,1147.744507 929.015686,1145.430298 914.843628,1143.054810 
	C912.949768,1142.737427 911.064514,1142.368652 908.866333,1141.641846 
	C935.832825,1094.913086 963.100586,1048.561401 990.387329,1002.221069 
	C1002.211304,982.140686 1014.074646,962.083557 1026.227173,941.874268 
	C1037.511108,931.548828 1048.440308,921.312988 1059.474487,911.191528 
	C1086.195923,886.680359 1112.993408,862.252258 1139.703613,837.729065 
	C1150.858032,827.487793 1161.851440,817.071350 1172.948364,806.767090 
	C1194.403076,786.844849 1215.888428,766.955627 1237.310303,746.998169 
	C1238.094971,746.267212 1238.345337,744.962952 1238.844849,743.925903 
	C1252.786621,739.617554 1266.658203,735.062866 1280.687744,731.062439 
	C1298.812866,725.894043 1317.078247,721.219299 1335.257690,716.239014 
	C1356.368042,710.455872 1377.437744,704.524353 1398.556519,698.772461 
	C1402.697021,697.644775 1406.980591,697.043091 1411.599121,696.099365 
	C1412.000000,697.066711 1412.000000,698.133362 1412.000000,699.600037 
z"/>
<path fill="#E67434" opacity="1.000000" stroke="none" 
	d="
M1.000000,305.399994 
	C1.647095,304.285828 2.644532,303.674377 2.888696,302.842041 
	C6.512066,290.489685 9.949164,278.081879 13.680674,265.763000 
	C14.210073,264.015289 15.747172,262.122223 17.340778,261.217010 
	C33.713490,251.916885 50.229305,242.869186 66.635155,233.626724 
	C84.611740,223.499359 102.468987,213.159805 120.463501,203.064682 
	C135.941513,194.381348 151.589752,186.001556 167.071243,177.324280 
	C184.941757,167.307938 202.654709,157.010056 220.542419,147.024902 
	C237.307159,137.666626 254.210754,128.557114 271.731781,119.260307 
	C273.268951,120.853363 274.731750,122.470421 274.886139,124.203995 
	C275.753021,133.939011 276.846893,143.701599 276.855652,153.455688 
	C276.876526,176.734741 276.041992,200.014832 276.085571,223.293503 
	C276.159760,262.891724 276.643463,302.489136 276.545654,342.142944 
	C270.515747,342.496796 264.892700,342.753143 259.275269,343.099823 
	C238.285446,344.395203 217.295807,345.694305 196.309525,347.045410 
	C186.395889,347.683685 176.485046,348.379486 166.581818,349.161835 
	C150.744095,350.412994 134.913788,351.757935 119.080338,353.063263 
	C97.061493,344.712036 75.027298,336.401001 53.029022,327.996002 
	C37.534744,322.075958 22.095966,316.010773 6.611611,310.064575 
	C5.080801,309.476715 3.404631,309.267395 1.397965,308.941193 
	C1.000000,307.933319 1.000000,306.866669 1.000000,305.399994 
z"/>
<path fill="#FAD4C8" opacity="1.000000" stroke="none" 
	d="
M568.941833,2.924348 
	C569.166748,2.450256 569.391602,1.976167 569.308228,1.251039 
	C592.687561,1.000000 616.375122,1.000000 640.531372,1.000010 
	C640.833435,1.353990 640.666870,1.707961 640.444824,2.398171 
	C640.389343,2.734410 639.915466,2.846412 639.454956,2.818777 
	C615.643555,2.835544 592.292725,2.879947 568.941833,2.924348 
z"/>
<path fill="#D95C2F" opacity="1.000000" stroke="none" 
	d="
M1107.996948,346.129364 
	C1118.550415,338.059845 1129.169067,330.073730 1139.632324,321.888824 
	C1145.679810,317.158203 1151.476440,312.106934 1157.642944,307.406372 
	C1152.338379,315.664429 1147.002563,323.883484 1141.177490,331.739685 
	C1110.385742,373.268127 1079.454956,414.693359 1048.625610,456.193939 
	C1045.789551,460.011627 1043.328613,464.108002 1040.363770,468.120056 
	C1025.862061,475.517029 1011.652283,482.796906 997.526245,490.235748 
	C968.248352,505.653625 938.985901,521.101624 909.785828,536.666199 
	C903.413208,540.062988 897.328552,544.000061 890.274536,548.184631 
	C892.534729,549.760925 893.612610,550.826843 894.909485,551.362915 
	C900.589844,553.710876 906.241882,556.183472 912.070862,558.105530 
	C932.602112,564.875549 953.220520,571.380920 973.771301,578.092590 
	C1000.168884,586.713806 1026.520874,595.474487 1052.918945,604.093872 
	C1060.974731,606.724182 1069.118164,609.085571 1077.220825,611.572327 
	C1080.859619,612.689087 1083.026855,611.794067 1084.309326,607.782837 
	C1086.940308,599.554077 1089.917236,591.422302 1093.085815,583.382202 
	C1097.642578,571.819336 1102.496948,560.373840 1107.675293,548.878662 
	C1117.778931,548.865234 1127.431519,548.851257 1137.544189,548.897095 
	C1141.001587,548.971252 1143.999023,548.992310 1146.996582,548.999084 
	C1171.968140,549.055298 1196.939697,549.108826 1221.916260,549.619507 
	C1221.985962,568.074890 1222.050537,586.074036 1222.072021,604.535400 
	C1222.015137,614.416504 1222.073364,623.836365 1221.952637,633.253906 
	C1221.902466,637.174377 1221.470337,641.090088 1220.932373,644.812073 
	C1220.436035,643.669495 1220.047607,642.726379 1220.028076,641.775574 
	C1219.659302,623.844116 1219.375122,605.910889 1218.968018,587.980347 
	C1218.878662,584.048157 1218.384399,580.125122 1218.076660,576.197815 
	C1212.386841,600.141541 1207.790039,624.157532 1203.000977,648.135132 
	C1199.822021,664.051086 1196.367676,679.912109 1192.663330,695.867065 
	C1119.196655,726.322083 1046.103149,756.707703 972.686890,786.966553 
	C944.868713,768.656128 917.336487,750.527771 889.899353,732.256714 
	C881.050293,726.363892 872.451416,720.095398 864.191284,713.939331 
	C873.279968,713.915283 881.915466,713.966187 890.550903,713.982361 
	C904.345825,714.008118 918.065796,714.320129 931.634216,710.409363 
	C952.239197,704.470581 973.076172,699.336731 994.186829,693.765259 
	C996.638550,693.104492 998.687073,692.349731 1000.802490,692.004395 
	C1017.474670,689.282715 1034.203979,686.884766 1050.825684,683.888550 
	C1062.635742,681.759644 1074.303833,679.989014 1086.382080,681.776733 
	C1102.431274,684.152100 1118.569092,685.926575 1134.666260,687.980042 
	C1147.144287,689.571777 1159.599243,691.372070 1172.103394,692.717163 
	C1177.060425,693.250488 1182.122803,692.804688 1187.137085,692.804688 
	C1187.280029,692.360535 1187.422852,691.916382 1187.565674,691.472229 
	C1153.104370,665.809204 1118.769531,639.971008 1082.973877,615.150269 
	C1074.775757,637.289062 1067.121216,657.959656 1059.253906,679.204956 
	C1052.234741,674.116699 1045.624878,669.453918 1039.151001,664.609497 
	C1013.099365,645.114990 987.057495,625.607300 961.075989,606.019653 
	C943.450195,592.731384 926.025513,579.174438 908.308105,566.010559 
	C902.792053,561.912231 897.366089,557.141541 889.556641,556.847473 
	C888.474731,555.685547 887.651672,554.683228 886.079651,552.768616 
	C884.590576,562.097046 883.236084,570.200378 882.012573,578.323547 
	C879.102051,597.647339 876.198914,616.972656 873.395752,636.312256 
	C870.806152,654.178528 868.350403,672.064148 865.469482,689.941284 
	C864.157776,689.667664 863.146912,689.527405 862.276489,689.100769 
	C842.164612,679.242920 822.010254,669.468750 802.007935,659.392761 
	C796.746338,656.742432 791.964355,653.140015 787.130859,649.688293 
	C796.989685,639.336060 806.624878,629.216858 816.381714,619.216187 
	C834.976868,600.156433 853.667786,581.189880 872.249756,562.117371 
	C875.154297,559.136108 877.694946,555.800354 881.366028,551.501953 
	C875.231384,552.284607 870.616821,552.671509 866.079346,553.487305 
	C846.980713,556.921021 827.890808,560.407593 808.824524,564.016541 
	C784.542480,568.612732 760.286377,573.346008 735.770630,577.795166 
	C734.945862,576.119873 734.369446,574.669678 733.843506,572.739502 
	C734.259521,553.164551 734.834778,534.070435 734.919800,514.974243 
	C734.980591,501.313385 734.344482,487.650269 734.103699,473.986694 
	C734.025818,469.563507 734.248840,465.135803 734.276062,460.709778 
	C734.317688,453.943756 733.875488,447.142456 734.418579,440.419128 
	C735.325317,429.193634 728.629822,425.084656 719.333191,422.925354 
	C718.375488,422.702850 717.517639,422.057526 716.560852,421.822754 
	C704.358765,418.828857 692.147034,415.874115 680.023438,412.580505 
	C688.390747,407.614197 692.863647,399.577576 697.881653,392.092834 
	C706.543579,379.172791 714.859619,366.019073 723.621582,353.168488 
	C726.831238,348.460968 730.895935,344.336456 734.673767,340.406982 
	C734.776917,369.233307 734.776917,397.598663 734.776917,425.964050 
	C735.192444,426.164978 735.607971,426.365875 736.023438,426.566803 
	C739.843018,423.061737 743.662537,419.556671 747.857544,416.003754 
	C768.533203,399.697754 788.833374,383.439606 809.370239,367.068512 
	C810.007629,366.628937 810.408264,366.302338 811.062378,366.236298 
	C827.951599,372.917603 844.587463,379.338318 860.931152,386.064880 
	C860.561829,388.478333 860.164490,390.632446 860.462280,392.685699 
	C861.863403,402.344818 863.469788,411.974030 864.976013,421.618103 
	C867.886169,440.250397 870.806274,458.881256 873.669128,477.520874 
	C876.155396,493.708893 878.418274,509.932983 881.091248,526.089600 
	C882.084473,532.092773 883.962646,537.949585 885.437256,543.873108 
	C886.003052,543.811157 886.568909,543.749268 887.134705,543.687317 
	C887.600220,543.069458 888.218933,542.515808 888.509033,541.824341 
	C901.676025,510.439423 914.755188,479.017487 927.993286,447.662659 
	C931.787842,438.675293 936.032349,429.877869 940.447693,421.000366 
	C942.691528,421.655060 944.620117,422.165192 946.414429,422.973450 
	C955.943787,427.266083 965.424255,431.667358 974.964294,435.935883 
	C976.287231,436.527863 977.846252,436.592224 979.296021,436.900879 
	C979.583069,436.510040 979.870117,436.119232 980.157166,435.728394 
	C977.101318,430.666046 974.369141,425.371490 970.933228,420.581757 
	C956.441833,400.380737 941.770203,380.308655 927.101746,360.235291 
	C921.152588,352.093964 915.043152,344.069763 909.012451,335.544983 
	C907.242920,317.421967 905.445557,299.748474 903.697876,282.070068 
	C901.770447,262.574249 899.844604,243.078033 898.000732,223.574158 
	C896.515747,207.867264 895.270996,192.137070 893.708984,176.438187 
	C891.555542,154.795624 889.271973,133.165314 886.897339,111.545883 
	C886.142151,104.670860 884.918884,97.847267 883.909790,91.000122 
	C884.372986,90.577682 884.836182,90.155251 885.299438,89.732834 
	C886.531860,92.142258 888.145813,94.433960 888.931519,96.981171 
	C892.617554,108.931595 896.075745,120.952316 899.775024,133.690552 
	C900.163635,135.735519 900.270081,137.073746 900.639526,138.334900 
	C907.265991,160.952057 913.784058,183.602356 920.616455,206.157394 
	C927.066772,227.451035 933.897400,248.629196 940.482117,269.882507 
	C946.376770,288.908386 952.164368,307.967407 958.011841,327.410095 
	C959.273132,333.134766 960.549988,338.454712 961.765625,343.788635 
	C967.256714,367.880859 972.591736,392.009979 978.293396,416.052185 
	C980.053650,423.474762 982.796021,430.664429 985.332581,438.736603 
	C1012.393921,418.356110 1038.233521,398.921417 1064.043701,379.447693 
	C1078.719727,368.374634 1093.347534,357.237579 1107.996948,346.129364 
z"/>
<path fill="#E88D5D" opacity="1.000000" stroke="none" 
	d="
M1238.432861,743.945435 
	C1238.345337,744.962952 1238.094971,746.267212 1237.310303,746.998169 
	C1215.888428,766.955627 1194.403076,786.844849 1172.948364,806.767090 
	C1161.851440,817.071350 1150.858032,827.487793 1139.703613,837.729065 
	C1112.993408,862.252258 1086.195923,886.680359 1059.474487,911.191528 
	C1048.440308,921.312988 1037.511108,931.548828 1025.867432,941.823975 
	C1018.014465,939.324646 1010.918335,936.442749 1003.627502,934.191040 
	C958.837952,920.358276 914.013062,906.639282 869.180786,892.945435 
	C853.133240,888.043762 837.024902,883.341797 820.960632,878.494324 
	C816.718323,877.214172 813.812744,878.251221 811.398865,882.226746 
	C807.171936,889.188354 802.552063,895.921082 797.864563,902.586487 
	C796.721008,904.212402 794.868530,905.729614 793.016479,906.407715 
	C772.089172,914.069458 751.103210,921.571106 730.123840,929.090149 
	C689.415283,943.680237 648.715027,958.293396 607.985779,972.825378 
	C549.085388,993.840881 490.128784,1014.699707 431.288086,1035.880615 
	C423.249542,1038.774414 415.740753,1043.139771 407.986694,1046.823730 
	C406.448639,1048.038086 404.926178,1049.206909 405.212830,1045.108887 
	C405.631439,1040.128418 405.941528,1035.832520 405.962830,1031.535156 
	C406.342255,955.051514 406.686646,878.567627 407.438660,802.034424 
	C429.187836,797.615540 450.536865,793.245972 472.250183,788.785034 
	C474.792847,788.119995 476.971191,787.546448 479.530396,786.985657 
	C484.676971,788.397949 489.414856,789.902283 494.213562,791.177795 
	C509.404236,795.215210 524.617676,799.167053 540.111938,803.378540 
	C542.852722,804.048889 545.303772,804.492859 548.001282,805.227844 
	C549.474609,806.005676 550.666077,806.629150 551.933838,806.958984 
	C573.492859,812.567566 595.039978,818.224182 616.633484,823.697571 
	C640.795715,829.821960 665.001892,835.773132 689.531860,841.939575 
	C704.625793,846.168640 719.376831,850.257874 734.423096,854.531128 
	C759.600647,861.442383 784.427734,868.388123 809.415649,874.697083 
	C813.954285,875.843079 819.291809,875.020813 824.009338,873.974731 
	C830.641907,872.504028 837.049805,870.005798 843.535767,867.891541 
	C857.436523,863.360291 871.325684,858.793457 885.607361,854.199585 
	C901.184937,849.423157 916.398132,844.761597 931.558533,839.934448 
	C949.067749,834.359558 966.530518,828.638733 984.403076,822.983948 
	C1002.595398,817.580994 1020.435669,812.295532 1038.193848,806.747498 
	C1095.780518,788.756470 1153.337646,770.670959 1210.903809,752.614502 
	C1214.318115,751.543518 1217.712158,750.408325 1221.683350,749.118652 
	C1220.274170,746.282471 1219.192505,744.105408 1218.388916,741.636841 
	C1219.111816,732.734741 1219.491821,724.119812 1220.057251,715.517090 
	C1220.166626,713.853821 1221.000610,712.238159 1221.635010,711.077637 
	C1221.848145,721.977051 1221.879883,732.400208 1222.051392,742.820984 
	C1222.079712,744.535522 1222.721924,746.239868 1223.080444,747.948975 
	C1228.060547,746.620972 1233.040649,745.292969 1238.432861,743.945435 
z"/>
<path fill="#87351D" opacity="1.000000" stroke="none" 
	d="
M1040.693481,468.074951 
	C1043.328613,464.108002 1045.789551,460.011627 1048.625610,456.193939 
	C1079.454956,414.693359 1110.385742,373.268127 1141.177490,331.739685 
	C1147.002563,323.883484 1152.338379,315.664429 1157.950195,307.258911 
	C1175.077637,283.825623 1192.143188,260.737549 1209.238281,237.671432 
	C1215.394775,229.364685 1221.615845,221.105637 1227.840576,212.849884 
	C1228.090576,212.518219 1228.683228,212.444809 1229.512207,212.073883 
	C1233.030029,227.905304 1236.593994,243.532486 1239.962769,259.201630 
	C1245.164307,283.395203 1250.253540,307.613068 1255.351318,331.828827 
	C1260.921387,358.288116 1266.443604,384.757477 1272.004395,411.218658 
	C1272.239868,412.339478 1272.536621,413.475708 1273.004150,414.515076 
	C1277.418213,424.327850 1273.344238,433.001495 1269.569214,441.814087 
	C1254.669067,476.598236 1239.866455,511.424194 1224.657715,546.336426 
	C1223.859253,535.694214 1222.955811,524.943298 1223.108765,514.207520 
	C1223.366089,496.140228 1224.294312,478.082520 1224.987793,459.553345 
	C1225.568359,450.295898 1225.868896,441.484100 1226.688354,432.720856 
	C1227.944580,419.286896 1229.922852,405.781555 1225.921021,392.575500 
	C1220.377930,374.282837 1214.257202,356.165192 1208.351685,337.982971 
	C1208.243408,337.649719 1207.736084,337.446014 1207.216187,337.018250 
	C1206.440552,338.375519 1205.730225,339.481537 1205.150879,340.652374 
	C1181.541992,388.370941 1157.963135,436.104218 1134.329834,483.810638 
	C1130.132324,492.283875 1125.715698,500.648621 1121.166992,508.776489 
	C1117.700928,506.777100 1114.499878,505.001038 1111.229858,503.362396 
	C1087.725586,491.584259 1064.207275,479.834045 1040.693481,468.074951 
z"/>
<path fill="#E67434" opacity="1.000000" stroke="none" 
	d="
M639.915466,2.846412 
	C639.915466,2.846412 640.389343,2.734410 640.631836,2.716379 
	C646.658203,5.109140 652.558533,7.276760 658.202637,9.979316 
	C671.574280,16.382038 684.742798,23.211296 698.145081,29.547308 
	C713.573181,36.840973 729.206421,43.699505 744.674011,50.911076 
	C763.051086,59.479130 781.320496,68.277901 799.684509,76.874298 
	C821.251953,86.970276 842.902100,96.890121 864.443726,107.040459 
	C869.281555,109.320023 870.165405,103.922310 873.684448,103.412544 
	C873.691040,104.288307 873.380615,104.881569 872.981567,105.407578 
	C844.398865,143.083511 815.803406,180.749802 787.223022,218.427490 
	C778.170471,230.361557 769.156250,242.324799 759.963989,253.951996 
	C754.995239,247.290665 749.760010,241.228195 745.450806,234.566742 
	C723.985291,201.383926 702.753113,168.050125 681.461243,134.755096 
	C674.131104,123.292595 666.962280,111.725861 659.542053,100.322350 
	C653.048035,90.342186 647.665283,79.487114 637.987061,71.532806 
	C638.679321,66.397514 639.853088,61.679276 639.905334,56.948635 
	C640.104736,38.916729 639.942566,20.880823 639.915466,2.846412 
z"/>
<path fill="#6D2D1A" opacity="1.000000" stroke="none" 
	d="
M760.124512,254.274673 
	C769.156250,242.324799 778.170471,230.361557 787.223022,218.427490 
	C815.803406,180.749802 844.398865,143.083511 872.981567,105.407578 
	C873.380615,104.881569 873.691040,104.288307 874.035400,103.376450 
	C877.141357,99.144547 880.254761,95.262627 883.638916,91.190414 
	C884.918884,97.847267 886.142151,104.670860 886.897339,111.545883 
	C889.271973,133.165314 891.555542,154.795624 893.708984,176.438187 
	C895.270996,192.137070 896.515747,207.867264 898.000732,223.574158 
	C899.844604,243.078033 901.770447,262.574249 903.697876,282.070068 
	C905.445557,299.748474 907.242920,317.421967 908.741943,335.750549 
	C901.945984,348.012207 895.352966,359.580536 888.935974,371.245758 
	C885.419800,377.637817 882.200867,384.193359 878.475220,390.721313 
	C872.476135,389.097992 866.849731,387.428528 861.223328,385.759033 
	C844.587463,379.338318 827.951599,372.917603 811.171143,365.892822 
	C825.716919,337.671997 840.564880,310.136993 854.966370,282.370392 
	C857.892761,276.728210 859.810181,270.342194 861.011047,264.072723 
	C863.324646,251.994644 864.805420,239.756546 866.611267,227.581802 
	C869.729553,206.559692 872.832275,185.535294 876.030823,163.907700 
	C874.980774,164.621292 874.385437,164.898895 873.953552,165.337524 
	C845.435791,194.300964 816.882324,223.229706 788.522766,252.347397 
	C786.363342,254.564484 785.586121,258.127899 784.057739,261.445251 
	C771.793335,313.233856 759.637695,364.642731 747.482056,416.051605 
	C743.662537,419.556671 739.843018,423.061737 736.023438,426.566803 
	C735.607971,426.365875 735.192444,426.164978 734.776917,425.964050 
	C734.776917,397.598663 734.776917,369.233307 734.775146,340.010345 
	C735.674500,335.789673 736.492554,332.401733 737.489990,329.067444 
	C744.574707,305.383453 751.696045,281.710388 758.927124,257.720306 
	C759.407227,256.362732 759.765869,255.318710 760.124512,254.274673 
z"/>
<path fill="#E67434" opacity="1.000000" stroke="none" 
	d="
M1107.682129,345.956543 
	C1093.347534,357.237579 1078.719727,368.374634 1064.043701,379.447693 
	C1038.233521,398.921417 1012.393921,418.356110 985.332581,438.736603 
	C982.796021,430.664429 980.053650,423.474762 978.293396,416.052185 
	C972.591736,392.009979 967.256714,367.880859 961.765625,343.788635 
	C960.549988,338.454712 959.273132,333.134766 958.356567,327.358734 
	C982.223267,310.972443 1002.535217,291.169922 1023.916809,272.643402 
	C1034.299194,263.647308 1044.965698,254.975113 1055.646729,246.333084 
	C1056.915894,245.306183 1059.089844,245.397568 1060.844482,244.970596 
	C1067.248169,258.670624 1073.720825,272.338959 1080.028442,286.083069 
	C1083.581787,293.825867 1086.786743,301.727875 1090.284668,309.496918 
	C1095.511353,321.105652 1100.851807,332.663239 1106.171143,344.230042 
	C1106.437378,344.808868 1106.962646,345.268524 1107.682129,345.956543 
z"/>
<path fill="#E88E5E" opacity="1.000000" stroke="none" 
	d="
M1060.896729,244.616791 
	C1059.089844,245.397568 1056.915894,245.306183 1055.646729,246.333084 
	C1044.965698,254.975113 1034.299194,263.647308 1023.916809,272.643402 
	C1002.535217,291.169922 982.223267,310.972443 958.343994,326.960449 
	C952.164368,307.967407 946.376770,288.908386 940.482117,269.882507 
	C933.897400,248.629196 927.066772,227.451035 920.616455,206.157394 
	C913.784058,183.602356 907.265991,160.952057 900.639526,138.334900 
	C900.270081,137.073746 900.163635,135.735519 899.966675,133.992157 
	C922.155273,148.359589 944.366089,163.087982 966.451904,178.001389 
	C984.555054,190.225433 1002.514893,202.661957 1020.528076,215.018997 
	C1032.588867,223.292618 1044.657959,231.554810 1056.652466,239.923386 
	C1058.294678,241.069092 1059.526978,242.801971 1060.896729,244.616791 
z"/>
<path fill="#E8D2C4" opacity="1.000000" stroke="none" 
	d="
M1224.940308,460.020752 
	C1224.294312,478.082520 1223.366089,496.140228 1223.108765,514.207520 
	C1222.955811,524.943298 1223.859253,535.694214 1224.565308,546.696167 
	C1224.411865,547.628906 1223.980835,548.303833 1223.002197,549.087280 
	C1222.273438,549.184937 1222.092285,549.174072 1221.911255,549.163208 
	C1196.939697,549.108826 1171.968140,549.055298 1146.996582,548.999084 
	C1143.999023,548.992310 1141.001587,548.971252 1137.698364,548.617554 
	C1143.531372,541.726135 1149.588013,535.094788 1155.823853,528.636658 
	C1175.790161,507.958771 1195.774170,487.297302 1215.889526,466.764832 
	C1218.490845,464.109558 1221.903442,462.249298 1224.940308,460.020752 
z"/>
<path fill="#EDAC87" opacity="1.000000" stroke="none" 
	d="
M1223.043701,747.485962 
	C1222.721924,746.239868 1222.079712,744.535522 1222.051392,742.820984 
	C1221.879883,732.400208 1221.848145,721.977051 1221.678223,710.649658 
	C1221.400513,699.615051 1221.108887,689.486023 1221.055908,679.355835 
	C1220.995972,667.907104 1221.150513,656.457275 1221.211914,645.007935 
	C1221.470337,641.090088 1221.902466,637.174377 1221.952637,633.253906 
	C1222.073364,623.836365 1222.015137,614.416504 1222.249268,604.515747 
	C1222.469482,604.033875 1222.826050,604.005127 1222.826050,604.005127 
	C1222.882935,624.931885 1222.966187,645.858582 1222.990112,666.785339 
	C1223.020752,693.531250 1223.003540,720.277161 1223.043701,747.485962 
z"/>
<path fill="#E88D5D" opacity="1.000000" stroke="none" 
	d="
M1222.893433,603.541138 
	C1222.826050,604.005127 1222.469482,604.033875 1222.292236,604.053467 
	C1222.050537,586.074036 1221.985962,568.074890 1221.916260,549.619507 
	C1222.092285,549.174072 1222.273438,549.184937 1222.723877,549.224060 
	C1222.982544,567.193909 1222.971680,585.135498 1222.893433,603.541138 
z"/>
<path fill="#DD6431" opacity="1.000000" stroke="none" 
	d="
M408.332581,1046.993530 
	C415.740753,1043.139771 423.249542,1038.774414 431.288086,1035.880615 
	C490.128784,1014.699707 549.085388,993.840881 607.985779,972.825378 
	C648.715027,958.293396 689.415283,943.680237 730.123840,929.090149 
	C751.103210,921.571106 772.089172,914.069458 793.016479,906.407715 
	C794.868530,905.729614 796.721008,904.212402 797.864563,902.586487 
	C802.552063,895.921082 807.171936,889.188354 811.398865,882.226746 
	C813.812744,878.251221 816.718323,877.214172 820.960632,878.494324 
	C837.024902,883.341797 853.133240,888.043762 869.180786,892.945435 
	C914.013062,906.639282 958.837952,920.358276 1003.627502,934.191040 
	C1010.918335,936.442749 1018.014465,939.324646 1025.560303,941.965576 
	C1014.074646,962.083557 1002.211304,982.140686 990.387329,1002.221069 
	C963.100586,1048.561401 935.832825,1094.913086 908.460571,1141.563965 
	C898.929993,1140.749634 889.488403,1139.692749 880.064697,1138.495239 
	C871.623291,1137.422363 863.205261,1136.166260 854.770142,1135.041992 
	C842.267517,1133.375244 829.767700,1131.681885 817.249817,1130.136230 
	C807.965454,1128.989502 798.646057,1128.128784 789.357239,1127.015381 
	C776.336731,1125.454590 763.337463,1123.716309 750.315247,1122.170654 
	C740.695923,1121.028931 731.044067,1120.161133 721.425781,1119.011230 
	C711.340332,1117.805664 701.284790,1116.352539 691.203186,1115.112915 
	C682.245728,1114.011475 673.276306,1112.999512 664.302002,1112.044067 
	C642.515137,1109.724976 620.890808,1106.907837 599.756348,1100.518311 
	C574.185669,1092.787720 548.296204,1086.110352 522.534546,1079.014038 
	C501.798584,1073.302002 481.039459,1067.673950 460.305695,1061.954102 
	C443.503601,1057.318848 426.723083,1052.605591 409.938782,1047.906250 
	C409.484924,1047.779053 409.097076,1047.416260 408.332581,1046.993530 
z"/>
<path fill="#C74524" opacity="1.000000" stroke="none" 
	d="
M471.885925,788.876465 
	C450.536865,793.245972 429.187836,797.615540 407.056488,802.061401 
	C391.692078,806.113586 377.106293,810.076111 362.528809,814.068909 
	C345.066711,818.851746 327.625305,823.710999 310.141418,828.412476 
	C306.873230,829.291321 305.844147,830.695496 306.934814,834.064331 
	C308.157349,837.840759 308.752930,841.815308 309.753632,845.669250 
	C317.309814,874.769775 324.968964,903.843872 332.436218,932.967163 
	C334.820984,942.268066 336.723877,951.692444 338.847260,961.060364 
	C330.849762,956.701538 322.751221,952.516968 314.873901,947.950806 
	C292.084259,934.740662 269.179810,921.707092 246.772202,907.872498 
	C240.054779,903.725098 234.721725,897.277649 228.936691,891.695068 
	C223.670334,886.612854 218.597336,881.326050 213.533386,876.039124 
	C199.650711,861.545288 185.819534,847.002075 171.964462,832.481812 
	C157.994400,817.841064 144.021210,803.203369 130.047272,788.566406 
	C115.959442,773.810120 101.860863,759.064148 87.782066,744.299316 
	C74.506805,730.377258 61.217621,716.468140 47.998589,702.492798 
	C39.016449,692.996765 30.144741,683.396362 21.093868,673.549316 
	C23.906845,672.650635 27.206612,670.863586 29.735579,671.627686 
	C48.989174,677.445007 68.095177,683.751282 87.241440,689.922852 
	C128.727005,703.295471 170.197708,716.714294 211.697372,730.042908 
	C233.535126,737.056641 255.421143,743.920044 278.047211,750.964294 
	C283.871521,752.070984 288.934021,753.064697 294.240051,754.324097 
	C296.033997,755.131226 297.544586,755.892944 299.140686,756.181213 
	C324.709930,760.799683 350.270935,765.468628 375.873108,769.898865 
	C402.130371,774.442566 428.459686,778.575317 454.688995,783.270386 
	C460.567474,784.322632 466.161163,786.965698 471.885925,788.876465 
z"/>
<path fill="#E67434" opacity="1.000000" stroke="none" 
	d="
M338.988464,961.383789 
	C336.723877,951.692444 334.820984,942.268066 332.436218,932.967163 
	C324.968964,903.843872 317.309814,874.769775 309.753632,845.669250 
	C308.752930,841.815308 308.157349,837.840759 306.934814,834.064331 
	C305.844147,830.695496 306.873230,829.291321 310.141418,828.412476 
	C327.625305,823.710999 345.066711,818.851746 362.528809,814.068909 
	C377.106293,810.076111 391.692078,806.113586 406.656372,802.110718 
	C406.686646,878.567627 406.342255,955.051514 405.962830,1031.535156 
	C405.941528,1035.832520 405.631439,1040.128418 405.172546,1044.735840 
	C399.578369,1038.681396 394.142639,1032.415283 388.982880,1025.929688 
	C378.772125,1013.095215 368.672424,1000.171692 358.607513,987.222290 
	C352.041443,978.774353 345.617371,970.216064 338.988464,961.383789 
z"/>
<path fill="#E8D2C5" opacity="1.000000" stroke="none" 
	d="
M1063.359009,1110.992920 
	C1057.759033,1104.421997 1056.606567,1096.270386 1055.127563,1088.280518 
	C1052.864502,1076.055908 1050.952026,1063.765747 1048.627686,1051.553467 
	C1043.169434,1022.876099 1037.561768,994.227234 1031.998169,965.569946 
	C1031.081177,960.846069 1029.958374,956.159302 1029.149658,951.417969 
	C1028.105957,945.298706 1029.446289,944.041199 1035.505981,945.702393 
	C1057.461548,951.721680 1079.359985,957.950195 1101.326660,963.927917 
	C1127.299561,970.995850 1153.320190,977.888306 1179.325195,984.838074 
	C1179.957397,985.007080 1180.647827,984.959045 1181.730591,985.026978 
	C1176.783447,990.849854 1171.468384,996.706665 1166.040405,1002.457031 
	C1148.474609,1021.066528 1130.794434,1039.568726 1113.303345,1058.248047 
	C1102.746582,1069.521973 1092.555420,1081.137939 1082.012695,1092.425293 
	C1076.097412,1098.758179 1069.800659,1104.734619 1063.359009,1110.992920 
z"/>
<path fill="#C74524" opacity="1.000000" stroke="none" 
	d="
M119.249191,353.362000 
	C134.913788,351.757935 150.744095,350.412994 166.581818,349.161835 
	C176.485046,348.379486 186.395889,347.683685 196.309525,347.045410 
	C217.295807,345.694305 238.285446,344.395203 259.275269,343.099823 
	C264.892700,342.753143 270.515747,342.496796 276.871124,342.403809 
	C289.381348,343.044128 301.156311,343.487946 312.931976,343.913239 
	C331.689026,344.590668 350.445587,345.281708 369.203979,345.919464 
	C391.621704,346.681610 414.041840,347.372803 436.459442,348.138611 
	C444.592041,348.416412 452.723175,348.764618 460.850067,349.177704 
	C485.219116,350.416382 509.585724,351.702972 534.277466,353.018768 
	C535.413025,353.379669 536.224426,353.692596 537.083374,354.346619 
	C537.887756,355.756500 538.573853,356.884521 539.411987,357.885254 
	C552.194275,373.147797 565.034058,388.362335 577.783264,403.652405 
	C590.104919,418.429688 602.384583,433.242615 614.593872,448.112793 
	C622.796448,458.103027 630.844482,468.220184 638.532898,478.263794 
	C637.112488,478.127991 636.109558,478.067902 635.130737,477.881378 
	C587.137146,468.735962 539.151917,459.546234 491.150482,450.442108 
	C473.361511,447.068176 455.534912,443.892487 437.475616,440.467407 
	C436.841522,440.354736 436.457306,440.401031 435.727966,440.306641 
	C433.591797,439.799561 431.805634,439.407166 430.009033,439.070557 
	C388.057098,431.210083 346.098663,423.384155 304.153442,415.487946 
	C283.751373,411.647278 263.373657,407.677307 242.984894,403.765839 
	C215.532455,392.855743 188.042969,382.037598 160.643112,370.997009 
	C146.817642,365.426147 133.154556,359.452332 119.249191,353.362000 
z"/>
<path fill="#E67433" opacity="1.000000" stroke="none" 
	d="
M293.996521,754.058350 
	C288.934021,753.064697 283.871521,752.070984 278.436188,750.990784 
	C270.665863,742.450500 263.398010,733.878052 255.815155,725.593994 
	C252.126389,721.564026 247.809372,718.114441 243.844452,714.331177 
	C221.229507,692.752014 198.549438,671.239990 176.068970,649.521362 
	C164.601364,638.442383 153.500778,626.983398 142.253174,615.677368 
	C141.813751,615.235657 141.570786,614.598511 140.532669,612.903870 
	C199.216431,585.595886 257.544647,558.347046 316.955048,532.265015 
	C318.862549,534.956909 320.252869,537.425781 321.424377,539.994507 
	C336.525452,573.105347 351.699677,606.183533 366.639252,639.367188 
	C378.029022,664.666016 389.064331,690.124146 400.382355,715.455627 
	C402.026764,719.136108 404.369202,722.504761 406.283813,726.274170 
	C406.086578,726.689758 405.994232,726.848938 405.488708,727.006348 
	C403.445190,727.262268 401.793427,727.425720 400.187805,727.791565 
	C374.780884,733.579529 349.337677,739.217590 323.998260,745.288513 
	C313.878235,747.713135 303.990173,751.106140 293.996521,754.058350 
z"/>
<path fill="#E88D5D" opacity="1.000000" stroke="none" 
	d="
M406.388641,726.017700 
	C404.369202,722.504761 402.026764,719.136108 400.382355,715.455627 
	C389.064331,690.124146 378.029022,664.666016 366.639252,639.367188 
	C351.699677,606.183533 336.525452,573.105347 321.424377,539.994507 
	C320.252869,537.425781 318.862549,534.956909 317.320557,532.218384 
	C311.404022,521.864685 305.900421,511.641022 300.048279,501.620911 
	C281.120972,469.213226 262.065674,436.880280 243.022278,404.142212 
	C263.373657,407.677307 283.751373,411.647278 304.153442,415.487946 
	C346.098663,423.384155 388.057098,431.210083 430.009033,439.070557 
	C431.805634,439.407166 433.591797,439.799561 435.458435,440.552979 
	C434.577667,441.605286 433.591431,442.231812 432.669159,442.941498 
	C402.089600,466.472504 371.505432,489.997620 340.949524,513.559326 
	C333.660522,519.179871 326.468628,524.926392 318.570465,531.134949 
	C320.244202,531.637512 320.826080,531.860168 321.428192,531.986084 
	C357.035339,539.434326 392.640930,546.890198 428.253754,554.311218 
	C461.754333,561.292053 495.257690,568.259705 528.775330,575.158020 
	C532.168396,575.856262 533.807495,577.407227 532.739380,581.153320 
	C516.583984,599.470154 500.641571,617.538452 484.833618,635.723572 
	C468.589966,654.409973 452.514557,673.242493 436.294189,691.949280 
	C426.395203,703.365723 416.361694,714.665466 406.388641,726.017700 
z"/>
<path fill="#E88D5D" opacity="1.000000" stroke="none" 
	d="
M533.953308,352.970825 
	C509.585724,351.702972 485.219116,350.416382 460.850067,349.177704 
	C452.723175,348.764618 444.592041,348.416412 436.459442,348.138611 
	C414.041840,347.372803 391.621704,346.681610 369.203979,345.919464 
	C350.445587,345.281708 331.689026,344.590668 312.931976,343.913239 
	C301.156311,343.487946 289.381348,343.044128 277.280579,342.347778 
	C276.643463,302.489136 276.159760,262.891724 276.085571,223.293503 
	C276.041992,200.014832 276.876526,176.734741 276.855652,153.455688 
	C276.846893,143.701599 275.753021,133.939011 274.886139,124.203995 
	C274.731750,122.470421 273.268951,120.853363 272.028412,119.093887 
	C277.564514,116.315163 283.383484,113.375496 289.418823,110.981163 
	C308.437225,103.436203 327.544250,96.115051 346.602905,88.671272 
	C368.514526,80.113205 390.411346,71.517357 412.314117,62.936672 
	C430.190002,55.933563 448.050140,48.889927 465.944702,41.934830 
	C485.764343,34.231518 505.613647,26.604628 525.452881,18.951771 
	C539.042297,13.709747 552.634583,8.475042 566.235352,3.262637 
	C566.820679,3.038289 567.504761,3.071331 568.542358,2.954415 
	C592.292725,2.879947 615.643555,2.835544 639.454956,2.818777 
	C639.942566,20.880823 640.104736,38.916729 639.905334,56.948635 
	C639.853088,61.679276 638.679321,66.397514 637.555420,71.553665 
	C634.624634,72.308228 632.161255,72.648186 629.693237,72.950180 
	C607.304810,75.689621 584.905212,78.340042 562.529480,81.179146 
	C537.523865,84.351921 512.547974,87.758217 487.543732,90.942154 
	C467.801025,93.456108 448.022919,95.692642 428.282654,98.224953 
	C406.407196,101.031189 384.562408,104.075905 362.694092,106.939041 
	C339.014069,110.039375 315.320648,113.037575 291.637207,116.111923 
	C287.650970,116.629372 283.685486,117.306770 278.659332,118.069832 
	C281.213104,121.109970 282.803131,123.454292 284.824127,125.335678 
	C298.335022,137.913254 311.864288,150.473053 325.528046,162.883926 
	C345.583588,181.100479 365.765167,199.178223 385.876221,217.333679 
	C396.735229,227.136749 407.542358,236.997253 418.402802,246.798676 
	C438.392242,264.838837 458.388885,282.871094 478.411682,300.874207 
	C490.275818,311.541595 502.338562,321.992889 514.036804,332.838135 
	C520.952942,339.249939 527.332458,346.240509 533.953308,352.970825 
z"/>
<path fill="#E57433" opacity="1.000000" stroke="none" 
	d="
M638.961670,478.280518 
	C630.844482,468.220184 622.796448,458.103027 614.593872,448.112793 
	C602.384583,433.242615 590.104919,418.429688 577.783264,403.652405 
	C565.034058,388.362335 552.194275,373.147797 539.411987,357.885254 
	C538.573853,356.884521 537.887756,355.756500 537.426025,354.299072 
	C541.931335,351.291351 545.903564,348.136688 550.391357,346.142120 
	C575.117737,335.152771 599.985168,324.481354 624.775635,313.635468 
	C662.645813,297.067230 700.439636,280.322418 738.400879,263.965851 
	C744.856018,261.184479 751.987000,259.971436 758.805725,258.033813 
	C751.696045,281.710388 744.574707,305.383453 737.489990,329.067444 
	C736.492554,332.401733 735.674500,335.789673 734.671997,339.549377 
	C730.895935,344.336456 726.831238,348.460968 723.621582,353.168488 
	C714.859619,366.019073 706.543579,379.172791 697.881653,392.092834 
	C692.863647,399.577576 688.390747,407.614197 679.588867,412.596375 
	C669.315918,414.382416 659.589905,416.059448 649.799622,417.169647 
	C644.573242,417.762299 643.101440,420.276611 644.006531,425.456268 
	C644.633606,435.838470 645.153381,445.760101 645.941040,455.660431 
	C646.780273,466.209564 647.872803,476.738556 648.614746,487.136658 
	C647.919189,486.691101 647.463684,486.385162 646.827576,485.795227 
	C644.085266,483.101013 641.523438,480.690765 638.961670,478.280518 
z"/>
<path fill="#E67433" opacity="1.000000" stroke="none" 
	d="
M1040.363770,468.120056 
	C1064.207275,479.834045 1087.725586,491.584259 1111.229858,503.362396 
	C1114.499878,505.001038 1117.700928,506.777100 1121.070435,509.160461 
	C1120.899780,510.769867 1120.616455,511.716827 1120.282104,512.645447 
	C1115.933716,524.724548 1111.578003,536.801025 1107.224243,548.878174 
	C1102.496948,560.373840 1097.642578,571.819336 1093.085815,583.382202 
	C1089.917236,591.422302 1086.940308,599.554077 1084.309326,607.782837 
	C1083.026855,611.794067 1080.859619,612.689087 1077.220825,611.572327 
	C1069.118164,609.085571 1060.974731,606.724182 1052.918945,604.093872 
	C1026.520874,595.474487 1000.168884,586.713806 973.771301,578.092590 
	C953.220520,571.380920 932.602112,564.875549 912.070862,558.105530 
	C906.241882,556.183472 900.589844,553.710876 894.909485,551.362915 
	C893.612610,550.826843 892.534729,549.760925 890.274536,548.184631 
	C897.328552,544.000061 903.413208,540.062988 909.785828,536.666199 
	C938.985901,521.101624 968.248352,505.653625 997.526245,490.235748 
	C1011.652283,482.796906 1025.862061,475.517029 1040.363770,468.120056 
z"/>
<path fill="#E67433" opacity="1.000000" stroke="none" 
	d="
M786.962158,649.974731 
	C791.964355,653.140015 796.746338,656.742432 802.007935,659.392761 
	C822.010254,669.468750 842.164612,679.242920 862.276489,689.100769 
	C863.146912,689.527405 864.157776,689.667664 865.357788,690.341675 
	C865.406982,695.503845 865.201477,700.265747 864.815308,705.329712 
	C863.735840,708.354553 862.837097,711.077332 861.673096,714.054932 
	C860.627930,717.214722 859.847900,720.119812 858.911499,723.375244 
	C857.827209,727.479370 856.899292,731.233093 855.620483,735.024658 
	C853.840942,735.874023 852.200500,736.454529 851.019348,737.536377 
	C845.058350,742.996338 839.048035,748.419617 833.364258,754.161804 
	C814.329041,773.392822 795.347656,792.678772 776.522339,812.114746 
	C771.363525,817.440918 766.822876,823.365784 761.690247,829.082764 
	C760.377197,829.388855 759.372437,829.628174 758.192749,829.559265 
	C750.745178,826.039551 743.501892,822.759460 736.193970,819.630615 
	C720.155579,812.763977 704.084290,805.974060 687.852295,798.892944 
	C687.092041,797.814331 686.505981,796.995605 686.070618,795.855713 
	C699.404114,782.595093 712.830078,769.890076 725.647766,756.598572 
	C730.645630,751.415955 735.164307,745.354431 738.354065,738.925598 
	C746.855408,721.791138 754.614380,704.283691 762.459167,686.830505 
	C765.241760,680.639832 767.420410,674.177734 769.898560,667.616150 
	C769.922363,667.392761 770.002991,666.950806 770.281250,666.796265 
	C771.062256,665.757080 771.565063,664.872437 772.355713,663.829590 
	C777.416443,659.105774 782.189270,654.540283 786.962158,649.974731 
z"/>
<path fill="#E8D2C4" opacity="1.000000" stroke="none" 
	d="
M1218.110718,741.928284 
	C1219.192505,744.105408 1220.274170,746.282471 1221.683350,749.118652 
	C1217.712158,750.408325 1214.318115,751.543518 1210.903809,752.614502 
	C1153.337646,770.670959 1095.780518,788.756470 1038.193848,806.747498 
	C1020.435669,812.295532 1002.595398,817.580994 984.388000,822.589478 
	C982.793762,818.050537 981.695007,813.880066 980.394958,809.773254 
	C977.995483,802.193542 975.478027,794.651184 973.009705,787.093262 
	C1046.103149,756.707703 1119.196655,726.322083 1192.884277,696.141113 
	C1201.689209,711.539917 1209.899902,726.734131 1218.110718,741.928284 
z"/>
<path fill="#C74524" opacity="1.000000" stroke="none" 
	d="
M889.815491,557.007019 
	C897.366089,557.141541 902.792053,561.912231 908.308105,566.010559 
	C926.025513,579.174438 943.450195,592.731384 961.075989,606.019653 
	C987.057495,625.607300 1013.099365,645.114990 1039.151001,664.609497 
	C1045.624878,669.453918 1052.234741,674.116699 1059.253906,679.204956 
	C1067.121216,657.959656 1074.775757,637.289062 1082.973877,615.150269 
	C1118.769531,639.971008 1153.104370,665.809204 1187.565674,691.472229 
	C1187.422852,691.916382 1187.280029,692.360535 1187.137085,692.804688 
	C1182.122803,692.804688 1177.060425,693.250488 1172.103394,692.717163 
	C1159.599243,691.372070 1147.144287,689.571777 1134.666260,687.980042 
	C1118.569092,685.926575 1102.431274,684.152100 1086.382080,681.776733 
	C1074.303833,679.989014 1062.635742,681.759644 1050.825684,683.888550 
	C1034.203979,686.884766 1017.474670,689.282715 1000.802490,692.004395 
	C998.687073,692.349731 996.638550,693.104492 994.167725,693.436035 
	C992.316589,692.196472 990.971191,690.933350 989.379089,690.224792 
	C975.602783,684.093811 961.781982,678.062561 948.000000,671.633240 
	C947.789001,669.064819 948.183716,666.529663 947.220398,664.715576 
	C934.522949,640.802979 921.593018,617.014038 908.810425,593.146423 
	C902.385559,581.149841 896.141418,569.056580 889.815491,557.007019 
z"/>
<path fill="#D1B6A8" opacity="1.000000" stroke="none" 
	d="
M1107.675293,548.878662 
	C1111.578003,536.801025 1115.933716,524.724548 1120.282104,512.645447 
	C1120.616455,511.716827 1120.899780,510.769867 1121.303467,509.447418 
	C1125.715698,500.648621 1130.132324,492.283875 1134.329834,483.810638 
	C1157.963135,436.104218 1181.541992,388.370941 1205.150879,340.652374 
	C1205.730225,339.481537 1206.440552,338.375519 1207.216187,337.018250 
	C1207.736084,337.446014 1208.243408,337.649719 1208.351685,337.982971 
	C1214.257202,356.165192 1220.377930,374.282837 1225.921021,392.575500 
	C1229.922852,405.781555 1227.944580,419.286896 1226.688354,432.720856 
	C1225.868896,441.484100 1225.568359,450.295898 1224.987793,459.553345 
	C1221.903442,462.249298 1218.490845,464.109558 1215.889526,466.764832 
	C1195.774170,487.297302 1175.790161,507.958771 1155.823853,528.636658 
	C1149.588013,535.094788 1143.531372,541.726135 1137.238525,548.557739 
	C1127.431519,548.851257 1117.778931,548.865234 1107.675293,548.878662 
z"/>
<path fill="#D1B6A8" opacity="1.000000" stroke="none" 
	d="
M972.686890,786.966553 
	C975.478027,794.651184 977.995483,802.193542 980.394958,809.773254 
	C981.695007,813.880066 982.793762,818.050537 983.998352,822.586792 
	C966.530518,828.638733 949.067749,834.359558 931.558533,839.934448 
	C916.398132,844.761597 901.184937,849.423157 885.495239,853.796997 
	C884.669434,852.319641 884.242065,851.221680 884.033142,850.083679 
	C881.130310,834.273499 878.152344,818.476074 875.404480,802.638794 
	C872.146606,783.862000 869.372925,764.996582 865.818726,746.277954 
	C864.319946,738.384277 861.362427,730.767517 859.067993,723.024902 
	C859.847900,720.119812 860.627930,717.214722 861.975952,714.090698 
	C862.942017,713.914062 863.340088,713.956421 863.738098,713.998779 
	C872.451416,720.095398 881.050293,726.363892 889.899353,732.256714 
	C917.336487,750.527771 944.868713,768.656128 972.686890,786.966553 
z"/>
<path fill="#D0B5A8" opacity="1.000000" stroke="none" 
	d="
M784.166443,261.065491 
	C785.586121,258.127899 786.363342,254.564484 788.522766,252.347397 
	C816.882324,223.229706 845.435791,194.300964 873.953552,165.337524 
	C874.385437,164.898895 874.980774,164.621292 876.030823,163.907700 
	C872.832275,185.535294 869.729553,206.559692 866.611267,227.581802 
	C864.805420,239.756546 863.324646,251.994644 861.011047,264.072723 
	C859.810181,270.342194 857.892761,276.728210 854.966370,282.370392 
	C840.564880,310.136993 825.716919,337.671997 810.917725,365.632233 
	C810.408264,366.302338 810.007629,366.628937 809.340210,366.632141 
	C808.871521,364.834381 808.767883,363.338715 808.453003,361.888947 
	C803.250183,337.930725 798.228943,313.930084 792.696777,290.047882 
	C790.428040,280.253967 787.043396,270.718506 784.166443,261.065491 
z"/>
<path fill="#C74523" opacity="1.000000" stroke="none" 
	d="
M644.017151,424.986328 
	C643.101440,420.276611 644.573242,417.762299 649.799622,417.169647 
	C659.589905,416.059448 669.315918,414.382416 679.503235,412.925262 
	C692.147034,415.874115 704.358765,418.828857 716.560852,421.822754 
	C717.517639,422.057526 718.375488,422.702850 719.333191,422.925354 
	C728.629822,425.084656 735.325317,429.193634 734.418579,440.419128 
	C733.875488,447.142456 734.317688,453.943756 734.276062,460.709778 
	C734.248840,465.135803 734.025818,469.563507 734.103699,473.986694 
	C734.344482,487.650269 734.980591,501.313385 734.919800,514.974243 
	C734.834778,534.070435 734.259521,553.164551 733.587402,572.524292 
	C730.552063,569.567505 727.823242,566.345886 725.017761,562.746216 
	C720.846252,554.060120 717.245239,545.462280 712.569458,537.495178 
	C694.259216,506.296143 675.676697,475.255951 657.032532,444.254639 
	C653.043457,437.621704 648.373474,431.398346 644.017151,424.986328 
z"/>
<path fill="#E88D5D" opacity="1.000000" stroke="none" 
	d="
M787.130859,649.688232 
	C782.189270,654.540283 777.416443,659.105774 772.156677,663.531372 
	C767.343994,652.976562 763.036987,642.553711 758.688293,632.148315 
	C751.145508,614.099854 743.576904,596.062256 736.019043,578.020142 
	C760.286377,573.346008 784.542480,568.612732 808.824524,564.016541 
	C827.890808,560.407593 846.980713,556.921021 866.079346,553.487305 
	C870.616821,552.671509 875.231384,552.284607 881.366028,551.501953 
	C877.694946,555.800354 875.154297,559.136108 872.249756,562.117371 
	C853.667786,581.189880 834.976868,600.156433 816.381714,619.216187 
	C806.624878,629.216858 796.989685,639.336060 787.130859,649.688232 
z"/>
<path fill="#E88D5D" opacity="1.000000" stroke="none" 
	d="
M889.556641,556.847473 
	C896.141418,569.056580 902.385559,581.149841 908.810425,593.146423 
	C921.593018,617.014038 934.522949,640.802979 947.220398,664.715576 
	C948.183716,666.529663 947.789001,669.064819 947.638184,671.678955 
	C940.061951,675.090759 932.913086,678.189087 925.676514,681.066956 
	C905.469116,689.102661 885.225342,697.047119 864.995972,705.027588 
	C865.201477,700.265747 865.406982,695.503845 865.724121,690.341675 
	C868.350403,672.064148 870.806152,654.178528 873.395752,636.312256 
	C876.198914,616.972656 879.102051,597.647339 882.012573,578.323547 
	C883.236084,570.200378 884.590576,562.097046 886.079651,552.768616 
	C887.651672,554.683228 888.474731,555.685547 889.556641,556.847473 
z"/>
<path fill="#E57433" opacity="1.000000" stroke="none" 
	d="
M860.931152,386.064880 
	C866.849731,387.428528 872.476135,389.097992 878.692139,391.033295 
	C896.131287,399.232117 913.004333,407.115784 929.811279,415.137817 
	C933.355225,416.829407 936.657043,419.028229 940.070435,420.993347 
	C936.032349,429.877869 931.787842,438.675293 927.993286,447.662659 
	C914.755188,479.017487 901.676025,510.439423 888.509033,541.824341 
	C888.218933,542.515808 887.600220,543.069458 887.134705,543.687317 
	C886.568909,543.749268 886.003052,543.811157 885.437256,543.873108 
	C883.962646,537.949585 882.084473,532.092773 881.091248,526.089600 
	C878.418274,509.932983 876.155396,493.708893 873.669128,477.520874 
	C870.806274,458.881256 867.886169,440.250397 864.976013,421.618103 
	C863.469788,411.974030 861.863403,402.344818 860.462280,392.685699 
	C860.164490,390.632446 860.561829,388.478333 860.931152,386.064880 
z"/>
<path fill="#E7D1C3" opacity="1.000000" stroke="none" 
	d="
M784.057739,261.445251 
	C787.043396,270.718506 790.428040,280.253967 792.696777,290.047882 
	C798.228943,313.930084 803.250183,337.930725 808.453003,361.888947 
	C808.767883,363.338715 808.871521,364.834381 809.103516,366.745056 
	C788.833374,383.439606 768.533203,399.697754 747.857544,416.003754 
	C759.637695,364.642731 771.793335,313.233856 784.057739,261.445251 
z"/>
<path fill="#C74523" opacity="1.000000" stroke="none" 
	d="
M940.447632,421.000336 
	C936.657043,419.028229 933.355225,416.829407 929.811279,415.137817 
	C913.004333,407.115784 896.131287,399.232117 879.064819,390.987152 
	C882.200867,384.193359 885.419800,377.637817 888.935974,371.245758 
	C895.352966,359.580536 901.945984,348.012207 908.736084,336.197876 
	C915.043152,344.069763 921.152588,352.093964 927.101746,360.235291 
	C941.770203,380.308655 956.441833,400.380737 970.933228,420.581757 
	C974.369141,425.371490 977.101318,430.666046 980.157166,435.728394 
	C979.870117,436.119232 979.583069,436.510040 979.296021,436.900879 
	C977.846252,436.592224 976.287231,436.527863 974.964294,435.935883 
	C965.424255,431.667358 955.943787,427.266083 946.414429,422.973450 
	C944.620117,422.165192 942.691528,421.655060 940.447632,421.000336 
z"/>
<path fill="#6D2E1A" opacity="1.000000" stroke="none" 
	d="
M864.815308,705.329712 
	C885.225342,697.047119 905.469116,689.102661 925.676514,681.066956 
	C932.913086,678.189087 940.061951,675.090759 947.612671,672.047363 
	C961.781982,678.062561 975.602783,684.093811 989.379089,690.224792 
	C990.971191,690.933350 992.316589,692.196472 993.795532,693.531738 
	C973.076172,699.336731 952.239197,704.470581 931.634216,710.409363 
	C918.065796,714.320129 904.345825,714.008118 890.550903,713.982361 
	C881.915466,713.966187 873.279968,713.915283 864.191284,713.939331 
	C863.340088,713.956421 862.942017,713.914062 862.241211,713.835938 
	C862.837097,711.077332 863.735840,708.354553 864.815308,705.329712 
z"/>
<path fill="#C74524" opacity="1.000000" stroke="none" 
	d="
M1218.388916,741.636841 
	C1209.899902,726.734131 1201.689209,711.539917 1193.257568,696.071716 
	C1196.367676,679.912109 1199.822021,664.051086 1203.000977,648.135132 
	C1207.790039,624.157532 1212.386841,600.141541 1218.076660,576.197815 
	C1218.384399,580.125122 1218.878662,584.048157 1218.968018,587.980347 
	C1219.375122,605.910889 1219.659302,623.844116 1220.028076,641.775574 
	C1220.047607,642.726379 1220.436035,643.669495 1220.932251,644.812073 
	C1221.150513,656.457275 1220.995972,667.907104 1221.055908,679.355835 
	C1221.108887,689.486023 1221.400513,699.615051 1221.543579,710.172546 
	C1221.000610,712.238159 1220.166626,713.853821 1220.057251,715.517090 
	C1219.491821,724.119812 1219.111816,732.734741 1218.388916,741.636841 
z"/>
<path fill="#6D2E1A" opacity="1.000000" stroke="none" 
	d="
M735.770630,577.795166 
	C743.576904,596.062256 751.145508,614.099854 758.688293,632.148315 
	C763.036987,642.553711 767.343994,652.976562 771.868774,663.689697 
	C771.565063,664.872437 771.062256,665.757080 769.988037,666.621521 
	C760.709595,661.424988 752.002686,656.248657 743.216553,650.707031 
	C736.695984,638.942993 730.288086,627.525208 723.797485,616.154541 
	C721.109924,611.446228 719.642639,606.866699 720.572327,601.079834 
	C722.591797,588.510254 723.645752,575.785583 725.094421,563.124329 
	C727.823242,566.345886 730.552063,569.567505 733.536926,573.004272 
	C734.369446,574.669678 734.945862,576.119873 735.770630,577.795166 
z"/>
<path fill="#D1B6A8" opacity="1.000000" stroke="none" 
	d="
M647.008118,486.079224 
	C647.463684,486.385162 647.919189,486.691101 648.677795,487.549011 
	C649.841309,494.691193 650.654175,501.288025 651.573242,507.870056 
	C652.978943,517.937073 654.490845,527.994507 650.710938,538.217651 
	C635.527344,576.951172 620.498596,615.388489 605.662903,653.900208 
	C586.280273,704.214905 567.050415,754.588501 547.754883,804.936768 
	C545.303772,804.492859 542.852722,804.048889 540.524536,803.312622 
	C543.135681,802.379395 546.106079,802.496765 546.010803,798.549805 
	C545.866394,792.564331 546.169861,786.563904 545.909912,780.586060 
	C544.671448,752.101685 543.306213,723.622864 541.989563,695.141846 
	C541.935852,693.979614 541.968506,692.811279 541.871338,691.653320 
	C540.598022,676.479858 539.059082,661.323669 538.092590,646.130981 
	C537.103516,630.582397 536.873047,614.985779 535.896118,599.436157 
	C535.506836,593.240173 534.006165,587.114014 533.011414,580.956055 
	C533.807495,577.407227 532.168396,575.856262 528.775330,575.158020 
	C495.257690,568.259705 461.754333,561.292053 428.253754,554.311218 
	C392.640930,546.890198 357.035339,539.434326 321.428192,531.986084 
	C320.826080,531.860168 320.244202,531.637512 318.570465,531.134949 
	C326.468628,524.926392 333.660522,519.179871 340.949524,513.559326 
	C371.505432,489.997620 402.089600,466.472504 432.669159,442.941498 
	C433.591431,442.231812 434.577667,441.605286 435.803589,440.693665 
	C436.457306,440.401031 436.841522,440.354736 437.580261,440.843353 
	C439.075500,443.199066 440.107513,445.099335 441.373016,446.828857 
	C465.582397,479.916199 489.816284,512.985657 514.052673,546.053284 
	C519.939453,554.085022 525.850830,562.098694 531.756165,570.116882 
	C534.055786,573.239197 536.371887,575.080688 540.293152,571.927612 
	C545.194397,567.986450 550.639954,564.725098 555.569580,560.815979 
	C581.686951,540.105530 607.761169,519.339661 633.734741,498.449310 
	C638.434998,494.668884 642.597412,490.219696 647.008118,486.079224 
z"/>
<path fill="#C74524" opacity="1.000000" stroke="none" 
	d="
M548.001282,805.227783 
	C567.050415,754.588501 586.280273,704.214905 605.662903,653.900208 
	C620.498596,615.388489 635.527344,576.951172 650.988037,538.450012 
	C652.271301,540.248657 653.453369,542.016174 653.735962,543.917419 
	C655.921936,558.622253 657.922913,573.354553 660.004822,588.074951 
	C660.992676,595.059998 662.031921,602.037781 663.023315,609.446899 
	C665.342712,630.514832 667.683289,651.155212 670.031738,671.794556 
	C672.530701,693.756531 675.037231,715.717590 677.509521,738.096680 
	C679.321106,754.285706 681.064331,770.069946 683.082520,785.818970 
	C683.533081,789.335083 684.948608,792.727478 685.919922,796.176880 
	C686.505981,796.995605 687.092041,797.814331 687.790894,799.275085 
	C687.287781,804.165466 685.948853,808.457458 686.201843,812.653442 
	C686.789001,822.393494 688.144714,832.087219 689.188904,841.799683 
	C665.001892,835.773132 640.795715,829.821960 616.633484,823.697571 
	C595.039978,818.224182 573.492859,812.567566 551.933838,806.958984 
	C550.666077,806.629150 549.474609,806.005676 548.001282,805.227783 
z"/>
<path fill="#E8D2C4" opacity="1.000000" stroke="none" 
	d="
M532.739380,581.153320 
	C534.006165,587.114014 535.506836,593.240173 535.896118,599.436157 
	C536.873047,614.985779 537.103516,630.582397 538.092590,646.130981 
	C539.059082,661.323669 540.598022,676.479858 541.871338,691.653320 
	C541.968506,692.811279 541.935852,693.979614 541.989563,695.141846 
	C543.306213,723.622864 544.671448,752.101685 545.909912,780.586060 
	C546.169861,786.563904 545.866394,792.564331 546.010803,798.549805 
	C546.106079,802.496765 543.135681,802.379395 540.234863,803.086182 
	C524.617676,799.167053 509.404236,795.215210 494.213562,791.177795 
	C489.414856,789.902283 484.676971,788.397949 479.379822,786.678223 
	C465.798279,775.837891 452.713684,765.360168 439.708557,754.784729 
	C428.393005,745.583191 417.167297,736.271240 405.901886,727.008118 
	C405.994232,726.848938 406.086578,726.689758 406.283752,726.274170 
	C416.361694,714.665466 426.395203,703.365723 436.294189,691.949280 
	C452.514557,673.242493 468.589966,654.409973 484.833618,635.723572 
	C500.641571,617.538452 516.583984,599.470154 532.739380,581.153320 
z"/>
<path fill="#E8D2C4" opacity="1.000000" stroke="none" 
	d="
M858.911560,723.375244 
	C861.362427,730.767517 864.319946,738.384277 865.818726,746.277954 
	C869.372925,764.996582 872.146606,783.862000 875.404480,802.638794 
	C878.152344,818.476074 881.130310,834.273499 884.033142,850.083679 
	C884.242065,851.221680 884.669434,852.319641 885.107422,853.838745 
	C871.325684,858.793457 857.436523,863.360291 843.535767,867.891541 
	C837.049805,870.005798 830.641907,872.504028 824.009338,873.974731 
	C819.291809,875.020813 813.954285,875.843079 809.415649,874.697083 
	C784.427734,868.388123 759.600647,861.442383 734.678101,854.302368 
	C742.547791,845.882202 750.457703,837.874817 758.367676,829.867432 
	C759.372437,829.628174 760.377197,829.388855 762.026062,829.317749 
	C763.488220,829.610718 764.306152,829.843262 765.124390,829.844543 
	C788.236633,829.879517 811.349182,829.842896 834.460938,829.960022 
	C837.839478,829.977112 838.520569,828.208252 839.061523,825.442871 
	C842.565979,807.528503 846.352539,789.668518 849.756287,771.735596 
	C852.072571,759.532410 853.916321,747.239624 855.971436,734.986877 
	C856.899292,731.233093 857.827209,727.479370 858.911560,723.375244 
z"/>
<path fill="#D95C2F" opacity="1.000000" stroke="none" 
	d="
M405.488708,727.006348 
	C417.167297,736.271240 428.393005,745.583191 439.708557,754.784729 
	C452.713684,765.360168 465.798279,775.837891 478.998962,786.665466 
	C476.971191,787.546448 474.792847,788.119995 472.250183,788.785034 
	C466.161163,786.965698 460.567474,784.322632 454.688995,783.270386 
	C428.459686,778.575317 402.130371,774.442566 375.873108,769.898865 
	C350.270935,765.468628 324.709930,760.799683 299.140686,756.181213 
	C297.544586,755.892944 296.033997,755.131226 294.240051,754.324097 
	C303.990173,751.106140 313.878235,747.713135 323.998260,745.288513 
	C349.337677,739.217590 374.780884,733.579529 400.187805,727.791565 
	C401.793427,727.425720 403.445190,727.262268 405.488708,727.006348 
z"/>
<path fill="#6C2E1A" opacity="1.000000" stroke="none" 
	d="
M758.192688,829.559204 
	C750.457703,837.874817 742.547791,845.882202 734.382874,854.118286 
	C719.376831,850.257874 704.625793,846.168640 689.531860,841.939575 
	C688.144714,832.087219 686.789001,822.393494 686.201843,812.653442 
	C685.948853,808.457458 687.287781,804.165466 687.964966,799.534973 
	C704.084290,805.974060 720.155579,812.763977 736.193970,819.630615 
	C743.501892,822.759460 750.745178,826.039551 758.192688,829.559204 
z"/>
<path fill="#D95C2F" opacity="1.000000" stroke="none" 
	d="
M758.927124,257.720276 
	C751.987000,259.971436 744.856018,261.184479 738.400879,263.965851 
	C700.439636,280.322418 662.645813,297.067230 624.775635,313.635468 
	C599.985168,324.481354 575.117737,335.152771 550.391357,346.142120 
	C545.903564,348.136688 541.931335,351.291351 537.378418,353.958008 
	C536.224426,353.692596 535.413025,353.379669 534.277466,353.018738 
	C527.332458,346.240509 520.952942,339.249939 514.036804,332.838135 
	C502.338562,321.992889 490.275818,311.541595 478.411682,300.874207 
	C458.388885,282.871094 438.392242,264.838837 418.402802,246.798676 
	C407.542358,236.997253 396.735229,227.136749 385.876221,217.333679 
	C365.765167,199.178223 345.583588,181.100479 325.528046,162.883926 
	C311.864288,150.473053 298.335022,137.913254 284.824127,125.335678 
	C282.803131,123.454292 281.213104,121.109970 278.659332,118.069832 
	C283.685486,117.306770 287.650970,116.629372 291.637207,116.111923 
	C315.320648,113.037575 339.014069,110.039375 362.694092,106.939041 
	C384.562408,104.075905 406.407196,101.031189 428.282654,98.224953 
	C448.022919,95.692642 467.801025,93.456108 487.543732,90.942154 
	C512.547974,87.758217 537.523865,84.351921 562.529480,81.179146 
	C584.905212,78.340042 607.304810,75.689621 629.693237,72.950180 
	C632.161255,72.648186 634.624634,72.308228 637.521851,71.965027 
	C647.665283,79.487114 653.048035,90.342186 659.542053,100.322350 
	C666.962280,111.725861 674.131104,123.292595 681.461243,134.755096 
	C702.753113,168.050125 723.985291,201.383926 745.450806,234.566742 
	C749.760010,241.228195 754.995239,247.290665 759.963989,253.951996 
	C759.765869,255.318710 759.407227,256.362732 758.927124,257.720276 
z"/>
<path fill="#E8D2C4" opacity="1.000000" stroke="none" 
	d="
M646.827576,485.795227 
	C642.597412,490.219696 638.434998,494.668884 633.734741,498.449310 
	C607.761169,519.339661 581.686951,540.105530 555.569580,560.815979 
	C550.639954,564.725098 545.194397,567.986450 540.293152,571.927612 
	C536.371887,575.080688 534.055786,573.239197 531.756165,570.116882 
	C525.850830,562.098694 519.939453,554.085022 514.052673,546.053284 
	C489.816284,512.985657 465.582397,479.916199 441.373016,446.828857 
	C440.107513,445.099335 439.075500,443.199066 437.830139,441.002319 
	C455.534912,443.892487 473.361511,447.068176 491.150482,450.442108 
	C539.151917,459.546234 587.137146,468.735962 635.130737,477.881378 
	C636.109558,478.067902 637.112488,478.127991 638.532898,478.263794 
	C641.523438,480.690765 644.085266,483.101013 646.827576,485.795227 
z"/>
<path fill="#D85C2F" opacity="1.000000" stroke="none" 
	d="
M663.047974,609.018860 
	C662.031921,602.037781 660.992676,595.059998 660.004822,588.074951 
	C657.922913,573.354553 655.921936,558.622253 653.735962,543.917419 
	C653.453369,542.016174 652.271301,540.248657 651.228821,538.186829 
	C654.490845,527.994507 652.978943,517.937073 651.573242,507.870056 
	C650.654175,501.288025 649.841309,494.691193 648.917847,487.688660 
	C647.872803,476.738556 646.780273,466.209564 645.941040,455.660431 
	C645.153381,445.760101 644.633606,435.838470 644.006531,425.456268 
	C648.373474,431.398346 653.043457,437.621704 657.032532,444.254639 
	C675.676697,475.255951 694.259216,506.296143 712.569458,537.495178 
	C717.245239,545.462280 720.846252,554.060120 725.017761,562.746216 
	C723.645752,575.785583 722.591797,588.510254 720.572327,601.079834 
	C719.642639,606.866699 721.109924,611.446228 723.797485,616.154541 
	C730.288086,627.525208 736.695984,638.942993 742.830017,650.652893 
	C740.587952,650.001526 738.630859,649.081238 736.721741,648.070129 
	C712.159851,635.060547 687.604736,622.038086 663.047974,609.018860 
z"/>
<path fill="#D1B6A8" opacity="1.000000" stroke="none" 
	d="
M663.023315,609.446899 
	C687.604736,622.038086 712.159851,635.060547 736.721741,648.070129 
	C738.630859,649.081238 740.587952,650.001526 742.909302,651.018188 
	C752.002686,656.248657 760.709595,661.424988 769.709778,666.776062 
	C770.002991,666.950806 769.922363,667.392761 769.570679,667.711792 
	C768.526794,668.479980 767.797241,668.881226 767.147522,669.385376 
	C741.735840,689.105347 716.359619,708.871338 690.898254,728.527039 
	C686.632690,731.820007 682.002258,734.640320 677.540405,737.679077 
	C675.037231,715.717590 672.530701,693.756531 670.031738,671.794556 
	C667.683289,651.155212 665.342712,630.514832 663.023315,609.446899 
z"/>
<path fill="#E88D5D" opacity="1.000000" stroke="none" 
	d="
M677.509521,738.096619 
	C682.002258,734.640320 686.632690,731.820007 690.898254,728.527039 
	C716.359619,708.871338 741.735840,689.105347 767.147522,669.385376 
	C767.797241,668.881226 768.526794,668.479980 769.546875,667.935181 
	C767.420410,674.177734 765.241760,680.639832 762.459167,686.830505 
	C754.614380,704.283691 746.855408,721.791138 738.354065,738.925598 
	C735.164307,745.354431 730.645630,751.415955 725.647766,756.598572 
	C712.830078,769.890076 699.404114,782.595093 686.070679,795.855713 
	C684.948608,792.727478 683.533081,789.335083 683.082520,785.818970 
	C681.064331,770.069946 679.321106,754.285706 677.509521,738.096619 
z"/>
<path fill="#E88E5E" opacity="1.000000" stroke="none" 
	d="
M855.620483,735.024658 
	C853.916321,747.239624 852.072571,759.532410 849.756287,771.735596 
	C846.352539,789.668518 842.565979,807.528503 839.061523,825.442871 
	C838.520569,828.208252 837.839478,829.977112 834.460938,829.960022 
	C811.349182,829.842896 788.236633,829.879517 765.124390,829.844543 
	C764.306152,829.843262 763.488220,829.610718 762.334351,829.250916 
	C766.822876,823.365784 771.363525,817.440918 776.522339,812.114746 
	C795.347656,792.678772 814.329041,773.392822 833.364258,754.161804 
	C839.048035,748.419617 845.058350,742.996338 851.019348,737.536377 
	C852.200500,736.454529 853.840942,735.874023 855.620483,735.024658 
z"/>
</svg>