<svg width="430" height="308" viewBox="0 0 430 308" fill="none" xmlns="http://www.w3.org/2000/svg">
<mask id="mask0_281_166" style="mask-type:alpha" maskUnits="userSpaceOnUse" x="0" y="0" width="430" height="308">
<rect width="430" height="308" fill="#D9D9D9"/>
</mask>
<g mask="url(#mask0_281_166)">
<rect x="-1" width="430" height="320" fill="#C6E2FF"/>
<g filter="url(#filter0_f_281_166)">
<path d="M125.56 253.237C163.425 253.237 194.12 222.74 194.12 185.119C194.12 147.498 163.425 117 125.56 117C87.6954 117 57 147.498 57 185.119C57 222.74 87.6954 253.237 125.56 253.237Z" fill="#FFFDCB"/>
</g>
<path d="M561 132.082C558.197 132.181 555.41 132.796 552.735 133.827C545.637 136.554 539.267 141.652 534.243 148.029C529.133 154.514 524.264 163.103 524.598 172.147C520.603 171.155 516.436 171.949 512.741 174.22C510.529 175.579 508.549 177.483 507.006 179.764C506.62 180.339 506.277 180.914 505.969 181.519C505.317 180.964 504.657 180.418 503.98 179.912C499.076 176.263 493.057 174.269 487.339 176.362C485.204 177.145 483.292 178.415 481.732 180.17C476.237 169.529 465.066 163.956 454.529 167.06C454.332 167.119 454.126 167.189 453.921 167.248C453.835 167.02 453.749 166.792 453.663 166.574C452.943 164.63 452.154 162.736 451.289 160.871C447.774 153.334 443.05 146.432 437.348 140.948C431.724 135.543 425.132 131.368 417.999 129.404C410.977 127.46 403.536 127.54 396.549 129.612C389.236 131.784 382.463 136.296 377.499 142.872C373.984 139.867 369.551 138.419 365.179 138.756C362.719 138.944 360.335 139.639 358.098 140.858C357.103 141.394 356.177 142.058 355.294 142.812C354.025 142.148 352.731 141.562 351.402 141.057C345.812 138.964 339.811 138.329 333.964 138.478C328.177 138.617 322.322 139.549 316.826 141.711C306.847 145.629 298.008 153.8 294.227 165.433C293.85 166.594 293.618 167.823 293.198 168.964C293.053 169.36 292.864 169.836 292.624 170.174C292.538 170.293 292.444 170.441 292.315 170.501C292.307 170.501 292.307 170.501 292.298 170.501C291.749 170.441 291.064 169.757 290.575 169.47C290.052 169.152 289.512 168.865 288.972 168.587C287.617 167.893 286.237 167.288 284.822 166.812C279.533 165.037 273.84 164.878 268.473 166.296C258.451 168.954 249.458 177.998 246.046 189.324C241.75 186.14 236.898 184.326 231.677 184.514C225.83 184.722 220.249 187.459 215.945 192.021C215.568 192.418 215.208 192.835 214.865 193.251C211.65 191.327 208.101 190.078 204.594 189.215C193.226 186.418 180.28 186.378 170.524 194.689C166.735 197.922 163.631 202.028 161.762 206.937C154.792 200.282 145.885 196.355 136.849 195.929C126.869 195.463 117.122 199.658 109.526 207.066C106.139 210.358 103.173 214.375 101.081 218.907C97.7975 214.543 93.7767 211.162 88.9071 209.337C85.8979 208.206 82.5629 207.661 79.2965 207.889C78.2335 204.001 76.5788 200.411 74.3584 197.248C70.0118 191.059 63.1189 187.37 56.2003 187.826C53.2168 188.025 50.019 188.957 47.387 190.792C47.1813 190.365 46.9841 189.939 46.7612 189.522C46.2039 188.471 45.5952 187.44 44.9608 186.448C43.692 184.484 42.3374 182.58 40.8457 180.835C37.8622 177.334 34.3729 174.359 30.5749 172.137C22.5504 167.456 13.1713 166.177 4.42663 168.646C-0.125752 169.936 -4.60098 172.137 -8.35605 175.42C-12.1626 167.932 -18.0524 161.248 -25.5625 159.473C-32.584 157.807 -40.8485 160.197 -45.2895 166.861C-48.7016 161.675 -54.8486 158.799 -60.2583 160.881C-62.2044 155.228 -64.2191 149.625 -68.2057 145.4C-70.2718 143.199 -72.7752 141.493 -75.5358 140.779C-77.2419 140.333 -78.9908 140.253 -80.7312 140.372C-81.1427 140.402 -81.5713 140.422 -82 140.452V264.189C-29.5576 267.422 23.0562 268.612 75.55 269.733C130.093 270.903 184.653 271.27 239.204 270.804C293.979 270.328 348.753 269.009 403.501 266.817C456.021 264.715 508.549 261.938 560.991 258.05V132.082H561Z" fill="#E2F0FD"/>
<path d="M430 234.76C429.731 235.178 429.473 235.63 429.14 235.839C428.475 236.265 427.626 236.065 426.927 236.315C423.934 237.403 420.666 240.665 418.035 242.956C416.028 244.713 414.251 247.339 411.7 246.469C408.392 245.34 406.012 240.506 403.106 238.047C398.387 234.041 394.345 239.602 389.661 241.585C388.927 241.894 388.205 241.835 387.471 242.061C386.967 242.212 387.334 243.082 386.502 243.082C386.227 243.082 384.484 242.011 384.152 241.844C381.893 240.681 379.686 239.385 377.427 238.214C372.68 235.755 367.789 232.518 363.621 228.286C361.122 225.744 358.266 223.46 355.555 221.386C353.967 220.174 352.229 219.245 350.607 218.124C348.973 216.995 347.872 214.913 346.296 213.717C342.426 210.789 338.355 208.331 334.634 204.985C331.825 202.459 328.878 200.276 325.937 198.085C324.355 196.906 323.34 195.032 321.872 193.736C320.244 192.289 318.289 191.586 316.649 190.022C314.66 188.124 312.705 186.041 310.767 184.285C306.674 180.58 302.167 182.311 297.753 183.089C294.743 183.616 291.429 186.259 288.711 188.174C286.642 189.629 284.526 190.566 282.548 192.348C280.737 193.978 279.022 195.542 277.027 196.688C273.501 198.712 270.182 202.024 266.559 203.588C264.311 204.559 262.11 205.437 259.891 206.248C256.801 207.377 253.584 210.288 250.643 212.161C247.289 214.302 243.792 216.217 240.604 218.785C237.136 221.579 233.426 223.611 229.763 225.777C226.656 227.617 223.451 230.812 220.125 231.607C217.729 232.175 215.396 231.958 213.074 233.137C210.322 234.534 207.707 236.608 205.07 238.406C202.152 240.397 198.941 241.083 195.977 243.015C193.879 244.378 191.597 245.097 189.47 246.41C187.853 247.406 186.529 248.861 184.964 249.948C181.507 252.349 177.614 253.21 173.962 254.749C170.82 256.07 167.804 257.258 164.628 258.228C159.807 259.7 154.503 259.232 149.86 257.074C146.712 255.61 144.155 253.436 141.208 251.353C138.594 249.505 136.295 245.465 133.296 245.256C129.673 245.005 126.365 245.156 123.04 247.264C120.196 249.07 118.878 250.626 115.982 248.727C107.744 243.341 106.064 239.728 97.8367 246.72C96.4493 247.899 94.9128 249.572 93.491 250.509C91.7825 251.638 90.6703 250.157 89.1223 249.012C85.7569 246.536 82.8158 243.767 79.6625 240.932C73.9924 235.83 67.4853 232.083 61.517 227.734C54.9353 222.934 48.3766 218.15 41.8006 213.349C40.0864 212.103 37.9307 211.074 36.4344 209.326C35.2705 207.971 35.4368 207.553 33.929 207.285C30.2769 206.624 26.4758 210.497 23.0818 212.203C20.6337 213.441 18.0825 214.771 15.7662 216.485C13.1233 218.442 10.4401 219.755 7.6882 221.411C5.13693 222.942 2.55127 224.171 0 225.61V386.628C11.0306 387.397 22.0441 388.024 33.1034 387.999C50.7845 387.957 68.4312 387.857 86.0952 386.594C105.026 385.239 123.997 383.056 142.905 381.074C161.699 379.109 180.526 376.742 199.348 375.604C220.229 374.341 241.029 371.289 261.915 370.352C286.9 369.231 311.937 368.813 336.933 368.445C358.02 368.127 378.774 365.735 399.78 363.268C409.859 362.089 419.927 360.709 429.983 359.178V234.76H430Z" fill="#96B9B8"/>
<path d="M390.5 246.208C388.5 245.408 387 245.875 386.5 246.208H386C386.167 245.875 386.8 245.208 388 245.208C389.2 245.208 391.833 243.208 393 242.208C398.2 238.208 400.833 239.875 401.5 241.208L399.5 240.708L398.5 241.208V242.208L396.5 242.708H394.5V244.208H393V245.208H392C392.333 245.875 392.5 247.008 390.5 246.208Z" fill="#EAF4FF"/>
<path d="M420 244.208L414.5 248.708C413.278 249.708 410 250.208 411 250.208C412 250.208 415 249.208 419.5 247.708C424 246.208 426.5 244.208 425 244.208C423.8 244.208 423.167 243.541 423 243.208L428.5 240.708C428.5 240.208 428.2 239.308 427 239.708C425.8 240.108 424.833 240.541 424.5 240.708L422 242.208L420 244.208Z" fill="#EAF4FF"/>
<path d="M289.5 194.208C290.287 192.897 291.812 191.657 293.659 190.542C298.318 187.729 298.12 184.268 292.974 186.039C292.574 186.177 292.317 186.318 291.954 186.536L290 187.708L287 189.708L283.5 191.708C282.5 192.375 280.5 193.808 280.5 194.208C280.5 194.608 276.833 197.041 275 198.208C273.333 199.541 269.9 202.308 269.5 202.708C269 203.208 265 205.708 264.5 205.708C264.1 205.708 260.667 207.375 259 208.208L255.955 209.592C254.326 210.332 252.817 211.306 251.429 212.434C248.931 214.466 245.715 216.904 244.5 217.208C243.107 217.556 238.585 220.959 235.677 223.264C234.889 223.888 234.202 224.649 233.338 225.163C231.339 226.351 228.608 226.262 224 230.208C219.78 233.822 214.368 235.489 211.111 235.697C210.389 235.744 209.673 235.922 209.068 236.318L207.563 237.301C204.94 239.017 205.949 241.03 208.5 239.208C212 236.708 214 238.208 218.5 239.208C223 240.208 224.5 237.708 230 234.708C231.268 234.016 235.883 229.708 237.327 229.708H238H253C263 229.708 258.5 226.208 263.5 221.208C263.858 220.85 264.189 220.477 264.495 220.091C269.029 214.379 272.445 206.752 279.12 203.815C280.038 203.411 280.924 202.937 281.725 202.333C284.003 200.616 287.509 197.527 289.5 194.208Z" fill="#BAD8D8"/>
<path d="M110.475 259.339L106.225 260.402C105.509 260.581 104.765 260.239 104.435 259.578C104.168 259.045 103.623 258.708 103.027 258.708H100.247C99.751 258.708 99.2571 258.772 98.7675 258.854C97.785 259.019 96.1103 259.208 94 259.208C92.0393 259.208 92.4717 252.15 93.9865 250.906C94.7403 250.286 95.4382 249.695 95.9999 249.208C102.5 243.208 107.5 249.708 109.5 251.708C110.566 252.774 112.727 253.012 114.593 252.953C116.182 252.903 117.625 252.142 118.984 251.318C121.862 249.573 124.677 248.984 126.984 248.951C129.269 248.919 129.987 251.473 128.5 253.208C127.5 254.375 125.3 257.108 124.5 258.708C123.879 259.95 121.007 260.469 118.74 260.639C117.597 260.725 116.466 260.441 115.442 259.929L115.328 259.872C113.826 259.121 112.104 258.932 110.475 259.339Z" fill="#BAD8D8"/>
<path d="M25.9999 212.208C25.4135 211.622 27.657 211.358 29.8157 211.259C30.6212 211.222 30.8076 210.483 30.0443 210.223C30.0038 210.209 29.9815 210.198 29.9424 210.181C28.6858 209.618 26.2204 210.54 24.4019 211.445C23.4503 211.918 22.6058 212.571 21.7599 213.215C20.7232 214.004 19.7731 214.579 18.6525 215.111C16.9333 215.927 15.2419 216.812 13.7148 217.947C10.9189 220.027 8.69291 221.438 5 223.208L0.664298 225.737C-0.366284 226.338 -1 227.442 -1 228.635C-1 229.906 -0.00761187 230.978 0.792365 229.991C0.861816 229.906 0.931155 229.811 1 229.708C2 228.208 6 225.208 6.5 225.208C7 225.208 10.5 225.208 12 221.208C13.5 217.208 18 220.708 18.5 217.708C19 214.708 26.9999 213.208 25.9999 212.208Z" fill="#BAD8D8"/>
<path d="M376.78 300.807C376.488 290.435 366.473 290.631 362 293.61C367.306 288.676 374.665 292.24 377.681 294.638C383.446 288.094 391.629 291.539 395 294.08C383.853 287.427 377.701 295.495 376.78 300.807Z" fill="#050B0B"/>
<path d="M297 284.519C297.14 284.434 297.289 284.352 297.448 284.274C305.207 280.186 313.647 284.122 316.95 286.653C330.91 277.443 338.133 281.393 340 284.519C331.52 277.334 320.533 285.76 316.1 290.871C312.836 282.81 301.747 282.16 297.448 284.274C297.299 284.353 297.149 284.434 297 284.519Z" fill="#021713"/>
<path d="M239 274.584C239.14 274.498 239.289 274.416 239.448 274.338C247.207 270.25 255.647 274.186 258.95 276.718C272.91 267.507 280.133 271.457 282 274.584C273.52 267.398 262.533 275.824 258.1 280.936C254.836 272.875 243.747 272.224 239.448 274.338C239.299 274.417 239.149 274.499 239 274.584Z" fill="#021713"/>
</g>
<defs>
<filter id="filter0_f_281_166" x="31" y="91" width="189.12" height="188.237" filterUnits="userSpaceOnUse" color-interpolation-filters="sRGB">
<feFlood flood-opacity="0" result="BackgroundImageFix"/>
<feBlend mode="normal" in="SourceGraphic" in2="BackgroundImageFix" result="shape"/>
<feGaussianBlur stdDeviation="13" result="effect1_foregroundBlur_281_166"/>
</filter>
</defs>
</svg>
