<svg version="1.1" id="Layer_1" xmlns="http://www.w3.org/2000/svg" xmlns:xlink="http://www.w3.org/1999/xlink" x="0px" y="0px"
	 width="100%" viewBox="0 0 1024 1024" enable-background="new 0 0 1024 1024" xml:space="preserve">
<path fill="#131315" opacity="1.000000" stroke="none" 
	d="M 742.9 770.4 C 731.3 770.5 719.6 770.7 708 770.8 C 701 770.8 694 770.7 686.3 770.2 C 684.2 769.4 682.7 769 681.3 769 C 497.5 769 313.7 769 129.8 769.1 C 128.2 769.1 126.5 769.9 124.9 770.4 C 124.5 770.5 124.1 770.6 123.2 770.2 C 121.9 769.5 121.1 769 120.3 769 C 88.1 769 55.9 769 23.6 769.1 C 22.4 769.1 21.1 770.1 19.8 770.6 C 18.8 770.7 17.8 770.9 16.4 770.3 C 15.9 768.8 15.9 768 15.8 767.2 C 23.5 759.4 31 751.5 38.8 743.7 C 91.6 691 144.4 638.4 197.3 585.7 C 198.6 584.5 200 583.3 201.7 581.8 C 212.2 590.8 222.6 599.6 233.3 608.8 C 237.3 604.1 241.2 599.4 245.1 594.7 C 257.3 579.8 269.1 564.5 281.7 549.9 C 289.1 541.4 297.7 533.8 306 526.2 C 325.2 508.5 344.5 490.8 364.1 473.5 C 373.3 465.4 379.3 455 386 445.2 C 415.5 401.7 444.7 358 474.1 314.4 C 486.9 295.4 499.9 276.5 512.8 257.5 C 513.4 256.6 514.2 255.7 515.2 254.4 C 522.3 259.3 529.3 264.1 536.2 268.9 C 547.7 276.9 559.3 284.7 570.5 293 C 574.8 296.1 579 300 582 304.5 C 616 355.1 649.9 405.9 683.8 456.7 C 685.6 459.4 687.3 462.2 689.2 465.3 C 698.5 457.1 707.6 449.4 716.4 441.3 C 719.2 438.7 720.8 438.5 723.7 441.2 C 760.5 475.9 798.3 509.7 834.1 545.4 C 853.3 564.6 869.6 586.8 886.4 608.4 C 927.1 660.8 967.3 713.7 1007.7 766.4 C 1008.5 767.6 1009.3 768.8 1010.8 770.8 C 1001.5 770.8 993.1 770.8 984.2 770.3 C 982.9 769.5 982.2 769 981.4 769 C 960.4 769 939.4 769 918.3 769.1 C 917.2 769.1 916 769.9 914.9 770.4 C 912.6 770.5 910.2 770.6 907.4 770.3 C 906.2 770 905.5 770.2 904.9 770.4 C 892.3 770.5 879.6 770.6 866.3 770.2 C 865 769.4 864.4 769.1 863.8 769.1 C 847.6 769 831.5 769 815.3 769.1 C 814.2 769.1 813 769.9 811.9 770.4 C 809.9 770.5 807.9 770.7 805.3 770.2 C 803.9 769.5 803.1 769 802.3 769 C 783.7 769 765 769 746.4 769.1 C 745.2 769.1 744 769.9 742.9 770.4 M 391.9 550.9 C 417.7 530.6 443.4 510.2 470 489.2 C 476.1 507.2 481.7 523.9 487.6 541.2 C 502.2 512.6 516.6 484.4 531.2 456 C 532.8 457 533.8 457.6 534.6 458.3 C 558.4 478.6 582.3 498.8 605.9 519.3 C 608.6 521.7 610.8 525.2 612.3 528.6 C 629.7 569 646.8 609.5 664.3 649.9 C 665.7 653.1 668.8 655.9 671.9 657.8 C 679.5 662.5 687.5 666.6 695.3 671 C 729.1 690 762.9 709.1 797.1 728.8 C 800.6 730.9 804.1 733 807.6 735.2 C 807.9 734.8 808.2 734.4 808.5 734.1 C 806.7 732.1 804.8 730.1 802.6 727.5 C 801.2 725.9 799.9 724.2 798.4 722.7 C 755.8 677.6 713 632.6 670.5 587.3 C 666.5 583.1 663.4 577.7 661.1 572.4 C 652.4 551.4 644.7 530.2 630.8 511.7 C 599.7 470.1 569.7 427.8 539.2 385.8 C 533.8 378.4 528.3 370.9 522.6 363.1 C 521.7 364.2 521.1 364.8 520.6 365.4 C 509 381.5 497.4 397.5 485.9 413.5 C 462.1 446.4 438.4 479.3 414.7 512.2 C 405.7 524.8 396.8 537.4 387.3 550.2 C 385.2 553 383.1 555.8 381 558.6 C 381.3 558.9 381.7 559.2 382.1 559.5 C 385.2 556.8 388.3 554 391.9 550.9 M 345.5 661.8 C 356.6 672.2 367.5 682.7 378.6 692.9 C 380.7 694.8 383.7 696.3 386.4 696.8 C 404.2 700 422.1 702.9 439.9 705.9 C 449 707.5 458.1 708.9 467 710.4 C 463 706.2 459.2 701.8 455.1 697.8 C 420.8 663.8 386.5 629.9 352.2 596 C 350.2 594 349.1 593.1 346.7 595.7 C 321.8 621.8 296.7 647.8 271.7 673.8 C 263.5 682.3 255.3 690.7 247.1 699.2 C 248.7 699.4 250 699 251.1 698.5 C 280.4 686.1 309.8 673.7 339.1 661.4 C 340.8 660.7 343 661.4 345.5 661.8 M 810 736.3 C 810 736.3 809.8 736.1 809.8 736.1 C 809.8 736.1 809.8 736.2 810 736.3 z"/>
<path fill="#050406" opacity="1.000000" stroke="none" 
	d="M 125.3 770.5 C 126.5 769.9 128.2 769.1 129.8 769.1 C 313.7 769 497.5 769 681.3 769 C 682.7 769 684.2 769.4 685.9 770 C 684.7 770.5 683.2 770.7 681.7 770.7 C 497.1 770.7 312.4 770.7 127.8 770.7 C 127.1 770.7 126.5 770.7 125.3 770.5 z"/>
<path fill="#050406" opacity="1.000000" stroke="none" 
	d="M 20.3 770.7 C 21.1 770.1 22.4 769.1 23.6 769.1 C 55.9 769 88.1 769 120.3 769 C 121.1 769 121.9 769.5 122.9 770 C 121.7 770.5 120.2 770.7 118.7 770.7 C 86 770.8 53.4 770.8 20.3 770.7 z"/>
<path fill="#050406" opacity="1.000000" stroke="none" 
	d="M 743.3 770.5 C 744 769.9 745.2 769.1 746.4 769.1 C 765 769 783.7 769 802.3 769 C 803.1 769 803.9 769.5 804.9 770.1 C 792.2 770.5 779.3 770.7 766.3 770.8 C 758.8 770.8 751.3 770.7 743.3 770.5 z"/>
<path fill="#050406" opacity="1.000000" stroke="none" 
	d="M 915.3 770.5 C 916 769.9 917.2 769.1 918.3 769.1 C 939.4 769 960.4 769 981.4 769 C 982.2 769 982.9 769.5 983.8 770.1 C 975.5 770.6 967.1 770.7 958.6 770.8 C 944.4 770.8 930.1 770.7 915.3 770.5 z"/>
<path fill="#050406" opacity="1.000000" stroke="none" 
	d="M 812.3 770.6 C 813 769.9 814.2 769.1 815.3 769.1 C 831.5 769 847.6 769 863.8 769.1 C 864.4 769.1 865 769.4 865.9 770 C 848.4 770.5 830.6 770.6 812.3 770.6 z"/>
<path fill="#131315" opacity="1.000000" stroke="none" 
	d="M 15.2 770.6 C 14.3 770.7 13.4 770.7 12.5 770.8 C 13 770 13.6 769.1 14.5 768.8 C 15 769.8 15.1 770.2 15.2 770.6 z"/>
<path fill="#050406" opacity="1.000000" stroke="none" 
	d="M 15.4 770.7 C 15.1 770.2 15 769.8 14.9 768.7 C 14.8 767.8 15 767.5 15.6 767.3 C 15.9 768 15.9 768.8 16 770.1 C 16 770.7 15.6 770.8 15.4 770.7 z"/>
<path fill="#050406" opacity="1.000000" stroke="none" 
	d="M 905.3 770.5 C 905.5 770.2 906.2 770 907 770.1 C 906.6 770.5 906.1 770.6 905.3 770.5 z"/>
<path fill="#bdbdbd" opacity="1.000000" stroke="none" 
	d="M 387.6 550.1 C 388.8 550.3 389.7 550.7 391 551.2 C 388.3 554 385.2 556.8 382.1 559.5 C 381.7 559.2 381.3 558.9 381 558.6 C 383.1 555.8 385.2 553 387.6 550.1 z"/>
<path fill="#c4c4c6" opacity="1.000000" stroke="none" 
	d="M 796.9 728.5 C 798.6 728.3 800.5 728.5 802.7 728.3 C 804.8 730.1 806.7 732.1 808.5 734.1 C 808.2 734.4 807.9 734.8 807.6 735.2 C 804.1 733 800.6 730.9 796.9 728.5 z"/>
<path fill="#c4c4c6" opacity="1.000000" stroke="none" 
	d="M 809.9 736.2 C 809.8 736.2 809.8 736.1 809.8 736.1 C 809.8 736.1 810 736.3 809.9 736.2 z"/>
</svg>