
<svg version="1.1" id="Layer_1" xmlns="http://www.w3.org/2000/svg" xmlns:xlink="http://www.w3.org/1999/xlink" x="0px" y="0px"
	 width="100%" viewBox="0 0 1024 1024" enable-background="new 0 0 1024 1024" xml:space="preserve">
<path fill="#aa9d85" opacity="1.000000" stroke="none" 
	d="M 655 709.6 C 655.1 711.6 655.4 713.3 653.8 714.9 C 646.1 718.6 637.9 719.4 630 721.2 C 610.4 725.5 590.7 729.4 571.1 733.5 C 569.7 733.8 568.2 734.2 566.3 734 C 563 732.7 563.7 730.7 564.7 728.6 C 566.5 725.3 568.2 721.9 570 718.1 C 583.4 693.4 595.4 668.4 607.7 643.6 C 611.4 636 615.3 628.4 618.4 620.6 C 619.5 618 620.8 615.5 623 613.1 C 625.9 613.6 626.2 616 626.9 617.9 C 635.9 646.2 645.9 674.2 653.9 702.9 C 654.5 705 655.1 707 655 709.6 z"/>
<path fill="#fdfbef" opacity="1.000000" stroke="none" 
	d="M 647.6 337.9 C 653 344 657.7 350.2 661 357.6 C 660.8 362.6 657.1 365.2 654.7 368.5 C 648.5 377.1 642.2 385.6 635.6 393.9 C 634.7 394.9 633.9 396 632.4 396.8 C 629.3 397.8 626.3 396.2 623.2 397.5 C 621.1 398 619.6 397.2 618.1 396.4 C 593.9 384.2 569.2 372.8 545.4 359.9 C 524.9 348.8 505 336.5 484 325.5 C 483.5 324.8 483.4 324.3 483.4 323.4 C 484.5 321 486.1 319.5 488.5 318.4 C 493.3 320.4 498 319.6 502.6 320.2 C 514.4 321.8 526.1 324.4 538.5 325.2 C 541.5 327.1 541.9 330 542.4 333.2 C 542.8 335.9 543.7 338.1 544.2 340.4 C 545.8 347.3 546.3 348 553.4 348.4 C 565.2 349 576.9 350.7 588.7 351.2 C 589.5 351.3 590.5 351.1 591.1 351.5 C 599.6 356.6 609.4 354.1 618.3 356.4 C 622.4 357.4 626.5 355.1 631.5 356 C 629.3 352.6 626.6 351.3 624.1 349.2 C 622 347.3 619.9 346 618.2 344.3 C 616.7 342.8 615.7 341.2 616.7 338.7 C 619.4 336 622.6 336.4 625.5 336.7 C 632.7 337.5 639.9 338.5 647.6 337.9 z"/>
<path fill="#dfd9ca" opacity="1.000000" stroke="none" 
	d="M 668.7 410.7 C 669.9 415.6 670.8 420.2 671.8 425.1 C 673.2 428.3 673.8 431.2 673.2 434.7 C 666.7 457.9 660.7 480.8 654.1 503.5 C 645 534.7 636.4 566 628.3 597.4 C 627.8 599.3 627.5 601.4 624.9 602.3 C 622.1 600.6 622.7 598.1 622.6 595.3 C 622.6 577.7 624.8 560.7 626.1 543.6 C 627.2 528.2 628.3 512.8 629.5 497.4 C 630.7 481.7 631.9 465.9 633.3 449.8 C 633.9 439.1 631.3 429.2 630.2 419.1 C 629.6 413.8 628.8 408.6 628.1 402.9 C 628.2 402.2 628.2 401.9 628.5 401.2 C 630.1 399.8 631.6 400 633 400.4 C 644 403 655 405.8 665.9 408.9 C 666.9 409.2 667.7 409.6 668.7 410.7 z"/>
<path fill="#1d2128" opacity="1.000000" stroke="none" 
	d="M 274.4 745 C 271.6 743.6 271.9 740.9 270.9 738.4 C 280.1 726.2 289.5 714.6 298.6 702.8 C 301.3 699.3 304.9 696.4 306.5 691.7 C 307.2 688.6 309 686.5 310.3 683.7 C 315.5 673.8 319.8 663.9 324.1 654 C 336.2 626.2 346.7 597.8 357.4 569.4 C 358.3 566.9 359.2 564.4 359.7 561.4 C 362.3 553 365.9 545.4 369.2 537.3 C 369.7 536.8 369.9 536.6 370.4 536.3 C 376.2 535.4 381.5 537.3 387.3 536.6 C 389.7 538.3 388.7 540.3 388.1 542.1 C 375.5 579.5 364.7 617.5 348.4 653.5 C 343.3 664.9 338.2 676.4 334.1 688.1 C 332.1 693.8 328.1 698.1 324.4 702.6 C 313.6 715.5 302 727.6 290.5 739.9 C 286.4 744.4 280.2 743.9 274.4 745 z"/>
<path fill="#c3baa8" opacity="1.000000" stroke="none" 
	d="M 624.8 602.4 C 629 591.8 630.9 581 633.9 570.6 C 642.3 540.9 650.7 511.2 659 481.5 C 662.4 469.1 665.7 456.6 669 444.1 C 669.7 441.4 670.3 438.6 672.2 436.1 C 676 439.7 674.4 444.4 675.1 448.7 C 675.9 453.5 675.9 458.5 676 464 C 675.1 468.9 675.7 473.4 675.6 477.9 C 675.5 492.9 675.6 507.9 675.5 523.3 C 675 536.3 673.2 548.7 673.5 561.2 C 673.5 562.4 673.2 563.5 672.2 564.9 C 670.9 572.9 670 580.7 669 588.4 C 668.8 590 668.6 591.6 668.2 593.6 C 661.3 598.7 653.2 600.4 645.9 603.9 C 641 606.3 635.9 608.3 630.8 610.4 C 628.7 611.3 626.6 612.4 623.9 611 C 622.4 607.9 623.3 605.2 624.8 602.4 z"/>
<path fill="#1f242b" opacity="1.000000" stroke="none" 
	d="M 652.1 209.6 C 637.1 222.7 622 235.3 607 248.1 C 603.5 251.1 599.5 253.5 596.7 257.6 C 591.4 260.4 586 260.4 580.1 259.1 C 579.1 258.9 578.6 258.7 577.8 258.3 C 562.5 252.9 548 246.7 533.1 241.2 C 530.9 240.4 528.7 239.7 526.7 237.8 C 526.3 237 526.2 236.5 526.4 235.6 C 530.9 233.9 534.3 231.2 537.9 228.4 C 550 219 562.4 210 575.6 201.5 C 576.6 201.1 577.4 201.1 578.5 201.2 C 579.8 201.4 580.8 201.7 582.2 201.7 C 583.1 201.7 583.6 201.7 584.5 201.8 C 602.2 204.9 619.5 207.1 636.8 209.4 C 640.1 209.9 643 208.3 645.9 207.1 C 648.4 206.1 651.2 205 652.1 209.6 z"/>
<path fill="#a49d92" opacity="1.000000" stroke="none" 
	d="M 672 565.5 C 671.6 551.7 672.9 538.3 674 524.4 C 676.9 522.9 677.5 525.3 678.3 526.9 C 688.9 547.4 700.8 567.2 711.8 587.6 C 712.1 588.2 712.2 588.9 713 589.1 C 707.3 569.3 700.6 549.8 694.9 530 C 690.5 514.8 685.1 500 681.3 484.6 C 680.2 480.4 676.7 476.7 678.4 471.5 C 681.3 470.3 681.6 472.7 682.3 474.1 C 689.4 486.8 695.7 499.9 702.9 513 C 716.4 552.6 729.1 592 741.2 631.6 C 741.8 633.7 742.1 635.8 741.7 638 C 739.5 651.1 737.6 664.3 735.3 677.4 C 735 679.1 734.7 680.7 733.2 682.2 C 728.9 683.3 728.8 680.5 728.7 678 C 727.8 656.7 724.8 635.7 721.6 614.7 C 719.7 602.3 719.1 601.8 707.3 606.2 C 704.9 607 702.5 608.5 699.3 607.3 C 690 593.3 681 579.6 672 565.5 z"/>
<path fill="#1b1f25" opacity="1.000000" stroke="none" 
	d="M 732.7 682.3 C 735.5 666.8 738.2 651.5 740.6 636.3 C 740.9 634.9 740.2 633.4 739.8 631.9 C 727.8 592.4 715.3 552.9 701.7 513.4 C 706.9 510 713 508.5 718.5 505 C 723.8 515.4 726.2 526.7 729.5 537.6 C 738.6 567.5 747.3 597.4 756.4 627.3 C 757.8 632 756.6 636.2 755.7 640.5 C 753 654.5 750.1 668.5 746.7 682.4 C 744.5 691.7 738.4 698.8 731.4 705.2 C 729.7 706.7 729.3 705.8 728.7 704.3 C 728.1 702.8 727.4 701.3 726.6 699.4 C 729 693.8 730 687.9 732.7 682.3 z"/>
<path fill="#2d353b" opacity="1.000000" stroke="none" 
	d="M 311.2 683.7 C 311.1 686.9 308 688.4 308 691.6 C 304.7 691.1 305.5 688.3 305.8 686.3 C 309.5 661.9 309.3 637.2 310.5 612.7 C 310.8 606.7 313.1 600.9 312.3 594.4 C 314.4 582.5 316.7 570.9 319.1 559 C 335.1 551 351.4 544.5 367.5 536.6 C 368.3 536.4 368.9 536.4 369.7 536.8 C 368 545.1 363.9 552.4 361 560.6 C 344.4 601.8 326.5 642 311.2 683.7 z"/>
<path fill="#798088" opacity="1.000000" stroke="none" 
	d="M 360.6 423.2 C 361.1 421.1 361.8 419.3 362.7 417.3 C 363.5 416.6 363.5 416 363.8 415.1 C 363.9 414.8 363.9 415 363.8 414.9 C 376.8 397.3 391.4 380.9 405.1 363.8 C 408.2 359.9 410.9 355.6 414.5 352.2 C 415.6 351.2 416.3 349.7 418.4 350 C 421.3 354.2 420.8 359.1 422.1 363.5 C 423.2 367.1 423.8 370.9 424.5 375 C 424.7 377.9 422.9 379.6 421.9 382.1 C 410.4 406.8 399.1 431.2 387.6 455.5 C 386.7 457.5 385.9 459.8 383.5 461.4 C 381.2 461.3 380.6 459.7 379.8 458.2 C 373.4 446.7 367.2 435 360.6 423.2 z"/>
<path fill="#bbaf9a" opacity="1.000000" stroke="none" 
	d="M 623.5 611.3 C 631.9 609.7 638.7 605.2 646.1 602.4 C 653.2 599.7 660.2 596.8 667.7 594 C 666.6 608 665.2 622.1 663.7 636.1 C 662.3 649.8 660.6 663.5 659.1 677.2 C 657.9 687.9 656.7 698.6 655.3 709.7 C 650.7 696.2 646.4 682.3 642 668.5 C 636.5 651.5 630.9 634.6 625.3 617.6 C 624.8 616.2 624.2 614.9 623.2 613.1 C 622.7 612.2 622.8 611.9 623.5 611.3 z"/>
<path fill="#8a8f97" opacity="1.000000" stroke="none" 
	d="M 360.2 423.1 C 364.1 424.8 365.1 428.7 366.9 431.9 C 372.3 441.4 377.4 451.1 383 460.9 C 383.9 462 383.5 462.9 382.8 464.2 C 366 483 348.1 500.4 331.9 519.3 C 330.7 520.6 329.8 522.5 327.3 522.2 C 330.7 498.6 334.7 475.4 345.9 454.1 C 351.2 444.1 355.4 433.6 360.2 423.1 z"/>
<path fill="#968b79" opacity="1.000000" stroke="none" 
	d="M 564.6 732.8 C 577.4 731.3 589.5 728.1 601.8 725.6 C 618.7 722.1 635.7 718.6 653.1 715.1 C 651.9 717.6 650.3 720.1 648.4 722.9 C 635.4 737.1 622 750.5 609.3 764.6 C 606.4 767.8 603.8 771.3 599.4 773.3 C 597.2 772.8 596.3 771.1 595.1 769.8 C 584.8 757.8 574.3 746.1 563.1 734.5 C 562.8 734 562.7 733.8 562.8 733.2 C 563.3 732.5 563.8 732.5 564.6 732.8 z"/>
<path fill="#5f666d" opacity="1.000000" stroke="none" 
	d="M 396.5 323.4 C 407.6 308.5 418.5 293.1 430.6 278.8 C 441.7 265.6 448.9 250.5 455.9 235.1 C 461.3 223.2 467 211.4 472.8 199.3 C 478.1 197.2 479.2 198.1 480.7 205.4 C 480.6 211.9 478.8 217.7 478 224.1 C 477.7 225 477.4 225.5 476.9 226.3 C 466.6 238.1 456.8 249.8 446.6 261.1 C 457.3 258.9 468.5 258.5 479.5 256.9 C 482.3 256.5 485.2 256.4 488.3 257.3 C 489.4 261.4 485.9 262.4 483.8 263.8 C 475.5 269.4 467.6 275.5 459.4 281.2 C 440.9 294.1 422.9 307.8 404.4 320.7 C 402.2 322.3 400.2 324.7 396.5 323.4 z"/>
<path fill="#262c32" opacity="1.000000" stroke="none" 
	d="M 312 594.4 C 316.1 598.1 313 602.6 312.7 606.8 C 312.4 609.6 312 612.4 312 615.2 C 312 632.3 310 649.3 309.7 666.4 C 309.6 672.9 309.4 679.7 307.2 686.1 C 306.6 687.7 306.7 689.7 307.7 691.7 C 302.2 701.7 294.3 709.8 287.6 718.8 C 283.2 724.6 278.3 730.1 274.4 736.2 C 273.7 737.3 273 738.1 271.3 738 C 268 733.3 268.1 728.8 270.1 723.5 C 281 695.2 291.7 666.9 302 638.4 C 306.6 625.7 308 612.2 311 599.1 C 311.3 597.7 311.6 596.2 312 594.4 z"/>
<path fill="#474f56" opacity="1.000000" stroke="none" 
	d="M 326.9 522.3 C 333.2 517.5 337.3 511 342.6 505.6 C 351.9 496.1 360.8 486.3 369.9 476.6 C 373.7 472.5 377.6 468.4 381.7 464.2 C 382.2 464.2 382.4 464.4 382.8 465 C 383.5 467.1 383.4 468.7 383.1 470.4 C 379.4 490.5 376.2 510.7 372.6 530.8 C 372.3 532.8 372 534.8 370.3 536.7 C 370 537 370 537 370 537 C 369.6 537 369.1 537 368.3 537 C 366.3 537.3 364.7 536.8 363.1 536.4 C 353.6 534.1 344.2 531.5 334.7 529.3 C 331.8 528.6 328.8 528 326.4 525.3 C 326.4 524.2 326.6 523.4 326.9 522.3 z"/>
<path fill="#798088" opacity="1.000000" stroke="none" 
	d="M 396 323.5 C 403.1 322.2 407.7 317 412.9 313.2 C 436.2 296.2 459.5 279.3 483.2 262.9 C 485.1 261.6 486.8 260 488.8 258.3 C 489.3 257.9 489.5 257.9 490.1 258 C 491.6 261 489.8 263.1 488.7 265.2 C 481.5 278.7 473.9 292 466.9 306 C 465.9 307.7 464.8 308.8 463.1 309.8 C 440.2 315.5 418.1 322.5 395.2 328.3 C 394.2 328.1 393.8 327.8 393.7 326.9 C 394 325.2 395 324.5 396 323.5 z"/>
<path fill="#968b79" opacity="1.000000" stroke="none" 
	d="M 732.5 682 C 732.1 688 731.1 693.9 726.9 699 C 723.8 697.7 723.7 694.8 723 692.4 C 715 664.2 707 636 699 607.4 C 704.5 606.5 709.4 603.8 714.4 601.9 C 718.4 600.5 719.8 601.9 721 605.3 C 723.4 612.6 723.7 620.2 724.9 627.6 C 727.7 644.6 729.5 661.6 730 678.8 C 730 680.3 730 681.8 732.5 682 z"/>
<path fill="#2d353b" opacity="1.000000" stroke="none" 
	d="M 354.3 669.3 C 354 662.7 353.8 656.4 353.5 649.7 C 352 645.9 353 642.7 354.4 639.6 C 364.4 617.1 372.2 593.7 379.9 570.4 C 380.2 569.7 380.3 569.1 380.6 568.5 C 381.1 567.5 381.2 565.9 382.8 566.2 C 384 566.5 384.1 568 384.4 569.5 C 385.3 581.7 383.1 593.4 383.4 605.5 C 384.8 613.1 386.5 620.1 388.2 627.1 C 388.7 629.2 389.3 631.2 389 633.8 C 385.5 645.9 376.5 652.5 366.4 658 C 361.8 660.6 358.9 664.5 356.6 669.5 C 355.7 670.4 355.1 670.3 354.3 669.3 z"/>
<path fill="#5f666d" opacity="1.000000" stroke="none" 
	d="M 535.9 135.3 C 537.5 133 539.6 133.8 541.5 133.9 C 560 134.5 578.5 135.3 597.5 136.1 C 597 139.2 593.9 138.7 591.9 139.8 C 590 140.8 588 141.6 586 142.7 C 592.9 143.2 598.8 146.3 604.9 149 C 614.8 153.3 624.9 157.1 634.6 161.7 C 636.9 162.7 641 162.9 639.6 167.6 C 635 169.3 630.8 167.9 626.5 167.6 C 619.8 167 613.1 166.6 606 165.2 C 593.1 162.4 580.6 159.7 568.1 156.9 C 564.1 156 560 155.2 555.8 153.3 C 552.1 150.8 549.3 147.7 546.6 144.7 C 543.4 141.2 539.3 138.8 535.9 135.3 z"/>
<path fill="#262c32" opacity="1.000000" stroke="none" 
	d="M 718.8 504.7 C 714.4 509.8 708.5 511.5 702 513 C 694.2 499.2 686.9 485.3 679.3 471.1 C 676.8 469.4 675.4 467.3 675.4 464.3 C 673.5 455 673.7 445.8 672.7 436.3 C 672.3 432.8 672.1 429.6 671.9 425.9 C 682 442.2 692.1 458.9 702 475.6 C 707.7 485.2 713.2 494.8 718.8 504.7 z"/>
<path fill="#1f242b" opacity="1.000000" stroke="none" 
	d="M 360.9 780.3 C 363.8 774.6 368.4 770.3 370.9 764.3 C 376.5 757.6 383.2 752.4 389.8 746.6 C 390.4 746.4 390.6 746.4 391.3 746.4 C 391.9 746.6 392.1 746.8 392.6 747.2 C 398.5 767.1 404.7 786.5 409.3 806.8 C 409.3 810 409.8 812.8 407.9 815.6 C 403.8 816.4 404.8 813.2 404.8 811.5 C 405 807.4 403.2 805.2 399.5 803.6 C 392.2 800.4 385.5 796 378.1 792.9 C 376.2 792.2 374.4 791.5 372 791 C 370.9 790.8 370.3 790.4 369.3 789.9 C 367.2 788.6 365.9 786.9 364.5 784.9 C 363.3 783.1 361.5 782.3 360.9 780.3 z"/>
<path fill="#1d2128" opacity="1.000000" stroke="none" 
	d="M 584.4 202.8 C 583.6 203 583.1 203 582.3 203 C 581.5 202.4 580.9 201.9 580.7 200.8 C 581.4 198.9 582.7 198.2 584.1 197.6 C 594 193.2 603.6 188.1 614.6 185 C 615.2 184.9 615.5 184.8 616.1 184.8 C 619.6 184.5 622.5 185.2 625.8 186 C 634.8 188.1 643.4 190.1 651.8 192.8 C 659.8 195.3 667.8 194.8 676 194.2 C 687.2 193.3 698.4 191.3 710 190.9 C 710.7 191 711 191.1 711.2 191.3 C 711.6 191.6 711.7 191.3 711.3 191.1 C 709.9 190.4 708.4 190 706.8 189 C 704.6 187.4 702.3 186.6 700 185.4 C 697.1 183 697.6 181.4 701 180.2 C 703.7 179.5 705.9 180.6 708.6 180.9 C 711.6 182.2 714.4 182.9 717.7 182.6 C 724.4 185.5 729.8 189.7 734.8 195.9 C 724 196.6 714 197.2 704.1 197.9 C 692.2 198.6 680.2 199.4 668.3 200.1 C 666.3 200.2 664.4 200.6 662.4 201.9 C 640.9 201.9 619.8 202.3 598.7 203.4 C 594 203.6 589.4 202.9 584.4 202.8 z"/>
<path fill="#b0a593" opacity="1.000000" stroke="none" 
	d="M 598.7 773.1 C 608.3 764.5 616.4 754.8 625.2 745.7 C 632.5 738.1 640 730.6 647.8 723.1 C 640.4 735.8 632.7 748.6 625.1 761.4 C 616.6 775.6 608.3 789.9 599.8 804.6 C 597.7 807.5 595.7 810.1 594.9 813.7 C 593.8 814.3 593 813.6 591.6 813.5 C 587.3 813.2 583.4 813.8 579.1 812.9 C 576.1 810.6 578 808.5 578.9 806.5 C 584.2 795.6 590.2 785 596.8 774.3 C 597.4 773.7 597.8 773.4 598.7 773.1 z"/>
<path fill="#a8afb7" opacity="1.000000" stroke="none" 
	d="M 383.8 569.2 C 383.2 568.3 383 567.5 382.7 566.3 C 376.8 583.4 371.1 600.1 365.1 616.6 C 362.3 624.4 358.9 632 355.7 639.7 C 354.5 642.5 353.6 645.3 353.5 648.8 C 350.5 651.8 349.6 655.5 348.2 658.9 C 343.9 669.3 339.9 679.9 335.6 690.3 C 332 698.8 325.1 704.9 319.3 711.7 C 311.4 721.1 302.5 729.7 294.5 739 C 289 745.4 281.9 745.5 274.3 745.2 C 274.4 744.7 274.8 744.2 275.2 744.2 C 285.2 743.7 291.6 737.7 297.7 730.6 C 307.2 719.5 317.6 709.1 326.8 697.7 C 329.7 694.2 331.8 690.4 333.6 686.2 C 342.7 663.8 352.7 641.7 361.2 619 C 371.2 592.3 379.6 565 388 537.4 C 386.7 535.3 387.5 533.5 387.9 531.7 C 392.8 511.6 398.1 491.5 403.4 471 C 407.1 458.1 410.7 445.6 414.4 433.2 C 415.3 430.2 415.6 426.9 418.8 424.9 C 420.9 427.3 420.2 429.8 419.7 432.2 C 416.8 445.4 413.2 458.3 409.9 471.4 C 404.8 491.6 399.6 511.9 394.3 532.6 C 391.8 539.1 390.3 545.6 388 551.7 C 386.4 555.9 385.1 560.2 385.9 564.8 C 386.3 566.5 386.5 568.5 383.8 569.2 z"/>
<path fill="#697178" opacity="1.000000" stroke="none" 
	d="M 418.1 349.7 C 401.8 369.7 385.5 389.5 369.3 409.2 C 367.8 411.1 366.7 413.5 364.1 414.8 C 366.2 407.1 368.6 399.3 371.2 391.2 C 374.9 387.3 375.6 382.4 377.7 378.2 C 384.8 363.5 391.6 348.7 399.1 333.8 C 401.4 333.1 403 334 404.2 335.3 C 408.5 339.8 413.8 343.3 418 348.3 C 418.2 348.8 418.3 349.1 418.1 349.7 z"/>
<path fill="#ece9dd" opacity="1.000000" stroke="none" 
	d="M 669 410.6 C 655.9 407.7 642.9 404.4 629.4 401 C 628.9 400.9 628.8 400.7 628.7 400.2 C 629.1 398.2 630 397.1 631.8 396.2 C 642.2 384 651.4 371.2 660.7 358.2 C 663.1 364.4 663.3 371.2 664.4 377.8 C 666.1 388.6 667.5 399.4 669 410.6 z"/>
<path fill="#373e45" opacity="1.000000" stroke="none" 
	d="M 326.1 525.4 C 339.6 530.1 353.9 532 367.8 536.7 C 362.6 540.8 356.5 543.2 350.6 546 C 342.3 549.8 334 553.4 325.7 557.1 C 323.9 558 322.3 559.3 319.7 558.7 C 321.5 547.7 323.7 536.7 326.1 525.4 z"/>
<path fill="#373e45" opacity="1.000000" stroke="none" 
	d="M 354.1 669.4 C 354.6 669.3 355 669.5 355.7 669.9 C 360.6 674.7 363.5 680.5 366.8 686.1 C 374.8 699.9 382.8 713.7 390.1 728.4 C 391.9 731.6 391 734.8 391.9 738.2 C 392.1 739.1 392.1 739.6 392.1 740.5 C 392.1 741.4 392 741.9 391.6 742.7 C 389.2 744.3 387.9 743 386.7 741.5 C 378.6 731.3 370.1 721.4 362.1 711.1 C 361.3 710 361.2 708.6 360.2 707.3 C 357.5 697.2 356.8 687.1 355 677.2 C 354.6 674.8 354.4 672.3 354.1 669.4 z"/>
<path fill="#474f56" opacity="1.000000" stroke="none" 
	d="M 359.9 707.4 C 363 708.8 364.5 712 366.6 714.5 C 373.9 723.4 380.9 732.5 388.1 741.5 C 388.6 742.2 389.5 742.5 390.5 742.9 C 391.2 743.2 391.5 743.6 391.6 744.4 C 391.4 745.5 391 746 390.3 746.8 C 384.5 753.3 378.1 758.6 371.3 764 C 367.7 747.1 364.3 730.1 361 713.2 C 360.6 711.4 360.3 709.6 359.9 707.4 z"/>
<path fill="#474f56" opacity="1.000000" stroke="none" 
	d="M 535.6 135 C 543.6 138.8 548.8 145.5 554.9 151.7 C 554.8 154.9 552.4 155 550.3 155.3 C 541.1 156.3 532.1 158.4 522.6 160.1 C 516.8 160.1 511.6 158.9 506 157.5 C 504.7 156.8 503.7 156.2 502.7 155.1 C 513.4 148.2 524.3 141.6 535.6 135 z"/>
<path fill="#fdeca1" opacity="1.000000" stroke="none" 
	d="M 603 274.1 C 609.6 285.2 618 294.8 625 305.7 C 622.1 309.9 618.1 308.4 614.6 307.7 C 611.5 307 608.4 306.4 604.8 306.9 C 599.7 304.3 599.1 299 597.5 294.8 C 594.2 286.4 591 277.9 588.5 268.7 C 589.5 265 591.7 266.3 593.5 267.3 C 596.8 269.2 599.7 271.7 603 274.1 z"/>
<path fill="#fdf9df" opacity="1.000000" stroke="none" 
	d="M 647.9 337.7 C 641.8 340.9 635.4 339.4 629.1 338.5 C 625.2 337.9 621.5 337.5 617.4 338.8 C 613 338.8 613.8 334.9 612.2 332.4 C 610.9 328 608.1 324.5 609 319.7 C 611.3 318.4 613.5 318.4 615.6 318.7 C 621.8 319.6 628 319.9 634.6 319.9 C 640.4 324.9 643.8 331.4 647.9 337.7 z"/>
<path fill="#697178" opacity="1.000000" stroke="none" 
	d="M 640.2 167.5 C 638 163.4 634.1 162.8 630.7 161.3 C 619.3 156.4 607.8 151.6 596.4 146.7 C 592.1 144.9 587.8 143.5 582.3 144 C 587.2 140 592.1 137.9 597.7 136.5 C 616.2 145.5 633.8 156.1 651.7 166.9 C 651.6 167.7 651.3 168.2 650.7 169 C 646.8 170.8 643.5 169.8 640.2 167.5 z"/>
<path fill="#1b1f25" opacity="1.000000" stroke="none" 
	d="M 584.4 203.1 C 584.7 202.1 585.7 202 586.7 202 C 597.5 202.4 608.2 200.3 619 201 C 631.2 201.7 643.2 199.9 655.4 200 C 657.5 200 659.7 199.9 661.8 201.7 C 658.9 204.6 655.8 207.2 652.4 209.9 C 650.8 208.7 650.2 205.6 647.3 207.9 C 641.7 212.3 635.4 210.9 629.2 210 C 615 207.9 600.9 205.8 586.7 203.7 C 586 203.6 585.4 203.3 584.4 203.1 z"/>
<path fill="#2d353b" opacity="1.000000" stroke="none" 
	d="M 603.2 273.9 C 601.6 276.6 600.9 274 599.9 273.5 C 596.3 271.6 593.9 267.8 589.3 267.3 C 588.4 269.9 586.2 270 584.4 270.8 C 579.2 273.2 574.2 276.1 568.3 278 C 564.2 278.6 562.5 276.4 561.6 272.9 C 561.4 270.8 562.2 269.6 563.3 268.7 C 568.3 264.9 572.8 260.6 578.9 258 C 584.8 259.2 590.3 257.9 596.2 258 C 598.8 263.1 600.9 268.3 603.2 273.9 z"/>
<path fill="#5f666d" opacity="1.000000" stroke="none" 
	d="M 400.3 333.6 C 395.2 344.7 390 355.4 385 366.1 C 381.5 373.5 378.2 380.9 374.8 388.2 C 374.3 389.4 373.9 390.8 371.8 390.9 C 378.5 369.5 385.2 348 393.6 326.7 C 394.1 326.9 394.3 327.3 394.7 327.8 C 397.6 328.9 399.3 330.8 400.3 333.6 z"/>
<path fill="#8a8f97" opacity="1.000000" stroke="none" 
	d="M 360.6 780 C 362.3 781.1 363.6 782.2 365 783.6 C 365 787.6 362 787.1 359.7 787.4 C 349.1 788.8 338.6 790.7 328 793.6 C 326.6 794 325.5 794.1 324.1 793.8 C 323 792.7 322.4 791.3 320.8 793.3 C 320.3 793.5 320.1 793.6 319.5 793.8 C 318.3 794.1 317.4 794.3 316.3 794.9 C 315.3 795.3 314.6 795.5 313.4 795.5 C 303.4 795 294.5 798.7 285.1 800.2 C 281.2 800.9 277.3 801.9 273.4 802.6 C 271.6 802.9 269.8 803.5 268.1 801.7 C 278.2 797.1 289.2 795.8 299.8 793.3 C 318.2 789 336.7 785.1 355.6 781.1 C 357 781.5 357.7 781 358.7 780.4 C 359.4 780.1 359.8 780 360.6 780 z"/>
<path fill="#fdf5ca" opacity="1.000000" stroke="none" 
	d="M 634.9 319.7 C 630.3 322.6 625.1 321.3 620.3 320.7 C 616.8 320.2 613.4 320.1 609.5 320 C 605.9 318.6 606.4 314.9 604.4 312.3 C 603.5 310.3 602.9 308.6 603.4 306.4 C 607.3 304.9 610.9 304.7 614.6 306.3 C 617.7 307.5 621.1 307.4 624.7 306.2 C 629.2 309.8 631.5 314.9 634.9 319.7 z"/>
<path fill="#262c32" opacity="1.000000" stroke="none" 
	d="M 267.8 801.3 C 275.9 801.7 283.1 798.6 290.7 797.6 C 298.3 796.5 305.6 793.1 313.7 794.6 C 311.4 796.3 308.6 796.7 306.2 797.5 C 309.9 796.9 313.5 794.6 318 795.7 C 318.5 796.4 318.6 796.9 318.5 797.9 C 314.3 801.6 309.1 800.9 304 802.3 C 300.3 802.9 297 803.5 293.7 805.2 C 285.7 808.8 277.8 811.1 269.5 812.2 C 267.6 812.4 265.6 812.5 263.4 811.4 C 263.4 808.1 267.6 806.2 265.8 802.3 C 266.5 801.8 267 801.6 267.8 801.3 z"/>
<path fill="#474f56" opacity="1.000000" stroke="none" 
	d="M 649.9 169.4 C 650.4 168.6 650.8 168.2 651.5 167.5 C 660.5 171.9 670.1 171.1 679.3 171.7 C 692.9 172.6 705.8 175.1 717.9 182.2 C 715.4 185.2 712.6 184.2 709.5 182.3 C 705.6 180 701.6 179.5 697.6 178.7 C 696.9 178.7 697.3 179.8 697.3 179.1 C 697.3 178.9 697.5 178.8 697.7 178.8 C 698.9 179 700.1 178.9 700.9 180.3 C 700.7 181.9 697.2 182.2 700.1 184.4 C 700.1 184.9 700 185.1 699.5 185.5 C 697.9 185.7 696.7 185.5 695.8 184.7 C 689.6 178.9 681.5 178.9 673.5 177.3 C 672.4 177.3 671.6 177.2 670.5 177 C 669.2 176.6 668.2 176.3 666.9 176.2 C 661.9 175.3 657.4 173.9 652.2 174.8 C 649.6 173.7 651.5 171 649.9 169.4 z"/>
<path fill="#474f56" opacity="1.000000" stroke="none" 
	d="M 480.1 205.8 C 478.2 203.3 479.7 198 473.4 199 C 476.4 191.8 479.7 184.6 483.2 177.1 C 485 176 486.1 176.6 487.3 178.2 C 488.1 184.6 484.9 189.7 483.4 195.6 C 483 196.9 482.6 197.9 482.4 199.3 C 481.9 201.7 481.6 203.8 480.1 205.8 z"/>
<path fill="#373e45" opacity="1.000000" stroke="none" 
	d="M 487.2 178.8 C 485.9 178.3 485.6 177 483.8 176.9 C 488 168.8 494.6 162.3 501.2 155.5 C 501.8 155.3 502 155.4 502.4 155.8 C 501.5 163.4 496.6 168.4 492.2 173.7 C 490.8 175.4 489 176.9 487.2 178.8 z"/>
<path fill="#474f56" opacity="1.000000" stroke="none" 
	d="M 269.5 820.6 C 268.5 820.1 267.4 819.9 266.4 819.8 C 266.2 819.5 266.1 819.4 266 819.2 C 266.9 819 267.8 818.8 269.8 818.4 C 263.6 816.1 258.3 818.6 253 817.4 C 254 815.4 256.7 816.5 257.3 814.1 C 256.9 813.7 256.8 813.5 256.9 813 C 257.5 812.4 257.9 812.3 258.8 812.2 C 260.4 812.3 261.5 812.7 262.9 813.4 C 264.3 814.4 265.6 814.8 267.4 814.7 C 269.6 814.7 271.4 814.7 273.1 815.3 C 274.3 815.7 275.9 816 275.9 817.6 C 275.9 818.9 274.4 819.1 273.3 820.1 C 271.9 821.4 270.8 822.1 269.5 820.6 z"/>
<path fill="#2d353b" opacity="1.000000" stroke="none" 
	d="M 265.7 802 C 267.7 805.4 268.6 808.4 263.4 809.9 C 262.3 810.9 261.4 811.5 260 811.9 C 259 812 258.3 812 257.4 812.3 C 256.5 812.7 256 813 255.2 813.7 C 252.9 814 250.7 814.3 248.8 812.6 C 251.1 810.9 253.9 810.9 256.6 809.8 C 258.2 807.7 260.2 807.1 262.4 806.9 C 263 806.9 263.7 806.9 264.2 806.4 C 263.7 806.4 263.1 806.5 262.5 805.8 C 262.2 804.7 262.2 804 262.8 803.1 C 263.8 802.5 264.6 802.2 265.7 802 z"/>
<path fill="#c5cacf" opacity="1.000000" stroke="none" 
	d="M 262.6 805.6 C 263.8 805.9 264.6 806 265.8 806.1 C 263.2 808.3 260.1 808.5 257.3 809.8 C 256.7 808.9 256.4 808.1 256 806.8 C 256.5 805.2 257.8 805.1 259.3 804.8 C 260.6 804.7 261.5 804.9 262.6 805.6 z"/>
<path fill="#2d353b" opacity="1.000000" stroke="none" 
	d="M 260.2 805.6 C 258.9 805.9 257.8 806 256.3 806.2 C 254.5 806.4 253 806.5 251.2 806.7 C 250.7 806.5 250.6 806.2 250.8 805.4 C 253.8 804.4 256.6 803.8 259.7 803.2 C 260.6 803.8 260.7 804.5 260.2 805.6 z"/>
<path fill="#262c32" opacity="1.000000" stroke="none" 
	d="M 260.4 805.9 C 260 805.2 260 804.6 260 803.6 C 260.8 803.1 261.5 802.9 262.6 802.8 C 263 803.5 263 804.3 263 805.4 C 262.2 805.8 261.5 805.9 260.4 805.9 z"/>
<path fill="#798088" opacity="1.000000" stroke="none" 
	d="M 358.7 780.3 C 358.8 781.8 357.9 782.3 356.2 781.4 C 356.8 780.8 357.6 780.6 358.7 780.3 z"/>
<path fill="#373e45" opacity="1.000000" stroke="none" 
	d="M 502.3 154.8 C 503.5 155.1 504.5 155.3 505.7 156 C 504.9 157 503.9 157 502.4 156.3 C 502 156 501.9 155.8 501.6 155.5 C 501.6 155 501.8 154.9 502.3 154.8 z"/>
<path fill="#c5cacf" opacity="1.000000" stroke="none" 
	d="M 250.7 805 C 250.9 805.3 250.9 805.6 250.8 806.4 C 250.1 807.1 249.5 807.1 249.2 806.5 C 248.9 805.6 249.6 805.2 250.7 805 z"/>
<path fill="#1b1f25" opacity="1.000000" stroke="none" 
	d="M 255.3 814 C 255 813 255.3 812.2 256.7 812 C 257.2 812.2 257.3 812.4 257.5 813 C 257.4 813.4 257.2 813.7 257.1 813.8 C 256.6 814 256.1 814 255.3 814 z"/>
<path fill="#697178" opacity="1.000000" stroke="none" 
	d="M 363.6 415 C 363.7 415.5 363.6 416.1 363.2 416.9 C 363.1 416.4 363.2 415.8 363.6 415 z"/>
<path fill="#88604d" opacity="1.000000" stroke="none" 
	d="M 595.3 816 C 595.6 817.2 595.8 818.2 596.1 819.6 C 592.1 819.7 587.7 820.7 584.6 816.7 C 586.6 813.7 590.6 815.5 592.7 812.3 C 593.4 812.6 593.9 813.1 594.6 813.9 C 594.9 814.6 595.1 815.2 595.3 816 z"/>
<path fill="#bbaf9a" opacity="1.000000" stroke="none" 
	d="M 623 613 C 621.4 617 619.9 621 618 624.8 C 604.5 652.3 591 679.7 577.4 707.2 C 575.6 710.7 573.5 714.1 571.3 717.8 C 567.5 716.7 569.8 714.4 570.3 712.8 C 573.7 702.2 577.5 691.7 581.6 681.3 C 585 672.5 588 663.5 591.6 654.7 C 591.8 654.1 592 653.4 591.4 652.5 C 579.7 648.7 567.9 646.1 556.3 642.7 C 553.8 642 551 641.7 549.8 638.5 C 551.1 636.1 553.3 635.7 555.3 635 C 576.3 628.3 597 621 617.6 613.2 C 619.1 612.6 620.6 611.8 622.7 612.7 C 623 613 623 613 623 613 z"/>
<path fill="#c3baa8" opacity="1.000000" stroke="none" 
	d="M 592.7 651.2 C 594.2 651.9 593.9 652.9 593.5 654.1 C 589 665.7 584.2 677.2 580.1 689 C 576.8 698.5 572.3 707.6 570.8 717.8 C 569.8 723.2 565.9 727.2 564.8 732.7 C 564.5 733 564.1 733 563.3 733.1 C 562.6 732.8 562.2 732.4 562.1 731.9 C 557.4 713.2 551.1 694.9 546.2 675.9 C 546.7 672.8 549.1 672.1 551.1 671.1 C 562.1 665.7 573.3 660.6 584.4 655.5 C 587.2 654.3 589.5 652.4 592.7 651.2 z"/>
<path fill="#fefefe" opacity="1.000000" stroke="none" 
	d="M 628.8 399.7 C 629 400.2 629 400.3 629 400.8 C 629 401 629 401.5 629 401.8 C 617.1 409.1 605.4 416.4 593.3 423.1 C 586.6 426.8 580.7 431.8 573.7 435.1 C 568.5 437.5 567.5 437.2 564.4 432.3 C 557.1 420.7 547.5 411.6 535.9 404.2 C 519.1 393.4 501.8 383.4 485.7 371.5 C 484.1 370.2 481.2 369.4 481.8 366.9 C 482.4 363.9 485.6 365.1 487.7 364.7 C 488 364.6 488.4 364.6 488.7 364.3 C 483 364.8 477 367.1 471.7 362.1 C 473.5 349 477.2 336.7 483.7 325.1 C 494 328.7 503 334.4 512.2 339.6 C 533.6 351.6 554.7 363.9 576.9 374.3 C 592.2 381.5 607.2 389.3 622.6 397 C 625.2 397 627 398.1 628.8 399.7 z"/>
<path fill="#fdf5ca" opacity="1.000000" stroke="none" 
	d="M 612.7 331.8 C 615 333.8 614.2 337 616.7 338.8 C 616.7 343.9 621.7 344.4 623.9 347.7 C 623.4 348.8 622.5 349.2 621.6 349.7 C 613.4 353.5 595.6 350.8 588.9 344.6 C 586.8 342.6 584.1 341.9 581.3 341.2 C 569.9 338.2 557.9 338.5 546.4 335.8 C 544.8 335.5 543.1 335.5 541.3 334.2 C 541.2 331.4 540.2 329 539.1 326.3 C 537.3 323.9 536.7 321.5 537.4 318.5 C 543.1 315.4 548.8 316.8 554.5 317.3 C 563 318.2 570.5 321.3 576.1 327.2 C 577.2 327 577.6 326.8 577.5 326.5 C 577.2 319.3 577.9 318.4 584.8 319.7 C 592.5 321.1 600.1 323.1 606.5 327.9 C 608.3 329.4 610.5 330.2 612.7 331.8 z"/>
<path fill="#fdf9df" opacity="1.000000" stroke="none" 
	d="M 541 334.4 C 549.7 335.1 558.4 336.3 567.1 337.1 C 572.7 337.6 578 339.4 583.5 340.1 C 586.6 340.5 589.4 341.9 590.9 344.6 C 592.4 347.3 594.7 348.3 597.4 348.6 C 603.6 349.2 609.9 349.5 616.2 350 C 618.8 350.3 620.5 347.4 623.6 348 C 627.6 349.2 629.9 352.1 632.8 354.3 C 633.5 354.9 634.2 355.9 633.7 356.9 C 633.2 358.2 632.1 357.6 631.2 357.6 C 620.9 358.3 610.8 356.5 600.6 356 C 597.8 355.9 595.4 355.5 592.8 353.7 C 589.4 351.3 584.9 352.5 580.9 352.1 C 569.9 350.8 558.9 349.9 547.8 349.1 C 545.5 348.9 544.6 347.7 544.1 345.8 C 543.1 342.1 542.1 338.4 541 334.4 z"/>
<path fill="#373e45" opacity="1.000000" stroke="none" 
	d="M 484 324.7 C 479 336.7 475.7 349 471.6 361.4 C 471.3 361.9 471.1 362.1 470.6 362.2 C 462.7 359.5 455.3 356.5 449.3 350.4 C 449 348.7 449.5 347.6 450.3 346.1 C 458.1 339.1 464 330.8 470.8 323.5 C 472.3 321.9 473.4 320 476 319.2 C 479.2 319.5 481.4 321.3 484.1 322.8 C 484.3 323.5 484.1 323.9 484 324.7 z"/>
<path fill="#fdf9df" opacity="1.000000" stroke="none" 
	d="M 538.1 317.6 C 538.3 320.4 538.7 322.8 539 325.6 C 526.3 326.6 514.2 323 501.8 321.4 C 500.7 321.3 499.3 320.7 498.4 321.2 C 494.6 323.1 491.8 320.9 488.5 319 C 487.6 315.6 490.8 314.3 492.1 312 C 493.2 310.2 495.1 308.8 496.4 306.7 C 497.5 305.4 498.6 304.6 500.3 304.4 C 511.4 308.8 522.6 309.4 534.3 309.3 C 536.9 311.5 538.1 314.1 538.1 317.6 z"/>
<path fill="#474f56" opacity="1.000000" stroke="none" 
	d="M 497.3 307 C 494.2 311 491.3 314.7 488.2 318.7 C 487.1 320.3 486 321.5 484.6 322.9 C 481.3 323.4 479.2 321.1 476.3 320 C 475.8 319.8 475.7 319.6 475.7 319 C 479.1 313.7 484.5 311.1 489.2 307.1 C 491.5 305.7 492.9 303.1 496.1 303.7 C 497.3 304.6 497.7 305.5 497.3 307 z"/>
<path fill="#fdfcf6" opacity="1.000000" stroke="none" 
	d="M 629.3 399.8 C 626.9 399.8 625.2 398.6 623.2 397.3 C 625.3 393.2 628.6 397.3 631.6 396 C 631.2 397.2 630.4 398.4 629.3 399.8 z"/>
<path fill="#fdfcf6" opacity="1.000000" stroke="none" 
	d="M 470.7 362.2 C 471 362 471.3 361.9 471.4 361.8 C 478.1 366.3 485.4 362 492.9 363.3 C 490.9 366.6 488.1 365.8 485.7 366 C 484.6 366.1 483.1 365.5 482.6 366.9 C 482.1 368.4 483.7 368.6 484.6 369.3 C 503 382.5 522.7 393.9 541.6 406.4 C 552 413.3 560.3 422.3 566.2 433.3 C 567.7 436 569.4 436.1 571.9 434.6 C 583.4 427.7 594.9 420.8 606.6 414 C 613.7 409.8 620.3 404.8 628.6 402 C 631.3 413.3 632.4 424.7 633.9 436.1 C 634.4 440.1 636.2 444.1 634.1 448.6 C 627.6 457.4 621.1 465.8 612.4 472.4 C 603.1 467.4 596.1 459.9 587.9 454 C 582.4 450 577.4 445.4 572 441.2 C 570.6 440.1 569.2 438.9 566.8 439.2 C 543.9 447 521.7 455.5 499.2 463.1 C 497 463.9 494.9 465 492.1 464.3 C 482.3 453.8 474 442.5 465.2 431.7 C 457.6 422.4 449.4 413.6 442.5 403.3 C 441.7 401 442.7 399.4 443.8 397.9 C 452.8 386.2 461.3 374.1 470.7 362.2 z"/>
<path fill="#e6e2d6" opacity="1.000000" stroke="none" 
	d="M 624.8 601.8 C 624.7 604.8 624.4 607.5 624 610.6 C 624 611 623.9 610.9 623.9 610.9 C 622.4 612.2 620.8 611.8 619.2 611.3 C 595.5 603.3 571.4 596.5 547.5 587.9 C 547 587.5 546.8 587.3 546.5 586.7 C 547.2 580.3 551 575.7 553.9 570.7 C 571.1 541.2 588.2 511.7 605.5 482.2 C 606.8 480 607.8 477.3 611.1 476.5 C 613.9 477.9 614.3 480.2 614.4 482.6 C 616.6 512.2 619.8 541.8 621.8 571.5 C 622.2 579.1 622 586.7 623.7 594.6 C 624.2 597.2 623.5 599.4 624.8 601.8 z"/>
<path fill="#eae7e0" opacity="1.000000" stroke="none" 
	d="M 624 594.5 C 620.2 592.4 621.5 588.1 621.2 584.8 C 619.5 565.3 618.6 545.8 616.9 526.3 C 615.6 511.5 613.6 496.7 613 481.8 C 612.9 479.9 612.7 478.1 610.4 477.1 C 609.4 475.1 610.6 473.9 611.7 472.2 C 618.1 466.9 622.9 460.5 628.1 454.5 C 629.7 452.6 631.6 451 633.7 449.1 C 633.9 454.7 634.4 460.4 633.7 466 C 632.4 476.2 632 486.4 631.1 496.6 C 629.5 513.2 628.4 529.9 627.1 546.5 C 626.4 555.9 625.8 565.3 625 574.7 C 624.4 581.2 623.7 587.6 624 594.5 z"/>
<path fill="#262c32" opacity="1.000000" stroke="none" 
	d="M 404.6 470.8 C 399.4 492.8 393.9 514.5 388.2 536.7 C 382.3 539.6 376.6 536.9 370.5 537 C 373.9 514.8 377.8 492.6 381.7 470.4 C 382 468.9 381.9 467.4 382.1 465.5 C 383.2 464 384.5 464 385.8 464.5 C 391.9 466.5 398.4 467.6 404.6 470.8 z"/>
<path fill="#262c32" opacity="1.000000" stroke="none" 
	d="M 311.3 683.8 C 311.5 677.8 314.3 672.2 316.4 666.6 C 327.5 636.6 340.6 607.5 352.6 577.9 C 354.9 572.3 357.8 566.8 360.7 561.2 C 359 571.2 354.4 580.5 350.9 590.1 C 342.6 612.9 333.5 635.3 324 657.6 C 320.2 666.5 316.2 675.2 311.3 683.8 z"/>
<path fill="#a0988a" opacity="1.000000" stroke="none" 
	d="M 675.1 464.1 C 676.7 466 677.8 468.1 679 470.6 C 678.1 477.7 682.1 483.3 683.9 489.4 C 693.6 522.3 704 555.1 714.1 587.8 C 714.2 588.3 714.4 588.8 714.6 589.2 C 714.9 590.4 715.5 591.8 714.2 592.4 C 712.5 593.1 712.2 591.2 711.6 590.1 C 707.8 583.3 704 576.4 700.3 569.6 C 692.3 555 684.4 540.4 676.4 525.9 C 676 525.2 675.3 524.7 674.4 524 C 674 505.5 674 487.1 674 468.6 C 674 467.2 673.6 465.6 675.1 464.1 z"/>
<path fill="#f1b53c" opacity="1.000000" stroke="none" 
	d="M 481.3 199.7 C 481.3 198.5 481.4 197.7 481.7 196.6 C 485.1 190.9 490.6 187.7 494.9 182.9 C 495.5 182.3 495.8 182 496.4 181.4 C 498.1 179.7 499.5 178.3 501.4 176.8 C 504.3 174.7 507.2 174.4 510.2 174.6 C 516.3 175 522.4 175.4 528.4 178.2 C 528.9 179.1 529.1 179.7 529.3 180.7 C 528.9 188.1 527.4 194.9 525.8 201.7 C 523.6 210.7 525.1 219.5 526.7 228.3 C 527 230.3 527.7 232.2 527.1 234.6 C 526.8 235.4 526.8 235.8 526.7 236.5 C 526.5 237.2 526.1 237.5 525.3 237.6 C 524 237.4 523.1 237.1 521.9 236.5 C 515.6 231.2 508.5 227.8 502.1 223.5 C 498.6 221.2 495 219.1 491.7 216 C 488 210.6 483.2 206.3 481.3 199.7 z"/>
<path fill="#fefefe" opacity="1.000000" stroke="none" 
	d="M 524.7 237 C 525.4 236.9 525.8 236.9 526.4 236.8 C 539.8 243.1 553.7 247.5 567.1 253 C 570.4 254.4 573.8 255.6 577.6 257 C 577 260.2 574 260.1 571.7 261 C 569.8 261.7 567.7 262.4 565.3 263 C 548.3 267.2 531.7 271.5 515.3 276.5 C 513.7 277 512.1 277.6 510.1 277.7 C 508.1 277.4 506.9 276.4 506.1 275.1 C 502 268.6 496.2 263.1 493.4 255.4 C 495.2 251.8 498.6 250.8 501.4 249.2 C 508.9 244.8 516.7 241.1 524.7 237 z"/>
<path fill="#1b1f25" opacity="1.000000" stroke="none" 
	d="M 527.2 235.1 C 521.8 220.4 522.5 205.8 526.3 191.1 C 527.1 188 527.5 184.9 528.2 181.4 C 530 179.5 531.8 180.5 533.3 181.3 C 545.8 187.5 558.8 192.5 571.5 198 C 573.2 198.8 574.9 199.5 575.9 201.6 C 570.6 207.2 563.8 210.4 557.9 215 C 550.1 220.9 542 226.4 534.6 232.8 C 532.7 234.4 530.6 236.5 527.2 235.1 z"/>
<path fill="#262c32" opacity="1.000000" stroke="none" 
	d="M 576.4 202 C 569.5 197.9 562.2 195.6 555.3 192.6 C 546.5 188.8 537.8 184.9 528.6 181 C 528.2 180.6 528.2 180.1 528.2 179.4 C 528.3 178.5 528.6 178 529.4 177.4 C 537.4 176.3 544.9 174.5 553 173.9 C 554.5 174 555.5 174.4 556.9 175.1 C 559.5 176.9 561.6 178.9 563.3 181.1 C 566.4 185 570 185.6 574.7 184.1 C 580 182.4 585.3 180.3 591.3 179.7 C 598 180.2 604.2 180.9 610.3 182.3 C 612.1 182.8 614.2 182.9 615.1 185.6 C 603.4 189.8 592.3 195 581.2 200.7 C 580.7 201.5 580.2 201.8 579.3 202 C 578.2 202 577.5 202 576.4 202 z"/>
<path fill="#bbaf9a" opacity="1.000000" stroke="none" 
	d="M 564.7 262.3 C 569.2 260.6 573.4 259.2 577.7 257.4 C 578.3 257.3 578.6 257.4 579.1 257.7 C 573.5 262.4 567.7 266.8 561.7 271.5 C 557.4 277.3 550.9 279.7 545.5 283.5 C 544 284.5 542.3 285.2 540.3 286 C 539.7 286.2 539.5 286.3 539 286.5 C 538.4 286.7 538.1 286.7 537.5 286.9 C 536.2 287.2 535.2 287.2 533.8 287.3 C 529.9 287.4 526.5 287 523.7 283.8 C 523.4 281.4 525 280.5 526.5 279.9 C 539.4 274.7 551.1 266.9 564.7 262.3 z"/>
<path fill="#1b1f25" opacity="1.000000" stroke="none" 
	d="M 579.2 202.3 C 579.5 201.7 579.9 201.4 580.7 201 C 581.3 201.5 581.6 201.9 582 202.7 C 581.1 202.8 580.3 202.7 579.2 202.3 z"/>
<path fill="#2d353b" opacity="1.000000" stroke="none" 
	d="M 470.8 361.7 C 467 370.1 460.7 376.6 455.7 383.9 C 451.5 390.1 446.3 395.5 442.7 402.5 C 442.5 403 442.4 403.2 441.9 403.6 C 436.9 406.8 432.2 409.8 427.5 412.8 C 425.5 414 423.6 415.5 420.8 413.9 C 419.6 412.2 419.4 410.5 419.6 408.9 C 420.4 400.3 420.2 391.6 421 382.5 C 421.3 379.9 422.5 378.2 423.9 376.3 C 424 374 425.2 372.6 426.5 371.4 C 433.6 364.3 440.6 357 448.2 350 C 448.7 349.7 449 349.6 449.5 349.6 C 455.7 355.5 463.4 358 470.8 361.7 z"/>
<path fill="#373e45" opacity="1.000000" stroke="none" 
	d="M 420.8 382.2 C 422.9 388.5 422.2 395.1 421.5 401.6 C 421.1 405.6 420.8 409.5 421.7 413.7 C 422.8 415.6 422.2 417.2 421.9 419.1 C 421.7 419.8 421.5 420.2 421.1 420.9 C 420.6 421.7 420.3 422.3 420 423.2 C 419.7 423.7 419.6 423.9 419.3 424.3 C 413.9 438.5 410.1 453.1 406 467.5 C 405.8 468.4 405.5 469.3 405 470.7 C 397.2 470.1 390.3 466.7 382.5 465.1 C 382.1 464.9 382 464.7 382 464.3 C 382.4 463.2 382.7 462.4 383.2 461.3 C 391.2 446.4 397.5 431.1 404.7 416.2 C 410.2 405 415.2 393.7 420.8 382.2 z"/>
<path fill="#8a8f97" opacity="1.000000" stroke="none" 
	d="M 448.6 349.7 C 442 357.2 435.1 364.3 428.2 371.5 C 426.9 372.8 425.8 374.3 424.3 375.8 C 420.9 367.8 420 359.2 418.1 350.4 C 418 350 418 349.5 418 349.2 C 418.4 348.5 418.9 348.2 420 347.9 C 429.7 349.1 439.1 347.5 448.6 349.7 z"/>
<path fill="#d9cdb8" opacity="1.000000" stroke="none" 
	d="M 546.7 587.3 C 563.4 592.2 579.8 597.4 596.2 602.5 C 605.1 605.4 614.1 608.2 623.5 610.9 C 623.7 611.4 623.4 612 623.1 612.7 C 613.6 616.3 604.3 619.7 594.9 622.9 C 580.2 627.9 565.5 632.9 550.3 638 C 549.1 638.7 548.2 638.7 546.8 638 C 545.5 636 545.4 634.2 545.4 632.4 C 545.4 619.3 545.4 606.2 545.4 593.1 C 545.4 591.2 545.4 589.4 546.7 587.3 z"/>
<path fill="#b0a593" opacity="1.000000" stroke="none" 
	d="M 546.7 674.7 C 552.1 692.4 557.1 709.9 562.3 727.3 C 562.8 729 563 730.6 563 732.7 C 563 733.1 563 733.5 563 733.8 C 562.6 734.9 561.9 735.4 560.4 735.3 C 548 733.2 535.9 732.6 523.9 731.6 C 508.2 730.2 492.4 729.1 476.7 727.9 C 466.4 727.1 456.2 726.2 445.6 725.1 C 442.4 723.2 444.4 721.9 445.8 720.9 C 448.4 719.1 451.3 717.9 454.2 716.6 C 474.1 707.4 494 698.1 513.7 688.6 C 522.9 684.2 532.2 680.2 541.2 675.5 C 542.8 674.7 544.5 673.8 546.7 674.7 z"/>
<path fill="#7d7565" opacity="1.000000" stroke="none" 
	d="M 560.6 735 C 561.5 734.7 562 734.4 562.7 734.1 C 566 734.3 567.4 736.8 569.1 738.7 C 577 747.5 584.9 756.4 592.7 765.2 C 594.8 767.6 596.7 770 598.9 772.7 C 598.9 773.3 598.8 773.6 598.3 773.9 C 587.1 777.1 575.9 778.4 564.7 780.1 C 542.1 783.7 519.5 787.7 496.9 791.6 C 494.9 791.9 492.9 792.4 490.5 792 C 488.3 791.2 488.6 790 489.6 788.9 C 490.9 787.3 492.5 786.1 494.1 784.9 C 515.5 769 536.5 752.6 557.6 736.3 C 558.4 735.7 559.2 735.2 560.6 735 z"/>
<path fill="#697178" opacity="1.000000" stroke="none" 
	d="M 490.5 258.2 C 489.9 258.1 489.7 258.1 489.3 258 C 474.6 258 460.5 260.8 446.2 262.1 C 445.8 261.7 445.5 261.3 445.1 261 C 455.2 249.4 465.3 237.8 475.7 226.1 C 476.2 225.9 476.4 225.7 477 225.8 C 483.1 235.1 489.3 244.1 493.6 254.5 C 493.3 256.5 492.5 257.8 490.5 258.2 z"/>
<path fill="#e3c1a4" opacity="1.000000" stroke="none" 
	d="M 477 226.2 C 476.6 226 476.3 226 476.2 226 C 476 225.7 476.1 225.5 476.3 225.1 C 480.7 220.5 486.6 218.6 491.8 215 C 499.9 221.3 508.8 226 517.1 231.5 C 518.8 232.6 520.3 233.8 522 235.3 C 521 237.5 519.3 236.9 517.7 236.6 C 505.4 233.8 493.2 230.8 480.8 228.3 C 479.5 228 478.4 227.4 477 226.2 z"/>
<path fill="#f2f0ea" opacity="1.000000" stroke="none" 
	d="M 491.9 214.6 C 491.6 218.2 488.3 218.2 486.3 219.7 C 483.5 221.8 480.3 223.2 476.8 224.9 C 477.6 218.9 478.7 212.8 479.8 206.4 C 480.2 204 480.6 202 481.1 199.7 C 484.7 204.4 488.2 209.4 491.9 214.6 z"/>
<path fill="#949da6" opacity="1.000000" stroke="none" 
	d="M 420.3 348.8 C 419.6 349 419.1 349 418.3 349 C 412.3 344.1 406.5 339.2 400.5 334.1 C 398.6 332.2 397 330.4 395.1 328.3 C 398.6 324.3 403.8 324.9 408.2 323.6 C 426.1 318.5 443.9 313 462.5 309 C 463 309.2 463.1 309.4 463.2 309.9 C 460.9 314 457.2 316 454.1 318.8 C 444.2 328.2 433.3 336.5 423.8 346.3 C 422.9 347.3 421.8 348 420.3 348.8 z"/>
<path fill="#8a8f97" opacity="1.000000" stroke="none" 
	d="M 490.1 258.5 C 491 257.2 491.9 256.3 493 255.1 C 493.1 254.8 493.6 254.6 493.8 254.8 C 498 262.7 503.8 269.3 508.9 276.7 C 509.2 277.2 509.3 277.4 509.3 278 C 504.9 282.3 500.1 285.6 495.2 288.6 C 486.1 294.1 477.4 300.1 468.5 306.4 C 467.6 306.6 467.1 306.6 466.4 306.3 C 469.2 296.9 474.9 289.1 479 280.5 C 482.5 273.2 487.6 266.7 490.1 258.5 z"/>
<path fill="#a8afb7" opacity="1.000000" stroke="none" 
	d="M 465.8 306.2 C 466.5 306.1 466.9 306.1 467.7 306.1 C 473.9 305 479.8 305.5 485.7 305.6 C 487.2 305.6 488.7 305.8 489.9 307.4 C 485.5 311.5 481.1 315.2 476.3 319 C 471 318 468 313.6 463.4 310.6 C 463 309.8 463 309.6 463 309.2 C 463.8 308.1 464.7 307.3 465.8 306.2 z"/>
<path fill="#cfc9be" opacity="1.000000" stroke="none" 
	d="M 383.3 569.5 C 385.1 568.5 385.2 567.1 384.8 565.8 C 382.9 559.4 385.8 553.9 387.9 548.2 C 389.7 543.4 390.3 538.3 392.9 533.4 C 394.1 530.7 396.1 529.2 398.3 527.4 C 406.9 520.5 415 513.4 423.2 506.4 C 424.5 505.3 425.7 504.2 426.9 502.6 C 428.5 500.1 426.6 496 429.3 495.2 C 432.3 494.4 433.4 498.4 435.4 500.3 C 440 504.5 444.3 509 449 513.7 C 449.9 514.7 450.5 515.4 451.2 516.5 C 451.5 517.1 451.5 517.3 451.6 517.9 C 451.4 518.7 451.2 519.1 450.6 519.8 C 442.9 528.2 436.4 537.3 429.5 546 C 416.5 562.6 403.4 579.1 390.9 596 C 388.5 599.4 386.5 603.1 383.8 606.7 C 383.3 607 383.1 607.1 382.6 607.1 C 381.6 594.6 383 582.3 383.3 569.5 z"/>
<path fill="#262c32" opacity="1.000000" stroke="none" 
	d="M 389.8 728.5 C 385.7 724.6 383.9 719 381.2 714 C 373.1 699.4 364.6 685.1 356 670.4 C 356.7 663.2 361.4 659.4 366.8 656.3 C 375.2 651.3 383.6 646.2 386.7 636 C 386.8 635.7 387.2 635.5 387.8 635.1 C 389.2 634.9 389.5 635.7 389.7 637 C 389.5 647.1 387.2 656.5 386.4 666.5 C 386.4 667.8 386.5 668.7 386.4 670 C 387.8 685.6 388.9 700.6 390.3 715.7 C 390.7 719.8 390.9 724 389.8 728.5 z"/>
<path fill="#bbaf9a" opacity="1.000000" stroke="none" 
	d="M 388.8 637.1 C 388.6 636.3 388.5 635.8 388.2 635.2 C 387 625.7 384.1 616.8 382.2 607.4 C 382.2 607 382.6 607 382.8 607 C 387.1 606.9 389.9 609.9 393 611.8 C 407.8 620.6 422.7 629.2 437.5 638.1 C 439.5 639.2 443 639.7 441.2 643.8 C 433.3 645.1 426 643.1 418.6 642.3 C 410.2 641.4 401.9 640.3 393.5 639.4 C 391.8 639.2 390.2 639 388.8 637.1 z"/>
<path fill="#373e45" opacity="1.000000" stroke="none" 
	d="M 554.7 174.8 C 546.2 175.5 538.3 178.3 529.6 178 C 525.6 172.9 524.4 166.7 521.4 160.9 C 521.4 160.3 521.4 160 521.6 159.4 C 530.7 156.7 539.8 155.3 548.9 154.1 C 550.9 153.8 552.9 153.9 554.8 152.3 C 571.3 156.8 588 159.7 604.7 163.7 C 603.3 167.9 599.6 167.1 596.6 167.3 C 590.8 167.6 585.1 167.8 579.2 170 C 578.1 170.5 577.3 170.5 576.1 170.1 C 573.6 168.9 571.6 170.1 569.6 170.6 C 564.7 171.9 560.2 174.5 554.7 174.8 z"/>
<path fill="#2d353b" opacity="1.000000" stroke="none" 
	d="M 578.1 170.1 C 582 165.5 587.5 166.8 592.3 166.1 C 596.4 165.6 600.5 166.1 604.7 164.3 C 616.3 165 627.7 166.1 639.5 167.1 C 643.1 167.7 646.1 168.4 649.6 169 C 651.7 170.1 654.3 170.9 651.2 173.7 C 650.9 174.1 650.8 174.3 650.4 174.7 C 649.5 175.2 648.9 175.5 648 176 C 643.9 178.2 639.6 179.1 635.2 180.8 C 629 182.8 623.3 185.2 616.7 185.5 C 616.2 185.8 615.9 185.8 615.4 185.9 C 611.6 182.5 606.8 183.5 602.8 182.3 C 599.2 181.2 595.4 181.3 591.2 180.9 C 590.7 180.6 590.6 180.4 590.5 179.9 C 589 176.3 585.4 175.7 582.9 173.8 C 581.3 172.7 579.2 172.3 578.1 170.1 z"/>
<path fill="#cfc9be" opacity="1.000000" stroke="none" 
	d="M 547.2 674.7 C 539.6 676.5 533.3 680.8 526.6 683.9 C 500.6 695.9 474.8 708.3 449 720.6 C 447.3 721.3 445.5 721.8 444.2 723.7 C 444.4 724.4 444.6 724.9 444.5 725.8 C 437.6 740.3 431.6 754.6 425.2 768.9 C 420.1 780.4 414.2 791.5 410.4 804 C 410.1 805.4 409.8 806.4 408.4 807 C 403.7 788.2 397.6 769.8 392.5 751.2 C 392.3 750.3 392 749.3 391.8 748 C 390.8 745.2 392.4 744.4 394.2 743.6 C 408.5 737 422.9 730.4 437.4 724.3 C 439 723.6 440.4 722.8 441.6 721 C 442.8 716.8 443.5 712.8 443.4 708.9 C 442.9 691 445 673.1 444.5 655.2 C 444.4 652 444.3 648.9 445.7 645.4 C 446 644.7 446.2 644.4 446.7 643.8 C 447.3 643.4 447.6 643.2 448.3 642.9 C 470.1 641.4 491.4 639.9 512.8 639.3 C 523.9 638.9 535 638.6 546.5 637.9 C 547.7 638 548.5 638 549.6 638 C 554.2 642.8 560.6 642 565.9 643.8 C 574.5 646.7 583.4 648.6 592.6 651 C 588.9 656.5 582.2 657.7 576.5 660.6 C 566.9 665.4 556.9 669.3 547.2 674.7 z"/>
<path fill="#c1bdb6" opacity="1.000000" stroke="none" 
	d="M 442.1 721.6 C 441.9 723.6 441 724.4 439.4 725.1 C 425.2 730.8 411 736.9 397.3 743.9 C 395.5 744.9 392.8 744.1 391.9 747.2 C 391.7 747.6 391.3 747.4 391.1 747.2 C 390.6 746.6 390.5 746.2 390.7 745.4 C 390.9 744.6 390.9 744.1 390.9 743.3 C 390.8 742.5 390.8 742.1 390.9 741.3 C 391.5 740.5 391.5 740 391.1 739.1 C 389.5 736 390.3 732.7 389.7 729.3 C 388 709.6 386.5 690.2 385 670.4 C 387.2 668.7 388.1 670.7 389.2 671.6 C 399 679.9 408 688.9 417.6 697.5 C 423.4 702.7 429.2 707.9 435 713.1 C 437.7 715.5 440.8 717.6 442.1 721.6 z"/>
<path fill="#2d353b" opacity="1.000000" stroke="none" 
	d="M 370.8 790.3 C 377.6 789.8 382.8 793.8 388.4 796.4 C 392.7 798.5 396.7 801.2 401.2 802.9 C 405.2 804.4 406.5 806.6 406.1 810.6 C 405.9 812.2 405.7 813.9 406.8 815.8 C 409.7 822.1 408.5 828.3 407.4 835 C 407.2 836.9 406.6 838.2 405 839.2 C 400.7 838.4 397.2 839.9 393.5 840.9 C 391.6 841.4 389.8 842.1 387.4 841.9 C 386.2 841.5 385.7 841 385.1 840 C 384.6 838.6 384.4 837.6 384 836.3 C 383.4 834 382.9 832 382.7 829.6 C 382.4 827.8 381.9 826.3 381.8 824.4 C 384.3 817.2 384.1 810.8 378.5 804.9 C 376.3 799.7 371.5 796.2 370.8 790.3 z"/>
<path fill="#b0a593" opacity="1.000000" stroke="none" 
	d="M 406.5 836 C 406.6 829.5 406.9 823.2 407.2 816.5 C 407.3 813.3 407.6 810.6 407.9 807.4 C 408.9 806.5 409 805.6 409 804.4 C 411.1 802.2 413.7 802.5 416.1 802.5 C 425.5 802.6 434.9 802.6 444.7 801.1 C 446.3 800.9 447.5 800.9 449 801.3 C 450.9 802.8 449.8 804 448.8 804.7 C 445.7 806.7 444.4 809.9 442.9 813 C 440.4 818.2 437.3 823.1 433.5 827.4 C 431.6 829.6 430.6 832.2 428.6 834.7 C 421.2 837.3 414 836.2 406.5 836 z"/>
<path fill="#474f56" opacity="1.000000" stroke="none" 
	d="M 370.8 789.8 C 372.7 795 376.9 798.6 379 803.8 C 377.7 805.4 376 805.5 374.4 805.5 C 364.1 805.5 353.8 805.8 343.1 805.3 C 342.4 805.1 342.1 805 341.6 804.7 C 340.7 804 340.7 803.5 341.2 803 C 341.4 802.8 341.7 802.6 342 802.6 C 341.6 802.5 341.4 802.8 340.8 803.2 C 339.9 803.9 339.2 804.1 338.1 804.2 C 337 804.3 336.2 804.4 335 804.5 C 330.7 805.3 326.7 806.4 322.8 803.8 C 324 801.4 326.3 801.7 328.4 800.9 C 334.6 799 340.6 798.5 346.3 797.4 C 345.1 796.6 342.3 797.6 341.7 794.6 C 342.9 792.6 344.8 792.2 346.6 792 C 353.9 791 361 788.6 368.9 788.8 C 369.7 789.2 370.2 789.4 370.8 789.8 z"/>
<path fill="#697178" opacity="1.000000" stroke="none" 
	d="M 369.1 788.7 C 360.4 790.8 351.4 792.6 342.3 794.7 C 338.5 798.1 333.9 797.4 329.5 798.9 C 323.9 800.8 318.3 801.3 312.6 802.8 C 311.4 803.1 310.6 803.2 309.4 803.3 C 307.3 803.4 305.7 803.4 303.7 802.7 C 303.2 802.3 303 802.1 303 801.5 C 307.8 800.2 312.5 799.2 317.6 798.1 C 322.4 794.8 327.9 795.5 332.7 794 C 333.7 793.7 335.1 794 335.5 793.2 C 332.9 793.4 330.2 795.9 327 793.5 C 334.8 789.1 343.6 789.2 351.8 786.9 C 356.1 785.8 360.8 787.3 365 784.2 C 366.4 785.4 367.7 786.9 369.1 788.7 z"/>
<path fill="#373e45" opacity="1.000000" stroke="none" 
	d="M 390.6 745.2 C 390.9 745.5 391 745.9 391 746.7 C 391 747 390.5 747 390.3 747 C 390.2 746.5 390.3 745.9 390.6 745.2 z"/>
<path fill="#ce6022" opacity="1.000000" stroke="none" 
	d="M 711.5 190.8 C 704.4 193.3 696.6 193.7 688.9 194.2 C 676.5 195.1 664 198.5 651.4 194.1 C 643.3 191.3 634.8 189.6 626.1 187.2 C 627 183.8 629.8 184.9 632.6 184.9 C 633.6 185.1 634.1 185.3 634.5 185.3 C 649.5 185.2 664.5 187.5 680 186.2 C 682.8 185.5 685 186.7 687.8 186.6 C 695.9 187.6 703.8 187.8 711.5 190.8 z"/>
<path fill="#a5785f" opacity="1.000000" stroke="none" 
	d="M 633.4 186.2 C 630.8 186.1 628.5 185.5 626 186.7 C 622.9 186.6 620 186.2 616.8 185.7 C 616.4 184.7 616.9 184.2 617.9 184.1 C 623.6 183.8 628.7 181.6 634.4 180 C 637.3 181.6 640.1 181.4 643 181.6 C 650.7 181.9 658.5 180.7 666.6 182.5 C 667.1 183 667.2 183.3 667.1 183.9 C 664.9 185.7 662.7 185.4 660.6 185.4 C 650.8 185.4 641 185.7 631.3 184.2 C 633.8 184.9 636.5 183.8 639.1 185.6 C 637.4 186.9 635.6 186.3 633.4 186.2 z"/>
<path fill="#1b1f25" opacity="1.000000" stroke="none" 
	d="M 712.1 190.9 C 704.2 190 696.6 189 688.5 187.8 C 688.8 185.2 691 186 693 185.7 C 693.9 185.7 694.4 185.7 695.3 185.7 C 695.9 185.7 696.1 185.7 696.7 185.7 C 698 185.9 698.9 186 700.2 186.1 C 701.6 186.4 702.5 186.9 703.9 187.1 C 704.7 187.4 705 188 705.9 187.8 C 706.3 187.7 706.5 187.7 706.9 187.9 C 708.8 188.9 710.5 189.8 712.1 190.9 z"/>
<path fill="#5f666d" opacity="1.000000" stroke="none" 
	d="M 701.3 180.8 C 699.6 180.1 698.3 179.5 697 178.9 C 701.3 178.1 705.4 178.4 709 181.8 C 706.7 181.7 704.2 181.3 701.3 180.8 z"/>
<path fill="#474f56" opacity="1.000000" stroke="none" 
	d="M 706.9 187.7 C 706.9 188 706.7 188 706.3 188.1 C 705.8 188.2 705.7 188.3 705.2 188.2 C 703.9 187.9 702.7 187.7 701.3 187.3 C 700.5 186.6 700 186.3 699.9 185.3 C 700 185 700.1 184.8 700.2 184.8 C 702.6 185 704.7 186.2 706.9 187.7 z"/>
<path fill="#6f675c" opacity="1.000000" stroke="none" 
	d="M 488.7 790.8 C 498.8 790.4 508.3 788 517.9 786.5 C 537 783.5 556 780.1 575 777.1 C 582.5 775.9 589.8 773.8 597.7 773.9 C 591.4 786.3 584 798.2 578.1 811.3 C 578 811.9 577.8 812.2 577.3 812.7 C 570 814.2 563 813.3 555.6 813.4 C 551.1 813.5 547 813.7 542.5 813.1 C 540.3 812.2 540.6 811 541.6 809.8 C 542.8 808.4 544.4 807.4 546 806.5 C 560.1 798.8 572.9 789.1 586 779.9 C 567.6 786.8 549.3 794.2 530.9 801.3 C 511.9 808.5 492.8 815.5 473.8 822.6 C 471.8 823.4 469.7 824 467.7 825.6 C 466 826.7 464.6 827.2 462.6 826.7 C 461 825.4 461.3 824.1 462.2 823 C 470.3 812.3 478.1 801.2 487.4 790.9 C 487.9 790.7 488.2 790.6 488.7 790.8 z"/>
<path fill="#5f574f" opacity="1.000000" stroke="none" 
	d="M 592.5 812 C 593.4 818.5 588.4 815.1 585.4 816.1 C 583.8 817.1 582.3 817.3 580.5 817.2 C 579.5 817.1 578.9 816.9 578 816.4 C 577 815.1 577 813.9 577.7 812.4 C 577.9 812.1 578.1 811.9 578.1 811.8 C 582.8 811.7 587.4 811.9 592.5 812 z"/>
<path fill="#1f242b" opacity="1.000000" stroke="none" 
	d="M 399 527.6 C 397.2 529.6 395.4 531.1 393.3 532.9 C 395.4 520 399.5 507.4 402.6 494.5 C 407.7 473.2 413.2 452.1 418.4 430.8 C 418.8 429.1 418.9 427.2 419.1 424.9 C 419.1 424.5 419 424.5 419 424.5 C 419.3 423.8 419.6 423.1 419.6 422 C 419.9 421.3 420.1 420.9 420.7 420.2 C 423.6 418.7 423.9 421.2 424.8 422.5 C 428.1 427.6 429.5 433.8 434.2 438.5 C 434.7 439.3 434.9 439.7 435.1 440.6 C 435.2 441.3 435.2 441.6 435.2 442.2 C 434.3 449.7 432.5 456.6 432.2 464.2 C 432.1 464.8 432.1 465.1 431.9 465.7 C 431.5 467.1 431.2 468.1 431 469.5 C 429.9 475.3 430.1 480.9 428.3 486.5 C 425.1 489.1 423 492.1 421 495.1 C 415.3 503.6 407.9 510.8 402.8 519.8 C 401.4 522.2 399.7 524.5 399 527.6 z"/>
<path fill="#cfc9be" opacity="1.000000" stroke="none" 
	d="M 390.8 739.3 C 391.6 739.3 392.1 739.8 391.2 740.8 C 390.9 740.5 390.8 740.1 390.8 739.3 z"/>
<path fill="#f2f0ea" opacity="1.000000" stroke="none" 
	d="M 521.3 159 C 521.7 159.1 521.8 159.5 521.8 159.8 C 516.3 164 511.3 168.6 505.2 171.6 C 502.6 172.9 500.9 174.6 501.3 178.1 C 500.1 179.5 499 180.7 497.6 182 C 496.9 182.2 496.6 182.4 496.2 183 C 491.6 187.5 487.1 191.8 482.2 196.2 C 483.6 190.8 485.2 185.3 486.9 179.4 C 487.2 177.4 487.5 175.7 489 174.7 C 495.4 170.2 498.3 163.3 502 156.4 C 503.1 156.2 504.1 156.3 505.5 156.4 C 510.9 157.2 515.9 158.1 521.3 159 z"/>
<path fill="#f1b53c" opacity="1.000000" stroke="none" 
	d="M 603.4 305.8 C 604.1 307.8 604.5 309.5 605.1 311.7 C 601.2 315.3 592.3 314.7 586.8 310.6 C 584 308.6 581.5 306.2 578.8 304 C 577.6 303.1 576.5 302.1 574.9 301.9 C 571.3 301.4 570.6 302.1 571.5 305.6 C 573.1 311.7 571.3 313.1 565 313.9 C 558.6 314.6 554.4 311.8 550.6 307.8 C 544.7 301.7 538.3 296.1 531.8 290.2 C 531.3 288.9 531.6 288 532.8 287.2 C 533.3 286.9 533.5 286.9 534 286.7 C 535.4 286.4 536.5 286.6 537.8 286.2 C 538 286 538 286 538 286 C 538.2 285.9 538.4 285.7 539 285.6 C 546.6 283.4 554 281.9 561 279 C 563 278.2 565 277.6 567.5 277.2 C 574.7 274 581.5 270.9 588.7 267.7 C 592.2 275 594.8 282.6 597.2 290.4 C 598.8 295.5 601.1 300.5 603.4 305.8 z"/>
<path fill="#fdeca1" opacity="1.000000" stroke="none" 
	d="M 531.5 288.3 C 534.4 292.7 539.1 294.6 542.5 297.9 C 547.2 302.6 551.7 307.5 557.2 311.4 C 561.1 314.1 565.4 312.3 569.3 311.9 C 572.1 311.6 570.8 308.2 570.3 305.9 C 570 304 567.1 300.8 569.1 300.6 C 571.8 300.4 575.2 298.8 577.9 301.3 C 580.1 303.3 582.6 305 584.7 307.1 C 590.3 312.8 597.1 313.6 604.8 312.1 C 607.9 313.8 607.3 317.1 608.9 319.7 C 610.4 323.8 611.7 327.5 613 331.6 C 611.6 332 610 332.3 608.8 331.2 C 603.4 326.1 596.4 324.5 589.9 321.9 C 586.8 320.7 583.7 321.3 580.6 320.3 C 579 319.7 577.9 321.3 578.3 323.1 C 578.5 324.4 579 325.7 579.5 326.9 C 579.9 327.9 580.3 328.9 579.2 329.6 C 578.3 330.3 577.4 329.7 576.5 329 C 575.5 328.3 574.2 327.7 573.3 326.7 C 567 319.6 558.2 319.4 549.9 318.1 C 546.3 317.5 542.6 318 538.5 318 C 537 315.6 536 313.2 535 310.4 C 533.2 300.5 525.7 300.1 518.3 299.4 C 516.3 299.2 513.9 299.8 512.5 297 C 515.6 292.3 521.1 292.2 525.4 289.4 C 526 289.2 526.2 289 526.7 288.8 C 527.3 288.6 527.5 288.5 528.1 288.3 C 529.3 288 530.3 287.9 531.5 288.3 z"/>
<path fill="#373e45" opacity="1.000000" stroke="none" 
	d="M 567.4 277 C 559.2 282.1 549.5 284 539.4 286 C 538.9 285.9 538.8 285.7 538.9 285.4 C 547.2 282.2 553.8 276.7 561.2 271.9 C 563.9 272.9 562.9 277.7 567.4 277 z"/>
<path fill="#373e45" opacity="1.000000" stroke="none" 
	d="M 326.6 793.1 C 330 795.4 333 791.6 336.8 793.8 C 330.4 795.3 324.6 796.6 318.4 798 C 318 797.4 318 796.9 318 796.1 C 317.9 794.7 318.6 794.2 319.7 793.7 C 320.5 793.3 321.1 793.1 322.4 793 C 324.1 793.1 325.1 793.1 326.6 793.1 z"/>
<path fill="#798088" opacity="1.000000" stroke="none" 
	d="M 320.2 794.1 C 319.5 794.7 318.9 795 318.2 795.5 C 313.7 796.5 309.3 797.3 305 798 C 304.9 797.8 304.9 797.5 304.8 797.2 C 307.6 796.5 310.3 795.7 313.5 795 C 314.3 794.7 314.7 794.5 315.3 794.2 C 316.5 793.4 317.7 793.6 319.1 793.1 C 319.5 793 319.5 792.9 319.5 793 C 319.8 792.9 319.9 792.9 320.3 793.1 C 320.4 793.5 320.4 793.7 320.2 794.1 z"/>
<path fill="#474f56" opacity="1.000000" stroke="none" 
	d="M 319.7 793 C 320.7 792.1 321.8 791 323 790.4 C 323.7 790 325.2 789.6 325.4 790.9 C 325.7 792.2 323.9 791.7 323.2 792.7 C 323 793 323 793 323 793 C 322.3 793.6 321.5 793.5 320.4 793.3 C 320 793.2 319.8 793 319.7 793 z"/>
<path fill="#262c32" opacity="1.000000" stroke="none" 
	d="M 319 792.9 C 318.4 793.3 317.4 793.6 315.9 794 C 316.3 792.9 317.4 792.9 319 792.9 z"/>
<path fill="#474f56" opacity="1.000000" stroke="none" 
	d="M 328.5 789.5 C 328.6 789.6 328.4 789.6 328.4 789.6 C 328.4 789.6 328.5 789.4 328.5 789.5 z"/>
<path fill="#1b1f25" opacity="1.000000" stroke="none" 
	d="M 283.3 819.3 C 281.6 819.1 280.2 819.1 278.4 819.1 C 277 819.9 276 820.2 274.4 819.8 C 273.6 819.6 273.1 819.6 272.4 819.6 C 272.3 817.9 274 818.3 275.1 817.5 C 272.7 816.2 270.1 816.3 267.2 816.2 C 266.1 814.7 264.4 815.2 263.1 814.3 C 261.7 813.9 260.5 813.7 259.1 813.3 C 258.5 812.7 258.4 812.2 258.7 811.3 C 260.1 810.7 261.2 810.3 262.7 810 C 267.7 812.8 272.4 810.2 276.9 809.6 C 282.2 808.9 287.3 806.3 292.8 804.3 C 294.5 803.1 296.2 803.8 298.1 803.2 C 301.8 803.5 304.9 804.8 308.5 805.9 C 309.1 806.1 309.3 806.2 309.9 806.5 C 310.9 809.1 309.8 811.1 308.9 813.4 C 308 813.4 308.8 813.9 308.2 813.8 C 307.7 813.8 307.8 814 308.3 814 C 320.2 813.6 332.1 813.2 343.9 811.1 C 345 810.9 346.2 810.8 347.3 811.1 C 348.1 811.3 348.9 811.6 349.2 812.5 C 349.6 813.6 349 814.4 348.1 815 C 346.8 816 345.2 816.4 343.6 816.8 C 336.1 818.5 328.7 820.2 320.7 820.9 C 318.1 821.3 316 821.5 313.4 821 C 307 821.5 300.9 822.1 294.4 822.6 C 292.7 821.6 290.5 822.4 289.6 820.1 C 289.9 818.2 291.3 818.7 292.3 818.5 C 292.9 818.3 291.8 817.7 292.2 818.2 C 290.9 818.7 289.4 818.7 287.9 819.8 C 286.2 820.2 284.9 820.3 283.3 819.3 z"/>
<path fill="#474f56" opacity="1.000000" stroke="none" 
	d="M 299.3 803.9 C 297.3 803.9 295.6 803.9 293.4 804 C 295.9 802.2 299.3 802.2 302.7 801.1 C 303.1 801.3 303 801.5 303 802 C 302.6 804.4 301 803.8 299.3 803.9 z"/>
<path fill="#798088" opacity="1.000000" stroke="none" 
	d="M 300 798.3 C 300.9 798.2 301.5 798.3 302.1 798.4 C 301.4 799.3 300.6 799 300 798.3 z"/>
<path fill="#ce6022" opacity="1.000000" stroke="none" 
	d="M 667.4 183.4 C 657.6 183.1 648.2 183.1 638.9 183 C 637.2 182.9 634.6 184.1 634.7 180.3 C 639 178.4 643.2 176.8 647.8 175.1 C 648.5 174.7 648.9 174.5 649.7 174.3 C 650.2 174.2 650.4 174.1 650.8 174 C 656.3 172.1 661.3 173.5 666.7 175 C 667.8 175.7 668.7 175.4 669.8 175.7 C 670.8 175.9 671.5 176 672.6 176 C 675.2 176.8 676.7 178 674.2 180 C 672.3 181.5 670.8 184.1 667.4 183.4 z"/>
<path fill="#88604d" opacity="1.000000" stroke="none" 
	d="M 667 183.3 C 670.4 182.9 671.8 179.7 674.5 178.3 C 675.2 177.9 673.9 177.1 673.2 176.3 C 680.8 177.6 689.4 176.8 695.8 183.2 C 696.6 184.1 698.1 184.3 699.7 184.9 C 700.3 185.5 700.6 186 700.9 186.8 C 699.9 187 698.9 187 697.4 187 C 696.8 186.8 696.6 186.7 696.2 186.8 C 695.5 186.9 695.2 186.8 694.5 186.8 C 688 185.9 681.7 185.9 675.4 185.5 C 672.8 185.3 670.1 185.8 667.2 184.2 C 666.9 183.9 667 183.5 667 183.3 z"/>
<path fill="#a5785f" opacity="1.000000" stroke="none" 
	d="M 669.9 175.6 C 669.2 175.8 668.4 175.7 667.3 175.4 C 668 175.2 668.8 175.3 669.9 175.6 z"/>
<path fill="#262c32" opacity="1.000000" stroke="none" 
	d="M 262.9 814.5 C 264.3 814.2 266 813.3 266.8 815.8 C 265.4 816.2 263.8 816.7 262.9 814.5 z"/>
<path fill="#262c32" opacity="1.000000" stroke="none" 
	d="M 258.7 811 C 258.9 811.5 258.9 811.9 258.8 812.8 C 258.5 813.2 258.2 813.3 257.6 813.3 C 257.3 813.1 257.2 812.9 257.1 812.3 C 257.5 811.7 257.9 811.3 258.7 811 z"/>
<path fill="#d3ab8a" opacity="1.000000" stroke="none" 
	d="M 597.7 823 C 598.4 824.6 598.9 826.1 599.7 827.9 C 601.4 828.8 601.9 830.3 603 831.8 C 606.1 834.9 610 835.4 613.6 836.2 C 624.4 838.6 635.2 841.1 646 843.3 C 649.2 844 652 845.1 654.4 847.9 C 655.7 851.2 658.3 853.4 658 857.1 C 653.1 859.4 648.3 857.8 643.6 857.4 C 637.5 857 631.4 855.9 625.3 854.4 C 627.5 856.2 629 858.5 630.5 861.2 C 631.1 862.6 631.4 863.6 631.8 865 C 632.2 866.7 632.3 868.1 631.5 869.7 C 630.3 870.9 629.1 870.8 628 870.5 C 617 867.5 605.9 864.7 594.9 860.7 C 593.9 860.5 593.3 860.3 592.8 859.9 C 592.6 859.6 592.6 859.4 592.5 859.5 C 592.4 859.8 592.6 860 593.3 860.2 C 597.5 861.4 600.3 863.7 601.9 867.9 C 602.7 870.1 603 871.8 600.9 873.5 C 589.8 872.4 579.3 869.7 568.6 867.9 C 565.9 867.4 564.3 865.5 563.6 862.9 C 561.5 855 558.9 847.2 557.6 838.7 C 557.5 837.8 557.5 837.3 557.4 836.4 C 559.8 828.7 565.9 825.1 572.4 821.7 C 575.7 822.9 578.4 822.7 581.5 822.2 C 586.4 821.3 591.5 820.9 596.8 822.7 C 597.1 823 597.5 823 597.7 823 z"/>
<path fill="#1f242b" opacity="1.000000" stroke="none" 
	d="M 322.3 829.2 C 321.9 828.8 321.9 828.6 321.9 828.2 C 325.4 823.9 330.3 824.5 333.5 823.7 C 328.1 823.7 321.5 825.7 314.3 824.4 C 313.2 824.2 312.5 824.2 311.4 824.3 C 310.2 824.4 309.5 824.3 308.4 824.3 C 307.9 824.1 307.8 823.9 307.9 823.4 C 309.5 822.7 310.9 822.4 312.6 822 C 314.8 820.5 317 820.6 319.5 820.4 C 325.1 818.3 330.7 818.4 336.1 817 C 340.3 816 344.7 815.5 348.5 812.8 C 333.2 814.2 318 816.2 301.5 814.4 C 304.3 812.5 306.3 813.2 308.6 813 C 312.2 810.9 316 811.3 319.6 810.4 C 323.1 809.4 326.7 808.6 329.9 806.7 C 333.1 804.8 336.5 803.9 340.6 804 C 353.4 804.1 365.7 804.1 378.6 804.1 C 385.2 809.5 386.4 815.9 383 823.6 C 382.4 824.5 381.8 824.8 380.7 824.7 C 378.2 823.3 376 822.6 373.3 824.3 C 372.8 824.5 372.5 824.5 371.9 824.6 C 368.8 824.5 365.9 823.3 363.2 826.2 C 358.2 828.1 353.2 827.9 348.3 828.3 C 342.7 828.7 337.1 829.4 331.1 829.9 C 329.9 830.1 329 830.2 327.8 830.3 C 326.3 830.3 325.2 830.3 323.7 830 C 323.1 829.8 322.9 829.6 322.3 829.2 z"/>
<path fill="#a5785f" opacity="1.000000" stroke="none" 
	d="M 597.1 822.7 C 591 823.7 584.7 821.8 578.6 824.5 C 576.8 825.2 574.1 824.5 572.1 822.4 C 572 816.9 576.3 817.4 579.8 816.3 C 581.4 816.1 582.8 816.1 584.5 816.1 C 585.4 818.4 587.3 818 588.8 817.9 C 591.2 817.8 593.4 818.5 595.7 819.8 C 596.9 820.5 597 821.4 597.1 822.7 z"/>
<path fill="#2d353b" opacity="1.000000" stroke="none" 
	d="M 289.7 819.7 C 290.7 821.6 293 820.4 294 822.3 C 290.2 823 286.3 823.3 282.4 823.6 C 281 823.8 280.5 823.5 281.8 822 C 282.2 821.7 282.4 821.6 282.8 821.2 C 283.1 821 283 821 283 821 C 284.1 819.8 285.5 819.4 287.5 819.5 C 288.4 819.4 288.9 819.4 289.7 819.7 z"/>
<path fill="#f5f5f6" opacity="1.000000" stroke="none" 
	d="M 274 820 C 275.1 819.5 276.1 819.3 277.6 819.2 C 277.9 820.3 278.1 821.6 276.5 821.9 C 275.3 822.1 274.2 821.9 274 820 z"/>
<path fill="#697178" opacity="1.000000" stroke="none" 
	d="M 319.5 820.2 C 317.8 820.9 315.8 821.5 313.4 822.1 C 313.1 821.8 313.2 821.6 313.1 821.2 C 314.9 819.4 317 820.1 319.5 820.2 z"/>
<path fill="#f5f5f6" opacity="1.000000" stroke="none" 
	d="M 288.1 819.7 C 286.5 820.3 285.1 820.6 283.4 821 C 283 820.6 283 820.2 283 819.4 C 284.4 819 285.8 818.9 287.6 818.9 C 288.1 819.1 288.3 819.3 288.1 819.7 z"/>
<path fill="#798088" opacity="1.000000" stroke="none" 
	d="M 307.7 823 C 308 823.3 308 823.5 308 824 C 307.1 825.2 306.1 825.4 305.1 824.5 C 305.9 824 306.6 823.5 307.7 823 z"/>
<path fill="#f5f5f6" opacity="1.000000" stroke="none" 
	d="M 282.8 821.1 C 282.9 821.3 282.7 821.6 282.3 821.9 C 282.1 821.6 282.3 821.3 282.8 821.1 z"/>
<path fill="#a8afb7" opacity="1.000000" stroke="none" 
	d="M 420.4 349 C 425.6 342 432.5 336.3 439.2 330.4 C 446.8 323.6 454.7 317 462.7 310.1 C 463 310 463 310 463 310 C 464.2 311.3 464 312.8 463.4 314.2 C 459.6 324.8 456.6 335.7 451.5 346.2 C 451.1 347.5 450.5 348.3 450 349.4 C 449.9 349.7 449.4 349.8 449.2 349.9 C 439.6 349.8 430.2 350.6 420.4 349 z"/>
<path fill="#949da6" opacity="1.000000" stroke="none" 
	d="M 451.9 346.5 C 450.5 344.8 451.6 343.2 452.2 341.5 C 456 331.3 460 321.2 463 310.4 C 468.1 311.5 471.1 316.2 475.9 318.8 C 476 319.1 476 319.5 476 319.8 C 468.9 326.9 462.8 334.7 456.3 342.1 C 455 343.6 453.5 344.9 451.9 346.5 z"/>
<path fill="#fdf5ca" opacity="1.000000" stroke="none" 
	d="M 512.7 296 C 513.2 297.3 513.9 298.1 515 297.9 C 519.8 297 524.2 300.4 529.1 299.1 C 532 298.3 532.6 301.1 533.4 303 C 534.2 305 535.2 307 535 309.6 C 526 312.5 517.3 309 508.5 308.8 C 505.6 308.7 502.7 307.3 500.1 305 C 501.7 298.7 507.1 297.4 512.7 296 z"/>
<path fill="#5f574f" opacity="1.000000" stroke="none" 
	d="M 513.3 296.1 C 508.4 298.4 503.3 299.9 499.9 304.6 C 499.1 305.6 498.4 306.3 497.4 307.2 C 496.8 306.4 496.5 305.4 496.1 304.1 C 495.8 301.8 497 300.6 498.4 299.7 C 506.5 294.7 515.2 291 524.2 288.1 C 524.9 287.9 525.5 288.1 526.5 288.4 C 527 288.8 527.2 289.1 527.2 289.6 C 522.6 292 518.1 293.9 513.3 296.1 z"/>
<path fill="#949da6" opacity="1.000000" stroke="none" 
	d="M 527.3 289.1 C 516.1 291.9 505.4 295.9 496.1 303.4 C 493.7 304.4 492.4 306.5 490.2 307.8 C 485 306 479.9 307.5 474.9 307 C 472.8 306.8 470.7 306.8 468.3 306.4 C 476.5 298.1 486.9 292.8 496.5 286.3 C 500.4 283.6 504.4 280.8 508.6 278 C 514.2 278 518.8 280.5 523.7 282.7 C 526.6 285.6 529.9 286.2 533.9 286.1 C 534.3 286.3 534.4 286.5 534.2 286.9 C 534 287.1 534 287 534 287 C 532.3 287.7 530.4 288.1 528.3 288.8 C 528 289.1 528 289 528 289 C 527.8 289.2 527.6 289.3 527.3 289.1 z"/>
<path fill="#ece9dd" opacity="1.000000" stroke="none" 
	d="M 430.7 466 C 430.7 457.9 432.6 450.4 433.9 442.4 C 434.2 441.8 434.3 441.7 434.3 441.3 C 434.1 440.6 434.1 440.1 434 439.3 C 434.1 438.5 434.4 438 435.1 437.5 C 437.6 436.8 439.3 437.9 441.1 438.6 C 455.9 444.6 469.7 452.8 484.8 458.1 C 487.4 459.1 488.9 461.5 491.7 462.8 C 493.6 464.7 495.2 463.1 496.5 462.6 C 519.3 454.6 542 446.4 564.8 438.2 C 565.2 438.1 565.8 438.1 566.6 438 C 569.2 440.5 568.4 443.3 568 446.1 C 563.5 475.7 559.4 505.4 555 535.1 C 553 548.9 550.5 562.7 549.4 576.7 C 549.3 578.3 548.8 579.9 547.6 581.7 C 544.1 583.4 543.2 580.9 542.2 578.8 C 536.1 566.1 530.8 553 524.9 540.1 C 514.3 516.9 504.7 493.3 493.8 470.3 C 493.4 469.4 493.2 468.4 491.9 467.6 C 483.6 477 476.2 487.2 468.2 497 C 462.8 503.7 458 510.9 451.3 517 C 450.4 516.5 449.8 516 449.1 515.3 C 442.7 501.5 437.5 487.5 431.7 473.7 C 430.7 471.3 431.2 468.8 430.7 466 z"/>
<path fill="#f2f0ea" opacity="1.000000" stroke="none" 
	d="M 545.7 582.3 C 549.8 578.4 548.2 573.4 548.7 569.2 C 552.2 541.2 557.2 513.5 560.8 485.5 C 562.8 469.9 566.2 454.6 567 438.4 C 571.5 437.2 573.7 441.1 576.5 443.2 C 588.4 452.4 600 462 611.8 471.7 C 612.2 473.8 611.4 475.1 610.2 476.7 C 597.9 497.6 585.8 518.1 573.9 538.7 C 564.9 554.2 556.1 569.8 547.1 585.7 C 546.7 586.1 546.5 586.2 545.9 586 C 545 584.8 545 583.7 545.7 582.3 z"/>
<path fill="#f2f0ea" opacity="1.000000" stroke="none" 
	d="M 491.9 462.7 C 484.6 459.8 477.2 456.7 469.9 453.3 C 458.6 448 447.4 442.3 435.1 438 C 433.9 437.1 433.6 435.9 433.9 434.8 C 436.4 424.4 437.7 413.7 441.7 403.4 C 442.1 403.1 442.4 402.9 442.5 402.9 C 447.8 408.9 453 414.9 458 421 C 469.3 434.7 480.5 448.6 491.9 462.7 z"/>
<path fill="#dfd9ca" opacity="1.000000" stroke="none" 
	d="M 545.7 585.8 C 546 586 546.5 586 546.8 586 C 547 586 547 586.5 547 586.7 C 547 603.7 547 620.4 547 637.5 C 543.3 639.4 539.5 640.1 535.5 640 C 522.8 639.6 510.1 641 497.3 641.2 C 481.2 641.5 465 643 448.4 644 C 447.7 640.9 450.4 640.3 452.2 639.1 C 465.6 630.5 479.7 623 493.5 615 C 510.3 605.4 527 595.4 544.3 585.8 C 544.9 585.6 545.2 585.6 545.7 585.8 z"/>
<path fill="#f2f0ea" opacity="1.000000" stroke="none" 
	d="M 494.3 254.9 C 494 255 493.5 254.9 493.3 254.9 C 487.7 245.4 482.3 236.1 476.8 226.3 C 491.5 229.3 506.5 232.5 521.8 235.7 C 523 235.9 523.8 236.2 524.8 236.7 C 520.7 242.4 513.5 243 508.2 246.8 C 503.9 249.8 499.1 252.1 494.3 254.9 z"/>
<path fill="#fdf5ca" opacity="1.000000" stroke="none" 
	d="M 501.5 178.2 C 499 175.1 499.7 172.6 503.4 171.2 C 510.1 168.7 514.4 162.6 521.5 160 C 525.3 165.3 527.1 171.3 529.1 177.6 C 529 178.3 528.9 178.6 528.5 178.9 C 521.1 176.8 513.7 175.9 506.2 175.8 C 504.4 175.8 503.3 177.3 501.5 178.2 z"/>
<path fill="#fdf5ca" opacity="1.000000" stroke="none" 
	d="M 496.3 183.1 C 496.3 182.9 496.5 182.6 497 182.2 C 497.1 182.4 496.8 182.7 496.3 183.1 z"/>
<path fill="#cfc9be" opacity="1.000000" stroke="none" 
	d="M 524.2 282.7 C 518.9 282.2 514.2 280.4 509.3 278.1 C 509 277.8 509 277.7 509 277.2 C 526.4 271.4 544.2 267.1 561.8 262.3 C 562.5 262 563.4 262.1 564.6 262.1 C 564.9 263.6 563.8 263.7 562.7 264.2 C 549.9 270.3 537.2 276.3 524.2 282.7 z"/>
<path fill="#a5785f" opacity="1.000000" stroke="none" 
	d="M 591.1 179.5 C 591.2 179.9 591 180.4 590.9 180.6 C 584.1 182.6 577.3 184.3 570.8 186.3 C 568.5 187 567.2 186.7 565.6 185.1 C 562.9 182.2 560 179.5 557 176.4 C 557.3 173.1 559.8 174.3 561.9 174 C 562.6 174.3 562.9 174.3 563.1 174.6 C 568.2 182.6 574.8 182.3 582.5 178.1 C 585.7 177.6 588.5 176.9 591.1 179.5 z"/>
<path fill="#e3c1a4" opacity="1.000000" stroke="none" 
	d="M 563.5 175.4 C 561.3 175 559.3 174.8 557.2 175.8 C 556.2 175.8 555.5 175.5 554.6 175 C 561 172 567.8 169.3 575.2 168.8 C 574.9 171.5 572.9 171.9 571 172.5 C 569.3 173 567.3 172.9 566.1 175.1 C 565.2 175.7 564.5 175.8 563.5 175.4 z"/>
<path fill="#88604d" opacity="1.000000" stroke="none" 
	d="M 534.4 287.1 C 534 287.1 534.1 286.6 534.2 286.4 C 535.3 286.1 536.3 286 537.7 286 C 537.3 287.5 535.9 286.9 534.4 287.1 z"/>
<path fill="#88604d" opacity="1.000000" stroke="none" 
	d="M 538.9 285.3 C 539.1 285.2 539.1 285.6 539 285.8 C 538.8 286.1 538.7 286.1 538.2 286.1 C 538.2 285.8 538.4 285.5 538.9 285.3 z"/>
<path fill="#1b1f25" opacity="1.000000" stroke="none" 
	d="M 441.9 402.9 C 439.6 414.5 437.2 425.8 434.7 437.6 C 434.4 438.1 434.3 438.3 434.1 438.8 C 429.7 437.4 428.9 433.2 427.2 429.9 C 425.5 426.5 423.8 423.2 421.3 420.1 C 421.1 418.2 420.6 416.4 421.9 414.4 C 428.4 411.3 434 407.3 439.7 403.4 C 440.3 402.9 440.7 402 441.9 402.9 z"/>
<path fill="#a8afb7" opacity="1.000000" stroke="none" 
	d="M 419.5 422 C 419.5 422.5 419.5 423.3 419.2 424.3 C 419.1 423.8 419.3 423 419.5 422 z"/>
<path fill="#a0988a" opacity="1.000000" stroke="none" 
	d="M 489.2 790.7 C 489 791 488.6 791 488.4 791 C 478.4 795.3 468 797.3 457.6 800.4 C 457 800.6 456.8 800.6 456.2 800.8 C 455.2 801.1 454.5 801.2 453.6 801.5 C 452.6 801.8 452 802 450.6 802 C 449 802 447.9 802 446.5 802 C 444.1 800.2 444.4 797.7 444.4 795.4 C 444.7 777.6 442.7 759.9 443.4 742.1 C 443.6 737 441.4 731.9 443.7 726.4 C 443.9 725.5 444 725.1 444 724.3 C 456 724.3 467.8 725.8 479.6 726.9 C 489.3 727.8 499 728.2 508.7 729 C 525.3 730.3 541.9 731.7 558.5 733.1 C 559.2 733.2 559.9 733.9 560.8 734.6 C 539.8 752.1 518 768.4 496.3 784.9 C 493.9 786.7 491.6 788.6 489.2 790.7 z"/>
<path fill="#d9cdb8" opacity="1.000000" stroke="none" 
	d="M 545.1 585.7 C 539.8 591 532.9 593.3 526.9 597 C 501.5 612.5 475 626.2 449.8 642.1 C 449.2 642.5 448.8 643 448.1 643.7 C 448 644 447.5 644 447.2 644 C 444.1 639.3 445.4 634.3 445.8 629.4 C 446.1 625.2 446.4 621.1 446.4 616.9 C 446.3 586.3 448.9 555.8 448.4 525.2 C 448.4 523.3 448.6 521.5 449.8 519.4 C 450.3 518.9 450.6 518.7 450.9 518.2 C 453.2 517.4 454.4 519.1 455.8 520.1 C 483.9 540.9 512.2 561.4 540.9 581.2 C 542.6 582.3 544.3 583.4 545.1 585.7 z"/>
<path fill="#c1bdb6" opacity="1.000000" stroke="none" 
	d="M 449.7 519.1 C 450 520.7 450 522.3 450 524 C 450.7 545.5 449.3 566.9 448.7 588.3 C 448.4 600.3 448.8 612.3 447.8 624.2 C 447.4 630.5 447.1 636.7 447 643.5 C 447 644 447 644 447 644 C 446.4 644.5 445.8 644.8 444.6 644.9 C 443.5 644.7 442.8 644.3 442.2 643.4 C 434.9 636.7 426.1 633 418.1 628.1 C 406.7 621 395.1 614.2 383.3 607.1 C 387.4 597.2 394.5 589.2 400.9 580.8 C 416 561 431.5 541.4 446.9 521.7 C 447.6 520.8 448.6 520.1 449.7 519.1 z"/>
<path fill="#e4dfd1" opacity="1.000000" stroke="none" 
	d="M 545.3 586 C 528.7 574.3 512.3 562.8 496.1 551 C 481.2 540.2 466.4 529.2 451.3 518.2 C 451 518 451 517.5 451 517.3 C 463.9 500.7 476.8 484.3 489.6 467.9 C 491.5 465.6 492.6 464.9 494.3 468.4 C 503.6 488.2 512.1 508.3 521 528.4 C 527.5 543.1 534 557.8 540.8 572.4 C 542.2 575.5 542.7 579.1 545.7 581.8 C 546 583.1 546 584.1 546 585.6 C 545.9 586 545.7 586 545.3 586 z"/>
<path fill="#1b1f25" opacity="1.000000" stroke="none" 
	d="M 399.3 527.9 C 396.2 524.8 399.4 522.5 400.7 520.6 C 408 510 415.8 499.7 423.4 489.3 C 424.3 488.1 425.4 487.1 427.4 486.9 C 429.5 489.4 429.6 492 428.8 494.8 C 428.1 497.2 428.7 499.7 428.3 502.5 C 420.4 511 411.5 517.7 403.1 524.9 C 401.9 525.9 400.8 526.8 399.3 527.9 z"/>
<path fill="#dfd9ca" opacity="1.000000" stroke="none" 
	d="M 428.4 502.7 C 428 497.9 428 492.8 427.9 487.3 C 428.3 481.2 428.9 475.5 429.7 469.4 C 430.8 468.4 430.4 467.4 430.6 466.2 C 430.6 465.9 430.5 465.8 430.5 465.7 C 433.1 474.6 437.1 483 440.4 491.7 C 443.2 499.2 447.4 506.2 449 514.6 C 442.1 509.1 435.9 502.4 429.3 495.5 C 429.1 498 428.9 500.2 428.4 502.7 z"/>
<path fill="#e6e2d6" opacity="1.000000" stroke="none" 
	d="M 443.7 644.3 C 444.8 644.1 445.5 644 446.6 644 C 445.8 648.9 445.9 653.8 446 658.8 C 446.4 676 444.5 693.2 444.8 710.5 C 444.9 714.1 445 718.3 442.4 721.9 C 433.8 712.4 423.4 705 414.4 696.2 C 405.2 687.1 395.3 678.8 385.4 670 C 384.9 669.2 384.8 668.5 384.8 667.3 C 390.6 662.3 397.7 660.8 404.4 658.3 C 417.3 653.4 430.2 648.6 443.7 644.3 z"/>
<path fill="#cfc9be" opacity="1.000000" stroke="none" 
	d="M 443.8 644 C 443.9 646.1 442.1 646.1 440.8 646.5 C 424.8 652.4 408.9 658.2 392.8 663.8 C 390.3 664.7 388.5 666.9 385.3 667 C 385.8 659.9 386.8 652.9 387.7 645.8 C 388 643 388 640.2 388.4 637.1 C 391.9 639.1 395.8 638.1 399.3 638.4 C 413.2 639.9 427.1 642.5 441.6 643 C 442.5 643.3 443.1 643.6 443.8 644 z"/>
<path fill="#d3ab8a" opacity="1.000000" stroke="none" 
	d="M 566.2 175.2 C 565.1 173.3 565 172.3 567.3 172 C 570 171.7 572.8 171.4 575.1 169.1 C 576 169.3 576.7 169.5 577.7 169.7 C 582.9 172.8 588.3 174.9 592.5 179.1 C 592.5 179.1 592.6 179.4 592.5 179.4 C 592.3 179.6 592 179.7 591.5 179.9 C 588.6 178 585.7 179.2 582.6 178.9 C 581.6 179.4 580.8 179.4 580.3 179 C 576.2 175.7 571.4 175.3 566.2 175.2 z"/>
<path fill="#474f56" opacity="1.000000" stroke="none" 
	d="M 649.7 174.2 C 649.6 174.4 649.1 174.7 648.4 174.9 C 648.6 174.7 649 174.4 649.7 174.2 z"/>
<path fill="#c3baa8" opacity="1.000000" stroke="none" 
	d="M 443.6 726 C 445.2 751 445.8 776 446.1 801.5 C 441.6 803.7 436.9 803.7 432.2 803.9 C 424.8 804.3 417.4 804 409.5 804 C 411.3 794.6 416.1 786.2 419.9 777.4 C 427 760.7 434.6 744.2 442 727.6 C 442.3 727 442.8 726.6 443.6 726 z"/>
<path fill="#5f574f" opacity="1.000000" stroke="none" 
	d="M 405.4 841.1 C 404.8 840.4 404.5 839.9 404.2 839.2 C 405.4 838.5 405.9 837.5 406.2 836.1 C 413.5 834.5 420.9 835.6 428.6 833.9 C 430.4 832.6 432.1 832 434.3 832.2 C 438.9 834 443.2 834.9 448.1 834.1 C 448.7 834.1 448.9 834.1 449.5 834.2 C 450.3 834.5 450.7 834.7 451.5 835.1 C 452.4 835.7 453 836.2 453.7 837 C 454.8 839.2 456.3 840.9 454.7 843.4 C 449.8 844.9 445.1 844.7 440.1 846 C 435 846.6 430.3 849.1 425.4 845.4 C 424.6 839.2 424.6 839.2 418.3 838.9 C 414.9 838.8 411 836.6 408.2 841.2 C 407.2 841.7 406.4 841.7 405.4 841.1 z"/>
<path fill="#a49d92" opacity="1.000000" stroke="none" 
	d="M 435.5 833.3 C 433.3 833.4 431.5 833.7 429.4 833.9 C 428.1 829.7 431.7 827.7 433.7 825.1 C 437 820.9 439.9 816.6 442 811.8 C 443.8 808 445.9 804.6 449.8 802.3 C 450 802 450 802 450 802 C 450.7 801.3 451.7 801.6 452.7 801.2 C 453.5 800.7 453.9 800.4 454.7 800 C 455.2 800.1 455.3 800.3 455.8 800.2 C 466.2 796.2 476.7 793.5 487.7 791 C 479.4 802.6 470.1 813.7 461.9 826.1 C 461.8 827.3 461.2 827.7 460.1 828.2 C 456.1 829.4 452.5 830.2 448.4 831.3 C 444 832.2 440.1 833.9 435.5 833.3 z"/>
<path fill="#262c32" opacity="1.000000" stroke="none" 
	d="M 341 803.8 C 330.6 807.1 321.2 813.3 309.5 813 C 308.4 811.1 308.1 809.2 310 807.3 C 311.3 805.7 312.3 804.3 311.7 802 C 317.3 800.5 322.8 799.3 328.6 798 C 330.5 798.6 331 799.7 330.1 801.6 C 327.9 802.4 325.9 802.9 323.9 803.4 C 327.5 804.2 330.9 804.2 334.7 803.2 C 335.8 803.7 336.6 803.5 337.7 803.3 C 338.7 803.1 339.5 803.1 340.6 803 C 341 803.2 341 803.3 341 803.8 z"/>
<path fill="#373e45" opacity="1.000000" stroke="none" 
	d="M 330.3 801.8 C 330.1 800.7 329.9 799.6 329.1 798.3 C 332.8 796.1 337.2 796.2 341.6 795 C 344.3 795.8 346.7 796.5 349.3 797.4 C 343.1 800.1 336.6 799.5 330.3 801.8 z"/>
<path fill="#262c32" opacity="1.000000" stroke="none" 
	d="M 341 803 C 341.6 802.1 342.5 802 343.5 802.2 C 343.7 802.2 343.8 802.5 344 802.7 C 343.2 802.8 342.4 802.9 341.3 803 C 341 803 341 803 341 803 z"/>
<path fill="#1f242b" opacity="1.000000" stroke="none" 
	d="M 337.6 803.1 C 337.3 804 336.4 804.1 335.3 803.4 C 335.8 803.2 336.5 803.1 337.6 803.1 z"/>
<path fill="#373e45" opacity="1.000000" stroke="none" 
	d="M 348.5 795.5 C 348.4 795.5 348.5 795.6 348.5 795.5 z"/>
<path fill="#262c32" opacity="1.000000" stroke="none" 
	d="M 299.2 804.1 C 299.9 802.7 301.4 803.3 302.7 802.5 C 304.7 802.2 306.4 802.1 308.6 802 C 310.1 803.3 310.3 804.7 309.3 806.6 C 305.5 807.4 302.8 804.6 299.2 804.1 z"/>
<path fill="#1f242b" opacity="1.000000" stroke="none" 
	d="M 309.2 807 C 309 805.6 309 804.3 309 802.5 C 309.7 802 310.4 801.9 311.5 801.8 C 314.2 804.1 314.7 806 310.4 807 C 309.8 807 309.7 807 309.2 807 z"/>
<path fill="#373e45" opacity="1.000000" stroke="none" 
	d="M 339.5 792.1 C 340.2 792.2 340.6 792.3 341.1 792.4 C 340.6 792.6 340.1 792.7 339.6 792.9 C 339.4 792.9 339.3 792.9 339.1 792.8 C 338.7 792.6 338.8 792.4 339.5 792.1 z"/>
<path fill="#262c32" opacity="1.000000" stroke="none" 
	d="M 666.5 183.9 C 674.1 184.3 681.2 184.8 688.3 185.1 C 690.2 185.2 692 185.5 693.9 186.6 C 692.4 187 690.5 187.1 688.4 187.5 C 685.9 187.5 683.7 187.3 681.2 187.2 C 667.1 187.6 653.5 186.2 639.5 186.1 C 635.3 184.4 631.2 185.5 627.3 184 C 640.2 184 653.1 184 666.5 183.9 z"/>
<path fill="#f1b53c" opacity="1.000000" stroke="none" 
	d="M 638.7 185.9 C 652.7 186.1 666.3 185.8 680.3 187.2 C 674.5 188.9 668.1 188.3 661.9 187.8 C 652.5 187 643 187.6 633.3 186.3 C 634.7 186 636.5 186 638.7 185.9 z"/>
<path fill="#262c32" opacity="1.000000" stroke="none" 
	d="M 696.2 186.9 C 696.2 186.6 696.4 186.5 696.9 186.8 C 696.8 187 696.6 187 696.2 186.9 z"/>
<path fill="#1d2128" opacity="1.000000" stroke="none" 
	d="M 705.1 188.2 C 705 188 705.5 188 705.7 188.1 C 705.7 188.2 705.4 188.3 705.1 188.2 z"/>
<path fill="#5f574f" opacity="1.000000" stroke="none" 
	d="M 467.3 825.4 C 471.3 820.9 477.2 820.1 482.5 818.1 C 513.3 806.5 544.1 795.1 574.5 782.8 C 579.2 780.9 583.9 778.8 590.3 778 C 574.4 791.1 557.5 800.7 541.2 811.6 C 540.5 812.6 539.7 812.8 538.5 813 C 531 813.1 524.3 815.4 517.4 816.7 C 509.5 818.2 501.4 819.7 493.1 821.9 C 486.4 823 480.2 824.4 473.9 825.6 C 471.8 826 469.8 826.6 467.3 825.4 z"/>
<path fill="#373e45" opacity="1.000000" stroke="none" 
	d="M 577.5 812.1 C 578 813.1 578 814.1 577.9 815.5 C 570.7 818.7 563.3 818 555.6 815.9 C 554.4 814.9 554.3 814.1 554.7 812.6 C 562.3 812.2 569.7 812.1 577.5 812.1 z"/>
<path fill="#262c32" opacity="1.000000" stroke="none" 
	d="M 554.5 812.2 C 555 813 555 813.7 555.1 814.7 C 555.1 816 554.5 816.7 553.7 816.8 C 548.4 817.7 543.2 819.6 537.3 818.6 C 535.5 816.3 535.5 814.4 537.5 812.2 C 538.7 812 539.5 812 540.7 811.9 C 545.4 812 549.7 812 554.5 812.2 z"/>
<path fill="#88604d" opacity="1.000000" stroke="none" 
	d="M 536.3 818.1 C 542.7 817.2 548.6 816.4 554.8 815.3 C 562.4 816.5 569.7 815.8 577.5 815.9 C 578.4 815.9 578.9 816 579.7 816 C 578.4 819.2 573.5 817.6 572.1 821.7 C 567.3 826.4 561.5 829.6 558.2 835.8 C 558.3 836.3 558.5 836.5 558.8 836.9 C 559.7 846.5 563.3 855.2 565.4 864.2 C 565.9 866.6 568.6 866.6 570.7 867 C 580.6 868.8 590.6 870.2 600.7 873 C 602.4 874.8 602 876.4 600.5 878.2 C 597.6 879.8 595 878.9 592.4 878.6 C 568.8 876.1 546.6 868.3 524.6 858.9 C 523.8 858.3 523.5 857.9 523.2 857 C 523.1 855.3 523.5 854.2 524 852.6 C 524.6 851.2 525.2 850.2 525.7 848.8 C 526.1 847.4 526.6 846.4 527.2 845.1 C 528.6 842.9 529.9 841.1 530.7 838.7 C 531.1 837.5 531.4 836.6 531.6 835.4 C 532.2 833.2 532.4 831.2 533.7 829.3 C 534.2 828.2 534.5 827.4 534.8 826.3 C 533.5 823.1 534.4 820.6 536.3 818.1 z"/>
<path fill="#ece9dd" opacity="1.000000" stroke="none" 
	d="M 430.3 466.1 C 431 466.8 431.1 467.7 430.2 468.8 C 430 468.1 430 467.2 430.3 466.1 z"/>
<path fill="#f2f0ea" opacity="1.000000" stroke="none" 
	d="M 434.1 441.3 C 434.3 441.2 434.5 441.4 434.6 441.5 C 434.6 441.6 434.4 441.7 434.2 441.9 C 434.1 442 434 441.5 434.1 441.3 z"/>
<path fill="#6f675c" opacity="1.000000" stroke="none" 
	d="M 528.4 289.1 C 529.3 287 531.2 286.9 533.7 287 C 533.5 287.4 532.9 287.8 532.1 288.3 C 530.8 288.7 529.8 288.9 528.4 289.1 z"/>
<path fill="#6f675c" opacity="1.000000" stroke="none" 
	d="M 527.1 289.1 C 527.2 288.8 527.6 288.8 527.8 288.9 C 527.9 289.3 527.7 289.6 527.3 290 C 527 289.8 527.1 289.6 527.1 289.1 z"/>
<path fill="#8a8f97" opacity="1.000000" stroke="none" 
	d="M 320 793.5 C 320.7 793.1 321.5 793 322.6 793 C 322.8 794.3 321.6 794 320.4 794.3 C 320.1 794.2 320 794 320 793.5 z"/>
<path fill="#373e45" opacity="1.000000" stroke="none" 
	d="M 288.2 819.9 C 287.9 819.8 288 819.6 288 819.2 C 289.5 817.3 291.3 818.1 293.6 818.3 C 292.1 818.9 291.3 819.2 290.2 819.7 C 289.5 820 289 820 288.2 819.9 z"/>
<path fill="#eeeff1" opacity="1.000000" stroke="none" 
	d="M 314 824.6 C 321.5 823.3 329 822.4 336.7 823.5 C 332 824.9 327.3 826.4 322.3 827.9 C 319.7 827.6 317.8 825.5 315.2 826.7 C 314.4 827 314.1 825.7 314 824.6 z"/>
<path fill="#eeeff1" opacity="1.000000" stroke="none" 
	d="M 322.7 829 C 322.9 829.4 322.7 829.6 322.2 829.9 C 322 829.8 322 829.7 322 829.2 C 322 829 322.5 828.9 322.7 829 z"/>
<path fill="#1f242b" opacity="1.000000" stroke="none" 
	d="M 662.5 852.5 C 667.3 856.2 671.8 859.7 675.3 864.6 C 675.6 866.6 678.4 867.8 676.4 869.8 C 673.6 868.7 671.1 867.7 668.2 866.5 C 664.7 867.7 661.5 865.8 658 866.1 C 656.9 864.9 656.8 863.8 656.7 862.3 C 656.6 860.4 656.7 859 657.7 857.3 C 657.3 854.1 655 852.2 654 849.3 C 657.4 848.4 659.6 850.7 662.5 852.5 z"/>
<path fill="#e3c1a4" opacity="1.000000" stroke="none" 
	d="M 578.1 851 C 572.8 847 567.8 843.3 562.9 839.4 C 560.7 837.6 560.8 836.3 563.8 835.6 C 568.4 834.6 573.1 835.1 577.7 835.2 C 578.2 835.2 579.2 835.8 579.3 836.1 C 579.8 841.1 580.3 846.2 580.5 851.2 C 580.6 852 579.2 851.5 578.1 851 z"/>
<path fill="#a5785f" opacity="1.000000" stroke="none" 
	d="M 657.4 857 C 657.9 858.3 658 859.7 657.9 861.5 C 655.6 864 652.8 863.4 650.2 863.5 C 643.7 863.7 637.3 863.3 630.4 862.2 C 627.4 859.2 626.2 855 621.9 853.4 C 633.6 854.5 645.2 857.2 657.4 857 z"/>
<path fill="#a5785f" opacity="1.000000" stroke="none" 
	d="M 593.2 860.2 C 600.7 860.3 607.4 863.7 614.6 865.5 C 620.1 866.7 625.4 868.5 631.2 870 C 633.6 871.7 633.3 873.4 631.6 875.3 C 622.3 875.2 614.1 871.6 605.3 869.5 C 603.8 869.2 602.6 868.9 601.3 868.2 C 599.5 864.4 596.3 862.6 593.2 860.2 z"/>
<path fill="#1f242b" opacity="1.000000" stroke="none" 
	d="M 601 868.4 C 601.7 866.9 602.7 868.1 603.9 867.9 C 605.5 869.6 606.3 871.6 607.9 873.5 C 611.2 878.5 612.5 883.9 614 889.6 C 614 895.8 613.5 896.1 608.4 893.2 C 606 891.1 604.7 888.4 601.9 886.7 C 600.1 885.1 598.1 884.2 597.4 881.6 C 597.4 879.8 598.2 879 599.7 878.3 C 600.9 876.8 601 875.3 601.1 873.5 C 602.4 871.6 601.4 870.2 601 868.4 z"/>
<path fill="#1f242b" opacity="1.000000" stroke="none" 
	d="M 630.9 875.5 C 632.7 874 631.9 872.3 631.8 870.4 C 631.4 868.7 631.2 867.3 631 865.4 C 632.7 864.5 633.8 865.6 635.3 866.4 C 639.4 870.9 642.2 875.7 643.2 881.7 C 642.9 884.1 644.6 886 643.7 888.5 C 642.5 887.9 641.1 887.4 639.4 886.8 C 636.6 885.6 634.7 883.4 631.9 881.9 C 630.2 881.1 628.6 880.7 627.1 879.4 C 626.9 876.7 629.1 876.5 630.9 875.5 z"/>
<path fill="#5f574f" opacity="1.000000" stroke="none" 
	d="M 635 867.2 C 633.2 867 632.5 865.9 631.3 865.1 C 630.7 864.2 630.4 863.5 630 862.4 C 631.2 860.4 633.1 860.8 634.6 861.1 C 642 862.6 649.5 861.8 657.4 861.9 C 657.9 863 657.9 864.2 658 865.8 C 657.8 867.7 656.7 868.1 655.5 868.2 C 648.8 868.5 642.1 869.6 635 867.2 z"/>
<path fill="#a5785f" opacity="1.000000" stroke="none" 
	d="M 593 860 C 592.5 859.9 591.7 860.2 591.7 859.4 C 592.1 859.4 592.4 859.4 593 859.6 C 593.1 859.8 593 860 593 860 z"/>
<path fill="#a5785f" opacity="1.000000" stroke="none" 
	d="M 619.4 852.6 C 619 852.6 618.9 852.5 618.7 852.3 C 619 852.4 619.2 852.5 619.4 852.6 z"/>
<path fill="#e3c1a4" opacity="1.000000" stroke="none" 
	d="M 558.9 837 C 558.7 837.1 558.4 836.9 558.2 836.3 C 558.5 836.2 558.7 836.4 558.9 837 z"/>
<path fill="#2d353b" opacity="1.000000" stroke="none" 
	d="M 371.9 824 C 369.4 825.4 366.6 824.8 363.4 825.1 C 365.3 821.3 368.6 823.1 371.9 824 z"/>
<path fill="#2d353b" opacity="1.000000" stroke="none" 
	d="M 379.9 823.4 C 378 823.9 375.9 824.1 373.5 824.2 C 374.7 820.5 377.3 821.7 379.9 823.4 z"/>
<path fill="#eeeff1" opacity="1.000000" stroke="none" 
	d="M 329.5 828.3 C 329.5 829.9 328.7 830.3 327.1 829 C 327.6 828.6 328.4 828.4 329.5 828.3 z"/>
<path fill="#1f242b" opacity="1.000000" stroke="none" 
	d="M 565.6 174.9 C 571.9 173.1 577.1 174.3 581.8 178.8 C 579.3 181.4 575.7 182.4 572.2 182.8 C 567.4 183.4 565.7 178.9 563.2 175.5 C 563.9 175.1 564.6 175.1 565.6 174.9 z"/>
<path fill="#b0a593" opacity="1.000000" stroke="none" 
	d="M 452.7 801 C 452.5 801.9 451.6 802 450.3 802 C 450.5 801.1 451.4 801 452.7 801 z"/>
<path fill="#b0a593" opacity="1.000000" stroke="none" 
	d="M 455.7 800 C 455.8 800.3 455.7 800.7 455.1 800.2 C 455 800 455.5 800 455.7 800 z"/>
<path fill="#a5785f" opacity="1.000000" stroke="none" 
	d="M 405.9 851.4 C 406.2 849.2 405.8 847.4 405.1 845.4 C 405 843.9 405 842.8 405 841.3 C 405.8 840.9 406.5 840.9 407.6 840.9 C 408.5 840.7 409 840.8 409.6 841.5 C 411.7 845.4 411.3 849.5 412.8 853.6 C 414 859 415.6 863.9 417.1 868.8 C 419.1 874.9 423 878.5 429 880.5 C 439.7 884 450.7 886.8 461.8 890.3 C 465 893.9 463.5 896 459.8 897.6 C 450.1 893.6 439.8 892.6 430.4 888.7 C 424.8 886.5 419.4 883.9 414.2 880.3 C 413.6 880 413.4 879.9 413 879.5 C 412.1 878.4 411.8 877.5 411.3 876.3 C 410.7 874.6 410.1 873.3 409.1 871.8 C 407.3 867.9 407.6 863.9 406.6 859.8 C 406.3 856.9 405.3 854.4 405.9 851.4 z"/>
<path fill="#1f242b" opacity="1.000000" stroke="none" 
	d="M 476.9 905.7 C 476.8 907.4 477 908.8 477.1 910.6 C 475.1 911.3 474.7 908.7 472.4 908.8 C 471.1 906.1 469 904.4 466.4 902.9 C 463 902.6 460.7 901.1 458.8 898.4 C 458.6 897.8 458.6 897.6 458.8 897 C 461.9 896.3 463.2 894.7 462.4 891.6 C 460.4 889.4 459.1 887.3 461 884.4 C 464.5 882.2 465.9 885.1 468.2 886.9 C 470 889.1 470.9 891.4 472.6 893.6 C 474.6 897.7 476.9 901.2 476.9 905.7 z"/>
<path fill="#1d2128" opacity="1.000000" stroke="none" 
	d="M 516.2 909 C 514.2 907.7 512.5 906.4 510.4 905 C 505.8 903.4 501.4 902 497.1 899.5 C 496.4 898.3 496.7 897.3 497.3 896.1 C 499.4 894.1 500.2 892 499.2 889.1 C 498.9 887.8 498.9 886.8 499.1 885.5 C 501 882.3 502.4 884.9 504.3 885.7 C 508 888.2 509.8 891.8 512.3 895.3 C 513.4 897.1 514.4 898.6 515.4 900.5 C 515.9 901.6 516.1 902.4 516 903.7 C 516.3 905.4 516.6 906.8 517 908.6 C 517 909 516.5 909.1 516.2 909 z"/>
<path fill="#1f242b" opacity="1.000000" stroke="none" 
	d="M 476.9 911.2 C 476.9 911 477.4 911 477.6 911 C 477.7 911.6 477.4 911.8 476.9 911.2 z"/>
<path fill="#88604d" opacity="1.000000" stroke="none" 
	d="M 439.8 845.2 C 444.6 843.1 449.4 842.9 454.7 842.9 C 455.2 842.8 455.1 842.9 455.1 842.9 C 455.3 843.2 455.6 843.5 456.4 843.6 C 458.3 844.4 459 846.1 460.3 847.5 C 460.9 848.3 461.2 848.9 461.6 849.8 C 462.1 851 462.3 851.9 462.5 853.2 C 462.3 853.8 462.3 854.1 461.9 854.6 C 457.8 857.3 453.1 855.7 448.7 857.5 C 448.1 857.6 447.8 857.6 447.2 857.5 C 445.1 856.3 444.5 854.6 443.9 852.5 C 444.4 848.8 441.6 847.4 439.8 845.2 z"/>
<path fill="#88604d" opacity="1.000000" stroke="none" 
	d="M 409.3 842.2 C 408.8 841.7 408.6 841.4 408.1 841 C 407.9 840.6 407.9 840.2 408 839.9 C 408.8 836.8 415.8 836.1 423.6 837.5 C 428.1 838.3 426.5 840.8 426.1 843.6 C 424.4 845.8 422.1 844.1 419.9 844.9 C 415.9 845.2 412.7 844.1 409.3 842.2 z"/>
<path fill="#a5785f" opacity="1.000000" stroke="none" 
	d="M 420 844.5 C 421.7 841.7 423.5 844.4 425.7 843.9 C 427.9 847.7 431.2 845.4 433.8 845.7 C 435.5 845.9 437.3 845.2 439.5 844.9 C 442.7 846.1 446.1 847 445 851.7 C 444.4 852.5 443.8 853 443.1 852.9 C 435 851.3 426.5 851.1 420 844.5 z"/>
<path fill="#2d353b" opacity="1.000000" stroke="none" 
	d="M 449.9 832.7 C 450 833.5 450.1 833.9 450.2 834.6 C 445.1 836.2 440.2 836.1 435.3 833.4 C 439.1 832.2 443.1 831.2 447.4 830.2 C 448.8 830.5 449.8 831.1 449.9 832.7 z"/>
<path fill="#2d353b" opacity="1.000000" stroke="none" 
	d="M 450.1 835.1 C 450.3 835.1 450.6 835.3 451 835.7 C 450.7 835.9 450.4 835.7 450.1 835.1 z"/>
<path fill="#1f242b" opacity="1.000000" stroke="none" 
	d="M 316.7 807.4 C 318.7 806.1 320.5 805.4 322.8 806.9 C 320.7 808.6 319 810.5 316.7 807.4 z"/>
<path fill="#474f56" opacity="1.000000" stroke="none" 
	d="M 320.7 804.8 C 320.3 804.8 320 804.6 319.7 804.5 C 320.1 804.4 320.6 804.2 321 804.2 C 321.1 804.1 321.3 804.4 321.3 804.5 C 321.3 804.6 321.1 804.7 320.7 804.8 z"/>
<path fill="#373e45" opacity="1.000000" stroke="none" 
	d="M 523.3 859.3 C 523.2 858.6 523.3 858.3 523.8 858 C 532.1 859.5 539.7 863 547.2 866.4 C 559.6 872.2 572.8 873.7 586 876 C 590.3 876.7 594.6 878.3 599.6 878.1 C 599.4 879 598.8 879.8 598 881 C 594.2 883.5 590.7 881.5 586.7 881.1 C 581.3 879.9 576.3 878.8 570.8 878.1 C 563.1 876.2 555.8 874.3 548.5 871.1 C 541.5 867.9 534.7 865.4 528.1 862.4 C 526.5 861.7 524.8 861 523.3 859.3 z"/>
<path fill="#5f574f" opacity="1.000000" stroke="none" 
	d="M 630.9 875.1 C 630.8 877.4 629.3 878 627.4 878.5 C 625.4 880.1 623.6 879.3 622 878.8 C 617.1 877.4 612 876.4 607 874.2 C 605.4 872.4 603.8 871 604.1 868.3 C 613 870.2 621.8 872.6 630.9 875.1 z"/>
<path fill="#e3c1a4" opacity="1.000000" stroke="none" 
	d="M 446.6 856.8 C 447.1 857 447.3 857 447.7 857 C 457.6 859.1 466.4 863.5 475.7 866.6 C 481.8 868.6 487.8 871.1 493.6 873.9 C 496.6 875.3 498.9 877.3 499.6 881.1 C 500 882.5 499.8 883.4 499.7 884.8 C 500 886.2 500.2 887.3 500.6 888.7 C 498.4 891 495.9 890.1 493.6 889.5 C 482 886.3 470.1 883.8 459.1 878.6 C 458.5 878.3 457.9 878 457.2 878.6 C 456.6 878.5 457.4 879.2 457.3 878.6 C 460.4 878.7 462.7 879.6 462.3 883.7 C 460.4 886.3 461.7 888.5 462.1 891.1 C 450.4 888.3 438.7 885.2 427.2 881.3 C 422.1 879.5 418.4 876.3 416.5 871.1 C 414.7 865.7 412.7 860.5 411.9 854.4 C 412.4 853.5 413 853 413.6 853.1 C 424.5 854.2 435.6 852.7 446.6 856.8 z"/>
<path fill="#d3ab8a" opacity="1.000000" stroke="none" 
	d="M 446.8 856.7 C 443.9 857.5 441.1 856.4 438.1 856 C 429.7 854.8 421.2 855.6 412.4 854 C 409.6 850.6 410.5 846.4 409.1 842.4 C 412.6 841.5 415.6 844.1 419.6 844.1 C 427.2 849.3 435.8 850.2 444.5 852.1 C 445.5 853.5 446.1 855 446.8 856.7 z"/>
<path fill="#474f56" opacity="1.000000" stroke="none" 
	d="M 436.4 892.9 C 428 889.1 419.7 886 413.1 879.3 C 416.3 878.5 418 881.4 420.3 882.7 C 430.5 888.6 442 890.9 453.1 894 C 455 894.6 457 894.8 458.8 896.4 C 459 896.9 459 897.2 459 897.7 C 451.2 897.7 444.3 894.1 436.4 892.9 z"/>
<path fill="#373e45" opacity="1.000000" stroke="none" 
	d="M 411.2 876.2 C 410.6 874.8 410.3 873.6 409.9 872.1 C 411.3 872.5 412.2 873.6 412.1 875.6 C 411.9 876.1 411.7 876.3 411.2 876.2 z"/>
<path fill="#474f56" opacity="1.000000" stroke="none" 
	d="M 411 876.3 C 411.2 876 411.3 876 411.8 876 C 412.9 876.6 413.1 877.4 413 878.7 C 411.7 878.7 411.3 877.8 411 876.3 z"/>
<path fill="#a5785f" opacity="1.000000" stroke="none" 
	d="M 462.4 884.1 C 462.6 880 458 880.2 456.3 876.8 C 471 881.6 485 886.9 500.2 889.1 C 501.2 891.7 502.2 894.5 498.6 896.3 C 488.1 894.8 478.1 892.5 468.3 888.2 C 466 887 465 884.6 462.4 884.1 z"/>
<path fill="#5f574f" opacity="1.000000" stroke="none" 
	d="M 468.1 888.3 C 477.9 890.4 487.9 892.5 497.9 896.1 C 497.9 897 497.6 897.7 497.2 898.6 C 490.6 897.5 484.1 896.1 477.7 894.8 C 475.9 894.4 474.1 894.2 471.8 893.9 C 470.3 892.1 469.2 890.4 468.1 888.3 z"/>
<path fill="#474f56" opacity="1.000000" stroke="none" 
	d="M 527.2 885.6 C 520.7 888 514.3 887 508 886.5 C 506.8 886.4 505.7 885.9 504.3 886.6 C 502.5 886.7 502 884.5 500 884.9 C 499 884.5 499 883.6 498.8 882.3 C 499.9 880.8 501.4 880.6 502.9 880.8 C 510.5 881.8 518.2 882.2 526.3 883.3 C 527.2 883.9 527.5 884.5 527.2 885.6 z"/>
<path fill="#5f574f" opacity="1.000000" stroke="none" 
	d="M 455.8 842.9 C 456.1 843 456 843.5 456 843.7 C 455.6 843.8 455.4 843.6 455.1 843.1 C 455.2 842.9 455.4 842.9 455.8 842.9 z"/>
<path fill="#a5785f" opacity="1.000000" stroke="none" 
	d="M 527.3 883.8 C 517.7 884.4 508.7 882.7 499.2 882 C 498.1 876.4 493.5 874.8 489.2 873.2 C 476.7 868.3 464.1 863.7 451.6 859 C 450.5 858.6 449.5 858.1 448.2 857.3 C 451.8 853.5 457 856.2 461.5 854 C 462.5 854 463 854.2 463.8 854.6 C 468.8 859.8 475 862.5 481.1 865.5 C 495.8 872.7 511.7 875.1 528.2 876.6 C 531.2 879.4 530.3 881.7 527.3 883.8 z"/>
<path fill="#e3c1a4" opacity="1.000000" stroke="none" 
	d="M 528.2 876.6 C 524.8 879.6 521.4 877.1 518.2 876.8 C 499.2 874.8 481.5 869.1 465.5 858.3 C 463.4 856.9 463.4 857 463.7 854.8 C 475.4 857.1 486.9 859.5 498.7 861.8 C 506.3 861.7 513.2 862.9 520 865 C 522.3 865.7 523.9 867.4 525.4 869.6 C 526.4 872.1 527.7 874 528.2 876.6 z"/>
<path fill="#1b1f25" opacity="1.000000" stroke="none" 
	d="M 539.7 878.8 C 542.4 881.5 544.7 884.1 547.3 886.9 C 547.7 890.5 545.7 888.5 544.5 888.3 C 539 887.1 533.7 884.5 527.4 885.9 C 527 885.5 526.9 885.1 526.9 884.3 C 528.7 882.1 529.6 880 528.4 877.2 C 527 875.2 525.4 873.6 524.9 871.1 C 530.2 872.4 534.9 875.5 539.7 878.8 z"/>
</svg>