<?xml version="1.0" standalone="no"?>
<svg xmlns="http://www.w3.org/2000/svg" version="1.2" baseProfile="tiny" width="720" height="720" viewBox="0 0 720 720">
<rect x="0" y="0" width="720" height="720" id="0" fill="rgb(219,211,206)" fill-opacity="1" />
<ellipse cx="386" cy="424" rx="137" ry="274" id="1" fill="rgb(169,118,82)" fill-opacity="0.501961" />
<ellipse cx="641" cy="211" rx="92" ry="424" id="2" fill="rgb(242,251,255)" fill-opacity="0.501961" />
<ellipse cx="45" cy="78" rx="259" ry="545" id="3" fill="rgb(254,255,255)" fill-opacity="0.501961" />
<ellipse cx="236" cy="539" rx="46" ry="106" id="4" fill="rgb(168,118,83)" fill-opacity="0.501961" />
<ellipse cx="515" cy="172" rx="40" ry="61" id="5" fill="rgb(118,82,58)" fill-opacity="0.501961" />
<ellipse cx="502" cy="25" rx="524" ry="69" id="6" fill="rgb(245,249,255)" fill-opacity="0.501961" />
<ellipse cx="517" cy="388" rx="52" ry="69" id="7" fill="rgb(243,253,255)" fill-opacity="0.501961" />
<polygon points="315,596 466,696 533,528" id="8" fill="rgb(159,119,92)" fill-opacity="0.501961" />
<ellipse cx="391" cy="339" rx="70" ry="63" id="9" fill="rgb(164,107,68)" fill-opacity="0.501961" />
<polygon points="579,720 288,614 0,718" id="10" fill="rgb(222,228,238)" fill-opacity="0.501961" />
<ellipse cx="269" cy="427" rx="49" ry="125" id="11" fill="rgb(211,190,170)" fill-opacity="0.501961" />
<ellipse cx="74" cy="334" rx="143" ry="420" id="12" fill="rgb(236,242,250)" fill-opacity="0.501961" />
<polygon points="178,632 250,532 295,605" id="13" fill="rgb(141,93,64)" fill-opacity="0.501961" />
<polygon points="410,154 451,165 399,190" id="14" fill="rgb(0,0,9)" fill-opacity="0.501961" />
<ellipse cx="496" cy="256" rx="59" ry="79" id="15" fill="rgb(215,180,148)" fill-opacity="0.501961" />
<polygon points="371,179 313,220 474,334" id="16" fill="rgb(167,110,77)" fill-opacity="0.501961" />
<polygon points="291,173 449,44 450,156" id="17" fill="rgb(190,170,159)" fill-opacity="0.501961" />
<ellipse cx="635" cy="587" rx="116" ry="159" id="18" fill="rgb(216,219,227)" fill-opacity="0.501961" />
<ellipse cx="321" cy="93" rx="12" ry="12" id="19" fill="rgb(92,40,7)" fill-opacity="0.501961" />
<ellipse cx="296" cy="255" rx="22" ry="65" id="20" fill="rgb(231,225,218)" fill-opacity="0.501961" />
<ellipse cx="518" cy="153" rx="30" ry="26" id="21" fill="rgb(82,77,78)" fill-opacity="0.501961" />
<polygon points="311,424 369,336 333,329" id="22" fill="rgb(126,74,48)" fill-opacity="0.501961" />
<polygon points="339,154 412,206 389,128" id="23" fill="rgb(222,221,222)" fill-opacity="0.501961" />
<ellipse cx="441" cy="62" rx="11" ry="9" id="24" fill="rgb(78,41,18)" fill-opacity="0.501961" />
<polygon points="296,388 223,406 259,367" id="25" fill="rgb(134,119,114)" fill-opacity="0.501961" />
<ellipse cx="504" cy="102" rx="63" ry="22" id="26" fill="rgb(246,250,255)" fill-opacity="0.501961" />
<ellipse cx="427" cy="623" rx="33" ry="29" id="27" fill="rgb(144,99,69)" fill-opacity="0.501961" />
<polygon points="512,478 671,437 488,310" id="28" fill="rgb(234,235,241)" fill-opacity="0.501961" />
<ellipse cx="460" cy="420" rx="36" ry="86" id="29" fill="rgb(200,181,167)" fill-opacity="0.501961" />
<ellipse cx="240" cy="163" rx="53" ry="127" id="30" fill="rgb(243,248,253)" fill-opacity="0.501961" />
<polygon points="338,628 362,520 375,579" id="31" fill="rgb(134,88,63)" fill-opacity="0.501961" />
<ellipse cx="252" cy="623" rx="91" ry="16" id="32" fill="rgb(181,166,160)" fill-opacity="0.501961" />
<ellipse cx="436" cy="312" rx="22" ry="21" id="33" fill="rgb(120,75,56)" fill-opacity="0.501961" />
<ellipse cx="495" cy="540" rx="32" ry="106" id="34" fill="rgb(198,171,153)" fill-opacity="0.501961" />
<ellipse cx="299" cy="517" rx="42" ry="53" id="35" fill="rgb(214,195,178)" fill-opacity="0.501961" />
<polygon points="493,166 544,151 548,171" id="36" fill="rgb(0,3,9)" fill-opacity="0.501961" />
<ellipse cx="371" cy="118" rx="9" ry="6" id="37" fill="rgb(0,0,0)" fill-opacity="0.501961" />
<ellipse cx="371" cy="277" rx="71" ry="33" id="38" fill="rgb(202,167,140)" fill-opacity="0.501961" />
<polygon points="362,621 437,691 484,676" id="39" fill="rgb(180,161,149)" fill-opacity="0.501961" />
<ellipse cx="550" cy="205" rx="15" ry="40" id="40" fill="rgb(221,206,196)" fill-opacity="0.501961" />
<polygon points="354,305 453,210 450,137" id="41" fill="rgb(193,146,112)" fill-opacity="0.501961" />
<polygon points="421,273 399,503 327,619" id="42" fill="rgb(180,142,112)" fill-opacity="0.501961" />
<polygon points="467,190 548,127 486,111" id="43" fill="rgb(172,156,148)" fill-opacity="0.501961" />
<ellipse cx="465" cy="109" rx="12" ry="59" id="44" fill="rgb(251,255,255)" fill-opacity="0.501961" />
<polygon points="445,193 328,219 432,217" id="45" fill="rgb(151,99,70)" fill-opacity="0.501961" />
<polygon points="410,121 430,45 284,73" id="46" fill="rgb(230,221,212)" fill-opacity="0.501961" />
<polygon points="294,179 337,59 343,220" id="47" fill="rgb(224,188,162)" fill-opacity="0.501961" />
<ellipse cx="328" cy="685" rx="92" ry="37" id="48" fill="rgb(219,218,220)" fill-opacity="0.501961" />
<ellipse cx="548" cy="148" rx="29" ry="8" id="49" fill="rgb(224,206,196)" fill-opacity="0.501961" />
<ellipse cx="433" cy="16" rx="147" ry="31" id="50" fill="rgb(245,249,252)" fill-opacity="0.501961" />
<polygon points="170,633 198,457 219,556" id="51" fill="rgb(214,195,180)" fill-opacity="0.501961" />
<polygon points="398,265 303,441 419,400" id="52" fill="rgb(195,148,112)" fill-opacity="0.501961" />
<ellipse cx="612" cy="152" rx="51" ry="135" id="53" fill="rgb(240,242,247)" fill-opacity="0.501961" />
<polygon points="433,162 399,165 420,191" id="54" fill="rgb(1,12,21)" fill-opacity="0.501961" />
<polygon points="233,568 215,620 295,594" id="55" fill="rgb(138,95,67)" fill-opacity="0.501961" />
<polygon points="474,376 452,315 570,140" id="56" fill="rgb(209,184,161)" fill-opacity="0.501961" />
<polygon points="388,220 365,174 355,207" id="57" fill="rgb(136,73,50)" fill-opacity="0.501961" />
<ellipse cx="499" cy="65" rx="54" ry="44" id="58" fill="rgb(242,244,246)" fill-opacity="0.501961" />
<ellipse cx="638" cy="502" rx="109" ry="79" id="59" fill="rgb(222,221,223)" fill-opacity="0.501961" />
<polygon points="241,325 392,274 244,387" id="60" fill="rgb(216,188,164)" fill-opacity="0.501961" />
<polygon points="255,497 237,520 263,582" id="61" fill="rgb(179,129,96)" fill-opacity="0.501961" />
<ellipse cx="76" cy="664" rx="102" ry="169" id="62" fill="rgb(228,229,234)" fill-opacity="0.501961" />
<ellipse cx="424" cy="107" rx="5" ry="6" id="63" fill="rgb(0,0,0)" fill-opacity="0.501961" />
<polygon points="526,166 467,207 514,262" id="64" fill="rgb(199,156,121)" fill-opacity="0.501961" />
<ellipse cx="393" cy="581" rx="15" ry="18" id="65" fill="rgb(212,187,163)" fill-opacity="0.501961" />
<polygon points="421,148 501,273 437,104" id="66" fill="rgb(219,191,169)" fill-opacity="0.501961" />
<polygon points="240,653 176,627 187,579" id="67" fill="rgb(186,170,161)" fill-opacity="0.501961" />
<ellipse cx="494" cy="143" rx="14" ry="7" id="68" fill="rgb(76,70,69)" fill-opacity="0.501961" />
<polygon points="463,196 468,144 500,201" id="69" fill="rgb(227,213,200)" fill-opacity="0.501961" />
<polygon points="482,385 720,106 618,481" id="70" fill="rgb(232,233,238)" fill-opacity="0.501961" />
<polygon points="267,371 232,395 295,370" id="71" fill="rgb(100,92,93)" fill-opacity="0.501961" />
<ellipse cx="265" cy="417" rx="31" ry="15" id="72" fill="rgb(223,211,200)" fill-opacity="0.501961" />
<polygon points="388,621 436,570 449,658" id="73" fill="rgb(149,104,76)" fill-opacity="0.501961" />
<polygon points="252,388 183,470 193,522" id="74" fill="rgb(219,209,200)" fill-opacity="0.501961" />
<polygon points="328,111 457,93 366,30" id="75" fill="rgb(230,224,219)" fill-opacity="0.501961" />
<ellipse cx="348" cy="600" rx="9" ry="23" id="76" fill="rgb(118,82,65)" fill-opacity="0.501961" />
<ellipse cx="285" cy="649" rx="55" ry="27" id="77" fill="rgb(214,206,207)" fill-opacity="0.501961" />
<ellipse cx="338" cy="365" rx="7" ry="25" id="78" fill="rgb(92,54,40)" fill-opacity="0.501961" />
<polygon points="460,292 411,372 412,289" id="79" fill="rgb(147,96,70)" fill-opacity="0.501961" />
<polygon points="310,251 268,277 310,128" id="80" fill="rgb(225,219,213)" fill-opacity="0.501961" />
<polygon points="313,104 309,86 326,89" id="81" fill="rgb(52,38,33)" fill-opacity="0.501961" />
<ellipse cx="418" cy="191" rx="7" ry="7" id="82" fill="rgb(231,225,220)" fill-opacity="0.501961" />
<polygon points="327,117 303,81 309,114" id="83" fill="rgb(201,165,139)" fill-opacity="0.501961" />
<ellipse cx="160" cy="39" rx="183" ry="68" id="84" fill="rgb(238,238,241)" fill-opacity="0.501961" />
<polygon points="484,541 496,444 349,629" id="85" fill="rgb(188,159,135)" fill-opacity="0.501961" />
<ellipse cx="402" cy="196" rx="18" ry="11" id="86" fill="rgb(220,205,194)" fill-opacity="0.501961" />
<ellipse cx="360" cy="336" rx="19" ry="23" id="87" fill="rgb(158,101,75)" fill-opacity="0.501961" />
<polygon points="535,332 548,223 391,232" id="88" fill="rgb(209,183,160)" fill-opacity="0.501961" />
<polygon points="331,322 317,452 288,311" id="89" fill="rgb(202,159,124)" fill-opacity="0.501961" />
<polygon points="561,134 551,235 526,216" id="90" fill="rgb(210,193,180)" fill-opacity="0.501961" />
<ellipse cx="290" cy="385" rx="18" ry="54" id="91" fill="rgb(213,191,173)" fill-opacity="0.501961" />
<polygon points="496,720 720,405 507,576" id="92" fill="rgb(215,214,216)" fill-opacity="0.501961" />
<ellipse cx="361" cy="414" rx="21" ry="40" id="93" fill="rgb(203,173,142)" fill-opacity="0.501961" />
<polygon points="283,452 233,419 284,519" id="94" fill="rgb(198,160,131)" fill-opacity="0.501961" />
<polygon points="473,189 499,136 511,156" id="95" fill="rgb(207,181,164)" fill-opacity="0.501961" />
<ellipse cx="256" cy="344" rx="32" ry="28" id="96" fill="rgb(220,206,192)" fill-opacity="0.501961" />
<ellipse cx="648" cy="76" rx="107" ry="127" id="97" fill="rgb(237,237,241)" fill-opacity="0.501961" />
<polygon points="339,335 315,192 292,320" id="98" fill="rgb(206,180,161)" fill-opacity="0.501961" />
<ellipse cx="425" cy="161" rx="6" ry="6" id="99" fill="rgb(6,8,14)" fill-opacity="0.501961" />
<polygon points="334,626 269,600 353,591" id="100" fill="rgb(178,146,126)" fill-opacity="0.501961" />
<ellipse cx="515" cy="133" rx="15" ry="6" id="101" fill="rgb(68,60,59)" fill-opacity="0.501961" />
<ellipse cx="693" cy="607" rx="44" ry="63" id="102" fill="rgb(223,226,231)" fill-opacity="0.501961" />
<ellipse cx="528" cy="158" rx="16" ry="5" id="103" fill="rgb(17,17,19)" fill-opacity="0.501961" />
<ellipse cx="524" cy="177" rx="24" ry="7" id="104" fill="rgb(180,162,152)" fill-opacity="0.501961" />
<polygon points="533,634 450,700 511,584" id="105" fill="rgb(198,187,185)" fill-opacity="0.501961" />
<polygon points="429,63 444,51 436,75" id="106" fill="rgb(80,58,49)" fill-opacity="0.501961" />
<ellipse cx="549" cy="683" rx="61" ry="30" id="107" fill="rgb(222,225,229)" fill-opacity="0.501961" />
<ellipse cx="105" cy="691" rx="43" ry="34" id="108" fill="rgb(220,218,219)" fill-opacity="0.501961" />
<ellipse cx="398" cy="651" rx="27" ry="15" id="109" fill="rgb(193,178,171)" fill-opacity="0.501961" />
<polygon points="529,152 544,119 526,104" id="110" fill="rgb(194,182,178)" fill-opacity="0.501961" />
<ellipse cx="393" cy="386" rx="49" ry="19" id="111" fill="rgb(195,156,124)" fill-opacity="0.501961" />
<ellipse cx="670" cy="712" rx="49" ry="43" id="112" fill="rgb(201,204,206)" fill-opacity="0.501961" />
<polygon points="314,133 381,139 306,214" id="113" fill="rgb(216,184,162)" fill-opacity="0.501961" />
<ellipse cx="151" cy="523" rx="41" ry="79" id="114" fill="rgb(232,232,235)" fill-opacity="0.501961" />
<ellipse cx="570" cy="278" rx="24" ry="68" id="115" fill="rgb(237,238,241)" fill-opacity="0.501961" />
<polygon points="277,466 290,415 318,523" id="116" fill="rgb(217,200,184)" fill-opacity="0.501961" />
<polygon points="549,136 544,127 541,141" id="117" fill="rgb(41,40,51)" fill-opacity="0.501961" />
<ellipse cx="210" cy="408" rx="27" ry="16" id="118" fill="rgb(235,236,239)" fill-opacity="0.501961" />
<ellipse cx="172" cy="226" rx="98" ry="132" id="119" fill="rgb(241,242,246)" fill-opacity="0.501961" />
<ellipse cx="535" cy="460" rx="31" ry="24" id="120" fill="rgb(215,209,207)" fill-opacity="0.501961" />
<ellipse cx="469" cy="411" rx="28" ry="45" id="121" fill="rgb(203,188,179)" fill-opacity="0.501961" />
<polygon points="453,666 447,632 417,649" id="122" fill="rgb(146,95,65)" fill-opacity="0.501961" />
<polygon points="387,202 411,143 358,122" id="123" fill="rgb(207,202,204)" fill-opacity="0.501961" />
<polygon points="395,337 375,460 393,470" id="124" fill="rgb(165,128,99)" fill-opacity="0.501961" />
<ellipse cx="400" cy="516" rx="25" ry="21" id="125" fill="rgb(175,148,126)" fill-opacity="0.501961" />
<ellipse cx="500" cy="214" rx="17" ry="10" id="126" fill="rgb(178,125,87)" fill-opacity="0.501961" />
<polygon points="465,511 442,693 480,536" id="127" fill="rgb(177,139,114)" fill-opacity="0.501961" />
<polygon points="230,405 235,378 278,396" id="128" fill="rgb(181,164,155)" fill-opacity="0.501961" />
<ellipse cx="529" cy="309" rx="14" ry="11" id="129" fill="rgb(193,157,133)" fill-opacity="0.501961" />
<polygon points="457,50 435,77 448,85" id="130" fill="rgb(202,166,142)" fill-opacity="0.501961" />
<polygon points="506,441 489,340 643,287" id="131" fill="rgb(234,235,237)" fill-opacity="0.501961" />
<polygon points="308,445 358,575 369,385" id="132" fill="rgb(201,174,148)" fill-opacity="0.501961" />
<polygon points="401,123 393,158 432,157" id="133" fill="rgb(176,172,180)" fill-opacity="0.501961" />
<ellipse cx="332" cy="230" rx="19" ry="15" id="134" fill="rgb(179,137,109)" fill-opacity="0.501961" />
<ellipse cx="566" cy="506" rx="35" ry="41" id="135" fill="rgb(229,228,229)" fill-opacity="0.501961" />
<ellipse cx="221" cy="579" rx="12" ry="15" id="136" fill="rgb(190,155,128)" fill-opacity="0.501961" />
<polygon points="297,410 315,427 414,321" id="137" fill="rgb(187,138,101)" fill-opacity="0.501961" />
<polygon points="233,540 166,615 240,497" id="138" fill="rgb(213,190,174)" fill-opacity="0.501961" />
<polygon points="513,155 487,180 523,166" id="139" fill="rgb(6,9,13)" fill-opacity="0.501961" />
<polygon points="407,358 454,308 451,366" id="140" fill="rgb(176,130,96)" fill-opacity="0.501961" />
<ellipse cx="506" cy="137" rx="4" ry="7" id="141" fill="rgb(32,27,29)" fill-opacity="0.501961" />
<polygon points="512,135 494,116 535,122" id="142" fill="rgb(192,172,160)" fill-opacity="0.501961" />
<polygon points="507,441 531,534 496,528" id="143" fill="rgb(207,179,157)" fill-opacity="0.501961" />
<ellipse cx="281" cy="377" rx="4" ry="14" id="144" fill="rgb(146,132,127)" fill-opacity="0.501961" />
<ellipse cx="448" cy="680" rx="15" ry="6" id="145" fill="rgb(161,144,133)" fill-opacity="0.501961" />
<polygon points="275,371 273,401 408,517" id="146" fill="rgb(205,173,144)" fill-opacity="0.501961" />
<ellipse cx="382" cy="290" rx="15" ry="72" id="147" fill="rgb(183,135,105)" fill-opacity="0.501961" />
<ellipse cx="719" cy="495" rx="77" ry="83" id="148" fill="rgb(219,220,223)" fill-opacity="0.501961" />
<ellipse cx="441" cy="141" rx="10" ry="43" id="149" fill="rgb(216,183,161)" fill-opacity="0.501961" />
<ellipse cx="224" cy="501" rx="7" ry="16" id="150" fill="rgb(182,129,91)" fill-opacity="0.501961" />
<ellipse cx="399" cy="179" rx="8" ry="7" id="151" fill="rgb(144,135,137)" fill-opacity="0.501961" />
<polygon points="475,144 525,107 482,117" id="152" fill="rgb(198,182,176)" fill-opacity="0.501961" />
<polygon points="557,254 468,335 483,353" id="153" fill="rgb(210,200,194)" fill-opacity="0.501961" />
<ellipse cx="598" cy="393" rx="85" ry="63" id="154" fill="rgb(230,231,233)" fill-opacity="0.501961" />
<polygon points="238,640 168,604 182,638" id="155" fill="rgb(173,163,163)" fill-opacity="0.501961" />
<ellipse cx="523" cy="187" rx="19" ry="13" id="156" fill="rgb(173,141,123)" fill-opacity="0.501961" />
<ellipse cx="450" cy="599" rx="12" ry="45" id="157" fill="rgb(172,131,104)" fill-opacity="0.501961" />
<ellipse cx="469" cy="235" rx="12" ry="21" id="158" fill="rgb(220,198,179)" fill-opacity="0.501961" />
<polygon points="410,662 158,636 457,720" id="159" fill="rgb(216,212,213)" fill-opacity="0.501961" />
<ellipse cx="376" cy="217" rx="36" ry="11" id="160" fill="rgb(165,115,85)" fill-opacity="0.501961" />
<polygon points="298,375 254,343 313,362" id="161" fill="rgb(220,210,202)" fill-opacity="0.501961" />
<ellipse cx="439" cy="52" rx="16" ry="5" id="162" fill="rgb(205,180,161)" fill-opacity="0.501961" />
<polygon points="358,198 321,119 322,209" id="163" fill="rgb(213,175,150)" fill-opacity="0.501961" />
<polygon points="562,172 541,147 554,123" id="164" fill="rgb(206,189,179)" fill-opacity="0.501961" />
<ellipse cx="541" cy="258" rx="15" ry="20" id="165" fill="rgb(210,202,199)" fill-opacity="0.501961" />
<polygon points="310,635 349,624 389,652" id="166" fill="rgb(186,177,177)" fill-opacity="0.501961" />
<polygon points="356,347 356,453 346,354" id="167" fill="rgb(207,170,140)" fill-opacity="0.501961" />
<polygon points="240,634 196,625 277,597" id="168" fill="rgb(173,142,118)" fill-opacity="0.501961" />
<ellipse cx="483" cy="159" rx="5" ry="4" id="169" fill="rgb(0,4,13)" fill-opacity="0.501961" />
<polygon points="263,553 249,465 236,565" id="170" fill="rgb(189,151,125)" fill-opacity="0.501961" />
<polygon points="266,614 329,640 205,666" id="171" fill="rgb(212,204,204)" fill-opacity="0.501961" />
<polygon points="324,228 376,302 469,291" id="172" fill="rgb(192,151,123)" fill-opacity="0.501961" />
<polygon points="471,467 409,436 443,574" id="173" fill="rgb(192,169,152)" fill-opacity="0.501961" />
<polygon points="485,561 472,614 458,572" id="174" fill="rgb(204,177,156)" fill-opacity="0.501961" />
<polygon points="432,169 422,183 402,161" id="175" fill="rgb(28,28,29)" fill-opacity="0.501961" />
<polygon points="381,617 329,617 383,642" id="176" fill="rgb(158,134,124)" fill-opacity="0.501961" />
<ellipse cx="191" cy="548" rx="11" ry="20" id="177" fill="rgb(229,225,223)" fill-opacity="0.501961" />
<ellipse cx="642" cy="49" rx="144" ry="98" id="178" fill="rgb(236,238,241)" fill-opacity="0.501961" />
<ellipse cx="383" cy="59" rx="48" ry="19" id="179" fill="rgb(231,220,211)" fill-opacity="0.501961" />
<ellipse cx="314" cy="575" rx="24" ry="25" id="180" fill="rgb(204,175,151)" fill-opacity="0.501961" />
<polygon points="223,468 195,501 201,571" id="181" fill="rgb(213,180,155)" fill-opacity="0.501961" />
<ellipse cx="38" cy="719" rx="15" ry="13" id="182" fill="rgb(213,202,195)" fill-opacity="0.501961" />
<polygon points="209,368 248,312 229,437" id="183" fill="rgb(224,217,213)" fill-opacity="0.501961" />
<polygon points="400,219 433,205 434,188" id="184" fill="rgb(149,103,75)" fill-opacity="0.501961" />
<polygon points="369,319 408,215 462,212" id="185" fill="rgb(193,152,125)" fill-opacity="0.501961" />
<polygon points="347,344 339,341 332,380" id="186" fill="rgb(75,45,36)" fill-opacity="0.501961" />
<polygon points="474,173 515,129 521,141" id="187" fill="rgb(181,156,143)" fill-opacity="0.501961" />
<polygon points="355,498 338,597 378,520" id="188" fill="rgb(183,148,125)" fill-opacity="0.501961" />
<polygon points="720,378 605,387 630,200" id="189" fill="rgb(227,228,232)" fill-opacity="0.501961" />
<polygon points="247,336 285,304 257,364" id="190" fill="rgb(218,186,156)" fill-opacity="0.501961" />
<polygon points="462,0 448,124 491,117" id="191" fill="rgb(240,241,244)" fill-opacity="0.501961" />
<ellipse cx="489" cy="145" rx="4" ry="7" id="192" fill="rgb(0,0,0)" fill-opacity="0.501961" />
<polygon points="312,610 332,599 328,619" id="193" fill="rgb(158,122,102)" fill-opacity="0.501961" />
<polygon points="347,75 303,84 299,92" id="194" fill="rgb(213,193,176)" fill-opacity="0.501961" />
<polygon points="296,327 331,343 326,369" id="195" fill="rgb(183,134,105)" fill-opacity="0.501961" />
<polygon points="175,636 174,625 205,605" id="196" fill="rgb(218,210,206)" fill-opacity="0.501961" />
<polygon points="419,586 349,624 411,611" id="197" fill="rgb(183,145,116)" fill-opacity="0.501961" />
<polygon points="285,430 233,423 248,380" id="198" fill="rgb(212,200,192)" fill-opacity="0.501961" />
<polygon points="432,175 439,131 450,182" id="199" fill="rgb(210,172,145)" fill-opacity="0.501961" />
<polygon points="523,504 448,667 484,651" id="200" fill="rgb(188,157,135)" fill-opacity="0.501961" />
<polygon points="394,606 372,561 362,556" id="201" fill="rgb(159,108,79)" fill-opacity="0.501961" />
<ellipse cx="293" cy="536" rx="10" ry="46" id="202" fill="rgb(212,193,181)" fill-opacity="0.501961" />
<polygon points="292,596 265,539 242,580" id="203" fill="rgb(175,132,103)" fill-opacity="0.501961" />
<ellipse cx="700" cy="237" rx="28" ry="97" id="204" fill="rgb(231,233,240)" fill-opacity="0.501961" />
<ellipse cx="390" cy="158" rx="16" ry="16" id="205" fill="rgb(211,205,205)" fill-opacity="0.501961" />
<ellipse cx="337" cy="126" rx="9" ry="24" id="206" fill="rgb(222,211,203)" fill-opacity="0.501961" />
<ellipse cx="264" cy="292" rx="13" ry="20" id="207" fill="rgb(234,233,231)" fill-opacity="0.501961" />
<polygon points="256,122 363,32 296,26" id="208" fill="rgb(243,245,247)" fill-opacity="0.501961" />
<ellipse cx="242" cy="427" rx="15" ry="14" id="209" fill="rgb(212,189,171)" fill-opacity="0.501961" />
<polygon points="452,554 375,615 400,516" id="210" fill="rgb(195,166,142)" fill-opacity="0.501961" />
<polygon points="468,168 454,147 484,110" id="211" fill="rgb(243,246,251)" fill-opacity="0.501961" />
<polygon points="334,316 327,337 443,285" id="212" fill="rgb(184,134,103)" fill-opacity="0.501961" />
<ellipse cx="595" cy="510" rx="32" ry="9" id="213" fill="rgb(211,207,209)" fill-opacity="0.501961" />
<polygon points="393,594 386,545 377,551" id="214" fill="rgb(214,193,173)" fill-opacity="0.501961" />
<polygon points="371,112 424,117 425,153" id="215" fill="rgb(199,194,200)" fill-opacity="0.501961" />
<polygon points="325,87 318,113 328,105" id="216" fill="rgb(177,122,91)" fill-opacity="0.501961" />
<polygon points="453,269 460,319 527,313" id="217" fill="rgb(209,173,143)" fill-opacity="0.501961" />
<ellipse cx="258" cy="458" rx="22" ry="30" id="218" fill="rgb(197,165,141)" fill-opacity="0.501961" />
<polygon points="259,314 284,313 313,170" id="219" fill="rgb(224,213,204)" fill-opacity="0.501961" />
<polygon points="352,621 351,579 358,610" id="220" fill="rgb(95,63,49)" fill-opacity="0.501961" />
<polygon points="486,662 475,691 424,669" id="221" fill="rgb(190,173,160)" fill-opacity="0.501961" />
<ellipse cx="484" cy="276" rx="46" ry="15" id="222" fill="rgb(209,174,144)" fill-opacity="0.501961" />
<polygon points="434,113 415,53 437,70" id="223" fill="rgb(224,215,208)" fill-opacity="0.501961" />
<polygon points="417,348 430,298 454,299" id="224" fill="rgb(121,80,61)" fill-opacity="0.501961" />
<polygon points="490,507 483,486 479,486" id="225" fill="rgb(145,109,90)" fill-opacity="0.501961" />
<polygon points="563,164 524,216 555,218" id="226" fill="rgb(215,199,185)" fill-opacity="0.501961" />
<polygon points="342,248 385,278 314,343" id="227" fill="rgb(196,165,141)" fill-opacity="0.501961" />
<polygon points="489,166 479,131 481,148" id="228" fill="rgb(211,195,182)" fill-opacity="0.501961" />
<polygon points="334,340 343,317 369,354" id="229" fill="rgb(141,95,74)" fill-opacity="0.501961" />
<polygon points="374,417 349,476 466,343" id="230" fill="rgb(192,158,129)" fill-opacity="0.501961" />
<polygon points="394,177 421,146 407,130" id="231" fill="rgb(176,166,166)" fill-opacity="0.501961" />
<polygon points="667,651 626,720 601,588" id="232" fill="rgb(211,213,214)" fill-opacity="0.501961" />
<polygon points="379,124 370,124 369,114" id="233" fill="rgb(36,31,36)" fill-opacity="0.501961" />
<polygon points="400,103 353,115 377,113" id="234" fill="rgb(185,172,166)" fill-opacity="0.501961" />
<polygon points="411,291 405,356 427,379" id="235" fill="rgb(176,121,86)" fill-opacity="0.501961" />
<polygon points="433,625 451,656 425,641" id="236" fill="rgb(123,80,59)" fill-opacity="0.501961" />
<polygon points="518,128 509,105 506,126" id="237" fill="rgb(171,144,130)" fill-opacity="0.501961" />
<polygon points="189,599 222,586 225,541" id="238" fill="rgb(193,158,132)" fill-opacity="0.501961" />
<polygon points="437,698 410,680 480,691" id="239" fill="rgb(206,200,202)" fill-opacity="0.501961" />
<polygon points="581,461 699,371 705,414" id="240" fill="rgb(236,237,243)" fill-opacity="0.501961" />
<ellipse cx="706" cy="710" rx="23" ry="10" id="241" fill="rgb(194,193,197)" fill-opacity="0.501961" />
<polygon points="232,381 246,388 242,401" id="242" fill="rgb(120,105,100)" fill-opacity="0.501961" />
<polygon points="220,603 239,616 254,588" id="243" fill="rgb(137,89,60)" fill-opacity="0.501961" />
<polygon points="495,148 503,125 491,109" id="244" fill="rgb(186,168,159)" fill-opacity="0.501961" />
<polygon points="501,631 488,665 549,666" id="245" fill="rgb(218,215,217)" fill-opacity="0.501961" />
<polygon points="677,453 720,438 720,392" id="246" fill="rgb(212,211,214)" fill-opacity="0.501961" />
<ellipse cx="16" cy="660" rx="48" ry="51" id="247" fill="rgb(231,233,238)" fill-opacity="0.501961" />
<ellipse cx="300" cy="152" rx="6" ry="68" id="248" fill="rgb(227,219,213)" fill-opacity="0.501961" />
<polygon points="375,576 372,564 345,588" id="249" fill="rgb(144,94,67)" fill-opacity="0.501961" />
<polygon points="207,436 181,536 245,401" id="250" fill="rgb(221,211,203)" fill-opacity="0.501961" />
<ellipse cx="373" cy="487" rx="47" ry="13" id="251" fill="rgb(187,165,147)" fill-opacity="0.501961" />
<polygon points="626,101 405,2 515,111" id="252" fill="rgb(240,241,243)" fill-opacity="0.501961" />
<polygon points="304,396 231,402 316,371" id="253" fill="rgb(198,169,145)" fill-opacity="0.501961" />
<ellipse cx="283" cy="174" rx="14" ry="42" id="254" fill="rgb(244,245,248)" fill-opacity="0.501961" />
<ellipse cx="491" cy="223" rx="18" ry="9" id="255" fill="rgb(208,169,132)" fill-opacity="0.501961" />
<ellipse cx="423" cy="649" rx="4" ry="14" id="256" fill="rgb(180,143,111)" fill-opacity="0.501961" />
<polygon points="315,388 346,361 343,394" id="257" fill="rgb(160,107,75)" fill-opacity="0.501961" />
<ellipse cx="206" cy="91" rx="93" ry="117" id="258" fill="rgb(239,240,243)" fill-opacity="0.501961" />
<ellipse cx="281" cy="613" rx="17" ry="10" id="259" fill="rgb(193,177,172)" fill-opacity="0.501961" />
<polygon points="320,606 361,538 360,565" id="260" fill="rgb(196,161,135)" fill-opacity="0.501961" />
<polygon points="505,615 527,547 494,596" id="261" fill="rgb(204,187,177)" fill-opacity="0.501961" />
<ellipse cx="216" cy="613" rx="5" ry="11" id="262" fill="rgb(209,173,145)" fill-opacity="0.501961" />
<polygon points="473,397 484,302 501,421" id="263" fill="rgb(210,202,199)" fill-opacity="0.501961" />
<ellipse cx="434" cy="494" rx="18" ry="11" id="264" fill="rgb(198,181,169)" fill-opacity="0.501961" />
<ellipse cx="177" cy="47" rx="37" ry="32" id="265" fill="rgb(234,236,237)" fill-opacity="0.501961" />
<ellipse cx="391" cy="132" rx="19" ry="16" id="266" fill="rgb(203,195,196)" fill-opacity="0.501961" />
<ellipse cx="498" cy="321" rx="28" ry="7" id="267" fill="rgb(207,186,169)" fill-opacity="0.501961" />
<polygon points="532,177 526,165 510,180" id="268" fill="rgb(149,141,140)" fill-opacity="0.501961" />
<ellipse cx="322" cy="384" rx="5" ry="42" id="269" fill="rgb(183,134,100)" fill-opacity="0.501961" />
<ellipse cx="593" cy="468" rx="61" ry="10" id="270" fill="rgb(218,215,216)" fill-opacity="0.501961" />
<polygon points="429,190 437,176 444,208" id="271" fill="rgb(183,136,105)" fill-opacity="0.501961" />
<polygon points="468,571 454,554 418,634" id="272" fill="rgb(174,130,100)" fill-opacity="0.501961" />
<polygon points="613,571 598,676 515,585" id="273" fill="rgb(220,221,222)" fill-opacity="0.501961" />
<polygon points="457,49 441,88 446,143" id="274" fill="rgb(216,203,194)" fill-opacity="0.501961" />
<ellipse cx="375" cy="210" rx="5" ry="17" id="275" fill="rgb(127,80,61)" fill-opacity="0.501961" />
<polygon points="374,110 381,118 384,113" id="276" fill="rgb(143,131,125)" fill-opacity="0.501961" />
<polygon points="495,152 492,161 472,147" id="277" fill="rgb(195,178,168)" fill-opacity="0.501961" />
<polygon points="348,87 336,58 314,81" id="278" fill="rgb(228,209,193)" fill-opacity="0.501961" />
<polygon points="536,113 527,118 524,113" id="279" fill="rgb(137,120,117)" fill-opacity="0.501961" />
<polygon points="518,306 536,290 506,292" id="280" fill="rgb(221,217,215)" fill-opacity="0.501961" />
<ellipse cx="526" cy="528" rx="5" ry="32" id="281" fill="rgb(205,189,181)" fill-opacity="0.501961" />
<polygon points="538,610 486,641 553,646" id="282" fill="rgb(208,202,202)" fill-opacity="0.501961" />
<ellipse cx="514" cy="150" rx="22" ry="4" id="283" fill="rgb(156,124,106)" fill-opacity="0.501961" />
<polygon points="686,720 414,720 479,678" id="284" fill="rgb(219,220,221)" fill-opacity="0.501961" />
<ellipse cx="281" cy="369" rx="3" ry="4" id="285" fill="rgb(42,34,38)" fill-opacity="0.501961" />
<ellipse cx="173" cy="691" rx="44" ry="49" id="286" fill="rgb(226,227,229)" fill-opacity="0.501961" />
<polygon points="535,132 538,140 516,148" id="287" fill="rgb(201,184,173)" fill-opacity="0.501961" />
<ellipse cx="229" cy="369" rx="9" ry="33" id="288" fill="rgb(224,217,213)" fill-opacity="0.501961" />
<polygon points="402,643 357,611 427,635" id="289" fill="rgb(165,131,109)" fill-opacity="0.501961" />
<ellipse cx="414" cy="79" rx="16" ry="17" id="290" fill="rgb(231,229,229)" fill-opacity="0.501961" />
<ellipse cx="265" cy="484" rx="28" ry="23" id="291" fill="rgb(202,171,148)" fill-opacity="0.501961" />
<polygon points="401,311 389,291 391,279" id="292" fill="rgb(164,122,102)" fill-opacity="0.501961" />
<polygon points="393,225 426,217 390,203" id="293" fill="rgb(184,136,105)" fill-opacity="0.501961" />
<polygon points="351,231 401,248 349,192" id="294" fill="rgb(180,127,97)" fill-opacity="0.501961" />
<polygon points="324,220 303,220 318,207" id="295" fill="rgb(220,188,162)" fill-opacity="0.501961" />
<ellipse cx="537" cy="168" rx="8" ry="4" id="296" fill="rgb(23,25,29)" fill-opacity="0.501961" />
<polygon points="547,129 531,116 531,128" id="297" fill="rgb(200,188,184)" fill-opacity="0.501961" />
<polygon points="199,568 186,561 159,630" id="298" fill="rgb(216,211,209)" fill-opacity="0.501961" />
<ellipse cx="412" cy="181" rx="6" ry="6" id="299" fill="rgb(64,63,65)" fill-opacity="0.501961" />
<polygon points="507,190 444,209 513,171" id="300" fill="rgb(207,183,163)" fill-opacity="0.501961" />
<polygon points="318,134 355,133 333,87" id="301" fill="rgb(219,203,191)" fill-opacity="0.501961" />
<ellipse cx="382" cy="160" rx="7" ry="22" id="302" fill="rgb(225,218,214)" fill-opacity="0.501961" />
<polygon points="258,381 251,377 261,388" id="303" fill="rgb(58,45,43)" fill-opacity="0.501961" />
<polygon points="457,376 523,479 527,552" id="304" fill="rgb(206,181,165)" fill-opacity="0.501961" />
<polygon points="305,442 332,450 298,383" id="305" fill="rgb(205,165,129)" fill-opacity="0.501961" />
<ellipse cx="318" cy="93" rx="6" ry="5" id="306" fill="rgb(22,17,19)" fill-opacity="0.501961" />
<ellipse cx="350" cy="652" rx="14" ry="21" id="307" fill="rgb(208,199,199)" fill-opacity="0.501961" />
<ellipse cx="352" cy="596" rx="4" ry="23" id="308" fill="rgb(110,77,62)" fill-opacity="0.501961" />
<polygon points="472,338 464,305 439,350" id="309" fill="rgb(195,157,129)" fill-opacity="0.501961" />
<ellipse cx="438" cy="258" rx="14" ry="22" id="310" fill="rgb(209,180,158)" fill-opacity="0.501961" />
<ellipse cx="171" cy="485" rx="21" ry="18" id="311" fill="rgb(227,227,228)" fill-opacity="0.501961" />
<polygon points="438,368 480,388 433,463" id="312" fill="rgb(202,180,163)" fill-opacity="0.501961" />
<polygon points="307,108 412,200 342,155" id="313" fill="rgb(219,206,196)" fill-opacity="0.501961" />
<polygon points="515,539 494,546 490,560" id="314" fill="rgb(173,127,97)" fill-opacity="0.501961" />
<ellipse cx="677" cy="68" rx="59" ry="95" id="315" fill="rgb(235,235,240)" fill-opacity="0.501961" />
<ellipse cx="393" cy="341" rx="3" ry="26" id="316" fill="rgb(153,115,97)" fill-opacity="0.501961" />
<polygon points="526,207 505,195 553,243" id="317" fill="rgb(215,189,167)" fill-opacity="0.501961" />
<polygon points="162,594 197,598 202,622" id="318" fill="rgb(212,199,190)" fill-opacity="0.501961" />
<polygon points="720,374 618,352 638,331" id="319" fill="rgb(221,220,222)" fill-opacity="0.501961" />
<polygon points="546,198 558,165 520,179" id="320" fill="rgb(194,169,153)" fill-opacity="0.501961" />
<ellipse cx="209" cy="604" rx="7" ry="6" id="321" fill="rgb(158,101,71)" fill-opacity="0.501961" />
<polygon points="502,62 467,162 448,81" id="322" fill="rgb(242,243,245)" fill-opacity="0.501961" />
<polygon points="612,562 531,531 512,591" id="323" fill="rgb(217,211,211)" fill-opacity="0.501961" />
<polygon points="401,486 491,474 396,439" id="324" fill="rgb(188,164,145)" fill-opacity="0.501961" />
<polygon points="199,617 187,621 202,626" id="325" fill="rgb(141,127,115)" fill-opacity="0.501961" />
<polygon points="233,452 261,434 240,453" id="326" fill="rgb(161,134,115)" fill-opacity="0.501961" />
<polygon points="82,664 77,689 135,716" id="327" fill="rgb(216,213,212)" fill-opacity="0.501961" />
<polygon points="236,501 201,500 215,547" id="328" fill="rgb(205,165,135)" fill-opacity="0.501961" />
<polygon points="380,155 342,113 342,150" id="329" fill="rgb(208,185,169)" fill-opacity="0.501961" />
<polygon points="319,350 280,393 303,410" id="330" fill="rgb(208,175,149)" fill-opacity="0.501961" />
<polygon points="467,152 476,168 480,142" id="331" fill="rgb(199,184,175)" fill-opacity="0.501961" />
<polygon points="433,62 430,54 424,65" id="332" fill="rgb(194,160,138)" fill-opacity="0.501961" />
<polygon points="215,562 228,587 241,553" id="333" fill="rgb(169,128,106)" fill-opacity="0.501961" />
<polygon points="215,474 234,480 224,430" id="334" fill="rgb(209,192,179)" fill-opacity="0.501961" />
<ellipse cx="420" cy="236" rx="31" ry="11" id="335" fill="rgb(200,165,139)" fill-opacity="0.501961" />
<ellipse cx="54" cy="444" rx="111" ry="86" id="336" fill="rgb(235,236,241)" fill-opacity="0.501961" />
<ellipse cx="504" cy="142" rx="3" ry="2" id="337" fill="rgb(26,36,47)" fill-opacity="0.501961" />
<polygon points="276,315 301,317 317,376" id="338" fill="rgb(206,162,130)" fill-opacity="0.501961" />
<polygon points="230,610 224,614 219,589" id="339" fill="rgb(128,79,53)" fill-opacity="0.501961" />
<polygon points="238,341 245,326 292,389" id="340" fill="rgb(221,201,183)" fill-opacity="0.501961" />
<polygon points="423,342 417,311 443,363" id="341" fill="rgb(157,110,83)" fill-opacity="0.501961" />
</svg>