
<?xml version="1.0" standalone="no"?>
<svg xmlns="http://www.w3.org/2000/svg" version="1.2" baseProfile="tiny" width="480" height="720" viewBox="0 0 480 720">
<rect x="0" y="0" width="480" height="720" id="0" fill="rgb(215,204,197)" fill-opacity="1" />
<polygon points="63,581 314,57 389,649" id="1" fill="rgb(164,112,75)" fill-opacity="0.501961" />
<polygon points="259,0 0,0 0,720" id="2" fill="rgb(255,255,255)" fill-opacity="0.501961" />
<polygon points="480,180 213,0 480,0" id="3" fill="rgb(255,255,255)" fill-opacity="0.501961" />
<polygon points="432,137 364,299 360,120" id="4" fill="rgb(124,89,63)" fill-opacity="0.501961" />
<polygon points="478,720 480,44 375,394" id="5" fill="rgb(240,250,255)" fill-opacity="0.501961" />
<polygon points="431,290 207,416 196,145" id="6" fill="rgb(184,134,99)" fill-opacity="0.501961" />
<polygon points="344,178 424,0 78,0" id="7" fill="rgb(239,243,248)" fill-opacity="0.501961" />
<polygon points="427,168 367,179 390,153" id="8" fill="rgb(0,0,0)" fill-opacity="0.501961" />
<polygon points="21,720 98,548 0,73" id="9" fill="rgb(236,242,253)" fill-opacity="0.501961" />
<polygon points="420,539 285,720 480,720" id="10" fill="rgb(221,229,240)" fill-opacity="0.501961" />
<polygon points="0,720 75,611 480,717" id="11" fill="rgb(226,233,242)" fill-opacity="0.501961" />
<polygon points="341,546 341,665 193,578" id="12" fill="rgb(151,109,82)" fill-opacity="0.501961" />
<polygon points="282,175 305,193 311,156" id="13" fill="rgb(0,0,0)" fill-opacity="0.501961" />
<polygon points="236,559 174,269 80,512" id="14" fill="rgb(212,187,165)" fill-opacity="0.501961" />
<polygon points="81,621 175,581 138,512" id="15" fill="rgb(140,94,66)" fill-opacity="0.501961" />
<polygon points="361,153 283,263 423,327" id="16" fill="rgb(217,187,158)" fill-opacity="0.501961" />
<polygon points="252,585 341,303 409,539" id="17" fill="rgb(196,171,153)" fill-opacity="0.501961" />
<polygon points="175,89 263,198 330,105" id="18" fill="rgb(194,181,176)" fill-opacity="0.501961" />
<polygon points="330,276 189,351 324,356" id="19" fill="rgb(150,98,70)" fill-opacity="0.501961" />
<polygon points="275,236 198,232 254,177" id="20" fill="rgb(154,95,66)" fill-opacity="0.501961" />
<polygon points="87,517 197,227 259,265" id="21" fill="rgb(202,176,156)" fill-opacity="0.501961" />
<polygon points="246,318 224,314 207,396" id="22" fill="rgb(104,58,40)" fill-opacity="0.501961" />
<polygon points="221,95 200,92 196,144" id="23" fill="rgb(146,97,65)" fill-opacity="0.501961" />
<polygon points="65,506 222,0 0,0" id="24" fill="rgb(243,249,255)" fill-opacity="0.501961" />
<polygon points="407,258 355,452 296,412" id="25" fill="rgb(215,206,201)" fill-opacity="0.501961" />
<polygon points="423,140 346,168 359,126" id="26" fill="rgb(122,111,109)" fill-opacity="0.501961" />
<polygon points="409,71 477,511 480,0" id="27" fill="rgb(240,243,249)" fill-opacity="0.501961" />
<polygon points="327,83 331,59 297,71" id="28" fill="rgb(108,68,44)" fill-opacity="0.501961" />
<polygon points="309,630 164,584 63,615" id="29" fill="rgb(193,187,191)" fill-opacity="0.501961" />
<polygon points="258,120 257,130 246,124" id="30" fill="rgb(0,0,0)" fill-opacity="0.501961" />
<polygon points="262,242 418,276 432,167" id="31" fill="rgb(207,173,145)" fill-opacity="0.501961" />
<polygon points="280,212 292,43 253,180" id="32" fill="rgb(219,218,221)" fill-opacity="0.501961" />
<polygon points="356,664 310,662 405,461" id="33" fill="rgb(184,158,140)" fill-opacity="0.501961" />
<polygon points="154,382 177,353 118,381" id="34" fill="rgb(101,91,91)" fill-opacity="0.501961" />
<polygon points="179,574 219,517 163,352" id="35" fill="rgb(216,199,185)" fill-opacity="0.501961" />
<polygon points="351,511 324,634 273,601" id="36" fill="rgb(151,105,76)" fill-opacity="0.501961" />
<polygon points="226,553 264,550 227,600" id="37" fill="rgb(127,80,54)" fill-opacity="0.501961" />
<polygon points="238,187 187,83 186,212" id="38" fill="rgb(222,194,174)" fill-opacity="0.501961" />
<polygon points="308,168 287,192 285,161" id="39" fill="rgb(0,13,28)" fill-opacity="0.501961" />
<polygon points="313,6 480,45 344,155" id="40" fill="rgb(241,243,248)" fill-opacity="0.501961" />
<polygon points="376,418 369,322 469,317" id="41" fill="rgb(240,243,248)" fill-opacity="0.501961" />
<polygon points="71,578 71,613 156,613" id="42" fill="rgb(173,155,145)" fill-opacity="0.501961" />
<polygon points="341,640 480,436 480,685" id="43" fill="rgb(213,211,214)" fill-opacity="0.501961" />
<polygon points="322,102 335,176 250,131" id="44" fill="rgb(196,179,171)" fill-opacity="0.501961" />
<polygon points="205,352 106,370 137,305" id="45" fill="rgb(220,200,182)" fill-opacity="0.501961" />
<polygon points="386,608 397,455 273,386" id="46" fill="rgb(193,164,143)" fill-opacity="0.501961" />
<polygon points="317,165 244,264 268,512" id="47" fill="rgb(188,145,114)" fill-opacity="0.501961" />
<polygon points="299,117 310,116 303,109" id="48" fill="rgb(0,0,0)" fill-opacity="0.501961" />
<polygon points="209,114 206,94 193,100" id="49" fill="rgb(38,17,8)" fill-opacity="0.501961" />
<polygon points="299,343 302,295 338,292" id="50" fill="rgb(114,70,52)" fill-opacity="0.501961" />
<polygon points="260,192 292,206 306,189" id="51" fill="rgb(231,225,219)" fill-opacity="0.501961" />
<polygon points="239,129 257,42 198,87" id="52" fill="rgb(233,217,203)" fill-opacity="0.501961" />
<polygon points="259,355 145,521 209,587" id="53" fill="rgb(207,183,161)" fill-opacity="0.501961" />
<polygon points="378,112 414,122 431,170" id="54" fill="rgb(167,156,154)" fill-opacity="0.501961" />
<polygon points="304,34 313,100 175,133" id="55" fill="rgb(234,227,221)" fill-opacity="0.501961" />
<polygon points="289,234 417,228 355,325" id="56" fill="rgb(214,187,162)" fill-opacity="0.501961" />
<polygon points="166,397 50,389 180,424" id="57" fill="rgb(230,227,225)" fill-opacity="0.501961" />
<polygon points="255,220 325,190 306,218" id="58" fill="rgb(154,103,75)" fill-opacity="0.501961" />
<polygon points="84,653 162,589 437,720" id="59" fill="rgb(216,214,216)" fill-opacity="0.501961" />
<polygon points="136,488 126,545 188,584" id="60" fill="rgb(180,135,105)" fill-opacity="0.501961" />
<polygon points="135,606 88,570 170,564" id="61" fill="rgb(152,106,76)" fill-opacity="0.501961" />
<polygon points="380,198 409,233 350,212" id="62" fill="rgb(184,130,89)" fill-opacity="0.501961" />
<polygon points="90,514 80,599 127,508" id="63" fill="rgb(214,189,171)" fill-opacity="0.501961" />
<polygon points="0,391 0,720 109,720" id="64" fill="rgb(227,230,235)" fill-opacity="0.501961" />
<polygon points="409,151 416,174 380,170" id="65" fill="rgb(20,26,34)" fill-opacity="0.501961" />
<polygon points="201,569 310,529 275,420" id="66" fill="rgb(182,152,128)" fill-opacity="0.501961" />
<polygon points="414,155 414,133 352,168" id="67" fill="rgb(177,155,145)" fill-opacity="0.501961" />
<polygon points="264,125 243,135 248,117" id="68" fill="rgb(68,61,63)" fill-opacity="0.501961" />
<polygon points="323,74 318,61 307,86" id="69" fill="rgb(82,62,53)" fill-opacity="0.501961" />
<polygon points="354,180 361,144 372,143" id="70" fill="rgb(67,64,66)" fill-opacity="0.501961" />
<polygon points="480,113 413,294 480,348" id="71" fill="rgb(238,239,241)" fill-opacity="0.501961" />
<polygon points="86,490 120,513 120,459" id="72" fill="rgb(196,149,116)" fill-opacity="0.501961" />
<polygon points="371,648 206,590 318,661" id="73" fill="rgb(181,161,149)" fill-opacity="0.501961" />
<polygon points="335,67 322,102 307,84" id="74" fill="rgb(208,180,161)" fill-opacity="0.501961" />
<polygon points="228,332 213,358 228,388" id="75" fill="rgb(102,59,41)" fill-opacity="0.501961" />
<polygon points="212,319 243,250 123,334" id="76" fill="rgb(211,181,156)" fill-opacity="0.501961" />
<polygon points="142,313 0,176 188,161" id="77" fill="rgb(242,244,248)" fill-opacity="0.501961" />
<polygon points="364,429 395,539 318,590" id="78" fill="rgb(189,155,132)" fill-opacity="0.501961" />
<polygon points="266,720 480,720 480,552" id="79" fill="rgb(219,219,220)" fill-opacity="0.501961" />
<polygon points="319,639 287,590 332,626" id="80" fill="rgb(134,85,57)" fill-opacity="0.501961" />
<polygon points="332,150 230,124 280,167" id="81" fill="rgb(200,195,197)" fill-opacity="0.501961" />
<polygon points="192,390 284,337 195,443" id="82" fill="rgb(199,152,111)" fill-opacity="0.501961" />
<polygon points="272,229 241,201 246,174" id="83" fill="rgb(142,84,61)" fill-opacity="0.501961" />
<polygon points="391,172 405,172 345,192" id="84" fill="rgb(191,176,168)" fill-opacity="0.501961" />
<polygon points="329,535 351,306 285,433" id="85" fill="rgb(197,175,157)" fill-opacity="0.501961" />
<polygon points="297,54 329,106 217,104" id="86" fill="rgb(228,223,220)" fill-opacity="0.501961" />
<polygon points="418,322 433,125 370,326" id="87" fill="rgb(208,192,179)" fill-opacity="0.501961" />
<polygon points="480,0 294,60 0,0" id="88" fill="rgb(240,241,246)" fill-opacity="0.501961" />
<polygon points="399,136 353,145 408,144" id="89" fill="rgb(80,71,70)" fill-opacity="0.501961" />
<polygon points="207,122 220,90 208,91" id="90" fill="rgb(188,129,91)" fill-opacity="0.501961" />
<polygon points="313,173 306,104 390,283" id="91" fill="rgb(218,188,164)" fill-opacity="0.501961" />
<polygon points="362,356 480,472 480,260" id="92" fill="rgb(233,234,237)" fill-opacity="0.501961" />
<polygon points="207,366 167,315 192,306" id="93" fill="rgb(203,153,117)" fill-opacity="0.501961" />
<polygon points="436,615 376,635 372,565" id="94" fill="rgb(206,198,197)" fill-opacity="0.501961" />
<polygon points="374,165 375,121 358,109" id="95" fill="rgb(206,186,175)" fill-opacity="0.501961" />
<polygon points="176,298 200,149 149,308" id="96" fill="rgb(229,221,212)" fill-opacity="0.501961" />
<polygon points="107,339 0,535 0,1" id="97" fill="rgb(239,241,246)" fill-opacity="0.501961" />
<polygon points="106,429 41,468 82,516" id="98" fill="rgb(224,219,216)" fill-opacity="0.501961" />
<polygon points="121,390 127,372 178,387" id="99" fill="rgb(171,152,141)" fill-opacity="0.501961" />
<polygon points="209,244 302,251 203,204" id="100" fill="rgb(184,139,109)" fill-opacity="0.501961" />
<polygon points="480,452 396,483 386,427" id="101" fill="rgb(214,208,210)" fill-opacity="0.501961" />
<polygon points="327,322 337,353 263,402" id="102" fill="rgb(191,148,111)" fill-opacity="0.501961" />
<polygon points="254,184 218,217 210,145" id="103" fill="rgb(209,165,136)" fill-opacity="0.501961" />
<polygon points="257,551 246,506 245,576" id="104" fill="rgb(157,104,74)" fill-opacity="0.501961" />
<polygon points="229,595 239,599 241,556" id="105" fill="rgb(84,58,51)" fill-opacity="0.501961" />
<polygon points="406,321 412,303 274,266" id="106" fill="rgb(203,167,139)" fill-opacity="0.501961" />
<polygon points="253,470 234,348 195,584" id="107" fill="rgb(199,172,149)" fill-opacity="0.501961" />
<polygon points="210,336 288,217 357,202" id="108" fill="rgb(194,153,126)" fill-opacity="0.501961" />
<polygon points="410,146 409,121 399,151" id="109" fill="rgb(214,203,197)" fill-opacity="0.501961" />
<polygon points="136,350 111,330 105,439" id="110" fill="rgb(223,218,215)" fill-opacity="0.501961" />
<polygon points="347,149 362,180 339,191" id="111" fill="rgb(223,215,210)" fill-opacity="0.501961" />
<polygon points="261,602 259,532 333,508" id="112" fill="rgb(199,168,143)" fill-opacity="0.501961" />
<polygon points="227,71 196,255 196,142" id="113" fill="rgb(219,190,169)" fill-opacity="0.501961" />
<polygon points="177,369 143,302 191,357" id="114" fill="rgb(220,213,207)" fill-opacity="0.501961" />
<polygon points="468,0 411,117 320,115" id="115" fill="rgb(241,244,247)" fill-opacity="0.501961" />
<polygon points="128,557 174,571 112,593" id="116" fill="rgb(136,95,72)" fill-opacity="0.501961" />
<polygon points="63,587 70,606 133,607" id="117" fill="rgb(172,156,146)" fill-opacity="0.501961" />
<polygon points="480,621 381,580 411,503" id="118" fill="rgb(219,217,218)" fill-opacity="0.501961" />
<polygon points="305,166 311,179 289,181" id="119" fill="rgb(13,18,24)" fill-opacity="0.501961" />
<polygon points="236,303 219,394 272,316" id="120" fill="rgb(177,121,90)" fill-opacity="0.501961" />
<polygon points="244,116 314,148 283,96" id="121" fill="rgb(207,199,196)" fill-opacity="0.501961" />
<polygon points="405,204 416,193 352,173" id="122" fill="rgb(166,136,120)" fill-opacity="0.501961" />
<polygon points="280,456 257,452 272,365" id="123" fill="rgb(166,131,103)" fill-opacity="0.501961" />
<polygon points="354,122 365,140 410,119" id="124" fill="rgb(189,170,160)" fill-opacity="0.501961" />
<polygon points="392,158 405,175 424,161" id="125" fill="rgb(27,27,30)" fill-opacity="0.501961" />
<polygon points="183,574 117,620 92,601" id="126" fill="rgb(180,155,138)" fill-opacity="0.501961" />
<polygon points="120,398 0,354 0,593" id="127" fill="rgb(234,235,240)" fill-opacity="0.501961" />
<polygon points="181,545 196,458 145,516" id="128" fill="rgb(213,194,182)" fill-opacity="0.501961" />
<polygon points="480,0 477,196 314,12" id="129" fill="rgb(237,239,242)" fill-opacity="0.501961" />
<polygon points="137,325 141,406 125,343" id="130" fill="rgb(216,203,191)" fill-opacity="0.501961" />
<polygon points="373,142 378,148 383,135" id="131" fill="rgb(16,19,25)" fill-opacity="0.501961" />
<polygon points="269,141 276,199 235,123" id="132" fill="rgb(219,211,207)" fill-opacity="0.501961" />
<polygon points="123,648 155,626 57,606" id="133" fill="rgb(212,208,210)" fill-opacity="0.501961" />
<polygon points="284,171 302,160 294,188" id="134" fill="rgb(30,31,34)" fill-opacity="0.501961" />
<polygon points="321,656 387,567 359,641" id="135" fill="rgb(193,171,156)" fill-opacity="0.501961" />
<polygon points="307,635 320,591 297,564" id="136" fill="rgb(145,100,73)" fill-opacity="0.501961" />
<polygon points="349,195 378,180 399,211" id="137" fill="rgb(213,182,155)" fill-opacity="0.501961" />
<polygon points="367,218 379,226 400,170" id="138" fill="rgb(179,133,101)" fill-opacity="0.501961" />
<polygon points="370,160 348,144 335,155" id="139" fill="rgb(237,226,219)" fill-opacity="0.501961" />
<polygon points="430,140 434,187 412,150" id="140" fill="rgb(212,196,186)" fill-opacity="0.501961" />
<polygon points="329,57 285,61 330,66" id="141" fill="rgb(208,186,171)" fill-opacity="0.501961" />
<polygon points="309,180 311,162 304,161" id="142" fill="rgb(20,28,42)" fill-opacity="0.501961" />
<polygon points="121,515 149,546 143,481" id="143" fill="rgb(187,144,115)" fill-opacity="0.501961" />
<polygon points="176,481 152,417 119,443" id="144" fill="rgb(194,158,131)" fill-opacity="0.501961" />
<polygon points="271,192 291,184 278,170" id="145" fill="rgb(153,149,152)" fill-opacity="0.501961" />
<polygon points="336,541 348,610 296,563" id="146" fill="rgb(172,129,101)" fill-opacity="0.501961" />
<polygon points="81,474 86,554 96,445" id="147" fill="rgb(218,202,190)" fill-opacity="0.501961" />
<polygon points="141,378 181,362 143,369" id="148" fill="rgb(101,89,86)" fill-opacity="0.501961" />
<polygon points="422,267 410,200 436,190" id="149" fill="rgb(217,208,202)" fill-opacity="0.501961" />
<polygon points="246,116 267,125 271,120" id="150" fill="rgb(156,142,136)" fill-opacity="0.501961" />
<polygon points="157,416 162,356 205,453" id="151" fill="rgb(213,187,163)" fill-opacity="0.501961" />
<polygon points="300,191 303,194 336,139" id="152" fill="rgb(211,187,174)" fill-opacity="0.501961" />
<polygon points="366,338 454,296 382,436" id="153" fill="rgb(233,234,236)" fill-opacity="0.501961" />
<polygon points="238,580 270,567 250,544" id="154" fill="rgb(172,123,90)" fill-opacity="0.501961" />
<polygon points="222,73 194,92 226,95" id="155" fill="rgb(221,199,181)" fill-opacity="0.501961" />
<polygon points="94,706 15,593 -9,699" id="156" fill="rgb(223,222,225)" fill-opacity="0.501961" />
<polygon points="337,159 391,78 329,92" id="157" fill="rgb(246,247,249)" fill-opacity="0.501961" />
<polygon points="83,472 5,498 76,589" id="158" fill="rgb(232,233,234)" fill-opacity="0.501961" />
<polygon points="354,190 371,150 392,142" id="159" fill="rgb(192,167,154)" fill-opacity="0.501961" />
<polygon points="285,356 298,279 305,370" id="160" fill="rgb(169,115,81)" fill-opacity="0.501961" />
<polygon points="103,599 150,501 84,566" id="161" fill="rgb(187,147,120)" fill-opacity="0.501961" />
<polygon points="202,339 207,417 218,320" id="162" fill="rgb(179,130,98)" fill-opacity="0.501961" />
<polygon points="392,126 392,148 382,118" id="163" fill="rgb(192,171,160)" fill-opacity="0.501961" />
<polygon points="295,314 332,288 333,322" id="164" fill="rgb(134,88,67)" fill-opacity="0.501961" />
<polygon points="421,138 413,149 409,134" id="165" fill="rgb(66,62,69)" fill-opacity="0.501961" />
<polygon points="246,541 204,589 190,534" id="166" fill="rgb(198,164,140)" fill-opacity="0.501961" />
<polygon points="205,95 207,106 191,93" id="167" fill="rgb(57,45,41)" fill-opacity="0.501961" />
<polygon points="133,381 129,371 129,386" id="168" fill="rgb(79,65,63)" fill-opacity="0.501961" />
<polygon points="402,244 316,204 416,227" id="169" fill="rgb(207,170,136)" fill-opacity="0.501961" />
<polygon points="178,570 174,590 287,616" id="170" fill="rgb(171,147,136)" fill-opacity="0.501961" />
<polygon points="288,629 173,599 314,661" id="171" fill="rgb(199,189,190)" fill-opacity="0.501961" />
<polygon points="282,211 234,161 304,200" id="172" fill="rgb(215,194,178)" fill-opacity="0.501961" />
<polygon points="267,510 276,575 257,549" id="173" fill="rgb(210,185,163)" fill-opacity="0.501961" />
<polygon points="191,157 252,117 196,128" id="174" fill="rgb(224,204,192)" fill-opacity="0.501961" />
<polygon points="313,79 322,67 311,65" id="175" fill="rgb(64,48,41)" fill-opacity="0.501961" />
<polygon points="389,180 406,178 400,169" id="176" fill="rgb(139,135,139)" fill-opacity="0.501961" />
<polygon points="194,208 192,87 207,147" id="177" fill="rgb(218,198,184)" fill-opacity="0.501961" />
<polygon points="87,589 103,521 61,591" id="178" fill="rgb(209,192,179)" fill-opacity="0.501961" />
<polygon points="153,300 113,333 126,381" id="179" fill="rgb(220,205,192)" fill-opacity="0.501961" />
<polygon points="165,370 183,380 121,394" id="180" fill="rgb(176,155,142)" fill-opacity="0.501961" />
<polygon points="341,344 350,392 371,285" id="181" fill="rgb(206,191,180)" fill-opacity="0.501961" />
<polygon points="313,165 243,54 279,79" id="182" fill="rgb(223,216,213)" fill-opacity="0.501961" />
<polygon points="416,132 398,156 411,118" id="183" fill="rgb(200,188,182)" fill-opacity="0.501961" />
<polygon points="351,485 202,479 370,433" id="184" fill="rgb(191,169,152)" fill-opacity="0.501961" />
<polygon points="280,208 272,217 246,213" id="185" fill="rgb(133,87,64)" fill-opacity="0.501961" />
<polygon points="290,347 252,398 275,212" id="186" fill="rgb(189,144,114)" fill-opacity="0.501961" />
<polygon points="108,461 123,488 109,524" id="187" fill="rgb(188,144,114)" fill-opacity="0.501961" />
<polygon points="241,374 228,444 188,437" id="188" fill="rgb(211,173,137)" fill-opacity="0.501961" />
<polygon points="138,328 163,308 148,372" id="189" fill="rgb(220,191,163)" fill-opacity="0.501961" />
<polygon points="317,216 273,224 321,182" id="190" fill="rgb(169,121,90)" fill-opacity="0.501961" />
<polygon points="229,364 234,393 239,344" id="191" fill="rgb(212,172,135)" fill-opacity="0.501961" />
<polygon points="333,176 326,94 306,116" id="192" fill="rgb(218,193,175)" fill-opacity="0.501961" />
<polygon points="357,536 340,481 335,573" id="193" fill="rgb(179,144,119)" fill-opacity="0.501961" />
<polygon points="364,160 351,257 315,266" id="194" fill="rgb(212,187,168)" fill-opacity="0.501961" />
<polygon points="184,320 259,290 231,232" id="195" fill="rgb(199,171,149)" fill-opacity="0.501961" />
<polygon points="340,337 406,268 337,252" id="196" fill="rgb(209,178,150)" fill-opacity="0.501961" />
<polygon points="301,124 294,110 307,112" id="197" fill="rgb(65,58,59)" fill-opacity="0.501961" />
<polygon points="366,548 382,527 361,530" id="198" fill="rgb(171,128,102)" fill-opacity="0.501961" />
<polygon points="439,0 133,86 52,0" id="199" fill="rgb(239,240,243)" fill-opacity="0.501961" />
<polygon points="192,97 239,196 225,197" id="200" fill="rgb(210,174,151)" fill-opacity="0.501961" />
<polygon points="147,532 103,588 92,584" id="201" fill="rgb(159,113,85)" fill-opacity="0.501961" />
<polygon points="226,379 227,361 210,384" id="202" fill="rgb(145,93,63)" fill-opacity="0.501961" />
<polygon points="349,397 396,455 301,434" id="203" fill="rgb(203,184,171)" fill-opacity="0.501961" />
<polygon points="239,344 258,348 231,319" id="204" fill="rgb(148,96,70)" fill-opacity="0.501961" />
<polygon points="325,644 351,629 295,634" id="205" fill="rgb(189,142,104)" fill-opacity="0.501961" />
<polygon points="217,325 210,377 222,320" id="206" fill="rgb(145,100,77)" fill-opacity="0.501961" />
<polygon points="390,303 406,280 378,291" id="207" fill="rgb(225,222,218)" fill-opacity="0.501961" />
<polygon points="281,173 306,161 301,187" id="208" fill="rgb(35,35,37)" fill-opacity="0.501961" />
<polygon points="202,239 183,314 211,316" id="209" fill="rgb(210,185,166)" fill-opacity="0.501961" />
<polygon points="227,548 239,492 300,493" id="210" fill="rgb(180,146,123)" fill-opacity="0.501961" />
<polygon points="350,587 368,503 343,568" id="211" fill="rgb(202,177,159)" fill-opacity="0.501961" />
<polygon points="95,588 70,609 84,578" id="212" fill="rgb(214,203,197)" fill-opacity="0.501961" />
<polygon points="268,601 305,618 315,552" id="213" fill="rgb(158,116,88)" fill-opacity="0.501961" />
<polygon points="329,630 319,591 362,592" id="214" fill="rgb(176,139,112)" fill-opacity="0.501961" />
<polygon points="117,166 57,98 260,25" id="215" fill="rgb(241,242,245)" fill-opacity="0.501961" />
<polygon points="466,612 480,720 228,720" id="216" fill="rgb(220,220,222)" fill-opacity="0.501961" />
<polygon points="180,580 152,538 136,566" id="217" fill="rgb(161,119,93)" fill-opacity="0.501961" />
<polygon points="301,119 316,128 243,138" id="218" fill="rgb(206,200,201)" fill-opacity="0.501961" />
<polygon points="91,501 128,499 95,562" id="219" fill="rgb(208,181,163)" fill-opacity="0.501961" />
<polygon points="421,158 409,140 383,157" id="220" fill="rgb(178,155,143)" fill-opacity="0.501961" />
<polygon points="274,182 290,142 304,144" id="221" fill="rgb(174,166,170)" fill-opacity="0.501961" />
<polygon points="424,144 401,118 421,125" id="222" fill="rgb(194,182,179)" fill-opacity="0.501961" />
<polygon points="243,588 292,590 255,565" id="223" fill="rgb(193,153,122)" fill-opacity="0.501961" />
<polygon points="127,308 181,203 179,31" id="224" fill="rgb(242,244,247)" fill-opacity="0.501961" />
<polygon points="205,240 282,227 209,212" id="225" fill="rgb(174,130,103)" fill-opacity="0.501961" />
<polygon points="286,223 341,235 279,246" id="226" fill="rgb(201,170,146)" fill-opacity="0.501961" />
<polygon points="234,204 204,240 193,227" id="227" fill="rgb(194,159,134)" fill-opacity="0.501961" />
<polygon points="375,566 475,550 474,528" id="228" fill="rgb(211,208,209)" fill-opacity="0.501961" />
<polygon points="322,81 303,70 323,91" id="229" fill="rgb(186,147,123)" fill-opacity="0.501961" />
<polygon points="459,514 401,484 409,516" id="230" fill="rgb(231,232,236)" fill-opacity="0.501961" />
<polygon points="319,111 304,151 335,209" id="231" fill="rgb(212,179,156)" fill-opacity="0.501961" />
<polygon points="265,114 244,53 323,55" id="232" fill="rgb(232,223,217)" fill-opacity="0.501961" />
<polygon points="184,462 186,421 138,375" id="233" fill="rgb(215,197,182)" fill-opacity="0.501961" />
<polygon points="338,350 322,349 316,317" id="234" fill="rgb(195,158,128)" fill-opacity="0.501961" />
<polygon points="310,651 243,618 339,647" id="235" fill="rgb(194,177,165)" fill-opacity="0.501961" />
<polygon points="173,641 284,633 330,691" id="236" fill="rgb(215,211,213)" fill-opacity="0.501961" />
<polygon points="313,240 339,225 315,168" id="237" fill="rgb(194,152,121)" fill-opacity="0.501961" />
<polygon points="309,483 282,557 327,549" id="238" fill="rgb(186,157,135)" fill-opacity="0.501961" />
<polygon points="242,642 244,614 158,587" id="239" fill="rgb(202,191,189)" fill-opacity="0.501961" />
<polygon points="273,401 276,314 272,340" id="240" fill="rgb(151,113,90)" fill-opacity="0.501961" />
<polygon points="418,161 377,176 371,171" id="241" fill="rgb(23,25,29)" fill-opacity="0.501961" />
<polygon points="257,182 259,226 239,182" id="242" fill="rgb(152,95,71)" fill-opacity="0.501961" />
<polygon points="477,293 480,455 369,401" id="243" fill="rgb(231,231,234)" fill-opacity="0.501961" />
<polygon points="311,624 303,635 313,608" id="244" fill="rgb(101,62,42)" fill-opacity="0.501961" />
<polygon points="363,138 354,149 363,125" id="245" fill="rgb(181,154,137)" fill-opacity="0.501961" />
<polygon points="237,159 260,147 222,139" id="246" fill="rgb(211,179,156)" fill-opacity="0.501961" />
<polygon points="416,297 429,251 395,239" id="247" fill="rgb(214,203,196)" fill-opacity="0.501961" />
<polygon points="173,363 187,351 199,369" id="248" fill="rgb(219,202,189)" fill-opacity="0.501961" />
<polygon points="400,232 391,206 406,201" id="249" fill="rgb(216,188,163)" fill-opacity="0.501961" />
<polygon points="393,132 412,129 393,136" id="250" fill="rgb(193,190,193)" fill-opacity="0.501961" />
<polygon points="145,337 161,365 181,380" id="251" fill="rgb(217,199,183)" fill-opacity="0.501961" />
<polygon points="345,268 343,297 274,270" id="252" fill="rgb(200,158,129)" fill-opacity="0.501961" />
<polygon points="421,177 418,193 361,183" id="253" fill="rgb(181,153,138)" fill-opacity="0.501961" />
<polygon points="368,155 358,150 366,148" id="254" fill="rgb(12,15,18)" fill-opacity="0.501961" />
<polygon points="204,346 194,403 155,389" id="255" fill="rgb(210,176,147)" fill-opacity="0.501961" />
<polygon points="420,292 445,113 480,322" id="256" fill="rgb(238,238,240)" fill-opacity="0.501961" />
<polygon points="396,137 392,143 403,138" id="257" fill="rgb(14,13,15)" fill-opacity="0.501961" />
<polygon points="400,94 399,128 368,95" id="258" fill="rgb(240,240,242)" fill-opacity="0.501961" />
<polygon points="231,445 256,369 270,418" id="259" fill="rgb(198,167,139)" fill-opacity="0.501961" />
<polygon points="259,556 247,529 249,554" id="260" fill="rgb(137,89,65)" fill-opacity="0.501961" />
<polygon points="383,303 411,291 414,309" id="261" fill="rgb(195,161,137)" fill-opacity="0.501961" />
<polygon points="261,170 283,195 268,204" id="262" fill="rgb(220,210,201)" fill-opacity="0.501961" />
<polygon points="285,391 277,342 333,391" id="263" fill="rgb(197,156,122)" fill-opacity="0.501961" />
<polygon points="169,561 229,462 233,527" id="264" fill="rgb(199,176,159)" fill-opacity="0.501961" />
<polygon points="387,557 401,607 362,627" id="265" fill="rgb(204,191,189)" fill-opacity="0.501961" />
<polygon points="223,594 233,537 200,594" id="266" fill="rgb(183,142,114)" fill-opacity="0.501961" />
<polygon points="311,69 292,73 323,59" id="267" fill="rgb(206,180,163)" fill-opacity="0.501961" />
<polygon points="318,284 288,288 299,320" id="268" fill="rgb(164,113,84)" fill-opacity="0.501961" />
<polygon points="113,408 0,202 0,505" id="269" fill="rgb(237,238,242)" fill-opacity="0.501961" />
<polygon points="335,507 371,522 394,477" id="270" fill="rgb(201,174,153)" fill-opacity="0.501961" />
<polygon points="97,551 122,566 79,573" id="271" fill="rgb(199,168,142)" fill-opacity="0.501961" />
<polygon points="368,168 346,202 352,168" id="272" fill="rgb(205,189,179)" fill-opacity="0.501961" />
<polygon points="181,594 214,572 233,514" id="273" fill="rgb(200,172,149)" fill-opacity="0.501961" />
<polygon points="358,158 359,167 353,162" id="274" fill="rgb(0,0,2)" fill-opacity="0.501961" />
<polygon points="269,507 312,452 276,425" id="275" fill="rgb(185,160,140)" fill-opacity="0.501961" />
<polygon points="296,61 239,128 214,65" id="276" fill="rgb(229,224,218)" fill-opacity="0.501961" />
<polygon points="209,334 287,301 227,303" id="277" fill="rgb(183,132,101)" fill-opacity="0.501961" />
<polygon points="344,671 300,667 364,655" id="278" fill="rgb(208,205,208)" fill-opacity="0.501961" />
<polygon points="287,140 275,184 264,109" id="279" fill="rgb(199,190,191)" fill-opacity="0.501961" />
<polygon points="116,341 98,383 125,381" id="280" fill="rgb(229,224,223)" fill-opacity="0.501961" />
<polygon points="98,475 92,441 128,393" id="281" fill="rgb(221,212,204)" fill-opacity="0.501961" />
<polygon points="183,302 157,311 190,237" id="282" fill="rgb(220,203,188)" fill-opacity="0.501961" />
<polygon points="139,390 146,384 158,382" id="283" fill="rgb(127,116,116)" fill-opacity="0.501961" />
<polygon points="352,479 367,519 367,451" id="284" fill="rgb(179,149,127)" fill-opacity="0.501961" />
<polygon points="381,611 365,642 409,656" id="285" fill="rgb(221,218,219)" fill-opacity="0.501961" />
<polygon points="53,408 0,51 153,285" id="286" fill="rgb(239,240,243)" fill-opacity="0.501961" />
<polygon points="207,363 178,334 213,330" id="287" fill="rgb(197,156,127)" fill-opacity="0.501961" />
<polygon points="123,591 119,605 81,600" id="288" fill="rgb(171,143,123)" fill-opacity="0.501961" />
<polygon points="110,583 107,606 98,594" id="289" fill="rgb(211,186,166)" fill-opacity="0.501961" />
<polygon points="401,518 331,575 390,539" id="290" fill="rgb(198,172,156)" fill-opacity="0.501961" />
<polygon points="120,579 114,600 115,584" id="291" fill="rgb(101,60,40)" fill-opacity="0.501961" />
<polygon points="205,241 267,314 243,238" id="292" fill="rgb(198,159,132)" fill-opacity="0.501961" />
<polygon points="380,376 440,323 362,325" id="293" fill="rgb(235,235,237)" fill-opacity="0.501961" />
<polygon points="228,60 213,131 225,159" id="294" fill="rgb(227,215,204)" fill-opacity="0.501961" />
<polygon points="221,193 200,222 204,112" id="295" fill="rgb(217,184,160)" fill-opacity="0.501961" />
<polygon points="196,477 187,515 172,414" id="296" fill="rgb(215,199,186)" fill-opacity="0.501961" />
<polygon points="188,222 186,179 146,318" id="297" fill="rgb(227,221,216)" fill-opacity="0.501961" />
<polygon points="480,464 399,464 474,488" id="298" fill="rgb(229,229,232)" fill-opacity="0.501961" />
<polygon points="128,541 111,536 121,594" id="299" fill="rgb(168,127,103)" fill-opacity="0.501961" />
<polygon points="332,384 292,461 298,383" id="300" fill="rgb(199,174,151)" fill-opacity="0.501961" />
<polygon points="83,504 106,458 146,435" id="301" fill="rgb(210,185,165)" fill-opacity="0.501961" />
<polygon points="389,0 480,0 475,298" id="302" fill="rgb(237,238,241)" fill-opacity="0.501961" />
<polygon points="289,189 286,181 278,183" id="303" fill="rgb(129,122,123)" fill-opacity="0.501961" />
<polygon points="259,132 249,128 262,116" id="304" fill="rgb(71,64,63)" fill-opacity="0.501961" />
<polygon points="177,147 200,133 185,106" id="305" fill="rgb(229,225,223)" fill-opacity="0.501961" />
<polygon points="274,223 268,272 245,218" id="306" fill="rgb(175,126,97)" fill-opacity="0.501961" />
<polygon points="401,118 416,135 396,132" id="307" fill="rgb(177,163,157)" fill-opacity="0.501961" />
<polygon points="355,364 398,465 348,393" id="308" fill="rgb(209,198,192)" fill-opacity="0.501961" />
<polygon points="366,645 300,647 341,661" id="309" fill="rgb(180,165,155)" fill-opacity="0.501961" />
<polygon points="313,588 329,547 337,577" id="310" fill="rgb(185,145,116)" fill-opacity="0.501961" />
<polygon points="238,568 238,593 232,586" id="311" fill="rgb(80,49,38)" fill-opacity="0.501961" />
<polygon points="211,109 201,113 213,94" id="312" fill="rgb(176,128,99)" fill-opacity="0.501961" />
<polygon points="412,146 424,164 438,142" id="313" fill="rgb(211,195,185)" fill-opacity="0.501961" />
<polygon points="368,180 396,167 394,156" id="314" fill="rgb(24,25,28)" fill-opacity="0.501961" />
<polygon points="117,545 87,504 138,513" id="315" fill="rgb(204,174,153)" fill-opacity="0.501961" />
<polygon points="288,105 328,109 289,52" id="316" fill="rgb(226,222,219)" fill-opacity="0.501961" />
<polygon points="346,182 332,138 349,127" id="317" fill="rgb(243,244,247)" fill-opacity="0.501961" />
<polygon points="311,173 307,159 295,188" id="318" fill="rgb(29,29,32)" fill-opacity="0.501961" />
<polygon points="167,595 104,621 199,608" id="319" fill="rgb(208,197,197)" fill-opacity="0.501961" />
<polygon points="183,191 186,146 208,179" id="320" fill="rgb(222,212,204)" fill-opacity="0.501961" />
<polygon points="240,589 296,619 252,621" id="321" fill="rgb(172,148,135)" fill-opacity="0.501961" />
<polygon points="289,361 327,328 309,324" id="322" fill="rgb(171,126,96)" fill-opacity="0.501961" />
<polygon points="364,199 371,235 351,207" id="323" fill="rgb(199,158,122)" fill-opacity="0.501961" />
<polygon points="145,460 192,573 151,523" id="324" fill="rgb(206,182,164)" fill-opacity="0.501961" />
<polygon points="243,175 193,116 268,182" id="325" fill="rgb(221,205,193)" fill-opacity="0.501961" />
<polygon points="401,497 387,458 393,561" id="326" fill="rgb(205,179,163)" fill-opacity="0.501961" />
<polygon points="259,180 272,209 248,182" id="327" fill="rgb(193,146,122)" fill-opacity="0.501961" />
<polygon points="0,145 202,0 0,0" id="328" fill="rgb(237,238,243)" fill-opacity="0.501961" />
<polygon points="301,186 273,206 307,184" id="329" fill="rgb(204,191,183)" fill-opacity="0.501961" />
<polygon points="279,404 251,441 275,468" id="330" fill="rgb(171,138,113)" fill-opacity="0.501961" />
<polygon points="194,101 199,91 192,87" id="331" fill="rgb(206,184,169)" fill-opacity="0.501961" />
<polygon points="274,109 268,131 253,115" id="332" fill="rgb(196,181,170)" fill-opacity="0.501961" />
<polygon points="77,625 62,570 53,590" id="333" fill="rgb(217,213,212)" fill-opacity="0.501961" />
<polygon points="354,190 328,146 337,198" id="334" fill="rgb(222,209,201)" fill-opacity="0.501961" />
<polygon points="220,355 224,335 226,353" id="335" fill="rgb(61,39,34)" fill-opacity="0.501961" />
<polygon points="346,102 352,71 371,134" id="336" fill="rgb(239,240,241)" fill-opacity="0.501961" />
<polygon points="127,661 69,710 81,614" id="337" fill="rgb(223,223,225)" fill-opacity="0.501961" />
<polygon points="233,368 255,391 258,344" id="338" fill="rgb(189,143,110)" fill-opacity="0.501961" />
<polygon points="264,720 206,651 142,720" id="339" fill="rgb(222,223,226)" fill-opacity="0.501961" />
<polygon points="348,158 350,187 360,129" id="340" fill="rgb(201,183,172)" fill-opacity="0.501961" />
<polygon points="208,375 189,408 237,386" id="341" fill="rgb(185,137,101)" fill-opacity="0.501961" />
<polygon points="323,98 337,71 325,65" id="342" fill="rgb(210,191,179)" fill-opacity="0.501961" />
<polygon points="144,425 134,435 124,443" id="343" fill="rgb(143,116,100)" fill-opacity="0.501961" />
<polygon points="122,419 156,420 132,401" id="344" fill="rgb(215,191,172)" fill-opacity="0.501961" />
<polygon points="77,660 40,521 0,626" id="345" fill="rgb(230,231,233)" fill-opacity="0.501961" />
<polygon points="337,247 383,250 346,224" id="346" fill="rgb(217,196,176)" fill-opacity="0.501961" />
<polygon points="265,125 287,185 251,134" id="347" fill="rgb(204,196,197)" fill-opacity="0.501961" />
<polygon points="415,426 396,489 480,459" id="348" fill="rgb(220,217,218)" fill-opacity="0.501961" />
<polygon points="284,653 387,716 219,720" id="349" fill="rgb(217,217,218)" fill-opacity="0.501961" />
<polygon points="111,460 129,493 147,426" id="350" fill="rgb(201,179,162)" fill-opacity="0.501961" />
<polygon points="157,353 115,364 147,369" id="351" fill="rgb(221,211,202)" fill-opacity="0.501961" />
<polygon points="91,598 86,570 100,602" id="352" fill="rgb(207,184,168)" fill-opacity="0.501961" />
<polygon points="219,333 235,332 219,363" id="353" fill="rgb(96,63,51)" fill-opacity="0.501961" />
<polygon points="398,534 421,518 429,563" id="354" fill="rgb(214,206,207)" fill-opacity="0.501961" />
<polygon points="306,552 292,583 285,528" id="355" fill="rgb(187,150,121)" fill-opacity="0.501961" />
<polygon points="292,507 282,551 275,520" id="356" fill="rgb(200,175,155)" fill-opacity="0.501961" />
<polygon points="318,463 295,484 333,489" id="357" fill="rgb(199,180,167)" fill-opacity="0.501961" />
<polygon points="410,181 419,196 431,156" id="358" fill="rgb(195,175,164)" fill-opacity="0.501961" />
<polygon points="372,162 378,149 397,126" id="359" fill="rgb(138,120,112)" fill-opacity="0.501961" />
<polygon points="199,111 209,117 217,97" id="360" fill="rgb(191,144,116)" fill-opacity="0.501961" />
<polygon points="319,362 311,344 298,349" id="361" fill="rgb(199,157,125)" fill-opacity="0.501961" />
<polygon points="313,143 311,166 276,110" id="362" fill="rgb(204,198,199)" fill-opacity="0.501961" />
<polygon points="332,539 336,546 335,566" id="363" fill="rgb(148,100,75)" fill-opacity="0.501961" />
<polygon points="350,659 480,618 480,562" id="364" fill="rgb(215,216,218)" fill-opacity="0.501961" />
<polygon points="266,454 211,482 260,496" id="365" fill="rgb(191,162,140)" fill-opacity="0.501961" />
<polygon points="367,172 380,166 356,151" id="366" fill="rgb(190,169,158)" fill-opacity="0.501961" />
<polygon points="155,333 180,366 170,320" id="367" fill="rgb(218,208,200)" fill-opacity="0.501961" />
<polygon points="383,136 386,128 367,117" id="368" fill="rgb(196,173,159)" fill-opacity="0.501961" />
<polygon points="253,445 302,493 301,510" id="369" fill="rgb(176,149,128)" fill-opacity="0.501961" />
<polygon points="399,174 419,168 415,174" id="370" fill="rgb(29,31,38)" fill-opacity="0.501961" />
<polygon points="335,639 393,528 356,631" id="371" fill="rgb(189,162,143)" fill-opacity="0.501961" />
<polygon points="245,506 234,491 259,473" id="372" fill="rgb(178,142,119)" fill-opacity="0.501961" />
<polygon points="365,285 383,229 383,299" id="373" fill="rgb(211,187,164)" fill-opacity="0.501961" />
<polygon points="329,516 360,515 358,533" id="374" fill="rgb(174,142,121)" fill-opacity="0.501961" />
<polygon points="300,620 239,617 294,633" id="375" fill="rgb(190,171,159)" fill-opacity="0.501961" />
<polygon points="330,296 311,292 311,324" id="376" fill="rgb(119,79,62)" fill-opacity="0.501961" />
<polygon points="334,71 300,148 332,58" id="377" fill="rgb(211,196,185)" fill-opacity="0.501961" />
<polygon points="213,607 159,580 247,607" id="378" fill="rgb(181,161,155)" fill-opacity="0.501961" />
<polygon points="129,479 122,525 112,524" id="379" fill="rgb(214,190,172)" fill-opacity="0.501961" />
<polygon points="86,506 101,519 103,564" id="380" fill="rgb(211,189,176)" fill-opacity="0.501961" />
<polygon points="272,193 253,166 265,128" id="381" fill="rgb(220,214,212)" fill-opacity="0.501961" />
<polygon points="139,418 126,442 133,469" id="382" fill="rgb(185,159,141)" fill-opacity="0.501961" />
<polygon points="76,573 92,534 83,501" id="383" fill="rgb(223,217,211)" fill-opacity="0.501961" />
<polygon points="203,114 196,106 213,106" id="384" fill="rgb(183,143,117)" fill-opacity="0.501961" />
<polygon points="128,593 126,542 142,583" id="385" fill="rgb(137,93,67)" fill-opacity="0.501961" />
<polygon points="327,121 336,46 424,109" id="386" fill="rgb(240,241,243)" fill-opacity="0.501961" />
<polygon points="235,164 245,182 226,213" id="387" fill="rgb(204,162,133)" fill-opacity="0.501961" />
<polygon points="187,411 192,429 206,359" id="388" fill="rgb(202,164,128)" fill-opacity="0.501961" />
<polygon points="308,109 306,117 297,117" id="389" fill="rgb(33,29,34)" fill-opacity="0.501961" />
<polygon points="374,137 378,159 361,128" id="390" fill="rgb(180,153,137)" fill-opacity="0.501961" />
<polygon points="371,171 392,155 378,147" id="391" fill="rgb(164,136,120)" fill-opacity="0.501961" />
<polygon points="389,215 365,212 381,202" id="392" fill="rgb(167,119,88)" fill-opacity="0.501961" />
<polygon points="223,319 248,364 250,329" id="393" fill="rgb(155,104,77)" fill-opacity="0.501961" />
<polygon points="221,571 238,553 226,598" id="394" fill="rgb(163,120,94)" fill-opacity="0.501961" />
<polygon points="272,218 254,191 251,221" id="395" fill="rgb(136,92,71)" fill-opacity="0.501961" />
<polygon points="120,474 106,476 113,487" id="396" fill="rgb(155,113,85)" fill-opacity="0.501961" />
<polygon points="142,420 167,518 167,443" id="397" fill="rgb(202,164,135)" fill-opacity="0.501961" />
<polygon points="193,496 203,465 243,505" id="398" fill="rgb(201,179,162)" fill-opacity="0.501961" />
<polygon points="357,252 398,269 341,278" id="399" fill="rgb(205,171,142)" fill-opacity="0.501961" />
<polygon points="102,493 113,476 105,515" id="400" fill="rgb(209,174,144)" fill-opacity="0.501961" />
<polygon points="298,289 231,307 298,239" id="401" fill="rgb(190,149,123)" fill-opacity="0.501961" />
<polygon points="313,61 251,10 247,43" id="402" fill="rgb(242,244,246)" fill-opacity="0.501961" />
<polygon points="361,632 348,645 316,646" id="403" fill="rgb(204,190,180)" fill-opacity="0.501961" />
<polygon points="156,361 149,377 161,363" id="404" fill="rgb(72,60,56)" fill-opacity="0.501961" />
<polygon points="276,122 293,119 306,101" id="405" fill="rgb(203,195,192)" fill-opacity="0.501961" />
<polygon points="331,639 308,628 327,631" id="406" fill="rgb(167,110,76)" fill-opacity="0.501961" />
<polygon points="176,313 200,357 175,345" id="407" fill="rgb(208,176,153)" fill-opacity="0.501961" />
<polygon points="322,628 319,620 314,642" id="408" fill="rgb(132,85,60)" fill-opacity="0.501961" />
<polygon points="441,499 484,504 474,486" id="409" fill="rgb(210,208,210)" fill-opacity="0.501961" />
<polygon points="270,318 278,293 274,276" id="410" fill="rgb(165,122,100)" fill-opacity="0.501961" />
<polygon points="290,321 283,281 280,347" id="411" fill="rgb(200,149,113)" fill-opacity="0.501961" />
<polygon points="34,680 0,713 0,626" id="412" fill="rgb(221,222,224)" fill-opacity="0.501961" />
<polygon points="167,562 199,526 192,574" id="413" fill="rgb(203,176,156)" fill-opacity="0.501961" />
<polygon points="316,151 317,184 325,167" id="414" fill="rgb(209,164,130)" fill-opacity="0.501961" />
<polygon points="285,275 299,288 309,292" id="415" fill="rgb(147,101,75)" fill-opacity="0.501961" />
<polygon points="183,97 231,59 280,49" id="416" fill="rgb(232,219,210)" fill-opacity="0.501961" />
<polygon points="370,310 355,331 342,284" id="417" fill="rgb(213,189,169)" fill-opacity="0.501961" />
<polygon points="338,286 331,318 335,334" id="418" fill="rgb(197,154,122)" fill-opacity="0.501961" />
<polygon points="284,203 295,205 259,257" id="419" fill="rgb(187,142,113)" fill-opacity="0.501961" />
<polygon points="290,114 315,139 292,110" id="420" fill="rgb(199,187,180)" fill-opacity="0.501961" />
<polygon points="253,597 341,583 314,613" id="421" fill="rgb(152,115,90)" fill-opacity="0.501961" />
<polygon points="418,305 415,278 377,264" id="422" fill="rgb(207,185,167)" fill-opacity="0.501961" />
<polygon points="379,519 351,474 380,500" id="423" fill="rgb(205,178,156)" fill-opacity="0.501961" />
<polygon points="480,393 435,333 480,324" id="424" fill="rgb(228,229,230)" fill-opacity="0.501961" />
<polygon points="427,613 405,521 392,565" id="425" fill="rgb(223,220,222)" fill-opacity="0.501961" />
<polygon points="118,557 148,504 144,528" id="426" fill="rgb(186,148,123)" fill-opacity="0.501961" />
<polygon points="334,538 327,496 349,510" id="427" fill="rgb(188,161,139)" fill-opacity="0.501961" />
<polygon points="248,359 229,334 244,381" id="428" fill="rgb(188,143,113)" fill-opacity="0.501961" />
<polygon points="370,553 342,605 376,554" id="429" fill="rgb(175,141,122)" fill-opacity="0.501961" />
<polygon points="267,478 256,510 268,499" id="430" fill="rgb(168,130,106)" fill-opacity="0.501961" />
<polygon points="353,156 354,141 361,152" id="431" fill="rgb(200,179,162)" fill-opacity="0.501961" />
<polygon points="377,435 326,387 346,364" id="432" fill="rgb(203,187,179)" fill-opacity="0.501961" />
<polygon points="280,455 287,448 283,487" id="433" fill="rgb(200,178,159)" fill-opacity="0.501961" />
<polygon points="429,253 425,220 419,287" id="434" fill="rgb(218,212,212)" fill-opacity="0.501961" />
<polygon points="307,371 338,366 343,347" id="435" fill="rgb(199,169,145)" fill-opacity="0.501961" />
<polygon points="206,214 246,217 236,222" id="436" fill="rgb(169,115,84)" fill-opacity="0.501961" />
<polygon points="355,491 343,432 318,493" id="437" fill="rgb(196,168,149)" fill-opacity="0.501961" />
<polygon points="200,98 207,99 204,106" id="438" fill="rgb(12,13,18)" fill-opacity="0.501961" />
<polygon points="431,175 419,231 436,203" id="439" fill="rgb(216,208,202)" fill-opacity="0.501961" />
<polygon points="114,494 104,500 110,534" id="440" fill="rgb(198,159,132)" fill-opacity="0.501961" />
<polygon points="124,625 233,652 149,609" id="441" fill="rgb(218,213,215)" fill-opacity="0.501961" />
<polygon points="204,120 194,98 206,122" id="442" fill="rgb(190,156,132)" fill-opacity="0.501961" />
<polygon points="377,425 370,375 415,386" id="443" fill="rgb(227,226,228)" fill-opacity="0.501961" />
<polygon points="0,440 105,365 0,336" id="444" fill="rgb(235,236,240)" fill-opacity="0.501961" />
<polygon points="133,518 145,488 129,505" id="445" fill="rgb(175,131,102)" fill-opacity="0.501961" />
<polygon points="280,528 277,556 289,575" id="446" fill="rgb(205,181,160)" fill-opacity="0.501961" />
<polygon points="172,321 149,304 138,337" id="447" fill="rgb(216,189,165)" fill-opacity="0.501961" />
<polygon points="385,174 403,172 382,184" id="448" fill="rgb(171,158,152)" fill-opacity="0.501961" />
<polygon points="265,383 275,421 277,337" id="449" fill="rgb(179,137,104)" fill-opacity="0.501961" />
<polygon points="43,252 0,368 0,17" id="450" fill="rgb(240,241,245)" fill-opacity="0.501961" />
<polygon points="260,615 242,606 287,570" id="451" fill="rgb(171,138,118)" fill-opacity="0.501961" />
<polygon points="312,110 308,107 309,136" id="452" fill="rgb(204,199,196)" fill-opacity="0.501961" />
</svg>