
<svg version="1.1" id="Layer_1" xmlns="http://www.w3.org/2000/svg" xmlns:xlink="http://www.w3.org/1999/xlink" x="0px" y="0px"
	 width="100%" viewBox="0 0 1024 1024" enable-background="new 0 0 1024 1024" xml:space="preserve">
<path fill="#dbba99" opacity="1.000000" stroke="none" 
	d="M 263.1 637.1 C 263.1 636.9 263 636.7 263.3 636 C 265.7 619.7 267.9 604 269.9 588.3 C 271.1 579.2 272 570.2 273.2 561.1 C 273.7 561.1 273.8 561 274.4 561 C 278.3 560 281.8 559 285.3 558.1 C 304.3 553.6 323.4 549.2 342.5 544.6 C 344.4 544.2 346.2 542.9 348.3 542 C 349.2 542 349.6 542 350.2 542.2 C 350.5 542.6 350.8 542.8 351.1 543.2 C 351 543.6 351 543.8 350.7 544.2 C 342.9 562.5 335.4 580.7 327.9 598.9 C 323.6 609.6 319.4 620.4 315 631.3 C 314.6 631.8 314.3 632 313.6 632.2 C 296.5 633.8 279.8 635.5 263.1 637.1 z"/>
<path fill="#fbf8ef" opacity="1.000000" stroke="none" 
	d="M 332 442 C 339.3 440.3 346.6 438.5 354 437.1 C 360.6 435.8 367.3 434.7 374 433.9 C 377.3 433.5 380.8 433.9 384.5 434.4 C 383.3 440.2 381.4 445.5 380.3 451 C 379.1 456.7 375.9 460.4 371 463 C 365.4 466 359.6 468.7 354.3 472 C 350.6 474.2 347.4 477.3 343.6 479.9 C 342.2 480.3 341.1 480.6 339.7 481 C 328.9 493.7 318.4 506.3 307.6 519.1 C 296.6 532.5 285.8 545.8 274.7 558.7 C 274.3 556 274 553.5 274.1 551 C 275.4 531 276.7 511 278.2 490.6 C 279.1 482.4 282.9 476.6 290.3 473 C 298.4 468.1 306.1 463.1 314 458.6 C 321.6 454.2 329.5 450.2 337.8 445.8 C 335.1 444 333.6 443 332 442 z"/>
<path fill="#a47357" opacity="1.000000" stroke="none" 
	d="M 724.5 574.1 C 724 575 723.4 575.9 722.2 576.9 C 716.8 578.7 712.1 580.1 707.6 582 C 693 588.3 678.5 594.7 663.7 600.9 C 658.7 591.9 654 583.1 649.1 574.5 C 648.3 573 646.4 572.2 645 570.8 C 645 570.3 645 570.1 645 569.7 C 645 569.5 645.1 569.1 645.4 568.9 C 645.9 567.8 646.1 566.9 646.5 565.7 C 649.6 547.6 652.4 529.8 655.5 512.1 C 656.3 512.3 656.8 512.5 657.2 512.8 C 673.6 528.1 689.8 543.5 706.3 558.7 C 712.1 564.1 718.4 569 724.5 574.1 z"/>
<path fill="#f7ecdc" opacity="1.000000" stroke="none" 
	d="M 443 445 C 462.8 445.7 482.7 446.3 502.5 447 C 520.7 447.7 538.9 448.4 557.6 449.4 C 561.4 453.8 564.7 457.9 567.9 462.3 C 567.5 463 567.3 463.5 566.8 464 C 566.5 464 566 464 565.8 463.8 C 558.3 464.3 551.2 465.2 544 466 C 525.6 468 507.3 470 488.9 472.1 C 468.2 474.4 447.5 476.7 426.9 479.1 C 425.9 479.2 425 480.3 423.6 481 C 421.8 480.6 420.4 480.3 419 479.7 C 421.9 475.2 424.6 471.1 427.4 467.1 C 432.6 459.7 437.8 452.4 443 445 z"/>
<path fill="#91624e" opacity="1.000000" stroke="none" 
	d="M 216.1 835 C 217.1 830.2 218.3 825.4 219.1 820.6 C 221 809.4 222.7 798.2 224.4 787 C 225.4 780.9 226.3 774.9 227.1 768.4 C 227.7 765.6 228.2 763.1 229.3 760.3 C 234.2 756.6 238.6 753.3 243.3 750.3 C 244.1 753.7 244.4 756.8 245.1 759.8 C 246.3 765.6 247.6 771.3 248.9 777.3 C 248.7 778.8 248.5 779.9 248.2 781.3 C 248.1 781.5 248.2 782 248.1 782.3 C 247.9 783.3 247.8 784 247.5 785 C 244.6 799.5 241.9 813.8 238.8 828.2 C 236.7 836.5 235.3 844.7 232.8 852.5 C 229.3 863.2 225 873.5 220.6 884 C 216.7 883.4 213.1 883 209.5 882.4 C 209.5 882.3 209.7 882.2 209.7 882 C 209.7 881.5 209.5 881.2 209.2 880.6 C 210 875.9 210.7 871.5 211.6 866.8 C 212.5 861.1 213.2 855.8 214.1 850.1 C 214.9 844.9 215.5 840 216.1 835 z"/>
<path fill="#f9f3e9" opacity="1.000000" stroke="none" 
	d="M 442.6 444.9 C 437.8 452.4 432.6 459.7 427.4 467.1 C 424.6 471.1 421.9 475.2 418.8 479.7 C 418.3 480 418.1 480 417.5 480 C 406 479 395 478 383.6 477 C 370.1 478 357 478.9 344 479.9 C 347.4 477.3 350.6 474.2 354.3 472 C 359.6 468.7 365.4 466 371 463 C 375.9 460.4 379.1 456.7 380.3 451 C 381.4 445.5 383.3 440.2 385 434.4 C 404.1 437.6 423.2 441.1 442.6 444.9 z"/>
<path fill="#684439" opacity="1.000000" stroke="none" 
	d="M 664.2 694 C 663.8 695.4 663.4 696.9 662.5 698.7 C 661.7 699.7 661.2 700.1 661 700.7 C 655.3 715.8 649.6 730.9 643.6 746 C 637.2 744.7 631.2 743.3 625.3 741.6 C 625.3 740.5 625.2 739.7 625.5 738.7 C 632.7 715.8 639.7 693.2 646.7 670.5 C 649.9 660 652.9 649.5 656.3 638.9 C 658.1 638.2 659.5 637.6 661.4 637 C 666.9 636 672 635 677.1 634 C 675.3 642.6 673.5 651.2 671.8 660.2 C 669.5 670.6 667.2 680.7 664.6 691.4 C 664.3 692.7 664.3 693.3 664.2 694 z"/>
<path fill="#ac7f62" opacity="1.000000" stroke="none" 
	d="M 724.7 573.8 C 718.4 569 712.1 564.1 706.3 558.7 C 689.8 543.5 673.6 528.1 657.2 512.8 C 656.8 512.5 656.3 512.3 655.6 511.8 C 655.5 511 655.8 510.5 656.5 510 C 667.3 508.2 677.7 506.3 688.1 504.5 C 697.1 502.9 706 501.5 715 500.5 C 715.7 507 716.4 513.1 717.2 519.1 C 719.4 535.1 721.7 551.1 724.1 567.1 C 724.2 568.1 724.9 569.1 725.4 570.1 C 725.2 571.2 725.1 572.4 724.7 573.8 z"/>
<path fill="#f7ecdc" opacity="1.000000" stroke="none" 
	d="M 628 434 C 629.1 434 630.1 434 631.6 434.2 C 632.1 434.4 632.2 434.9 632.1 435.3 C 632 436.8 632 437.8 632 438.7 C 633 454.5 634 470.2 634.6 486 C 633.7 485.9 633.2 485.9 632.7 485.8 C 613.6 478.9 594.5 472.1 575.4 465.1 C 573.5 464.4 571.8 463.1 570.2 461.7 C 576.2 458.8 582 456.1 587.9 453.5 C 597.3 449.5 606.8 445.6 616.1 441.3 C 620.3 439.4 624.1 436.5 628 434 z"/>
<path fill="#a76845" opacity="1.000000" stroke="none" 
	d="M 263 637.3 C 279.8 635.5 296.5 633.8 313.6 632.4 C 314.1 632.7 314.1 633.1 313.9 633.4 C 313.2 634.4 312.6 635.2 311.7 636.1 C 302 645.9 292.6 655.5 283.3 665.2 C 274.7 674 266.2 682.9 257.6 691.7 C 256.7 692.7 255.2 693.2 253.9 693.5 C 254 692.1 253.9 691.1 254 690.1 C 256.8 674.5 259.6 658.8 262.3 643.1 C 262.6 641.8 262.2 640.4 262.1 639 C 262.4 638.5 262.6 638.1 263 637.3 z"/>
<path fill="#91624e" opacity="1.000000" stroke="none" 
	d="M 677.4 634 C 672 635 666.9 636 661.5 636.7 C 662.2 635.7 663.3 635.1 664.3 634.3 C 665.6 633.4 666.7 632.4 667.9 631.5 C 666.9 630.5 666 628.9 664.9 628.6 C 661 627.5 662 624.7 662.2 622.2 C 662.7 615.1 663.4 608.1 664 601 C 678.5 594.7 693 588.3 707.6 582 C 712.1 580.1 716.8 578.7 721.9 577.1 C 709.6 593.5 696.9 609.9 684.1 626.3 C 682.1 628.9 679.9 631.4 677.4 634 z"/>
<path fill="#c39673" opacity="1.000000" stroke="none" 
	d="M 725.6 569.8 C 724.9 569.1 724.2 568.1 724.1 567.1 C 721.7 551.1 719.4 535.1 717.2 519.1 C 716.4 513.1 715.7 507 715 500.1 C 715 498.9 715 498.5 715 497.6 C 715.7 493.6 716.3 490.1 717 486.5 C 719.7 474 722.3 461.5 725.3 449.3 C 727.4 459.7 729.2 470 731.3 480.1 C 731.7 482.2 732.9 484.1 733.8 486 C 737.9 506.2 731.9 525.7 729.6 545.5 C 728.6 553.5 727.1 561.5 725.6 569.8 z"/>
<path fill="#e5d6c1" opacity="1.000000" stroke="none" 
	d="M 278.1 491 C 276.7 511 275.4 531 274.1 551 C 274 553.5 274.3 556 274.6 559 C 274.5 560 274.3 560.5 274 561 C 273.8 561 273.7 561.1 273 561.1 C 272.5 561 272 560.9 272 560.6 C 268.5 554.1 265.1 547.8 261.3 541.8 C 254.6 530.8 247.6 519.9 240.8 509 C 241.1 507.9 241.4 506.7 242.3 505.3 C 244.3 504.7 245.8 504.5 247.1 503.9 C 257.5 499.6 267.8 495.3 278.1 491 z"/>
<path fill="#c9ac91" opacity="1.000000" stroke="none" 
	d="M 272 560.9 C 272 560.9 272.5 561 272.7 561.1 C 272 570.2 271.1 579.2 269.9 588.3 C 267.9 604 265.7 619.7 263.3 635.7 C 259.4 620.2 255.7 604.5 252.1 588.7 C 249.3 576.7 246.8 564.8 244.5 552.4 C 253.9 555 263 558 272 560.9 z"/>
<path fill="#bd997e" opacity="1.000000" stroke="none" 
	d="M 631 295 C 638.9 300.4 646.8 305.9 654.7 311.3 C 656.9 312.8 659.1 314.3 661.6 316.3 C 661.3 318.5 660.5 320.2 659.5 322.1 C 657.8 325.2 656.3 328.1 654.5 331 C 648.1 326.4 642.2 321.8 636 317.5 C 631.8 314.5 628 315.5 625.1 319.4 C 622.8 322.4 620.3 325.1 617.6 327.9 C 613.9 323.2 610.4 318.6 607.2 313.8 C 614 314 620.6 314.5 627.1 315.1 C 627.2 314.7 627.3 314.4 627.3 314.1 C 618.5 307.2 609.7 300.4 600.8 293.5 C 601.1 293 601.4 292.5 601.7 291.9 C 606.1 292.8 610.6 294 615.1 294.4 C 620.3 295 625.7 294.9 631 295 z"/>
<path fill="#cd9369" opacity="1.000000" stroke="none" 
	d="M 827.4 203.1 C 825.9 193.7 824.4 184.3 823.2 174.2 C 824.6 167.9 826 162.3 826.8 156.7 C 827.6 151.1 827.7 145.5 828.1 139.7 C 828.1 139 828.1 138.6 828.3 138.2 C 828.5 138.1 829 138 829.4 138 C 831.5 138.8 833.2 139.5 834.9 140.4 C 836.6 141.2 838.2 142.2 839.9 143.1 C 841.3 153.6 842.7 164.1 844 174.7 C 844.5 179.4 844.7 184.3 844.7 189.7 C 843.3 191.5 842.1 192.8 840.7 193.8 C 840.4 190.2 840.4 186.9 840.4 183.5 C 839.6 183.5 838.9 183.5 838.1 183.4 C 837.4 188.4 836.4 193.4 836.1 198.3 C 835.9 201.7 834.8 203.3 831.4 203 C 830 202.9 828.7 203.1 827.4 203.1 M 840.1 175.3 C 839.8 176.9 839.5 178.5 839.2 180.2 C 839.7 180.2 840.2 180.2 840.7 180.3 C 840.7 178.5 840.7 176.7 840.1 175.3 z"/>
<path fill="#cd9369" opacity="1.000000" stroke="none" 
	d="M 512.5 148.9 C 512.4 150 512.4 151 512.2 152.8 C 512.1 153.7 512.1 153.9 512.1 154.2 C 512 161.8 512 169.4 511.6 177.2 C 511.1 175.2 510.9 173.1 510.7 171 C 510.4 171 510.1 171 509.8 170.9 C 506.2 181.3 502.6 191.7 498.8 202 C 498.6 202 498.2 201.9 498.2 201.9 C 495.4 188.6 492.5 175.2 490 161.3 C 490.9 159.2 491.6 157.7 492.1 156.1 C 495.1 147.2 498 138.3 501 129.3 C 501 129.3 501.5 129.1 501.7 129.5 C 503.5 132.6 505 135.2 506.4 137.9 C 508.5 141.6 510.5 145.2 512.5 148.9 z"/>
<path fill="#ba8862" opacity="1.000000" stroke="none" 
	d="M 497 217.8 C 494.3 216.6 491.5 215.3 488.4 213.6 C 491 211 494 209 497.3 206.9 C 498.2 206.3 498.7 205.6 499.5 205.2 C 501.2 205.8 502.8 206.4 504.3 206.3 C 507 206.1 509.7 205.4 512.3 204.9 C 523.4 213.3 534.4 221.6 545.9 230.4 C 552.8 234 556.4 239.5 559.3 245.7 C 560.3 247.9 561.7 249.9 562.9 252.4 C 566 258.5 569 264.2 572 270.3 C 572 271 572 271.4 571.6 271.9 C 569.7 273 568.1 274 566.5 275.1 C 565.7 274.6 564.9 274.1 564.2 273 C 564 271.3 564.1 269.9 563.5 268.9 C 559.4 262.2 555.5 255.2 550.8 248.8 C 546.8 243.5 542.2 238.4 537.1 234.2 C 529.8 228.2 521.8 223.2 514.1 217.7 C 509.5 214.4 504.8 211.2 499.9 207.8 C 498.8 211.6 497.9 214.7 497 217.8 z"/>
<path fill="#efc59d" opacity="1.000000" stroke="none" 
	d="M 562.9 252.1 C 561.7 249.9 560.3 247.9 559.3 245.7 C 556.4 239.5 552.8 234 546.2 230.6 C 544.8 217 544.4 203.4 542.1 190.3 C 539.5 174.8 542.2 160.7 549.6 147.3 C 550.3 148.9 550.7 150.5 551 152.5 C 551.3 158.5 551.8 164.1 552 169.7 C 552.7 188.6 553.4 207.4 554 226.2 C 554.2 234 554.4 234.4 561.7 236.1 C 563.5 240.5 565.2 244.8 566.8 249.8 C 565.4 251 564.1 251.5 562.9 252.1 z"/>
<path fill="#c9ac91" opacity="1.000000" stroke="none" 
	d="M 632.2 434.9 C 632.2 434.9 632.1 434.4 632 434.2 C 632.1 433.7 632.2 433.4 633.1 433.1 C 645.5 430.3 657.3 427.6 669 425.4 C 668.5 430 668.1 434.1 667.4 438.1 C 666 447.5 664.5 456.7 663 466.4 C 662.3 467.1 661.7 467.6 660.8 467.8 C 658.6 465.4 656.8 463 654.9 460.8 C 647.3 452.2 639.7 443.5 632.2 434.9 z"/>
<path fill="#b57d57" opacity="1.000000" stroke="none" 
	d="M 497.3 218 C 497.9 214.7 498.8 211.6 499.9 207.8 C 504.8 211.2 509.5 214.4 514.1 217.7 C 521.8 223.2 529.8 228.2 537.1 234.2 C 542.2 238.4 546.8 243.5 550.8 248.8 C 555.5 255.2 559.4 262.2 563.5 268.9 C 564.1 269.9 564 271.3 564.1 272.7 C 547.4 258.5 530.8 243.8 514 229.5 C 509 225.2 503.1 221.9 497.3 218 z"/>
<path fill="#d4a47f" opacity="1.000000" stroke="none" 
	d="M 828.1 138.2 C 828.1 138.6 828.1 139 827.8 139.8 C 824 143.2 820.5 146.1 817 149 C 799.1 131.2 781.1 113.4 763.3 95.2 C 764.7 94.6 765.8 94.3 767.2 94.3 C 774.6 98.9 782.2 102.6 788.9 107.7 C 796.5 113.4 803 120.7 810.4 126.7 C 815.9 131.1 822.2 134.4 828.1 138.2 z"/>
<path fill="#efc59d" opacity="1.000000" stroke="none" 
	d="M 792 234 C 790.7 225.9 789.2 217.8 788.1 209.7 C 786 195.6 784.1 181.6 782.2 167.5 C 781.9 165.3 781.9 163.2 782 160.2 C 784.8 153.6 787.4 147.8 790 142 C 790.1 142.4 790.1 142.7 790.2 143.8 C 790.7 150.8 791.4 157 792 163.3 C 792.7 171.7 793.4 180.1 794.1 188.5 C 795.4 202.6 796.7 216.8 797.7 231.1 C 795.6 232.2 793.8 233.1 792 234 z"/>
<path fill="#b57d57" opacity="1.000000" stroke="none" 
	d="M 827.2 203.4 C 828.7 203.1 830 202.9 831.4 203 C 834.8 203.3 835.9 201.7 836.1 198.3 C 836.4 193.4 837.4 188.4 838.1 183.4 C 838.9 183.5 839.6 183.5 840.4 183.5 C 840.4 186.9 840.4 190.2 840.7 194.1 C 841 195.5 841 196.2 840.6 197 C 839.5 199.7 838.7 202.3 838 205.3 C 835 209.2 832.2 212.8 829.1 216.3 C 824.1 222 818.5 227.3 814 233.4 C 807.6 242 801.9 251.1 796 260.1 C 794.4 262.5 792.7 263.8 790.1 261.6 C 793.8 250.8 797.4 240.4 801.1 229.7 C 802.9 228 804.5 226.6 806 225.2 C 813 218 820 210.9 827.2 203.4 z"/>
<path fill="#c9ac91" opacity="1.000000" stroke="none" 
	d="M 756 299.2 C 766 296.5 775.9 293.7 785.9 291.1 C 788.9 290.3 792 289.8 795.1 289.5 C 795.8 289.4 796.6 290.8 796.9 291.8 C 795.6 292.5 794.8 292.8 794.2 293.3 C 786.4 300.1 778.6 306.9 770.9 313.8 C 770 314.6 769.6 315.9 768.6 317 C 766.7 317.6 765.1 317.9 763.7 318.7 C 758.1 321.8 752.6 325 747.1 327.7 C 747.9 325.3 748.7 323.4 749.3 321.3 C 751.6 314 753.8 306.6 756 299.2 z"/>
<path fill="#a47357" opacity="1.000000" stroke="none" 
	d="M 789.9 261.9 C 792.7 263.8 794.4 262.5 796 260.1 C 801.9 251.1 807.6 242 814 233.4 C 818.5 227.3 824.1 222 829.1 216.3 C 832.2 212.8 835 209.2 838.2 205.3 C 838.7 205 838.8 205 839.2 205.3 C 841.2 208.8 843.1 211.9 845.1 215.1 C 826.1 230.9 812.1 251.3 795.7 269.4 C 795.2 270 794.5 270.6 793.4 270.9 C 791.3 267.6 788.8 268 786.1 268.7 C 786.7 266.6 787.3 264.8 788.3 262.9 C 789 262.5 789.4 262.2 789.9 261.9 z"/>
<path fill="#d4a47f" opacity="1.000000" stroke="none" 
	d="M 512.7 148.5 C 510.5 145.2 508.5 141.6 506.4 137.9 C 505 135.2 503.5 132.6 502 129.5 C 508.7 125.1 515.5 121.1 522.9 117 C 527.1 115.4 530.6 113.8 534.1 112.5 C 541.2 109.9 548.4 107.5 555.6 105.1 C 543.1 117.2 530.6 129.2 518.2 141.4 C 516.2 143.4 514.6 145.9 512.7 148.5 z"/>
<path fill="#e4c5a4" opacity="1.000000" stroke="none" 
	d="M 669 425 C 657.3 427.6 645.5 430.3 633.4 433 C 641 422.8 649 412.6 657 402.5 C 659.8 399 662.7 395.6 665.3 391.9 C 666.2 390.5 666.2 388.5 667 386.4 C 667.6 386 667.8 386 668.2 386.2 C 668.5 386.9 668.7 387.3 668.9 388.2 C 668.9 400.6 669.1 412.7 669.2 424.9 C 669.1 424.9 669 425 669 425 z"/>
<path fill="#f5e3ce" opacity="1.000000" stroke="none" 
	d="M 278.2 490.6 C 267.8 495.3 257.5 499.6 247.1 503.9 C 245.8 504.5 244.3 504.7 242.5 505 C 249.5 495.8 256.4 486 264.5 477.4 C 269.9 471.8 277 467.8 283.7 463.4 C 285 464.8 286.1 465.8 286.8 467 C 288 468.9 289 471 290 473 C 282.9 476.6 279.1 482.4 278.2 490.6 z"/>
<path fill="#f5e3ce" opacity="1.000000" stroke="none" 
	d="M 659.8 321.9 C 660.5 320.2 661.3 318.5 662 316.4 C 662.5 315.6 663.2 315 664.2 314.2 C 668.2 308.9 671.8 303.9 675.3 299 C 689.6 299 703.8 299 718.8 299.2 C 723.5 303.8 727.4 308.3 731.4 312.7 C 731.8 313.1 732.9 312.7 733.8 313.1 C 735 315.7 736 317.8 736.6 320 C 734.5 320.7 732.8 321.4 731 321.6 C 728.4 319 726.1 316.4 723.2 314.6 C 715.9 310.2 708.4 306.2 700.8 301.7 C 699 301.8 697.3 301.8 696 302.6 C 687.1 308 678.4 313.7 669.3 318.9 C 666.5 320.6 663 320.9 659.8 321.9 z"/>
<path fill="#dec7ae" opacity="1.000000" stroke="none" 
	d="M 272 560.6 C 263 558 253.9 555 244.5 552 C 243.1 538 241.9 524 240.8 509.5 C 247.6 519.9 254.6 530.8 261.3 541.8 C 265.1 547.8 268.5 554.1 272 560.6 z"/>
<path fill="#f5e3ce" opacity="1.000000" stroke="none" 
	d="M 823 129 C 822.2 126 821.8 122.7 820.4 120 C 813.6 106.9 806.5 93.9 799.5 80.8 C 799.3 80.3 799.2 79.6 798.7 77.8 C 803.1 81.6 806.7 84.5 810.1 87.7 C 817.9 95 825.6 102.3 833.1 109.8 C 834.5 111.2 835.1 113.4 835.7 115.9 C 834 122 832.5 127.5 830.6 133 C 827.8 131.7 825.4 130.3 823 129 z"/>
<path fill="#f8efe1" opacity="1.000000" stroke="none" 
	d="M 627.6 434.1 C 624.1 436.5 620.3 439.4 616.1 441.3 C 606.8 445.6 597.3 449.5 587.9 453.5 C 582 456.1 576.2 458.8 569.8 461.7 C 568.9 462 568.4 462 568 462 C 564.7 457.9 561.4 453.8 558 449.4 C 578.7 444.7 599.4 440.4 620 436 C 622.5 435.5 624.8 434.7 627.6 434.1 z"/>
<path fill="#6d4031" opacity="1.000000" stroke="none" 
	d="M 786.1 275.2 C 778 279.4 769.7 283.2 762 288 C 754.9 292.4 748.4 297.8 741.2 302.6 C 737.2 298.9 733.6 295.5 730.2 291.7 C 736.6 288.5 742.7 285.5 748.8 282.6 C 752.9 280.7 756.9 278.9 761.4 277 C 769.5 275 777.2 272.9 785.2 271.2 C 785.7 272.7 785.9 273.9 786.1 275.2 z"/>
<path fill="#dbba99" opacity="1.000000" stroke="none" 
	d="M 551 152 C 550.7 150.5 550.3 148.9 549.9 147 C 554 140.2 558.2 133.6 562.7 127.3 C 568.4 119.2 574.5 111.3 580.7 103.2 C 581 103 581 103 581 103 C 578.3 110.8 575.9 118.7 573 126.4 C 568.3 139.1 563.2 151.7 557.7 164.6 C 555.2 160.6 553.1 156.3 551 152 z"/>
<path fill="#a47357" opacity="1.000000" stroke="none" 
	d="M 729.9 392.1 C 730 392.5 730 393 729.8 394 C 729.3 395.9 729.1 397.2 729 398.5 C 728 413.6 727 428.8 726 444 C 726 444 725.9 443.9 725.6 443.9 C 724.3 442.6 723.2 441.5 722.6 440.1 C 719.6 432.6 716.6 425.1 713.8 417.5 C 712.1 412.8 710.6 407.9 709.5 403.1 C 713.8 402.2 719 405.4 721.4 399.1 C 724.4 396.7 727.2 394.4 729.9 392.1 z"/>
<path fill="#6d4031" opacity="1.000000" stroke="none" 
	d="M 629 279.8 C 629.8 279.8 630.5 279.8 631.7 280 C 639.3 283.2 646.4 286 653.4 289.1 C 656.4 290.4 659.2 292.3 661.7 293.9 C 656.2 294.5 651.1 295.2 646 295.8 C 625.6 290.6 605.2 285.3 584.7 280 C 583.1 279.6 581.5 279.3 579.7 278.6 C 580.4 277.9 581.2 277.4 582.5 276.9 C 596.3 278.5 609.6 280 623 281.5 C 625.1 281.7 628 283.7 629 279.8 z"/>
<path fill="#efd9c1" opacity="1.000000" stroke="none" 
	d="M 551 152.5 C 553.1 156.3 555.2 160.6 557.6 164.9 C 559.3 186.2 560.6 207.5 561.9 228.7 C 562 230.9 561.9 233 561.8 235.7 C 554.4 234.4 554.2 234 554 226.2 C 553.4 207.4 552.7 188.6 552 169.7 C 551.8 164.1 551.3 158.5 551 152.5 z"/>
<path fill="#e9cfb2" opacity="1.000000" stroke="none" 
	d="M 805.9 224.8 C 804.5 226.6 802.9 228 800.8 229.7 C 799.6 230.3 798.8 230.6 798 230.9 C 796.7 216.8 795.4 202.6 794.1 188.5 C 793.4 180.1 792.7 171.7 792 163.3 C 791.4 157 790.7 150.8 790.2 144.1 C 792.5 149.9 795.7 156.1 796.8 162.5 C 799.9 180.6 802.2 198.9 804.8 217.1 C 805.1 219.5 805.4 222 805.9 224.8 z"/>
<path fill="#b08c74" opacity="1.000000" stroke="none" 
	d="M 617.9 328 C 620.3 325.1 622.8 322.4 625.1 319.4 C 628 315.5 631.8 314.5 636 317.5 C 642.2 321.8 648.1 326.4 654.6 331.3 C 655.4 332.6 655.8 333.4 656.4 334.5 C 656.9 335.5 657.4 336.3 657.6 337.2 C 657.2 338.2 657.1 339 657 339.7 C 655.9 339.8 654.8 339.8 653.1 339.6 C 641.3 336.2 630.1 333.1 618.8 329.8 C 618.4 329 618.2 328.5 617.9 328 z"/>
<path fill="#855e4e" opacity="1.000000" stroke="none" 
	d="M 662 293.9 C 659.2 292.3 656.4 290.4 653.4 289.1 C 646.4 286 639.3 283.2 632 279.9 C 635 277 638 274.4 641.5 271.4 C 644.7 269.6 647.4 268.2 650.5 266.8 C 651.6 266.8 652.3 266.8 653.1 266.9 C 659.6 276.4 666.2 285.9 672.4 295.8 C 668.7 295.4 665.4 294.7 662 293.9 z"/>
<path fill="#f8efe1" opacity="1.000000" stroke="none" 
	d="M 290.3 473 C 289 471 288 468.9 286.8 467 C 286.1 465.8 285 464.8 284 463.4 C 290.5 459.9 297 456.7 303.6 453.8 C 312.7 449.7 322 445.9 331.6 442 C 333.6 443 335.1 444 337.8 445.8 C 329.5 450.2 321.6 454.2 314 458.6 C 306.1 463.1 298.4 468.1 290.3 473 z"/>
<path fill="#efd9c1" opacity="1.000000" stroke="none" 
	d="M 790 141.6 C 787.4 147.8 784.8 153.6 782 159.8 C 780.4 155.9 779.1 151.6 777.7 147.4 C 773 133.6 768.2 119.8 763.5 105.9 C 762.9 104.3 762.4 102.6 761.9 100.9 C 762.4 100.6 762.9 100.3 763.3 100.1 C 772.2 113.8 781.1 127.6 790 141.6 z"/>
<path fill="#dec7ae" opacity="1.000000" stroke="none" 
	d="M 738.9 344.9 C 740.6 352.9 742.7 360.9 739.5 369 C 737 375.3 734.2 381.5 731.3 387.5 C 731.3 382.4 732.3 377.5 731.8 372.7 C 731.3 368 729.3 363.5 727.7 358.8 C 726.6 357.8 725.8 356.9 725 355.5 C 725 348.4 724.9 341.7 725.1 335.1 C 725.2 333.3 726.4 331.6 727.3 330.1 C 729 331.8 730.4 333.4 731.7 335.3 C 730.7 338.7 729.7 341.7 728.4 345.5 C 732.5 345.3 735.7 345.1 738.9 344.9 z"/>
<path fill="#cd9369" opacity="1.000000" stroke="none" 
	d="M 636.8 258.9 C 634.2 247.7 631.5 236.5 629 225.3 C 628.5 222.8 628.6 220.1 629.1 217.3 C 632.3 216.2 634.9 215.3 637.8 214.4 C 639.3 223.6 640.3 232.5 642.1 241.1 C 643.6 248.8 646 256.4 647.7 263.9 C 643.8 262.1 640.3 260.5 636.8 258.9 z"/>
<path fill="#cd9369" opacity="1.000000" stroke="none" 
	d="M 262 639.3 C 262.2 640.4 262.6 641.8 262.3 643.1 C 259.6 658.8 256.8 674.5 254 690.1 C 253.9 691.1 254 692.1 253.8 693.8 C 253.1 695.3 252.5 696.1 251.5 697 C 246.2 699.4 241.2 701.7 236.2 704.1 C 244.8 682.6 253.3 661.2 262 639.3 z"/>
<path fill="#dbba99" opacity="1.000000" stroke="none" 
	d="M 648 264 C 646 256.4 643.6 248.8 642.1 241.1 C 640.3 232.5 639.3 223.6 637.8 214.4 C 634.9 215.3 632.3 216.2 629.3 217 C 633.3 206.3 637.6 195.5 641.9 184.8 C 642.2 184.9 642.5 185 642.8 185.1 C 642.5 191.5 641.9 198 641.8 204.4 C 641.7 210 641.5 215.7 642.6 221.1 C 645.7 236.1 649.5 251.1 653.1 266.5 C 652.3 266.8 651.6 266.8 650.5 266.4 C 649.4 265.4 648.7 264.7 648 264 z"/>
<path fill="#a76845" opacity="1.000000" stroke="none" 
	d="M 243 750 C 238.6 753.3 234.2 756.6 229.4 759.9 C 227.4 747.6 225.7 735.2 224.4 722.4 C 229.9 724 234.9 726 240 728.3 C 240.1 728.7 240.1 728.9 240.1 729.5 C 241 736.6 242 743.3 243 750 z"/>
<path fill="#efd9c1" opacity="1.000000" stroke="none" 
	d="M 728 359 C 729.3 363.5 731.3 368 731.8 372.7 C 732.3 377.5 731.3 382.4 731 387.7 C 730.7 389.3 730.3 390.4 730 391.8 C 727.2 394.4 724.4 396.7 721.2 398.8 C 717.5 396 714.2 393.5 711 390.6 C 712.9 387.5 714.6 384.8 716.6 382 C 718.3 380.6 720.2 379.5 720.9 377.9 C 722.9 373.1 724.4 368 726.3 362.8 C 727.1 361.4 727.5 360.2 728 359 z"/>
<path fill="#b57d57" opacity="1.000000" stroke="none" 
	d="M 240 728 C 234.9 726 229.9 724 224.4 722 C 224.7 720.3 225 718.3 226.1 716.9 C 229.1 712.6 232.5 708.7 236 704.3 C 241.2 701.7 246.2 699.4 251.5 697.4 C 251 700 250 702.3 249.2 704.6 C 246.4 712.1 243.7 719.5 240.8 727.1 C 240.3 727.4 240.1 727.7 240 728 z"/>
<path fill="#e9cfb2" opacity="1.000000" stroke="none" 
	d="M 668.1 385.9 C 667.8 386 667.6 386 666.9 386 C 663.2 378.3 657.4 371.1 660 361.3 C 664.7 356.2 668.9 351.7 673.4 346.9 C 672.1 342.5 670.5 338.3 669.3 334 C 670.8 331.3 671.9 328.7 673.1 326.2 C 673.4 325.6 674.4 325.4 675 325.4 C 675.3 331 675.7 336 676 341.4 C 676 345.2 676 348.6 675.7 352.2 C 670.8 363.1 669.1 374.5 668.1 385.9 z"/>
<path fill="#d4a47f" opacity="1.000000" stroke="none" 
	d="M 733.9 485.6 C 732.9 484.1 731.7 482.2 731.3 480.1 C 729.2 470 727.4 459.7 725.3 448.9 C 725 447.5 725 446.7 725.1 445.7 C 725.5 445 725.7 444.4 725.9 443.9 C 725.9 443.9 726 444 726.3 443.9 C 728.2 442.7 729.7 441.5 731.2 440.3 C 734.1 437.9 736.9 435.4 739.8 433 C 738.7 442 737.7 451 736.7 460 C 735.7 468.4 734.9 476.8 733.9 485.6 z"/>
<path fill="#d5b291" opacity="1.000000" stroke="none" 
	d="M 500.7 129.2 C 498 138.3 495.1 147.2 492.1 156.1 C 491.6 157.7 490.9 159.2 490 160.9 C 488 146.4 486.4 131.7 484.9 116.3 C 487.1 117.1 489 118.6 491.1 120.3 C 494.1 122.8 496.8 125 499.6 127.2 C 499.9 127.8 500.2 128.4 500.7 129.2 z"/>
<path fill="#c39673" opacity="1.000000" stroke="none" 
	d="M 739.9 432.6 C 736.9 435.4 734.1 437.9 731.2 440.3 C 729.7 441.5 728.2 442.7 726.3 443.9 C 727 428.8 728 413.6 729 398.5 C 729.1 397.2 729.3 395.9 729.8 394.3 C 733.5 405.6 736.9 417.3 740.2 428.9 C 740.5 430 740.1 431.2 739.9 432.6 z"/>
<path fill="#dbba99" opacity="1.000000" stroke="none" 
	d="M 630.8 294.7 C 625.7 294.9 620.3 295 615.1 294.4 C 610.6 294 606.1 292.8 601.7 291.9 C 601.4 292.5 601.1 293 600.8 293.5 C 609.7 300.4 618.5 307.2 627.3 314.1 C 627.3 314.4 627.2 314.7 627.1 315.1 C 620.6 314.5 614 314 606.9 313.8 C 606.3 314.1 606.1 314.1 605.9 314.1 C 603.1 306.4 600.4 298.7 597.4 290.4 C 609.5 288.1 620.1 291 630.8 294.7 z"/>
<path fill="#a47357" opacity="1.000000" stroke="none" 
	d="M 628.8 279.5 C 628 283.7 625.1 281.7 623 281.5 C 609.6 280 596.3 278.5 582.5 276.9 C 582 277 582 277 581.8 276.7 C 580.8 276.3 579.9 276.1 578.8 275.7 C 576.3 274.2 574.2 273 572 271.9 C 572 271.4 572 271 572.4 270.3 C 575.5 269.1 578.3 268.2 581 267.3 C 596.9 271.3 612.7 275.2 628.8 279.5 z"/>
<path fill="#efd9c1" opacity="1.000000" stroke="none" 
	d="M 491 120 C 489 118.6 487.1 117.1 484.9 115.9 C 483.1 111.3 484.3 107.3 486.8 103 C 493.6 91.5 499.9 79.8 506.6 68.4 C 504.9 75.9 503.1 83.3 500.9 90.5 C 497.8 100.4 494.3 110.2 491 120 z"/>
<path fill="#e9cfb2" opacity="1.000000" stroke="none" 
	d="M 491.1 120.3 C 494.3 110.2 497.8 100.4 500.9 90.5 C 503.1 83.3 504.9 75.9 506.9 68.2 C 507.5 66.1 508.2 64.3 508.9 62.5 C 509.2 62.6 509.6 62.8 509.9 62.9 C 506.6 84 503.2 105.2 499.7 126.7 C 496.8 125 494.1 122.8 491.1 120.3 z"/>
<path fill="#865842" opacity="1.000000" stroke="none" 
	d="M 761 277 C 756.9 278.9 752.9 280.7 748.8 282.6 C 742.7 285.5 736.6 288.5 729.8 291.7 C 727.6 292.4 725.9 292.7 724.2 293.1 C 726.3 289.9 728.5 286.7 731.2 283.3 C 734.4 280.6 737.1 278.4 739.5 275.8 C 741.7 273.5 743.2 269.2 745.7 268.7 C 748.4 268.1 751.8 270.8 755 272 C 756.7 273.1 758.5 274.1 760.6 275.5 C 761 276.2 761 276.6 761 277 z"/>
<path fill="#dbba99" opacity="1.000000" stroke="none" 
	d="M 737 320 C 736 317.8 735 315.7 733.9 313.1 C 733.8 312.8 733.8 312.9 734.1 312.9 C 735.6 312.3 736.8 311.6 738 311 C 743.8 307.1 749.6 303.3 755.7 299.3 C 753.8 306.6 751.6 314 749.3 321.3 C 748.7 323.4 747.9 325.3 747 328 C 745.9 329.4 744.9 330.2 743.7 330.8 C 741.3 327.1 739.1 323.5 737 320 z"/>
<path fill="#2d1f22" opacity="1.000000" stroke="none" 
	d="M 661.7 293.9 C 665.4 294.7 668.7 295.4 672.4 296.1 C 673.6 296.8 674.4 297.6 675.3 298.6 C 671.8 303.9 668.2 308.9 664.4 313.9 C 658.2 308 652.4 302.1 646.4 296 C 651.1 295.2 656.2 294.5 661.7 293.9 z"/>
<path fill="#e4c5a4" opacity="1.000000" stroke="none" 
	d="M 822.7 128.8 C 825.4 130.3 827.8 131.7 830.5 133.3 C 830.2 135.1 829.6 136.6 829 138 C 829 138 828.5 138.1 828.3 138.2 C 822.2 134.4 815.9 131.1 810.4 126.7 C 803 120.7 796.5 113.4 788.9 107.7 C 782.2 102.6 774.6 98.9 767.2 94 C 767 93 767 92.6 767 92.1 C 781.5 97 792.3 107.6 804.5 116.1 C 810.5 120.3 816.4 124.5 822.7 128.8 z"/>
<path fill="#e4c5a4" opacity="1.000000" stroke="none" 
	d="M 555.9 105 C 548.4 107.5 541.2 109.9 534.1 112.5 C 530.6 113.8 527.1 115.4 523.3 116.9 C 530.6 109.5 538.9 102.8 549.2 99 C 555.9 96.5 562.3 93.4 568.9 90.7 C 569.7 90.4 570.7 90.4 572.1 91.1 C 566.8 95.7 561.5 100.3 555.9 105 z"/>
<path fill="#d5b291" opacity="1.000000" stroke="none" 
	d="M 619 330 C 630.1 333.1 641.3 336.2 652.7 339.5 C 646.1 341.1 639.2 342.6 632.4 343.9 C 628.8 344.6 625.2 344.9 621.1 345.5 C 620.5 344 619.9 342.3 619.5 340.1 C 619.5 336.3 619.2 333.2 619 330 z"/>
<path fill="#e5d6c1" opacity="1.000000" stroke="none" 
	d="M 769 317 C 769.6 315.9 770 314.6 770.9 313.8 C 778.6 306.9 786.4 300.1 794.2 293.3 C 794.8 292.8 795.6 292.5 796.6 292 C 794.9 299.5 792.8 307 789.9 314.8 C 782.8 315.7 776.3 316.4 769.7 317.1 C 769.4 317.1 769 317 769 317 z"/>
<path fill="#b57d57" opacity="1.000000" stroke="none" 
	d="M 512.3 204.5 C 509.7 205.4 507 206.1 504.3 206.3 C 502.8 206.4 501.2 205.8 499.4 204.9 C 499.1 203.5 499 202.8 499 202 C 502.6 191.7 506.2 181.3 509.8 170.9 C 510.1 171 510.4 171 510.7 171 C 510.9 173.1 511.1 175.2 511.5 177.6 C 511.8 184.3 511.8 190.7 511.6 197.8 C 511.5 199.3 511.7 200.1 511.8 201 C 512 202 512.1 203.1 512.3 204.5 z"/>
<path fill="#e5d6c1" opacity="1.000000" stroke="none" 
	d="M 786.9 319.9 C 783.5 326.1 780.1 332.4 776.6 338.6 C 776.2 339.3 775 340 774.2 339.9 C 763.4 339.8 752.6 339.4 741.4 338.8 C 741.3 337.8 741.6 337.2 742.1 337 C 748.6 336.1 755 334.9 761.3 333.3 C 767 331.8 772.5 329.8 778.3 327.9 C 781.4 325.1 784.1 322.5 786.9 319.9 z"/>
<path fill="#442923" opacity="1.000000" stroke="none" 
	d="M 723.9 293.3 C 725.9 292.7 727.6 292.4 729.6 292 C 733.6 295.5 737.2 298.9 740.9 302.7 C 739.3 305.1 737.7 307.2 735.6 309.8 C 734.7 311.1 734.2 312 733.8 312.9 C 733.8 312.9 733.8 312.8 733.7 312.8 C 732.9 312.7 731.8 313.1 731.4 312.7 C 727.4 308.3 723.5 303.8 719.3 299.2 C 720.6 297.2 722.1 295.3 723.9 293.3 z"/>
<path fill="#d4a47f" opacity="1.000000" stroke="none" 
	d="M 740.9 266.9 C 744.3 251.6 747.7 236.2 751.6 220.5 C 752.6 220.3 753.3 220.6 754 221.3 C 752.3 234.5 750.6 247.2 748.8 260.3 C 746.7 263.4 745.7 267.6 740.9 266.9 z"/>
<path fill="#d5b291" opacity="1.000000" stroke="none" 
	d="M 817.2 149.3 C 820.5 146.1 824 143.2 827.8 140.1 C 827.7 145.5 827.6 151.1 826.8 156.7 C 826 162.3 824.6 167.9 823.2 173.8 C 821 165.9 819.1 157.8 817.2 149.3 z"/>
<path fill="#efd9c1" opacity="1.000000" stroke="none" 
	d="M 870 177 C 865.6 186.2 861.2 195.4 856.3 204.7 C 854.5 203.7 853.3 202.7 851.9 201.5 C 850.5 199.8 849.2 198.4 848 197.1 C 855.1 190.4 862.2 183.7 869.7 177 C 870 177 870 177 870 177 z"/>
<path fill="#dbba99" opacity="1.000000" stroke="none" 
	d="M 498.8 202 C 499 202.8 499.1 203.5 499.2 204.6 C 498.7 205.6 498.2 206.3 497.1 206.7 C 493 204.8 489.5 203.2 486.4 201.7 C 485.7 205.6 485.3 208.3 484.9 211.1 C 479.6 204.1 474.4 197.1 469.1 190.2 C 469.3 189.9 469.5 189.6 469.7 189.4 C 479 193.7 488.4 198 498 202.1 C 498.2 201.9 498.6 202 498.8 202 M 483.6 200.5 C 483.6 200.5 483.5 200.6 483.6 200.5 z"/>
<path fill="#d4a47f" opacity="1.000000" stroke="none" 
	d="M 797.7 231.1 C 798.8 230.6 799.6 230.3 800.6 230 C 797.4 240.4 793.8 250.8 790.1 261.6 C 789.4 262.2 789 262.5 788.1 262.6 C 786.4 261.9 785.1 261.4 783.9 260.9 C 786.6 252.2 789.2 243.5 791.9 234.4 C 793.8 233.1 795.6 232.2 797.7 231.1 z"/>
<path fill="#b48a6c" opacity="1.000000" stroke="none" 
	d="M 740.6 267.1 C 745.7 267.6 746.7 263.4 749.2 260.3 C 751.1 259.3 752.6 258.7 754.3 258 C 755.8 257.7 756.9 257.3 758 257 C 757 261.8 756 266.5 755 271.6 C 751.8 270.8 748.4 268.1 745.7 268.7 C 743.2 269.2 741.7 273.5 739.5 275.8 C 737.1 278.4 734.4 280.6 731.4 283 C 734.2 277.8 737.3 272.6 740.6 267.1 z"/>
<path fill="#c39673" opacity="1.000000" stroke="none" 
	d="M 754 258 C 752.6 258.7 751.1 259.3 749.3 260 C 750.6 247.2 752.3 234.5 754.4 221.3 C 756.5 221.6 758.2 222.3 760 223 C 760 226.4 760 229.8 759.5 233.6 C 758 234.6 756.3 235.1 756.2 235.9 C 755.3 243.2 754.7 250.6 754 258 z"/>
<path fill="#ac7f62" opacity="1.000000" stroke="none" 
	d="M 783.6 261 C 785.1 261.4 786.4 261.9 787.8 262.7 C 787.3 264.8 786.7 266.6 785.9 269 C 785.5 270 785.2 270.5 784.9 270.9 C 777.2 272.9 769.5 275 761.4 277 C 761 276.6 761 276.2 761 275.4 C 768.4 270.4 775.8 265.8 783.6 261 z"/>
<path fill="#dbba99" opacity="1.000000" stroke="none" 
	d="M 829.4 138 C 829.6 136.6 830.2 135.1 830.9 133.3 C 832.5 127.5 834 122 835.7 116.3 C 837.3 124.7 838.7 133.5 840 142.6 C 838.2 142.2 836.6 141.2 834.9 140.4 C 833.2 139.5 831.5 138.8 829.4 138 z"/>
<path fill="#c9ac91" opacity="1.000000" stroke="none" 
	d="M 786.9 319.6 C 784.1 322.5 781.4 325.1 778 327.7 C 774.9 324.2 772.4 320.7 769.9 317.2 C 776.3 316.4 782.8 315.7 789.6 315 C 789 316.4 788 317.8 786.9 319.6 z"/>
<path fill="#e4c5a4" opacity="1.000000" stroke="none" 
	d="M 580.8 267 C 578.3 268.2 575.5 269.1 572.4 270 C 569 264.2 566 258.5 562.9 252.4 C 564.1 251.5 565.4 251 566.9 250.2 C 569.3 253.5 571.3 257.3 573.9 260.6 C 575.7 263 578.4 264.7 580.8 267 z"/>
<path fill="#c9ac91" opacity="1.000000" stroke="none" 
	d="M 673 347.1 C 668.9 351.7 664.7 356.2 660.2 361 C 659.1 354.2 658.3 347.3 657.2 340.1 C 657.1 339 657.2 338.2 657.7 337.6 C 662 348 662 348.1 672.5 347.1 C 672.7 347.1 672.9 347.1 673 347.1 z"/>
<path fill="#dbba99" opacity="1.000000" stroke="none" 
	d="M 760 222.6 C 758.2 222.3 756.5 221.6 754.4 220.9 C 753.3 220.6 752.6 220.3 751.7 220.1 C 751.4 212.5 751.4 204.9 751.4 197.3 C 751.6 197.2 751.8 197.1 752.1 197 C 754.7 205.4 757.3 213.8 760 222.6 z"/>
<path fill="#2d1f22" opacity="1.000000" stroke="none" 
	d="M 741.9 336.7 C 741.6 337.2 741.3 337.8 741 338.7 C 740.3 340.7 739.7 342.5 739 344.6 C 735.7 345.1 732.5 345.3 728.4 345.5 C 729.7 341.7 730.7 338.7 731.8 334.9 C 735.3 333.7 738.6 333.4 742 333.4 C 742 334.7 742 335.7 741.9 336.7 z"/>
<path fill="#c39673" opacity="1.000000" stroke="none" 
	d="M 852.1 201.7 C 853.3 202.7 854.5 203.7 856 204.9 C 852.8 208.3 849.2 211.6 845.4 215 C 843.1 211.9 841.2 208.8 839.4 205.3 C 839.7 205 839.9 205 840.5 205 C 844.6 203.9 848.3 202.8 852.1 201.7 z"/>
<path fill="#d4a47f" opacity="1.000000" stroke="none" 
	d="M 754.3 258 C 754.7 250.6 755.3 243.2 756.2 235.9 C 756.3 235.1 758 234.6 759.4 234 C 759.3 241.4 758.9 248.9 758.2 256.7 C 756.9 257.3 755.8 257.7 754.3 258 z"/>
<path fill="#d4a47f" opacity="1.000000" stroke="none" 
	d="M 851.9 201.5 C 848.3 202.8 844.6 203.9 840.4 204.6 C 840.3 201.8 840.6 199.4 840.9 196.9 C 841 196.2 841 195.5 841 194.4 C 842.1 192.8 843.3 191.5 844.7 190.1 C 845.8 192.2 846.6 194.4 847.7 196.8 C 849.2 198.4 850.5 199.8 851.9 201.5 z"/>
<path fill="#e5d8c8" opacity="1.000000" stroke="none" 
	d="M 618.8 329.8 C 619.2 333.2 619.5 336.3 619.4 339.7 C 614.8 331.6 610.4 323.2 605.9 314.4 C 606.1 314.1 606.3 314.1 606.7 314 C 610.4 318.6 613.9 323.2 617.6 327.9 C 618.2 328.5 618.4 329 618.8 329.8 z"/>
<path fill="#a47357" opacity="1.000000" stroke="none" 
	d="M 647.7 263.9 C 648.7 264.7 649.4 265.4 650.1 266.5 C 647.4 268.2 644.7 269.6 641.6 271 C 639.8 267.3 638.3 263.5 636.8 259.3 C 640.3 260.5 643.8 262.1 647.7 263.9 z"/>
<path fill="#d5b291" opacity="1.000000" stroke="none" 
	d="M 485 211.4 C 485.3 208.3 485.7 205.6 486.4 201.7 C 489.5 203.2 493 204.8 496.8 206.7 C 494 209 491 211 488.1 213.4 C 487.1 213.1 486.1 212.4 485 211.4 z"/>
<path fill="#865842" opacity="1.000000" stroke="none" 
	d="M 571.6 271.9 C 574.2 273 576.3 274.2 579 275.9 C 580.3 276.7 581.2 276.8 582 277 C 582 277 582 277 582 277 C 581.2 277.4 580.4 277.9 579.3 278.5 C 575.1 277.7 571 276.7 566.7 275.4 C 568.1 274 569.7 273 571.6 271.9 z"/>
<path fill="#dbba99" opacity="1.000000" stroke="none" 
	d="M 766.7 92 C 767 92.6 767 93 767 93.7 C 765.8 94.3 764.7 94.6 763.2 94.9 C 760.5 92.6 758.2 90.3 755.9 87.6 C 755.9 87.1 756.1 86.8 756.1 86.8 C 759.5 88.5 763 90.1 766.7 92 z"/>
<path fill="#865842" opacity="1.000000" stroke="none" 
	d="M 785.2 271.2 C 785.2 270.5 785.5 270 785.9 269.3 C 788.8 268 791.3 267.6 793.1 271.1 C 791.1 272.6 789 273.9 786.4 275.2 C 785.9 273.9 785.7 272.7 785.2 271.2 z"/>
<path fill="#f5e3ce" opacity="1.000000" stroke="none" 
	d="M 734.1 312.9 C 734.2 312 734.7 311.1 735.4 310.1 C 736.2 310.2 736.8 310.5 737.7 310.8 C 736.8 311.6 735.6 312.3 734.1 312.9 z"/>
<path fill="#cd9369" opacity="1.000000" stroke="none" 
	d="M 511.9 200.6 C 511.7 200.1 511.5 199.3 511.6 198.2 C 511.8 198.8 511.9 199.5 511.9 200.6 z"/>
<path fill="#dbba99" opacity="1.000000" stroke="none" 
	d="M 755.8 87.2 C 755.3 87 755 86.7 754.6 86.4 C 755 86.4 755.4 86.4 756 86.6 C 756.1 86.8 755.9 87.1 755.8 87.2 z"/>
<path fill="#d4a47f" opacity="1.000000" stroke="none" 
	d="M 512.2 154 C 512.1 153.9 512.1 153.7 512.1 153.1 C 512.3 153 512.4 153.2 512.5 153.5 C 512.5 153.6 512.4 153.7 512.2 154 z"/>
<path fill="#e4c5a4" opacity="1.000000" stroke="none" 
	d="M 573.4 89.4 C 573.5 89.4 573.5 89.6 573.5 89.6 C 573.5 89.6 573.3 89.5 573.4 89.4 z"/>
<path fill="#dbba99" opacity="1.000000" stroke="none" 
	d="M 581 103 C 581.1 103 581.2 102.9 581.1 102.9 C 581 103 581 103 581 103 z"/>
<path fill="#dbba99" opacity="1.000000" stroke="none" 
	d="M 582.5 100.5 C 582.5 100.5 582.5 100.5 582.5 100.5 z"/>
<path fill="#efd9c1" opacity="1.000000" stroke="none" 
	d="M 761.6 98.5 C 761.6 98.5 761.4 98.6 761.4 98.6 C 761.4 98.6 761.5 98.4 761.6 98.5 z"/>
<path fill="#efd9c1" opacity="1.000000" stroke="none" 
	d="M 870 177 C 870.1 177 870.2 176.9 870.1 176.9 C 870 177 870 177 870 177 z"/>
<path fill="#57362d" opacity="1.000000" stroke="none" 
	d="M 661.8 706.8 C 661.5 719.4 661.2 731.8 660.6 744.9 C 660.2 746.6 660.2 747.6 660.1 748.6 C 660.1 748.6 660.3 748.8 660.2 748.9 C 660.2 749.1 660 749 659.7 749.1 C 659.4 749.5 659.2 749.8 659 750.1 C 659 750.1 659.1 750.1 658.7 750 C 655.8 747.5 652.8 746.5 649.1 746.9 C 647.5 747.1 645.7 746.3 644 746 C 649.6 730.9 655.3 715.8 661 700.7 C 661.2 700.1 661.7 699.7 662.4 699.1 C 662.4 701.5 662.1 704.1 661.8 706.8 z"/>
<path fill="#fbfbf8" opacity="1.000000" stroke="none" 
	d="M 664.4 693.7 C 664.3 693.3 664.3 692.7 664.6 691.8 C 664.8 692.2 664.7 692.9 664.4 693.7 z"/>
<path fill="#b48a6c" opacity="1.000000" stroke="none" 
	d="M 315.1 631.1 C 319.4 620.4 323.6 609.6 327.9 598.9 C 335.4 580.7 342.9 562.5 350.9 544.5 C 352.9 549.8 354.5 555 356.1 560.2 C 360 573.1 363.9 586 367.9 599.2 C 368 599.7 368 599.9 367.7 600.1 C 366.9 600.4 366.4 600.6 365.6 601 C 353.1 608.5 341.1 616 328.9 623.4 C 324.4 626.1 319.7 628.6 315.1 631.1 z"/>
<path fill="#f5e3ce" opacity="1.000000" stroke="none" 
	d="M 351.1 542.9 C 350.8 542.8 350.5 542.6 350.5 541.9 C 347.1 522 343.5 502.5 340.4 483 C 342.1 484.2 343.7 485.1 344.9 486.5 C 361.4 505.8 377.7 525.3 394.3 544.7 C 396.6 547.4 399.4 549.6 402 552.3 C 402.4 553.1 402.7 553.5 403.3 554.1 C 404.4 554.5 405.2 554.7 406 555.3 C 406 555.8 406 556 405.6 556.1 C 404.5 556.1 403.8 556.1 402.7 555.9 C 395.7 554 389 552.3 382.3 550.6 C 371.9 548 361.5 545.5 351.1 542.9 z"/>
<path fill="#e9cfb2" opacity="1.000000" stroke="none" 
	d="M 351.1 543.2 C 361.5 545.5 371.9 548 382.3 550.6 C 389 552.3 395.7 554 402.7 556.1 C 403 556.5 403 557 402.7 557.1 C 401 558.6 399.6 560 398.3 561.5 C 388.2 574 378 586.4 367.9 598.9 C 363.9 586 360 573.1 356.1 560.2 C 354.5 555 352.9 549.8 351.2 544.3 C 351 543.8 351 543.6 351.1 543.2 z"/>
<path fill="#dec7ae" opacity="1.000000" stroke="none" 
	d="M 274.4 561 C 274.3 560.5 274.5 560 274.9 559.3 C 285.8 545.8 296.6 532.5 308 519.3 C 316.4 523.5 324.3 527.7 332.1 532.1 C 337.5 535.2 342.7 538.7 348 542 C 346.2 542.9 344.4 544.2 342.5 544.6 C 323.4 549.2 304.3 553.6 285.3 558.1 C 281.8 559 278.3 560 274.4 561 z"/>
<path fill="#e5d6c1" opacity="1.000000" stroke="none" 
	d="M 348.3 542 C 342.7 538.7 337.5 535.2 332.1 532.1 C 324.3 527.7 316.4 523.5 308.3 519.1 C 318.4 506.3 328.9 493.7 339.7 481.3 C 340 482.1 340 482.6 340 483 C 343.5 502.5 347.1 522 350.4 541.7 C 349.6 542 349.2 542 348.3 542 z"/>
<path fill="#865842" opacity="1.000000" stroke="none" 
	d="M 315 631.3 C 319.7 628.6 324.4 626.1 328.9 623.4 C 341.1 616 353.1 608.5 365.6 601.3 C 365.6 602.8 365.3 603.9 364.7 605.2 C 361.3 612 358.2 618.6 354.8 625 C 349.3 635.8 343.7 646.5 338 657.6 C 337 658.6 336.1 659.3 334.9 659.9 C 332.5 657 330.4 654.3 328.3 651.5 C 323.5 645.4 318.8 639.3 314.1 633.1 C 314.1 633.1 314.1 632.7 314.1 632.4 C 314.3 632 314.6 631.8 315 631.3 z"/>
<path fill="#e5d8c8" opacity="1.000000" stroke="none" 
	d="M 340.4 483 C 340 482.6 340 482.1 340 481.3 C 341.1 480.6 342.2 480.3 343.6 479.9 C 357 478.9 370.1 478 383.6 477.4 C 385.7 484.7 387.3 491.6 389 498.5 C 393.3 516.4 397.6 534.2 402 552 C 399.4 549.6 396.6 547.4 394.3 544.7 C 377.7 525.3 361.4 505.8 344.9 486.5 C 343.7 485.1 342.1 484.2 340.4 483 z"/>
<path fill="#e4c5a4" opacity="1.000000" stroke="none" 
	d="M 645.1 569.1 C 645.1 569.1 645 569.5 644.7 569.9 C 640.8 572.7 637.3 575.2 633.8 577.7 C 620.5 587.2 607.3 596.6 594 605.6 C 593.7 601.8 593.2 598.6 593 595.3 C 592.6 585.5 592.3 575.7 592 565.9 C 591.6 549.3 591.3 532.6 591 516 C 591 516 591 516 591.3 516 C 592.9 516.9 594.1 517.7 595.2 518.7 C 608.9 531.7 622.7 544.7 636.3 557.9 C 639.6 561.2 642.2 565.4 645.1 569.1 z"/>
<path fill="#976249" opacity="1.000000" stroke="none" 
	d="M 663.7 600.9 C 663.4 608.1 662.7 615.1 662.2 622.2 C 662 624.7 661 627.5 664.9 628.6 C 666 628.9 666.9 630.5 667.9 631.5 C 666.7 632.4 665.6 633.4 664.3 634.3 C 663.3 635.1 662.2 635.7 661.1 636.7 C 659.5 637.6 658.1 638.2 655.9 638.9 C 642.2 645 629 651 616 656.5 C 616 655.1 616 654.1 616.3 652.8 C 617.3 651.2 618.1 650 618.6 648.6 C 624.1 632.1 629.6 615.6 635.1 599.1 C 638.3 589.7 641.7 580.4 645 571 C 646.4 572.2 648.3 573 649.1 574.5 C 654 583.1 658.7 591.9 663.7 600.9 z"/>
<path fill="#e9cfb2" opacity="1.000000" stroke="none" 
	d="M 645.4 568.9 C 642.2 565.4 639.6 561.2 636.3 557.9 C 622.7 544.7 608.9 531.7 595.2 518.7 C 594.1 517.7 592.9 516.9 591.3 515.7 C 591 514.9 591 514.5 591.3 513.9 C 606.1 504.8 620.5 495.9 635 487 C 635 487 635.1 487.1 635.2 487.4 C 635.5 488.4 635.7 489.2 636 490.4 C 636 492.7 635.9 494.6 636.1 496.4 C 638.7 516 641.4 535.6 644.1 555.2 C 644.6 558.8 645.5 562.4 646.3 566 C 646.1 566.9 645.9 567.8 645.4 568.9 z"/>
<path fill="#b57d57" opacity="1.000000" stroke="none" 
	d="M 645 570.8 C 641.7 580.4 638.3 589.7 635.1 599.1 C 629.6 615.6 624.1 632.1 618.6 648.6 C 618.1 650 617.3 651.2 616 652.7 C 613.6 649.4 611.7 646 610 642.5 C 605.2 632.2 600.6 622 595.9 611.7 C 595.2 610.3 594.6 608.9 593 610.6 C 593 609.5 593 608.7 593 607.7 C 593 607.2 593 607.1 593.2 606.8 C 593.7 606.6 593.9 606.3 594 606 C 607.3 596.6 620.5 587.2 633.8 577.7 C 637.3 575.2 640.8 572.7 644.7 570.1 C 645 570.1 645 570.3 645 570.8 z"/>
<path fill="#d5b291" opacity="1.000000" stroke="none" 
	d="M 646.5 565.7 C 645.5 562.4 644.6 558.8 644.1 555.2 C 641.4 535.6 638.7 516 636.1 496.4 C 635.9 494.6 636 492.7 636.3 490.5 C 638.8 492 640.9 494 643 496 C 647.3 500.3 651.6 504.7 656 509.2 C 656 509.7 656 509.9 656 510 C 655.8 510.5 655.5 511 655.3 511.8 C 652.4 529.8 649.6 547.6 646.5 565.7 z"/>
<path fill="#fbf8ef" opacity="1.000000" stroke="none" 
	d="M 406 555 C 405.2 554.7 404.4 554.5 403.4 553.7 C 406.1 539.4 409.1 525.5 412 511.6 C 414.1 501.1 415.9 490.6 417.9 480 C 418.1 480 418.3 480 418.7 480 C 420.4 480.3 421.8 480.6 424.1 481 C 441.5 483 458.2 485 474.9 487 C 484.1 488.1 493.3 489.2 502.5 490.3 C 517.7 492.2 532.9 494.1 548.1 496.1 C 549.5 496.2 550.7 497.3 551.7 498.1 C 519 510.8 486.7 523.2 454.4 535.8 C 438.2 542.1 422.1 548.6 406 555 z"/>
<path fill="#f9f3e9" opacity="1.000000" stroke="none" 
	d="M 552 498 C 550.7 497.3 549.5 496.2 548.1 496.1 C 532.9 494.1 517.7 492.2 502.5 490.3 C 493.3 489.2 484.1 488.1 474.9 487 C 458.2 485 441.5 483 424.4 481 C 425 480.3 425.9 479.2 426.9 479.1 C 447.5 476.7 468.2 474.4 488.9 472.1 C 507.3 470 525.6 468 544 466 C 551.2 465.2 558.3 464.3 565.8 464.1 C 562.7 475.5 559.3 486.3 555.6 497 C 554.2 497.4 553.1 497.7 552 498 z"/>
<path fill="#f5e3ce" opacity="1.000000" stroke="none" 
	d="M 635 487 C 620.5 495.9 606.1 504.8 591.2 513.6 C 585.9 503.1 581.2 492.9 576.3 482.7 C 573.3 476.4 570.1 470.2 567 464 C 567.3 463.5 567.5 463 567.9 462.3 C 568.4 462 568.9 462 569.7 462 C 571.8 463.1 573.5 464.4 575.4 465.1 C 594.5 472.1 613.6 478.9 632.7 485.8 C 633.2 485.9 633.7 485.9 634.6 486.2 C 635 486.5 635 487 635 487 z"/>
<path fill="#e5d6c1" opacity="1.000000" stroke="none" 
	d="M 566.8 464 C 570.1 470.2 573.3 476.4 576.3 482.7 C 581.2 492.9 585.9 503.1 590.9 513.7 C 591 514.5 591 514.9 591 515.6 C 591 516 591 516 590.8 516 C 590.5 516 590.1 516 589.9 515.7 C 584.7 512.4 579.7 509 574.5 506.3 C 568.5 503.2 562.2 500.7 556 497.7 C 556 497.5 556 497 556 497 C 559.3 486.3 562.7 475.5 566 464.4 C 566 464 566.5 464 566.8 464 z"/>
<path fill="#57362d" opacity="1.000000" stroke="none" 
	d="M 238.8 828.2 C 238.4 835 237.7 841.9 237 849.6 C 237 862.9 237 875.4 237 888.3 C 237 889.1 237.1 889.6 237.1 890.3 C 237 890.7 236.9 890.8 236.6 891.1 C 235.6 891.5 234.8 891.8 233.6 892 C 228.8 892 224.4 892 219.9 891.6 C 220.3 888.8 220.7 886.4 221 884 C 225 873.5 229.3 863.2 232.8 852.5 C 235.3 844.7 236.7 836.5 238.8 828.2 z"/>
<path fill="#57362d" opacity="1.000000" stroke="none" 
	d="M 256.1 745 C 253.8 755.4 251.4 765.8 249 776.6 C 247.6 771.3 246.3 765.6 245.1 759.8 C 244.4 756.8 244.1 753.7 243.3 750.3 C 242 743.3 241 736.6 240.3 729.6 C 243 731.9 245.2 734.5 247.6 737 C 250.4 739.8 253.3 742.4 256.1 745 z"/>
<path fill="#865842" opacity="1.000000" stroke="none" 
	d="M 220.6 884 C 220.7 886.4 220.3 888.8 219.6 891.6 C 217.9 892.3 216.5 892.6 215.1 893 C 215 893 214.8 893 214.8 893 C 214.9 892.9 214.9 892.7 214.9 892 C 214.3 890.6 213.7 889.8 213.1 889 C 213.1 889 212.9 888.8 212.8 888.4 C 212.5 887.6 212.2 887.3 212 887 C 211.2 885.7 210.4 884.4 209.6 882.8 C 213.1 883 216.7 883.4 220.6 884 z"/>
<path fill="#f9f8f6" opacity="1.000000" stroke="none" 
	d="M 248.2 781.3 C 248.6 781.2 248.7 781.5 248.3 781.9 C 248.2 782 248.1 781.5 248.2 781.3 z"/>
<path fill="#865842" opacity="1.000000" stroke="none" 
	d="M 209.7 882 C 209.2 882.2 209.1 882 209.2 881.3 C 209.5 881.2 209.7 881.5 209.7 882 z"/>
<path fill="#dec7ae" opacity="1.000000" stroke="none" 
	d="M 417.5 480 C 415.9 490.6 414.1 501.1 412 511.6 C 409.1 525.5 406.1 539.4 403.1 553.6 C 402.7 553.5 402.4 553.1 402 552.3 C 397.6 534.2 393.3 516.4 389 498.5 C 387.3 491.6 385.7 484.7 384 477.4 C 395 478 406 479 417.5 480 z"/>
<path fill="#442923" opacity="1.000000" stroke="none" 
	d="M 643.6 746 C 645.7 746.3 647.5 747.1 649.1 746.9 C 652.8 746.5 655.8 747.5 658.7 750.4 C 656.6 755.5 654.2 760.2 651.5 764.6 C 650.6 758.8 648.5 753.8 644.6 749.6 C 644.7 757.6 645.8 765.4 645.9 773.3 C 646.2 797.4 646.2 821.5 646.4 845.5 C 646.4 846.4 648.1 847.2 649.1 848.3 C 650.4 851.1 651.6 853.6 652.8 856.5 C 654.9 863.5 657 870.1 659.1 877.1 C 658.1 878.7 657.1 879.9 655.8 880.9 C 651.4 879.6 647.3 878.5 643 877.3 C 642.3 880.6 641.7 883.3 641 885.6 C 637.5 881.5 634 877.7 630.5 873.5 C 630.2 866.7 630 860.3 629.8 853.5 C 629.5 845.4 629.1 837.8 628.8 829.7 C 628.6 826.1 628.4 823 628.2 819.5 C 628.2 816.4 628.1 813.7 628 810.6 C 627.7 800.4 627.2 790.7 626.9 780.7 C 626.9 779.9 626.9 779.4 626.9 778.7 C 626.9 777.9 626.8 777.4 626.8 776.7 C 626.8 775.9 626.7 775.4 626.8 774.7 C 626.7 773.2 626.5 772 626.5 770.4 C 626.1 760.7 625.7 751.3 625.3 742 C 631.2 743.3 637.2 744.7 643.6 746 z"/>
<path fill="#503129" opacity="1.000000" stroke="none" 
	d="M 615.9 656.9 C 629 651 642.2 645 655.6 639.1 C 652.9 649.5 649.9 660 646.7 670.5 C 639.7 693.2 632.7 715.8 625.4 738.3 C 624 731.6 623 725 622 718.5 C 619.6 702.7 617.3 686.9 615 670.7 C 615 666.5 615 662.7 615 658.7 C 615.4 657.9 615.6 657.4 615.9 656.9 z"/>
<path fill="#bd997e" opacity="1.000000" stroke="none" 
	d="M 656.5 510 C 656 509.9 656 509.7 656 508.8 C 657.7 495.4 659.3 482.7 661 469.7 C 661.1 468.9 661.1 468.4 661.1 468 C 661.7 467.6 662.3 467.1 663.3 466.2 C 666.7 461.9 669.8 458 672.9 454.1 C 679.6 445.8 686.2 437.4 693.2 429.2 C 693.2 434 693 438.6 692.4 443.1 C 691.5 449.8 690.2 456.4 689 463.4 C 689.7 465.6 690 467.6 691.1 469.1 C 697.4 477.3 703.7 485.5 710.1 493.6 C 711.5 495.3 713.4 496.5 715 498 C 715 498.5 715 498.9 715 499.7 C 706 501.5 697.1 502.9 688.1 504.5 C 677.7 506.3 667.3 508.2 656.5 510 z"/>
<path fill="#e5d6c1" opacity="1.000000" stroke="none" 
	d="M 660.8 467.8 C 661.1 468.4 661.1 468.9 660.7 469.8 C 651.9 475.9 643.5 481.5 635.1 487.1 C 635.1 487.1 635 487 635 487 C 635 487 635 486.5 635 486.2 C 634 470.2 633 454.5 632 438.7 C 632 437.8 632 436.8 632.1 435.3 C 639.7 443.5 647.3 452.2 654.9 460.8 C 656.8 463 658.6 465.4 660.8 467.8 z"/>
<path fill="#824c35" opacity="1.000000" stroke="none" 
	d="M 241 727 C 243.7 719.5 246.4 712.1 249.2 704.6 C 250 702.3 251 700 251.9 697.3 C 252.5 696.1 253.1 695.3 253.8 694.2 C 255.2 693.2 256.7 692.7 257.6 691.7 C 266.2 682.9 274.7 674 283.3 665.2 C 292.6 655.5 302 645.9 311.7 636.5 C 309.4 644.1 306.8 651.5 304.1 658.8 C 300.4 668.9 296.6 679 292.6 689.2 C 291.6 690.2 290.8 691.1 289.7 692.1 C 277.9 700.7 266.4 709.3 254.8 717.7 C 250.3 720.9 245.6 723.9 241 727 z"/>
<path fill="#57362d" opacity="1.000000" stroke="none" 
	d="M 292.9 689.1 C 296.6 679 300.4 668.9 304.1 658.8 C 306.8 651.5 309.4 644.1 312 636.4 C 312.6 635.2 313.2 634.4 313.9 633.4 C 318.8 639.3 323.5 645.4 328.3 651.5 C 330.4 654.3 332.5 657 334.9 659.9 C 334.7 660.7 334.2 661.3 333.2 662.1 C 332.5 662.5 332.3 662.8 332.1 663.1 C 332.1 663.1 332 663 331.8 663.1 C 331.4 663.5 331.3 663.8 331.1 664.1 C 331.1 664.1 331 664 330.8 664.1 C 330.4 664.5 330.2 664.8 330.1 665.1 C 330 665.5 329.8 665.7 328.9 666 C 327 666.8 325.5 667.5 324.2 668.3 C 313.7 675.2 303.3 682.2 292.9 689.1 z"/>
<path fill="#c9ac91" opacity="1.000000" stroke="none" 
	d="M 715 497.6 C 713.4 496.5 711.5 495.3 710.1 493.6 C 703.7 485.5 697.4 477.3 691.1 469.1 C 690 467.6 689.7 465.6 689.4 463.4 C 701.5 457.3 713.2 451.6 725 446 C 725 446.7 725 447.5 725 448.6 C 722.3 461.5 719.7 474 717 486.5 C 716.3 490.1 715.7 493.6 715 497.6 z"/>
<path fill="#f9f3e9" opacity="1.000000" stroke="none" 
	d="M 675 325 C 674.4 325.4 673.4 325.6 673.1 326.2 C 671.9 328.7 670.8 331.3 668.8 333.9 C 664.1 334 660.1 334.1 656.2 334.2 C 655.8 333.4 655.4 332.6 654.9 331.4 C 656.3 328.1 657.8 325.2 659.5 322.1 C 663 320.9 666.5 320.6 669.3 318.9 C 678.4 313.7 687.1 308 696 302.6 C 697.3 301.8 699 301.8 700.7 302.1 C 700.6 304.8 700 306.7 700.1 308.7 C 700.3 317.4 700.7 326.2 700.7 335 C 700.3 335 700.1 335 699.6 335 C 691.2 331.6 683.1 328.3 675 325 z"/>
<path fill="#b57d57" opacity="1.000000" stroke="none" 
	d="M 840.4 175.1 C 840.7 176.7 840.7 178.5 840.7 180.3 C 840.2 180.2 839.7 180.2 839.2 180.2 C 839.5 178.5 839.8 176.9 840.4 175.1 z"/>
<path fill="#dbba99" opacity="1.000000" stroke="none" 
	d="M 692.9 429 C 686.2 437.4 679.6 445.8 672.9 454.1 C 669.8 458 666.7 461.9 663.3 465.9 C 664.5 456.7 666 447.5 667.4 438.1 C 668.1 434.1 668.5 430 669 425.4 C 669 425 669.1 424.9 669.6 424.9 C 678.2 425.2 686.2 425.5 694 426.2 C 693.6 427.3 693.3 428.1 692.9 429 z"/>
<path fill="#cd9369" opacity="1.000000" stroke="none" 
	d="M 840.6 197 C 840.6 199.4 840.3 201.8 840 204.6 C 839.9 205 839.7 205 839.3 205 C 838.8 205 838.7 205 838.3 205 C 838.7 202.3 839.5 199.7 840.6 197 z"/>
<path fill="#b08c74" opacity="1.000000" stroke="none" 
	d="M 742.1 337 C 742 335.7 742 334.7 742.3 333.3 C 743 332.2 743.5 331.6 744 331 C 744.9 330.2 745.9 329.4 746.9 328.4 C 752.6 325 758.1 321.8 763.7 318.7 C 765.1 317.9 766.7 317.6 768.6 317 C 769 317 769.4 317.1 769.7 317.1 C 772.4 320.7 774.9 324.2 777.7 327.9 C 772.5 329.8 767 331.8 761.3 333.3 C 755 334.9 748.6 336.1 742.1 337 z"/>
<path fill="#a47357" opacity="1.000000" stroke="none" 
	d="M 694.2 425.8 C 686.2 425.5 678.2 425.2 669.7 424.9 C 669.1 412.7 668.9 400.6 669.2 388.2 C 673.7 392 677.8 396.1 682 400.4 C 683.1 401.8 684 403 685 404.4 C 687.5 409.6 690.2 414.3 692.5 419.2 C 693.4 421.3 693.6 423.6 694.2 425.8 z"/>
<path fill="#f5e3ce" opacity="1.000000" stroke="none" 
	d="M 681.9 400.1 C 677.8 396.1 673.7 392 669.3 387.9 C 668.7 387.3 668.5 386.9 668.2 386.2 C 669.1 374.5 670.8 363.1 676.1 352.3 C 677.5 353.2 678.6 354.3 678.9 355.5 C 680.1 359.7 681 363.8 681.7 368.3 C 681.3 372.4 680.7 376.2 681.1 379.9 C 681.8 385.6 683.1 391.3 684.1 397.4 C 683.3 398.5 682.6 399.3 681.9 400.1 z"/>
<path fill="#f8efe1" opacity="1.000000" stroke="none" 
	d="M 701 335 C 700.7 326.2 700.3 317.4 700.1 308.7 C 700 306.7 700.6 304.8 701 302.4 C 708.4 306.2 715.9 310.2 723.2 314.6 C 726.1 316.4 728.4 319 730.8 321.9 C 728.8 324.1 726.9 325.6 724.6 327 C 716.7 329.7 709.3 332.3 700.9 335.4 C 709.7 342.9 717.4 349.5 725 356 C 725.8 356.9 726.6 357.8 727.7 358.8 C 727.5 360.2 727.1 361.4 725.9 362.8 C 718.3 362.8 711.5 362.6 704.6 362.3 C 701.6 362.2 700.9 360.5 700.9 357.7 C 701.1 350.2 701 342.6 701 335 z"/>
<path fill="#f9f8f6" opacity="1.000000" stroke="none" 
	d="M 725 327.1 C 726.9 325.6 728.8 324.1 730.8 322.3 C 732.8 321.4 734.5 320.7 736.6 320 C 739.1 323.5 741.3 327.1 743.7 330.8 C 743.5 331.6 743 332.2 742.2 332.9 C 738.6 333.4 735.3 333.7 731.8 334.5 C 730.4 333.4 729 331.8 727.2 329.8 C 726.2 328.6 725.6 327.8 725 327.1 z"/>
<path fill="#b08c74" opacity="1.000000" stroke="none" 
	d="M 694 426.2 C 693.6 423.6 693.4 421.3 692.5 419.2 C 690.2 414.3 687.5 409.6 685.4 404.4 C 693.6 403.7 701.3 403.4 709.1 403.1 C 710.6 407.9 712.1 412.8 713.8 417.5 C 716.6 425.1 719.6 432.6 722.6 440.1 C 723.2 441.5 724.3 442.6 725.6 443.9 C 725.7 444.4 725.5 445 725.1 445.7 C 713.2 451.6 701.5 457.3 689.4 463 C 690.2 456.4 691.5 449.8 692.4 443.1 C 693 438.6 693.2 434 693.2 429.2 C 693.3 428.1 693.6 427.3 694 426.2 z"/>
<path fill="#dbba99" opacity="1.000000" stroke="none" 
	d="M 709.5 403.1 C 701.3 403.4 693.6 403.7 685.4 404 C 684 403 683.1 401.8 682 400.4 C 682.6 399.3 683.3 398.5 684.4 397.2 C 687.7 395.5 690.7 394.3 694.2 393.1 C 698.1 393.1 701.5 393.3 704.9 392.9 C 707 392.7 708.9 391.6 710.9 390.9 C 714.2 393.5 717.5 396 720.9 398.9 C 719 405.4 713.8 402.2 709.5 403.1 z"/>
<path fill="#2d1f22" opacity="1.000000" stroke="none" 
	d="M 656.4 334.5 C 660.1 334.1 664.1 334 668.5 334 C 670.5 338.3 672.1 342.5 673.4 346.9 C 672.9 347.1 672.7 347.1 672.5 347.1 C 662 348.1 662 348 658 337.4 C 657.4 336.3 656.9 335.5 656.4 334.5 z"/>
<path fill="#efd9c1" opacity="1.000000" stroke="none" 
	d="M 724.6 327 C 725.6 327.8 726.2 328.6 726.9 329.7 C 726.4 331.6 725.2 333.3 725.1 335.1 C 724.9 341.7 725 348.4 725 355.5 C 717.4 349.5 709.7 342.9 700.9 335.4 C 709.3 332.3 716.7 329.7 724.6 327 z"/>
<path fill="#6d4031" opacity="1.000000" stroke="none" 
	d="M 240.8 727.1 C 245.6 723.9 250.3 720.9 254.8 717.7 C 266.4 709.3 277.9 700.7 289.7 692.5 C 289.3 694.4 288.8 696.1 287.8 697.6 C 284.7 702.6 281.2 707.5 278.1 712.5 C 277.3 713.8 275 715.6 278.2 717 C 273.4 723.3 268.7 729.6 263.9 735.9 C 261.6 738.9 259.2 742 256.5 745 C 253.3 742.4 250.4 739.8 247.6 737 C 245.2 734.5 243 731.9 240.4 729.2 C 240.1 728.9 240.1 728.7 240 728.3 C 240.1 727.7 240.3 727.4 240.8 727.1 z"/>
<path fill="#fbf8ef" opacity="1.000000" stroke="none" 
	d="M 700.7 335 C 701 342.6 701.1 350.2 700.9 357.7 C 700.9 360.5 701.6 362.2 704.6 362.3 C 711.5 362.6 718.3 362.8 725.6 363 C 724.4 368 722.9 373.1 720.9 377.9 C 720.2 379.5 718.3 380.6 716.5 381.7 C 716 381.3 716 381.1 716.3 380.7 C 718 371.2 717.7 371.8 709.8 367.5 C 703.8 364.2 698.8 364.4 693.1 366.9 C 690.5 368 687.6 368.3 684.6 368.9 C 683.5 368.6 682.8 368.3 682 368 C 681 363.8 680.1 359.7 678.9 355.5 C 678.6 354.3 677.5 353.2 676.4 352 C 676 348.6 676 345.2 676.5 341.4 C 684.6 339 692.3 337 700 335 C 700.1 335 700.3 335 700.7 335 z"/>
<path fill="#442923" opacity="1.000000" stroke="none" 
	d="M 716 380.9 C 716 381.1 716 381.3 716.2 381.7 C 714.6 384.8 712.9 387.5 711 390.6 C 708.9 391.6 707 392.7 704.9 392.9 C 701.5 393.3 698.1 393.1 694.1 392.8 C 692.1 390.8 690.7 389.3 689.4 387.5 C 688.2 385.8 686 383.2 686.5 382.2 C 688.6 378 686.1 374.7 685.9 370.8 C 700 379.7 700 379.7 715.2 372.7 C 715.4 375.3 715.7 378.1 716 380.9 z"/>
<path fill="#efd9c1" opacity="1.000000" stroke="none" 
	d="M 699.6 335 C 692.3 337 684.6 339 676.5 341 C 675.7 336 675.3 331 675 325.4 C 683.1 328.3 691.2 331.6 699.6 335 z"/>
<path fill="#6d4031" opacity="1.000000" stroke="none" 
	d="M 581.8 276.7 C 581.2 276.8 580.3 276.7 579.2 276.2 C 579.9 276.1 580.8 276.3 581.8 276.7 z"/>
<path fill="#d5b291" opacity="1.000000" stroke="none" 
	d="M 483.5 200.6 C 483.5 200.6 483.6 200.5 483.5 200.6 z"/>
<path fill="#442923" opacity="1.000000" stroke="none" 
	d="M 660.4 748.3 C 660.2 747.6 660.2 746.6 660.6 745.3 C 660.8 746.1 660.7 747.1 660.4 748.3 z"/>
<path fill="#442923" opacity="1.000000" stroke="none" 
	d="M 659.7 749.1 C 659.8 749.3 659.7 749.6 659.3 750 C 659.2 749.8 659.4 749.5 659.7 749.1 z"/>
<path fill="#57362d" opacity="1.000000" stroke="none" 
	d="M 365 605 C 365.3 603.9 365.6 602.8 365.9 601.3 C 366.4 600.6 366.9 600.4 367.9 600.4 C 379.7 606.1 390.9 611.5 402.2 617.1 C 402.3 617.3 402.5 617.7 402.2 617.9 C 395.8 633.1 389.8 647.9 383.9 662.9 C 381.4 669.5 379.3 676.3 376.8 683.2 C 376 684.2 375.5 685.1 374.6 686 C 363.1 695.3 351.9 704.4 339.7 714.5 C 341.7 707.6 343.6 701.8 345.1 696 C 351.8 669.5 358.4 643.1 364.8 616.5 C 365.7 612.9 365 608.8 365 605 z"/>
<path fill="#855e4e" opacity="1.000000" stroke="none" 
	d="M 402.1 616.9 C 390.9 611.5 379.7 606.1 368.2 600.4 C 368 599.9 368 599.7 367.9 599.2 C 378 586.4 388.2 574 398.3 561.5 C 399.6 560 401 558.6 402.7 557.4 C 403.1 558.1 403.1 558.5 403.1 559.4 C 402.7 578.9 402.4 597.9 402.1 616.9 z"/>
<path fill="#efd9c1" opacity="1.000000" stroke="none" 
	d="M 555.6 497 C 556 497 556 497.5 556 498.2 C 555.7 505.4 555.2 511.8 555 518.2 C 554.6 533.6 554.4 549.1 554 564.5 C 553.9 566.9 553.2 569.4 553.3 571.9 C 553.4 578.2 553.7 584.6 553.9 591.3 C 553.5 592.3 553.3 593.1 552.6 593.9 C 517.7 585.1 483.2 576.3 448.7 567.4 C 434.4 563.7 420.2 559.9 406 556.2 C 406 556 406 555.8 406 555.3 C 422.1 548.6 438.2 542.1 454.4 535.8 C 486.7 523.2 519 510.8 551.7 498.1 C 553.1 497.7 554.2 497.4 555.6 497 z"/>
<path fill="#bd997e" opacity="1.000000" stroke="none" 
	d="M 405.6 556.1 C 420.2 559.9 434.4 563.7 448.7 567.4 C 483.2 576.3 517.7 585.1 552.6 594.1 C 553.1 594.4 553.1 594.8 553.1 594.9 C 553 594.9 553 595.1 552.6 595 C 551 595.2 549.9 595.3 548.8 595.6 C 524.2 602.9 499.6 610.2 475 617.6 C 465.2 620.5 455.6 623.8 445.6 627 C 445.4 627 445 627 444.8 627 C 444.3 627 444.2 627 443.8 626.9 C 443.3 626.6 443.1 626.3 443 625.7 C 442 623.4 441.3 621.3 440.2 619.5 C 430 602.3 419.8 585.1 409.5 568 C 407.7 564.8 405.3 562 403.1 559 C 403.1 558.5 403.1 558.1 403 557.3 C 403 557 403 556.5 403.1 556.3 C 403.8 556.1 404.5 556.1 405.6 556.1 z"/>
<path fill="#6d4031" opacity="1.000000" stroke="none" 
	d="M 364.7 605.2 C 365 608.8 365.7 612.9 364.8 616.5 C 358.4 643.1 351.8 669.5 345.1 696 C 343.6 701.8 341.7 707.6 339.7 714.5 C 351.9 704.4 363.1 695.3 374.6 686.4 C 371.9 698.2 369 709.7 366 721.4 C 361.9 727.5 358 733.3 353.8 739.2 C 353.4 739.6 353.3 740 353.2 740.3 C 353.2 740.3 353.3 740.4 353 740.2 C 347.8 732.6 343 725.1 338 717.4 C 332.9 723.1 328 728.8 322.7 734.3 C 320.9 736.2 318.3 737.5 316 739 C 317.4 733.3 318.4 727.5 320.1 721.9 C 324.5 707.5 329.1 693.2 333.5 678.9 C 335.3 673.2 336.9 667.5 338.4 661.7 C 338.8 660.3 338.6 658.6 338.4 657.2 C 343.7 646.5 349.3 635.8 354.8 625 C 358.2 618.6 361.3 612 364.7 605.2 z"/>
<path fill="#d5b291" opacity="1.000000" stroke="none" 
	d="M 553.1 594.8 C 553.1 594.8 553.1 594.4 553 594.1 C 553.3 593.1 553.5 592.3 554 591 C 566.2 565.6 578.1 540.8 590.1 516 C 590.1 516 590.5 516 590.8 516 C 591.3 532.6 591.6 549.3 592 565.9 C 592.3 575.7 592.6 585.5 593 595.3 C 593.2 598.6 593.7 601.8 594 605.6 C 593.9 606.3 593.7 606.6 593 606.5 C 579.4 602.5 566.3 598.7 553.1 594.8 z"/>
<path fill="#ba8862" opacity="1.000000" stroke="none" 
	d="M 616 656.5 C 615.6 657.4 615.4 657.9 614.7 658.7 C 612.9 660.2 611.5 661.3 610.1 662.5 C 602.4 669.8 594.7 677 587 683.8 C 587.7 675.3 588.4 667.3 589.1 659.3 C 590.4 643.2 591.7 627.1 593 611 C 594.6 608.9 595.2 610.3 595.9 611.7 C 600.6 622 605.2 632.2 610 642.5 C 611.7 646 613.6 649.4 615.7 653 C 616 654.1 616 655.1 616 656.5 z"/>
<path fill="#dbba99" opacity="1.000000" stroke="none" 
	d="M 635.2 487.4 C 643.5 481.5 651.9 475.9 660.7 470.1 C 659.3 482.7 657.7 495.4 656 508.6 C 651.6 504.7 647.3 500.3 643 496 C 640.9 494 638.8 492 636.3 490 C 635.7 489.2 635.5 488.4 635.2 487.4 z"/>
<path fill="#a76845" opacity="1.000000" stroke="none" 
	d="M 593 610.6 C 591.7 627.1 590.4 643.2 589.1 659.3 C 588.4 667.3 587.7 675.3 587 684.2 C 586.8 686 586.5 686.9 586.5 687.9 C 586.3 700.7 586.1 713.6 586.2 726.4 C 586.2 733 586.7 739.5 587 746.3 C 586.9 747 586.8 747.5 586.4 747.9 C 584.5 747.2 582.7 746.6 581.4 745.6 C 577.7 742.8 574.2 739.8 570.7 736.4 C 573 719.9 572.8 704 568.8 688.1 C 565.1 673.3 562.8 658.2 559.9 642.9 C 571 631 582 619.5 593 607.9 C 593 608.7 593 609.5 593 610.6 z"/>
<path fill="#c39673" opacity="1.000000" stroke="none" 
	d="M 593 607.7 C 582 619.5 571 631 559.7 642.7 C 559.2 642.8 559.1 642.6 558.9 642.3 C 558.9 642.1 558.8 641.7 558.9 641.3 C 558.8 638.9 558.7 637 558.5 635 C 556.7 621.7 554.8 608.4 553 595.1 C 553 595.1 553 594.9 553.1 594.9 C 566.3 598.7 579.4 602.5 592.8 606.6 C 593 607.1 593 607.2 593 607.7 z"/>
<path fill="#f8efe1" opacity="1.000000" stroke="none" 
	d="M 589.9 515.7 C 578.1 540.8 566.2 565.6 554.1 590.7 C 553.7 584.6 553.4 578.2 553.3 571.9 C 553.2 569.4 553.9 566.9 554 564.5 C 554.4 549.1 554.6 533.6 555 518.2 C 555.2 511.8 555.7 505.4 556 498.4 C 562.2 500.7 568.5 503.2 574.5 506.3 C 579.7 509 584.7 512.4 589.9 515.7 z"/>
<path fill="#5b3c34" opacity="1.000000" stroke="none" 
	d="M 362.6 860 C 358.4 848 354.2 836 350.1 824 C 349.3 821.8 348.6 819.6 347.6 817.2 C 343.2 804.9 339.1 792.9 335.2 780.2 C 335.5 778 335.6 776.3 335.4 774.8 C 334.3 766.3 333.2 757.8 332 749.4 C 331.5 745.9 333.3 744.6 336.3 744.1 C 340.5 743.4 344.7 742.5 348.9 742 C 350.3 741.8 351.7 742.6 353.4 743.3 C 353.7 745.7 353.6 747.7 354 749.6 C 356.9 762.4 359.9 775.2 362.9 788.3 C 362.9 788.7 362.8 788.9 362.6 789.3 C 362.6 792.5 362.7 795.5 363.3 798.4 C 367.9 820.9 372.5 843.3 377.2 865.8 C 378.8 873.6 379.3 873.8 369.8 878.7 C 367.2 872.3 364.9 866.2 362.6 860 z"/>
<path fill="#442923" opacity="1.000000" stroke="none" 
	d="M 353.1 743 C 351.7 742.6 350.3 741.8 348.9 742 C 344.7 742.5 340.5 743.4 336.3 744.1 C 333.3 744.6 331.5 745.9 332 749.4 C 333.2 757.8 334.3 766.3 335.4 774.8 C 335.6 776.3 335.5 778 335.2 779.8 C 333.5 777.2 332.2 774.3 330.6 771.1 C 325.6 760.5 320.8 750.1 316 739.4 C 318.3 737.5 320.9 736.2 322.7 734.3 C 328 728.8 332.9 723.1 338 717.4 C 343 725.1 347.8 732.6 353 740.5 C 353.2 741.7 353.2 742.3 353.1 743 z"/>
<path fill="#865842" opacity="1.000000" stroke="none" 
	d="M 278.5 716.9 C 275 715.6 277.3 713.8 278.1 712.5 C 281.2 707.5 284.7 702.6 287.8 697.6 C 288.8 696.1 289.3 694.4 290 692.3 C 290.8 691.1 291.6 690.2 292.6 689.2 C 303.3 682.2 313.7 675.2 324.2 668.3 C 325.5 667.5 327 666.8 328.7 666 C 323.3 671.5 317.4 676.8 311.8 682.4 C 302.9 691.3 294.1 700.2 285.3 709.2 C 283 711.6 281 714.2 278.5 716.9 z"/>
<path fill="#865842" opacity="1.000000" stroke="none" 
	d="M 330.3 665 C 330.2 664.8 330.4 664.5 330.9 664.2 C 330.9 664.4 330.8 664.7 330.3 665 z"/>
<path fill="#865842" opacity="1.000000" stroke="none" 
	d="M 331.3 664 C 331.3 663.8 331.4 663.5 331.9 663.2 C 332 663.4 331.8 663.7 331.3 664 z"/>
<path fill="#865842" opacity="1.000000" stroke="none" 
	d="M 332.4 663.1 C 332.3 662.8 332.5 662.5 332.9 662.2 C 333 662.4 332.8 662.7 332.4 663.1 z"/>
<path fill="#684439" opacity="1.000000" stroke="none" 
	d="M 213.1 889.3 C 213.7 889.8 214.3 890.6 215 891.7 C 214.4 891.2 213.7 890.4 213.1 889.3 z"/>
<path fill="#684439" opacity="1.000000" stroke="none" 
	d="M 212 887.3 C 212.2 887.3 212.5 887.6 212.9 888.2 C 212.7 888.2 212.4 887.9 212 887.3 z"/>
<path fill="#2d1f22" opacity="1.000000" stroke="none" 
	d="M 237.7 894.2 C 238.2 897.6 238.8 901 239.6 905.1 C 240.9 910.9 242 915.9 243 921.4 C 239.6 922.3 236.2 923.1 232.8 923.1 C 227.8 923 222.9 922.3 217.9 922 C 217.8 915.9 217.6 909.9 217.9 903.5 C 223.6 899.4 228.9 895.7 234.1 892 C 234.8 891.8 235.6 891.5 236.7 891.5 C 237.2 892.5 237.4 893.3 237.7 894.2 z"/>
<path fill="#684439" opacity="1.000000" stroke="none" 
	d="M 233.6 892 C 228.9 895.7 223.6 899.4 218.1 903.1 C 216.9 900 216.1 896.9 215.2 893.3 C 216.5 892.6 217.9 892.3 219.6 892 C 224.4 892 228.8 892 233.6 892 z"/>
<path fill="#f2f1ee" opacity="1.000000" stroke="none" 
	d="M 238 894 C 237.4 893.3 237.2 892.5 236.9 891.3 C 236.9 890.8 237 890.7 237.1 890.3 C 237.5 891.3 237.9 892.5 238 894 z"/>
<path fill="#2d1f22" opacity="1.000000" stroke="none" 
	d="M 642.9 891 C 642.7 890.5 642.4 890.1 642.6 889.3 C 647.3 886.4 651.7 883.7 656.1 881 C 657.1 879.9 658.1 878.7 659.1 877.1 C 660.7 880 662.4 883.3 664.4 887.1 C 667.8 893.5 670.9 899.3 674 905.3 C 674.3 906.3 674.5 906.9 674.3 907.6 C 669.2 907.8 664.5 907.9 659.5 907.8 C 658.5 907.8 657.8 907.9 656.7 907.9 C 654.1 907.9 652 907.9 649.7 907.7 C 648.6 907 647.7 906.5 646.9 905.6 C 645.6 900.5 644.3 895.7 642.9 891 z"/>
<path fill="#684439" opacity="1.000000" stroke="none" 
	d="M 649.8 845.1 C 649.6 845.9 649.5 846.7 649.2 847.8 C 648.1 847.2 646.4 846.4 646.4 845.5 C 646.2 821.5 646.2 797.4 645.9 773.3 C 645.8 765.4 644.7 757.6 644.6 749.6 C 648.5 753.8 650.6 758.8 651.5 764.6 C 651.2 769.6 650.7 774.3 650.2 779.8 C 650.1 785.6 650.1 790.5 650 795.8 C 649.9 800.8 649.9 805.4 649.8 810.5 C 649.7 814.9 649.8 819 649.7 823.5 C 649.7 827.6 649.7 831.3 649.7 835.4 C 649.7 838.9 649.7 842 649.8 845.1 z"/>
<path fill="#5b3c34" opacity="1.000000" stroke="none" 
	d="M 655.8 880.9 C 651.7 883.7 647.3 886.4 642.6 889 C 641.9 888.2 641.5 887.4 641.2 886.3 C 641.7 883.3 642.3 880.6 643 877.3 C 647.3 878.5 651.4 879.6 655.8 880.9 z"/>
<path fill="#f3f4f0" opacity="1.000000" stroke="none" 
	d="M 628.8 829.7 C 628.3 826.9 627.9 823.7 627.8 820.2 C 628.4 823 628.6 826.1 628.8 829.7 z"/>
<path fill="#f9f8f6" opacity="1.000000" stroke="none" 
	d="M 626.8 776.7 C 626.6 776.4 626.4 775.7 626.4 775.1 C 626.7 775.4 626.8 775.9 626.8 776.7 z"/>
<path fill="#824c35" opacity="1.000000" stroke="none" 
	d="M 587 746 C 586.7 739.5 586.2 733 586.2 726.4 C 586.1 713.6 586.3 700.7 586.5 687.9 C 586.5 686.9 586.8 686 587 684.7 C 594.7 677 602.4 669.8 610.1 662.5 C 611.5 661.3 612.9 660.2 614.7 659 C 615 662.7 615 666.5 615 670.7 C 612.5 679.9 610.1 688.7 607.1 697.9 C 605.7 700.5 604.8 702.7 603.9 704.8 C 598.3 718.5 592.6 732.3 587 746 z"/>
<path fill="#442923" opacity="1.000000" stroke="none" 
	d="M 587 746.3 C 592.6 732.3 598.3 718.5 603.9 704.8 C 604.8 702.7 605.7 700.5 606.9 698.2 C 607.1 703.7 607 709.4 606.4 715.7 C 605.6 717.8 605.1 719.4 605 720.9 C 605 728.2 604.9 735.5 605 742.8 C 605.1 745.8 605.5 748.9 605.8 752 C 604.8 755 603.9 758.1 602.8 761.5 C 601.2 765.1 599.8 768.2 597.8 771.7 C 596.9 772 596.5 772 596 771.5 C 595.1 769.4 594.2 767.6 593.5 765.8 C 591.2 759.8 589 753.8 586.8 747.9 C 586.8 747.5 586.9 747 587 746.3 z"/>
<path fill="#2d1f22" opacity="1.000000" stroke="none" 
	d="M 605.9 751.5 C 605.5 748.9 605.1 745.8 605 742.8 C 604.9 735.5 605 728.2 605 720.9 C 605.1 719.4 605.6 717.8 606.3 716.2 C 606.5 727.7 606.3 739.4 605.9 751.5 z"/>
<path fill="#efd9c1" opacity="1.000000" stroke="none" 
	d="M 685.6 371 C 686.1 374.7 688.6 378 686.5 382.2 C 686 383.2 688.2 385.8 689.4 387.5 C 690.7 389.3 692.1 390.8 693.6 392.8 C 690.7 394.3 687.7 395.5 684.4 396.9 C 683.1 391.3 681.8 385.6 681.1 379.9 C 680.7 376.2 681.3 372.4 681.7 368.3 C 682.8 368.3 683.5 368.6 684.6 369.2 C 685.1 370 685.4 370.5 685.6 371 z"/>
<path fill="#dbba99" opacity="1.000000" stroke="none" 
	d="M 685.9 370.8 C 685.4 370.5 685.1 370 684.9 369.2 C 687.6 368.3 690.5 368 693.1 366.9 C 698.8 364.4 703.8 364.2 709.8 367.5 C 717.7 371.8 718 371.2 716.3 380.7 C 715.7 378.1 715.4 375.3 715.2 372.7 C 700 379.7 700 379.7 685.9 370.8 z"/>
<path fill="#b08c74" opacity="1.000000" stroke="none" 
	d="M 403.1 559.4 C 405.3 562 407.7 564.8 409.5 568 C 419.8 585.1 430 602.3 440.2 619.5 C 441.3 621.3 442 623.4 442.5 625.7 C 439.3 625.4 436.3 624.9 433.5 624.3 C 424 622.2 414.5 620.1 404.7 618 C 403.8 617.9 403.1 617.8 402.5 617.7 C 402.5 617.7 402.3 617.3 402.2 617.1 C 402.4 597.9 402.7 578.9 403.1 559.4 z"/>
<path fill="#684439" opacity="1.000000" stroke="none" 
	d="M 402.2 617.9 C 403.1 617.8 403.8 617.9 404.7 618.3 C 406.6 620.4 407.9 622.3 409.6 623.7 C 415.4 628.6 421.3 633.3 427 638.3 C 425.3 640.5 423.7 642.3 421.8 644.1 C 417.3 647.6 413 651 409 654.6 C 398.3 664 387.6 673.5 377 683 C 379.3 676.3 381.4 669.5 383.9 662.9 C 389.8 647.9 395.8 633.1 402.2 617.9 z"/>
<path fill="#855e4e" opacity="1.000000" stroke="none" 
	d="M 376.8 683.2 C 387.6 673.5 398.3 664 409 654.6 C 413 651 417.3 647.6 421.7 644.4 C 418.2 650 414.5 655.3 410.6 660.5 C 395.8 680.7 380.9 700.9 366.1 721.1 C 369 709.7 371.9 698.2 374.9 686.4 C 375.5 685.1 376 684.2 376.8 683.2 z"/>
<path fill="#865842" opacity="1.000000" stroke="none" 
	d="M 552.6 595 C 554.8 608.4 556.7 621.7 558.5 635 C 558.7 637 558.8 638.9 558.5 641.2 C 545.2 639.7 532.3 637.8 519.4 636 C 508 634.4 496.6 632.7 485.2 631.3 C 472.1 629.7 459 628.4 445.8 627 C 455.6 623.8 465.2 620.5 475 617.6 C 499.6 610.2 524.2 602.9 548.8 595.6 C 549.9 595.3 551 595.2 552.6 595 z"/>
<path fill="#ac7f62" opacity="1.000000" stroke="none" 
	d="M 445.6 627 C 459 628.4 472.1 629.7 485.2 631.3 C 496.6 632.7 508 634.4 519.4 636 C 532.3 637.8 545.2 639.7 558.4 641.6 C 558.8 641.7 558.9 642.1 558.5 642.4 C 556.9 643 555.6 643.3 554.3 643.6 C 542 646.8 529.6 650.3 516.7 648.9 C 501.5 647.3 486.4 645.4 471.1 643.3 C 467.7 640.8 464.4 638.6 461.1 636.6 C 455.8 633.3 450.4 630.2 445 627 C 445 627 445.4 627 445.6 627 z"/>
<path fill="#865842" opacity="1.000000" stroke="none" 
	d="M 427.1 638 C 421.3 633.3 415.4 628.6 409.6 623.7 C 407.9 622.3 406.6 620.4 405 618.4 C 414.5 620.1 424 622.2 433.5 624.3 C 436.3 624.9 439.3 625.4 442.6 626 C 443.1 626.3 443.3 626.6 443.6 627.1 C 439.1 630.9 434.5 634.3 429.6 637.8 C 428.6 637.9 427.9 638 427.1 638 z"/>
<path fill="#91624e" opacity="1.000000" stroke="none" 
	d="M 430 637.7 C 434.5 634.3 439.1 630.9 443.8 627.3 C 444.2 627 444.3 627 444.8 627 C 450.4 630.2 455.8 633.3 461.1 636.6 C 464.4 638.6 467.7 640.8 470.6 643.3 C 456.9 641.6 443.4 639.7 430 637.7 z"/>
<path fill="#442923" opacity="1.000000" stroke="none" 
	d="M 353.8 739.2 C 353.9 739.4 353.8 739.7 353.4 740.2 C 353.3 740 353.4 739.6 353.8 739.2 z"/>
<path fill="#824c35" opacity="1.000000" stroke="none" 
	d="M 568.9 750 C 569.4 745.9 569.9 741.7 570.5 737.2 C 574.2 739.8 577.7 742.8 581.4 745.6 C 582.7 746.6 584.5 747.2 586.4 747.9 C 589 753.8 591.2 759.8 593.5 765.8 C 594.2 767.6 595.1 769.4 595.8 771.9 C 592.2 775.1 588.4 777.5 585.1 780.4 C 583.6 781.8 582.1 784.1 582.1 785.9 C 582.2 794.9 582.7 804 582.8 812.8 C 581.8 811.1 581.1 809.6 580.3 807.6 C 581.2 792.3 581.9 777.5 573.9 763.7 C 573.6 763.2 573.4 763 573.1 762.9 C 573.1 762.9 573.2 762.9 573.2 762.6 C 572.9 761.8 572.6 761.3 572.4 760.5 C 572.2 759.8 572.1 759.4 571.9 758.6 C 571 756.1 570.2 754 569.3 751.5 C 569.2 750.8 569 750.4 568.9 750 z"/>
<path fill="#442923" opacity="1.000000" stroke="none" 
	d="M 364.8 793.1 C 370.3 808.4 375.9 823.8 381.5 839.1 C 382.6 842.3 383.9 845.5 385.4 849.4 C 387.2 854 388.7 858 389.8 862 C 383.2 864.1 379.4 871 380.9 877.2 C 381.7 880.5 382.3 883.9 382.6 887.1 C 379.1 885.2 375.9 883.5 372.7 881.8 C 371.8 881.1 371 880.4 370.1 879.3 C 379.3 873.8 378.8 873.6 377.2 865.8 C 372.5 843.3 367.9 820.9 363.3 798.4 C 362.7 795.5 362.6 792.5 362.6 789.3 C 363 789.3 363.1 789.6 363.4 790.3 C 364 791.5 364.4 792.3 364.8 793.1 z"/>
<path fill="#976249" opacity="1.000000" stroke="none" 
	d="M 583 813 C 582.7 804 582.2 794.9 582.1 785.9 C 582.1 784.1 583.6 781.8 585.1 780.4 C 588.4 777.5 592.2 775.1 595.9 772.2 C 596.5 772 596.9 772 597.7 772 C 597.7 785.7 597.5 799.4 597.3 813.5 C 597.6 830.4 597.9 846.7 598.3 863.5 C 598.4 864.6 598.4 865.2 598.2 866.5 C 594.6 870.5 591.3 873.8 588 876.6 C 587.3 865.9 586.6 855.7 586 845.4 C 585.6 838.7 585.5 831.9 584.9 825.1 C 584.6 821 583.7 817 583 813 z"/>
<path fill="#57362d" opacity="1.000000" stroke="none" 
	d="M 588 877.1 C 591.3 873.8 594.6 870.5 598 866.8 C 598.4 866.7 598.6 867.1 599.1 867.7 C 601.4 875.4 603.6 882.8 606 890.9 C 606.3 892.4 606.5 893.3 606.5 894.2 C 600.8 897.9 595.4 901.5 589.8 905 C 589.7 904.9 589.3 904.9 589.4 904.6 C 589.3 903.4 589.3 902.7 589.5 901.7 C 589.4 900.7 589.1 899.9 588.9 899 C 589 899 588.9 899.1 588.9 898.6 C 588.3 891.8 587.6 885.4 587.1 878.7 C 587.5 878 587.7 877.5 588 877.1 z"/>
<path fill="#865842" opacity="1.000000" stroke="none" 
	d="M 588 876.6 C 587.7 877.5 587.5 878 586.8 878.9 C 583.6 880.9 580.8 882.5 577.6 883.9 C 577.5 881.5 577.7 879.2 578 876.6 C 578.3 872.7 578.6 869.3 578.9 865.5 C 579.2 851 579.5 837 579.9 822.5 C 579.9 819 579.9 816 580 812.6 C 580.1 810.8 580 809.4 580 808 C 580 808 580.2 808 580.3 808 C 581.1 809.6 581.8 811.1 582.8 812.8 C 583.7 817 584.6 821 584.9 825.1 C 585.5 831.9 585.6 838.7 586 845.4 C 586.6 855.7 587.3 865.9 588 876.6 z"/>
<path fill="#fbfbf9" opacity="1.000000" stroke="none" 
	d="M 571.9 758.6 C 570.9 756.7 569.8 754.5 569 752 C 570.2 754 571 756.1 571.9 758.6 z"/>
<path fill="#fbfbf9" opacity="1.000000" stroke="none" 
	d="M 573.2 762.6 C 572.7 762.3 572.3 761.7 572.1 761 C 572.6 761.3 572.9 761.8 573.2 762.6 z"/>
<path fill="#fbfbf9" opacity="1.000000" stroke="none" 
	d="M 573.9 763.7 C 573.7 763.8 573.4 763.5 573.1 763.1 C 573.4 763 573.6 763.2 573.9 763.7 z"/>
<path fill="#fbfbf9" opacity="1.000000" stroke="none" 
	d="M 365.1 792.9 C 364.4 792.3 364 791.5 363.6 790.5 C 364.1 791 364.7 791.8 365.1 792.9 z"/>
<path fill="#503129" opacity="1.000000" stroke="none" 
	d="M 389.8 862 C 391.5 864.1 392.8 866.3 394.5 869 C 396.9 873 398.9 876.5 400.7 880.2 C 396.8 885.9 393.5 891.7 386.2 893 C 385.2 891.3 384.2 889.6 383 887.5 C 382.3 883.9 381.7 880.5 380.9 877.2 C 379.4 871 383.2 864.1 389.8 862 z"/>
<path fill="#2d1f22" opacity="1.000000" stroke="none" 
	d="M 386.3 893.3 C 393.5 891.7 396.8 885.9 401 880.4 C 402.9 882.2 404.2 884 405.7 886.1 C 407.4 888.6 409 890.9 410.8 893.5 C 413.5 897.6 416.2 901.3 419 905.3 C 418.9 906.2 418.9 906.8 418.4 907.4 C 412.9 907.9 407.8 908.4 402.4 908.9 C 399.7 908.8 397.5 908.8 395.2 908.5 C 394.1 907.1 393 906.1 392 905 C 390.1 901.2 388.2 897.5 386.3 893.3 z"/>
<path fill="#2d1f22" opacity="1.000000" stroke="none" 
	d="M 592 920 C 591.4 916.3 590.7 912.5 590 908.1 C 589.9 906.5 590 905.8 590 905 C 595.4 901.5 600.8 897.9 606.5 894.2 C 608.3 898 609.8 901.9 611.6 906.1 C 612 907.1 612.2 907.9 612.6 908.8 C 614.4 912.8 616 916.6 617.9 921.1 C 618.1 922.3 618.1 922.8 618.1 923.3 C 610 923.3 601.8 923.4 593.2 923.1 C 592.4 921.9 592.2 920.9 592 920 z"/>
<path fill="#442923" opacity="1.000000" stroke="none" 
	d="M 588.9 898.6 C 585.9 895 582.8 891 579.3 886.5 C 578.5 885.4 578.2 884.8 577.9 884.1 C 580.8 882.5 583.6 880.9 586.7 879.1 C 587.6 885.4 588.3 891.8 588.9 898.6 z"/>
<path fill="#442923" opacity="1.000000" stroke="none" 
	d="M 589.5 901.7 C 589.1 901.2 589 900.5 588.9 899.4 C 589.1 899.9 589.4 900.7 589.5 901.7 z"/>
<path fill="#f4f4f1" opacity="1.000000" stroke="none" 
	d="M 579.9 822.5 C 579.7 819.8 579.5 816.7 579.7 813.3 C 579.9 816 579.9 819 579.9 822.5 z"/>
</svg>