<svg version="1.1" id="Layer_1" xmlns="http://www.w3.org/2000/svg" xmlns:xlink="http://www.w3.org/1999/xlink" x="0px" y="0px"
	 width="100%" viewBox="0 0 1024 1024" enable-background="new 0 0 1024 1024" xml:space="preserve">
<path fill="#000000" opacity="1.000000" stroke="none" 
	d="
M632.740479,835.388184 
	C635.347595,849.114197 639.352722,862.208618 639.416138,875.861755 
	C636.773071,877.074768 635.662598,875.126099 634.403198,874.075928 
	C620.006958,862.071777 607.783264,847.964111 595.656799,833.773376 
	C579.206299,814.522522 562.803223,795.231018 546.370728,775.964783 
	C545.528442,774.977234 544.811157,773.743408 542.242126,773.928467 
	C542.920288,782.743286 539.801880,791.757141 545.305786,800.264343 
	C559.601868,822.361450 573.675659,844.602783 588.040588,866.654724 
	C590.318481,870.151489 590.588745,872.755310 588.596924,876.579712 
	C573.816833,904.957458 556.916870,932.140625 541.711792,960.272339 
	C534.665222,973.309692 527.846985,986.470337 520.885803,999.554016 
	C519.911743,1001.384766 519.530762,1003.741272 516.804993,1004.588867 
	C514.719177,1002.938049 513.664307,1000.484131 512.539429,998.141418 
	C496.808960,965.379639 478.512146,934.008362 460.741608,902.350342 
	C455.850525,893.636902 451.320374,884.719971 446.376678,876.037537 
	C444.576233,872.875549 444.736572,870.552002 446.754120,867.457397 
	C461.128662,845.409058 475.189880,823.156433 489.580597,801.118835 
	C492.644958,796.426208 494.345001,791.743652 493.714966,786.153320 
	C493.238770,781.927551 493.066010,777.667603 492.660339,772.073608 
	C475.532166,790.163330 460.676727,808.464172 445.561249,826.522644 
	C430.463379,844.560242 415.375061,862.562317 396.613434,877.651672 
	C393.625092,872.930725 395.598877,869.077393 396.257507,865.628845 
	C399.499298,848.654968 402.270844,831.564697 406.932495,814.892395 
	C409.799561,804.638306 412.765839,794.405884 415.984650,784.257935 
	C419.057434,774.570312 425.324310,766.602905 431.125305,758.515747 
	C450.443634,731.583923 470.041473,704.852356 489.594879,678.089844 
	C490.976593,676.198730 491.352570,674.420593 491.160919,672.097961 
	C489.339691,650.027832 488.295746,627.914551 487.641968,605.778870 
	C487.422699,598.356201 486.806427,590.945251 486.328217,582.788086 
	C481.818909,586.882690 477.775604,590.507202 473.783508,594.187317 
	C457.003937,609.655396 440.245819,625.146790 423.466675,640.615479 
	C417.306152,646.294861 415.093567,652.705750 417.416260,661.255676 
	C421.684174,676.965942 425.032166,692.924683 428.897034,708.747314 
	C429.491272,711.180237 428.975555,712.774353 427.238831,714.502930 
	C386.019348,755.529602 344.846497,796.603149 303.662659,837.665649 
	C302.615204,838.709961 301.606628,839.850586 299.531952,839.787903 
	C297.911865,835.510803 299.480988,831.243225 300.153503,827.237244 
	C304.872284,799.128479 312.747955,771.783447 320.801636,744.491943 
	C322.293427,739.436707 323.661316,734.352173 324.034027,728.501282 
	C318.828278,731.996399 314.905396,735.746460 312.396088,741.065002 
	C302.092529,762.903687 291.557007,784.631165 280.202454,805.950195 
	C279.732635,806.832336 279.226044,807.706299 278.868225,808.634766 
	C276.234558,815.468750 271.237976,818.913940 264.301514,821.529480 
	C231.116364,834.042480 198.183060,847.223511 165.160355,860.167358 
	C163.481659,860.825439 161.863007,861.768372 159.932556,861.372559 
	C158.587921,859.365173 159.985321,857.775391 160.612259,856.188538 
	C175.296509,819.020386 190.041367,781.876160 204.693558,744.695374 
	C205.660309,742.242188 207.398956,741.152710 209.593613,740.137878 
	C233.628708,729.024780 257.613861,717.803406 281.664520,706.724243 
	C286.361237,704.560730 289.850311,701.250854 292.608826,696.540100 
	C255.622253,702.875183 219.672913,714.746399 182.228470,717.203125 
	C180.962128,714.791809 182.454300,713.881226 183.465576,712.900208 
	C207.973724,689.125244 232.495255,665.364014 257.029755,641.616211 
	C272.711121,626.437683 288.516052,611.384766 304.033600,596.040894 
	C307.376892,592.735107 310.321381,591.774231 314.990204,592.857910 
	C332.796722,596.991089 350.648560,601.022949 368.638916,604.216980 
	C374.538910,605.264526 380.742218,602.225098 384.983795,598.003540 
	C403.521912,579.552551 421.672333,560.711975 439.948273,541.997864 
	C440.394226,541.541199 440.663635,540.912048 441.436188,539.706909 
	C434.419983,539.203369 427.889252,538.694397 421.352844,538.273193 
	C401.749817,537.009705 382.137695,535.877075 362.544067,534.483704 
	C356.066986,534.023071 350.436737,534.727905 344.742859,538.739624 
	C322.142395,554.663147 298.954498,569.754700 276.400360,585.741516 
	C259.359253,597.820618 240.664352,605.226379 220.381378,609.643860 
	C201.687012,613.715332 183.126038,618.404480 164.290939,621.838867 
	C161.512177,622.345520 158.715836,622.693115 155.889618,621.881775 
	C154.909485,619.357849 156.953979,618.144348 158.106964,616.734802 
	C172.529587,599.102356 189.692245,584.313477 207.164734,569.877991 
	C220.391006,558.950623 233.849838,548.304382 246.520309,536.718323 
	C248.071594,535.299805 249.695633,533.960815 250.898819,531.973877 
	C239.699570,531.700989 229.169739,529.567749 218.715378,536.707397 
	C198.101273,550.785461 176.452530,563.346313 155.278473,576.609375 
	C152.590897,578.292847 150.307190,578.523132 147.431625,576.891113 
	C108.466621,554.777283 69.448692,532.756653 30.443260,510.714081 
	C29.438713,510.146423 28.293331,509.747833 27.837925,508.469910 
	C27.842026,506.304932 29.754820,506.001617 31.147440,505.271454 
	C63.624561,488.242859 94.529305,468.503571 126.231804,450.140259 
	C133.868866,445.716522 141.522995,441.321381 149.117538,436.825714 
	C151.419312,435.463196 153.456436,435.614685 155.647064,436.997437 
	C178.882858,451.664215 202.711319,465.382568 225.552628,480.681580 
	C226.516617,481.327240 227.516266,482.321350 228.552185,482.393494 
	C235.964066,482.909363 243.383942,483.104736 251.482239,481.952850 
	C247.714874,476.142792 242.772308,472.697540 238.496048,468.637970 
	C219.400513,450.510010 198.319321,434.615509 179.449692,416.232422 
	C172.056091,409.029510 164.614304,401.864746 158.208694,393.726379 
	C157.303314,392.576080 156.115372,391.564148 156.199844,389.501190 
	C159.126724,388.055573 162.278625,388.560913 165.261154,389.121002 
	C185.382172,392.899567 205.291458,397.578125 224.920563,403.430145 
	C231.137253,405.283478 237.484314,406.712128 243.663757,408.675018 
	C254.776672,412.205017 264.293884,418.783722 273.662567,425.418274 
	C299.077606,443.416382 324.343811,461.625671 349.567474,479.891510 
	C352.357574,481.911957 355.133728,481.704559 358.096466,481.520905 
	C377.862183,480.295502 397.626404,479.046112 417.391205,477.805939 
	C424.489197,477.360504 431.587463,476.918884 438.641724,476.478271 
	C439.079956,474.525757 437.686493,473.814819 436.851593,472.926758 
	C420.189362,455.204010 403.585388,437.424744 386.753143,419.864410 
	C379.336609,412.127045 370.611145,409.406128 359.580658,412.110901 
	C344.414032,415.829926 328.900513,418.130127 313.545044,421.087158 
	C311.069061,421.563965 309.465820,420.381134 307.852295,418.785004 
	C278.359955,389.611084 248.868683,360.435974 219.324707,331.314331 
	C207.936462,320.088898 196.407608,309.006165 184.971191,297.829376 
	C183.455841,296.348419 181.603180,295.065186 180.911163,291.466614 
	C218.754410,292.974854 254.467209,303.662384 291.575928,312.644226 
	C287.731018,306.511749 283.782867,302.137024 278.268921,299.609497 
	C255.410324,289.131287 232.493851,278.778870 209.562622,268.460266 
	C206.953552,267.286255 205.352554,265.597443 204.223206,262.947815 
	C190.116562,229.851349 176.853790,196.422394 164.608688,162.594360 
	C162.716888,157.368103 159.957993,152.386734 159.001358,146.865845 
	C161.470047,145.560623 163.014984,146.912857 164.600662,147.576706 
	C198.553421,161.790695 231.928818,177.289093 265.457672,192.453751 
	C273.058746,195.891602 276.746643,200.879761 279.957184,207.430878 
	C290.433594,228.807953 300.908966,250.185547 311.374969,271.567749 
	C314.053314,277.039673 317.662018,281.649811 323.710663,285.077332 
	C323.709869,279.022034 322.042114,273.850739 320.528107,268.707733 
	C313.010254,243.170029 304.613800,217.860214 300.304871,191.493210 
	C299.540436,186.815506 298.470459,182.075729 298.957855,177.300369 
	C301.993835,176.210281 303.245575,178.379364 304.678467,179.798355 
	C337.830505,212.629059 370.957428,245.485168 404.062714,278.363068 
	C411.393005,285.643036 418.545258,293.103760 425.943085,300.313416 
	C428.486053,302.791748 429.312531,305.183167 428.431366,308.736359 
	C424.546722,324.400055 420.938263,340.132080 417.200226,355.832367 
	C415.434296,363.249481 417.059967,369.987946 422.493408,375.123718 
	C443.194336,394.690460 464.134521,414.004120 485.004669,433.391510 
	C485.444702,433.800293 486.117676,433.958374 486.563568,434.175690 
	C487.855103,433.397949 487.666718,432.305389 487.655792,431.352478 
	C487.397644,408.850922 489.942413,386.444458 489.935028,363.951874 
	C489.934540,362.453705 489.714386,360.850006 490.155182,359.474457 
	C492.915466,350.860626 489.144012,344.503876 484.217102,337.680420 
	C464.616486,310.534637 445.629242,282.946991 426.242035,255.645676 
	C417.923462,243.931320 414.942810,230.231537 410.830811,216.901810 
	C404.050415,194.922211 399.085297,172.540558 395.558624,149.825958 
	C395.359131,148.541000 394.798096,147.211823 396.161285,145.809280 
	C399.145325,145.808456 400.923096,148.136002 402.944061,149.980515 
	C422.445282,167.779144 439.133545,188.154282 456.251099,208.140762 
	C467.302216,221.044144 478.477051,233.841614 489.611847,246.673203 
	C490.253296,247.412430 491.033356,248.031311 492.363831,248.561340 
	C491.602722,239.200790 495.508575,229.965042 489.122681,220.601898 
	C474.578979,199.277603 461.141449,177.200821 447.097321,155.531647 
	C444.999054,152.294174 445.018921,149.803711 446.856873,146.435974 
	C462.582245,117.622009 480.257477,89.944191 496.287231,61.312317 
	C502.226685,50.703484 507.912476,39.952858 513.780396,29.303513 
	C514.707458,27.621099 515.083984,25.471664 517.110840,24.564548 
	C519.177917,24.829401 519.779419,26.498213 520.507629,27.942545 
	C541.077942,68.740990 566.188293,106.931618 588.729309,146.598160 
	C590.426208,149.584320 590.597290,151.649475 588.628601,154.682449 
	C573.938293,177.314224 559.505615,200.112976 544.934998,222.822708 
	C539.759399,230.889450 543.022705,239.510513 542.210205,248.415924 
	C546.004883,247.656372 547.320984,245.171600 548.957825,243.280212 
	C568.577271,220.609299 588.038574,197.800903 607.752991,175.213272 
	C615.749329,166.051544 624.333618,157.408707 633.300659,149.174484 
	C634.833496,147.766953 636.256287,145.949615 639.017090,146.164124 
	C640.555786,148.835754 639.475281,151.698227 639.078125,154.307098 
	C635.844666,175.546402 631.016235,196.455704 624.461365,216.897751 
	C620.819885,228.254059 618.920410,240.237885 612.378235,250.636368 
	C604.828796,262.635895 596.464355,274.052856 588.293579,285.612000 
	C574.255859,305.471130 560.190613,325.310852 546.120483,345.147064 
	C544.916260,346.844757 544.423889,348.595337 544.512695,350.738190 
	C545.574890,376.357208 548.340393,401.893585 548.256470,427.567810 
	C548.249451,429.702576 548.197876,431.873596 549.838135,434.259705 
	C556.156616,428.583496 562.375183,423.158020 568.414062,417.539337 
	C582.197998,404.714569 595.606384,391.468445 609.733093,379.036316 
	C618.268127,371.525024 620.160950,363.103424 617.264832,352.642334 
	C613.449951,338.862305 610.081909,324.958832 606.307373,311.167145 
	C605.234070,307.245239 605.692383,304.459717 608.757324,301.395050 
	C639.495422,270.659454 670.042847,239.733185 700.696960,208.913376 
	C710.324524,199.233719 720.102661,189.703644 729.836731,180.130341 
	C731.220703,178.769241 732.448120,177.041962 736.017761,177.255112 
	C732.559265,213.830475 719.522461,248.067932 710.580200,284.681763 
	C716.362305,281.842072 719.670166,278.438904 721.742737,274.176300 
	C733.102356,250.813004 744.774414,227.611221 756.544983,204.452835 
	C759.583252,198.475174 763.421265,195.292618 769.489258,192.718750 
	C787.416870,185.114288 804.906860,176.484833 822.658630,168.456650 
	C838.438965,161.319962 854.334229,154.436951 870.197510,147.484802 
	C871.807068,146.779434 873.464478,145.716827 875.928772,147.066345 
	C875.428040,151.535294 873.383728,155.737717 871.814209,159.964432 
	C859.991760,191.801834 847.503418,223.380661 834.967224,254.944305 
	C831.677795,263.226410 827.422485,268.587006 818.888733,272.089935 
	C798.105103,280.621185 777.830872,290.389069 757.299011,299.541046 
	C751.885315,301.954132 748.404358,306.221497 745.181824,311.401917 
	C781.171143,303.997833 816.470398,293.027008 853.471069,291.670441 
	C853.912415,294.797546 852.100891,295.773102 850.863403,296.983063 
	C817.986328,329.129242 785.074890,361.240265 752.188171,393.376648 
	C743.850342,401.524261 735.456177,409.620697 727.342896,417.987915 
	C724.698914,420.714630 722.197815,421.644836 718.510559,420.789825 
	C703.444763,417.296295 688.030823,415.515259 673.049561,411.556610 
	C664.044373,409.177124 655.980835,411.862549 649.633301,418.081543 
	C637.744995,429.729218 626.379761,441.912323 614.848145,453.921936 
	C607.939331,461.117157 601.127747,468.405701 593.928406,476.015961 
	C597.674988,477.572449 601.346436,477.283539 604.786682,477.514832 
	C623.550781,478.776672 642.336304,479.720978 661.114685,480.770325 
	C661.946350,480.816803 662.823669,480.661255 663.606812,480.871490 
	C678.363770,484.832886 689.493774,478.182007 700.889160,469.705933 
	C723.196838,453.113098 745.590820,436.595520 768.702637,421.105469 
	C778.875427,414.287445 789.767700,409.335571 801.744385,406.203705 
	C823.954773,400.395721 845.987549,393.913391 868.509705,389.342529 
	C872.239502,388.585571 876.002747,388.426514 879.632629,388.529572 
	C880.867493,390.527527 879.627014,391.683502 878.729919,392.782867 
	C868.707947,405.065765 857.570923,416.273743 845.651794,426.702667 
	C826.220947,443.704163 806.722839,460.628876 787.297852,477.637054 
	C785.985535,478.786133 784.264282,479.756958 783.833313,482.753387 
	C794.269531,481.558167 804.321350,484.882690 814.495728,478.010925 
	C835.735474,463.665680 857.986267,450.821014 879.736206,437.223267 
	C882.794312,435.311310 885.170044,435.760834 888.003601,437.461853 
	C918.419006,455.720306 948.841431,473.967804 979.348816,492.071960 
	C986.935181,496.574036 994.841370,500.536224 1002.582581,504.779388 
	C1003.992737,505.552307 1005.800354,505.868134 1006.437073,507.891113 
	C1005.477966,510.526276 1002.655884,510.903992 1000.607300,511.988403 
	C962.465881,532.178406 926.136047,555.542175 888.205505,576.098755 
	C885.182251,577.737244 882.887512,578.192017 879.585938,576.093323 
	C858.360229,562.600891 836.890076,549.493591 815.615112,536.077576 
	C810.402283,532.790344 805.246033,530.451599 798.846863,531.085632 
	C794.101196,531.555908 789.271545,531.178101 784.531921,531.178101 
	C783.927368,533.840393 785.692444,534.589661 786.849121,535.624451 
	C804.609070,551.512268 823.399658,566.165955 841.681458,581.429016 
	C854.615662,592.227478 866.736084,603.901611 877.627380,616.797852 
	C878.771301,618.152405 880.324646,619.355225 879.885010,622.122070 
	C872.779663,622.896179 865.824280,621.250793 858.936279,619.842468 
	C836.761841,615.308533 814.802368,609.856201 792.961243,603.916504 
	C786.117981,602.055420 779.922546,598.893555 773.979614,595.163513 
	C744.486572,576.652344 716.211792,556.323364 687.288940,536.960876 
	C684.543701,535.122986 681.846069,534.046021 678.473938,534.257141 
	C650.722900,535.994568 622.966003,537.636780 595.211853,539.325378 
	C594.916870,539.343262 594.635925,539.593140 594.329102,539.744263 
	C593.734497,540.978088 594.770386,541.627686 595.395142,542.273682 
	C612.760864,560.231628 630.076660,578.239197 647.586487,596.055908 
	C654.756042,603.351135 663.394287,605.589294 673.585693,603.130310 
	C689.425476,599.308533 705.432373,596.184204 721.313599,592.526306 
	C725.154053,591.641724 727.675903,593.038452 730.207581,595.487244 
	C754.631226,619.111023 779.092102,642.696228 803.525757,666.309570 
	C818.862671,681.131470 834.180908,695.972656 849.476318,710.837280 
	C850.873596,712.195129 852.657227,713.309448 853.155762,715.473511 
	C852.035034,717.648743 850.077393,717.013550 848.345276,716.883362 
	C819.149292,714.688293 791.054932,706.903259 762.773499,700.045410 
	C756.381348,698.495422 749.899170,697.316528 742.002075,695.661621 
	C745.313049,700.766785 748.155518,704.034790 752.317322,705.971985 
	C776.773926,717.355652 801.221802,728.758545 825.731079,740.027649 
	C828.518433,741.309265 830.221558,742.991516 831.344238,745.868408 
	C842.298401,773.937683 853.432678,801.936707 864.391907,830.004028 
	C868.023499,839.304810 871.289124,848.748352 874.744141,858.118469 
	C875.151855,859.224365 875.601746,860.282593 874.916565,861.506531 
	C872.579285,862.428284 870.715698,860.986328 868.804932,860.232971 
	C834.260193,846.611023 799.743774,832.917297 765.187500,819.324768 
	C762.525757,818.277832 760.673035,816.728210 759.392822,814.212402 
	C746.780762,789.427917 733.445007,765.010559 721.633911,739.820312 
	C719.354553,734.958923 715.255676,732.037048 710.741882,729.166138 
	C719.289856,765.888916 732.493958,801.419739 736.465698,840.082336 
	C730.771423,837.915161 727.994934,834.236755 724.926819,831.189087 
	C704.253479,810.652405 683.798889,789.895874 663.203125,769.280762 
	C644.843262,750.903564 626.442810,732.566223 607.923218,714.350586 
	C605.447815,711.915771 605.448792,709.598999 606.214111,706.691528 
	C610.405212,690.768494 614.477112,674.813965 618.716553,658.903931 
	C620.376953,652.672607 619.101440,647.354431 614.382751,643.006592 
	C593.926270,624.157654 573.429993,605.351868 552.928589,586.551819 
	C552.123535,585.813538 551.411377,584.697998 549.572021,585.185608 
	C549.135864,590.790405 548.386169,596.531616 548.294678,602.283325 
	C547.923523,625.610046 545.401123,648.815369 544.507080,672.111023 
	C544.422852,674.306763 545.133545,675.965088 546.328552,677.623596 
	C562.395203,699.922119 578.482971,722.205566 594.492737,744.544861 
	C601.281311,754.017273 608.277832,763.366638 613.949280,773.581421 
	C620.823853,785.963013 623.109863,799.912720 627.115662,813.259277 
	C629.259766,820.403076 631.615662,827.536987 632.740479,835.388184 
M525.695740,779.282104 
	C526.178772,760.753540 526.661865,742.224976 527.144958,723.696411 
	C527.769653,723.437622 528.394287,723.178772 529.018982,722.919983 
	C547.643982,747.105225 566.787659,770.839478 587.926331,792.877502 
	C583.927429,782.717651 579.190063,772.987183 573.005371,764.111389 
	C558.627686,743.477539 544.001404,723.016724 529.416199,702.528259 
	C527.691284,700.105225 526.907410,697.620361 526.954346,694.632141 
	C527.098267,685.467896 527.028259,676.300293 527.052368,667.134033 
	C527.165405,624.143921 527.278809,581.153748 527.414185,538.163696 
	C527.418152,536.908020 526.968628,535.443420 528.479614,534.561035 
	C530.560608,534.544434 531.717041,536.092896 532.989929,537.343689 
	C572.687622,576.350647 612.366760,615.376526 652.061096,654.386902 
	C653.997864,656.290283 655.455994,658.368042 656.193787,661.070374 
	C663.337097,687.234070 670.553040,713.387634 680.370667,738.706421 
	C682.619385,744.505493 685.434326,750.181091 689.412170,755.219177 
	C686.498108,727.390381 677.543030,700.925720 671.682007,673.407410 
	C721.400085,718.876404 771.674988,763.254639 822.207092,807.393677 
	C777.223694,757.585388 733.210571,706.916016 685.505737,659.262329 
	C713.626648,663.560425 740.422607,672.500793 768.442017,675.431580 
	C764.853577,672.279846 760.798889,670.216614 756.574402,668.394653 
	C734.469910,658.861389 711.263977,652.598145 688.060974,646.740906 
	C674.346375,643.278870 663.318542,637.514771 653.167053,627.468323 
	C618.109436,592.773499 582.814453,558.313904 547.833435,523.537598 
	C546.517700,522.229553 544.449219,521.184082 544.839233,518.777710 
	C545.845886,517.367676 547.287598,517.734436 548.551025,517.732971 
	C601.048767,517.671875 653.546448,517.640015 706.044189,517.582275 
	C708.269592,517.579834 710.299072,517.968933 712.202881,519.217041 
	C728.358582,529.808105 744.737122,540.073853 760.640320,551.030090 
	C771.418030,558.455200 782.626648,564.836060 796.055481,570.412231 
	C776.850891,552.635681 758.302063,536.448914 738.167786,522.153748 
	C736.539429,520.997620 734.051208,520.270996 734.886169,516.948242 
	C797.674500,514.426025 860.655151,514.979065 923.292419,508.044098 
	C860.711060,501.481781 797.867371,499.971924 734.769897,496.991821 
	C755.266846,479.850769 774.801392,462.396057 792.632996,443.094025 
	C782.077393,448.541626 771.929504,454.501221 762.347412,461.447693 
	C746.839844,472.689880 731.151917,483.683411 715.532776,494.771515 
	C712.661072,496.810181 709.756409,498.371216 705.940552,498.360840 
	C654.109497,498.219696 602.278137,498.212402 550.446899,498.138977 
	C548.699463,498.136475 546.717651,498.675018 545.108093,496.470612 
	C546.027344,493.680298 548.588562,491.938202 550.640808,489.916656 
	C588.742554,452.384216 626.896179,414.904388 665.011597,377.385712 
	C666.965149,375.462769 669.179993,374.100677 671.728394,373.198273 
	C678.164368,370.919067 684.608154,368.661469 691.031067,366.345917 
	C715.939148,357.366241 740.824463,348.328156 764.185852,335.662720 
	C765.675293,334.855194 767.506470,334.417053 768.925171,331.574799 
	C739.725708,336.557617 713.681519,348.719238 685.842712,355.994415 
	C707.354004,331.413330 729.689209,307.850250 751.524353,283.832428 
	C773.446594,259.718719 794.870422,235.151886 816.512695,210.783661 
	C816.225464,210.494598 815.938232,210.205521 815.650940,209.916458 
	C767.084290,253.130096 718.834900,296.692963 671.773804,341.940979 
	C676.964539,315.526794 686.275757,290.326996 688.275879,263.471558 
	C685.004883,268.348328 682.241455,273.390930 680.133850,278.694183 
	C671.765686,299.750763 665.613403,321.530731 659.097351,343.203552 
	C657.191406,349.542969 657.222046,356.639893 651.900818,361.979614 
	C612.494446,401.523254 572.831116,440.805145 532.803589,479.719604 
	C531.531738,480.956177 530.416687,482.567078 527.077271,482.105896 
	C527.077271,476.995331 527.080139,471.753937 527.076843,466.512543 
	C527.050659,424.514465 527.288391,382.513397 526.815125,340.520355 
	C526.692566,329.637695 527.653442,319.736511 535.284180,311.400848 
	C536.286560,310.305878 536.994141,308.942566 537.850403,307.711914 
	C550.029053,290.207153 562.274109,272.748199 574.359619,255.179398 
	C579.503662,247.701416 583.111755,239.391525 586.686462,231.053467 
	C565.481689,252.381912 546.769653,275.733917 528.610962,299.784485 
	C523.768005,235.637451 524.832520,171.642212 517.401001,108.094772 
	C513.985413,139.865128 512.453308,171.750732 511.047852,203.632416 
	C509.648865,235.365829 508.769714,267.122162 507.662628,298.868439 
	C506.997559,299.079559 506.332489,299.290680 505.667419,299.501801 
	C488.545929,275.262482 469.673615,252.517731 448.952515,231.295883 
	C453.115204,242.249771 458.799744,252.305817 465.535706,261.785553 
	C479.138031,280.928467 492.709198,300.092072 505.592010,319.733459 
	C507.291870,322.325104 508.230743,324.940948 508.226044,328.114441 
	C508.152496,377.945679 508.171173,427.777008 508.130402,477.608307 
	C508.128998,479.311249 508.846252,481.356689 506.466339,482.604828 
	C502.680939,481.128815 500.477661,477.641174 497.666565,474.923401 
	C460.903931,439.380737 424.210266,403.766876 388.201263,367.457123 
	C383.547729,362.764740 378.907684,358.275543 377.092072,351.271606 
	C371.999146,331.624756 366.108856,312.189819 359.506897,292.986359 
	C355.802704,282.211761 351.851654,271.531525 345.365356,261.908020 
	C348.359589,288.987000 356.426941,314.934143 362.489044,341.682343 
	C315.657104,295.970276 267.236450,252.329712 218.545898,208.968811 
	C218.318466,209.886948 218.480927,210.380081 218.797516,210.736160 
	C240.490372,235.136826 262.019684,259.686005 283.950562,283.871094 
	C304.760803,306.820312 325.998383,329.381927 347.023041,352.137115 
	C348.162140,353.369965 350.116852,354.405243 348.659180,357.134552 
	C321.273315,348.671448 295.107147,336.050720 266.364197,331.804749 
	C266.847717,332.929291 267.470245,333.729218 268.287933,334.147827 
	C276.585052,338.395538 284.732300,343.000031 293.269196,346.703003 
	C316.186310,356.643524 339.618134,365.288513 363.235168,373.420990 
	C365.808411,374.307098 368.062714,375.563904 370.016357,377.481049 
	C386.897217,394.046722 403.803650,410.586273 420.708923,427.127014 
	C439.757812,445.765198 458.256531,464.958923 477.649719,483.254028 
	C482.005341,487.363068 486.808228,491.268463 489.975586,496.395081 
	C488.068573,498.828156 485.914642,498.195679 484.014374,498.197632 
	C432.849792,498.250549 381.685150,498.240082 330.520660,498.328278 
	C327.007324,498.334320 324.092163,497.411591 321.252838,495.369110 
	C305.029999,483.699158 288.757874,472.097198 272.447571,460.549683 
	C262.568481,453.555389 252.198395,447.362885 241.272491,442.051849 
	C259.549957,461.693390 279.721466,479.259399 300.225739,497.126892 
	C236.313385,499.469849 172.825119,501.833862 109.528831,507.948181 
	C172.910995,515.050415 236.693604,513.866516 300.587158,517.962769 
	C279.650574,534.306030 259.662140,551.195435 240.632919,569.226562 
	C249.417831,565.132751 258.497864,561.750793 266.547089,556.315918 
	C281.868500,545.970764 297.359009,535.866150 312.465393,525.216431 
	C320.669006,519.433044 329.063568,516.078979 339.350403,516.933716 
	C349.456757,517.773438 359.656891,517.633118 369.816498,517.656738 
	C407.814911,517.745239 445.813568,517.707520 483.812012,517.789917 
	C485.972717,517.794556 488.521210,516.856628 490.290314,519.313599 
	C490.072968,521.384766 488.378967,522.381836 487.123138,523.622986 
	C450.882843,559.439575 414.681152,595.295715 378.302673,630.971558 
	C372.829712,636.338806 367.735291,642.028381 359.349396,644.029846 
	C337.341339,649.282471 315.463989,655.167114 294.016205,662.451233 
	C284.481018,665.689636 275.115570,669.438171 266.770447,675.416626 
	C294.580566,672.295593 321.255463,663.656982 349.062012,659.099854 
	C326.112701,683.528931 303.288239,707.576538 281.233856,732.342468 
	C259.223389,757.059082 237.020920,781.604736 214.902649,806.225342 
	C265.114563,762.875916 314.357452,718.556396 362.589783,672.755310 
	C357.451447,700.263123 348.202087,726.508118 345.514679,754.108887 
	C351.235809,746.937683 354.276489,738.601624 357.226685,730.332825 
	C364.776886,709.171326 370.946045,687.563721 376.711121,665.857605 
	C378.104980,660.609680 380.657013,656.573120 384.467743,652.872864 
	C397.611053,640.110840 410.548889,627.137634 423.627563,614.308655 
	C449.671753,588.761658 475.747589,563.246948 501.854736,537.764404 
	C503.193634,536.457581 504.587585,534.249207 506.837341,535.345520 
	C508.786133,536.295166 508.092743,538.612244 508.094818,540.366821 
	C508.155853,592.198059 508.166443,644.029358 508.243500,695.860535 
	C508.247681,698.672668 507.398804,700.949463 505.827942,703.257202 
	C492.326569,723.092163 478.140045,742.435730 464.100403,761.886597 
	C457.591980,770.903503 451.996826,780.474609 447.681854,792.258240 
	C469.285004,770.100220 487.931061,747.172485 506.951752,724.151855 
	C509.231476,789.199890 511.263763,853.735779 517.223572,918.091003 
	C518.985474,908.914124 519.233337,899.618591 520.390198,890.453064 
	C522.564270,873.228455 522.673462,855.915405 523.609802,838.645081 
	C524.664429,819.194092 525.014526,799.704956 525.695740,779.282104 
z"/>
</svg>