<svg version="1.1" id="Layer_1" xmlns="http://www.w3.org/2000/svg" xmlns:xlink="http://www.w3.org/1999/xlink" x="0px" y="0px"
	 width="100%" viewBox="0 0 1024 1024" enable-background="new 0 0 1024 1024" xml:space="preserve">
<path fill="#000000" opacity="1.000000" stroke="none" 
	d="
M290.592590,745.556519 
	C274.588806,748.246033 258.851196,749.820068 243.577301,754.151306 
	C236.197037,756.244080 228.971085,758.715515 221.872803,761.530640 
	C218.304550,762.945740 214.765976,763.599548 211.146454,762.890625 
	C195.619019,759.849609 179.752151,759.615417 164.175110,757.041016 
	C157.660507,755.964355 151.153305,754.842896 144.420151,753.704102 
	C145.196671,750.826477 147.494247,751.126587 149.260635,750.971252 
	C189.101974,747.468811 225.792740,734.519348 259.885498,713.935913 
	C273.179291,705.909790 285.555298,696.594910 296.667908,685.688904 
	C297.946655,684.433899 299.544312,683.399780 300.712708,679.891296 
	C259.480164,707.720154 214.555603,721.693542 167.096222,728.734497 
	C119.726723,735.762024 72.705368,736.809082 26.204939,722.397461 
	C76.130188,718.657471 122.721100,704.218506 166.439468,680.563965 
	C210.261215,656.853638 248.088501,626.158508 275.926208,584.264465 
	C264.545624,592.397888 253.920898,601.437195 242.444992,609.384827 
	C220.041580,624.900330 196.240158,637.828430 171.101944,648.314331 
	C143.072723,660.006104 114.160294,668.874512 84.342155,674.574585 
	C65.894356,678.101013 47.300377,680.833618 28.510376,681.960449 
	C25.716518,682.127930 24.405199,681.127991 24.463108,678.345520 
	C24.466574,678.178894 24.501936,678.004822 24.466709,677.846619 
	C22.561417,669.291260 24.686584,663.606628 33.223705,658.880737 
	C51.447681,648.792480 68.045578,636.123108 83.996315,622.662231 
	C110.190331,600.557068 133.531052,575.737671 155.062347,549.119324 
	C178.957336,519.578735 200.570480,488.323059 223.766907,458.263550 
	C251.925034,421.774353 282.366699,387.367493 318.434204,358.404449 
	C346.068054,336.213806 375.796570,317.336700 408.359497,303.008606 
	C428.824799,294.003662 449.800751,286.853912 471.541779,281.569794 
	C498.430389,275.034546 525.674377,272.045197 553.137756,273.997284 
	C599.290771,277.277740 641.843933,291.260193 677.838440,321.397034 
	C704.126648,343.407135 722.866516,370.677155 731.956238,404.097687 
	C732.212463,405.039764 732.365540,406.017212 732.467896,406.988586 
	C732.493469,407.230652 732.133545,407.513336 731.781250,408.022400 
	C704.390503,392.894684 684.006714,402.697571 667.885498,426.622833 
	C665.329590,425.760376 665.304382,423.481903 664.595337,421.767151 
	C661.987122,415.459686 658.092346,410.140076 652.676331,406.006683 
	C643.282654,398.837524 631.806946,400.996063 625.565918,411.037567 
	C624.889282,412.126221 624.622498,413.604584 622.890503,413.543396 
	C619.453247,404.751373 626.431580,388.392670 640.441162,372.888855 
	C634.295227,369.463593 627.696960,367.800842 621.055542,367.509735 
	C593.179993,366.287964 574.971802,380.923584 562.870239,404.502045 
	C553.999939,421.784882 550.693726,440.497986 552.533508,459.681702 
	C554.502808,480.216125 562.015869,498.941803 574.257446,515.738953 
	C594.691772,543.777649 620.290100,566.441040 647.829163,587.130798 
	C670.643188,604.270752 694.844177,619.237488 719.849854,632.920898 
	C735.337219,641.395813 751.337952,648.824646 767.619141,655.643616 
	C768.451538,655.992249 769.278870,656.879761 770.661377,656.093201 
	C753.153442,645.200134 735.911499,634.214478 719.546143,621.918396 
	C687.700989,597.991577 658.492432,571.361816 634.837769,539.087708 
	C620.846191,519.997742 609.419922,499.659241 605.011658,475.978638 
	C603.219055,466.349182 602.998596,466.390228 604.732422,462.298248 
	C620.997498,503.721497 650.448730,533.825134 683.853821,560.798950 
	C668.311890,538.854858 651.724487,517.504272 653.882996,488.266510 
	C656.195557,488.098145 656.145386,489.304901 656.380188,490.206146 
	C661.776001,510.916931 674.553650,526.597778 690.444397,540.137573 
	C701.254150,549.348022 712.695129,557.725281 725.393433,564.109985 
	C731.296997,567.078308 734.544189,572.187195 738.283142,577.013000 
	C756.030701,599.919678 777.985657,618.209961 801.634705,634.589905 
	C831.367676,655.183655 863.701599,670.759033 897.431213,683.559814 
	C913.290039,689.578369 928.987671,696.123840 945.129456,701.265808 
	C960.967285,706.310974 977.343811,709.339233 994.162170,709.047791 
	C1001.208862,708.925659 1001.900818,709.788269 1001.970093,716.745178 
	C1002.036438,723.411011 1001.984802,730.078186 1002.082153,736.743347 
	C1002.136292,740.452393 1000.599121,741.962280 996.747925,742.252686 
	C970.591370,744.225220 944.485779,743.391052 918.437866,740.824890 
	C897.596985,738.771667 877.012878,734.812622 856.317139,731.681885 
	C847.070190,730.283142 837.810303,729.586426 828.604980,732.252319 
	C821.997437,734.165955 816.338196,737.541687 812.244751,743.061768 
	C809.517456,746.739624 806.289673,748.175171 801.688110,748.381104 
	C786.708740,749.051392 771.735657,749.503906 756.741699,749.321838 
	C739.591736,749.113708 722.664551,747.009766 705.671753,744.675354 
	C676.307434,740.641541 648.095764,732.640137 620.572021,722.107544 
	C594.547485,712.148560 569.753113,699.604736 546.660706,683.884460 
	C540.743164,679.855896 534.896545,675.720337 529.083069,671.542480 
	C522.982361,667.158264 515.624817,666.921753 508.713776,665.571838 
	C481.756958,660.306091 456.868652,649.880676 433.382141,635.959045 
	C404.792664,619.012695 379.598114,597.893127 357.467438,573.108704 
	C355.827087,571.271606 354.175507,569.444458 351.878174,568.194153 
	C361.162567,586.802063 374.321472,602.350098 389.093872,616.667725 
	C403.858154,630.977478 419.882660,643.691650 437.483551,654.629883 
	C431.017914,655.770264 425.056396,654.402222 419.292389,652.633179 
	C378.596649,640.143127 342.460938,619.344910 309.842316,592.186157 
	C306.964569,589.790100 304.919647,586.315308 300.466400,584.844849 
	C301.834198,588.991882 304.317047,591.838745 306.604034,594.726807 
	C323.291382,615.800110 344.382355,631.665833 367.171539,645.438904 
	C397.381836,663.697083 429.872437,676.893860 463.082794,688.534485 
	C492.445740,698.826660 522.456360,706.731873 552.714966,713.806702 
	C553.819702,714.065063 554.795410,714.875061 555.753906,716.129944 
	C549.168640,718.261536 542.639771,719.773987 535.910217,719.928833 
	C508.050446,720.569641 480.996826,715.428467 454.311890,708.045410 
	C412.034637,696.348206 372.088226,679.252747 334.887421,655.898193 
	C330.402954,653.082886 325.897949,650.300110 321.102356,647.830322 
	C323.631439,653.555481 328.484955,657.296509 332.865967,661.265503 
	C359.769043,685.638367 390.626556,703.965210 423.113007,719.764709 
	C446.946259,731.355896 471.666382,740.742004 496.672943,749.405762 
	C503.263580,751.689148 509.986481,753.598206 516.681213,755.568787 
	C518.257507,756.032715 519.955994,756.063660 520.729431,758.358643 
	C516.760620,760.288513 512.507629,759.466125 508.564697,759.920654 
	C496.341217,761.329773 484.042572,762.090759 471.771149,763.079102 
	C461.311005,763.921570 451.978546,759.175964 442.172760,756.885498 
	C427.439056,753.443909 412.636627,750.530945 397.672699,748.311157 
	C368.231598,743.943665 338.613586,743.835449 308.967468,744.367554 
	C302.985168,744.474976 297.012299,745.107117 290.592590,745.556519 
M509.446716,370.952576 
	C493.972687,387.321564 484.353119,406.575043 482.382416,429.070862 
	C479.761200,458.992798 487.681610,486.733978 501.563110,512.964233 
	C520.511230,548.768127 547.757446,577.524597 578.754578,602.991211 
	C607.660034,626.739380 638.918396,646.997070 671.836426,664.705811 
	C679.117554,668.622742 686.650391,672.071838 694.067322,675.736389 
	C693.162537,673.931396 691.827148,672.968018 690.419617,672.125366 
	C661.510437,654.817810 633.873718,635.764343 608.635071,613.329041 
	C576.230042,584.523499 548.202881,552.283325 529.217896,512.906677 
	C519.142944,492.010132 512.739441,469.919098 512.098694,446.758850 
	C511.414581,422.030334 517.873962,398.835602 533.247314,378.993347 
	C550.714050,356.449097 573.364685,343.001740 602.482117,341.623108 
	C608.750732,341.326294 615.009766,340.934937 621.277039,341.239410 
	C579.209351,332.045654 541.380127,339.192139 509.446716,370.952576 
M424.201447,512.988281 
	C409.940033,449.833252 425.045837,394.259674 467.857941,345.774323 
	C466.158966,346.230377 464.974487,346.831207 463.921295,347.609711 
	C462.451324,348.696320 461.033020,349.863953 459.672577,351.085938 
	C441.980804,366.977264 428.128113,385.594299 418.348022,407.391418 
	C405.179535,436.740204 401.690491,466.895050 408.743622,498.328644 
	C416.404419,532.470581 433.750061,561.478699 455.801239,588.032166 
	C457.179504,589.691833 458.535034,591.652954 461.947296,592.515198 
	C459.891846,589.164001 458.451080,586.584412 456.792328,584.153625 
	C451.812653,576.856323 447.512909,569.164246 443.294312,561.417114 
	C435.061951,546.299133 429.005646,530.329285 424.201447,512.988281 
z"/>
</svg>