<svg width="300" height="300" viewBox="0 0 300 300" fill="none" xmlns="http://www.w3.org/2000/svg">
<path d="M121.337 98.9997C121.767 98.7278 122.163 98.3301 122.632 98.2025C132.291 95.5752 141.957 92.9737 151.626 90.3815C153.048 90.0003 154.489 89.6922 155.987 89.4385C154.612 91.5408 153.164 93.5495 151.733 95.57C146.596 102.822 141.456 110.071 136.342 117.338C135.571 118.434 134.935 119.624 134.186 120.823C134.063 120.942 133.986 121.001 133.807 121.075C131.089 122.491 128.478 123.906 125.845 125.278C120.747 127.934 115.636 130.565 110.509 133.084C110.474 132.88 110.461 132.798 110.533 132.668C113.772 129.587 116.918 126.546 120.083 123.524C124.024 119.759 127.985 116.016 131.928 112.254C136.508 107.883 141.063 103.485 145.658 99.1293C147.917 96.9879 150.249 94.9237 152.53 92.8052C153.179 92.2024 153.764 91.5314 154.516 90.7495C154.065 90.6642 153.899 90.5746 153.799 90.6222C149.897 92.4707 146.003 94.3336 142.106 96.1906C137.667 98.3058 133.213 100.39 128.791 102.54C125.877 103.958 123.008 105.469 120.118 106.816C120.622 104.818 121.191 102.955 121.592 101.057C121.727 100.418 121.434 99.6881 121.337 98.9997Z" fill="#FBFBFA" stroke="#FBFBFA"/>
<path d="M104.863 113.551C109.846 109.183 114.828 104.815 119.93 100.535C120.032 100.718 120.04 100.829 119.991 100.905C116.967 105.615 113.835 110.26 110.931 115.043C104.638 125.409 98.4587 135.844 92.2506 146.261C92.0648 146.573 92.0788 147.004 91.9982 147.449C91.9967 147.519 91.9927 147.659 91.9191 147.669C91.7966 147.687 91.7478 147.695 91.5875 147.685C88.5102 146.346 85.5443 145.024 82.5818 143.604C83.425 142.322 84.2306 141.115 85.1099 139.963C91.1214 132.089 97.1572 124.233 103.157 116.351C103.816 115.486 104.299 114.488 104.863 113.551Z" fill="#ECBBC6" stroke="#ECBBC6"/>
<path d="M104.772 113.567C104.299 114.488 103.816 115.486 103.157 116.351C97.1571 124.233 91.1213 132.089 85.1098 139.963C84.2306 141.115 83.4249 142.322 82.489 143.64C82.2394 143.976 82.086 144.176 81.8304 144.384C81.1831 144.707 80.6213 144.995 80.0952 145.338C74.104 149.246 68.1183 153.162 62.0543 156.976C61.923 155.201 61.898 153.524 61.7987 151.852C61.7607 151.213 61.5528 150.583 61.4224 149.949C64.5274 147.293 67.6156 144.616 70.7406 141.984C81.8077 132.661 92.8871 123.353 103.965 114.044C104.181 113.863 104.441 113.735 104.772 113.567Z" fill="#FBFBFA" stroke="#FBFBFA"/>
<path d="M156.764 89.1833C159.004 88.6435 161.245 88.1064 163.484 87.5605C163.8 87.4832 164.106 87.3623 164.566 87.3299C164.784 87.4659 164.854 87.5336 164.946 87.7122C165.14 88.3817 165.353 88.9313 165.477 89.5004C166.673 95.0126 167.854 100.528 168.956 106.058C168.731 106.159 168.589 106.246 168.344 106.353C162.978 108.884 157.725 111.415 152.447 113.892C150.789 114.669 149.063 115.299 147.413 115.905C147.829 114.917 148.246 114.037 148.562 113.122C150.722 106.882 152.864 100.636 155.006 94.3897C155.6 92.6571 156.179 90.9189 156.764 89.1833Z" fill="#FAF3F8" stroke="#FAF3F8"/>
<path d="M91.9995 147.379C92.0787 147.004 92.0647 146.573 92.2504 146.261C98.4585 135.844 104.638 125.409 110.931 115.043C113.835 110.26 116.967 105.615 119.991 100.905C120.039 100.829 120.031 100.718 120.028 100.519C120.006 100.415 120.02 100.415 120.104 100.401C120.233 100.297 120.279 100.207 120.325 100.118C120.325 100.118 120.357 100.107 120.422 100.084C120.535 99.9597 120.583 99.8596 120.631 99.7595C120.811 99.5299 120.992 99.3003 121.254 99.0352C121.434 99.688 121.727 100.418 121.592 101.057C121.191 102.955 120.622 104.818 120.114 106.928C119.321 109.353 118.599 111.572 117.731 113.732C115.287 119.81 112.778 125.862 110.318 131.935C110.234 132.143 110.399 132.453 110.448 132.716C110.461 132.798 110.474 132.88 110.46 133.152C110.039 133.614 109.645 133.884 109.161 134.195C103.38 138.617 97.6899 142.998 91.9995 147.379Z" fill="#F1EEFB" stroke="#F1EEFB"/>
<path d="M215.934 108.404C214.516 105.578 213.003 102.795 211.696 99.9179C203.288 81.4099 194.93 62.879 186.541 44.3619C185.134 41.2551 183.658 38.1793 182.299 35.0225C182.927 35.6301 183.468 36.3066 184.015 36.9782C185.281 38.5331 186.55 40.0856 187.819 41.7441C187.861 42.037 187.86 42.2501 187.952 42.4095C192.79 50.807 197.63 59.2039 202.488 67.5904C203.484 69.3095 204.55 70.9877 205.599 72.7806C205.721 73.1046 205.827 73.3328 205.943 73.6723C206.349 74.9333 206.797 76.0682 207.136 77.235C209.481 85.3212 211.817 93.4105 214.126 101.507C214.778 103.792 215.334 106.104 215.934 108.404Z" fill="#FA9FAB" stroke="#FA9FAB"/>
<path d="M108.904 155.898C108.845 155.881 108.785 155.864 108.667 155.756C108.609 155.664 108.622 155.585 108.702 155.521C108.85 155.202 108.919 154.946 109.084 154.667C109.327 154.523 109.507 154.426 109.618 154.278C112.338 150.613 115.075 146.96 117.76 143.269C121.641 137.932 125.456 132.547 129.359 127.226C130.577 125.565 131.987 124.046 133.306 122.58C133.227 123.077 133.19 123.469 133.068 123.833C130.052 132.825 127.02 141.811 124.009 150.805C123.253 153.063 122.562 155.343 121.774 157.678C121.566 158.09 121.425 158.437 121.233 158.796C121.182 158.808 121.076 158.815 120.961 158.794C118.279 158.079 115.721 157.349 113.141 156.706C111.748 156.359 110.317 156.162 108.904 155.898Z" fill="#E7C0D3" stroke="#E7C0D3"/>
<path d="M145.27 176.945C143.765 172.514 142.28 168.077 140.728 163.662C140.556 163.17 140.011 162.808 139.531 162.357C139.422 162.328 139.43 162.299 139.495 162.227C139.623 161.521 139.685 160.886 139.825 160.212C140.148 160.009 140.392 159.847 140.732 159.759C144.407 159.972 147.985 160.185 151.566 160.233C156.521 160.299 161.477 160.24 166.444 160.298C166.455 160.361 166.493 160.483 166.47 160.599C166.428 160.87 166.408 161.026 166.367 161.226C166.309 161.328 166.262 161.376 166.123 161.442C165.965 161.554 165.89 161.639 165.817 161.721C165.818 161.718 165.824 161.716 165.722 161.726C165.328 161.909 165.016 162.054 164.748 162.258C161.19 164.966 157.622 167.661 154.092 170.406C152.101 171.954 150.177 173.588 148.135 175.227C147.238 175.842 146.429 176.413 145.561 176.978C145.425 176.962 145.348 176.954 145.27 176.945Z" fill="#E591A4" stroke="#E591A4"/>
<path d="M215.948 108.506C215.334 106.104 214.778 103.792 214.126 101.507C211.817 93.4105 209.481 85.3212 207.136 77.235C206.797 76.0682 206.349 74.9333 206.04 73.6595C206.257 73.5268 206.386 73.5183 206.536 73.6142C207.239 74.7102 207.923 75.7018 208.602 76.8131C208.742 77.438 208.78 78.0104 209.049 78.4368C210.524 80.7753 212.07 83.0685 213.565 85.395C216.526 90.0059 219.471 94.6273 222.419 99.2465C224.193 102.025 225.96 104.807 227.704 107.65C227.678 107.712 227.636 107.841 227.514 107.84C223.763 108.538 220.133 109.237 216.514 109.908C216.525 109.88 216.517 109.82 216.512 109.738C216.389 109.426 216.272 109.197 216.155 108.968C216.091 108.848 216.026 108.728 215.948 108.506Z" fill="#F37496" stroke="#F37496"/>
<path d="M236.77 106.333C236.084 108.867 235.436 111.412 234.704 113.934C232.584 121.233 230.431 128.522 228.112 135.89C226.707 135.54 225.464 135.162 224.261 134.681C221.624 133.629 219.008 132.524 216.438 131.36C216.893 130.786 217.292 130.293 217.78 129.757C221.183 125.587 224.512 121.47 227.81 117.33C230.715 113.684 233.587 110.012 236.548 106.353C236.672 106.346 236.721 106.339 236.77 106.333Z" fill="#C8748B" stroke="#C8748B"/>
<path d="M222.434 39.2646C222.183 38.8302 221.833 38.4242 221.697 37.9562C221.171 36.1422 220.712 34.3084 220.158 32.2662C219.971 31.1292 219.856 30.208 219.862 29.2818C220.509 29.2473 221.035 29.2178 221.561 29.1883C221.559 29.0832 221.558 28.9781 221.556 28.873C221.073 28.7398 220.591 28.6066 219.973 28.4361C220.484 26.2461 220.983 24.1082 221.607 21.9558C222.31 21.9399 222.888 21.9383 223.466 21.9368C227.355 24.335 231.244 26.7332 235.237 29.273C235.425 29.4772 235.508 29.5398 235.591 29.6024C235.591 29.6024 235.689 29.6745 235.599 29.8036C235.144 30.9212 234.673 31.8858 234.445 32.9048C234.201 33.9992 233.838 34.8352 232.489 34.923C230.453 33.8796 228.74 32.4174 226.543 31.9175C227.599 32.8561 228.743 33.6473 229.833 34.5068C230.925 35.3678 231.963 36.297 232.897 37.1995C229.325 37.8901 225.88 38.5774 222.434 39.2646Z" fill="#F2E6E6" stroke="#F2E6E6"/>
<path d="M156.681 89.1658C156.179 90.919 155.601 92.6571 155.006 94.3897C152.864 100.636 150.722 106.882 148.562 113.122C148.246 114.037 147.829 114.917 147.408 115.988C147.353 116.219 147.349 116.274 147.237 116.34C142.831 117.824 138.534 119.297 134.236 120.77C134.935 119.624 135.571 118.434 136.342 117.338C141.456 110.071 146.596 102.822 151.733 95.5699C153.164 93.5495 154.612 91.5408 156.105 89.4427C156.304 89.2885 156.45 89.2184 156.681 89.1658Z" fill="#FCD3DA" stroke="#FCD3DA"/>
<path d="M227.432 136.853C223.386 139.557 219.346 142.271 215.291 144.96C212.411 146.869 209.509 148.746 206.408 150.623C206.124 150.595 206.051 150.581 205.977 150.439C205.98 149.921 205.983 149.532 205.988 149.143C206.048 144.631 206.109 140.118 206.201 135.516C206.245 135.363 206.257 135.3 206.368 135.246C206.783 135.18 207.101 135.106 207.507 135.111C214.208 135.744 220.82 136.299 227.432 136.853Z" fill="#C45E73" stroke="#C45E73"/>
<path d="M187.818 41.6391C186.55 40.0856 185.281 38.5331 184.015 36.9782C183.468 36.3066 182.927 35.6301 182.294 34.9125C182.269 34.3823 182.212 33.836 182.416 33.4172C185.828 26.4173 189.255 19.4242 192.745 12.4634C193.025 11.9056 193.797 11.5948 194.534 11.2382C197.043 11.997 199.383 12.6191 201.669 13.4019C203.04 13.8717 204.326 14.5923 205.665 15.2096C205.681 15.2189 205.686 15.2537 205.554 15.246C201.789 15.5406 198.155 15.843 194.428 16.1407C194.108 16.2169 193.883 16.2979 193.551 16.4124C193.31 16.7358 193.117 17.0129 193.051 17.3176C191.296 25.4155 189.555 33.5162 187.812 41.6224C187.813 41.6283 187.818 41.6391 187.818 41.6391Z" fill="#FAE6E9" stroke="#FAE6E9"/>
<path d="M62.1311 157.076C68.1183 153.162 74.1041 149.246 80.0953 145.338C80.6213 144.995 81.1831 144.707 81.8653 144.488C82.0135 144.727 82.0247 144.872 81.9338 145.033C81.4312 145.507 80.9509 145.914 80.6442 146.426C79.3261 148.626 78.0383 150.845 76.7796 153.08C75.6696 155.05 74.6128 157.051 73.436 159.07C71.9548 161.316 70.5451 163.514 69.1963 165.749C68.551 166.818 68.0214 167.958 67.4394 169.065C67.4394 169.065 67.4322 169.094 67.3681 169.111C67.2405 169.165 67.1969 169.218 67.1732 169.287C66.8569 169.004 66.4435 168.776 66.2419 168.427C65.5424 167.214 64.9165 165.959 64.1847 164.534C63.9029 163.66 63.7252 162.961 63.4896 162.283C62.948 160.725 62.3782 159.177 61.8477 157.55C61.9606 157.342 62.0458 157.209 62.1311 157.076Z" fill="#E6B7CA" stroke="#E6B7CA"/>
<path d="M168.484 180.262C168.696 180.78 168.805 181.379 169.136 181.804C176.718 191.55 184.307 201.29 191.95 210.987C192.784 212.045 192.851 212.727 192.025 213.847C190.318 216.16 188.819 218.627 187.095 221.075C186.554 221.243 186.153 221.366 185.754 221.371C185.757 220.94 185.759 220.627 185.766 220.242C185.772 220.17 185.781 220.027 185.876 219.991C186.08 219.578 186.19 219.2 186.3 218.695C186.553 216.905 186.866 215.249 187.038 213.579C187.167 212.326 187.114 211.055 187.108 209.702C184.834 206.73 182.617 203.831 180.35 200.972C176.508 196.13 172.61 191.333 168.789 186.474C167.504 184.84 166.382 183.077 165.311 181.36C166.467 181.024 167.746 181.401 168.484 180.262Z" fill="#C82740" stroke="#C82740"/>
<path d="M206.516 73.5097C206.386 73.5182 206.257 73.5268 206.031 73.5482C205.828 73.3328 205.721 73.1046 205.681 72.7102C205.714 72.1283 205.747 71.6943 205.637 71.3001C204.526 67.3216 203.365 63.3569 202.271 59.3737C201.059 54.9623 199.902 50.5362 198.724 46.1155C197.798 42.6385 196.878 39.16 195.996 35.6035C196.115 35.3018 196.193 35.0787 196.344 34.857C196.468 34.855 196.518 34.8518 196.639 34.9075C197.121 35.3121 197.531 35.6579 197.941 36.0036C199.005 38.8564 200.018 41.7296 201.143 44.5582C204.775 53.6854 208.447 62.7961 212.052 72.0818C210.172 72.6701 208.344 73.0899 206.516 73.5097Z" fill="#E6566F" stroke="#E6566F"/>
<path d="M206.536 73.6142C208.344 73.0899 210.172 72.6701 212.095 72.187C212.994 73.0748 213.864 73.979 214.594 74.9843C221.792 84.895 228.971 94.8204 236.14 104.753C236.443 105.172 236.597 105.7 236.795 106.255C236.721 106.34 236.672 106.346 236.452 106.324C236.22 106.266 236.16 106.236 236.146 106.137C236.153 105.863 236.184 105.589 236.062 105.464C231.371 100.677 226.65 95.9188 221.971 91.1206C220.378 89.4873 218.893 87.7491 217.341 86.075C214.436 82.9415 211.518 79.8199 208.606 76.6933C207.923 75.7018 207.239 74.7102 206.536 73.6142Z" fill="#FA9FAB" stroke="#FA9FAB"/>
<path d="M174.471 243.024C174.376 243.237 174.281 243.45 174.121 243.754C174.056 243.846 174.053 243.839 174.053 243.839C170.618 249.94 167.185 256.041 163.749 262.141C162.527 264.311 162.519 264.313 164.1 266.224C165.958 268.468 167.825 270.705 169.808 273.09C169.254 273.614 168.743 274.098 168.075 274.67C167.249 274.177 166.468 273.683 165.933 272.998C164.706 271.428 163.598 269.764 162.442 268.139C162.076 268.881 162.163 269.538 161.968 270.096C161.462 271.538 162.139 272.423 163.07 273.422C164.523 274.983 165.79 276.718 167.137 278.378C167.615 278.967 167.392 279.339 166.77 279.593C165.518 280.053 164.734 279.569 163.955 278.521C161.049 274.606 158.043 270.765 155.066 266.714C155.306 266.235 155.525 265.908 155.806 265.647C158.12 263.501 160.649 261.546 162.714 259.184C165.313 256.211 167.619 252.967 169.883 249.722C170.891 248.277 171.489 246.546 172.345 244.876C172.856 244.059 173.296 243.309 173.843 242.589C174.124 242.754 174.297 242.889 174.471 243.024Z" fill="#BD2338" stroke="#BD2338"/>
<path d="M166.389 161.182C166.408 161.026 166.428 160.87 166.552 160.566C166.958 160.366 167.261 160.315 167.666 160.22C173.878 157.952 179.982 155.711 186.101 153.513C187.417 153.041 188.79 152.725 190.121 152.437C189.968 152.73 189.869 152.971 189.69 153.11C184.949 156.771 180.184 160.402 175.465 164.09C174.223 165.061 173.118 166.207 171.95 167.273C171.861 167.364 171.772 167.456 171.532 167.602C171.288 167.739 171.193 167.822 171.099 167.905C171.099 167.905 171.115 167.873 171.06 167.915C170.938 168.037 170.872 168.116 170.805 168.195C170.805 168.195 170.829 168.172 170.72 168.171C169.221 168.663 167.831 169.155 166.431 169.516C166.481 168.71 166.602 168.034 166.589 167.36C166.55 165.3 166.459 163.241 166.389 161.182Z" fill="#C8748B" stroke="#C8748B"/>
<path d="M233.025 37.1962C231.963 36.2969 230.925 35.3678 229.833 34.5068C228.743 33.6473 227.599 32.8561 226.543 31.9175C228.74 32.4173 230.454 33.8796 232.537 35.0057C233.527 35.6955 234.37 36.272 235.207 36.8587C236.91 38.0538 238.61 39.2544 240.312 40.4527C239.522 44.6548 238.744 48.8593 237.935 53.0578C237.633 54.6255 237.259 56.1794 236.63 57.8288C234.924 53.5099 233.217 49.191 231.566 44.7056C232.227 43.2158 232.841 41.8959 233.438 40.5684C233.979 39.3664 233.97 38.2213 233.025 37.1962Z" fill="#322F2D" stroke="#322F2D"/>
<path d="M192.167 101.117C192.515 101.278 192.862 101.438 193.269 101.792C193.787 103.858 194.257 105.727 194.701 107.602C195.154 109.52 195.581 111.444 195.911 113.352C191.206 111.858 187.165 109.461 183.615 106.174C182.283 104.941 180.723 103.954 179.21 102.78C178.717 102.442 178.282 102.18 177.846 101.825C177.848 101.608 177.851 101.483 177.976 101.355C180.42 101.326 182.742 101.313 185.064 101.274C187.432 101.235 189.799 101.171 192.167 101.117Z" fill="#F7CAD3" stroke="#F7CAD3"/>
<path d="M206.17 135.606C206.109 140.118 206.048 144.631 205.988 149.143C205.983 149.532 205.98 149.921 205.97 150.527C205.963 150.803 205.961 150.862 205.96 150.921C205.96 150.921 205.89 150.964 205.773 150.961C205.56 151.034 205.463 151.111 205.366 151.188C205.366 151.188 205.305 151.243 205.151 151.228C201.234 151.097 197.472 150.985 193.71 150.854C193.49 150.846 193.277 150.673 193.108 150.491C194.785 148.469 196.389 146.511 198.048 144.6C200.568 141.696 203.126 138.824 205.735 135.895C205.878 135.776 205.953 135.7 206.064 135.618C206.099 135.614 206.17 135.606 206.17 135.606Z" fill="#C47C96" stroke="#C47C96"/>
<path d="M192.104 101.039C189.799 101.171 187.432 101.235 185.064 101.274C182.742 101.313 180.42 101.326 177.915 101.294C177.569 101.187 177.408 101.137 177.204 100.995C176.804 100.33 176.52 99.6898 176.074 99.1948C173.062 95.844 170.006 92.532 166.993 89.1809C166.696 88.8502 166.597 88.3408 166.406 87.9144C169.84 89.6397 173.283 91.3489 176.706 93.0941C181.825 95.7032 186.931 98.3376 192.104 101.039Z" fill="#FCD3DA" stroke="#FCD3DA"/>
<path d="M62.0543 156.976C62.0458 157.209 61.9606 157.342 61.7842 157.61C61.5332 157.989 61.3734 158.234 61.1271 158.524C59.9194 159.843 58.7634 161.087 57.6834 162.394C53.451 167.516 49.2373 172.653 45.0295 177.795C44.0605 178.979 43.1421 180.204 42.2004 181.411C41.9709 181.595 41.7414 181.778 41.512 181.962C41.3778 181.856 41.2436 181.751 41.1094 181.645C47.8261 171.112 54.5429 160.578 61.341 149.996C61.5528 150.583 61.7607 151.213 61.7987 151.852C61.898 153.524 61.923 155.201 62.0543 156.976Z" fill="#F2E6E6" stroke="#F2E6E6"/>
<path d="M144.258 288.883C144.307 288.645 144.355 288.408 144.542 288.084C145.295 288.223 145.909 288.448 146.635 288.715C147.525 287.441 148.453 286.113 149.392 284.768C148.124 283.838 146.993 283.009 145.872 282.038C145.974 278.646 146.066 275.396 146.162 272.026C146.167 271.505 146.169 271.105 146.259 270.651C147.104 269.509 147.853 268.446 147.711 266.977C147.683 266.69 148.361 266.336 148.714 266.012C148.74 270.622 148.803 275.231 148.765 279.84C148.756 280.92 149.103 281.408 150.134 281.632C151.41 281.909 152.659 282.316 154.073 282.797C154.474 283.811 154.723 284.694 154.853 285.575C153.375 285.399 152.015 285.227 150.655 285.055C150.611 285.179 150.567 285.303 150.524 285.427C151.907 286.197 153.29 286.967 154.727 287.82C156.39 288.515 157.999 289.125 159.483 289.762C155.565 289.876 151.763 289.838 147.984 290.115C146.441 290.228 145.236 290.108 144.258 288.883Z" fill="#BD2338" stroke="#BD2338"/>
<path d="M144.291 230.582C143.205 227.086 142.115 223.59 141.039 220.09C140.9 219.637 140.837 219.161 140.876 218.576C142.678 217.314 144.361 216.199 145.993 215.014C146.338 214.763 146.499 214.257 146.831 213.87C146.975 213.871 147.033 213.872 147.086 213.989C147.139 214.44 147.158 214.787 147.26 215.106C148.694 219.594 148.647 224.188 148.247 228.943C148.386 231.368 148.141 233.586 147.054 235.698C146.836 235.521 146.65 235.371 146.458 235.105C146.361 234.473 146.304 233.946 146.172 233.439C145.871 232.279 145.561 231.11 144.291 230.582Z" fill="#ED435E" stroke="#ED435E"/>
<path d="M166.347 87.8649C166.597 88.3408 166.696 88.8502 166.993 89.1809C170.006 92.532 173.062 95.844 176.075 99.1948C176.52 99.6898 176.804 100.33 177.153 101.078C175.988 101.935 174.821 102.597 173.68 103.301C172.219 104.202 170.778 105.136 169.255 106.056C169.183 106.056 169.038 106.057 169.039 106.054C169.041 106.051 169.04 106.043 169.04 106.043C167.855 100.528 166.673 95.0126 165.477 89.5004C165.354 88.9313 165.14 88.3817 165.078 87.6943C165.274 87.5498 165.361 87.534 165.448 87.5183C165.448 87.5183 165.447 87.5 165.532 87.581C165.748 87.7304 165.877 87.7987 166.007 87.8671C166.1 87.8499 166.194 87.8327 166.347 87.8649Z" fill="#F7CAD3" stroke="#F7CAD3"/>
<path d="M147.091 213.872C147.033 213.872 146.975 213.871 146.762 213.802C146.54 213.483 146.474 213.233 146.495 212.91C146.743 211.941 147.01 211.048 147.044 210.146C147.185 206.414 147.237 202.678 147.355 198.945C147.541 193.082 147.755 187.22 148.057 181.371C148.666 181.643 149.176 181.901 149.749 182.19C150.256 181.343 150.707 180.568 151.193 179.815C151.232 179.755 151.509 179.848 151.675 179.869C150.564 181.177 150.468 182.724 150.437 184.366C150.254 193.912 149.998 203.457 149.674 213.09C149.162 213.066 148.678 212.772 148.337 212.891C147.865 213.055 147.501 213.53 147.091 213.872Z" fill="#E6566F" stroke="#E6566F"/>
<path d="M147.957 181.357C147.755 187.22 147.541 193.082 147.355 198.946C147.237 202.678 147.185 206.414 147.044 210.146C147.01 211.048 146.743 211.941 146.417 212.858C145.653 211.654 145.057 210.43 144.46 209.207C144.714 198.543 144.967 187.88 145.245 177.081C145.348 176.954 145.425 176.962 145.574 177.078C145.935 177.602 146.152 178.107 146.528 178.42C147.463 179.2 148.066 180.092 147.957 181.357Z" fill="#F47384" stroke="#F47384"/>
<path d="M219.74 29.2868C219.856 30.208 219.972 31.1292 220.104 32.1564C216.141 32.9502 212.164 33.6453 208.183 34.3161C207.716 34.3946 207.228 34.3387 206.646 34.1807C206.362 33.4171 206.182 32.8174 205.999 32.2189C205.407 30.2903 204.814 28.3621 204.339 26.4361C209.164 27.1867 213.872 27.9249 218.574 28.701C218.984 28.7687 219.353 29.0856 219.74 29.2868Z" fill="#C45E73" stroke="#C45E73"/>
<path d="M165.185 181.372C166.382 183.077 167.504 184.84 168.789 186.474C172.61 191.333 176.509 196.13 180.35 200.972C182.618 203.831 184.834 206.73 187.001 209.695C186.106 209.398 185.246 209.08 184.471 208.62C183.395 207.983 182.382 207.239 181.342 206.54C175.219 198.501 169.096 190.463 163.042 182.325C163.614 181.919 164.117 181.612 164.714 181.321C164.934 181.348 165.059 181.36 165.185 181.372Z" fill="#ED435E" stroke="#ED435E"/>
<path d="M172.273 244.944C171.489 246.546 170.891 248.277 169.883 249.722C167.619 252.967 165.314 256.211 162.714 259.184C160.649 261.546 158.12 263.501 155.806 265.647C155.526 265.908 155.307 266.236 155.033 266.613C153.598 265.657 152.722 264.405 152.926 262.511C153.014 261.696 153.293 261.305 154.019 261.033C156.025 260.28 157.99 259.409 160.014 258.71C161.544 258.182 162.549 257.216 163.327 255.827C165.777 251.448 168.296 247.107 170.955 242.679C171.505 243.386 171.889 244.165 172.273 244.944Z" fill="#E2333D" stroke="#E2333D"/>
<path d="M172.345 244.876C171.889 244.165 171.505 243.386 171.018 242.596C174.912 235.291 178.909 227.996 183.105 220.641C184.122 220.492 184.941 220.403 185.76 220.313C185.759 220.627 185.757 220.94 185.682 221.448C183.962 224.709 182.379 227.81 180.655 230.832C178.407 234.774 176.048 238.654 173.736 242.56C173.296 243.31 172.856 244.059 172.345 244.876Z" fill="#ED435E" stroke="#ED435E"/>
<path d="M164.62 181.305C164.117 181.612 163.614 181.919 163.009 182.232C161.566 181.869 160.682 181.01 160.052 179.776C158.988 177.694 157.843 175.655 156.697 173.473C157.062 173.085 157.463 172.823 157.98 172.557C158.465 172.439 158.834 172.325 159.202 172.208C161.599 171.441 163.996 170.674 166.397 170.03C165.806 173.871 165.213 177.588 164.62 181.305Z" fill="#C8748B" stroke="#C8748B"/>
<path d="M121.076 158.815C121.076 158.815 121.182 158.808 121.35 158.804C124.676 159.532 127.818 160.345 130.997 160.972C133.787 161.522 136.617 161.864 139.43 162.299C139.43 162.299 139.422 162.328 139.419 162.343C135.344 163.008 131.275 163.683 127.198 164.299C123.836 164.807 120.463 165.246 116.997 165.597C118.291 163.258 119.684 161.037 121.076 158.815Z" fill="#C8748B" stroke="#C8748B"/>
<path d="M196.02 113.365C195.581 111.444 195.154 109.52 194.701 107.602C194.257 105.727 193.787 103.858 193.322 101.873C196.545 105.126 199.779 108.486 203 111.859C204.848 113.794 206.673 115.751 208.563 117.777C208.618 117.857 208.611 117.846 208.5 117.831C208.165 117.81 207.942 117.804 207.627 117.74C207.093 117.511 206.654 117.333 206.211 117.167C202.814 115.898 199.417 114.632 196.02 113.365Z" fill="#FA9FAB" stroke="#FA9FAB"/>
<path d="M157.863 172.56C157.463 172.823 157.062 173.085 156.607 173.397C155.587 174.684 154.623 175.921 153.459 177.206C151.758 177.525 152.327 176.275 152.116 175.442C151.446 175.584 150.833 175.635 150.282 175.848C149.377 176.198 148.7 176.057 148.223 175.184C150.177 173.588 152.101 171.954 154.092 170.406C157.622 167.661 161.19 164.966 164.748 162.258C165.016 162.054 165.328 161.909 165.708 161.827C164.673 163.422 163.55 164.925 162.429 166.429C160.906 168.472 159.385 170.517 157.863 172.56Z" fill="#C1647F" stroke="#C1647F"/>
<path d="M208.618 117.864C208.957 117.777 209.416 117.794 209.617 117.574C211.72 115.27 213.785 112.93 215.849 110.59C215.97 110.454 215.997 110.234 216.177 109.962C216.367 109.87 216.444 109.853 216.517 109.82C216.517 109.82 216.525 109.88 216.512 110.015C216.407 110.476 216.346 110.814 216.221 111.127C213.513 117.876 210.814 124.629 208.063 131.361C207.73 132.177 207.111 132.875 206.605 133.504C207.213 129.33 207.866 125.283 208.45 121.227C208.61 120.115 208.563 118.974 208.611 117.846C208.611 117.846 208.618 117.857 208.618 117.864Z" fill="#F7D9E4" stroke="#F7D9E4"/>
<path d="M172.062 167.283C173.118 166.207 174.223 165.061 175.465 164.09C180.184 160.402 184.949 156.771 189.689 153.11C189.868 152.971 189.968 152.73 190.12 152.441C190.136 152.345 190.129 152.345 190.216 152.334C190.443 152.228 190.585 152.134 190.749 151.946C191.242 151.82 191.713 151.788 192.169 151.863C191.383 153.851 190.612 155.732 189.84 157.612C183.952 160.839 178.063 164.066 172.062 167.283Z" fill="#B95A74" stroke="#B95A74"/>
<path d="M42.3047 181.39C43.1422 180.204 44.0606 178.979 45.0296 177.795C49.2374 172.653 53.4511 167.516 57.6835 162.394C58.7635 161.087 59.9195 159.843 61.1311 158.635C60.4393 160.249 59.7097 161.828 58.8635 163.341C57.1402 166.424 55.3539 169.471 53.5936 172.532C51.2355 174.48 48.8993 176.456 46.5108 178.366C45.1886 179.423 43.7791 180.372 42.3047 181.39Z" fill="#ECACBD" stroke="#ECACBD"/>
<path d="M227.519 136.832C220.82 136.299 214.208 135.744 207.585 135.048C210.511 133.751 213.447 132.596 216.383 131.441C219.008 132.524 221.624 133.629 224.261 134.681C225.464 135.162 226.707 135.54 228.044 135.976C227.973 136.262 227.789 136.537 227.519 136.832Z" fill="#CC495E" stroke="#CC495E"/>
<path d="M120.961 158.794C119.684 161.037 118.291 163.258 116.871 165.569C116.454 165.365 115.979 165.138 115.69 164.766C113.449 161.878 111.244 158.962 108.966 155.977C110.317 156.162 111.748 156.359 113.141 156.706C115.721 157.349 118.279 158.079 120.961 158.794Z" fill="#F7CAD3" stroke="#F7CAD3"/>
<path d="M185.766 220.242C184.941 220.403 184.122 220.492 183.18 220.579C182.833 218.375 182.65 216.169 182.372 213.976C182.068 211.577 181.676 209.19 181.332 206.669C182.382 207.239 183.395 207.983 184.471 208.62C185.247 209.08 186.106 209.398 187.035 209.786C187.115 211.055 187.168 212.326 187.039 213.579C186.867 215.249 186.553 216.905 186.203 218.73C185.997 219.27 185.889 219.649 185.781 220.027C185.781 220.027 185.772 220.17 185.766 220.242Z" fill="#E6566F" stroke="#E6566F"/>
<path d="M164.714 181.321C165.213 177.588 165.807 173.871 166.406 169.965C166.413 169.776 166.44 169.647 166.44 169.647C167.83 169.155 169.221 168.663 170.732 168.183C170.391 170.913 169.953 173.634 169.459 176.345C169.234 177.585 168.899 178.804 168.549 180.147C167.746 181.401 166.467 181.024 165.311 181.36C165.059 181.36 164.934 181.348 164.714 181.321Z" fill="#C45E73" stroke="#C45E73"/>
<path d="M146.463 235.22C146.649 235.371 146.836 235.522 147.054 235.698C148.141 233.586 148.386 231.368 148.315 228.972C148.622 228.846 148.855 228.827 149.089 228.808C148.98 237.119 148.871 245.43 148.653 253.848C148.232 253.978 147.876 253.911 147.621 254.041C147.204 254.254 146.854 254.596 146.472 254.773C146.472 254.443 146.476 254.223 146.543 253.944C146.558 253.639 146.51 253.394 146.394 253.055C146.35 251.832 146.374 250.704 146.408 249.441C146.433 244.611 146.448 239.915 146.463 235.22Z" fill="#E2333D" stroke="#E2333D"/>
<path d="M205.65 15.2002C204.326 14.5923 203.04 13.8717 201.669 13.4019C199.383 12.6191 197.043 11.997 194.64 11.2478C198.539 9.84168 202.525 8.49513 206.676 7.17065C206.947 7.23813 207.053 7.28353 207.149 7.45088C206.836 9.98531 206.531 12.3978 206.151 14.8557C205.934 15.0008 205.792 15.1005 205.65 15.2002Z" fill="#FBFBFA" stroke="#FBFBFA"/>
<path d="M67.5315 169.036C68.0213 167.958 68.5509 166.818 69.1962 165.749C70.545 163.514 71.9547 161.316 73.5501 159.076C77.1835 158.253 80.6063 157.455 84.049 156.687C84.0689 156.717 84.1084 156.776 84.105 156.867C84.0998 157.08 84.0979 157.201 84.0022 157.324C83.7833 157.324 83.6583 157.323 83.4263 157.333C81.9805 158.191 80.6417 159.038 79.3029 159.885C75.4098 162.926 71.5168 165.966 67.5315 169.036Z" fill="#C47C96" stroke="#C47C96"/>
<path d="M53.6958 172.529C55.3539 169.471 57.1401 166.424 58.8634 163.341C59.7097 161.828 60.4393 160.249 61.2177 158.589C61.3735 158.234 61.5332 157.989 61.7564 157.684C62.3782 159.177 62.948 160.725 63.4896 162.283C63.7252 162.961 63.9028 163.66 64.1184 164.451C60.686 167.211 57.242 169.869 53.6958 172.529Z" fill="#D38599" stroke="#D38599"/>
<path d="M189.951 157.608C190.612 155.732 191.383 153.851 192.208 151.779C192.339 151.352 192.416 151.117 192.565 150.847C192.778 150.733 192.919 150.655 193.06 150.577C193.277 150.673 193.49 150.846 193.71 150.854C197.472 150.985 201.234 151.097 205.112 151.214C203.414 152.022 201.615 152.864 199.784 153.628C196.554 154.978 193.304 156.281 189.951 157.608Z" fill="#C8748B" stroke="#C8748B"/>
<path d="M232.898 37.1995C233.97 38.2213 233.979 39.3664 233.438 40.5684C232.841 41.8959 232.227 43.2158 231.534 44.6088C228.481 42.9222 225.515 41.1657 222.492 39.3369C225.88 38.5774 229.325 37.8901 232.898 37.1995Z" fill="#DDB7CB" stroke="#DDB7CB"/>
<path d="M166.881 279.623C167.392 279.339 167.616 278.968 167.137 278.378C165.79 276.718 164.524 274.983 163.07 273.422C162.139 272.423 161.462 271.538 161.968 270.096C162.163 269.538 162.076 268.881 162.442 268.139C163.598 269.764 164.706 271.428 165.933 272.998C166.468 273.683 167.249 274.177 168.022 274.75C168.785 275.84 169.306 277.059 170.133 278.013C171.841 279.982 171.958 280.666 170.301 283.081C169.709 282.2 169.232 281.318 168.583 280.591C168.192 280.153 167.532 279.957 166.881 279.623Z" fill="#CC495E" stroke="#CC495E"/>
<path d="M204.222 26.4338C204.814 28.3621 205.407 30.2903 205.999 32.2189C206.182 32.8174 206.362 33.4171 206.55 34.1277C204.435 33.6371 202.313 33.035 200.059 32.4016C199.929 32.3701 199.899 32.406 199.899 32.406C199.899 32.406 199.83 32.5081 199.731 32.4988C199.575 32.4479 199.531 32.3954 199.463 32.2276C198.024 30.6822 198.026 30.6644 199.378 29.0709C199.459 28.9746 199.453 28.8036 199.548 28.5881C201.124 27.7633 202.639 27.0177 204.172 26.3125C204.189 26.3528 204.222 26.4338 204.222 26.4338Z" fill="#D38599" stroke="#D38599"/>
<path d="M84.0961 157.323C84.0979 157.201 84.0998 157.08 84.1952 156.854C84.4093 156.735 84.53 156.719 84.7799 156.711C86.8771 156.634 88.8448 156.549 90.8183 156.576C90.8408 156.837 90.8576 156.986 90.8744 157.134C88.7541 159.993 86.6338 162.851 84.3674 165.747C84.2215 165.784 84.1104 165.792 84.1104 165.792C84.1104 165.792 84.0858 165.817 84.0964 165.67C84.1034 162.789 84.0997 160.056 84.0961 157.323Z" fill="#B95A74" stroke="#B95A74"/>
<path d="M146.476 254.883C146.854 254.596 147.204 254.254 147.621 254.041C147.876 253.911 148.232 253.977 148.624 253.983C148.726 257.921 148.746 261.832 148.74 265.878C148.361 266.336 147.683 266.69 147.711 266.977C147.853 268.446 147.104 269.509 146.191 270.563C146.009 270.194 145.949 269.86 145.965 269.53C146.113 266.487 146.274 263.444 146.436 260.266C146.452 258.383 146.464 256.633 146.476 254.883Z" fill="#C82740" stroke="#C82740"/>
<path d="M149.138 228.708C148.855 228.827 148.622 228.846 148.32 228.836C148.647 224.188 148.693 219.594 147.26 215.106C147.158 214.787 147.139 214.44 147.086 213.989C147.501 213.53 147.865 213.055 148.337 212.891C148.678 212.772 149.162 213.066 149.642 213.221C149.827 214.178 149.813 215.136 150.099 215.995C151.547 220.34 149.797 224.429 149.138 228.708Z" fill="#C82740" stroke="#C82740"/>
<path d="M146.458 235.105C146.448 239.915 146.433 244.611 146.318 249.487C146.03 250.158 145.841 250.649 145.574 251.343C145.269 249.633 145.01 248.176 144.751 246.719C144.684 244.908 144.618 243.096 144.615 241.046C144.614 238.078 144.55 235.349 144.486 232.619C144.44 232.011 144.394 231.403 144.319 230.689C145.561 231.11 145.871 232.279 146.172 233.439C146.304 233.946 146.361 234.473 146.458 235.105Z" fill="#E6566F" stroke="#E6566F"/>
<path d="M208.048 7.28119C212.32 9.27322 216.593 11.2653 220.881 13.3889C220.712 13.6334 220.527 13.7462 220.23 13.8456C218.819 14.111 217.52 14.3898 216.171 14.6094C215.951 14.5951 215.781 14.6399 215.516 14.6891C215.295 14.6929 215.169 14.6924 214.999 14.6025C212.635 12.1225 210.316 9.73187 208.01 7.32612C208.022 7.31103 208.048 7.28119 208.048 7.28119Z" fill="#F1D5DF" stroke="#F1D5DF"/>
<path d="M159.607 289.736C157.999 289.125 156.39 288.515 154.786 287.72C155.541 287.384 156.292 287.231 157.172 287.083C160.539 287.401 163.778 287.712 167.017 288.024C167.037 287.887 167.057 287.751 167.077 287.615C166.555 287.437 166.033 287.26 165.514 286.973C165.516 286.498 165.515 286.133 165.514 285.767C166.555 286.219 167.596 286.67 168.658 287.294C168.31 288.176 167.941 288.885 167.443 289.644C164.744 289.708 162.176 289.722 159.607 289.736Z" fill="#CC495E" stroke="#CC495E"/>
<path d="M148.135 175.227C148.7 176.057 149.377 176.198 150.282 175.848C150.833 175.635 151.446 175.584 152.116 175.442C152.327 176.275 151.758 177.525 153.374 177.257C152.935 178.087 152.381 178.913 151.751 179.804C151.509 179.848 151.232 179.755 151.192 179.816C150.707 180.568 150.255 181.343 149.749 182.19C149.176 181.901 148.666 181.644 148.057 181.371C148.066 180.092 147.464 179.2 146.529 178.42C146.152 178.107 145.935 177.602 145.633 177.084C146.429 176.413 147.238 175.842 148.135 175.227Z" fill="#E46689" stroke="#E46689"/>
<path d="M240.372 40.4533C238.61 39.2544 236.911 38.0539 235.207 36.8587C234.37 36.2721 233.527 35.6955 232.638 35.0317C233.839 34.8352 234.201 33.9992 234.445 32.9048C234.673 31.8858 235.145 30.9212 235.605 29.8638C237.279 33.3479 238.855 36.9009 240.372 40.4533Z" fill="#F1D5DF" stroke="#F1D5DF"/>
<path d="M167.573 289.594C167.941 288.885 168.31 288.176 168.719 287.364C170.167 288.013 171.576 288.763 172.984 289.513C172.999 289.667 173.014 289.82 173.028 289.974C171.72 290.311 170.418 290.911 169.103 290.942C161.907 291.11 154.708 291.138 147.465 291.154C148.137 290.983 148.853 290.786 149.571 290.775C154.256 290.709 158.942 290.693 163.627 290.636C164.598 290.624 165.581 290.578 166.533 290.404C166.916 290.333 167.228 289.876 167.573 289.594Z" fill="#AF526E" stroke="#AF526E"/>
<path d="M144.712 246.824C145.01 248.176 145.269 249.633 145.574 251.343C145.841 250.649 146.03 250.158 146.308 249.621C146.374 250.704 146.351 251.832 146.398 253.161C146.473 253.576 146.476 253.79 146.48 254.004C146.476 254.223 146.472 254.443 146.472 254.773C146.464 256.633 146.452 258.383 146.343 260.312C145.932 261.565 145.435 262.623 145.342 263.715C145.144 266.017 145.158 268.336 145.085 270.648C145.001 267.741 144.884 264.834 144.838 261.926C144.76 256.927 144.726 251.928 144.712 246.824Z" fill="#ED435E" stroke="#ED435E"/>
<path d="M90.995 157.092C90.8577 156.986 90.8409 156.837 90.9461 156.571C91.9323 156.355 92.7941 156.21 93.6611 156.167C97.9156 155.952 102.172 155.769 106.426 155.557C106.698 155.544 106.962 155.38 107.337 155.286C107.662 155.287 107.878 155.287 108.131 155.34C108.224 155.462 108.293 155.511 108.437 155.555C108.498 155.569 108.622 155.585 108.622 155.585C108.622 155.585 108.609 155.664 108.593 155.701C107.246 156.274 105.915 156.81 104.345 157.344C102.006 157.45 99.9071 157.557 97.6884 157.645C95.7562 157.426 93.9436 157.226 92.131 157.027C91.7925 157.034 91.454 157.041 90.995 157.092Z" fill="#CB5C75" stroke="#CB5C75"/>
<path d="M165.407 285.723C165.515 286.133 165.516 286.498 165.394 286.971C162.121 286.686 158.973 286.293 155.735 285.879C155.421 285.764 155.196 285.671 154.971 285.578C154.723 284.694 154.475 283.811 154.176 282.841C157.85 283.729 161.575 284.704 165.407 285.723Z" fill="#C82740" stroke="#C82740"/>
<path d="M144.402 209.29C145.057 210.43 145.653 211.654 146.328 212.93C146.474 213.233 146.54 213.484 146.676 213.801C146.499 214.257 146.338 214.763 145.993 215.014C144.361 216.199 142.678 217.314 140.932 218.47C142.014 215.447 143.179 212.41 144.402 209.29Z" fill="#FA9FAB" stroke="#FA9FAB"/>
<path d="M173.843 242.59C176.047 238.654 178.407 234.774 180.655 230.832C182.378 227.81 183.962 224.709 185.68 221.566C186.153 221.366 186.554 221.243 187.026 221.15C183.394 227.594 179.692 234.007 175.834 240.509C175.587 240.867 175.498 241.136 175.408 241.405C175.142 241.904 174.875 242.404 174.54 242.963C174.297 242.889 174.124 242.754 173.843 242.59Z" fill="#E2333D" stroke="#E2333D"/>
<path d="M145.863 282.181C146.993 283.009 148.124 283.838 149.392 284.768C148.453 286.113 147.525 287.441 146.635 288.715C145.909 288.449 145.295 288.223 144.571 287.998C144.611 286.792 144.76 285.586 145.018 284.236C145.121 283.94 145.114 283.788 145.108 283.636C145.104 283.483 145.1 283.329 145.171 283.002C145.361 282.603 145.477 282.378 145.66 282.158C145.728 282.162 145.863 282.181 145.863 282.181Z" fill="#CC495E" stroke="#CC495E"/>
<path d="M167.443 289.644C167.228 289.876 166.916 290.333 166.533 290.404C165.581 290.578 164.598 290.624 163.627 290.636C158.942 290.693 154.256 290.709 149.571 290.776C148.853 290.786 148.137 290.983 147.341 291.137C145.734 291.47 144.689 290.681 143.805 289.591C143.744 289.515 143.98 289.197 144.168 288.937C145.236 290.108 146.441 290.228 147.984 290.115C151.763 289.838 155.565 289.876 159.483 289.762C162.176 289.722 164.745 289.708 167.443 289.644Z" fill="#322F2D" stroke="#322F2D"/>
<path d="M84.0023 157.324C84.0999 160.056 84.1035 162.789 84.1082 165.658C82.9481 164.296 81.7871 162.799 80.6619 161.141C81.0326 160.353 81.2879 159.663 81.7228 159.114C82.2467 158.454 82.9231 157.914 83.5334 157.322C83.6584 157.323 83.7835 157.324 84.0023 157.324Z" fill="#D38599" stroke="#D38599"/>
<path d="M223.453 21.8318C222.888 21.9383 222.31 21.9399 221.484 21.9499C220.448 21.8611 219.659 21.7638 218.854 21.5658C218.801 21.2645 218.764 21.064 218.738 20.7925C218.732 20.622 218.683 20.5422 218.572 20.3908C218.245 19.8894 217.948 19.4794 217.722 18.9977C218.447 18.4853 219.101 18.0446 219.82 17.6773C220.445 18.9108 221.369 19.3137 222.609 19.06C222.609 19.06 222.647 19.089 222.647 19.1715C222.693 19.366 222.741 19.4781 222.789 19.5901C223.006 20.3024 223.223 21.0146 223.453 21.8318Z" fill="#E6566F" stroke="#E6566F"/>
<path d="M92.1672 157.109C93.9435 157.226 95.7561 157.426 97.702 157.752C97.3698 158.825 96.9043 159.772 96.3995 160.8C96.7515 160.8 97.1204 160.8 97.4893 160.8C96.4756 161.765 95.7111 161.573 94.9153 160.434C94.111 159.284 93.1154 158.267 92.1672 157.109Z" fill="#DA99AF" stroke="#DA99AF"/>
<path d="M97.5923 160.771C97.1205 160.8 96.7516 160.8 96.3997 160.8C96.9044 159.772 97.3699 158.825 97.8217 157.771C99.9071 157.557 102.006 157.45 104.232 157.348C103.331 157.947 102.327 158.588 101.27 159.123C100.104 159.714 98.8887 160.207 97.5923 160.771Z" fill="#C8748B" stroke="#C8748B"/>
<path d="M222.618 18.941C221.369 19.3137 220.445 18.9108 219.817 17.5556C219.947 16.1934 220.145 15.0263 220.342 13.8591C220.527 13.7463 220.712 13.6334 220.961 13.4747C221.559 15.2266 222.093 17.0243 222.618 18.941Z" fill="#F47384" stroke="#F47384"/>
<path d="M145.062 270.776C145.158 268.336 145.145 266.017 145.342 263.715C145.436 262.623 145.932 261.565 146.338 260.446C146.274 263.444 146.113 266.487 145.965 269.53C145.949 269.86 146.009 270.194 146.103 270.615C146.169 271.104 146.168 271.505 146.058 272.032C145.671 272.165 145.392 272.173 145.112 272.181C145.088 271.755 145.064 271.329 145.062 270.776Z" fill="#E2333D" stroke="#E2333D"/>
<path d="M145.089 272.315C145.391 272.173 145.671 272.165 146.054 272.152C146.066 275.396 145.974 278.646 145.872 282.038C145.863 282.181 145.728 282.162 145.612 282.043C145.378 280.255 145.259 278.587 145.14 276.918C145.115 275.428 145.09 273.939 145.089 272.315Z" fill="#C82740" stroke="#C82740"/>
<path d="M199.5 32.3321C199.531 32.3954 199.575 32.4479 199.673 32.5202C199.173 33.6561 198.631 34.7614 198.015 35.9351C197.53 35.6579 197.12 35.3121 196.69 34.8245C197.46 33.7139 197.98 32.4221 199.5 32.3321Z" fill="#C1647F" stroke="#C1647F"/>
<path d="M83.4262 157.333C82.9229 157.914 82.2465 158.454 81.7227 159.114C81.2878 159.663 81.0324 160.353 80.6441 161.042C80.2282 160.716 79.8657 160.329 79.4031 159.914C80.6417 159.038 81.9804 158.191 83.4262 157.333Z" fill="#B95A74" stroke="#B95A74"/>
<path d="M144.466 232.756C144.55 235.349 144.614 238.078 144.649 240.914C144.562 238.31 144.504 235.601 144.466 232.756Z" fill="#ED435E" stroke="#ED435E"/>
<path d="M145.113 277.047C145.259 278.586 145.378 280.255 145.544 282.038C145.477 282.378 145.361 282.603 145.203 282.891C145.136 281.027 145.111 279.101 145.113 277.047Z" fill="#ED435E" stroke="#ED435E"/>
<path d="M207.158 7.32892C207.053 7.28352 206.948 7.23812 206.795 7.16117C207.145 7.1283 207.542 7.12699 207.994 7.20343C208.048 7.28119 208.022 7.31103 207.905 7.3194C207.577 7.32816 207.368 7.32854 207.158 7.32892Z" fill="#F1D5DF" stroke="#F1D5DF"/>
<path d="M216.512 109.738C216.444 109.853 216.367 109.87 216.229 109.863C216.142 109.632 216.113 109.41 216.12 109.078C216.272 109.197 216.389 109.426 216.512 109.738Z" fill="#FA9FAB" stroke="#FA9FAB"/>
<path d="M175.47 241.329C175.498 241.136 175.587 240.867 175.759 240.57C175.738 240.779 175.634 241.015 175.47 241.329Z" fill="#BD2338" stroke="#BD2338"/>
<path d="M145.065 283.692C145.114 283.788 145.121 283.94 145.084 284.121C145.034 284.016 145.028 283.882 145.065 283.692Z" fill="#ED435E" stroke="#ED435E"/>
<path d="M165.409 87.4435C165.361 87.534 165.274 87.5498 165.055 87.5834C164.854 87.5336 164.784 87.4659 164.686 87.3303C164.896 87.2978 165.133 87.3333 165.409 87.4435Z" fill="#FCD3DA" stroke="#FCD3DA"/>
<path d="M222.805 19.5259C222.741 19.4781 222.693 19.366 222.637 19.1935C222.692 19.2427 222.757 19.3522 222.805 19.5259Z" fill="#F47384" stroke="#F47384"/>
<path d="M235.572 29.5173C235.507 29.5391 235.424 29.4767 235.299 29.3488C235.355 29.3332 235.455 29.3832 235.572 29.5173Z" fill="#F1D5DF" stroke="#F1D5DF"/>
<path d="M199.919 32.4103C199.899 32.4062 199.929 32.3701 199.935 32.3716C199.942 32.373 199.94 32.4145 199.919 32.4103Z" fill="#C1647F" stroke="#C1647F"/>
<path d="M165.955 87.7606C165.877 87.7987 165.748 87.7304 165.542 87.5801C165.611 87.5502 165.757 87.6022 165.955 87.7606Z" fill="#FCD3DA" stroke="#FCD3DA"/>
<path d="M120.552 99.793C120.584 99.8598 120.536 99.9601 120.408 100.093C120.377 100.026 120.425 99.9265 120.552 99.793Z" fill="#ECBBC6" stroke="#ECBBC6"/>
<path d="M120.247 100.135C120.278 100.207 120.233 100.297 120.11 100.403C120.079 100.331 120.125 100.242 120.247 100.135Z" fill="#ECBBC6" stroke="#ECBBC6"/>
<path d="M206.053 150.908C205.961 150.862 205.963 150.803 205.971 150.656C206.051 150.581 206.124 150.595 206.309 150.63C206.328 150.733 206.237 150.814 206.053 150.908Z" fill="#C8748B" stroke="#C8748B"/>
<path d="M174.059 243.856C174.053 243.839 174.057 243.846 174.052 243.849C174.048 243.852 174.065 243.872 174.059 243.856Z" fill="#E2333D" stroke="#E2333D"/>
<path d="M205.463 151.174C205.463 151.11 205.559 151.034 205.745 150.93C205.743 150.989 205.651 151.075 205.463 151.174Z" fill="#C8748B" stroke="#C8748B"/>
<path d="M84.1236 165.841C84.1104 165.792 84.221 165.784 84.2767 165.784C84.2671 165.82 84.202 165.855 84.1236 165.841Z" fill="#D38599" stroke="#D38599"/>
<path d="M171.202 167.9C171.193 167.821 171.287 167.739 171.47 167.622C171.475 167.691 171.389 167.794 171.202 167.9Z" fill="#B95A74" stroke="#B95A74"/>
<path d="M170.891 168.178C170.872 168.115 170.938 168.036 171.075 167.924C171.09 167.981 171.033 168.071 170.891 168.178Z" fill="#B95A74" stroke="#B95A74"/>
<path d="M67.2266 169.277C67.1969 169.218 67.2404 169.165 67.3528 169.112C67.3883 169.172 67.3476 169.229 67.2266 169.277Z" fill="#C47C96" stroke="#C47C96"/>
<path d="M110.533 132.668C110.399 132.453 110.234 132.143 110.318 131.935C112.778 125.862 115.287 119.81 117.731 113.732C118.599 111.572 119.321 109.353 120.114 107.05C123.008 105.469 125.877 103.958 128.791 102.54C133.213 100.39 137.667 98.3058 142.106 96.1906C146.003 94.3336 149.897 92.4707 153.798 90.6222C153.899 90.5746 154.065 90.6642 154.516 90.7495C153.764 91.5314 153.179 92.2024 152.53 92.8052C150.249 94.9237 147.917 96.9879 145.658 99.1293C141.063 103.485 136.508 107.883 131.928 112.254C127.985 116.016 124.024 119.759 120.083 123.523C116.918 126.546 113.772 129.587 110.533 132.668Z" fill="#FAE9F2" stroke="#FAE9F2"/>
<path d="M133.309 122.462C131.987 124.046 130.577 125.565 129.359 127.226C125.456 132.547 121.641 137.932 117.759 143.269C115.075 146.96 112.338 150.613 109.617 154.278C109.507 154.426 109.327 154.523 109.077 154.53C109.076 150.345 109.165 146.274 109.283 142.204C109.347 139.978 109.48 137.754 109.536 135.527C109.548 135.072 109.351 134.612 109.251 134.154C109.645 133.884 110.039 133.614 110.482 133.275C115.636 130.565 120.747 127.934 125.845 125.278C128.478 123.906 131.089 122.491 133.803 121.191C133.891 121.676 133.886 122.066 133.803 122.453C133.675 122.447 133.624 122.445 133.568 122.381C133.517 122.263 133.471 122.205 133.425 122.148C133.383 122.255 133.342 122.363 133.3 122.466C133.299 122.461 133.309 122.462 133.309 122.462Z" fill="#E8A6B5" stroke="#E8A6B5"/>
<path d="M133.88 122.455C133.886 122.066 133.891 121.676 133.901 121.171C133.986 121.001 134.063 120.942 134.186 120.823C138.534 119.297 142.831 117.824 147.234 116.453C145.059 124.464 142.793 132.379 140.484 140.28C139.929 142.181 139.232 144.041 138.517 145.845C138.285 145.368 138.073 144.978 137.996 144.562C137.585 142.326 137.231 140.079 136.812 137.844C135.849 132.712 134.859 127.585 133.88 122.455Z" fill="#E88C9F" stroke="#E88C9F"/>
<path d="M109.161 134.195C109.351 134.612 109.548 135.072 109.536 135.527C109.48 137.754 109.347 139.978 109.283 142.204C109.165 146.274 109.076 150.345 108.982 154.552C108.919 154.946 108.85 155.202 108.702 155.521C108.622 155.585 108.498 155.569 108.404 155.5C108.251 155.363 108.179 155.315 108.095 155.287C107.878 155.287 107.662 155.287 107.285 155.197C104.233 153.684 101.341 152.261 98.4492 150.838C96.2969 149.779 94.1449 148.719 91.9927 147.659C91.9927 147.659 91.9966 147.519 91.9981 147.449C97.6901 142.998 103.38 138.617 109.161 134.195Z" fill="#D38599" stroke="#D38599"/>
<path d="M91.9189 147.669C94.1447 148.719 96.2968 149.779 98.4491 150.838C101.341 152.261 104.233 153.684 107.177 155.197C106.961 155.38 106.698 155.544 106.426 155.557C102.172 155.769 97.9155 155.952 93.661 156.167C92.794 156.21 91.9322 156.355 90.9403 156.458C88.8448 156.549 86.877 156.634 84.801 156.613C84.9329 156.092 85.1213 155.635 85.4213 155.27C87.5008 152.737 89.6035 150.223 91.6987 147.703C91.7476 147.695 91.7964 147.687 91.9189 147.669Z" fill="#C8748B" stroke="#C8748B"/>
<path d="M91.5873 147.685C89.6035 150.223 87.5008 152.737 85.4212 155.27C85.1213 155.635 84.9328 156.092 84.6716 156.605C84.5299 156.719 84.4093 156.735 84.1985 156.763C84.1084 156.776 84.0688 156.717 84.0683 156.563C83.3905 152.611 82.7131 148.814 82.0358 145.016C82.0246 144.872 82.0134 144.727 81.9673 144.479C82.0859 144.176 82.2393 143.976 82.4854 143.739C85.5441 145.025 88.51 146.346 91.5873 147.685Z" fill="#D38599" stroke="#D38599"/>
<path d="M168.447 106.333C168.589 106.246 168.731 106.159 168.956 106.058C169.04 106.043 169.041 106.051 169.033 106.173C168.477 109.59 167.883 112.877 167.392 116.18C166.643 121.206 165.967 126.243 165.183 131.314C164.96 131.52 164.812 131.688 164.561 131.866C156.123 136.755 147.789 141.633 139.466 146.406C139.591 146.033 139.655 145.729 139.823 145.501C142.378 142.015 144.935 138.531 147.516 135.064C151.203 130.111 154.917 125.177 158.607 120.225C160.639 117.498 162.679 114.775 164.654 112.007C165.975 110.156 167.187 108.227 168.447 106.333Z" fill="#E1BBD0" stroke="#E1BBD0"/>
<path d="M168.344 106.353C167.187 108.227 165.975 110.156 164.654 112.007C162.679 114.775 160.639 117.498 158.607 120.225C154.917 125.177 151.203 130.111 147.516 135.064C144.935 138.531 142.378 142.015 139.823 145.501C139.655 145.729 139.591 146.033 139.467 146.509C139.458 146.924 139.461 147.131 139.37 147.333C139.044 147.242 138.812 147.154 138.572 147.068C138.564 147.07 138.552 147.079 138.556 146.963C138.573 146.538 138.586 146.229 138.599 145.92C139.231 144.041 139.929 142.181 140.484 140.28C142.793 132.379 145.059 124.464 147.342 116.442C147.349 116.274 147.353 116.219 147.362 116.08C149.063 115.299 150.789 114.669 152.447 113.892C157.725 111.415 162.978 108.884 168.344 106.353Z" fill="#F4CADB" stroke="#F4CADB"/>
<path d="M195.955 35.6822C196.878 39.16 197.798 42.6385 198.724 46.1155C199.902 50.5362 201.059 54.9623 202.271 59.3737C203.365 63.3569 204.526 67.3216 205.637 71.3001C205.747 71.6943 205.714 72.1283 205.666 72.6143C204.55 70.9877 203.484 69.3095 202.488 67.5904C197.63 59.2039 192.79 50.807 187.952 42.4094C187.86 42.2501 187.861 42.037 187.819 41.7441C187.818 41.6391 187.813 41.6283 187.905 41.5876C190.65 39.592 193.303 37.6371 195.955 35.6822Z" fill="#F76284" stroke="#F76284"/>
<path d="M138.517 145.845C138.586 146.229 138.573 146.538 138.462 146.984C137.341 147.862 136.34 148.637 135.292 149.34C131.459 151.913 127.623 154.48 123.754 156.998C123.212 157.351 122.483 157.415 121.841 157.613C122.562 155.343 123.253 153.063 124.009 150.805C127.02 141.811 130.052 132.825 133.068 123.833C133.19 123.469 133.226 123.077 133.306 122.58C133.309 122.462 133.299 122.461 133.368 122.459C133.437 122.456 133.573 122.442 133.573 122.442C133.624 122.445 133.675 122.448 133.803 122.453C134.859 127.585 135.848 132.712 136.812 137.844C137.231 140.079 137.585 142.326 137.996 144.562C138.073 144.978 138.285 145.368 138.517 145.845Z" fill="#E897A8" stroke="#E897A8"/>
<path d="M121.774 157.678C122.483 157.415 123.212 157.35 123.754 156.998C127.623 154.48 131.459 151.913 135.292 149.34C136.34 148.637 137.342 147.862 138.458 147.1C138.552 147.079 138.565 147.07 138.572 147.194C138.968 151.629 139.358 155.941 139.747 160.252C139.685 160.887 139.623 161.521 139.495 162.227C136.617 161.864 133.787 161.522 130.997 160.972C127.818 160.345 124.677 159.532 121.401 158.792C121.425 158.437 121.566 158.09 121.774 157.678Z" fill="#DA99AF" stroke="#DA99AF"/>
<path d="M166.433 160.235C161.477 160.24 156.521 160.299 151.566 160.233C147.985 160.185 144.407 159.972 140.821 159.713C146.947 155.333 153.083 151.076 159.206 146.8C159.624 146.508 159.939 146.068 160.407 145.68C160.722 145.653 160.934 145.643 161.158 145.739C162.309 148.75 163.486 151.639 164.57 154.563C165.262 156.427 165.817 158.342 166.433 160.235Z" fill="#D38599" stroke="#D38599"/>
<path d="M166.444 160.298C165.817 158.342 165.262 156.428 164.57 154.563C163.486 151.639 162.309 148.75 161.176 145.711C161.181 145.575 161.193 145.508 161.325 145.496C164.262 145.165 167.067 144.832 169.876 144.533C174.959 143.992 180.044 143.471 185.089 143.031C184.269 143.839 183.475 144.544 182.708 145.277C178.012 149.766 173.316 154.255 168.641 158.766C168.206 159.186 167.919 159.76 167.563 160.263C167.261 160.315 166.958 160.366 166.574 160.451C166.493 160.483 166.455 160.361 166.444 160.298Z" fill="#C1647F" stroke="#C1647F"/>
<path d="M160.302 145.697C159.939 146.068 159.624 146.508 159.206 146.8C153.083 151.076 146.947 155.333 140.725 159.64C140.392 159.847 140.148 160.009 139.825 160.212C139.358 155.941 138.968 151.629 138.579 147.192C138.812 147.154 139.044 147.242 139.481 147.292C141.229 147.094 142.771 146.918 144.315 146.775C147.266 146.502 150.215 146.205 153.17 146C155.543 145.836 157.924 145.794 160.302 145.697Z" fill="#ECACBD" stroke="#ECACBD"/>
<path d="M166.431 169.516C166.44 169.647 166.413 169.776 166.403 169.841C163.997 170.674 161.599 171.441 159.202 172.208C158.834 172.325 158.465 172.439 157.98 172.557C159.385 170.517 160.906 168.472 162.429 166.429C163.55 164.925 164.674 163.422 165.81 161.817C165.824 161.716 165.818 161.718 165.892 161.685C166.047 161.573 166.126 161.494 166.206 161.415C166.262 161.376 166.309 161.328 166.367 161.226C166.459 163.241 166.55 165.3 166.589 167.36C166.602 168.034 166.481 168.71 166.431 169.516Z" fill="#DA99AF" stroke="#DA99AF"/>
<path d="M166.122 161.442C166.126 161.494 166.046 161.572 165.891 161.687C165.89 161.638 165.965 161.554 166.122 161.442Z" fill="#C1647F" stroke="#C1647F"/>
<path d="M216.438 131.36C213.447 132.596 210.511 133.751 207.497 134.969C207.101 135.106 206.783 135.18 206.369 135.167C206.256 134.978 206.239 134.874 206.301 134.701C206.461 134.297 206.543 133.962 206.624 133.628C207.111 132.875 207.73 132.177 208.063 131.361C210.814 124.629 213.513 117.876 216.221 111.127C216.346 110.814 216.407 110.476 216.501 110.043C220.133 109.237 223.763 108.538 227.498 107.943C224.493 114.608 221.375 121.165 218.288 127.737C217.988 128.377 217.886 129.11 217.692 129.8C217.292 130.293 216.893 130.786 216.438 131.36Z" fill="#FAF3F8" stroke="#FAF3F8"/>
<path d="M208.602 76.8131C211.518 79.8198 214.436 82.9415 217.341 86.075C218.892 87.749 220.377 89.4872 221.97 91.1206C226.65 95.9188 231.371 100.677 236.062 105.464C236.184 105.589 236.153 105.863 236.019 106.162C233.139 106.7 230.434 107.144 227.729 107.587C225.96 104.807 224.192 102.025 222.419 99.2464C219.471 94.6273 216.526 90.0058 213.564 85.395C212.07 83.0684 210.524 80.7753 209.048 78.4368C208.78 78.0104 208.742 77.438 208.602 76.8131Z" fill="#E46689" stroke="#E46689"/>
<path d="M227.704 107.65C230.434 107.144 233.139 106.7 235.972 106.232C236.16 106.236 236.22 106.266 236.377 106.323C233.587 110.012 230.715 113.684 227.81 117.33C224.511 121.47 221.183 125.587 217.78 129.757C217.886 129.11 217.988 128.377 218.288 127.737C221.375 121.165 224.493 114.608 227.62 107.944C227.636 107.841 227.678 107.712 227.704 107.65Z" fill="#F7CAD3" stroke="#F7CAD3"/>
<path d="M218.87 21.6666C219.659 21.7638 220.448 21.8611 221.36 21.9643C220.983 24.1082 220.484 26.2461 219.973 28.4361C220.591 28.6066 221.073 28.7398 221.556 28.873C221.558 28.9781 221.559 29.0832 221.561 29.1883C221.035 29.2178 220.509 29.2473 219.862 29.2818C219.353 29.0857 218.984 28.7687 218.574 28.7011C213.872 27.9249 209.163 27.1867 204.339 26.4361C204.222 26.4338 204.189 26.3529 204.169 26.2585C204.15 26.1642 204.131 26.0566 204.151 25.9317C204.676 22.2891 205.181 18.7714 205.686 15.2538C205.686 15.2538 205.681 15.219 205.665 15.2096C205.792 15.1005 205.934 15.0008 206.167 14.9195C206.258 14.9379 206.282 15.0661 206.305 15.1528C208.918 18.3154 211.507 21.3914 214.212 24.6052C214.439 23.9988 214.602 23.5627 214.893 23.1389C216.547 23.2854 217.989 23.2037 218.87 21.6666Z" fill="#E897A8" stroke="#E897A8"/>
<path d="M206.223 134.771C206.24 134.874 206.256 134.978 206.271 135.159C206.257 135.3 206.245 135.363 206.201 135.516C206.17 135.606 206.099 135.614 205.972 135.617C205.785 135.626 205.725 135.631 205.551 135.64C201.71 136.912 197.977 138.16 194.259 139.451C191.508 140.407 188.777 141.418 185.996 142.307C186.197 141.368 186.381 140.503 186.691 139.686C188.049 136.108 189.501 132.564 190.802 128.965C191.571 126.839 192.122 124.635 192.777 122.452C192.782 122.438 192.792 122.41 192.883 122.422C193.094 122.446 193.215 122.458 193.388 122.554C197.41 126.524 201.377 130.414 205.358 134.289C205.587 134.511 205.932 134.613 206.223 134.771Z" fill="#E88C9F" stroke="#E88C9F"/>
<path d="M195.996 35.6035C193.303 37.6371 190.65 39.5921 187.905 41.5817C189.555 33.5162 191.296 25.4155 193.051 17.3176C193.117 17.0129 193.31 16.7358 193.555 16.533C193.957 18.6775 194.227 20.7385 194.547 22.7916C194.917 25.1695 195.332 27.5405 195.721 30.0411C195.9 31.7303 196.085 33.293 196.27 34.8557C196.193 35.0787 196.115 35.3018 195.996 35.6035Z" fill="#ECACBD" stroke="#ECACBD"/>
<path d="M205.554 15.246C205.181 18.7714 204.676 22.2891 204.059 25.9167C203.744 25.8999 203.51 25.8055 203.345 25.6415C200.672 22.9825 197.993 20.3283 195.355 17.6337C194.971 17.2415 194.794 16.6466 194.521 16.1454C198.155 15.843 201.789 15.5406 205.554 15.246Z" fill="#FCD3DA" stroke="#FCD3DA"/>
<path d="M194.428 16.1407C194.794 16.6466 194.971 17.2415 195.355 17.6337C197.993 20.3283 200.672 22.9825 203.345 25.6415C203.51 25.8055 203.745 25.8999 204.039 26.0416C204.131 26.0566 204.15 26.1642 204.152 26.2182C202.639 27.0178 201.124 27.7633 199.437 28.5973C198.086 29.0953 196.907 29.5049 195.727 29.9144C195.332 27.5405 194.917 25.1695 194.547 22.7916C194.227 20.7385 193.957 18.6775 193.661 16.4995C193.883 16.2979 194.108 16.2169 194.428 16.1407Z" fill="#F7CAD3" stroke="#F7CAD3"/>
<path d="M81.9336 145.033C82.7131 148.814 83.3905 152.611 84.0485 156.533C80.6063 157.455 77.1835 158.253 73.6465 159.044C74.6126 157.051 75.6694 155.05 76.7794 153.08C78.0381 150.845 79.3259 148.626 80.644 146.426C80.9507 145.914 81.431 145.507 81.9336 145.033Z" fill="#DDB7CB" stroke="#DDB7CB"/>
<path d="M185.876 219.991C185.889 219.649 185.997 219.27 186.203 218.857C186.19 219.2 186.081 219.578 185.876 219.991Z" fill="#E2333D" stroke="#E2333D"/>
<path d="M195.721 30.0411C196.907 29.5049 198.086 29.0953 199.376 28.6765C199.453 28.8036 199.459 28.9747 199.378 29.0709C198.026 30.6644 198.024 30.6822 199.463 32.2277C197.98 32.4221 197.46 33.7139 196.619 34.7656C196.518 34.8518 196.468 34.855 196.344 34.857C196.085 33.293 195.899 31.7303 195.721 30.0411Z" fill="#E591A4" stroke="#E591A4"/>
<path d="M167.666 160.22C167.919 159.76 168.206 159.186 168.641 158.766C173.316 154.255 178.012 149.766 182.708 145.277C183.475 144.544 184.269 143.839 185.078 143.029C185.106 142.936 185.11 142.914 185.193 142.939C185.334 142.975 185.392 142.985 185.5 143.077C186.223 143.914 186.892 144.673 187.568 145.425C189.208 147.246 190.851 149.063 192.492 150.882C192.416 151.117 192.339 151.352 192.223 151.671C191.713 151.788 191.243 151.82 190.663 151.96C190.412 152.16 190.271 152.253 190.129 152.345C190.129 152.345 190.136 152.345 190.137 152.341C188.79 152.725 187.417 153.041 186.101 153.513C179.982 155.711 173.878 157.952 167.666 160.22Z" fill="#AF526E" stroke="#AF526E"/>
<path d="M193.336 122.471C193.215 122.458 193.094 122.446 192.861 122.327C191.727 120.812 190.706 119.403 189.683 117.995C187.379 114.821 185.032 111.677 182.788 108.462C181.526 106.654 180.435 104.728 179.268 102.855C180.723 103.954 182.282 104.941 183.614 106.174C187.165 109.461 191.206 111.858 195.911 113.352C199.417 114.632 202.814 115.898 206.21 117.167C206.654 117.333 207.093 117.511 207.619 117.846C206.941 118.419 206.218 118.948 205.407 119.21C204.074 119.64 202.677 119.865 201.322 120.233C198.654 120.958 195.998 121.723 193.336 122.471Z" fill="#DDB7CB" stroke="#DDB7CB"/>
<path d="M179.21 102.78C180.435 104.728 181.526 106.654 182.788 108.462C185.032 111.677 187.379 114.821 189.683 117.995C190.706 119.403 191.727 120.812 192.77 122.316C192.792 122.41 192.782 122.438 192.669 122.433C189.878 121.457 187.215 120.441 184.516 119.531C183.097 119.052 181.615 118.757 180.094 118.373C180.026 118.365 179.892 118.35 179.888 118.244C179.769 117.734 179.653 117.33 179.551 116.797C179.126 113.501 178.652 110.339 178.264 107.166C178.051 105.426 177.981 103.668 177.847 101.917C178.282 102.18 178.717 102.442 179.21 102.78Z" fill="#DA99AF" stroke="#DA99AF"/>
<path d="M177.846 101.825C177.982 103.668 178.051 105.426 178.264 107.166C178.653 110.339 179.126 113.501 179.457 116.771C179.09 116.667 178.795 116.491 178.573 116.247C175.485 112.856 172.408 109.455 169.328 106.056C170.778 105.136 172.219 104.202 173.68 103.301C174.821 102.597 175.988 101.935 177.194 101.171C177.408 101.137 177.569 101.187 177.793 101.298C177.851 101.483 177.848 101.608 177.846 101.825Z" fill="#E6B7CA" stroke="#E6B7CA"/>
<path d="M192.565 150.847C190.851 149.063 189.208 147.246 187.568 145.425C186.892 144.673 186.223 143.914 185.549 143.008C185.711 142.706 185.874 142.555 186.038 142.404C188.777 141.418 191.508 140.407 194.259 139.452C197.977 138.16 201.71 136.912 205.551 135.716C205.666 135.838 205.667 135.888 205.667 135.938C203.126 138.824 200.568 141.696 198.048 144.6C196.39 146.511 194.785 148.469 193.108 150.491C192.919 150.655 192.778 150.733 192.565 150.847Z" fill="#B95A74" stroke="#B95A74"/>
<path d="M205.734 135.894C205.667 135.887 205.666 135.837 205.665 135.711C205.725 135.631 205.785 135.626 205.936 135.622C205.952 135.699 205.877 135.775 205.734 135.894Z" fill="#C45E73" stroke="#C45E73"/>
<path d="M154.853 285.575C155.196 285.671 155.421 285.764 155.769 285.978C156.275 286.424 156.659 286.751 157.043 287.078C156.292 287.231 155.541 287.384 154.731 287.637C153.289 286.967 151.907 286.197 150.524 285.427C150.567 285.303 150.611 285.179 150.655 285.055C152.015 285.227 153.375 285.399 154.853 285.575Z" fill="#CB5C75" stroke="#CB5C75"/>
<path d="M169.255 106.056C172.408 109.455 175.486 112.855 178.573 116.247C178.795 116.491 179.09 116.667 179.444 116.901C179.654 117.33 179.769 117.734 179.818 118.314C179.417 118.681 179.035 118.819 178.756 119.072C176.351 121.251 173.962 123.447 171.574 125.646C169.543 127.516 167.52 129.395 165.435 131.272C165.377 131.274 165.26 131.275 165.26 131.275C165.967 126.243 166.644 121.206 167.392 116.18C167.883 112.877 168.478 109.59 169.032 106.176C169.038 106.057 169.183 106.056 169.255 106.056Z" fill="#F1D5DF" stroke="#F1D5DF"/>
<path d="M149.85 183.246C149.841 183.25 149.859 183.242 149.85 183.246V183.246Z" fill="#E46689" stroke="#E46689"/>
<path d="M193.388 122.554C195.998 121.723 198.655 120.959 201.322 120.233C202.677 119.865 204.075 119.64 205.408 119.21C206.218 118.948 206.941 118.419 207.711 117.903C207.942 117.804 208.165 117.81 208.5 117.831C208.563 118.974 208.61 120.115 208.45 121.227C207.866 125.283 207.213 129.33 206.605 133.504C206.543 133.962 206.461 134.297 206.301 134.701C205.932 134.613 205.587 134.511 205.358 134.289C201.377 130.414 197.41 126.524 193.388 122.554Z" fill="#ECBBC6" stroke="#ECBBC6"/>
<path d="M190.216 152.334C190.271 152.253 190.412 152.16 190.64 152.054C190.585 152.134 190.444 152.228 190.216 152.334Z" fill="#C8748B" stroke="#C8748B"/>
<path d="M146.543 253.944C146.477 253.79 146.473 253.576 146.466 253.255C146.51 253.394 146.558 253.639 146.543 253.944Z" fill="#C82740" stroke="#C82740"/>
<path d="M207.149 7.45087C207.368 7.32854 207.577 7.32816 207.892 7.3345C210.316 9.73188 212.635 12.1225 214.896 14.6643C212.658 14.9431 210.478 15.0709 208.238 15.1461C207.921 15.1499 207.666 15.2061 207.315 15.2485C206.907 15.1786 206.594 15.1223 206.282 15.066C206.282 15.066 206.258 14.9379 206.242 14.8741C206.531 12.3978 206.836 9.9853 207.149 7.45087Z" fill="#F7CAD3" stroke="#F7CAD3"/>
<path d="M208.298 15.1986C210.478 15.0709 212.658 14.9432 214.941 14.7537C215.169 14.6924 215.295 14.693 215.57 14.7359C215.886 14.7418 216.054 14.7053 216.221 14.6687C217.52 14.3898 218.819 14.111 220.23 13.8456C220.144 15.0263 219.947 16.1934 219.752 17.4822C219.101 18.0446 218.447 18.4853 217.643 18.9891C217.358 18.9727 217.224 18.8932 217.006 18.735C214.14 17.7409 211.357 16.8256 208.55 15.8174C208.45 15.5492 208.374 15.3739 208.298 15.1986Z" fill="#E88C9F" stroke="#E88C9F"/>
<path d="M216.171 14.6094C216.054 14.7052 215.886 14.7418 215.665 14.7316C215.781 14.6399 215.951 14.5951 216.171 14.6094Z" fill="#F7CAD3" stroke="#F7CAD3"/>
<path d="M157.172 287.083C156.659 286.751 156.275 286.424 155.857 285.999C158.972 286.293 162.121 286.686 165.391 287.081C166.033 287.26 166.555 287.437 167.077 287.615C167.057 287.751 167.037 287.887 167.017 288.024C163.778 287.712 160.54 287.401 157.172 287.083Z" fill="#E46689" stroke="#E46689"/>
<path d="M108.131 155.34C108.179 155.315 108.25 155.363 108.342 155.486C108.293 155.511 108.223 155.462 108.131 155.34Z" fill="#C8748B" stroke="#C8748B"/>
<path d="M217.09 18.8137C217.224 18.8932 217.358 18.9727 217.571 19.0608C217.948 19.4794 218.245 19.8894 218.567 20.4611C218.606 20.7205 218.651 20.8007 218.727 20.8635C218.764 21.064 218.801 21.2645 218.854 21.5658C217.989 23.2036 216.547 23.2854 214.867 23.0311C213.607 19.8709 214.219 18.8154 217.09 18.8137Z" fill="#F2E6E6" stroke="#F2E6E6"/>
<path d="M218.738 20.7916C218.651 20.7997 218.606 20.7198 218.597 20.5525C218.683 20.5423 218.732 20.6217 218.738 20.7916Z" fill="#E897A8" stroke="#E897A8"/>
<path d="M133.568 122.381C133.573 122.442 133.436 122.456 133.368 122.463C133.342 122.363 133.383 122.255 133.425 122.148C133.471 122.205 133.517 122.263 133.568 122.381Z" fill="#E7C0D3" stroke="#E7C0D3"/>
<path d="M165.184 131.314C165.26 131.275 165.377 131.274 165.493 131.354C167.19 132.373 168.755 133.342 170.357 134.245C173.822 136.195 177.295 138.13 180.787 140.031C182.177 140.788 183.626 141.438 185.076 142.231C185.106 142.522 185.108 142.718 185.11 142.914C185.11 142.914 185.106 142.936 185.117 142.939C180.044 143.471 174.959 143.992 169.876 144.533C167.068 144.832 164.263 145.165 161.315 145.365C161.695 143.326 162.233 141.409 162.734 139.483C163.393 136.945 164.022 134.399 164.664 131.856C164.812 131.688 164.96 131.52 165.184 131.314Z" fill="#FAF3F8" stroke="#FAF3F8"/>
<path d="M164.561 131.866C164.022 134.399 163.393 136.945 162.733 139.483C162.233 141.409 161.695 143.326 161.183 145.378C161.193 145.508 161.181 145.575 161.163 145.604C160.934 145.643 160.722 145.653 160.406 145.68C157.924 145.794 155.543 145.836 153.17 146C150.215 146.205 147.265 146.502 144.315 146.775C142.77 146.918 141.229 147.094 139.575 147.296C139.461 147.131 139.458 146.924 139.455 146.614C147.789 141.633 156.123 136.755 164.561 131.866Z" fill="#F7D9E4" stroke="#F7D9E4"/>
<path d="M217.006 18.735C214.219 18.8154 213.607 19.8709 214.738 23.0188C214.602 23.5627 214.439 23.9988 214.212 24.6052C211.507 21.3914 208.918 18.3154 206.305 15.1528C206.594 15.1223 206.907 15.1786 207.341 15.3475C207.834 15.6102 208.204 15.7602 208.575 15.9103C211.357 16.8256 214.14 17.7409 217.006 18.735Z" fill="#E6566F" stroke="#E6566F"/>
<path d="M185.193 142.939C185.108 142.718 185.106 142.522 185.087 142.113C184.131 137.434 183.189 132.969 182.256 128.502C181.551 125.129 180.859 121.754 180.161 118.38C181.615 118.757 183.097 119.052 184.516 119.531C187.215 120.441 189.878 121.457 192.664 122.447C192.122 124.635 191.571 126.839 190.802 128.965C189.501 132.564 188.049 136.108 186.691 139.686C186.381 140.503 186.197 141.368 185.996 142.307C185.874 142.555 185.711 142.706 185.498 142.926C185.392 142.985 185.334 142.975 185.193 142.939Z" fill="#D38599" stroke="#D38599"/>
<path d="M180.094 118.373C180.859 121.754 181.551 125.129 182.256 128.502C183.189 132.969 184.131 137.434 185.059 142.019C183.626 141.438 182.177 140.788 180.786 140.031C177.295 138.13 173.821 136.195 170.357 134.245C168.755 133.342 167.19 132.373 165.551 131.352C167.52 129.395 169.543 127.516 171.574 125.646C173.962 123.447 176.351 121.251 178.756 119.072C179.035 118.819 179.417 118.681 179.822 118.42C179.892 118.35 180.027 118.365 180.094 118.373Z" fill="#F4CADB" stroke="#F4CADB"/>
<path d="M208.55 15.8174C208.204 15.7602 207.833 15.6102 207.436 15.3612C207.666 15.2061 207.921 15.1499 208.238 15.1462C208.374 15.3739 208.45 15.5492 208.55 15.8174Z" fill="#E897A8" stroke="#E897A8"/>
</svg>
