<svg version="1.1" id="Layer_1" xmlns="http://www.w3.org/2000/svg" xmlns:xlink="http://www.w3.org/1999/xlink" x="0px" y="0px" width="100%" viewBox="0 0 1536 768" enable-background="new 0 0 1536 768" xml:space="preserve">
<path fill="#f6f5f0" opacity="1.000000" stroke="#f6f5f0" d="M 794.8 251.3 C 812.3 257.3 829.6 263.6 846.8 269.9 C 854 272.6 861 275.8 868.3 277.8 C 876.7 280.1 882.8 285.3 888.6 291.1 C 894.3 296.8 899.9 302.5 905.6 308.1 C 916.5 318.8 927.1 329.8 938.6 339.9 C 948.2 348.2 956 358.2 966.3 365.7 C 971 369.1 971.1 374.6 972.8 379.3 C 984.4 410.4 995.7 441.6 1007.1 472.7 C 1007.5 474 1008.2 475.1 1008.9 476.7 C 1010.3 478.9 1008.8 480.4 1008.2 482 C 1006 488.9 1001.6 494.9 999.8 502.4 C 989.4 512 978.3 520.1 967.8 529 C 967.3 529.4 966.6 529.6 965.6 529.6 C 964 529.2 963.1 528.5 961.9 527.5 C 961.2 526.6 961 525.9 960.7 524.9 C 960.2 522.7 958.9 521.2 958 519.2 C 948.1 493.8 936.7 469.5 926.4 444.8 C 920.5 430.6 914.8 416.4 908.5 402.4 C 907.7 400.5 907.4 398.2 905.2 396.9 C 901.3 397.2 898 395.9 894.6 395 C 875 389.7 855.2 385.3 835.1 380.4 C 832.3 380.1 830.4 378.7 828.6 377.2 C 806.4 359.7 784 342.6 761.8 325 C 756.1 320.5 750.1 316.2 744.2 311.9 C 742.5 310.6 740.5 309.6 739.6 307.1 C 741.1 304.2 743.2 305.6 744.9 306.2 C 782.6 317.7 820.8 327.7 858.7 338.7 C 859.3 338.9 859.9 339.2 860.8 338.5 C 856.4 331.6 850.8 325.7 845.8 319.4 C 829.4 298.6 812.8 278 796.7 257 C 795.5 255.4 794.1 253.9 794.8 251.3 z"></path>
<path fill="#f3f4f0" opacity="1.000000" stroke="#f3f4f0" d="M 482.3 220.9 C 507 229.3 531.2 237.6 555.5 246 C 574.9 252.7 594.2 259.6 613.8 266.7 C 614.2 270 611.7 270.4 609.7 270.9 C 594.6 275.4 579.6 280.7 564.6 285.5 C 549.8 290.2 534.9 294.3 520.5 300.2 C 514.3 302.8 514.4 302.8 516.7 309.4 C 518.2 313.5 521 317.3 519.9 322.4 C 511.9 323.3 504.4 321.4 496.8 320.9 C 491 320.6 485.3 319.9 479.1 319.8 C 477.9 320 477 320 475.9 319.8 C 462.4 299 447.4 279.7 432.6 259.8 C 431.7 258.6 431.3 257.8 431.5 256.3 C 439.3 249.7 447.7 244.5 456 239 C 464.8 233.1 473.5 227.2 482.3 220.9 z"></path>
<path fill="#f0efea" opacity="1.000000" stroke="#f0efea" d="M 520.1 322.4 C 518.1 316.9 516.5 311.6 514.2 306.7 C 512.3 302.7 513.8 301.4 517.1 300 C 534.8 292.8 553.3 288 571.4 281.9 C 583.6 277.8 596 274 608.3 270 C 610.2 269.4 612.3 269.3 613.8 267.3 C 624.3 267.1 633.8 263 643.6 260.8 C 661.5 256.8 679.3 252.3 697.6 248 C 699.4 249.9 697.8 251.1 697 252.4 C 683.1 275.5 669.2 298.6 655.2 321.5 C 654 323.5 652.6 325.4 652.2 328.2 C 651.9 329.1 651.7 329.6 651 330.2 C 650 330.6 649.4 330.6 648.4 330.3 C 645.4 328.9 642.6 328.6 639.8 328.6 C 605.7 328.6 571.6 328.6 537.5 328.6 C 535.8 328.6 534.2 328.8 532.1 329.1 C 526.3 329.8 524.1 324.9 520.1 322.4 z"></path>
<path fill="#eeece4" opacity="1.000000" stroke="#eeece4" d="M 368.8 175.8 C 380.9 174.4 392.6 174 404.1 177.2 C 406.1 177.8 408.3 178.1 410 180.2 C 411.7 183.5 409.3 185.6 408.5 188 C 407.4 191.3 405.6 194.4 404 197.9 C 403.5 198.9 403 199.5 402.3 200.4 C 398.2 203.2 393.9 204.5 389.7 206 C 370.6 212.7 351.1 218.4 332 224.9 C 330.1 225.6 327.9 225.2 326.1 227 C 316.4 228.6 309.6 234.9 301.9 239.9 C 296.5 243.4 291.5 247.6 285 250.1 C 269.4 251.4 254.1 252.2 238.8 252.5 C 234.1 252.6 229.5 253.4 224.4 253.5 C 223.1 253.4 222.3 253.3 221.1 253 C 218.4 251.2 219.6 249.7 221 248.4 C 232.6 237.7 243.9 226.7 255.5 216 C 261.8 210.2 268.3 204.5 274.8 198.3 C 285.7 190.9 298.5 191.1 310.3 188 C 314.3 187 318.4 186.4 322.7 185.3 C 325 183.2 327.6 183.4 330 182.9 C 337.7 181.3 345.3 179.7 353.4 178 C 358.7 177.3 363.4 175.3 368.8 175.8 z"></path>
<path fill="#f0efea" opacity="1.000000" stroke="#f0efea" d="M 998.9 503.6 C 998.4 496.1 1003.9 491.2 1005.7 484.9 C 1006.3 482.4 1007.8 480.1 1009 477.4 C 1031.3 494.4 1053.6 511.8 1075.9 529.3 C 1080.2 532.7 1085 534.5 1090.4 535 C 1106.7 536.3 1123 537.5 1139.3 539.1 C 1160.4 541 1181.5 542.7 1202.6 544.3 C 1208.8 544.7 1215.1 544.8 1221.4 545.8 C 1231.3 547.5 1239.8 542.3 1248.1 537.9 C 1261.6 530.7 1275 523.3 1288.3 515.9 C 1309.3 504.1 1330.3 492.3 1351.2 480.5 C 1371.6 469 1391.9 457.4 1412.3 445.9 C 1416.2 443.7 1420 441.4 1424.1 439.1 C 1425.3 441.2 1423.5 441.7 1422.4 442.8 C 1421.8 443.2 1421.6 443.4 1421.2 443.9 C 1421 444 1421 444 1421 444 C 1420.4 444.4 1419.7 444.8 1419.2 445.8 C 1419 446 1419 446 1419 446 C 1402.1 458.4 1384.8 470.3 1367.4 481.9 C 1344.2 497.3 1321.4 513.2 1297.3 527.8 C 1280 535.3 1262.6 541.7 1245.7 549.2 C 1239.2 552.2 1233.1 556.1 1225.8 558.2 C 1204.4 558.6 1183.5 559.1 1162.5 557.8 C 1147.9 557 1133.3 557.7 1118.6 557.6 C 1112.3 557.6 1106 557.6 1099.2 557.5 C 1098.5 557.5 1098.2 557.4 1097.5 557.4 C 1096.8 557.3 1096.5 557.2 1095.8 557.1 C 1080.6 549.4 1065.9 541.6 1051.3 533.5 C 1035.3 524.7 1018.9 516.7 1003 507.4 C 1001.5 506.5 999.7 505.9 998.9 503.6 z"></path>
<path fill="#f8f9f4" opacity="1.000000" stroke="#f8f9f4" d="M 651.4 328.2 C 652.2 322.1 656.1 317.6 659 312.7 C 670.6 293 682.6 273.6 694.5 254.1 C 695.6 252.3 696.8 250.5 698 248.3 C 701.1 246.3 704.7 246.6 707.8 247.2 C 713.4 248.3 719 248.1 724.7 248 C 746.1 247.5 767.5 249.7 789 249 C 789.8 249 790.6 249.3 791.7 249.7 C 792.6 252.5 790.6 253.5 789.2 254.8 C 780.8 262.3 772.6 270 764.4 277.7 C 754.7 286.8 745.3 296.1 734.8 304.8 C 719.5 309.6 704.3 313.4 689.3 317.8 C 677.3 321.4 665.3 324.6 652.9 328.3 C 652.2 328.4 652 328.4 651.4 328.2 z"></path>
<path fill="#eeece4" opacity="1.000000" stroke="#eeece4" d="M 734.9 304.3 C 741.9 297.3 748.4 290.2 755.7 284 C 763.7 277.3 770.4 269.3 778.6 262.8 C 783.3 259.1 787.4 254.7 791.9 250.3 C 792.9 250.2 793.7 250.3 794.8 250.7 C 797.6 258 803.1 263.1 807.5 268.8 C 822.2 287.9 837.4 306.8 852.4 325.7 C 855.4 329.5 858.5 333.2 861.4 337 C 862.3 338 864.5 338.8 863.2 340.5 C 862.1 341.8 860.4 340.5 859 340.1 C 847.7 336.9 836.3 333.7 825 330.5 C 797.9 322.7 770.8 314.9 743.7 307.1 C 742.7 306.8 741.7 305.8 740.2 306.8 C 738.5 307.7 737.3 306.8 735.8 306 C 735.2 305.5 735 305.1 734.9 304.3 z"></path>
<path fill="#7a5f5d" opacity="1.000000" stroke="#7a5f5d" d="M 465.2 458.2 C 450.1 449.3 435 440.8 420.5 431.5 C 413.4 426.9 408.7 419.4 403 413.1 C 391.9 400.8 380.9 388.3 369.6 375.6 C 369.9 373.6 371.4 373.1 372.7 372.6 C 389 366.5 404.5 358.4 421.3 352.5 C 422.2 352.3 422.7 352.2 423.6 352.4 C 425.3 353.1 426.1 354.1 426.8 355.6 C 427.8 361.6 430.9 366.2 433.2 371.2 C 444 395 454.6 418.9 466.6 442.5 C 467.6 444.9 468.6 446.8 469.5 448.7 C 472.5 455.2 472.4 455.4 465.2 458.2 z"></path>
<path fill="#dab89b" opacity="1.000000" stroke="#dab89b" d="M 1226.7 557.2 C 1249.4 545.4 1272.9 536.5 1296.6 527 C 1304.7 528.2 1312.4 530 1320.1 531.2 C 1321.6 531.5 1322.9 532.1 1324 533.7 C 1315.4 542 1305.3 548.1 1295.2 554.1 C 1276.9 565 1258.1 574.8 1237 579.4 C 1229 581.2 1221 582.3 1212.5 583.1 C 1209.6 585.1 1206.4 585 1203.6 585.2 C 1194.7 585.8 1185.8 585.3 1177 586.4 C 1175.7 586.6 1174.3 586.3 1172.7 585.6 C 1170.7 583.3 1172.3 582.6 1173.9 581.9 C 1190 574.5 1206 567 1221.7 558.8 C 1223.2 558 1224.8 557.8 1226.7 557.2 z"></path>
<path fill="#927671" opacity="1.000000" stroke="#927671" d="M 369.2 374.8 C 360.9 372.4 352.6 369.9 344.7 366.8 C 334.4 362.8 323.6 361.5 312.1 359.9 C 307.7 360.2 305.3 357.4 301.9 356.1 C 301.4 355.9 301.2 355.8 300.7 355.5 C 300.2 355.2 300 355.1 299.3 354.5 C 293.8 350.1 287.9 348 282.4 345 C 280.5 344 278.4 343.3 276.8 341.3 C 277.6 337.4 280.5 335.8 283.5 334.5 C 286.5 333.3 289.5 332.1 292.1 329.4 C 292.5 329 292.6 328.9 293.1 328.7 C 293.9 328.7 294.2 328.7 294.8 328.9 C 294.7 328.7 294.2 328.7 293.5 328.4 C 293 328.2 292.8 328 292.6 327.5 C 292.8 325.3 294.2 325.4 295.5 325.4 C 300 325.5 304.2 324.2 307.9 322.1 C 317.5 316.5 327.6 312.3 337.5 306.6 C 338.1 306.4 338.3 306.3 339 306.3 C 342.7 307.1 344.3 309.5 345.5 312.3 C 353.7 331.3 361 350.7 369.2 369.7 C 369.9 371.3 370.4 372.9 369.2 374.8 z"></path>
<path fill="#455d73" opacity="1.000000" stroke="#455d73" d="M 706.4 597.3 C 685.9 598.4 665.9 599.7 645.4 600.9 C 644.6 601.4 644.2 601.5 643.3 601.2 C 639.7 601.2 636.3 601.5 632.5 601.8 C 626.1 600.7 620 601.6 613.9 600.7 C 608.8 600 603.7 599.7 598.3 598.4 C 596.8 597.1 596.7 595.6 596.6 593.7 C 596.2 587.2 598.1 582.3 604 579 C 608.5 578.3 612.4 578.2 616.8 579.2 C 619 580.5 621 580.6 623 580.6 C 629.2 580.6 635.3 580.9 641.5 580.5 C 652.9 579.8 664.4 580.5 675.7 581.4 C 703.8 583.4 731.8 581.4 759.8 582.5 C 762.6 582.6 765.4 582.3 768.6 581.4 C 769.6 581.2 770.2 581.1 771.3 581.1 C 775.1 581.8 778.4 582 782.2 581 C 791.6 579.9 800.7 581.2 809.8 579.8 C 811.1 579.6 812.4 580 813.7 581.3 C 814.9 584.3 812.7 585.4 811.4 586.9 C 809.9 588.4 808.5 590 806.9 592 C 804.9 593.3 803.1 593.6 801.3 593.5 C 791.9 592.8 782.5 594 773 593.9 C 758.6 593.8 744.1 595.8 729.1 596.1 C 724.1 596.4 719.4 596.6 714.3 596.8 C 711.6 598.2 709.1 597.2 706.4 597.3 z"></path>
<path fill="#c6d2da" opacity="1.000000" stroke="#c6d2da" d="M 348.4 607 C 312.3 606.8 276.6 607.8 240.5 605.9 C 241 601 240.2 595.9 241.7 591.1 C 242.3 589.2 243.7 587.7 245.8 586.3 C 264.8 585 283.5 584.7 302.2 583.8 C 316.5 583.1 330.8 583.4 345.5 582.9 C 353.9 584 353.8 584 354.7 592.5 C 355 595.7 354.7 598.8 354.5 601.9 C 354.3 605.6 352.6 607.4 348.4 607 z"></path>
<path fill="#856964" opacity="1.000000" stroke="#856964" d="M 369.1 375.2 C 368.7 368.4 364.7 363.1 362.4 357.1 C 356.7 342.4 350.5 327.8 344.5 313.1 C 343.5 310.5 342.1 308.1 339.1 306.7 C 339.8 305.3 341 305.1 342.7 305.3 C 368.4 319.1 393.2 333.7 418.3 347.8 C 420.1 348.8 422.4 349.5 422.3 352.5 C 417.1 356.6 410.9 357.7 405.4 360.1 C 393.7 365.3 382.2 370.8 369.8 375.1 C 369.4 375.3 369.1 375.3 369.1 375.2 z"></path>
<path fill="#dfb194" opacity="1.000000" stroke="#dfb194" d="M 423.8 156.1 C 433 145.9 444.6 143.9 457.1 145.3 C 462.2 145.9 467.2 147.5 471.8 149.9 C 477.2 152.9 481.1 157.1 483 163.2 C 487.1 176.5 492.1 189.5 495.1 203.5 C 492.7 205.9 490.7 204.2 488.7 203.2 C 478.4 197.8 468.4 191.9 458.2 186.2 C 454.2 184 449.9 182.1 445.6 179.4 C 445.1 179.2 444.9 179.2 444.3 178.9 C 443.6 178.6 443.2 178.4 442.4 178.2 C 441.7 177.9 441.2 177.7 440.5 177.3 C 435.3 172.8 430.8 168 426.2 163.3 C 424.4 161.5 422.5 159.4 423.8 156.1 z"></path>
<path fill="#927671" opacity="1.000000" stroke="#927671" d="M 465.1 458.4 C 470.7 453.7 470.7 453.7 467.5 447.3 C 467 446.2 465.9 445.2 466 443.4 C 468.9 437.1 473.8 433.4 479.8 430.4 C 483.6 431.2 485.9 433.8 488.6 435.6 C 506.8 447.7 525.4 458.9 544.9 468.6 C 547 469.7 549.4 470.3 550.5 473 C 550.4 473.7 550.4 474.2 550.1 474.3 C 540.6 481.2 530.1 486.8 518.4 486.8 C 511.1 486.8 504.1 482.2 497.1 478.2 C 486.9 470.6 475.6 465.3 465.1 458.4 z"></path>
<path fill="#f3f4f0" opacity="1.000000" stroke="#f3f4f0" d="M 274.6 198 C 275 200.3 273.1 201.4 271.7 202.8 C 254.7 218.5 237.7 234.2 220.7 250 C 220.4 250.3 220.3 250.8 220 251.6 C 218.5 254.2 215.9 254.4 213.2 255.3 C 199.6 257.9 186.4 261.1 172.7 263.8 C 166.1 263.3 165.2 258.2 163.8 253.4 C 164.8 251.1 166.7 250.7 168.3 249.9 C 193.1 237.5 217.8 225 242.7 212.7 C 253.1 207.6 263.7 202.9 274.6 198 z"></path>
<path fill="#e0c3a9" opacity="1.000000" stroke="#e0c3a9" d="M 1324.5 534 C 1317.2 530.9 1309.3 531.5 1302.1 529.2 C 1300.5 528.8 1298.9 528.5 1297.3 527.1 C 1319.3 512.3 1341.8 497.8 1364 482.9 C 1380.3 472 1396.2 460.5 1412.3 449.3 C 1414.2 448 1415.8 446.2 1418.7 446 C 1416.5 448.7 1414.1 451.4 1411.5 454 C 1397.2 468.3 1383.5 483.3 1368.6 497 C 1354.5 509.9 1340.1 522.4 1324.5 534 z"></path>
<path fill="#c29178" opacity="1.000000" stroke="#c29178" d="M 443.9 178.3 C 449.1 179.3 453.5 182.3 458.1 184.8 C 468.9 190.6 479.5 196.7 490.2 202.6 C 491.5 203.3 492.8 204.1 494.7 204 C 492.4 210.4 486.9 214.7 482.9 220.6 C 475.7 228.2 466.8 232.9 458.7 238.6 C 450.2 244.6 441.4 250.2 432.4 256.1 C 431.1 256.3 430.6 255.8 430.3 254.6 C 430.3 254 430.3 253.7 430.5 253.1 C 431.7 251.5 432.9 250.3 433.7 248.8 C 441.3 233.5 449.1 218.3 456.7 202.7 C 457.3 199.9 455.6 198.3 454.6 196.5 C 451.2 190.4 446.5 185.1 443.9 178.3 z"></path>
<path fill="#695152" opacity="1.000000" stroke="#695152" d="M 496.9 478.4 C 502.9 478.9 508.2 482.2 513.8 484.5 C 517.2 485.9 520.3 486.4 523.9 485.2 C 532.9 482.3 541.7 478.9 549.9 473.5 C 552.7 471.2 554.5 472.7 556.2 475.1 C 555.6 478.1 556.7 480.3 557.6 482.6 C 560.1 488.9 564.2 494.5 564.9 501.8 C 563.8 504.3 561.7 505 559.7 505.8 C 551.5 509.2 543.5 513.2 535.1 516.4 C 533.4 517 531.7 517.6 530.6 519.7 C 530.3 524.1 532.9 527.8 531.9 532.4 C 526.2 542.4 529.4 552.8 528.5 562.9 C 528.3 565.8 529.3 569 526.1 571.2 C 525.8 554.8 525.7 538.5 526.1 522.2 C 526.2 517.6 524.8 514 521.9 510.4 C 513.5 499.9 505.3 489.3 496.9 478.4 z"></path>
<path fill="#8fa3b0" opacity="1.000000" stroke="#8fa3b0" d="M 518.3 605.2 C 507.2 605.9 496.2 606.3 485.3 606.5 C 461.3 606.9 437.3 607.3 412.9 606.5 C 408.5 598.7 409.1 590.3 408.9 581.7 C 423.6 581.2 438 581 452.8 580.9 C 453.8 585.2 448.8 586 448 589.9 C 450.5 588.6 452.2 586.8 454.5 585.9 C 457.2 584.9 459.5 584.8 460.1 588.4 C 460.6 591.2 462.3 591.7 464.7 591.8 C 470 591.9 475.2 593.3 480.5 591.9 C 481.9 591.5 483.5 591.8 484.9 592.4 C 487 593.3 487.8 594.6 486.1 596.6 C 484.8 598 482.8 599 483.2 601.4 C 484.1 601.9 484.9 601.6 485.6 601.2 C 488.9 599 491.9 597.5 494.9 601.7 C 495.8 602.9 497.7 602.7 499.5 603 C 501.5 603.6 503.1 603.8 505.1 603.1 C 506.5 602.8 507.6 602.7 509.1 602.6 C 512.5 603.2 516 601.3 518.3 605.2 z"></path>
<path fill="#b1c4cf" opacity="1.000000" stroke="#b1c4cf" d="M 408.7 581.3 C 411 589.4 410.4 597.7 412.7 606 C 393 606.6 373.6 608.7 354 607.8 C 352.2 607.8 350.4 607.6 348.3 607.3 C 352.4 605.2 354.5 600.9 353.6 595.2 C 353.4 593.9 352.9 592.6 353.1 591.3 C 353.9 586.1 352.2 583.2 346.2 583.3 C 353.3 581.6 360.8 582.2 368.2 582 C 381.6 581.7 395 581.5 408.7 581.3 z"></path>
<path fill="#d4a787" opacity="1.000000" stroke="#d4a787" d="M 500.4 604.1 C 497 603.9 493.6 604.4 492.1 600.6 C 491.4 599 490.5 599.8 489.7 600.2 C 488.8 600.6 488.1 601.5 487.2 601.8 C 485.3 602.5 483.2 605.3 481.6 603.2 C 479.7 600.9 482.1 598.6 483.9 596.8 C 484.6 596 485.6 595.5 486.5 594.8 C 484.8 592.8 482.6 592.6 480.9 593.1 C 474.9 594.9 469 592.8 463.1 593.1 C 460.2 593.2 458.6 592.4 458.9 589.2 C 459.3 585.6 457.5 585.7 455 587 C 453.2 587.9 451.5 588.9 450.1 590.3 C 448.9 591.6 447.3 592.9 445.8 591.5 C 444.5 590.1 446.3 588.9 447.3 587.8 C 449.1 585.8 451 583.7 453 581.3 C 453.6 580.8 454.3 580.7 454.5 580.4 C 461.3 571.6 470.9 572.8 480.2 572.9 C 482.9 573 485.5 572.9 488.6 573 C 494.9 572 499.8 574.5 505 577.2 C 504.7 579.1 503.2 579.1 501.6 579.7 C 500.2 580.1 499.1 580.2 497.7 580.3 C 496.8 580.3 496.4 580.3 495.5 580.3 C 493.2 580.3 491.2 580.1 489.4 580.3 C 492.1 582.8 493.5 586.6 497.2 588.6 C 498.1 590.7 497.2 592.1 496.5 593.6 C 496.1 594.6 494.9 595.7 495.9 596.8 C 497 597.9 498.4 596.9 499.5 596.3 C 503 594.7 506.1 592.5 509.4 590.6 C 514 588.1 518.8 585.7 524.7 586.1 C 525.2 586.2 525.4 586.3 525.9 586.7 C 526.4 589.9 523.6 591 522 593.2 C 521.1 594.3 520.5 595.1 519.5 595.8 C 519.6 596.4 519.9 595.9 520.6 595.9 C 537 596.4 553.1 598 569.1 599.6 C 571.2 599.8 574.1 599.1 574 603.1 C 572.5 604.1 571.2 604 569.9 604 C 555 604 540.1 603.9 525.2 604.5 C 520 604.7 515 602.8 509.4 603.7 C 507.9 603.9 506.8 603.9 505.4 603.9 C 503.6 604.1 502.1 603.9 500.4 604.1 z"></path>
<path fill="#b1c4cf" opacity="1.000000" stroke="#b1c4cf" d="M 1059.3 589.7 C 1042 591.3 1025 590.3 1008.1 591.2 C 991.9 592 975.8 591.5 959.7 592.1 C 953.1 592.4 946.4 593.1 939.3 592.6 C 938.8 589.4 941.3 589.8 943.1 589.7 C 948.3 589.2 953.5 588.4 958.8 588.1 C 948.6 586.8 938.3 586 928 585.4 C 925.5 585.3 923 585.7 920.3 584.4 C 919.5 582.6 920.5 581.9 922 581 C 925.4 579.8 928.5 579.3 931.7 579.4 C 976.4 580.8 1021 580 1065.7 580.6 C 1075.3 580.8 1084.9 580.8 1094.9 582.1 C 1096.7 585.6 1093.7 585 1092.3 585.4 C 1082.6 587.9 1072.7 589 1062.7 589 C 1061.7 589 1060.7 589 1059.3 589.7 z"></path>
<path fill="#d4a787" opacity="1.000000" stroke="#d4a787" d="M 178.3 319.3 C 176.3 317.7 174.5 316.5 172.4 315.1 C 170.1 314.1 168.8 312.7 168.4 310.3 C 168.4 309.8 168.4 309.6 168.5 309.1 C 168.9 308.2 169 307.6 168.5 306.8 C 165.1 302.1 164.8 296.8 163.6 291.4 C 169.6 290.1 172.6 285.1 176.7 281.6 C 177.2 281.2 176.6 281.8 177.6 281.4 C 184.9 284.5 190.7 289.4 197.5 293.4 C 197.8 294 197.9 294.2 198.1 294.9 C 198.2 296.3 198.2 297.3 197.7 298.6 C 196.8 299.8 195.7 300 194.5 300.4 C 198.5 303 203.5 303.3 208.3 305.2 C 209.9 306 210.6 306.9 210.9 308.7 C 210.5 312 208.3 312.2 206.1 312 C 203.1 311.7 200.2 311.1 197.2 311.1 C 196.6 311.2 197.2 312.1 197.1 311.4 C 196.4 309 205.8 313.5 208.4 317.2 C 206.5 319.9 204.2 318.8 202 318.1 C 195 315.8 189 311.7 182.8 307.9 C 181.2 306.9 179.8 305.7 177.8 305.7 C 185.3 309.3 192 314.3 199.7 317.5 C 202.2 318.5 204.6 319.6 207.6 318.3 C 209 317 210.3 316.1 211.8 314.8 C 212.5 314.4 213 314.4 213.8 314.6 C 216.2 317.6 220 318.5 222 321.9 C 222.6 324.6 220.9 325 219.3 325.2 C 216.7 325.5 214.2 326.3 211.2 326.1 C 208 325.1 205.1 324.1 202.1 325.4 C 200.4 326.1 199 325.2 197.4 324.5 C 189.9 321 183.2 316.2 176.2 311.8 C 183.4 316.5 190.5 321.2 198.2 325.1 C 200.9 326.5 204.7 325.5 206.4 329.3 C 203.2 333.6 201.6 333.9 196.3 331.3 C 195.9 331 196 331 196 331 C 195.8 330.9 195.7 330.8 195.3 330.8 C 190.8 328.3 186.7 325.7 182.3 323 C 179.7 322.8 179 321.2 178.3 319.3 z"></path>
<path fill="#8fa3b0" opacity="1.000000" stroke="#8fa3b0" d="M 919.6 583.6 C 934.5 584.3 949.1 584.7 963.5 587.8 C 957.4 590.9 950.7 589.7 944.4 591 C 942.7 591.3 940.8 590.4 939 592.1 C 929.6 592.8 920.2 593.3 910.9 593.5 C 889.3 594.1 867.6 594.4 846 595 C 809.2 596 772.4 596.9 735.6 596.9 C 733.6 596.9 731.6 596.7 729.1 596.4 C 729.3 594.9 730.3 594.1 731.8 594.1 C 732.6 594.1 733.5 594 734.3 594.1 C 746.7 595 758.9 591.9 771.2 592.4 C 781.1 592.9 791 591.7 800.8 592.1 C 802.6 592.2 804.5 592.5 806.6 591.3 C 807.4 591 807.8 591.1 808.6 591.2 C 813 590.7 816.5 588 821.2 588.7 C 823.2 588.8 824.7 589.5 826.7 590.1 C 841.7 591.1 856.3 590.5 870.9 590.5 C 875.9 590.6 880.9 591.3 886.1 589.7 C 888.5 588.6 890.6 588.6 893.1 588.8 C 899 590.3 904.5 589.5 910.3 589.5 C 910.9 589.3 911.1 589.2 911.6 588.9 C 912.2 588.5 912.5 588.1 913 587.5 C 913.3 587.1 913.5 586.9 913.9 586.5 C 915.8 585.2 917 583.4 919.6 583.6 z"></path>
<path fill="#e9e5dd" opacity="1.000000" stroke="#e9e5dd" d="M 245.6 586.1 C 243.1 590.6 240.5 595.2 242.7 601 C 243.6 603.1 240.2 603.3 240.1 605.6 C 223.9 606.8 207.8 604.6 191.7 604.9 C 190.1 604.9 188.5 604.3 186.4 604 C 184.6 602.1 186.1 600.5 186.9 599.1 C 188.7 596 189.2 592.9 187.8 589.3 C 196.8 586.8 205.8 588.4 214.8 587.3 C 224.8 586 235 586.4 245.6 586.1 z"></path>
<path fill="#c6d2da" opacity="1.000000" stroke="#c6d2da" d="M 1059.4 590 C 1059.4 587.5 1061.4 587.9 1062.9 588 C 1070.4 588.5 1077.6 586.3 1085 585.7 C 1088.3 585.4 1091.9 584.1 1095.7 583.3 C 1097.8 581.1 1100.3 581.5 1102.6 581.5 C 1109.7 581.2 1116.8 582 1124.4 581.2 C 1140.3 582.5 1155.8 583.3 1171.6 583.9 C 1174.5 585.8 1177.5 585.2 1180.1 584.8 C 1190.4 583.3 1200.9 584.7 1211.6 583.1 C 1213.8 584.7 1215.9 583.9 1217.8 584 C 1263.8 584 1309.7 584 1355.7 584.1 C 1357.4 584.1 1359 584.1 1360.7 584.6 C 1360.2 584.7 1359.8 584.9 1359.3 584.9 C 1326.8 585.3 1294.4 585.2 1261.9 586.1 C 1239.8 586.8 1217.7 586.3 1195.6 587.2 C 1179.4 587.9 1163.3 587.1 1147.2 588.2 C 1131.5 589.2 1115.9 588.1 1100.3 589.2 C 1086.8 590.2 1073.4 589.6 1059.4 590 z"></path>
<path fill="#f0efea" opacity="1.000000" stroke="#f0efea" d="M 187.5 589 C 193.3 594.6 187.5 598.6 186 603.6 C 165 603.9 144.1 602.2 123.4 597 C 144.3 591.1 165.6 589.5 187.5 589 z"></path>
<path fill="#d8c7b7" opacity="1.000000" stroke="#d8c7b7" d="M 369.2 175.6 C 364.4 177 359.6 178 354.4 179 C 345.2 174 337.2 168 330.1 160.3 C 339.1 149.4 356.1 150.4 363.3 162.1 C 365.9 166.1 368.4 170.3 369.2 175.6 z"></path>
<path fill="#d4a787" opacity="1.000000" stroke="#d4a787" d="M 423.6 156 C 423.9 158.8 425.5 161 427.5 163 C 432 167.4 436.3 171.9 440.9 176.7 C 441.4 178.5 440.2 179.1 439.3 179.6 C 428.5 185.5 417.6 191.1 407.2 197.7 C 406.1 198.4 404.8 198.9 403.1 198.2 C 405.2 192.4 407.7 186.8 410.1 180.9 C 415.1 172.7 417.9 163.7 423.6 156 z"></path>
<path fill="#dfb194" opacity="1.000000" stroke="#dfb194" d="M 329.7 160.2 C 337.9 166.1 345.8 172.3 353.9 178.7 C 344.1 181.5 334.1 183.9 323.4 185.1 C 323.1 176.3 325.3 168.1 329.7 160.2 z"></path>
<path fill="#927671" opacity="1.000000" stroke="#927671" d="M 302.1 356.8 C 291.9 355.3 281.8 353.5 271.3 351.5 C 267.5 352.9 266.3 349.3 263.6 348.5 C 262.8 348.4 262.4 348.3 261.8 348 C 261.2 347.6 260.9 347.3 260.4 346.9 C 259.6 346.3 259.2 345.9 258.5 345.2 C 257.9 344.3 257.5 343.5 256.5 342.9 C 256.1 342.5 255.9 342.4 255.6 341.9 C 255.4 341.2 255.4 340.8 255.5 340 C 257.1 336.9 252.5 335.6 254.2 332.6 C 257 331.6 259 333.1 261 334.2 C 273.9 340.5 286.6 347.2 299.7 353.8 C 300 354 300 354 300 354 C 300.2 354.2 300.4 354.5 300.8 354.8 C 301 355 301 355 301 355 C 301.5 355.4 302.1 355.8 302.1 356.8 z"></path>
<path fill="#7a5f5d" opacity="1.000000" stroke="#7a5f5d" d="M 525.6 571.1 C 527.5 570 527 568.2 527 566.6 C 527 560.9 527 555.1 527 549.3 C 527 543.5 526 537.4 530.7 532.2 C 533.7 535.7 533.3 540.2 534.2 544.3 C 536.1 553.2 536.9 562.3 538.8 571.2 C 539.4 574.1 539.4 577 534.6 576.8 C 531.9 573.9 527.4 575.4 525.3 571.8 C 525.4 571.4 525.5 571.2 525.6 571.1 z"></path>
<path fill="#c29178" opacity="1.000000" stroke="#c29178" d="M 178.2 281.6 C 176.7 282.6 175.2 283.1 174.7 284.6 C 173.2 289.7 169.6 291.3 164.4 290.9 C 161.6 289.9 159 289.4 156.2 288.3 C 151.2 283.8 149 278.5 149.2 271.7 C 151.5 270.7 152.1 272.6 152.8 273.9 C 154.2 276.7 155.3 279.6 156 281.8 C 156 278.8 156.7 275.2 158.2 271.3 C 160.8 268.2 162.6 269.7 164.4 271.9 C 166.5 274.6 167.5 278.2 170.2 281 C 171.2 278.8 170.4 276.5 171.6 274.3 C 176.2 274.4 176.8 278.2 178.2 281.6 z"></path>
<path fill="#e3dcce" opacity="1.000000" stroke="#e3dcce" d="M 159.2 271 C 158.3 275.3 157.5 279.3 156.6 283.7 C 152.9 280.2 153 274.9 149.5 271.4 C 148.4 268.1 149.4 265.6 152 263.4 C 155.9 260.2 158.8 255.7 163.6 253.1 C 166 256.7 167.1 260.9 171.6 263 C 172.5 263.9 172.3 265 172.2 266.3 C 171.8 266.9 171.5 267.3 170.9 267.7 C 168.4 268.8 166.2 269.2 163.9 268.8 C 162.1 268.5 160.2 268.4 159.2 271 z"></path>
<path fill="#927671" opacity="1.000000" stroke="#927671" d="M 195.8 331.4 C 199.3 331.2 202.9 333.2 205.9 329.4 C 206.7 328.6 207.4 328.8 209 329.4 C 214.6 334.4 220 337.9 225.7 341.6 C 226.3 342.2 226.4 342.7 226.1 343.4 C 218.7 342.8 211.5 341.9 204.3 341 C 198.8 340.4 198.2 335.2 195.8 331.4 z"></path>
<path fill="#aa8c7c" opacity="1.000000" stroke="#aa8c7c" d="M 525.4 571.4 C 526.4 573 528.1 573.1 529.8 573 C 531.6 572.9 532.9 573.5 533.8 575.6 C 532.5 577.8 530.4 578 527.9 578.4 C 522.1 578.5 516.7 578.5 511.5 579.3 C 509.5 579.7 507.5 579.6 505.3 578.3 C 499.7 577 495.3 573 489.3 573.3 C 500.3 571.8 511.6 572.3 523.3 571.8 C 524 571.7 524.3 571.7 524.9 571.5 C 525.3 571.4 525.3 571.5 525.4 571.4 z"></path>
<path fill="#856964" opacity="1.000000" stroke="#856964" d="M 261.9 347.2 C 262 347.6 262.3 347.9 262.4 348 C 262.7 348.2 263 348.4 263.2 349 C 253.8 348.2 244.4 346.9 234.2 345.8 C 233 346 232.6 346.1 231.8 346 C 231 345.8 230.5 345.7 229.8 345.3 C 228.4 344.4 227.7 343.5 227.8 341.8 C 232.1 338.5 237.1 339.8 241.6 338.9 C 243.2 338.6 244.9 339.2 246.7 338.2 C 248.1 337.4 249.3 337.5 250.8 337.9 C 251.3 338.1 251.5 338.2 252 338.4 C 252.5 338.7 252.7 338.8 253.3 339.3 C 254.5 340.3 255 340.9 255.7 341.8 C 255.9 342 256 342 256 342 C 257 342.9 258.2 343.4 259.2 344.8 C 259.7 345.3 259.9 345.6 260.3 345.9 C 261 346.1 261.4 346.4 261.9 347.2 z"></path>
<path fill="#aa8c7c" opacity="1.000000" stroke="#aa8c7c" d="M 509.4 603.9 C 510.5 602.5 512.5 603 514.2 603 C 533.9 603 553.6 602.9 573.7 602.8 C 580.5 600.4 587 601.6 593.9 602.1 C 594.6 602.5 594.8 602.7 595 603.4 C 584.3 605 573.6 604.5 563 604.8 C 548.3 605.2 533.7 605.4 518.6 605.7 C 515.9 602.5 512.6 604.7 509.4 603.9 z"></path>
<path fill="#8fa3b0" opacity="1.000000" stroke="#8fa3b0" d="M 595.4 603.9 C 594.9 603.8 594.9 603.5 594.9 603.3 C 594.2 601.9 595.4 601.4 596 600.3 C 596.4 599.7 596.6 599.4 597 598.8 C 597.3 598.5 597.4 598.3 597.9 598 C 603.5 597 608.6 599.2 613.9 599.3 C 619.1 599.4 624.4 599.9 629.7 600 C 630.6 600.1 631.3 600.3 632 601.4 C 620.1 603.3 607.9 603.4 595.4 603.9 z"></path>
<path fill="#c6d2da" opacity="1.000000" stroke="#c6d2da" d="M 229.9 345 C 230.6 344.8 231 344.8 231.7 345 C 232.5 345.5 233.1 345.5 233.8 345.8 C 234.1 345.9 234 345.9 234.1 345.8 C 233.7 348.3 235.8 349.3 237.1 350.6 C 246.9 360.6 254.2 372.2 260.3 384.7 C 260.6 385.3 261 385.9 259.8 387 C 251.7 372.2 241.3 359.2 230 346.4 C 229.8 345.9 229.7 345.6 229.9 345 z"></path>
<path fill="#c6d2da" opacity="1.000000" stroke="#c6d2da" d="M 263.4 349.7 C 263.1 349.2 263 349 262.7 348.4 C 263.5 345.7 264.5 347.3 265.4 348 C 267 349.2 268.1 351 270.6 351.3 C 275.8 358.3 282.5 363.7 287.2 370.7 C 290.1 375.1 293.4 379.2 294.9 384.6 C 292.3 381.4 289.7 378 286.9 374.8 C 279.4 366.3 273 356.7 263.4 349.7 z"></path>
<path fill="#d3b79e" opacity="1.000000" stroke="#d3b79e" d="M 156.1 288.5 C 158.7 288.1 161.9 287 164 290.6 C 166.6 295.9 165.8 301.9 169.8 306.7 C 170 307.6 169.8 308.1 169.2 308.8 C 169 309 168.9 309.1 168.8 309.1 C 166.4 309.5 165.2 307.5 163.1 306.5 C 162.8 306 162.7 305.8 162.8 305.3 C 159.4 300.2 157.5 294.6 156.1 288.5 z"></path>
<path fill="#cbbaaa" opacity="1.000000" stroke="#cbbaaa" d="M 178.1 319.4 C 179.3 320.1 180.4 321.2 181.8 322.5 C 179.5 329.3 182.1 335.5 183.7 341.5 C 185.2 347.1 187.8 352.4 189.8 357.9 C 190.3 359.2 191.4 360.4 190.6 362.6 C 183.1 349.1 176 335.9 178.1 319.4 z"></path>
<path fill="#f0efea" opacity="1.000000" stroke="#f0efea" d="M 162.7 305.8 C 165.5 305.5 166.3 308 168.4 308.9 C 169.7 310.9 170.8 312.6 171.9 314.7 C 172.1 315 171.6 315 171.4 315 C 170.9 315.2 170.6 315.4 170.2 315.8 C 170 316 170 316 170 316 C 169.3 316.7 169.1 317.8 168.2 318.8 C 168 319 168 319 168 319 C 167.6 319.5 167.3 320 166.4 320.2 C 166 317.6 166.6 314.7 162.3 314.4 C 161.9 314 161.7 313.9 161.3 313.9 C 161 314 161 314 161 314 C 160.8 314.2 160.5 314.4 160.2 314.8 C 160 315 160 315 160 315 C 159.8 315.2 159.5 315.4 159.2 315.8 C 159 316 159 316 159 316 C 158.9 316.2 158.7 316.3 158.2 316.2 C 158 314.9 158 313.8 158 312.3 C 157.9 308.8 160.6 307.7 162.7 305.8 z"></path>
<path fill="#e3dcce" opacity="1.000000" stroke="#e3dcce" d="M 159.9 333.7 C 157.4 340.5 154.9 347 152.3 353.5 C 153.1 346.4 154.8 339.5 158.6 333.1 C 159.3 333 159.6 333.2 159.9 333.7 z"></path>
<path fill="#b1c4cf" opacity="1.000000" stroke="#b1c4cf" d="M 160.2 333.7 C 159.6 333.8 159.3 333.6 159 333.1 C 160.2 328.3 163.6 324.9 165.9 320.4 C 166.6 319.8 167 319.5 167.8 319.1 C 167.2 324.7 162.4 328.4 160.2 333.7 z"></path>
<path fill="#c6d2da" opacity="1.000000" stroke="#c6d2da" d="M 322.8 368.7 C 317.4 368.8 314.7 363.9 310.1 361.4 C 309.6 359.9 310.3 359.6 311.7 359.7 C 312 359.9 312 359.9 312 359.9 C 315 363.5 319.5 365 322.8 368.7 z"></path>
<path fill="#d8c7b7" opacity="1.000000" stroke="#d8c7b7" d="M 163 305.5 C 162.1 308.1 159.7 309.3 158.1 311.6 C 156.9 312.6 155.9 313.4 154.3 314 C 155.9 310.2 158.9 307.5 162.7 305 C 163 305 163 305.4 163 305.5 z"></path>
<path fill="#dfd6ca" opacity="1.000000" stroke="#dfd6ca" d="M 311.8 359.6 C 311.5 360.1 310.9 360.3 310.1 360.8 C 307.4 359.9 304.9 358.8 302.2 357.4 C 301.7 356.6 301.3 356.1 301 355.3 C 305 355.3 307.4 359.4 311.8 359.6 z"></path>
<path fill="#eae4d8" opacity="1.000000" stroke="#eae4d8" d="M 229.9 344.5 C 230.1 345 230.1 345.2 229.9 345.8 C 228.4 346 227 345.8 226 344 C 225.7 343.5 225.6 343.2 225.4 342.8 C 225.4 342.4 225.4 342.2 225.7 341.8 C 226.4 341.5 226.8 341.5 227.4 341.9 C 228.3 342.9 229 343.6 229.9 344.5 z"></path>
<path fill="#e9e5dd" opacity="1.000000" stroke="#e9e5dd" d="M 149.7 319.8 C 150 321.6 149.8 323 147.7 322.9 C 146.3 322.8 145.9 322.2 147.3 321.1 C 148 320.9 148.3 320.7 148.8 320.2 C 149 320 149 320 149 320 C 149.1 319.9 149.3 319.7 149.7 319.8 z"></path>
<path fill="#8fa3b0" opacity="1.000000" stroke="#8fa3b0" d="M 706.4 597.4 C 708.3 596.3 710.7 596.8 713.4 596.7 C 711.6 598.1 709.1 597.6 706.4 597.4 z"></path>
<path fill="#b1c4cf" opacity="1.000000" stroke="#b1c4cf" d="M 157.6 318 C 157.5 319 157.3 320.2 156 320.4 C 155.8 320.5 155.2 319.9 155.1 319.6 C 155 318.3 156.1 318.2 157.6 318 z"></path>
<path fill="#b1c4cf" opacity="1.000000" stroke="#b1c4cf" d="M 168.4 319 C 167.9 317.8 168.5 317 169.7 316.1 C 170.2 317.3 169.9 318.3 168.4 319 z"></path>
<path fill="#e9e5dd" opacity="1.000000" stroke="#e9e5dd" d="M 141.9 329.6 C 141.7 329.3 141.6 328.9 141.6 328.5 C 141.9 328.5 142.1 328.5 142.4 328.5 C 142.3 328.9 142.3 329.3 141.9 329.6 z"></path>
<path fill="#c6d2da" opacity="1.000000" stroke="#c6d2da" d="M 323 369 C 323.6 369.2 324 369.6 324.5 369.9 C 324.3 370.1 324 370.5 324 370.5 C 323.6 370.3 323.3 370 322.9 369.4 C 322.8 369.2 323 369 323 369 z"></path>
<path fill="#e0c3a9" opacity="1.000000" stroke="#e0c3a9" d="M 1419.3 445.9 C 1418.9 445 1419.3 444.3 1420.7 444 C 1420.5 444.6 1420.1 445.2 1419.3 445.9 z"></path>
<path fill="#8fa3b0" opacity="1.000000" stroke="#8fa3b0" d="M 643.2 601.2 C 643.4 600.9 643.9 600.8 644.6 600.8 C 644.4 601.1 643.9 601.2 643.2 601.2 z"></path>
<path fill="#b1c4cf" opacity="1.000000" stroke="#b1c4cf" d="M 158 316.3 C 158.2 316 158.3 316 158.8 316 C 158.9 316.6 158.8 317.2 158.4 317.9 C 158.2 318.1 157.9 317.9 157.8 317.8 C 157.7 317.3 157.8 317 158 316.3 z"></path>
<path fill="#d8c7b7" opacity="1.000000" stroke="#d8c7b7" d="M 150.3 318.9 C 150.1 318.4 150.3 317.8 150.8 317.2 C 150.9 317.7 150.7 318.2 150.3 318.9 z"></path>
<path fill="#e9e5dd" opacity="1.000000" stroke="#e9e5dd" d="M 144.8 325.1 C 145 325.4 144.8 325.7 144.2 325.9 C 144.1 325.6 144.2 325.3 144.8 325.1 z"></path>
<path fill="#e9e5dd" opacity="1.000000" stroke="#e9e5dd" d="M 144.9 324.9 C 145.1 324.8 145.4 323.9 145.3 325 C 145.1 325.1 145 325 144.9 324.9 z"></path>
<path fill="#d8c7b7" opacity="1.000000" stroke="#d8c7b7" d="M 148.7 320 C 148.7 320.3 148.5 320.6 147.9 320.9 C 147.9 320.7 148.1 320.4 148.7 320 z"></path>
<path fill="#b1c4cf" opacity="1.000000" stroke="#b1c4cf" d="M 161.3 314.1 C 161.2 313.6 161.3 313.1 162 313.9 C 161.8 314.2 161.7 314.2 161.3 314.1 z"></path>
<path fill="#d8c7b7" opacity="1.000000" stroke="#d8c7b7" d="M 150 319.7 C 150 320 149.5 320 149.2 320 C 149.1 319.7 149.3 319.4 149.7 319 C 150 319 150 319 150 319 C 150 319 150 319.5 150 319.7 z"></path>
<path fill="#d8c7b7" opacity="1.000000" stroke="#d8c7b7" d="M 151.8 316.2 C 152.1 316.5 151.9 316.8 151.4 317 C 151.1 317.1 151 317 151 317 C 151 316.6 151.2 316.3 151.8 316.2 z"></path>
<path fill="#b1c4cf" opacity="1.000000" stroke="#b1c4cf" d="M 170.3 316 C 170.2 315.7 170.4 315.4 170.9 315.1 C 170.9 315.3 170.7 315.6 170.3 316 z"></path>
<path fill="#b1c4cf" opacity="1.000000" stroke="#b1c4cf" d="M 159.3 316 C 159.2 315.7 159.4 315.5 159.8 315.1 C 159.9 315.3 159.7 315.6 159.3 316 z"></path>
<path fill="#d8c7b7" opacity="1.000000" stroke="#d8c7b7" d="M 152.8 315.1 C 153.1 315.5 152.9 315.8 152.4 316.1 C 152.2 316.2 152 316 152 316 C 152 315.6 152.2 315.3 152.8 315.1 z"></path>
<path fill="#b1c4cf" opacity="1.000000" stroke="#b1c4cf" d="M 160.3 315 C 160.2 314.7 160.4 314.5 160.8 314.1 C 160.9 314.3 160.7 314.6 160.3 315 z"></path>
<path fill="#e0c3a9" opacity="1.000000" stroke="#e0c3a9" d="M 1421.2 443.9 C 1421.2 443.8 1421.4 443.5 1421.8 443.1 C 1421.9 443.3 1421.7 443.5 1421.2 443.9 z"></path>
<path fill="#c6d2da" opacity="1.000000" stroke="#c6d2da" d="M 262.6 390.4 C 262.6 390.5 262.4 390.5 262.4 390.5 C 262.4 390.5 262.5 390.3 262.6 390.4 z"></path>
<path fill="#c6d2da" opacity="1.000000" stroke="#c6d2da" d="M 261.6 388.6 C 261.5 388.6 261.4 388.4 261.4 388.4 C 261.4 388.4 261.7 388.5 261.6 388.6 z"></path>
<path fill="#c4b1a0" opacity="1.000000" stroke="#c4b1a0" d="M 525.1 571.4 C 525.1 571.6 524.8 571.7 524.1 571.8 C 524.1 571.6 524.5 571.4 525.1 571.4 z"></path>
<path fill="#cbbaaa" opacity="1.000000" stroke="#cbbaaa" d="M 191.5 364.5 C 191.5 364.5 191.5 364.5 191.5 364.5 z"></path>
<path fill="#e9e5dd" opacity="1.000000" stroke="#e9e5dd" d="M 144.1 326.1 C 143.9 326.2 143.7 327 143.7 326 C 143.9 325.9 144 326 144.1 326.1 z"></path>
<path fill="#e9e5dd" opacity="1.000000" stroke="#e9e5dd" d="M 139.9 332.1 C 139.9 332 139.8 332.1 139.9 332.1 z"></path>
<path fill="#d8c7b7" opacity="1.000000" stroke="#d8c7b7" d="M 154.1 314.1 C 154.1 314.5 153.9 314.8 153.4 315.1 C 153.2 315.2 153 315 153 315 C 153 314.6 153.2 314.3 153.7 314 C 153.9 313.9 154 314 154.1 314.1 z"></path>
<path fill="#e9e5dd" opacity="1.000000" stroke="#e9e5dd" d="M 140 332 C 140.1 332 140.2 331.9 140.1 331.9 C 140 332 140 332 140 332 z"></path>
<path fill="#927671" opacity="1.000000" stroke="#927671" d="M 195.2 331.1 C 195.2 330.7 195.4 330.2 195.9 330.9 C 195.8 331.1 195.6 331.2 195.2 331.1 z"></path>
<path fill="#eae4d8" opacity="1.000000" stroke="#eae4d8" d="M 735.8 305.3 C 737.1 305.6 738.3 306.2 739.7 306.9 C 760.5 322.8 781.1 338.6 801.6 354.4 C 812.2 362.5 822.7 370.7 833.6 379 C 844.7 385.7 854.4 393.9 864.3 401.6 C 875.7 410.5 887.6 418.7 898.8 427.8 C 900.5 429.3 903 430.3 902.4 433.6 C 898.9 436.4 894.8 436.7 891 437.6 C 865.4 443.6 840.1 450.4 814.1 456.4 C 810.6 454.9 809.7 451.7 808.2 449 C 797.8 431.2 788.1 412.9 777.7 394.7 C 777.4 394.2 777.2 394 777 393.4 C 767.6 373.6 758.1 354.2 748.8 334.7 C 745 326.7 741.2 318.8 736.9 311.1 C 735.9 309.4 734.7 307.7 735.8 305.3 z"></path>
<path fill="#d8c7b7" opacity="1.000000" stroke="#d8c7b7" d="M 961.8 526.7 C 963.3 527 964.2 527.6 964.9 528.8 C 966.5 530.7 966.2 532.5 965.5 534.2 C 964.8 536 964.6 537.7 965.3 539.8 C 965.1 542 963.8 542.9 962 543.8 C 940.6 549.1 919.3 553.4 897.9 558.9 C 896.8 559.1 896 559 894.8 558.7 C 878.1 543.6 862 528.4 845.5 513.5 C 843.6 511.8 840 510.4 841.9 506.3 C 848.3 505.4 854.2 506.9 860 508.1 C 887.5 513.6 915.4 517.1 942.9 522.6 C 949.1 523.8 955.5 524.1 961.8 526.7 z"></path>
<path fill="#e9e5dd" opacity="1.000000" stroke="#e9e5dd" d="M 958.8 518.8 C 959.9 520.5 960.8 522 961.8 523.8 C 960.1 525.5 958.5 524.5 956.9 523.5 C 939.2 512.1 920.2 502.7 901.9 492.3 C 887 483.9 871.9 476 857.1 467.4 C 855.8 466.6 854.6 465.8 853.5 464.2 C 852.6 462 853.1 460.2 853.9 458.1 C 854.6 456.7 855.5 455.9 856.6 455.4 C 871.5 448.9 885.6 440.7 901.4 435.1 C 904.4 435.1 905 436.9 905.2 439.1 C 905.4 442.5 906.8 445.5 908.6 448.3 C 923.5 470.3 939.2 491.8 954.3 513.6 C 955.5 515.4 957 517 958.8 518.8 z"></path>
<path fill="#dacdbd" opacity="1.000000" stroke="#dacdbd" d="M 853.6 464.1 C 867.3 471.5 880.6 479 893.9 486.4 C 914.1 497.7 934.2 509 954.4 520.1 C 956.7 521.4 958.2 524.1 961.6 524 C 962 524.8 962 525.5 962.1 526.6 C 953 526.6 944.2 524 935.2 522.6 C 916.2 519.4 897.1 516.1 878 513 C 867.7 511.4 857.7 508.6 847.3 507.5 C 845.5 507.3 843.7 507 841.1 506.7 C 840.2 506 840 505.5 839.9 504.5 C 842.7 491.6 847.3 479.7 851 467.5 C 851.4 466.2 852.1 465 853.6 464.1 z"></path>
<path fill="#d3b79e" opacity="1.000000" stroke="#d3b79e" d="M 965.5 540.1 C 962.8 538.9 962.3 537 963.8 534.9 C 964.9 533.3 965.1 531.7 965 529.5 C 972.4 524.6 978.4 518.4 985.3 513.2 C 989.7 510 993.5 506 998.6 503.2 C 1005.8 508.3 1013.5 511.9 1020.9 515.9 C 1045.4 529.2 1070 542.4 1094.8 555.9 C 1095 556.4 1095.1 556.7 1094.9 557.2 C 1094.3 557.6 1094.1 557.7 1093.4 557.8 C 1073.7 552.9 1054.5 547.5 1035.2 542.4 C 1022.2 539 1009.4 535.1 996 531.6 C 991.8 531.4 988.7 529.4 985.6 527.4 C 982.2 525.1 980.1 525.9 977.7 528.9 C 974.3 533.2 970.8 537.5 965.5 540.1 z"></path>
<path fill="#e3dcce" opacity="1.000000" stroke="#e3dcce" d="M 959 518.7 C 956.2 518.7 954.8 516.5 953.4 514.6 C 941.7 498.1 930.2 481.6 918.7 465.1 C 917 462.6 915.1 460.3 913.5 457.8 C 909 451 903.9 444.6 902.4 436.1 C 901.4 434.5 903.2 433.6 902.9 431.7 C 901.5 421 903.5 410.7 903.8 400.4 C 903.8 399.1 904.4 397.8 905.6 396.4 C 908.7 396.2 908.5 399 909.1 400.6 C 920.7 427.6 931.9 454.7 943.4 481.6 C 948.7 493.8 954.5 505.8 959 518.7 z"></path>
<path fill="#fdfdfd" opacity="1.000000" stroke="#fdfdfd" d="M 905.4 396 C 904.7 408 903.7 419.9 904 432.4 C 903.6 433.3 903.2 433.5 902.3 433.1 C 896.7 426.7 889.7 422.5 883.3 417.6 C 867.6 405.6 851.8 393.5 836 381.4 C 835.3 380.9 834.9 380.2 834.1 379.3 C 843 380.1 851.6 383 860.5 385 C 875.4 388.5 890.2 392.3 905.4 396 z"></path>
<path fill="#e9e5dd" opacity="1.000000" stroke="#e9e5dd" d="M 519.6 322 C 523.7 323.4 526.6 326 529.7 328.9 C 532.3 329.5 533.4 331.5 534.8 333.1 C 547.7 348.2 560.9 362.8 574 377.7 C 580.6 385.3 586.8 393.5 594.9 400.2 C 597.7 403.6 600.4 406.7 604 409.3 C 604.8 410 605.2 410.6 605.4 411.7 C 605.2 412.5 605.1 413 604.7 413.8 C 597.4 432.3 590.8 450.6 583.6 468.7 C 582.5 471.5 581.9 474.4 579.8 477.2 C 577.3 477.6 576.9 475.7 576 474.4 C 559.8 448.2 542.8 422.5 526.2 396.6 C 510.8 372.5 495.1 348.6 479.6 324.6 C 478.6 323.1 477.2 321.7 477.8 319.3 C 479.4 317.4 481.4 317.9 483.1 318.1 C 493.2 319 503.3 320 513.3 321 C 515.3 321.2 517.2 321.7 519.6 322 z"></path>
<path fill="#c4b1a0" opacity="1.000000" stroke="#c4b1a0" d="M 477.6 319 C 484.2 331 492.4 341.7 499.6 353 C 525.2 393.1 551 433 576.7 473 C 577.4 474.2 577.9 475.4 578.7 476.8 C 583.8 481.7 586.1 487.8 587.9 494.5 C 587.6 495.3 587.4 495.7 586.6 496.2 C 576.8 490.6 568.2 483.8 558.7 477.5 C 555.3 471.3 550.5 466.6 546.2 461.6 C 519.2 430.4 492.8 398.8 466.5 367.1 C 457.6 356.3 448.7 345.5 439.7 334.9 C 438.2 333.2 436.8 331.6 437.2 328.8 C 437.5 328.2 437.6 328 438.1 327.5 C 450.3 324.2 462 320 474.7 318.7 C 475.8 318.9 476.5 318.9 477.6 319 z"></path>
<path fill="#eae4d8" opacity="1.000000" stroke="#eae4d8" d="M 430.4 254 C 431.1 254.6 431.4 255.2 431.8 256 C 432.3 256.9 432.5 257.7 432.9 258.7 C 435.7 266.7 434.4 274.8 435 282.7 C 435.9 296 437.3 309.2 436.2 322.9 C 435.3 326.2 433.5 325.2 431.9 324.3 C 429.4 322.9 427.5 320.7 425.3 319 C 397.6 297.7 370.6 275.4 342.6 254.6 C 341.4 253.7 340.2 252.8 340 250.7 C 340.3 248.5 340.6 246.6 342.1 244.8 C 354.3 248.8 366.8 247.8 378.9 249.4 C 393.6 251.2 408.4 252.2 423.1 253.9 C 425.4 254.1 427.7 254.2 430.4 254 z"></path>
<path fill="#e9e5dd" opacity="1.000000" stroke="#e9e5dd" d="M 435 325.3 C 435.7 311.7 434.6 298.4 433.7 285.2 C 433.2 276.6 433.7 268 432.7 259.2 C 439.9 265.3 444.2 273.7 449.9 281 C 457.7 291.2 465.1 301.8 472.7 312.2 C 474 314 475.1 315.8 475 318.5 C 463 321.9 451 325 438.5 328.1 C 437.9 328.2 437.7 328.3 437.2 328.4 C 436 327.6 435.5 326.7 435 325.3 z"></path>
<path fill="#f3f4f0" opacity="1.000000" stroke="#f3f4f0" d="M 595.3 401.1 C 593.1 401 592 399.6 590.9 398.4 C 578.6 385.4 567.3 371.7 555.5 358.3 C 547 348.8 538.6 339.3 530.1 329.3 C 530.9 326.9 532.8 327 534.7 327 C 570.6 327 606.6 327 642.6 327 C 644.9 327 647.2 327.2 648.9 329.6 C 647.7 334.6 644 337.8 641.3 341.5 C 627.5 360.1 613.9 378.8 599.9 397.2 C 598.7 398.7 597.8 400.6 595.3 401.1 z"></path>
<path fill="#eeece4" opacity="1.000000" stroke="#eeece4" d="M 651 328.3 C 651 327.9 651.5 327.9 651.7 327.9 C 652.2 328 652.3 328.1 652.7 328.4 C 653.3 328.8 653.6 329.1 654.1 329.5 C 654.5 329.9 654.7 330 655 330.5 C 666.1 342.4 677.8 353.4 688.9 364.8 C 704.9 381 720.4 397.7 736.7 413.6 C 738.5 415.4 741.7 417.1 738.9 420.8 C 731 421 723.7 419.2 716.3 418.4 C 699.7 416.6 683 415 666 412.5 C 663.8 412.3 662 412.2 659.6 411 C 658.7 410.3 658.5 410 658.1 409.4 C 655.7 400.5 655.5 391.9 654.6 383.3 C 653.1 368.5 651.3 353.8 650 339.1 C 649.7 336.3 649 333.4 650.7 330.4 C 651 329.6 651 329.1 651 328.3 z"></path>
<path fill="#fdfdfd" opacity="1.000000" stroke="#fdfdfd" d="M 650.7 330 C 651.6 342.7 653.1 355.3 654.7 367.9 C 656.1 378.6 657.1 389.5 657.9 400.3 C 658.1 403.3 658.8 406.2 659 409.5 C 657.4 411.6 655.4 411.6 653.4 411.6 C 639 411.7 624.6 411.6 610.2 411.6 C 608.3 411.6 606.5 411.4 604.4 410.3 C 599.9 408.4 597.4 405.2 595 401.4 C 603.3 391.6 610.2 381.1 617.9 371.2 C 628.2 357.7 638.2 343.9 648.7 330.1 C 649.4 330 649.9 330 650.7 330 z"></path>
<path fill="#dfd6ca" opacity="1.000000" stroke="#dfd6ca" d="M 430.9 253.8 C 429.2 256.4 427 256.2 424.6 255.7 C 416.4 254.1 408 253.9 399.6 253 C 387.9 251.7 376.1 250.5 364.3 249.3 C 358.9 248.7 353.5 248.9 348 248.2 C 345.6 247.8 344.2 247 342.6 245.1 C 341.4 244.8 340.8 244.2 340.6 243.4 C 338.4 235.9 333.1 231.1 326.2 227.4 C 325.4 226.6 324.7 226.1 324.4 225.8 C 349.8 217.3 376 210.1 401.5 200 C 407.6 206 409.9 214.1 414.3 221 C 416.1 223.9 417.5 227.1 419.6 230.3 C 422.9 238.2 427.9 244.7 430.9 252.6 C 430.9 253.2 430.9 253.4 430.9 253.8 z"></path>
<path fill="#e3dcce" opacity="1.000000" stroke="#e3dcce" d="M 197.3 299.2 C 197 298 197 296.9 197.1 295.5 C 199 293.3 201.3 294.2 203.2 294.9 C 214.4 298.8 224.2 296.6 233.1 288.8 C 236.7 285.7 241 283.4 245.4 280.5 C 233 278 220.9 275.9 209 273.5 C 207.3 273.1 205.6 273.1 204 271.7 C 202.4 269.2 203.7 267.3 204.8 265.5 C 207.3 261.8 209.9 258.2 212.8 254.3 C 215.1 253.4 217.2 252.7 219.6 252 C 220.7 252 221.5 252 222.6 252 C 231.4 262 241.5 270.1 252.5 277.6 C 259.3 280.5 266.2 281.9 272.9 283.6 C 287 287.4 301 291.5 315.6 294.9 C 321.3 298 327.1 299.3 332.8 301.2 C 335 302 338.4 302 338.1 306.1 C 336.2 307.2 334.6 307.4 332.5 307.4 C 318.6 307.5 305.3 309.7 291.9 310.9 C 283.7 311.6 275.4 312.3 266.9 313.1 C 268.4 314 269.7 314.7 270 316.6 C 268.5 318.2 267 318 265.6 317.3 C 256.6 312.7 247.2 315 237.9 315.9 C 233.3 316.3 228.6 316.7 223.6 317.1 C 220.5 315.9 217.3 317.1 214.3 315.3 C 213.6 315 213.1 315 212.4 315.1 C 207.8 314.3 210.8 311.5 210.2 309.3 C 210 307.9 209.5 307 208.2 306.2 C 207.5 305.4 207.2 304.7 207.4 303.5 C 208.1 302.5 208.7 302.3 209.8 302.3 C 210.7 302.2 210.8 303.3 211.7 302.6 C 207.5 299.9 202.4 300.1 197.3 299.2 z"></path>
<path fill="#dab89b" opacity="1.000000" stroke="#dab89b" d="M 419.3 231.1 C 412.4 221.4 407.6 210.8 401.9 200.3 C 402 199.4 402.2 198.9 402.6 198.2 C 407.5 197.3 410.6 193.9 414.5 191.8 C 423.2 187 431.9 182.3 440.8 177.3 C 441.5 177 441.9 177 442.7 177 C 443.2 177.3 443.4 177.5 443.8 177.9 C 444 178 444 178 444 178 C 448.9 185.8 454.7 193.1 458.2 201.8 C 450 209.2 441.2 215.5 432.4 221.7 C 428.1 224.8 424.5 228.8 419.3 231.1 z"></path>
<path fill="#dfd6ca" opacity="1.000000" stroke="#dfd6ca" d="M 252.3 277.9 C 248.7 278.5 247.3 275.7 245.4 274.1 C 238.5 268.7 231.6 263.2 225.4 256.9 C 224.2 255.7 222.9 254.7 223 252.4 C 240.7 250.4 258.4 250.9 276.1 249.1 C 279.2 248.7 282.4 249 286.1 249.1 C 286.6 249.4 286.6 249.6 286.5 250.1 C 286.2 250.9 286 251.3 285.5 251.9 C 273.9 260.1 263.9 269.8 252.3 277.9 z"></path>
<path fill="#26161d" opacity="1.000000" stroke="#26161d" d="M 286.6 249.9 C 286.7 249.5 286.7 249.3 286.6 249.2 C 296.1 242.6 305.6 236.1 315.2 229.6 C 318.2 227.7 321.6 227 325.6 227.1 C 334.6 229.7 339.6 235.9 342.2 244.6 C 341.8 246.7 342.3 248.6 341 250.4 C 340.8 250.9 340.6 251.1 340.1 251.2 C 339.2 250.7 338.6 250.1 338 250.2 C 332.2 251.9 326.2 251.1 320.3 251.3 C 319.3 251.4 317.7 251 317.5 252.6 C 317.3 253.8 318.6 254.6 319.6 255 C 322.6 256.3 325.6 256.9 328.8 256.4 C 330.4 256.1 332.1 255.7 333.9 256.8 C 333.8 260.4 331.1 260.6 328.7 261 C 324.4 261.8 320.2 261.4 316 260 C 307.9 257.2 299.6 254.7 290.9 252.4 C 290.3 252.2 290 252.2 289.4 252 C 288.1 251.4 287.1 251 286.6 249.9 z"></path>
<path fill="#d4a787" opacity="1.000000" stroke="#d4a787" d="M 1172.2 583.9 C 1165.7 585.4 1159.5 585.2 1153.2 584.4 C 1145.7 583.5 1138 584.6 1130.5 583.1 C 1128.9 582.7 1127.3 582.5 1125.3 582.2 C 1124.4 582.4 1124 582.5 1123.1 582.3 C 1113.4 575.2 1104.8 567.3 1096.5 558.5 C 1096.3 557.7 1096.4 557.2 1096.8 556.5 C 1135.2 555.6 1173.4 557 1211.6 556.9 C 1216.4 556.8 1221.2 556.9 1226.5 556.9 C 1222.1 560.5 1216.6 563.3 1211.1 565.9 C 1200.3 570.9 1189.4 575.9 1178.8 581.3 C 1176.7 582.3 1174.5 582.8 1172.2 583.9 z"></path>
<path fill="#d3b79e" opacity="1.000000" stroke="#d3b79e" d="M 1096.8 556.2 C 1097 556.6 1097 557 1097 557.7 C 1096.6 558.2 1096.2 558.2 1095.7 557.6 C 1095.5 557.2 1095.6 557 1095.8 556.5 C 1096.1 556.2 1096.3 556.2 1096.8 556.2 z"></path>
<path fill="#d4a787" opacity="1.000000" stroke="#d4a787" d="M 1095.7 556.2 C 1095.9 556.2 1095.9 556.7 1095.9 556.9 C 1095.8 557.2 1095.6 557.2 1095.2 557.2 C 1095 557 1095 556.6 1095 556.4 C 1095 556.1 1095.5 556.1 1095.7 556.2 z"></path>
<path fill="#f0efea" opacity="1.000000" stroke="#f0efea" d="M 652.2 329 C 652 328.7 652 328.3 652 328.1 C 656.5 324.5 662.2 324.3 667.4 322.8 C 689.6 316.4 711.9 310.3 734.6 304 C 735.1 304.3 735.3 304.6 735.8 304.9 C 735.7 308.2 738.1 310.1 739.3 312.6 C 751.3 337.6 763.3 362.6 775.3 387.5 C 776.1 389.2 777.1 390.7 778 392.7 C 776.1 394.4 774.5 393.1 772.9 392.3 C 751.3 381 729.5 369.9 707.9 358.5 C 697.3 352.9 686.4 347.9 675.9 342.3 C 668.7 338.4 661.3 335.1 654.3 330.2 C 654 330 654 330 654 330 C 653.6 329.5 652.9 329.5 652.2 329 z"></path>
<path fill="#b09685" opacity="1.000000" stroke="#b09685" d="M 437.7 328.9 C 437.8 333.5 441.7 335.3 443.9 338 C 459.3 356.9 475 375.5 490.7 394.2 C 505.8 412.2 520.8 430.4 536 448.4 C 542.8 456.5 549.9 464.4 556.9 472.4 C 557.9 473.5 559.1 474.5 559 476.5 C 558.1 477.6 557.4 477.1 556.4 476.2 C 554.8 474.3 552.9 473.3 550.4 473.1 C 542.3 468.9 534.4 464.7 526.7 460.3 C 510.9 451.3 495.1 442.4 480.3 431.1 C 473.6 425.3 469.3 417.9 464.4 411.1 C 452.9 395.3 441 379.7 430.1 363.5 C 428.6 361.3 427.2 359 426.2 356.3 C 425.3 355.1 424.7 354.2 424 352.9 C 422.9 351.4 423.2 350.1 423.8 348.9 C 426.7 342.6 430.2 336.6 433.8 330.7 C 434.6 329.4 435.7 328.3 437.7 328.9 z"></path>
<path fill="#dacdbd" opacity="1.000000" stroke="#dacdbd" d="M 438 328.9 C 436.4 328.9 435.6 329.8 434.9 331.1 C 431.1 337.9 426.7 344.5 424 352.3 C 423.5 352.7 423.1 352.8 422.4 352.8 C 422.1 350.1 419.6 350 418 349.1 C 393.1 334.9 368.2 320.8 343 306.4 C 344.6 304.3 346.6 305.6 348.8 305.7 C 376.5 312.1 403.8 318.2 430.8 325.3 C 432.8 325.8 434.7 326.2 436.7 327.7 C 437.2 328 437.4 328 437.8 328.1 C 438.1 328.3 438 328.5 438 328.9 z"></path>
<path fill="#aa8c7c" opacity="1.000000" stroke="#aa8c7c" d="M 425.9 356.4 C 431.1 361.7 434.8 368.6 439.3 374.8 C 452.9 393.3 466.4 411.8 480 430.6 C 474.7 433.9 470.8 438.6 466.3 442.9 C 458 429.9 452.4 415.7 445.7 401.9 C 439.2 388.8 433.5 375.3 427.5 362 C 426.7 360.3 425.8 358.7 425.9 356.4 z"></path>
<path fill="#f6f5f0" opacity="1.000000" stroke="#f6f5f0" d="M 349.2 306.6 C 347.2 306.7 345.4 306.3 343.3 306.1 C 341.8 306.1 340.7 306.2 339.2 306.3 C 338.9 306.4 338.6 306.2 338.5 306.2 C 338.1 306.3 337.9 306.3 337.9 306.1 C 334.8 301.5 329.4 301.9 325 300.3 C 322 299.2 319.1 298.3 316.3 296.2 C 309.2 288.4 304.7 279.2 298.9 270.9 C 295.7 266.4 293 261.6 289.8 257.2 C 288.4 255.2 287.2 253.2 288.9 250.5 C 299.2 253.3 309.1 256.2 319.1 259.2 C 324.2 260.8 329.2 260.5 334.1 257.4 C 335.1 254.7 336.8 253.7 339.6 253.8 C 340.2 267.9 342.9 281.6 343.4 295.5 C 343.5 299.5 343.8 302.8 348.2 304.3 C 349 304.5 349.4 305.4 349.2 306.6 z"></path>
<path fill="#9c7f73" opacity="1.000000" stroke="#9c7f73" d="M 293.3 328.7 C 292.8 333.1 289 333.5 286.4 334.6 C 283 336 279.8 337.6 277.2 340.7 C 275.2 341.9 273.8 340.5 272.4 339.9 C 266.3 337.2 260.7 333.5 254.4 331.4 C 253.2 331 252.3 330.2 251.7 328.8 C 252.6 325.8 254.8 325.1 257.1 324.8 C 264 323.6 270.7 321.9 278 321.2 C 280.9 320.8 282.9 322.2 285.4 323 C 288 324.6 290.5 325.6 292.7 327.7 C 293 328 293 328 293 328 C 293.2 328.2 293.4 328.3 293.3 328.7 z"></path>
<path fill="#aa8c7c" opacity="1.000000" stroke="#aa8c7c" d="M 293.1 327.7 C 290.5 327.6 288.5 326.3 286.2 324.7 C 284.8 322.4 281.5 322.9 280.9 319.9 C 282.7 317.9 284.9 317.5 287 317.1 C 299.7 314.7 312.2 311.4 324.6 307.8 C 326.8 307.2 329.2 307.3 331.7 306.3 C 333.7 306 335.5 306 337.6 305.9 C 338.1 305.9 338.2 306 338.2 306.1 C 338.1 306.5 338.1 307 337.8 307.1 C 325.2 314.5 312.5 322.1 298.5 326.8 C 296.6 327.5 294.6 324.8 293.1 327.7 z"></path>
<path fill="#dfd6ca" opacity="1.000000" stroke="#dfd6ca" d="M 251.9 328.6 C 260.2 332.8 268.3 336.8 276.7 340.8 C 284.6 345 292.8 348.2 299.9 353.7 C 297.6 354.8 296 353 294.1 352.1 C 281 345.7 267.9 339.2 254.4 332.6 C 253.7 332.6 253.3 332.7 252.6 332.7 C 251.8 332.5 251.3 332.2 250.5 331.9 C 250 331.7 249.9 331.6 249.4 331.4 C 248.6 331 248.1 330.7 247.2 330.4 C 243.1 328.3 239.3 326.5 235 324.8 C 233.1 323.5 231.3 322.8 229.6 322.3 C 230.4 323 231.6 323.5 232.4 324.9 C 232.6 325.7 232.6 326.2 232.2 327 C 227.5 327.6 224.7 324.5 221.2 321.9 C 219.2 319.1 214.9 319.4 214.1 315.3 C 216.8 315.1 219.6 315.2 222.7 315.6 C 222.6 319 225.1 317.5 226.2 317.7 C 235.5 319.4 244.1 322.8 251.9 328.6 z"></path>
<path fill="#aa8c7c" opacity="1.000000" stroke="#aa8c7c" d="M 293.3 329 C 293 329 293 328.5 293 328.2 C 294.3 328.1 295.6 328.1 296.8 328.5 C 297.5 328.7 299.1 329 298.3 330.3 C 297.7 331.3 296.6 330 295.4 330 C 294.8 329.8 294.6 329.5 294.2 329.2 C 294 329 293.5 329 293.3 329 z"></path>
<path fill="#dfd6ca" opacity="1.000000" stroke="#dfd6ca" d="M 301 354.7 C 300.6 354.9 300.2 354.8 299.9 354.3 C 300.4 354.1 300.7 354.3 301 354.7 z"></path>
<path fill="#9c7f73" opacity="1.000000" stroke="#9c7f73" d="M 294.1 329.2 C 294.3 329.1 294.6 329.3 294.9 329.8 C 294.7 329.9 294.4 329.7 294.1 329.2 z"></path>
<path fill="#e3dcce" opacity="1.000000" stroke="#e3dcce" d="M 655.2 514.8 C 648 521.9 642.8 530.3 636.7 537.9 C 625.7 551.6 614.9 565.5 604 579.6 C 600.9 583.4 596.5 586.4 598.1 592.6 C 596.3 593.3 596.1 591.9 595.8 590.9 C 594.9 587.9 592.8 586 589.9 584.3 C 588.3 581.4 588.7 578.7 589.3 576 C 589.6 574.6 590.4 573.1 588.9 571.5 C 588.1 570.1 588.4 568.9 589.1 567.5 C 590.2 566.1 590.6 564.9 590.2 563.1 C 594.7 543.5 599.9 524.5 604.9 505.5 C 606.4 500 607.6 494.5 609.2 488.7 C 609.5 488.1 609.7 487.9 610.2 487.5 C 613.3 486.4 615.7 487.7 618.2 488.7 C 629.6 493.3 641.2 497.4 652.4 502.4 C 654.4 503.2 656.3 504.2 658.9 504 C 659.5 503.8 659.8 503.7 660.4 503.7 C 663.1 506.2 660.9 508 659.8 509.9 C 658.7 511.7 657.5 513.5 655.2 514.8 z"></path>
<path fill="#dfd6ca" opacity="1.000000" stroke="#dfd6ca" d="M 589.6 583.8 C 595.4 584.3 596.3 588.5 597.7 592.8 C 598 594.4 598 595.7 598.1 597.5 C 598.1 598.1 598 598.3 597.9 598.8 C 597.6 599.3 597.4 599.6 597.2 600.1 C 596.5 601.1 595.9 601.9 595.1 602.9 C 588.3 603 581.7 602.9 574.6 602.8 C 573.7 601.1 572.3 601.1 570.9 601 C 553.6 599.7 536.3 598.4 518.4 597 C 518 595.2 519.8 594.6 520.7 593.2 C 526.1 590.2 531.8 591.6 537.1 591 C 552.8 589.1 568.3 586.1 583.8 583.8 C 585.6 583.5 587.4 583 589.6 583.8 z"></path>
<path fill="#7a5f5d" opacity="1.000000" stroke="#7a5f5d" d="M 810.6 565.3 C 813.1 564.9 815.3 564.8 817.7 565.8 C 818 566.7 818.7 566.6 819.4 566.9 C 820 566.9 820.3 567 820.8 567.2 C 825.5 567.1 828 571.3 832.3 572.3 C 832.2 575.6 829.5 576.1 827.4 577.6 C 826.9 577.9 826.7 578 826.1 578.2 C 825.6 578.5 825.4 578.6 824.9 578.8 C 821 579.7 818.2 582.2 814.4 583.1 C 813.1 580.9 811.2 580.7 809.4 581.1 C 800.6 582.8 791.6 581.5 782.3 582 C 778.9 582.9 775.9 582.3 772.5 582.2 C 771.7 582 771.4 582 770.7 581.9 C 770.2 581.8 769.9 581.7 769.8 581.3 C 770.1 578.1 771.3 575.6 773.7 574.2 C 778.2 571.5 782.6 569.2 786.2 565 C 788.7 562.1 793.5 564.3 797.6 564.3 C 802 566.4 806.2 565.2 810.6 565.3 z"></path>
<path fill="#26161d" opacity="1.000000" stroke="#26161d" d="M 769.5 580.9 C 770 581.1 770.1 581.3 770.3 581.7 C 767.6 583.4 764.5 583.9 761.3 583.9 C 735.2 583.9 709.1 584.8 683.1 583.6 C 662 582.7 641 582.1 619.9 581.9 C 619 581.9 617.9 582.1 617.2 580.6 C 667.8 580.3 718.4 579.6 769.5 580.9 z"></path>
<path fill="#e0c3a9" opacity="1.000000" stroke="#e0c3a9" d="M 813.8 583.2 C 817.2 580.8 820.6 579.1 824.5 577.9 C 826 579.2 825.3 580.3 824.1 581.5 C 818.3 584.4 813.9 588.8 808.2 591.9 C 807.6 591.9 807.3 591.7 807 591.3 C 808 587.5 811 585.7 813.8 583.2 z"></path>
<path fill="#26161d" opacity="1.000000" stroke="#26161d" d="M 772.4 582.3 C 775 582 778 582.1 781.4 582.1 C 778.8 583.6 775.7 582.9 772.4 582.3 z"></path>
<path fill="#8fa3b0" opacity="1.000000" stroke="#8fa3b0" d="M 600.5 594.5 C 600.5 594.5 600.5 594.6 600.5 594.5 z"></path>
<path fill="#c29178" opacity="1.000000" stroke="#c29178" d="M 443.9 177.8 C 443.7 177.9 443.4 177.7 443.1 177.2 C 443.4 177.1 443.6 177.3 443.9 177.8 z"></path>
<path fill="#eae4d8" opacity="1.000000" stroke="#eae4d8" d="M 212.6 254 C 213.1 257.9 209.7 260 208.1 262.9 C 206.7 265.4 204.3 267.2 204 270.6 C 203.8 271.2 203.6 271.4 203 271.7 C 192.4 270.9 182.3 269.7 172.3 266.3 C 171.6 265.1 171.2 264.4 171.9 263.2 C 183.6 259.6 195.6 257.7 207.4 255 C 209 254.6 210.6 254.4 212.6 254 z"></path>
<path fill="#d4a787" opacity="1.000000" stroke="#d4a787" d="M 419 231.4 C 431.1 220.7 444.3 211.5 457.7 202 C 457.3 206.6 454.3 210.1 452.4 214.1 C 446.8 225.7 441 237.1 435.2 248.5 C 434.3 250.2 434 252.5 431.2 253 C 426.3 246.3 422.5 239.1 419 231.4 z"></path>
<path fill="#55454a" opacity="1.000000" stroke="#55454a" d="M 529.3 519.3 C 532.2 514.4 537.9 514.3 542.4 512.1 C 549.3 508.7 556.5 505.7 563.8 502.3 C 566.2 501.5 567.1 503.2 567.6 504.7 C 569.8 510.2 573 515.4 575 521.4 C 574.8 525.9 572.2 528.9 570.3 532.1 C 566.1 539 562.9 546.6 557.3 553 C 555.7 553.3 555.2 552.4 555.1 551.4 C 554 542.3 546.6 538 540.9 532.5 C 538.4 530.1 535.6 528.2 535 524.8 C 534.5 521.5 531.3 521.3 529.3 519.3 z"></path>
<path fill="#614a4e" opacity="1.000000" stroke="#614a4e" d="M 529 519.4 C 532.8 519.7 536.6 520.2 536.5 525.6 C 536.4 527.5 538.2 529.4 539.9 530.2 C 545.5 533 548.3 538.6 552.8 542.4 C 555.9 545 556.1 548.8 556.6 552.7 C 557.3 557.5 553.7 560.1 551.7 563.7 C 551.1 564.4 550.6 564.9 550 565.6 C 549.8 566 549.7 566.2 549.4 566.6 C 549.1 567.3 548.9 567.7 548.6 568.4 C 548.4 569 548.3 569.2 548.1 569.8 C 547.2 572.1 546.7 574.2 546.4 576.4 C 545.5 583.3 545.3 583.5 537.5 583.1 C 533.4 582.3 529.7 581.7 527.8 577.3 C 529.7 576.6 531.4 576.3 533.6 576 C 537.2 576.3 538.3 575.5 537.6 571.8 C 535.1 558.9 533.1 545.8 531 532.4 C 531.7 527.7 528.6 524.1 529 519.4 z"></path>
<path fill="#7a5f5d" opacity="1.000000" stroke="#7a5f5d" d="M 574.3 522.8 C 571.3 515.5 568.5 508.6 564.3 502.1 C 562.4 494.5 558.6 487.9 555.6 481 C 554.9 479.5 552.6 477.7 555.9 476 C 557 476.2 557.7 476.5 558.8 476.8 C 568.4 482.5 577.3 488.6 586.1 495.6 C 583.4 511.3 580.5 526.8 579.3 542.5 C 579.2 543.8 579 545.1 577.4 546.1 C 573.9 538.7 574.7 530.9 574.3 522.8 z"></path>
<path fill="#aa8c7c" opacity="1.000000" stroke="#aa8c7c" d="M 500.3 604.2 C 501.5 603.3 502.9 602.6 504.8 603.6 C 503.7 605.5 502.1 605.1 500.3 604.2 z"></path>
<path fill="#eae4d8" opacity="1.000000" stroke="#eae4d8" d="M 590 583.6 C 567.4 587.8 545 593 521.5 593 C 522.6 591.2 524.2 589.4 525.9 587.3 C 517.9 586.4 511.5 590.9 504.9 594.7 C 502.5 596.1 500.1 597.5 497.5 598.7 C 496.3 599.2 494.9 599.2 493.8 598.1 C 492.8 596.9 493.8 596 494.4 595 C 495.3 593.3 496.1 591.4 497 589.3 C 498 586.1 500.1 584.4 503.1 583 C 511.6 582.3 519.8 582.5 528.4 582.5 C 544.4 582.8 559.7 580.7 575.6 580.3 C 576.5 580 577.1 579.9 578 579.8 C 585.4 579.4 585.6 579.3 587.2 572.5 C 587.6 571.8 588 571.4 588.8 571.1 C 591.3 571 592.7 571.7 591.4 573.9 C 589.8 576.9 590 580 590 583.6 z"></path>
<path fill="#7a5f5d" opacity="1.000000" stroke="#7a5f5d" d="M 529.5 583.2 C 520.4 584.4 511.7 583.7 502.5 584 C 503.6 580.6 506.6 583.5 508.8 582.4 C 507 582.5 505.1 582.4 503.2 582.5 C 501.2 582.6 500.1 581.8 500.7 579.2 C 501.8 577.7 503.1 578.1 504.6 578 C 512.3 577.6 519.6 577.2 527.4 576.9 C 530.4 579.1 532.7 581.6 536.7 581.7 C 534.7 583 532.2 582.8 529.5 583.2 z"></path>
<path fill="#927671" opacity="1.000000" stroke="#927671" d="M 500.5 578.9 C 500.8 581.1 501.8 582.2 504.1 582 C 506.1 581.9 508 582 510 582.7 C 507.5 582.9 505 583.2 502.3 583.7 C 500.5 585.6 499.1 587.1 497.3 588.8 C 491.7 588 490.6 583.4 488.2 579 C 490.6 579 492.4 579 494.6 579 C 495.5 579.5 496 579.5 496.8 579.2 C 498 579 499.1 579 500.5 578.9 z"></path>
<path fill="#7a5f5d" opacity="1.000000" stroke="#7a5f5d" d="M 496.7 579 C 496.6 579.7 496.1 580 495.2 579.3 C 495.5 579 495.9 579 496.7 579 z"></path>
<path fill="#dfd6ca" opacity="1.000000" stroke="#dfd6ca" d="M 518 597 C 517.9 597.1 517.8 598 517.8 597 C 517.9 597 518 597 518 597 z"></path>
<path fill="#eae4d8" opacity="1.000000" stroke="#eae4d8" d="M 961.6 543 C 954.8 549.9 947.7 556.8 940.5 563.7 C 934.4 569.5 928.3 575.3 922.1 581.4 C 921.5 582.3 920.9 582.7 920.1 583.5 C 918.3 584.8 916.6 585.9 914.7 587.2 C 912.9 587.8 911.8 587.2 910.6 585.9 C 907.7 577.9 902 572.2 897.7 565.6 C 896.3 563.5 894 561.4 896.7 558.3 C 912 553.4 927.5 550.5 942.8 547.1 C 948.9 545.7 954.8 543.4 961.6 543 z"></path>
<path fill="#cbbaaa" opacity="1.000000" stroke="#cbbaaa" d="M 202.8 271.4 C 203 271 203.5 271 203.7 271 C 214 273 224 275.1 234 276.9 C 238.7 277.7 243.3 279.5 248.5 279.9 C 242.5 283.9 236.1 287.4 230.8 292.1 C 223.4 298.6 215.5 299.3 206.6 297 C 203.7 296.2 200.8 295.7 197.5 295.1 C 197.1 294.9 197 294.7 197 294.3 C 200 289.3 199.6 283.9 200.6 278.7 C 201 276.3 201 273.8 202.8 271.4 z"></path>
<path fill="#d8c7b7" opacity="1.000000" stroke="#d8c7b7" d="M 202.6 271 C 202 277.8 201 284.6 200 291.4 C 199.8 292.9 199.5 294 197.4 294 C 190.6 290.5 184.4 286.7 178.4 282.1 C 176.3 279.4 174.5 276.9 172.3 274.2 C 170.1 272.3 169.6 270.2 170.7 267.4 C 171.2 266.7 171.4 266.5 171.8 266.1 C 182.1 267.6 192.1 269.3 202.6 271 z"></path>
<path fill="#aa8c7c" opacity="1.000000" stroke="#aa8c7c" d="M 221.1 322 C 224.4 323.4 227.8 325.2 231.6 327.1 C 235 327.3 237.1 328.8 238.5 331.9 C 236.2 335.6 232.1 335.5 229 337.1 C 227.4 337.9 225.6 338.4 223.6 339.3 C 219.4 338.6 217.2 335.3 214 333.4 C 212.4 332.5 211.3 331 209.3 330.2 C 209 330 209 330 209 330 C 208.8 329.8 208.6 329.7 208.2 329.2 C 206.5 326.9 204.8 324.8 209.6 324.8 C 213.5 324.6 217 324.3 220.6 323.9 C 221.6 323.8 221.2 322.9 221.1 322 z"></path>
<path fill="#d8c7b7" opacity="1.000000" stroke="#d8c7b7" d="M 209.7 324.7 C 206.4 325 206.9 326.4 209 328.6 C 208.9 329.1 208.7 329.3 208.3 329.7 C 207.6 329.7 207.1 329.4 206.3 329.1 C 193.8 325 183.1 318.2 173 310.6 C 173.2 310.1 173.5 309.6 173.8 309.2 C 176.9 311.1 180.4 312.6 183.2 314.9 C 187.9 318.8 193.6 320.9 198.6 324.1 C 200 325 201.2 324.5 202.3 324 C 204.8 322.8 207.2 323.3 209.7 324.7 z"></path>
<path fill="#e0c3a9" opacity="1.000000" stroke="#e0c3a9" d="M 207.6 318.1 C 205.9 321.6 202.9 320.4 200.3 319.1 C 191.7 314.7 183.2 310.1 174.1 305.3 C 177.8 303 180.2 304.6 182.8 306.2 C 190.4 311.1 197.7 316.7 207.6 318.1 z"></path>
<path fill="#c4b1a0" opacity="1.000000" stroke="#c4b1a0" d="M 196.6 299 C 203 297.3 208.5 300.3 214.3 300.9 C 215 301 215.7 301.5 214.9 302.2 C 214.4 302.7 213.5 302.8 212.4 303.1 C 211.9 303.2 211.7 303.3 211.2 303.3 C 210.3 303.2 209.5 303.2 208.5 303.2 C 202.7 305.1 197.9 302.3 193 300.5 C 193.8 298.8 195.1 299.1 196.6 299 z"></path>
<path fill="#e0c3a9" opacity="1.000000" stroke="#e0c3a9" d="M 209.9 309.4 C 212.4 310.3 209.3 313.3 211.9 314.9 C 211.9 317.1 210.7 318 208.4 318.1 C 208.1 318.1 208 318 208 318 C 206.8 314.8 203.7 314.2 201.1 313.1 C 199.3 312.4 197.4 312 195.3 309.9 C 199.2 310.2 202.3 309.6 205.5 310.6 C 206.9 311.1 208.7 311.8 209.9 309.4 z"></path>
<path fill="#dacdbd" opacity="1.000000" stroke="#dacdbd" d="M 192.7 300 C 197.5 302.1 202.3 302.8 207.7 303.2 C 208.1 304 208 304.7 208 305.7 C 202.7 304.7 197.4 303.4 192.1 301.8 C 190.5 301.3 189.4 300.3 192.7 300 z"></path>
<path fill="#dacdbd" opacity="1.000000" stroke="#dacdbd" d="M 184.9 298.4 C 186.5 297.9 187.4 298.8 188.6 299.6 C 186.7 300.2 185.4 300.3 184.9 298.4 z"></path>
<path fill="#d8c7b7" opacity="1.000000" stroke="#d8c7b7" d="M 169.3 309 C 169.2 308.5 169.3 307.9 169.8 307.2 C 171.2 307.9 170.9 308.5 169.3 309 z"></path>
<path fill="#dfd6ca" opacity="1.000000" stroke="#dfd6ca" d="M 910.7 584.8 C 911.9 585.7 912.8 586.3 914.1 587.1 C 914.4 587.3 914.2 587.7 914.1 587.9 C 913.8 588.2 913.7 588.3 913.3 588.7 C 913 589 913 589.4 913 589.6 C 907 591.2 901.1 590.2 894.7 590.3 C 892 590.2 889.8 590.2 887.1 590.3 C 881.9 591.6 877 591.5 871.7 591.4 C 867 590.7 862.7 590.9 858 591.3 C 852.5 591.5 847.4 591.5 841.8 591.5 C 837.4 590.1 840.7 588.6 841.6 588 C 847 584.4 851.7 580 857.5 576.5 C 858.5 576.1 859.2 575.9 860.2 575.6 C 860.8 575.4 861 575.3 861.5 575.1 C 864.1 574.3 866.2 574.7 868.7 575.3 C 882.7 579.1 896.8 580.7 910.7 584.8 z"></path>
<path fill="#d4a787" opacity="1.000000" stroke="#d4a787" d="M 859.3 576.8 C 852.4 580.7 846.9 586.3 840.2 590.6 C 835.7 592.2 831.2 591.2 826.4 591.2 C 824.6 590.6 823.2 590.3 821.5 590 C 821.1 587.7 822.9 588.1 824.2 587.9 C 825.6 587.6 827.1 587.6 827.5 585.3 C 830.4 581.4 833.9 578.6 837.3 575.6 C 839.9 573.3 843.6 572.6 847.1 572.7 C 851.9 572.9 856.7 572.8 861.1 575.6 C 861.1 576 861 576 861 576 C 860.6 576.4 860 576.5 859.3 576.8 z"></path>
<path fill="#c29178" opacity="1.000000" stroke="#c29178" d="M 827.6 585.5 C 828.8 587.6 829.1 589.2 826 589 C 824.6 589 823.1 589.2 821.4 589.6 C 816.4 588.6 812.9 592.9 808.1 592.2 C 812.3 587.7 817 584 822.8 581.1 C 824.4 582.5 822.7 584.1 823.2 585.7 C 824.6 586.6 825.9 585 827.6 585.5 z"></path>
<path fill="#856964" opacity="1.000000" stroke="#856964" d="M 826.3 591.2 C 830.4 590.9 834.7 591 839.5 590.9 C 845.6 590.9 851.3 590.9 857.4 591 C 862 590 866.1 590.7 870.7 590.7 C 876.1 590.7 881 590.5 886.3 590.4 C 886.5 592.2 885.2 591.9 884.1 591.9 C 865.4 591.9 846.7 591.9 828 591.9 C 827.5 591.9 827.1 591.7 826.3 591.2 z"></path>
<path fill="#927671" opacity="1.000000" stroke="#927671" d="M 894.5 590.4 C 900.2 590.1 906.1 590 912.5 589.9 C 907 592.1 900.9 590.6 894.5 590.4 z"></path>
<path fill="#eae4d8" opacity="1.000000" stroke="#eae4d8" d="M 913.2 588.9 C 913.1 588.7 913.3 588.4 913.8 588.1 C 913.9 588.3 913.7 588.6 913.2 588.9 z"></path>
<path fill="#aa8c7c" opacity="1.000000" stroke="#aa8c7c" d="M 234.7 323.9 C 239.5 325 243.5 327.3 247.8 329.5 C 248.4 330.4 249 330.5 249.8 330.8 C 250.1 330.9 250 331 250 330.9 C 250.5 331.5 251.2 331.5 252.1 331.8 C 252.9 332 253.3 332.1 253.9 332.3 C 254.5 334.4 255.3 336 257.1 337.1 C 260 338.8 257.1 339.1 256 340 C 255.1 340.6 254.4 340.7 253.3 340.2 C 253 340.1 253 340 253 340 C 252.8 339.9 252.7 339.7 252.2 339.3 C 252 339.1 252 339 252 339 C 251.1 338 249.7 337.7 248.4 336.9 C 247.1 336.2 246.3 335.6 245 335.1 C 244.6 334.9 244.4 334.8 243.9 334.6 C 243.2 334.3 242.8 334.1 242.2 333.7 C 241.8 333.3 241.6 333.2 241.2 332.8 C 239.3 329.5 235 329.3 233.7 325.5 C 233.8 324.7 234.1 324.4 234.7 323.9 z"></path>
<path fill="#c6d2da" opacity="1.000000" stroke="#c6d2da" d="M 259.6 344.6 C 257.8 345 256.7 343.9 255.9 342.4 C 258.1 341.3 259 342.6 259.6 344.6 z"></path>
<path fill="#c6d2da" opacity="1.000000" stroke="#c6d2da" d="M 253 340.4 C 253.7 340 254.3 340 255.3 340 C 255.9 340.5 256.1 341 256.1 341.7 C 254.4 342.9 254 341.2 253 340.4 z"></path>
<path fill="#c6d2da" opacity="1.000000" stroke="#c6d2da" d="M 262.1 347 C 261.6 347.2 261.3 346.9 260.7 346.3 C 261.2 345.7 261.8 345.9 262.1 347 z"></path>
<path fill="#eae4d8" opacity="1.000000" stroke="#eae4d8" d="M 170.6 267 C 171.3 269.1 171.7 271.2 172 273.6 C 172 276.5 172 279 171.9 281.5 C 171.9 282.3 171.9 283.3 170.9 283.5 C 170 283.7 169.5 283 169 282.3 C 167.1 279 165.2 275.7 163.3 272.4 C 162.5 271.1 161.9 269 159.4 271.1 C 158.8 267.9 160.8 266.5 163.5 267.5 C 166 268.3 168 267.2 170.6 267 z"></path>
<path fill="#eae4d8" opacity="1.000000" stroke="#eae4d8" d="M 209 330.4 C 214.7 330.9 217.8 336 222.7 338.8 C 224.9 338.5 225.6 339.7 226.2 341.5 C 226 342 225.9 342.1 225.6 342.4 C 219.6 339.1 214.2 335.2 209 330.4 z"></path>
<path fill="#eae4d8" opacity="1.000000" stroke="#eae4d8" d="M 208.3 330 C 208.3 329.6 208.5 329.3 208.9 329 C 209.2 329.1 209.3 329.3 209.2 329.8 C 209 330 208.5 330.1 208.3 330 z"></path>
<path fill="#927671" opacity="1.000000" stroke="#927671" d="M 226.4 341.9 C 225.2 341 224.4 340.2 223.3 339.1 C 227.2 335.2 233 335 237.9 332 C 239.4 331 240.5 331.6 241.7 332.8 C 242 333 242 333 242 333 C 242.4 333.4 243 333.5 243.8 333.9 C 244 334 244 334 244 334 C 244.6 334.6 245.5 334.8 246.5 335.3 C 247.4 335.9 247.8 336.4 248.1 337.3 C 247.7 340.1 246.3 340.9 243.9 340.5 C 238.6 339.6 233.6 341.1 228 342 C 227.3 342.1 227 342 226.4 341.9 z"></path>
<path fill="#c6d2da" opacity="1.000000" stroke="#c6d2da" d="M 248.4 337.8 C 247.7 337.3 247.4 336.9 246.9 336.4 C 247 335.9 247.3 335.7 248 335.7 C 249.9 336.3 251.3 336.9 252 338.7 C 250.5 339.7 249.8 338.4 248.4 337.8 z"></path>
<path fill="#fefefe" opacity="1.000000" stroke="#fefefe" d="M 234 345.6 C 233.5 345.8 232.9 345.7 232.2 345.3 C 232.7 345.2 233.3 345.3 234 345.6 z"></path>
<path fill="#c6d2da" opacity="1.000000" stroke="#c6d2da" d="M 251.9 339.4 C 252.3 339.2 252.7 339.3 253 339.7 C 252.6 339.9 252.2 339.8 251.9 339.4 z"></path>
<path fill="#e3dcce" opacity="1.000000" stroke="#e3dcce" d="M 597.3 600.2 C 597.2 600 597.3 599.7 597.6 599.2 C 597.7 599.4 597.6 599.7 597.3 600.2 z"></path>
<path fill="#d8c7b7" opacity="1.000000" stroke="#d8c7b7" d="M 654 330.3 C 660.9 332.4 667.1 336.4 673.6 339.7 C 701.6 354.2 729.7 368.5 757.8 383 C 764.3 386.3 770.5 390.1 777.6 393 C 778 393 778 393.4 778 394 C 771 400.9 762.7 405.2 755.3 410.8 C 750.8 414.2 746.4 417.8 740.5 420 C 739.1 417.7 737.6 416.2 736.1 414.6 C 726.5 405 716.6 395.6 707.3 385.6 C 690.8 367.8 673.3 351.2 656.3 333.8 C 655.4 332.9 654.8 331.7 654 330.3 z"></path>
<path fill="#cbbaaa" opacity="1.000000" stroke="#cbbaaa" d="M 778.1 393.9 C 782.3 398.8 784.7 404.9 787.9 410.5 C 796.4 425.3 804.6 440.3 813 455.6 C 813.2 456.1 813.3 456.3 813.4 456.9 C 810.9 460.9 807.6 463.6 804.5 466.6 C 798.4 472.4 793 478.8 787 485.3 C 786.3 486.1 785.8 486.7 784.8 487.2 C 784.2 487.2 783.9 487.1 783.5 486.7 C 782.8 485.3 782.6 484.1 782.6 482.6 C 780.9 467.8 780.5 453.3 779.4 438.9 C 778.5 426 777.7 413.1 777.1 400.2 C 777 398.4 776.6 396.6 777.8 394.4 C 778 394 778 393.9 778.1 393.9 z"></path>
<path fill="#dfd6ca" opacity="1.000000" stroke="#dfd6ca" d="M 813 457.3 C 813 456.8 813 456.6 813.1 456.2 C 822.7 452.2 832.9 450.6 842.8 448.1 C 862.4 443 882 438.3 901.8 433.2 C 902.5 432.9 902.9 432.9 903.7 432.9 C 903.4 433.7 902.8 434.6 902.1 435.7 C 893.1 438.9 885 443.5 876.5 447.3 C 869.4 450.5 862.4 454 855.2 457.7 C 852.9 460.4 849.9 461 847.1 461.9 C 838.7 464.7 830.8 469.1 821.7 471 C 816 468.1 815.1 462.5 813 457.3 z"></path>
<path fill="#be9a85" opacity="1.000000" stroke="#be9a85" d="M 841 507 C 851.4 517.9 863 527.6 873.8 538 C 880.6 544.4 887.4 551 894.3 557.8 C 894.3 558.3 894.1 558.5 893.5 558.7 C 891.9 559 890.8 558.7 889.8 558.2 C 878.9 552.6 867.7 547.7 856.9 541.1 C 849.9 537 843.1 533.3 836.2 529.6 C 829 525.6 822.7 520.7 816.1 515.3 C 815.7 514.9 815.5 514.8 814.9 514.1 C 814.2 513.4 814 513.3 813.4 512.6 C 808.5 508.4 804.4 504.4 800 500.7 C 798.4 499.4 796.5 498.2 796.8 495.4 C 798.5 493.8 800.1 494.4 801.7 494.8 C 813.2 498 824.9 500.6 836.3 504 C 837.9 504.4 839.6 504.8 840.8 506.7 C 841 507 841 507 841 507 z"></path>
<path fill="#e9e5dd" opacity="1.000000" stroke="#e9e5dd" d="M 911 584.6 C 897.9 583.7 885.1 580.4 872.3 577.6 C 871 577.3 869.7 576.9 868.2 576.3 C 867.8 575.2 867.4 574.4 867.4 573.2 C 867.5 571.9 868.1 571.2 869 570.4 C 869.5 570.1 869.7 570 870.2 569.7 C 870.7 569.4 870.9 569.3 871.4 569.1 C 879.3 566.1 886 561.7 893.6 558.3 C 893.9 558.1 894.2 558.2 894.3 558.2 C 895.1 558.1 895.7 558.1 896.7 558 C 895.4 561.2 897.5 563.3 899.1 565.6 C 903.2 571.7 908.7 577 911 584.6 z"></path>
<path fill="#eeece4" opacity="1.000000" stroke="#eeece4" d="M 820.6 470.3 C 829.5 468.6 837 463.7 845.4 461.2 C 848.4 460.4 851.3 459.1 854.6 458 C 854.7 459.7 854.3 461.5 854 463.6 C 848.7 477.1 845 490.7 841 504.6 C 838.5 506.2 837.8 504 837 502.6 C 831.3 492.8 825.9 482.9 820.5 472.6 C 820.3 471.7 820.3 471.2 820.6 470.3 z"></path>
<path fill="#d8c7b7" opacity="1.000000" stroke="#d8c7b7" d="M 820.5 471.7 C 826 478.9 829.2 486.9 833.6 494.2 C 835.8 497.8 837.3 501.8 840.6 504.9 C 841 505.4 841 505.9 841 506.7 C 826.7 502.3 812 498.7 797.1 495.9 C 791.3 495.5 788 491.5 784.9 487.2 C 785.2 486.4 785.3 485.9 785.7 485.2 C 795.3 480.5 804.9 476.4 814.6 472.3 C 816.4 471.6 818.2 470.5 820.5 471.7 z"></path>
<path fill="#d4a787" opacity="1.000000" stroke="#d4a787" d="M 1082.8 572.2 C 1074.9 571.1 1068.4 567.1 1061.7 564 C 1039.4 553.8 1017.2 543.2 995.3 531.1 C 996.7 529.1 998.4 530.4 1000 530.9 C 1028.8 539.8 1058.1 546.9 1087.1 555 C 1089.2 555.6 1091.2 556.3 1093.6 557 C 1095 558.2 1094.9 559.5 1094.1 560.6 C 1091.1 565.1 1088 569.5 1082.8 572.2 z"></path>
<path fill="#c29178" opacity="1.000000" stroke="#c29178" d="M 1082.7 572.4 C 1086.7 567.6 1091.8 563.9 1094 557.4 C 1094.2 557 1094.4 557 1094.8 557 C 1095 557 1095.5 557 1095.7 557.1 C 1096.1 557.4 1096.3 557.6 1096.8 557.9 C 1105.4 565.9 1113.8 573.8 1122.9 581.4 C 1109.5 579.1 1096.1 576.7 1082.7 572.4 z"></path>
<path fill="#f0efea" opacity="1.000000" stroke="#f0efea" d="M 604.1 410.3 C 622 410 640 410 658.5 410 C 659 410 659 410 659 410 C 660.3 411.5 660.6 413.3 660.5 415.2 C 660 437.9 662.5 460.6 661.5 483.9 C 661.6 485.3 661.6 486.3 661.5 487.7 C 661.3 493.1 662 498.1 660.9 503.4 C 660.8 503.9 660.4 504 660.2 504 C 657.6 504.4 657 502.4 656.1 500.9 C 639.3 473 622.4 445.1 606.2 416.9 C 605.4 415.6 604.7 414.3 604.9 412.4 C 604.7 411.5 604.5 411 604.1 410.3 z"></path>
<path fill="#dacdbd" opacity="1.000000" stroke="#dacdbd" d="M 604.8 412.1 C 618.5 436.3 632.9 460.1 647.3 483.9 C 651.3 490.5 655.3 497.1 659.7 503.9 C 658.8 508 656.2 505.2 654.8 504.7 C 642.4 499.9 630.2 494.9 617.9 490 C 615.9 489.2 613.8 488.6 611.4 488 C 607.7 485.3 608.4 481.3 608.1 477.8 C 606.6 456.4 604.6 435.1 603.8 413.3 C 604.1 412.6 604.3 412.4 604.8 412.1 z"></path>
<path fill="#d8c7b7" opacity="1.000000" stroke="#d8c7b7" d="M 603.7 413.2 C 606.8 422.4 606 432.2 606.9 441.9 C 608.3 456.2 609.1 470.5 610.1 484.8 C 610.2 485.6 610.6 486.4 610.9 487.6 C 611 488 610.6 488 610.4 488 C 603.6 491.7 596.3 493.5 588.8 495.8 C 588.1 495.7 587.9 495.6 587.3 495.3 C 585.9 488.6 581.7 483.5 579.1 477.3 C 586.6 457.2 594.2 437.3 601.7 417.5 C 602.3 416.1 602.9 414.7 603.7 413.2 z"></path>
<path fill="#9c7f73" opacity="1.000000" stroke="#9c7f73" d="M 586.9 495.2 C 587 495 587.4 495.1 587.7 495.1 C 589.7 496.9 589.6 499.3 589.6 501.6 C 589.6 521.3 589.6 541 589.6 560.7 C 589.6 564.3 588.9 567.6 588.4 571.5 C 586.4 580.7 588.2 580.3 579 581 C 577.3 579.4 576.6 577.6 576.5 575.6 C 576.3 567.4 576.8 559.1 575.6 550.9 C 575.4 549.4 575.7 547.9 576.8 546.3 C 579 538.4 578.7 530.6 580 523 C 581.4 514.6 582.8 506.2 584.3 497.7 C 584.4 497.2 585.2 496.7 585.9 496 C 586.5 495.8 586.7 495.6 586.9 495.2 z"></path>
<path fill="#f0efea" opacity="1.000000" stroke="#f0efea" d="M 349.4 307.1 C 348.8 306.5 348.7 305.7 348.5 305.6 C 341.4 304.9 342.2 299.8 341.9 294.7 C 341.2 283.6 340.2 272.6 338.5 261.7 C 338 258.8 339.8 256.8 339.1 254.1 C 338.5 253 338.9 252.2 339.8 251.4 C 340 251.2 340.5 250.9 340.7 250.8 C 341.1 253.8 344.1 253.9 345.8 255.2 C 367.9 272.4 389.8 289.7 411.8 307 C 419.3 312.9 426.6 319.1 434.7 324.9 C 436 325.5 436.8 326.2 437 327.7 C 421.6 324.3 406.2 320.5 390.7 316.8 C 377.1 313.5 363.4 310.4 349.4 307.1 z"></path>
<path fill="#c4b1a0" opacity="1.000000" stroke="#c4b1a0" d="M 659.8 410.3 C 661.3 410.9 662.7 411.1 664.6 411.1 C 668.4 414.9 673.2 416.5 677.6 418.8 C 691.6 426.1 705.7 433.2 719.8 440.4 C 727.8 444.4 734.6 449.1 739.4 456.7 C 740.3 458.3 741.6 459.7 743 461.4 C 745.4 468 744.2 474.5 744 480.9 C 744 483 742.4 483.6 740.5 483 C 739.2 482.5 738 482 736.8 481.4 C 724.8 475.2 712.6 469.7 700.7 462.6 C 700.1 462.3 699.9 462.2 699.3 461.9 C 698.8 461.6 698.6 461.4 698.1 461 C 697.7 460.6 697.5 460.4 697.1 460 C 685.5 444.9 673.8 430.4 662.3 415.7 C 661.1 414.2 659.5 412.8 659.8 410.3 z"></path>
<path fill="#dfd6ca" opacity="1.000000" stroke="#dfd6ca" d="M 659.8 410 C 663.3 416.8 668.9 421.8 673.3 427.7 C 681.3 438.4 689.7 448.8 698 459.6 C 697.8 461.4 696.7 462.2 695.6 463 C 684.7 469.8 673.8 476.6 663.4 484.1 C 662.6 484.7 661.7 485.2 660.4 485.1 C 659.7 460.3 659.3 435.6 659 410.5 C 659.2 410 659.4 410 659.8 410 z"></path>
<path fill="#cbbaaa" opacity="1.000000" stroke="#cbbaaa" d="M 742.3 461.7 C 740.5 460 738.9 458.1 737.5 456.1 C 733.3 450.1 728 445.8 721.3 442.5 C 702.8 433.4 684.6 423.7 666.4 414.1 C 665.7 413.7 662.8 414 664.8 411.3 C 677.7 412.6 690.5 414.1 703.2 415.6 C 715.2 417 727.1 418.5 739.5 419.9 C 739.9 419.8 740 420 740 420.1 C 740.6 420.6 740.9 421.1 741.2 422.2 C 742.9 433.3 743.1 444.2 743.5 455 C 743.6 457.1 743.7 459.3 742.3 461.7 z"></path>
<path fill="#d8c7b7" opacity="1.000000" stroke="#d8c7b7" d="M 652.1 329 C 652.5 329 653.1 329.2 653.8 329.7 C 653.4 329.8 652.8 329.6 652.1 329 z"></path>
<path fill="#e9e5dd" opacity="1.000000" stroke="#e9e5dd" d="M 289.2 250.3 C 288.9 252.5 289.3 254.3 290.6 256.3 C 299.2 269.2 307.5 282.3 316 295.6 C 307 295.4 298.7 291.7 290 289.7 C 278.1 287 266.4 283.3 254.5 280.1 C 253.6 279.8 252.5 279.9 252 278.4 C 262.3 268.5 273 259.4 284.8 251.2 C 286.1 250.3 287.3 250.6 288.8 250.4 C 289.2 250.3 289.2 250.4 289.2 250.3 z"></path>
<path fill="#b09685" opacity="1.000000" stroke="#b09685" d="M 252.2 328.6 C 245.6 326.1 239.3 322.8 232.7 320.3 C 229 319 225.1 319.7 221.6 318.4 C 220.7 318.1 219.2 318.1 219.6 316.8 C 219.9 315.8 221.3 316.1 222.6 315.9 C 231.5 315 240.1 314.3 248.6 313.1 C 256 312 262.6 314.7 269.9 317 C 271 317 271.4 317 272.1 317.1 C 272.6 317.2 272.7 317.3 273.2 317.5 C 274.1 317.8 274.6 318 275.5 318.2 C 276 318.4 276.2 318.5 276.7 318.8 C 277.8 319.6 278.7 320.2 279.2 321.6 C 272 323.3 264.9 324.7 257.7 326 C 255.7 326.3 253.9 326.7 252.2 328.6 z"></path>
<path fill="#be9a85" opacity="1.000000" stroke="#be9a85" d="M 331.6 306 C 331.8 307.9 330.4 307.7 329.1 308.1 C 313.4 312.7 297.5 316.3 281.2 320 C 279.2 321.1 278 319.7 276.3 319.2 C 276 319 276 319 276 319 C 275.3 318.2 274.3 318.6 273.3 318.2 C 273 318 273 318 273 318 C 272.3 317.2 271.3 317.6 270.2 317.2 C 270 317 270 317 270 317 C 268.7 313.9 265.1 314.6 262.4 312.1 C 285.7 310.4 308.3 307.2 331.6 306 z"></path>
<path fill="#dacdbd" opacity="1.000000" stroke="#dacdbd" d="M 211.1 303.3 C 211.1 303.1 211.3 303.1 211.8 303.1 C 211.8 303.2 211.5 303.3 211.1 303.3 z"></path>
<path fill="#f6f5f0" opacity="1.000000" stroke="#f6f5f0" d="M 289 250.2 C 288.1 250.5 287 250.8 285.5 251 C 285.4 250.6 285.7 250.3 286.4 249.7 C 287.4 249.7 288.1 249.8 289 250.2 z"></path>
<path fill="#55454a" opacity="1.000000" stroke="#55454a" d="M 340 250.8 C 339.7 251.9 339.3 252.6 338.9 253.6 C 337.5 254.9 336.2 256 334.6 257 C 329.7 257.2 325.1 258.9 320.6 256.9 C 319.2 256.3 317.7 256 316.7 254.8 C 315.8 253.8 314.9 252.6 315.3 251.2 C 315.9 249.5 317.5 250.1 318.8 250 C 322.9 250 327.1 250 331.2 250 C 333.4 250 335.4 250 337.3 248.4 C 340.3 245.8 339.7 248.9 340 250.8 z"></path>
<path fill="#eeece4" opacity="1.000000" stroke="#eeece4" d="M 329.7 235 C 329.1 237.7 327.7 239.1 325.1 238.6 C 323.7 238.4 322.6 237.3 322.1 235.8 C 321.6 233.9 322.5 232.4 323.9 231.6 C 327.2 229.8 328.7 231.9 329.7 235 z"></path>
<path fill="#e3dcce" opacity="1.000000" stroke="#e3dcce" d="M 276 319.3 C 277.5 318.6 278.7 319.6 280.4 320 C 282.5 321.3 284.3 322.5 286 324.1 C 284 323.7 281.9 322.9 279.5 322 C 278.1 321.2 277.1 320.4 276 319.3 z"></path>
<path fill="#e3dcce" opacity="1.000000" stroke="#e3dcce" d="M 242.1 332.7 C 240.9 332.7 239.8 332.3 238.4 331.8 C 236.1 330.3 234.3 329 232.2 327.4 C 232 326.7 232 326.2 232 325.4 C 232.4 324.7 232.8 324.6 233.6 324.9 C 235.8 328.5 240.8 328.3 242.1 332.7 z"></path>
<path fill="#be9a85" opacity="1.000000" stroke="#be9a85" d="M 234.1 324.9 C 233.4 325.1 233 325.1 232.3 325.1 C 230.3 323.9 228.1 323.3 226.7 321.1 C 229.8 320.6 232.3 321.7 234.9 323.5 C 234.8 324.1 234.6 324.4 234.1 324.9 z"></path>
<path fill="#927671" opacity="1.000000" stroke="#927671" d="M 249.9 330.7 C 249.5 330.8 248.9 330.6 248.2 330.1 C 248.6 330 249.2 330.2 249.9 330.7 z"></path>
<path fill="#927671" opacity="1.000000" stroke="#927671" d="M 252.2 331.7 C 251.8 331.8 251.1 331.7 250.2 331.2 C 250.7 331.1 251.3 331.3 252.2 331.7 z"></path>
<path fill="#9c7f73" opacity="1.000000" stroke="#9c7f73" d="M 742.3 462.3 C 742.2 448.9 741 435.9 740.2 422.5 C 743.2 420.7 743.9 423.4 745 425 C 749.2 430.8 753 436.8 756.8 442.8 C 765.4 456.2 774.7 469.1 783.5 482.8 C 783.8 484.1 783.9 485.1 784 486.4 C 784.3 489 782.7 489.2 780.8 489.3 C 774.4 486.6 767.9 487.3 761.7 486.6 C 758.1 486.2 754.4 486.7 750.7 486 C 747 485.3 745.5 486.8 745.5 490.5 C 745.5 499.3 745.6 508.1 745.5 517 C 745.5 519.3 745.8 521.6 744.2 524.1 C 714.5 521.3 685.2 518.2 655.4 515.1 C 656.3 511.1 660.8 509 660.8 504.2 C 660.5 498.9 660.2 493.9 660 488.5 C 667 488.9 672.7 492.9 679 495.4 C 699.1 503.1 718.6 512.6 738.8 520 C 726.9 505 715 489.8 703 474.7 C 699.8 470.8 697.7 466.7 698.8 461.2 C 702.4 461 704.6 463.5 707.4 464.9 C 719 470.8 730.6 476.8 742.5 482.9 C 742.5 475.7 742.5 469.1 742.3 462.3 z"></path>
<path fill="#695152" opacity="1.000000" stroke="#695152" d="M 780.7 489.2 C 781.9 488.5 782.8 488 783.9 487.1 C 784 486.8 784.5 486.9 784.8 486.9 C 788.2 490.6 792.6 492.8 796.7 496 C 802.6 501.2 808.2 506.2 814 511.6 C 809.8 515 809.8 515.2 813.6 519.2 C 815.7 521.3 817.9 523.4 819.2 526.2 C 821.9 531.7 819.8 535.3 813.9 536.5 C 808.3 537.7 802.9 537 797.7 535.7 C 791.5 534.3 785.6 536.4 779.2 536.3 C 778.8 536.2 778.9 536.1 778.9 536.2 C 778.4 535.1 777.3 535.6 776.2 535.3 C 775.8 535.1 775.9 535.1 775.9 535.2 C 774.7 533.7 772.7 533.8 770.7 533.2 C 770.3 533.2 770.2 533.3 770.2 533.3 C 769.6 532.5 768.8 532.5 767.7 532.2 C 767.3 532.2 767.2 532.3 767.1 532.2 C 765.2 530.6 762.9 530.3 760.3 529.8 C 755.3 528.3 750.5 526.7 745.4 525 C 743.9 523.2 745.1 522 746.1 521.1 C 757.2 510.8 768.3 500.5 779 490 C 779.4 489.6 779.9 489.4 780.7 489.2 z"></path>
<path fill="#614a4e" opacity="1.000000" stroke="#614a4e" d="M 779.1 536.4 C 781.2 535.9 783.4 535.5 785.7 534.1 C 789.2 532.1 793.4 534 797.2 534.3 C 802.7 534.8 808 536.4 813.7 535.1 C 819.1 534 820.7 531.3 817.9 526.4 C 816.1 523.1 813.2 520.9 810.7 518.2 C 809.5 516.9 807.9 515.4 808.5 513.5 C 809.2 511.4 811.6 512.2 813.7 511.9 C 814.1 511.9 814.1 511.9 814.1 511.9 C 814.2 512.2 814.4 512.5 814.9 512.8 C 815.1 512.9 815 513 815 512.9 C 815.2 513.2 815.5 513.5 816.1 513.8 C 826.8 523.7 839.4 530 851.8 536.9 C 853.3 537.8 854.9 538.6 856.7 539.8 C 853.8 545.9 847.7 544.7 842.6 545.8 C 843 548.1 844.7 548.3 846.1 548.5 C 850.3 548.9 853.7 551.2 856.2 554.2 C 859.6 558.4 863.6 561.7 868.2 564.4 C 870.2 565.5 872.4 566.8 871.7 570.1 C 871.7 570.5 871.4 570.6 871.3 570.5 C 870.8 570.3 870.5 570.4 870.1 571 C 869.3 571.6 868.8 571.9 868 572.5 C 865 576.2 861 574.9 857.7 574.4 C 849.4 573.1 841.2 573.5 832.5 573.5 C 828 572.6 824.9 569.6 821.1 567.6 C 830.1 565.1 837.9 559.9 846.4 555.9 C 823 552.9 801.4 543.9 779.1 536.4 z"></path>
<path fill="#927671" opacity="1.000000" stroke="#927671" d="M 781 488.7 C 770.8 500.6 759 510.4 748 521 C 746.9 522 745.5 522.7 745 524.6 C 745 524.9 744.6 524.9 744.6 524.9 C 744.6 524.9 744.1 524.8 744 524.6 C 743.9 512.6 744.2 500.8 743.9 489 C 743.8 484.6 745.5 483.4 749.4 484.1 C 758.1 485.6 766.9 484.9 775.6 486 C 777.6 486.2 780.1 485.4 781 488.7 z"></path>
<path fill="#614a4e" opacity="1.000000" stroke="#614a4e" d="M 810.5 565 C 806.8 566.6 802.5 566.5 798.2 564.8 C 802.1 564.6 806.1 564.8 810.5 565 z"></path>
<path fill="#614a4e" opacity="1.000000" stroke="#614a4e" d="M 760.4 530.1 C 762.8 528.2 764.8 529.9 766.9 531.9 C 764.9 531.5 762.8 530.9 760.4 530.1 z"></path>
<path fill="#614a4e" opacity="1.000000" stroke="#614a4e" d="M 770.6 533.5 C 772.2 533.1 774.3 532.4 775.8 534.8 C 774.2 534.7 772.5 534.3 770.6 533.5 z"></path>
<path fill="#614a4e" opacity="1.000000" stroke="#614a4e" d="M 776.1 535.4 C 776.8 535.1 777.8 534.8 778.8 535.9 C 778 536 777.2 535.8 776.1 535.4 z"></path>
<path fill="#614a4e" opacity="1.000000" stroke="#614a4e" d="M 767.6 532.5 C 768.1 532.3 768.9 532.5 769.9 532.9 C 769.3 533.1 768.6 532.9 767.6 532.5 z"></path>
<path fill="#614a4e" opacity="1.000000" stroke="#614a4e" d="M 819.4 566.6 C 819 566.8 818.1 567.4 817.9 566.2 C 818.4 566.1 818.8 566.2 819.4 566.6 z"></path>
<path fill="#c4b1a0" opacity="1.000000" stroke="#c4b1a0" d="M 588.6 571.9 C 586 570.1 588.1 567.7 588.1 565.7 C 587.9 542.5 587.9 519.2 587.9 495.6 C 595.1 492.9 601.9 489.6 609.8 488 C 608.7 499.5 604.7 510.4 602 521.6 C 598.6 535.6 594.8 549.4 591.1 563.7 C 591.4 565 591 565.7 590.4 566.7 C 589.8 568.1 589.5 569.2 589.2 570.7 C 589.1 571.3 588.9 571.5 588.6 571.9 z"></path>
<path fill="#eae4d8" opacity="1.000000" stroke="#eae4d8" d="M 590.5 566.9 C 590.4 566.2 590.6 565.4 591 564.3 C 592.2 565.1 592.4 566.1 590.5 566.9 z"></path>
<path fill="#eae4d8" opacity="1.000000" stroke="#eae4d8" d="M 831.9 573.6 C 839.8 570.7 847.6 573.4 855.3 573.6 C 859.2 573.6 863.2 574.6 867.5 572.8 C 868.1 573.7 869.2 574.5 868.2 575.8 C 865.9 575.9 863.8 575.4 861.4 576 C 854 574 847 572.9 839.8 575.3 C 837 576.3 836.3 579 834.1 580.5 C 832 581.8 830.2 583.6 828.1 585.4 C 827.6 585.7 827.3 585.9 827 586 C 825.2 586.5 823.1 588.8 821.7 587.4 C 819.8 585.6 822.8 583.7 823.1 581.4 C 824.1 580.5 824.8 579.7 824.9 578.2 C 824.9 577.9 824.9 578 824.9 577.9 C 825.1 577.8 825.3 577.7 825.7 577.3 C 827.9 576 829.9 575 831.9 573.6 z"></path>
<path fill="#e0c3a9" opacity="1.000000" stroke="#e0c3a9" d="M 825.7 577.1 C 825.9 577.4 825.7 577.6 825.2 577.9 C 825.1 577.7 825.3 577.4 825.7 577.1 z"></path>
<path fill="#55454a" opacity="1.000000" stroke="#55454a" d="M 572.7 580.6 C 574 580.8 575 581 576.4 581.1 C 568.7 582.7 560.4 582.3 552.2 582.8 C 544.8 583.3 537.3 583.3 529.5 583.4 C 531 580.6 533.8 582.5 536.5 581.9 C 538.4 582 539.9 581.9 541.4 582 C 544.2 582.3 545.1 581 545 578.3 C 545 574.8 545.7 571.5 547.7 568.2 C 546 580.9 546 580.9 559.2 580.6 C 563.2 580.6 567.1 580.7 571.6 580.6 C 572.1 580.5 572.5 580.6 572.7 580.6 z"></path>
<path fill="#55454a" opacity="1.000000" stroke="#55454a" d="M 548.9 566.2 C 548.9 566.6 548.7 567.1 548.3 567.9 C 548.2 567.5 548.4 566.9 548.9 566.2 z"></path>
<path fill="#55454a" opacity="1.000000" stroke="#55454a" d="M 550.1 564.2 C 550.1 564.7 549.9 565.2 549.4 566 C 549.3 565.5 549.5 564.9 550.1 564.2 z"></path>
<path fill="#d4a787" opacity="1.000000" stroke="#d4a787" d="M 526 587 C 526.1 587 526.2 586.9 526.1 586.9 C 526 587 526 587 526 587 z"></path>
<path fill="#8fa3b0" opacity="1.000000" stroke="#8fa3b0" d="M 870.8 590.7 C 867.1 591 862.9 591 858.3 591 C 862 589.5 866.3 590.2 870.8 590.7 z"></path>
<path fill="#eae4d8" opacity="1.000000" stroke="#eae4d8" d="M 859.5 577 C 859.6 576.7 860 576.4 860.7 576.1 C 860.6 576.3 860.1 576.6 859.5 577 z"></path>
<path fill="#e3dcce" opacity="1.000000" stroke="#e3dcce" d="M 248.2 335.6 C 248.2 335.9 247.9 336 247.2 336.1 C 245.9 335.6 245 335.1 244 334.3 C 245.6 333.4 246.8 334.3 248.2 335.6 z"></path>
<path fill="#e3dcce" opacity="1.000000" stroke="#e3dcce" d="M 243.9 333.7 C 243.4 333.9 242.8 333.7 242.1 333.3 C 242.7 332.7 243.3 332.8 243.9 333.7 z"></path>
<path fill="#aa8c7c" opacity="1.000000" stroke="#aa8c7c" d="M 783.8 482.6 C 778.9 479.9 776.7 474.5 773.6 470 C 763.1 454.5 752.9 438.8 742.5 423.2 C 742.2 422.7 741.4 422.5 740.6 422.1 C 740.2 421.6 740.1 421.2 740.1 420.5 C 752.5 411.5 764.9 402.9 777.7 394.1 C 779.3 416.2 780.4 438.3 782.2 460.4 C 782.8 467.7 782.4 475 783.8 482.6 z"></path>
<path fill="#be9a85" opacity="1.000000" stroke="#be9a85" d="M 820.8 471.7 C 813.5 473 807.4 477.1 800.7 479.7 C 795.9 481.5 791.4 484.3 786.1 485.3 C 794.1 475.1 803.2 466.1 812.7 457.1 C 815.4 461.2 817.8 465.4 820.5 469.8 C 820.8 470.5 820.8 470.9 820.8 471.7 z"></path>
<path fill="#55454a" opacity="1.000000" stroke="#55454a" d="M 872 570.4 C 871.1 568.4 870 566.6 867.9 565.6 C 862.8 563 858.6 559.5 855.2 554.9 C 852.5 551.2 848 549.9 843.5 549.1 C 842.1 548.9 839.9 548.3 840.3 546 C 840.6 543.9 842.6 543.8 844.3 544 C 848.9 544.7 852.7 542.9 856.6 540.2 C 867.2 545.4 877.4 550.7 887.7 556 C 889.4 556.9 891.3 557.4 893.5 558.1 C 887.6 563.8 879.6 566.3 872 570.4 z"></path>
<path fill="#695152" opacity="1.000000" stroke="#695152" d="M 816.2 513.6 C 816 513.7 815.6 513.6 815.2 513.2 C 815.4 513.1 815.7 513.2 816.2 513.6 z"></path>
<path fill="#695152" opacity="1.000000" stroke="#695152" d="M 815 512.7 C 814.8 512.7 814.5 512.6 814.2 512.1 C 814.3 512.1 814.6 512.3 815 512.7 z"></path>
<path fill="#55454a" opacity="1.000000" stroke="#55454a" d="M 870.2 571.2 C 870.2 570.9 870.4 570.6 870.9 570.3 C 871 570.6 870.7 570.9 870.2 571.2 z"></path>
<path fill="#b09685" opacity="1.000000" stroke="#b09685" d="M 699 461 C 698.8 470 705.4 475.5 710.3 481.7 C 720.6 495 731.1 508.2 741 522.2 C 732.6 518.9 724.1 515.8 715.8 512.3 C 698.1 504.9 680.4 497.3 662.7 489.8 C 662 489.5 661.4 488.8 660.4 488.2 C 660 487.3 660 486.5 660 485.4 C 672.1 476.3 684.8 468.4 697.7 460.1 C 698 460 698.1 460.1 698.1 460.2 C 698.3 460.4 698.4 460.5 698.8 460.8 C 699 461 699 461 699 461 z"></path>
<path fill="#9c7f73" opacity="1.000000" stroke="#9c7f73" d="M 699 460.8 C 698.8 460.9 698.5 460.8 698.2 460.4 C 698.4 460.2 698.7 460.3 699 460.8 z"></path>
<path fill="#e3dcce" opacity="1.000000" stroke="#e3dcce" d="M 270.2 317.3 C 270.9 316.7 271.9 316.8 272.9 317.7 C 272.1 317.9 271.2 317.7 270.2 317.3 z"></path>
<path fill="#e3dcce" opacity="1.000000" stroke="#e3dcce" d="M 273.1 318.3 C 273.9 318.1 274.8 318.3 275.8 318.7 C 275 319.4 274.1 319.2 273.1 318.3 z"></path>
<path fill="#614a4e" opacity="1.000000" stroke="#614a4e" d="M 781.6 534.5 C 781.6 534.5 781.5 534.4 781.6 534.5 z"></path>
<path fill="#eae4d8" opacity="1.000000" stroke="#eae4d8" d="M 572.9 580.5 C 572.9 580.6 572.5 580.8 572.3 580.7 C 572.2 580.2 572.5 580.1 572.9 580.5 z"></path>
</svg>