<svg version="1.1" id="Layer_1" xmlns="http://www.w3.org/2000/svg" xmlns:xlink="http://www.w3.org/1999/xlink" x="0px" y="0px"
	 width="100%" viewBox="0 0 1024 1024" enable-background="new 0 0 1024 1024" xml:space="preserve">
<path fill="#000000" opacity="1.000000" stroke="none" 
	d="
M745.023010,459.034058 
	C741.982605,458.176147 742.710571,456.092621 743.115417,453.839233 
	C750.132996,414.776398 769.763306,382.040649 794.473267,351.947540 
	C816.553650,325.056854 842.682800,302.746674 872.339172,284.553162 
	C896.431763,269.772888 921.996521,258.825348 950.224487,255.078293 
	C955.333496,254.400131 960.609680,254.981705 966.133057,255.836029 
	C914.484070,265.441803 871.217834,290.233887 834.391357,326.902191 
	C851.460205,314.258850 869.559021,303.735443 890.738586,299.674683 
	C911.611145,295.672821 932.323914,296.552979 953.093689,301.909088 
	C892.332581,302.528412 845.859131,330.457977 808.522095,376.168701 
	C813.174316,372.803131 817.687378,369.222412 822.502258,366.108337 
	C846.571167,350.541229 873.080811,342.162476 901.425476,338.438507 
	C921.475098,335.804352 941.504517,334.390137 961.685364,334.940369 
	C969.003296,335.139893 976.314880,335.646942 983.621521,336.132050 
	C985.366211,336.247894 987.318909,336.194733 988.764221,338.123932 
	C987.275696,339.698029 985.365601,339.166290 983.699646,339.138641 
	C944.992920,338.495789 908.141113,347.417542 872.032837,360.462433 
	C848.263123,369.049744 825.938354,380.437225 804.440308,393.652435 
	C791.383789,401.678558 784.361511,414.607147 775.983643,426.727264 
	C834.062439,385.585602 900.181946,379.984955 968.194580,382.266296 
	C886.307312,387.004089 812.687927,412.086029 752.156494,469.726440 
	C753.324646,469.132568 754.500977,468.554047 755.658752,467.940552 
	C756.836304,467.316559 758.026367,466.707855 759.158264,466.007233 
	C778.948608,453.757599 800.558289,449.749084 823.630981,450.425079 
	C854.206909,451.320862 882.390930,460.946014 910.240845,472.226929 
	C912.627686,473.193695 915.118408,474.234375 917.836914,477.229065 
	C911.419067,475.668121 906.137390,474.546906 900.949646,473.091064 
	C885.501587,468.755920 869.696228,466.441406 853.753662,465.530487 
	C819.302795,463.562073 785.552551,466.535950 753.714233,481.416443 
	C747.791260,484.184692 742.251160,487.524109 736.938660,491.276825 
	C732.508179,494.406403 730.657837,499.437256 728.269409,503.932434 
	C704.941833,547.837280 684.838135,593.184021 668.877380,640.277527 
	C659.955444,666.602417 652.648071,693.431213 646.739197,720.615112 
	C646.466370,721.870300 646.456482,723.182678 646.860474,724.773071 
	C663.961365,693.074768 684.884949,664.555969 713.260132,641.792236 
	C671.939819,687.952942 652.943787,743.849609 641.921509,803.257324 
	C648.032715,784.242188 655.232849,765.633545 663.525696,747.493958 
	C681.927063,707.243408 703.078918,668.518311 730.174866,633.371216 
	C763.586731,590.031616 803.597168,553.970703 850.784973,526.045105 
	C851.642822,525.537415 852.518494,525.046265 853.430237,524.649414 
	C853.829102,524.475769 854.340027,524.559509 855.987122,524.440979 
	C756.647034,596.770935 688.738647,689.163513 663.735840,810.268982 
	C687.705750,732.140137 729.139282,663.915771 781.872620,601.105103 
	C782.739563,604.181396 781.071533,605.529358 780.084045,606.984253 
	C761.826294,633.884216 744.503601,661.352234 730.021545,690.503540 
	C713.162598,724.439514 699.499146,759.575623 689.838318,796.292358 
	C686.023926,810.789429 682.641663,825.348694 679.768127,840.038696 
	C679.061462,843.651306 677.313538,845.499023 673.665100,846.102478 
	C666.054749,847.361267 658.666626,849.878967 651.126526,851.139404 
	C646.492004,851.914124 641.293091,849.984436 636.464722,848.793945 
	C624.809265,845.920288 612.905457,844.469238 601.140076,842.242981 
	C572.546387,836.832458 543.677429,833.274841 514.822571,829.768188 
	C493.185455,827.138611 471.407288,825.604370 449.588257,825.061951 
	C448.421997,825.033020 447.254700,825.021118 446.089874,824.961914 
	C439.268646,824.615540 439.410248,824.618042 439.722748,817.794006 
	C440.677765,796.938416 439.098389,776.224976 436.394958,755.542969 
	C434.085175,737.871765 430.046021,720.544189 426.562592,703.110291 
	C424.950714,695.043030 422.238861,687.195557 419.677917,677.999634 
	C417.818817,681.597351 418.191010,684.109192 418.413666,686.424133 
	C420.741760,710.631714 422.218048,734.870789 422.296692,759.206421 
	C422.323090,767.378662 425.412689,775.179260 426.691376,783.233459 
	C428.595062,795.224243 430.796234,807.167419 432.786438,819.144897 
	C433.497314,823.423157 429.600769,827.353638 424.590332,827.193604 
	C416.769318,826.943726 408.952911,826.478333 401.142487,825.979614 
	C363.624054,823.584167 326.670990,827.542969 290.095978,835.784790 
	C283.301666,837.315796 283.129669,837.382263 282.097412,830.739197 
	C278.523773,807.740906 274.769958,784.772705 271.429871,761.734375 
	C269.020569,745.116333 266.536041,728.500122 264.075562,711.884888 
	C260.886749,690.351196 257.882111,668.789734 254.598190,647.270813 
	C252.666885,634.615417 250.331268,622.021851 248.209579,609.395142 
	C247.055328,602.525818 245.638062,595.679443 244.922668,588.762390 
	C243.622177,576.188049 236.917145,565.884399 231.087585,555.315552 
	C216.492844,528.855713 200.119690,503.559967 179.545029,481.239777 
	C155.474396,455.127075 128.553635,432.441681 98.203308,413.899750 
	C96.880020,413.091309 95.090858,412.553558 94.775978,409.339325 
	C151.837601,437.039062 200.884857,472.884949 234.565933,527.446045 
	C226.348389,479.381042 214.948685,431.997314 204.783661,384.327576 
	C208.685242,390.131317 209.780548,396.833496 211.510269,403.321960 
	C219.601868,433.674774 227.893066,463.975983 235.746628,494.390167 
	C241.519379,516.745972 246.762115,539.239380 252.141403,561.695312 
	C252.861176,564.699951 254.205795,567.349426 255.871124,569.809448 
	C269.488892,589.925171 279.417633,611.939514 289.007660,634.118591 
	C290.989624,638.702454 293.352448,643.039673 296.461884,648.673035 
	C292.708588,610.332520 287.628082,573.689819 274.968292,537.827637 
	C277.880859,538.578064 278.445343,540.405762 279.123993,541.948120 
	C287.045380,559.951904 293.608368,578.433105 299.248932,597.287598 
	C308.318329,627.603333 315.339355,658.405212 320.509064,689.565247 
	C323.179199,705.659302 328.778442,720.724854 333.601227,736.072327 
	C339.790009,755.766846 345.292480,775.620728 350.379852,795.628052 
	C349.983765,712.082642 329.917725,632.634094 300.198975,555.067017 
	C321.344574,589.797058 337.239685,626.823364 349.503204,665.502869 
	C361.745392,704.115051 370.180237,743.518677 374.555878,783.805298 
	C374.563324,772.784119 372.598358,761.965820 371.454773,751.070312 
	C369.875305,736.021851 368.439789,720.954895 366.588959,705.939392 
	C364.678192,690.437317 362.012177,675.024475 360.276276,659.505554 
	C357.946442,638.676453 348.306519,620.438110 340.142548,601.771362 
	C317.292542,549.525391 282.968384,505.033203 244.847656,463.213226 
	C243.682724,461.935242 241.949951,460.932343 242.065994,457.464996 
	C286.091553,493.059967 321.928284,534.411255 350.316193,582.671692 
	C340.328064,527.188721 327.676758,472.402130 314.424469,416.784912 
	C317.474579,419.843170 317.581055,419.814331 319.218872,425.862183 
	C329.905945,465.325867 341.278351,504.602112 351.327576,544.241272 
	C356.879883,566.142395 362.999329,587.894409 367.727814,610.007996 
	C369.337189,617.534668 373.855499,624.005249 377.257782,630.830872 
	C386.331848,649.035034 394.449310,667.623657 401.295868,686.774414 
	C402.514069,690.181946 403.931488,693.518311 406.129364,696.722717 
	C406.289490,651.102844 401.342010,606.051941 392.710480,561.285278 
	C396.353302,566.433044 397.712341,572.379639 399.181549,578.219666 
	C404.008179,597.405823 408.608612,616.625122 411.650818,636.224731 
	C412.868591,644.070435 413.478790,652.152771 415.922363,659.729736 
	C418.415924,667.461853 422.080902,674.807312 424.900360,682.444824 
	C433.780701,706.500610 441.004059,731.050598 446.486816,756.109985 
	C447.331268,759.969788 448.526367,763.752869 449.841888,768.615967 
	C451.478149,765.457092 451.598969,763.078979 451.636780,760.666321 
	C452.174805,726.335815 452.284851,692.003662 449.824371,657.736572 
	C448.001740,632.352478 446.359863,606.923340 443.366455,581.664917 
	C440.627930,558.556946 438.194977,535.361694 434.320404,512.426086 
	C431.083405,493.264709 428.848206,473.947510 425.080566,454.873169 
	C423.818726,448.485016 419.989319,443.741028 415.995209,439.072144 
	C395.817749,415.485901 370.247528,399.614838 341.977356,387.672485 
	C335.232361,384.823212 328.404144,382.170258 321.605865,379.447876 
	C316.160217,377.267120 310.629456,375.517944 304.629608,375.967712 
	C303.363831,376.062592 301.938660,376.171539 300.901947,374.277344 
	C309.817444,371.351807 318.659698,369.635864 327.889771,370.441071 
	C366.935242,373.847046 395.460571,394.443665 417.641357,425.397217 
	C418.212128,426.193787 418.783295,426.990051 419.846344,428.472748 
	C419.383392,414.889435 416.278442,403.352356 408.136566,392.875946 
	C386.286102,364.760254 360.852753,340.521973 331.992432,319.773071 
	C316.943359,308.953644 301.048645,299.563477 284.471436,291.298248 
	C280.768677,289.452087 280.804321,289.380585 278.643341,286.541534 
	C283.510162,287.077820 287.470642,289.281342 291.491608,290.965302 
	C319.390594,302.649170 346.361877,316.043854 369.799957,335.550110 
	C387.242737,350.066864 401.949219,366.865448 412.067047,387.650970 
	C412.896057,386.386963 411.914642,385.488800 411.623871,384.566406 
	C398.564728,343.137512 368.761261,316.037781 333.394775,293.981079 
	C298.457092,272.191803 259.888885,261.068451 219.275497,255.751419 
	C198.393051,253.017548 177.569489,251.592682 156.558014,252.650314 
	C156.112701,252.672729 155.649841,252.346191 155.151413,252.166687 
	C161.072922,246.675674 224.915390,245.397369 271.164642,255.357559 
	C310.179901,263.759827 346.040710,278.693359 376.800568,303.343842 
	C364.710754,285.557281 316.958740,254.523239 284.252960,242.813980 
	C248.545319,230.029953 211.743774,226.632385 174.009644,229.958054 
	C174.142746,229.115906 174.275848,228.273773 174.408936,227.431641 
	C241.878159,215.931625 305.801270,222.794327 363.420441,265.709473 
	C362.565125,262.021149 360.385071,260.146362 358.646912,258.070251 
	C342.523407,238.811981 324.040558,222.441696 300.756683,212.317719 
	C285.691956,205.767456 269.854248,202.149719 253.389938,201.307831 
	C224.080902,199.809097 195.735428,205.054535 167.781921,213.223785 
	C166.472000,213.606613 165.026337,214.734726 163.697769,213.045258 
	C163.861298,211.058273 165.641083,211.053299 166.888504,210.427673 
	C191.267838,198.200836 217.136566,190.515320 244.177292,188.156754 
	C287.637390,184.365997 326.226410,196.254623 358.051880,227.162491 
	C359.605011,228.670837 361.313843,230.024490 362.808594,231.585724 
	C364.287720,233.130600 365.587341,234.847336 367.112610,236.663651 
	C364.242249,227.153503 345.104401,199.954559 328.344574,180.937622 
	C313.413513,163.995743 296.506653,149.196106 278.987610,134.951813 
	C285.314880,136.216812 290.058197,140.219757 295.047699,143.545456 
	C333.840088,169.402145 365.141968,202.349625 387.598846,243.317154 
	C399.503510,265.034546 407.358551,288.190887 411.691101,312.719513 
	C415.160919,332.363647 416.571289,351.959717 415.258759,371.791199 
	C414.838684,378.138489 416.701569,384.071106 418.563263,389.842194 
	C423.577698,405.386871 426.168610,421.516510 430.646698,437.174072 
	C431.180695,439.041199 431.168884,441.130493 432.607544,442.772339 
	C434.791199,380.254822 472.933411,346.141968 500.283112,337.343842 
	C489.756989,344.536163 480.042328,352.627441 471.626190,362.191986 
	C463.088806,371.894379 456.774445,382.885895 452.393005,395.137848 
	C462.697266,377.149353 475.420685,361.512146 494.016815,351.620758 
	C512.483704,341.798157 531.798096,338.785431 552.104553,344.712708 
	C549.612671,347.003418 546.540161,346.178619 543.754395,346.676331 
	C529.757507,349.176910 517.716248,355.944580 506.593201,364.224823 
	C492.569733,374.664185 478.995483,385.723145 466.745972,398.275604 
	C464.558136,400.517578 462.623291,403.006317 460.904724,405.817413 
	C478.265778,391.039368 496.545044,377.968628 519.261169,371.088715 
	C518.853149,373.878326 517.061401,374.143280 515.739502,374.805023 
	C485.806854,389.789093 462.672852,411.776886 446.832367,441.371582 
	C443.776093,447.081543 442.298401,452.929504 442.119843,459.470795 
	C441.502289,482.096954 445.190674,504.126404 449.482147,526.236267 
	C455.019501,554.765198 459.830139,583.446594 463.525513,612.300781 
	C464.528870,620.135315 465.368134,628.060547 469.941071,635.129578 
	C473.787018,641.074768 476.331360,647.812012 479.220642,654.449646 
	C479.949921,631.644287 476.762512,609.235107 474.186768,586.736084 
	C471.624878,564.358093 467.704407,542.241150 462.558319,519.114075 
	C466.063721,521.393921 466.506134,523.927490 467.231201,526.208496 
	C476.659668,555.869690 484.006042,585.977295 488.682037,616.815369 
	C491.904266,638.065857 494.495911,659.292969 495.465179,680.762451 
	C496.051697,693.753723 499.873596,706.310608 501.701874,719.147766 
	C504.865234,741.359375 509.805511,763.282349 512.783691,785.565735 
	C510.132782,756.388550 509.051483,727.131042 508.263367,697.874146 
	C507.469299,668.395630 507.227783,638.893616 508.880920,609.425537 
	C510.530121,580.028748 512.888184,550.680420 516.705139,521.483215 
	C520.500427,492.451569 523.814453,463.332520 530.274170,434.632538 
	C517.692688,543.377014 513.936890,651.977356 533.270691,760.588318 
	C534.398682,753.260803 535.692566,746.047546 536.596436,738.785767 
	C541.594299,698.633118 549.125610,658.956909 559.506287,619.861694 
	C567.417542,590.066589 576.838928,560.718079 589.980347,532.761841 
	C595.070435,521.933655 594.941895,510.525787 596.038696,499.163513 
	C596.606323,493.283875 596.506348,487.306915 598.549072,481.588440 
	C601.599670,538.985168 599.540649,596.188232 592.633667,653.436401 
	C608.010315,613.653687 628.342346,576.794312 653.885803,542.704346 
	C617.633423,618.240784 594.840759,697.433472 587.911194,781.126526 
	C588.441040,779.523010 589.006287,777.930237 589.495544,776.314331 
	C602.231567,734.254150 619.171082,693.910217 639.525208,655.009949 
	C650.729553,633.596558 661.854004,612.184998 669.606323,589.208130 
	C670.516235,586.511353 670.604309,586.541077 672.769714,584.610291 
	C674.001648,585.770203 673.267761,587.092102 672.993164,588.300903 
	C672.704346,589.571899 671.917786,590.749023 672.915344,593.464050 
	C687.524109,562.606262 702.963623,533.275452 720.696411,504.493896 
	C715.663025,505.036865 717.204590,502.550781 718.013733,500.438171 
	C721.745850,490.694336 727.393494,482.060822 733.616455,473.780975 
	C737.219482,468.987183 740.979797,464.311584 745.094360,459.094910 
	C753.788269,450.065796 761.023804,440.742645 766.774902,430.295105 
	C758.487000,439.083710 750.713867,448.264679 745.023010,459.034058 
M563.476013,690.907349 
	C562.145996,711.388428 559.750488,731.808960 560.119141,752.405151 
	C577.639526,684.339783 586.781128,614.976990 592.513733,545.077209 
	C590.410706,548.264954 589.830444,551.876282 588.904602,555.385498 
	C582.711304,578.859314 577.218628,602.493652 572.980774,626.400757 
	C569.239807,647.505249 565.436340,668.607422 563.476013,690.907349 
M646.223755,661.450623 
	C643.105164,660.096436 643.123901,663.142578 642.499146,664.485046 
	C639.551697,670.817505 636.769775,677.235779 634.172058,683.720947 
	C616.422180,728.033875 604.737549,774.069763 595.532410,820.790161 
	C594.940552,823.794312 593.716797,826.838623 594.715881,830.142456 
	C596.481506,825.533691 597.791199,820.790405 599.314087,816.116516 
	C609.148865,785.932800 619.845825,756.034241 627.355957,725.110840 
	C632.534973,703.785339 640.813354,683.336304 646.223755,661.450623 
M478.467468,755.819397 
	C479.013519,746.186829 479.311981,736.532593 480.152496,726.925781 
	C482.580658,699.172119 478.630005,672.186157 470.852356,645.622498 
	C470.500336,644.420166 470.369537,642.983337 467.889679,642.157104 
	C471.691284,682.196167 476.638336,721.721497 477.579773,761.546265 
	C477.818848,759.912476 478.057892,758.278748 478.467468,755.819397 
M270.748047,621.803345 
	C269.755157,620.072327 269.419769,617.902039 266.937164,615.930054 
	C270.794769,637.555603 277.869934,657.345093 282.524506,677.744141 
	C281.481720,658.727905 278.763733,640.072876 270.748047,621.803345 
M388.467255,751.968262 
	C386.702393,742.903687 384.937561,733.839050 383.172729,724.774475 
	C382.847900,724.835693 382.523041,724.896973 382.198212,724.958191 
	C386.443268,750.903137 390.688354,776.848083 394.933441,802.793030 
	C394.766968,793.580444 393.833862,784.488281 392.546204,775.446594 
	C391.467010,767.868835 389.973907,760.350037 388.467255,751.968262 
M437.571136,454.563080 
	C432.373962,457.412750 437.376068,460.562500 437.024689,463.554718 
	C439.026367,460.374573 439.089691,459.641968 437.571136,454.563080 
z"/>
<path fill="#000000" opacity="1.000000" stroke="none" 
	d="
M184.312378,723.579041 
	C168.882950,678.008057 147.542755,635.709045 122.614319,595.139954 
	C103.330994,563.757751 82.847710,533.187866 60.508656,503.884613 
	C57.479656,499.911316 54.292671,496.058777 51.222683,492.116150 
	C50.137581,490.722626 48.652592,489.498169 48.833904,485.771271 
	C93.387741,537.100891 134.084717,589.671326 170.016647,645.972046 
	C206.076630,702.473328 233.816467,762.989502 258.314575,825.191833 
	C245.037827,727.419678 215.569366,635.621033 158.311783,552.745239 
	C162.054443,553.724487 163.191086,555.787598 164.497284,557.514526 
	C178.488068,576.011902 190.982269,595.483948 202.195190,615.777466 
	C224.012238,655.262634 241.188202,696.707458 254.710083,739.720459 
	C264.250305,770.067871 271.148865,801.061340 277.883759,832.103027 
	C278.301819,834.029968 278.462830,836.012634 278.714447,837.767090 
	C277.113068,839.832642 275.150024,839.167664 273.429047,839.053406 
	C250.713303,837.545837 228.151459,838.489380 205.822479,843.194092 
	C202.373184,843.920898 200.534149,843.173279 199.282776,839.346619 
	C184.543381,794.274170 164.542023,751.709045 136.723297,713.179443 
	C116.079155,684.586792 92.297729,658.752808 65.196869,636.038208 
	C53.170486,625.958313 40.788372,616.455505 27.058681,608.789001 
	C25.352453,607.836182 23.824795,606.563538 21.462530,604.914185 
	C24.742449,604.390442 26.670624,605.712708 28.636488,606.580383 
	C59.044460,620.002014 85.853951,638.625916 108.592369,662.867004 
	C139.861710,696.202820 168.484024,731.723694 194.962570,768.975098 
	C195.610672,769.886902 196.364426,770.723633 197.998596,772.745728 
	C194.888748,755.039673 189.627045,739.503784 184.312378,723.579041 
z"/>
<path fill="#000000" opacity="1.000000" stroke="none" 
	d="
M877.808594,598.838989 
	C886.466187,589.357117 893.754089,579.109741 903.339172,570.870728 
	C873.741211,609.232666 844.376587,647.705139 819.440247,689.363525 
	C827.783142,682.290833 833.917664,673.133667 841.984802,665.891541 
	C842.372742,666.187134 842.760681,666.482788 843.148621,666.778381 
	C840.589600,670.490234 838.056274,674.220093 835.467651,677.911133 
	C811.138672,712.602478 788.390564,748.207947 772.258057,787.616150 
	C766.071228,802.729248 760.658569,818.123901 756.914917,834.033875 
	C755.680847,839.278687 753.317566,841.275696 747.674438,841.065247 
	C731.861877,840.475708 716.048279,841.121948 700.299133,842.869324 
	C699.843201,842.919922 699.355774,842.687500 697.891785,842.376648 
	C710.448486,806.081116 727.219177,772.141174 748.285583,740.358337 
	C775.851562,698.769409 807.948669,661.138306 846.869080,629.539429 
	C797.197571,682.056030 758.637024,741.325378 735.638550,810.192749 
	C741.480713,799.275146 747.171082,788.273071 753.191589,777.454773 
	C778.252014,732.423340 805.640625,688.932678 837.700256,648.455383 
	C850.834412,631.872681 864.283936,615.556274 877.808594,598.838989 
z"/>
<path fill="#000000" opacity="1.000000" stroke="none" 
	d="
M927.337646,710.366455 
	C887.680908,742.598206 854.412292,780.004639 827.608459,823.128967 
	C823.036926,830.484009 818.386230,837.789856 813.812317,845.143433 
	C812.592957,847.103638 811.364014,848.597168 808.633667,847.853027 
	C793.943665,843.849609 778.794922,842.957520 763.743103,841.483093 
	C759.505432,841.067932 758.697449,839.953552 760.736633,835.908569 
	C783.676392,790.404419 813.317139,749.473755 845.788025,710.436157 
	C872.234070,678.641907 900.660339,648.692139 929.982422,619.569519 
	C936.955017,612.644409 944.041809,605.834106 951.086121,598.981384 
	C952.133545,597.962402 953.102051,596.790833 955.104248,596.406433 
	C954.793640,598.806030 953.278076,600.098022 951.990417,601.472168 
	C927.835693,627.249573 904.780518,653.972717 883.132935,681.890991 
	C851.989075,722.056335 824.340881,764.332153 805.352783,811.784180 
	C804.734802,813.328613 804.116760,814.875305 803.576904,816.447815 
	C803.259583,817.371887 803.096924,818.348999 802.590210,820.429138 
	C817.100891,803.912354 831.460388,788.736572 846.055786,773.782898 
	C880.905518,738.078125 916.735779,703.526001 959.903259,677.691467 
	C973.488831,669.560974 987.517944,662.245544 1002.055664,655.943054 
	C1003.201843,655.446106 1004.395020,654.537964 1006.780273,656.027100 
	C978.007507,671.236328 952.032227,689.578918 927.337646,710.366455 
z"/>
<path fill="#000000" opacity="1.000000" stroke="none" 
	d="
M621.866089,390.114624 
	C618.557556,388.464233 615.604553,386.914429 612.576355,385.528687 
	C609.593567,384.163757 606.534668,382.965088 603.711731,381.039856 
	C621.265564,379.415466 637.193542,384.316895 652.035645,393.302032 
	C666.988770,402.354370 678.694763,414.700378 688.653503,429.271240 
	C687.335999,425.759705 686.197205,422.167236 684.653137,418.758301 
	C682.938293,414.972351 680.913879,411.320831 678.912659,407.671967 
	C677.019836,404.220734 674.982361,400.848785 672.674316,396.865234 
	C682.700928,402.642914 698.375305,431.065826 704.878357,458.293884 
	C714.734314,499.560272 702.457336,535.960571 680.723450,570.364319 
	C678.036316,569.505432 678.675293,567.684753 678.809387,566.419373 
	C680.603760,549.486328 674.079590,535.078247 665.099915,521.497498 
	C647.288208,494.559296 623.828979,473.762787 595.638184,458.174927 
	C594.253357,457.409210 592.434326,457.114838 591.335327,453.869019 
	C621.616577,465.311951 646.671265,482.472290 668.032959,505.386169 
	C664.738708,498.226715 660.216431,491.868958 655.197693,485.816376 
	C649.975464,479.518402 644.351440,473.611267 638.218140,468.202301 
	C632.216003,462.909088 625.898010,458.039764 619.259644,453.536377 
	C612.708740,449.092316 605.394836,445.967041 599.097717,441.116669 
	C621.698303,447.347137 641.120605,459.126526 657.907837,475.360992 
	C674.901001,491.794617 686.721008,511.360565 692.819763,534.232666 
	C694.243286,523.832947 685.347961,492.889771 669.787781,468.689178 
	C656.909607,448.659912 641.617920,430.902771 622.867859,416.137970 
	C652.530884,431.869781 675.732300,454.263733 692.446716,483.525421 
	C690.975830,476.028595 687.771729,469.311615 684.299988,462.774658 
	C673.770081,442.948151 660.617004,424.978271 645.072510,408.787628 
	C638.237549,401.668549 630.553894,395.542053 621.866089,390.114624 
z"/>
<path fill="#000000" opacity="1.000000" stroke="none" 
	d="
M179.959229,834.078369 
	C182.080368,837.602539 184.936890,840.348145 185.455124,844.580322 
	C181.545197,846.579407 177.710464,848.521790 173.893417,850.498291 
	C171.466980,851.754761 170.618942,850.101746 169.799042,848.348267 
	C158.379654,823.926819 143.513351,801.647949 127.009926,780.459106 
	C103.380714,750.121338 77.048508,722.454895 45.566681,700.038269 
	C42.458752,697.825256 39.330471,695.640625 36.237976,693.406311 
	C36.073887,693.287842 36.156338,692.828064 35.959377,690.994629 
	C97.750381,725.641846 142.355484,776.048645 179.959229,834.078369 
z"/>
<path fill="#000000" opacity="1.000000" stroke="none" 
	d="
M723.934143,744.003540 
	C730.426514,732.631653 736.336060,721.332458 744.124695,709.900574 
	C745.124573,713.365906 743.628052,715.088257 742.762329,716.807556 
	C726.196228,749.708557 712.766418,783.860657 701.845703,819.018616 
	C699.873840,825.366699 697.811707,831.691711 696.053040,838.099243 
	C694.865295,842.426331 692.464111,844.696167 687.870911,844.325562 
	C685.901306,844.166626 684.108643,845.740356 681.197754,844.660828 
	C689.933960,808.891357 705.907471,776.218994 723.934143,744.003540 
z"/>
<path fill="#000000" opacity="1.000000" stroke="none" 
	d="
M851.103760,831.028076 
	C847.941284,837.301636 845.000061,843.272278 841.953552,849.188721 
	C837.917908,857.026001 837.306213,857.155151 828.372803,852.023804 
	C852.349121,808.454346 881.479065,768.724548 915.107849,732.245728 
	C915.576904,732.582458 916.045959,732.919189 916.514954,733.255920 
	C908.728394,743.488647 900.938660,753.718994 893.156067,763.954773 
	C885.191101,774.430542 877.801697,785.301453 870.832703,796.461975 
	C863.865662,807.619263 857.128845,818.906799 851.103760,831.028076 
z"/>
<path fill="#000000" opacity="1.000000" stroke="none" 
	d="
M933.801514,811.766479 
	C912.225220,819.331116 892.448364,829.444641 874.573730,843.162048 
	C869.680237,846.917358 864.793213,850.673157 860.589050,855.208557 
	C858.963440,856.962341 857.174133,858.045959 854.870667,857.004883 
	C851.150574,855.323547 847.621033,854.686951 844.177917,857.620728 
	C843.901794,857.856079 843.031311,857.393982 842.375122,857.241699 
	C851.221375,839.580261 920.814941,805.472595 942.088928,808.444702 
	C939.953918,811.266479 936.742493,810.708374 933.801514,811.766479 
z"/>
<path fill="#000000" opacity="1.000000" stroke="none" 
	d="
M98.425522,802.495483 
	C125.547012,812.365051 148.324066,828.089111 167.892929,848.614502 
	C169.175156,849.959473 170.364319,851.742188 168.575531,853.406189 
	C166.728897,855.123901 165.142838,853.539368 163.850754,852.290161 
	C155.827286,844.533508 147.270798,837.410156 138.374115,830.688721 
	C121.414169,817.875549 103.152321,807.467163 82.925301,800.678711 
	C81.466362,800.189026 79.553024,800.231079 78.790138,797.631897 
	C85.752556,797.860229 91.875275,800.237915 98.425522,802.495483 
z"/>
</svg>