<svg width="24" height="24" viewBox="0 0 24 24" fill="none" xmlns="http://www.w3.org/2000/svg">
<g clip-path="url(#clip0_315_1008)">
<path fill-rule="evenodd" clip-rule="evenodd" d="M12 22.5882C6.16094 22.5882 1.41176 17.8391 1.41176 12C1.41176 6.16094 6.16094 1.41176 12 1.41176C17.8391 1.41176 22.5882 6.16094 22.5882 12C22.5882 17.8391 17.8391 22.5882 12 22.5882ZM12 0C5.38306 0 0 5.38306 0 12C0 18.6169 5.38306 24 12 24C18.6169 24 24 18.6169 24 12C24 5.38306 18.6169 0 12 0ZM10.6793 14.4747L7.28824 11.0836L6.29011 12.0817L10.6793 16.4709L18.18 8.97021L17.1819 7.97209L10.6793 14.4747Z" fill="black"/>
</g>
<defs>
<clipPath id="clip0_315_1008">
<rect width="24" height="24" fill="white"/>
</clipPath>
</defs>
</svg>
