<svg width="25" height="25" viewBox="0 0 25 25" fill="none" xmlns="http://www.w3.org/2000/svg">
<path d="M12.067 5.5L20.067 5.5" stroke="#222222" stroke-width="1.5" stroke-linecap="round"/>
<path d="M4.06702 19.5H7.06702" stroke="#222222" stroke-width="1.5" stroke-linecap="round"/>
<path d="M4.06702 5.5H8.06702" stroke="#222222" stroke-width="1.5" stroke-linecap="round"/>
<path d="M11.067 19.5H20.067" stroke="#222222" stroke-width="1.5" stroke-linecap="round"/>
<path d="M17.067 12.5H20.067" stroke="#222222" stroke-width="1.5" stroke-linecap="round"/>
<path d="M4.06702 12.5H13.067" stroke="#222222" stroke-width="1.5" stroke-linecap="round"/>
<path d="M8.06702 5.5C8.06702 6.60457 8.96245 7.5 10.067 7.5C11.1716 7.5 12.067 6.60457 12.067 5.5C12.067 4.39543 11.1716 3.5 10.067 3.5C8.96245 3.5 8.06702 4.39543 8.06702 5.5Z" stroke="#222222" stroke-width="1.5" stroke-linecap="round"/>
<path d="M13.067 12.5C13.067 13.6046 13.9624 14.5 15.067 14.5C16.1716 14.5 17.067 13.6046 17.067 12.5C17.067 11.3954 16.1716 10.5 15.067 10.5C13.9624 10.5 13.067 11.3954 13.067 12.5Z" stroke="#222222" stroke-width="1.5" stroke-linecap="round"/>
<path d="M7.06702 19.5C7.06702 20.6046 7.96245 21.5 9.06702 21.5C10.1716 21.5 11.067 20.6046 11.067 19.5C11.067 18.3954 10.1716 17.5 9.06702 17.5C7.96245 17.5 7.06702 18.3954 7.06702 19.5Z" stroke="#222222" stroke-width="1.5" stroke-linecap="round"/>
</svg>
