<svg width="27" height="22" viewBox="0 0 27 22" fill="none" xmlns="http://www.w3.org/2000/svg">
<path d="M17.2239 0H9.77574C9.15864 0.000686606 8.56702 0.246131 8.13067 0.682484C7.69431 1.11884 7.44887 1.71046 7.44818 2.32756V19.086C7.44887 19.7031 7.69431 20.2947 8.13067 20.731C8.56702 21.1674 9.15864 21.4128 9.77574 21.4135H17.2239C17.841 21.4128 18.4326 21.1674 18.869 20.731C19.3053 20.2947 19.5508 19.7031 19.5515 19.086V2.32756C19.5508 1.71046 19.3053 1.11884 18.869 0.682484C18.4326 0.246131 17.841 0.000686606 17.2239 0ZM18.6205 19.086C18.62 19.4562 18.4728 19.8112 18.211 20.073C17.9492 20.3348 17.5942 20.4821 17.2239 20.4825H9.77574C9.40548 20.4821 9.0505 20.3348 8.78869 20.073C8.52687 19.8112 8.37961 19.4562 8.3792 19.086V2.32756C8.37961 1.9573 8.52687 1.60232 8.78869 1.3405C9.0505 1.07869 9.40548 0.931427 9.77574 0.931023H17.2239C17.5942 0.931427 17.9492 1.07869 18.211 1.3405C18.4728 1.60232 18.62 1.9573 18.6205 2.32756V19.086ZM23.2759 6.05165V15.3619C23.2759 15.4853 23.2269 15.6037 23.1396 15.691C23.0523 15.7783 22.9339 15.8274 22.8104 15.8274C22.6869 15.8274 22.5685 15.7783 22.4812 15.691C22.3939 15.6037 22.3449 15.4853 22.3449 15.3619V6.05165C22.3449 5.92819 22.3939 5.80978 22.4812 5.72248C22.5685 5.63518 22.6869 5.58614 22.8104 5.58614C22.9339 5.58614 23.0523 5.63518 23.1396 5.72248C23.2269 5.80978 23.2759 5.92819 23.2759 6.05165ZM27 7.91369V13.4998C27 13.6233 26.951 13.7417 26.8637 13.829C26.7764 13.9163 26.6579 13.9653 26.5345 13.9653C26.411 13.9653 26.2926 13.9163 26.2053 13.829C26.118 13.7417 26.069 13.6233 26.069 13.4998V7.91369C26.069 7.79023 26.118 7.67183 26.2053 7.58453C26.2926 7.49723 26.411 7.44818 26.5345 7.44818C26.6579 7.44818 26.7764 7.49723 26.8637 7.58453C26.951 7.67183 27 7.79023 27 7.91369ZM4.65511 6.05165V15.3619C4.65511 15.4853 4.60607 15.6037 4.51877 15.691C4.43147 15.7783 4.31306 15.8274 4.1896 15.8274C4.06614 15.8274 3.94774 15.7783 3.86044 15.691C3.77314 15.6037 3.72409 15.4853 3.72409 15.3619V6.05165C3.72409 5.92819 3.77314 5.80978 3.86044 5.72248C3.94774 5.63518 4.06614 5.58614 4.1896 5.58614C4.31306 5.58614 4.43147 5.63518 4.51877 5.72248C4.60607 5.80978 4.65511 5.92819 4.65511 6.05165ZM0.931023 7.91369V13.4998C0.931023 13.6233 0.881978 13.7417 0.794677 13.829C0.707377 13.9163 0.588973 13.9653 0.465511 13.9653C0.34205 13.9653 0.223645 13.9163 0.136345 13.829C0.0490448 13.7417 0 13.6233 0 13.4998V7.91369C0 7.79023 0.0490448 7.67183 0.136345 7.58453C0.223645 7.49723 0.34205 7.44818 0.465511 7.44818C0.588973 7.44818 0.707377 7.49723 0.794677 7.58453C0.881978 7.67183 0.931023 7.79023 0.931023 7.91369Z" fill="black"/>
</svg>
