<svg width="24" height="25" viewBox="0 0 24 25" fill="none" xmlns="http://www.w3.org/2000/svg">
<path d="M12 0.671997C5.37245 0.671997 0 6.04445 0 12.672C0 19.2995 5.37245 24.672 12 24.672C18.6276 24.672 24 19.2995 24 12.672C24 6.04445 18.6276 0.671997 12 0.671997ZM12 23.7122C5.91267 23.7122 0.959784 18.7602 0.959784 12.672C0.959784 6.58376 5.91177 1.63178 12 1.63178C18.0882 1.63178 23.0402 6.58376 23.0402 12.672C23.0402 18.7593 18.0882 23.7122 12 23.7122Z" fill="black"/>
<path d="M11.9594 6.3811C9.52306 6.3811 8.16261 7.88651 8.14551 10.2725H9.20433C9.17102 8.54197 10.0777 7.27246 11.9099 7.27246C13.2199 7.27246 14.3121 8.19623 14.3121 9.54047C14.3121 10.4138 13.8412 11.1197 13.2199 11.7076C11.9432 12.8925 11.5858 13.4498 11.521 15.0732H12.5933C12.6563 13.6011 12.6239 13.6308 13.9087 12.346C14.7659 11.5393 15.37 10.7325 15.37 9.48915C15.37 7.54077 13.8241 6.3811 11.9603 6.3811H11.9594Z" fill="black"/>
<path d="M11.9999 16.9928C11.4705 16.9928 11.0402 17.4223 11.0402 17.9526C11.0402 18.4829 11.4705 18.9124 11.9999 18.9124C12.5294 18.9124 12.9597 18.4829 12.9597 17.9526C12.9597 17.4232 12.5303 16.9928 11.9999 16.9928Z" fill="black"/>
</svg>
