<svg width="22" height="26" viewBox="0 0 22 26" fill="none" xmlns="http://www.w3.org/2000/svg">
<path d="M 21.1 18.5 C 19.6 16.7 18.5 15.8 18.5 10.8 C 18.5 6.2 16.2 4.6 14.3 3.8 C 14 3.7 13.8 3.4 13.7 3.2 C 13.4 2 12.4 1 11.2 1 C 9.9 1 9 2 8.6 3.2 C 8.5 3.4 8.3 3.7 8.1 3.8 C 6.1 4.6 3.8 6.2 3.8 10.8 C 3.8 15.8 2.7 16.7 1.3 18.5 C 0.6 19.3 1.2 20.4 2.3 20.4 H 20.1 C 21.1 20.4 21.7 19.3 21.1 18.5 Z" stroke="black" stroke-width="1.2" stroke-linecap="round" stroke-linejoin="round"/>
<path d="M 14.9 20.4 V 21.3 C 14.9 22.3 14.5 23.2 13.8 23.9 C 13.1 24.6 12.1 25 11.2 25 C 10.2 25 9.2 24.6 8.6 23.9 C 7.9 23.2 7.5 22.3 7.5 21.3 V 20.4" stroke="black" stroke-width="1.2" stroke-linecap="round" stroke-linejoin="round"/>
</svg>
