<svg width="27" height="26" viewBox="0 0 27 26" fill="none" xmlns="http://www.w3.org/2000/svg">
<path d="M12.5434 2.29659C12.8729 1.5575 13.0376 1.18795 13.267 1.07415C13.4663 0.975282 13.7002 0.975282 13.8994 1.07415C14.1288 1.18795 14.2936 1.5575 14.623 2.29659L17.2471 8.18356C17.3446 8.40205 17.3932 8.5113 17.4687 8.59496C17.5353 8.66898 17.6168 8.72819 17.7077 8.76872C17.8106 8.81454 17.9296 8.8271 18.1675 8.8522L24.5773 9.52872C25.382 9.61364 25.7843 9.65611 25.9634 9.8391C26.119 9.99803 26.1913 10.2206 26.1588 10.4407C26.1215 10.694 25.821 10.9648 25.2199 11.5065L20.4318 15.8214C20.2542 15.9815 20.1653 16.0616 20.1091 16.1591C20.0593 16.2455 20.0281 16.3412 20.0177 16.4403C20.0059 16.5523 20.0307 16.6692 20.0804 16.9033L21.4177 23.2083C21.5856 24 21.6696 24.3957 21.5509 24.6226C21.4477 24.8198 21.2585 24.9572 21.0392 24.9944C20.7867 25.0371 20.4362 24.835 19.7353 24.4307L14.152 21.2104C13.9448 21.0909 13.8412 21.0313 13.7311 21.0078C13.6336 20.9871 13.5329 20.9871 13.4354 21.0078C13.3252 21.0313 13.2216 21.0909 13.0144 21.2104L7.43122 24.4307C6.73027 24.835 6.37979 25.0371 6.12733 24.9944C5.90803 24.9572 5.71871 24.8198 5.61563 24.6226C5.49696 24.3957 5.5809 24 5.74881 23.2083L7.08611 16.9033C7.13575 16.6692 7.16056 16.5523 7.14878 16.4403C7.13835 16.3412 7.10723 16.2455 7.05742 16.1591C7.00114 16.0616 6.91229 15.9815 6.73459 15.8214L1.94665 11.5065C1.34555 10.9648 1.04499 10.694 1.00762 10.4407C0.975174 10.2206 1.04748 9.99803 1.20307 9.8391C1.3822 9.65611 1.78456 9.61364 2.58929 9.52872L8.99902 8.8522C9.23692 8.8271 9.35586 8.81454 9.45871 8.76872C9.54971 8.72819 9.6312 8.66898 9.69788 8.59496C9.77323 8.5113 9.82193 8.40205 9.91933 8.18356L12.5434 2.29659Z" stroke="black" stroke-width="1.2" stroke-linecap="round" stroke-linejoin="round"/>
</svg>
