<svg width="24" height="24" viewBox="0 0 24 24" fill="none" xmlns="http://www.w3.org/2000/svg">
<path d="M12 2.19995C10.0617 2.19995 8.16697 2.77471 6.55537 3.85155C4.94377 4.92839 3.68767 6.45894 2.94594 8.24965C2.2042 10.0404 2.01012 12.0108 2.38826 13.9118C2.7664 15.8129 3.69975 17.559 5.07031 18.9296C6.44086 20.3001 8.18706 21.2335 10.0881 21.6116C11.9891 21.9898 13.9595 21.7957 15.7503 21.054C17.541 20.3122 19.0715 19.0561 20.1484 17.4445C21.2252 15.8329 21.8 13.9382 21.8 12C21.7973 9.40164 20.764 6.91051 18.9267 5.07323C17.0894 3.23595 14.5983 2.2026 12 2.19995ZM3.19996 12C3.2026 9.66686 4.13059 7.43008 5.78034 5.78033C7.43009 4.13059 9.66686 3.2026 12 3.19995V20.7999C9.66686 20.7973 7.43009 19.8693 5.78034 18.2196C4.13059 16.5698 3.2026 14.333 3.19996 12Z" fill="black"/>
</svg>
