<svg xmlns="http://www.w3.org/2000/svg" xml:space="preserve" viewBox="0 0 1024 1024"><path fill="#14110e" stroke="#14110e" d="M840.1 868.2c-10 16.7-20.1 33.5-30.5 50.6 0 1.6.3 3.3 1.1 3.7 1.2.6 2.9.3 4.2.7.3 2.2.7 4.1 1.2 5.9-.7.7-1.4 1.3-2.8 2-1.2.6-1.7 1.3-2.3 1.9 0 0 0 .2-.5.2-1.2.6-1.8 1.3-2.5 1.9-11.8 8.4-23.7 16.7-35.7 25.2 4.5 1.5 8.5 2.8 14 4.6-12 3.6-22.3 6.6-33.4 9.8-5.1.8-9.5 2-13.9 2.2-8 .3-16 .1-24.4 0-15.9-3.3-31.4-6.4-46.8-9.9.9-1.2 1.6-2.1 2.7-3 1.8-.3 3.4-.3 4.7-.8 5.7-2.4 11.5-5 17.2-7.5 5.9-2.5 11.7-5.2 17.7-7.7 7.6-3.1 15.2-6 23.3-9 2.7-.1 5.3.5 5.8-3.2.7-.5 1.2-.6 2-.5 4.7 1.4 5.5-2.9 7.8-4.8 9.3-7.7 18.6-15.4 28-22.9 15.5-12.1 31.2-24 46.6-36.1 1.2-.9 1.6-3 2.6-4.7 1 .3 1.9.8 2.8 1.5 1.1.1 2-.1 3.4-.4.6-.8.9-1.6 1.3-2.3 0 0 .2.4.5.3.7 0 1.3.1 1.8.2.2.2.3.3.4.3-.2-.1-.3-.3-.3-.6.3-.6.6-1 .9-1.4 1.1-.5 2.2-.9 3.6-1 0 1.8-.2 3.3-.5 4.8z"/><path fill="#1d1815" stroke="#1d1815" d="M829 868c-.9-.4-1.8-.9-3.2-1.1-2.1.8-3.6 1.8-5.2 1.9-12.5 1.2-25.1 2.2-37.6 2.7 0-1.7 0-3 .2-4.3 1.2-14.8 2.5-29.5 3.8-44.6 1-11.4 2.1-22.4 2.9-33.3.2-1.6-.3-3.6-1.2-4.7-6.8-7.6-13.8-15.1-20.7-22.9-.7-1.5-1.4-2.6-2-4.1.3-6.6.7-12.7 1-18.7.3-4.7.7-9.3 1-14V710c.5-.2 1-.4 1.6-.6 11.7 17.7 23.4 35.4 35.3 53.3 2-4.1 4-8.2 5.9-12.4.5 0 1-.1 1.5-.1 5.4 23 10.8 46.1 16.4 69.8 3.9-2.8 7.6-5.4 12.4-8.7-4.3 19.1-8.4 36.9-12.6 55.2 1.8-.4 3.1-.7 4.7-1 .1.8-.2 1.6-1.1 2.3-1.4.1-2.3.1-3.1.2z"/><path fill="#b8b1aa" stroke="#b8b1aa" d="M285.8 267.7c6.7-10.4 13.4-20.9 20.2-31.2 3.5-5.2 7.6-10.1 11-15.4.9-1.3.9-3.9.2-5.4-7-14.5-14.2-28.9-21.3-43.3-2.2-4.6-4.5-9.2-6.4-14.1 1.5.2 2.8.7 3.7 1.5 7.2 6.7 14.2 13.6 21.5 20.2 2.8 2.6 6.2 4.6 9.6 7.2 1.8 1.7 3.2 3.8 5 4.3 3.1.7 6.5.4 10 .8 4.1 1.2 8 2 11.7 3.3 16.5 5.3 32.9 10.6 49.3 16.1 5.7 2 11.1 4.8 16.5 7.5-1.5.9-2.8 1.5-4.2 2-26.9 10-53.7 20-80.8 30.1-6.3 5.3-12.2 10.5-18.3 15.6-1.2 1-2.8 1.5-4.7 2.2-6.2-.1-11.9 0-17.6-.2-1.8 0-3.6-.8-5.4-1.2z"/><path fill="#a69d99" stroke="#a69d99" d="M729.6 662.9c1.1 3.9 2.5 7.6 3.4 11.5 2.2 8.8 4.1 17.6 6.2 26.4.3 1.1 1.1 2 1.7 3.7 3.1 13.4 6.2 25.9 9.2 38.9.9 18.3 2 36.2 3 54 .1.6.6 1.1 1 2-.1 1.1-.2 1.8-.6 2.6-.7 0-1.1 0-1.6-.3-13.5-13-26.9-25.7-40.1-38.4-7.3-7.1-14.3-14.4-21.6-21.5-1.4-1.3-3.6-1.9-5.4-3.1.4-1.1.7-1.8 1.1-2.7.1-.3.1-.7.4-.9 11.9-19.2 23.7-38.1 35.2-57.2 2.8-4.7 5-9.9 7.6-14.9.2 0 .5-.1.5-.1z"/><path fill="#dfd9d2" stroke="#dfd9d2" d="M231.2 803c.8-7.3 1.6-14.7 2.3-22.1.9-8 1.9-16.1 2.5-24.2 1.1-14.5 4-28.6 7.6-42.6 3.4-13.2 5.7-26.5 8.5-39.8.5-2.7 1.5-5.3 2.8-8.1.7-.2.9-.2 1.2.2 13.7 23.4 27.3 46.5 41 69.9.3.4.6.5 1 1 .1.8.1 1.2-.1 1.7-18.5 17.9-36.6 35.6-54.8 53.3-3.9 3.7-8 7.2-12 10.7z"/><path fill="#6e6966" stroke="#6e6966" d="M319.3 969.8c-4.6-5.6-9-11.4-13.8-16.9-10.1-11.5-20.4-22.8-30.3-34.6 1.1-1.1 2-1.7 3.3-2.3 2-.3 3.6-.4 5.2-.9 10.9-3.3 21.7-7.1 32.7-10.1 21.3-5.8 42.8-11.1 64.2-16.8 1.3-.4 2.3-2.1 3.8-3.2 1.1 1.4 1.9 2.7 2.5 4.4-1.4 2.6-2.5 5-4.1 7.1-6 8.3-12.3 16.4-18.3 24.7-12.1 16.6-24.1 33.2-36.2 49.7-.8 1.1-2.8 1.4-4.5 2.1-.5.1-.7.1-1-.2-1.2-1.2-2.4-2.1-3.5-3z"/><path fill="#f1eadc" stroke="#f1eadc" d="M699 509c.9 5.6 2.2 11.2 2.7 16.9 1.6 15.6 3.8 31.2 4 46.8.2 11.8-2.4 23.7-4 35.9-.8.4-1.3.4-1.9.1-8.9-5.3-17.6-10.4-26.3-15.4-5-2.9-10-5.7-15.1-8.3-6.3-3.2-12.8-6.1-19.2-9.3 0-.2-.1-.6.1-.9.4-.7.7-1.2 1.3-1.7 2.8-2.7 5.4-5.3 7.8-8 9.1-10.3 18-20.8 27.2-31 7.7-8.5 15.6-16.8 23.4-25.1z"/><path fill="#fcf7ea" stroke="#fcf7ea" d="M283 609.7c-.7-11.9.3-24.2-2.5-35.5-2.7-10.8 1.3-20.3 1.7-30.4.3-8.7 1.7-17.4 2.8-26 .3-2.1 1.2-4.1 2.2-6.4 6.5 6.2 12.7 12.5 18.6 19 8.2 8.9 16.1 18.1 24.3 27 5 5.4 10.4 10.5 15.8 15.9.1.2.2.6.1 1 0 .8 0 1.2-.3 1.7-4.9 2.4-9.5 4.7-14 7.1-13.6 7.3-27.1 14.5-40.6 22-2 1.1-3.4 3.2-5.5 4.8-1.2 0-1.9-.1-2.6-.2z"/><path fill="#b1a8a2" stroke="#b1a8a2" d="M697 157c-4.6 10.1-9.1 20.2-13.7 30.3-4.4 9.5-9 18.9-13 28.6-.8 2-.3 5.3.8 7.1 8.4 13.2 17.2 26.2 25.7 39.2 1.1 1.7 1.8 3.6 2.7 5.9-4.5 1-9 1.5-13.9 2-3.8.3-7.2.6-10.9.8-7.1-6.4-13.9-12.7-20.7-19.4-1.6-11.3-3.4-22.2-4.9-33.1-1.1-7.8-2-15.7-2.6-23.5 6.8.4 13 .4 16.2-6.8 1.9-1.1 3.5-1.9 4.8-3.1 8.4-8.3 16.7-16.7 25.1-25 1.2-1.2 2.9-2 4.4-3z"/><path fill="#d3cec6" stroke="#d3cec6" d="M231.1 803.4c4.1-3.9 8.2-7.4 12.1-11.1 18.2-17.7 36.3-35.4 55-53.2.7.2.8.4.8 1.2-.4 2.3-.9 4.3-1 6.2-.4 21.1-.7 42.2-1.5 63.4-3.5 0-6.4.3-9.4 0-18.7-1.5-37.3-3.2-56-4.8v-1.7z"/><path fill="#403936" stroke="#403936" d="M307.5 437c3.5-6.3 7-12.7 10.6-19 .5-.7 2-.8 3.9-1.1 13.6-1.6 26.3-3.1 39.1-4.3 1 1.2 1.8 2.1 2.8 2.9 5 3.5 10.1 7 15.3 10.8 1 .7 1.9 1.2 2.8 1.7l.1.3c5.6 5.5 11.1 10.5 16.4 15.8 4 4.1 7.7 8.6 11.1 12.9-29.3-6.1-58.3-12.3-87.3-18.3-4-.9-8.2-1.2-12.7-1.8-1 0-1.5.1-2.1.1z"/><path fill="#c7bcae" stroke="#c7bcae" d="M700 609h1.6c.7.5 1 .9 1.1 1.8-7 16.7-13.9 32.9-21.1 49.2-2.1-.5-4-.8-5.5-1.6-19.8-10.3-39.5-20.6-59.2-31-1.5-.8-2.6-2.2-3.5-3.4 9.6-1.5 18.7-3.1 27.8-4.6 11.1-1.8 22.2-3.5 33.2-5.4 8.6-1.6 17.1-3.3 25.6-5z"/><path fill="#cdc6bd" stroke="#cdc6bd" d="M282.7 609.9c1-.1 1.7 0 3.3.1 3.5.6 6.3 1.1 9 1.5 15.2 2.5 30.3 5 45.5 7.5 10.6 1.8 21.3 3.7 31.9 5.5.2.4.3.8.5 1.2-5.1 2.5-10.2 5-15.2 7.5-13.3 6.7-26.5 13.6-39.9 20.3-4.8 2.4-9.7 4.4-14.8 6.3-4.1-9.6-8-18.9-12-28.2-2.9-6.9-6-13.8-9.1-20.7.2-.3.4-.6.8-1z"/><path fill="#dccdb8" stroke="#dccdb8" d="M345.8 573.1c-5.3-5.2-10.7-10.3-15.7-15.7-8.2-8.9-16.1-18.1-24.3-27-5.9-6.5-12.1-12.8-18.4-19.3-.7-1.2-1.1-2.2-1.1-3.8 17.4-3.5 34.5-6.5 51.9-9.3.6.7 1.1 1.3 1.5 2.3 1.3 14.7 2.8 28.9 4 43 .9 9.9 1.4 19.9 2.1 29.8z"/><path fill="#3b3330" stroke="#3b3330" d="M663.1 416.7c1.9 1.2 4.3 2.1 5.5 3.8 3.3 4.6 6 9.7 8.7 15-.7.7-1.1.9-1.7 1.2-.7.2-1.2.3-1.8.1-6.9 1.2-13.6 2.7-20.3 4.2-14.4 3.2-28.7 6.6-43 9.6-10.8 2.3-21.7 4.2-32.5 6 .5-1 .8-1.9 1.4-2.4 8.9-8.3 17.8-16.4 26.6-24.8 1.4-1.3 2.1-3.5 3.4-5.4.8-.2 1.3-.4 1.7-.7 4.9-5.3 10.4-9.1 18.2-8.4.5 0 1.1-1 2-1.6 10.9 1.1 21.3 2.2 31.8 3.4z"/><path fill="#c7bcae" stroke="#c7bcae" d="M699 508.7c-7.8 8.6-15.7 16.9-23.4 25.4-9.2 10.2-18.1 20.7-27.2 31-2.4 2.7-5 5.3-7.9 7.9-.4.1-.6 0-.6-.5.8-10 1.6-19.5 2.2-29 1-14.9 2-29.7 3.3-44.5.9-.1 1.5-.3 2.4-.4 17.4 2.7 34.3 5.3 51.3 7.9 0 .6 0 1.2-.1 2.2z"/><path fill="#a69d99" stroke="#a69d99" d="M248.8 864.1c-.3-.5-.6-1-.5-1.8 1.3-.6 2.5-.7 3-1.3 6.7-7.3 13.1-14.8 19.8-22.1 8.5-9.4 17.2-18.6 26-27.6 6.4 15.5 12.7 30.7 19 45.9 1.3 3 3.2 5.9 4.8 9.2.1 1.1.1 1.9-.2 2.7-.7.4-1.2.7-1.9.6-4-.7-7.8-1.4-11.5-1.7-6.3-.5-12.6-.7-18.9-1.1-13.2-.9-26.4-1.9-39.6-2.8z"/><path fill="#b9b5ae" stroke="#b9b5ae" d="M248.8 864.5c13.2.5 26.4 1.5 39.6 2.4 6.3.4 12.6.6 18.9 1.1 3.7.3 7.5 1 11.3 2-6.6 8.1-13.4 15.6-20.1 23.1-6.8 7.6-13.6 15.3-20.5 22.9-.8.6-1.7 1.2-2.9 1.9-1-.6-2-1.1-2.4-1.9-8-17-15.9-34.1-23.9-51.5z"/><path fill="#b8b1aa" stroke="#b8b1aa" d="M297 811c-8.7 9.3-17.4 18.5-25.9 27.9-6.7 7.3-13.1 14.8-19.8 22.1-.5.6-1.7.7-3 1-1.9-4.5-3.5-9-5-13.5-3.9-12.7-7.8-25.5-11.7-38.2-.4-1.4-.4-3-.5-4.8 18.7 1.2 37.3 2.9 56 4.4 3 .3 5.9 0 9.4 0 .5.1.6.2.5.4v.7z"/><path fill="#6a6561" stroke="#6a6561" d="M699.3 506.1c-17.2-2.2-34.1-4.8-51.6-7.8 0-2.2.3-4.2 1.2-5.9 8.6-17 17.3-33.9 25.8-50.9.8-1.5.8-3.2 1.2-4.8.3-.3.7-.5 1.4-.8 3.4 9.2 6.5 18.3 9.4 27.5 4.3 14.1 8.5 28.2 12.6 42.7z"/><path fill="#8f877f" stroke="#8f877f" d="M338 497.9c-17.2 2.9-34.3 5.9-51.7 9.1-.6-1.4-1.4-3.1-1-4.4 7.1-21.6 14.3-43.2 21.4-64.8.1-.1.2-.3.5-.6.9-.2 1.4-.3 2.5 0 1.2.7 1.8 1.2 2.2 2.1 0 2.3-.5 4.7.3 6.3 6.9 13.8 14.1 27.4 21.1 41.1 1.7 3.3 3.1 6.8 4.7 10.5v.7z"/><path fill="#c7bcae" stroke="#c7bcae" d="M705.9 20.2c4.5 12.6 9.2 25.2 13.6 37.9 4.3 12.3 8.3 24.7 12.2 37.5-8.1-4.1-15.8-8.6-23.6-13.1-9.5-5.5-19.1-11-28.8-16.8-.2-.4-.3-.6-.2-1.1 7.8-14.4 15.5-28.4 23.3-42.4.5-1 2.3-1.4 3.5-2zM253.5 96.1c1.2-4.1 2-8.2 3.5-12.2 7.7-20.9 15.5-41.7 23.9-62.7 2 1.2 3.6 2.4 4.6 4 6 10.4 11.8 21 17.8 31.3 1.6 2.8 3.9 5.1 5.8 7.8-.1.2-.1.7-.4.7-.8.3-1.3.6-2.2 1-7.6 4-14.9 8-22 12.1-10.4 5.9-20.7 12-31 18z"/><path fill="#736d68" stroke="#736d68" d="M309 65s0-.5.5-.7c11.1-3.4 21.9-6.5 32.6-9.7 1.2.3 2.3.6 3.6 1.5.4 1.3.4 2.1.8 2.5 7.1 9 14.4 17.8 21.4 26.9 5.3 6.9 10.1 14.2 14.8 21.3-12.4-4.6-24.6-9.2-36.9-14.1-6.9-5-13.6-9.7-20.2-14.6-5.7-4.3-11.1-8.7-16.6-13.1z"/><path fill="#a69d99" stroke="#a69d99" d="M253.5 96.4c10.3-6.3 20.6-12.4 31-18.3 7.1-4.1 14.4-8.1 22.1-11.7-1.1 8.9-2.6 17.4-4.1 25.8-1.9 10.3-3.6 20.6-5.6 30.8h-.7c-5.4-2.9-10.4-5.7-15.3-8.6-9-5.4-18-10.9-27.1-16.3-.1-.4-.1-.9-.3-1.7z"/><path fill="#7c7672" stroke="#7c7672" d="M679 65c0 .1.1.3.1.8-.1.2-.4.3-.7.3-1.3.5-2.2.8-3 1.3-11.9 8.5-23.8 17-35.9 25.7-5.3 2.2-10.3 4.3-15.4 6.2-6.7 2.6-13.5 5-20.2 7.2 6.2-8.7 12.3-16.9 18.3-25.2l18.9-26.1s.4-.3 1-.4c1.6.2 2.6.3 3.5.6 11.2 3.2 22.3 6.4 33.4 9.6z"/><path fill="#a19d99" stroke="#a19d99" d="M679.2 66c9.8 5.5 19.4 11 28.9 16.5 7.8 4.5 15.5 9 23.6 13.5.1.9 0 1.7-.8 2.8-1.7.5-3 .7-3.9 1.3-8.1 4.8-16.1 9.6-24.1 14.5-4.6 2.8-9.2 5.6-14 8.1-.4-2.5-.6-4.6-.6-6.9-.1-.7-.4-1.3-.9-2.3-.9-5.3-1.6-10.3-2.5-15.2-2.1-10.7-4.1-21.5-6.2-32.2 0 0 .3-.1.5-.1z"/><path fill="#a2988f" stroke="#a2988f" d="M281.7 611.2c3.3 6.6 6.4 13.5 9.3 20.4 4 9.3 7.9 18.6 12 28.5.1 1 .1 1.4-.3 1.8-14.1.4-27.7.6-41.2 1.2-1.9.1-3.7 1.9-5.5 2.9h-.8c.6-2.8 1-5.8 2.3-8.4 7.8-15.4 15.9-30.8 24.2-46.4z"/><path fill="#827974" stroke="#827974" d="M682 660c6.8-16.3 13.7-32.5 20.8-49 7.5 13.7 14.8 27.5 21.9 41.3 1.7 3.2 3.2 6.6 4.9 10.3 0 .3-.3.4-.9.4-16-.3-31.4-.7-46.8-1.4 0-.7.1-1.2.1-1.6z"/><path fill="#b9b5ae" stroke="#b9b5ae" d="M451 89.2c1.3-.4 2.6-.7 4.1-.8.2.3-.1.6-.4.9-.4 2.1-.6 3.9-.6 5.7-.1 17.7-.2 35.3-.7 53-13.1-3-25.8-6.1-38.5-9.5.1-1.1.1-1.8.4-2.6 7.4-9.3 14.7-18.3 21.7-27.5 4.8-6.3 9.4-12.8 14-19.2z"/><path fill="#bdbcbc" stroke="#bdbcbc" d="M640.8 55.1c-6 8.8-12.3 17.5-18.6 26.2-6 8.3-12.1 16.5-18.5 25.3-.5.8-.6 1.1-1 1.4-.2 0-.7 0-.9-.3-5.2-1.6-10-3-14.9-4.3-7-1.8-13.9-3.6-20.9-5.7v-1.6c21-11.7 42-23.3 63-35 3.8-2 7.6-4 11.8-6z"/><path fill="#a19d99" stroke="#a19d99" d="M383.1 106.8c-5.1-7.1-9.9-14.4-15.2-21.3-7-9.1-14.3-17.9-21.4-26.9-.4-.4-.4-1.2-.6-2.2 9.5 4.5 19 9.3 28.2 14.4 14.9 8.1 29.5 16.6 44.6 25.3.3.4.3.9-.1.9-11.6 3.4-22.8 6.7-34.3 10.1-.6-.1-.9-.2-1.2-.3z"/><path fill="#7c7672" stroke="#7c7672" d="M530 87.7c.2 0 .4 0 .8.5.3 1.2.3 2 .3 3.2-.1 19.6-.1 38.6-.6 57.6-11-2.7-21.6-5.3-32.1-8.2-2.1-.6-3.8-1.6-4.8 1.3-.2 0-.6-.1-.6-.5.3-1.4.7-2.5 1.1-3.9 12.1-16.9 24-33.4 35.9-50z"/><path fill="#46423f" stroke="#46423f" d="M301.9 367.3c-3.4-3.9-6.8-7.7-9.8-11.9 3.9-4.1 7.4-7.7 11.3-11.5 6.8 1.2 13.1 2.1 19.3 3.7 13.1 3.5 26 7.2 39.1 11.3-.6 1.5-1.1 3-2.1 3.7-3.1 2.2-6.4 4.1-10.1 6.2-5.8-.3-11.3-.8-17.2-1.3-8.8-.2-17.1-.2-25.7-.5-1.7 0-3.3.1-4.8.3zM693.4 356.2c-2.4 3.1-4.8 6.1-7.8 9.5-17.9 1.3-35.3 2.1-52.8 2.7-3.3-2.7-6.6-5-9.8-7.8-.1-.6-.1-.8-.1-1.4 8.1-2.8 16.1-5.4 24.3-7.5 11.5-2.9 23.2-5.3 35-7.6 3.8 4.2 7.5 8.2 11.2 12.1z"/><path fill="#d3d0ca" stroke="#d3d0ca" d="M455.4 88.5c1-.6 1.8-1.3 2.7-1.4 11.3-.8 22.6-1.4 34.4-1.6.2 17.5-.2 34.5-.9 51.5-4.3-5.1-8.4-10-12.3-15.2-8.2-10.9-16.2-21.9-24.3-32.8 0 0 .3-.3.4-.5z"/><path fill="#c7c2bb" stroke="#c7c2bb" d="M667.7 967.3c15.5 3.2 31 6.3 47 10 5 .9 9.5 1 14 1.8 2.9.5 5.6 1.9 8.5 2.9-.1.8-.1 1.5-.2 2.3-4.3 1.5-8.6 3-12.8 4.7-1.8.8-3.5 1.9-5.2 2.9-1.4 0-2.8.1-4.8-.2-1.8.3-3 .8-4.2 1.3-.4 0-.9 0-1.9-.2-1.3-.1-2.2.1-3.1.2-1.4.1-2.7.1-4.9.1-2.6.5-4.4 1-6.2 1.5-14.5.8-29 1.7-43.6 2.4-22.4 1.1-44.9 2.1-67.9 2.7-.4-.3-.4-.7-.1-.8 1-.9 1.8-1.6 2.8-1.9 3.1.2 6 .1 9.4 0h12.9c3.2-.3 5.9-.7 9-1h7c2.8-.3 5.2-.7 8-1h4c3.5-.9 7.3 1.9 9.9-2 .8 0 1.3 0 2 .3 1.7.4 3.3.8 4.7.7 10.7-1.1 21.4-2.1 32-3.6 6-.9 11.9-2.7 17.8-4.4 1.2-.3 2.9-1.9 2.8-2.7-.1-1.1-1.5-2.8-2.7-3.1-5.7-1.6-11.5-3.2-17.3-4.1-7.1-1.1-14.4-1.4-21.6-2.5 1.6-2.3 3.2-4.3 4.7-6.3z"/><path fill="#b9b5ae" stroke="#b9b5ae" d="M492 137.1c.3-17.1.7-34.1 1-51.6 12.1.3 24.2 1 36.6 2-11.5 16.8-23.4 33.3-35.7 50.2-.6.3-.7.3-1 .1-.3-.5-.6-.7-.9-.8v.1z"/><path fill="#e7e4d9" stroke="#e7e4d9" d="M679.1 64.6c-11.2-2.8-22.3-6-33.5-9.2-.9-.3-1.9-.4-3.3-.7C648 51 654 47.6 660.1 44c14.2-8.5 28.4-17.1 42.6-25.5.6-.3 2 .7 3.1 1.3-1.1 1-2.9 1.4-3.4 2.4-7.8 14-15.5 28-23.3 42.4z"/><path fill="#e1d8c5" stroke="#e1d8c5" d="M342 54.3c-10.6 3.5-21.4 6.6-32.5 9.8-2.3-2.5-4.6-4.8-6.2-7.6-6-10.3-11.8-20.9-17.8-31.3-1-1.6-2.6-2.8-4.3-4.3-.2-1.2 0-2.3.2-3.1 12.4 7.4 24.7 14.6 36.9 21.9 7.9 4.7 15.8 9.5 23.7 14.6z"/><path fill="#baa489" stroke="#baa489" d="M267 333c-.9-.1-1.9-.2-3.4-.6-2.3-1-3.9-1.7-5.6-2.4v-.2c0-.3.1-.8.4-.8 8.5-4 16.5-8 25-12 1.8.1 3.1.1 4.4.4 7.4 1.9 14.7 3.9 22.3 6.1 3.2 1.7 6 3.1 8.9 4.8-4.1 4.1-8 7.9-12.4 11.7-2.4-.2-4.3-.4-6.2-.7-11.2-2.1-22.3-4.2-33.4-6.3z"/><path fill="#8f877f" stroke="#8f877f" d="M697.2 156.8c-1.7 1.2-3.4 2-4.6 3.2-8.4 8.3-16.7 16.7-25.1 25-1.3 1.2-2.9 2-4.8 2.7 5-13.2 10.6-25.9 15.9-38.8 3.2-7.8 5.9-15.8 9.1-23.7.6-.1 1-.1 1.5.1 3.2 7.2 6.1 14.1 9.1 21 .6 1.4 1.7 2.5 2.6 3.7-1.2 2.2-2.3 4.3-3.7 6.8z"/><path fill="#a7a3a1" stroke="#a7a3a1" d="M543.4 1001.5c-26.2.1-52.4.3-78.6.5-5.3 0-10.6.4-15.9.5-2.1 0-4.3-.5-6.7-1.1 1.5-2.3 3.3-4.2 5.4-6.2 2-1.2 3.7-2.1 5.8-3.1 1.1 0 1.9 0 2.7.4 2.3.5 4.6.5 7.2.7 2.4.6 4.4 1 6.9 1.6 15.6-.2 30.7-.5 46.2-.8 1.2.1 2 .1 3.1.1 1.4-.6 2.5-1.2 4-1.8.7-.1 1.1-.1 1.8.2 2.4.4 4.5.5 6.6.6.1-.1 0 0 .1.4 1.1.7 2.1 1 3.4 1.5.9.6 1.6 1 2.5 1.6 2 1.8 3.7 3.3 5.5 4.9z"/><path fill="#8f877f" stroke="#8f877f" d="M324.1 186.9c-3.2-2.3-6.6-4.3-9.4-6.9-7.3-6.6-14.3-13.5-21.5-20.2-.9-.8-2.2-1.3-3.7-1.9-1.5-2-2.6-4-3.6-6.6 2.7-7.3 5.1-13.9 7.8-20.5.6-1.4 2.1-2.5 3.5-3.7 6.6 13.8 13 27.4 19.2 41.1 2.8 6.2 5.1 12.5 7.7 18.7z"/><path fill="#c1bdb7" stroke="#c1bdb7" d="M701.2 149.9c-1.2-1.1-2.3-2.2-2.9-3.6-3-6.9-5.9-13.8-9.1-21.3-.2-1.1-.1-1.5-.1-2l13.8-8.4c8-4.9 16-9.7 24.1-14.5.9-.6 2.2-.8 3.6-1.1-5.5 10.4-11.4 20.8-17.4 31.1-3.8 6.6-7.8 13.1-12 19.8z"/><path fill="#baa489" stroke="#baa489" d="M727.2 328c-1.1 1-2.3 2-4.1 3.1-15.2 3.1-29.7 6-44.2 8.5-3.7-4-7.3-7.6-10.9-11.7.6-.9 1.1-1.9 1.8-2.1 11.5-3.3 22.5-9.1 35.2-8.4 4.1 2.4 7.9 4.6 11.9 6.5 3.3 1.6 6.9 2.8 10.3 4.1z"/><path fill="#c1bdb7" stroke="#c1bdb7" d="M296.8 127c-1 1.3-2.5 2.4-3.1 3.8-2.7 6.6-5.1 13.2-7.9 20.2-1-.4-2-.8-2.4-1.6-9.9-16.9-19.7-33.7-29.5-50.9 9 5 18 10.5 27 15.9 4.9 2.9 9.9 5.7 15.3 9 .5 1.4.6 2.5.6 3.6z"/><path fill="#afaba8" stroke="#afaba8" d="M531.2 91c-.1-.8-.1-1.6-.1-2.8 11.4 2.4 22.7 5.1 34.5 7.8.4.5.4 1 .5 2.1 2.7 13.4 5.3 26.2 7.9 39.2-.1.2-.2.7-.6.7-1.1-.3-2.1-.3-2.5-.9-8.1-9.7-15.9-19.7-24.1-29.4-4.9-5.8-10.4-11.1-15.6-16.7z"/><path fill="#2d2523" stroke="#2d2523" d="M750.2 743c-3.1-12.6-6.2-25.1-9.3-38.1 7.8 5.7 15.5 11.9 23.2 18.1 1 .8 2.1 1.5 3.5 2 .1 4.6-.3 9.2-.6 13.9-.3 6-.7 12.1-1.3 18.5-2.5-2-4.5-4.4-6.8-6.5-2.8-2.8-5.8-5.3-8.7-7.9z"/><path fill="#c1bdb7" stroke="#c1bdb7" d="M419 97v-.7c8.3-2.1 16.6-4 25-5.8 2.1-.5 4.1-.9 6.6-1.4-4.2 6.5-8.8 13-13.6 19.3-7 9.2-14.3 18.2-22 27.2-.2-3.7.1-7.2.6-10.8 1.1-9.3 2.3-18.5 3.4-27.8z"/><path fill="#3b3330" stroke="#3b3330" d="M670.1 386c-3.5 4.5-7.1 9-11.3 13.7-12.7-1.1-24.7-2.3-36.8-4-1-3.8-2-7.3-2.6-10.8 2.1-.1 3.8-.1 5.7.2 1 .4 1.9.6 2.8.8 0-.2 0-.4.1-.6-.8-.2-1.6-.4-2.2-.8.1-.2.2-.6.7-.6 4.3-.3 8-.7 11.8-1.1.4-.1.6-.3.6-.7 0 .1.2 0 .4.5 7.4.6 14.6.9 21.8 1.1 2.7.1 5.4.2 8.5.6.5.8.5 1.3.5 1.7z"/><path fill="#c7c2bb" stroke="#c7c2bb" d="M319.2 970.1c1.2.6 2.4 1.5 3.4 3-9.7 1.6-19.2 2.6-28.6 4-7.7 1.1-15.3 2.7-22.8 4.4-1.6.4-2.8 2.3-4.1 3.5 1.3 1 2.5 2.7 3.9 3 7.6 1.6 15.2 3.3 22.8 4 19.4 2 38.8 3.4 58.6 5 1.5 0 2.5 0 3.6.3 0 1 0 1.7.1 2.4-6.4-.2-12.8-.4-19.9-.9-3.3-.4-5.9-.5-8.5-.6-2.2 0-4.5-.1-7.5-.4-4.5-.2-8.4 0-12.2.2-.4 0-.9 0-1.7-.4-2-.4-3.7-.5-5.3-.6-3 0-6-.1-9.6-.4-1.5-.4-2.4-.5-3.4-.6-2 0-4.1-.1-6.6-.6-3.8-1.4-7.2-2.6-10.6-3.4-6.1-1.4-12.3-2.4-18.3-3.9-1.7-.5-2.9-2.4-4.4-3.6 1.8-1.1 3.5-2.3 5.2-3.4.4-.2 1 0 1.5-.1 5.7-1.3 11.5-2.7 17.5-4h2.1c4.8-.3 9.2-.6 13.5-1.1.8-.1 1.4-1.7 2.1-2.6 7.4-.4 14.7-.9 22.8-1 2.2-.2 3.7-.6 5.2-1.1.4-.3.7-.6 1.2-1.1z"/><path fill="#3d3734" stroke="#3d3734" d="M339 399.1c-2.7.3-5.5.5-8.9.4-1.1-.8-1.9-1.2-1.9-1.7.6-8.3-5.7-9.3-11.6-10.7-.6-.5-1.2-1.1-1.8-2.2 0-.8 0-1 .1-1.3 13.1 0 26.2 0 39.8.5 1.6 1 2.7 1.8 3.8 1.9 9.6.5 9.6.5 7.7 10.1-5.9.8-11.5 1.5-17.5 2-1.5.1-2.5.2-4 .2-2.1.2-3.9.5-5.7.8z"/><path fill="#b8b1aa" stroke="#b8b1aa" d="M686 270.1c4.5-.5 9-1 13.7-1.8C708 280.5 716 293 724 305.5c.5.8.7 1.8.7 3.1-.8.4-1.2.3-1.9.3-.2 0-.6 0-.7-.4-14.9-12.2-29.6-24.1-45.2-36.5 3.4 0 5.7.1 8-.1.4-.1.7-1.2 1.1-1.8z"/><path fill="#b9b5ae" stroke="#b9b5ae" d="M285.5 267.8c2.1.3 3.9 1.1 5.7 1.1 5.7.2 11.4.1 17.5.5 0 .7-.3 1.2-1 1.6-1.3 1.3-2.1 3-3.3 4-7.8 6.1-15.8 12-23.6 18.1-6 4.8-11.9 9.9-18.2 14.9h-1.9c8.1-13.3 16.3-26.7 24.8-40.2z"/><path fill="#e2dfd9" stroke="#e2dfd9" d="M679 340c14.4-2.9 28.9-5.8 43.8-8.7-2 2.3-4.4 4.5-7.4 6.4-11.5 1.9-22.4 4-33.4 6.1-11.6 2.6-23.3 5-34.8 7.9-8.2 2.1-16.2 4.7-24.7 7.6-5.8 2-11.2 3.6-17 5.3-4.4 1.5-8.5 2.9-12.9 4.3-3 .8-5.6 1.5-8.5 2.1-.5-.7-.8-1.3-.9-2.1 14.8-5.4 29.3-10.6 44.2-15.7 1.2-.3 2-.5 2.8-.8 14-3.6 27.9-7.2 42.3-10.8 2.4-.6 4.4-1.1 6.5-1.6zM266.9 333.2c11.2 1.9 22.3 4 33.5 6.1 1.9.3 3.8.5 6.6.8 18.2 4.5 35.5 8.9 53.2 13.4.5.1.7.1 1.2.2.5 0 .7-.1.9 0 6.4 2.3 12.7 4.2 19 6.3 7 2.3 13.9 4.9 20.8 7.8-.7 1.1-1.3 1.8-2.2 2.5-13-3.9-25.6-7.9-38.2-11.8-13-3.7-25.9-7.4-39-10.9-6.2-1.6-12.5-2.5-19.5-4-6.9-1.6-13.1-3.3-19.3-4.3-4.7-.8-9.5-.8-14.2-1.2-1.2-1.4-6.3-.3-2.8-4.9z"/><path fill="#d3d0ca" stroke="#d3d0ca" d="M663.1 416.4c-10.5-.9-20.9-2-32.2-3.2-17.2-.7-33.5-1.4-50.3-2.2-8.9.3-17.3.7-25.6.9-5.4.2-10.7.1-15.6.1 15.3-5 30.6-5.4 46.6-4.8 11.9.6 23.4 1.1 35 1.8.7.2 1.4.1 2.4 0 3.8.2 7.2.5 10.9 1 2 .4 3.6.6 5.3.8 7.8 1.2 15.6 2.4 23.5 3.6v2z"/><path fill="#e2dfd9" stroke="#e2dfd9" d="M361.1 412.3c-12.8 1.5-25.5 3-38.7 4.5-.5-.6-.5-1.2-.1-2.2 3.1-.9 5.8-1.5 9-2 2.9-.3 5.3-.6 7.9-.9.8-.1 1.3-.3 2.3-.5 6.1-.8 11.8-1.6 17.9-2.3 12.5-.6 24.5-1.2 36.5-1.9 1.3 0 2.5-.7 4.2-1 4.4.2 8.4.1 12.3.7 8.5 1.3 17 2.9 25.7 4.7 1.2.8 2.1 1.5 3.8 2.6-10.7-1.2-20.3-2.5-30-3.5-2.6-.2-5.3.4-8.4.6-14.4.3-28.4.7-42.4 1.2z"/><path fill="#dad7cf" stroke="#dad7cf" d="M622 396.1c12.1 1.3 24.1 2.5 36.6 3.8.4 1.2.4 2.3-.1 3.8-10.8-.7-21.1-1.8-31.8-3-12.5-.4-24.6-.5-37-1-3.3-.6-6.4-1.4-9.5-1.2-10.4.7-20.8 1.7-31.1 2.2.5-.8.9-1.5 1.5-1.5 9.1-1.2 18.2-2.2 27.8-3.2 4.7-.3 9-.7 13.6-.7 2.2.3 4.1.3 6.5.4 8.2.2 15.8.3 23.5.4z"/><path fill="#46423f" stroke="#46423f" d="M682.5 370c-3.3 3.6-6.6 7.2-10.5 10.7-2.9-.2-5.1-.3-7.2-.4-6.8-.3-13.5-.6-20.5-1.2-2.6-2.5-5-4.7-7-7.1 15.3-.8 30.3-1.4 45.2-2zM345.7 379.6c-10.6.2-21.2.7-31.8.5-2.1 0-4.3-2.3-6.2-3.9-1.4-1.3-2.4-3.1-3.7-5.3 1-.8 2-1.1 3.5-1.2 8.2.1 15.8.2 23.8.5 2.1.5 3.9.7 5.8 1.3 3.7 1.2 7.2 2.1 12.1 3.3-3.3.2-5.3.3-7.2.4v.5c1.8.2 3.6.5 5.9.8-1 1.3-1.6 2.2-2.2 3.1z"/><path fill="#d3cec6" stroke="#d3cec6" d="M682.8 370c-15.2.6-30.2 1.2-45.9 2-3 .3-5.1.3-7.2.6-13 1.9-25.8 3.9-38.9 5.6-1.3-.9-2.6-1.5-3.5-2.2 2.8-.8 5.3-1.4 8.1-2.1 12.8-1.7 25.1-3.5 37.5-5.2 17.4-.9 34.8-1.7 52.6-2.7-.5 1.3-1.4 2.6-2.7 4z"/><path fill="#e1d8c5" stroke="#e1d8c5" d="M283 317.1c-8.1 3.9-16.1 7.9-24.8 11.9H257c-2.3-1.5-4.6-3.1-7.4-5 3-4.4 5.9-8.6 9.5-12.8 8.1.9 15.5 1.8 22.9 3.1.4 1.2.7 2 1 2.8z"/><path fill="#d3d0ca" stroke="#d3d0ca" d="M719.4 991.9c1.3-1 3-2.1 4.8-2.9 4.2-1.7 8.5-3.2 12.8-4.7.1-.8.1-1.5.2-2.3-2.9-1-5.6-2.4-8.5-2.9-4.5-.8-9-.9-13.6-1.7 7.9-.4 15.9-.2 23.9-.5 4.4-.2 8.8-1.4 13.6-2.1 1.3 2.8 2.3 5.6 3.3 8.3.6.1 1.3.1 1.9.2-1.1.9-2.1 2.4-3.3 2.6-11.5 2.2-23.1 4.1-35.1 6z"/><path fill="#dad7cf" stroke="#dad7cf" d="M366 383.9c2.6-.7 5.2-1.4 8.4-2.5 6.7 0 13 .7 19.2.9 1.6 0 3.2-1.5 5.1-2.3 1.5 2.7 3.4 3.4 6.2 3 3.3-.6 6.7-.6 10-.5-2 1.1-3.9 1.9-5.8 2.5-4 1.2-5.1 3.5-3.2 7.3.4.9.7 1.8.8 2.7-1.2.7-1.9 1.4-3 2.3-3.5 1.6-8.1-1-10.2 3.6-1-.9-1.8-1.5-2.4-2.5-.4-1.1-.9-1.9-1.4-2.8.1-.2.3-.6.7-.5.8-1.3 1.2-2.7 1.7-4.5.4-1.7.7-2.9.9-4.3-9.4-.8-18.2-1.6-27-2.4m28.5 8.4c.5.1 1.1.2 1.7.3v-1.2c-.6.1-1.2.2-1.7.9z"/><path fill="#cdc6bd" stroke="#cdc6bd" d="M272 977c-5.7 1.3-11.5 2.7-17.2 4-.5.1-1.1-.1-1.5.1-1.7 1.1-3.4 2.3-5.2 3.4 1.5 1.2 2.7 3.1 4.4 3.6 6 1.5 12.2 2.5 18.3 3.9 3.4.8 6.8 2 10.2 3.4-8.7-.5-17.4-1.4-26.8-2.6-2.8-.5-5-.6-7.2-.8-.8 0-1.5 0-2.7-.4-2.4-1.4-4.5-2.4-6.3-3.7-1.2-.8-2.4-2.2-2.7-3.5-.1-.6 1.9-1.7 3-2.6 1.5-1.2 3.1-2.4 4.7-3.6.8 0 1.5-.1 2.8.1 1.1-.3 1.7-.7 2.2-1.1 7.4-.7 14.8-1.5 22.7-2 .8.8 1 1.3 1.3 1.8z"/><path fill="#403936" stroke="#403936" d="M627 400.8c10.4 1.1 20.7 2.2 31.5 3.3 2 3.4 3.6 6.7 4.9 10.1-8.2-1-16-2.2-23.8-3.4-1.7-.2-3.3-.4-5.4-1.2-2.6-1.2-4.7-1.8-7.2-2.5v-6.3z"/><path fill="#e1d8c5" stroke="#e1d8c5" d="M723 308.9c.5 0 .9.1 1.7.1 2.4 3 4.6 5.9 6.6 8.9 3.8 5.5 3.2 7.1-3.7 10.1-3.8-1.3-7.4-2.5-10.7-4.1-4-1.9-7.8-4.1-11.5-6.7 4.7-2 9.4-3.5 14-5.3 1.4-.5 2.4-1.9 3.6-3z"/><path fill="#29231f" stroke="#29231f" d="M398.4 379.9c-1.6.9-3.2 2.4-4.8 2.4-6.2-.2-12.5-.9-19.2-1.3-2.1 0-3.8-.1-6.2-.4-1.5.1-2.3.2-3.2.4-.4 0-.9 0-1.8-.5-5-.5-9.6-.5-14.2-.6-.9 0-1.8-.1-3-.2.3-1 .9-1.9 1.9-3.2-2.3-.3-4.1-.6-5.9-.8v-.5c1.9-.1 3.9-.2 7.2-.4-4.9-1.2-8.4-2.1-11.6-3.3 18.6 2 36.9 4.4 55.4 7.1 2 .6 3.7 1 5.4 1.3z"/><path fill="#baa489" stroke="#baa489" d="M682.2 344.1c10.8-2.4 21.7-4.5 32.9-6.3-6.8 6.3-13.9 12.3-21.4 18.3-4-3.8-7.7-7.8-11.5-12z"/><path fill="#b7ada2" stroke="#b7ada2" d="M269.9 338.4c4.5.1 9.3.1 14 .9 6.2 1 12.4 2.7 18.9 4.4-3.3 4-6.8 7.6-10.6 11.3-3.1-1.7-5.9-3.3-8.4-5.2-4.6-3.6-9.1-7.4-13.9-11.4z"/><path fill="#231d1a" stroke="#231d1a" d="M390 395s-.2.4-.7.5c-5.1.2-9.7.4-14.7.4-3 0-5.5 0-8.1.1 1.6-9.5 1.6-9.5-8-10-1.1-.1-2.2-.9-3.4-1.7 3.3-.4 6.6-.3 10.5-.3 9.2.7 18 1.5 27.4 2.3-.2 1.4-.5 2.6-1.2 4.3-4.3.6-1.4 3.1-1.8 4.4z"/><path fill="#d3d0ca" stroke="#d3d0ca" d="M242.6 978.2c-1.2 1.2-2.8 2.4-4.3 3.6-1.1.9-3.1 2-3 2.6.3 1.3 1.5 2.7 2.7 3.5 1.8 1.3 3.9 2.3 6 3.7-10.3-1.4-20.5-3.1-30.8-4.9v-2.6c9.3-3.3 18.9-5.5 29.4-5.9z"/><path fill="#4d4743" stroke="#4d4743" d="M330.9 412.6c-2.8.5-5.5 1.1-8.6 1.8-.7-4.7 3.9-10.9 8.4-11.3 3.5-.4 6.9-.7 11.2-1.1 3.3-.3 5.7-.7 8.5-1 1.8-.1 3.2-.2 4.6-.2 0 .1 0 .3.3.6 2.7.5 5.2.7 7.7 1-.2.2-.3.4-.5.5-.1.1-.3.1-.9.1-3.3 1-6.7 3.3-9 2.6-6.8-2.1-11.5 2.3-17 4-1.7.6-3.1 2-4.7 3z"/><path fill="#3d3734" stroke="#3d3734" d="M407.9 1000.8c-1.3-.1-2.7-.3-4.7-.8-2.1-.7-3.7-1-5.2-1.7-1-1.6-2-3-3.1-4.5-.1-.1-.4-.1-.6-.4-1.1-1.1-2.2-1.9-3.3-3-1.5-1.7-2.8-3-3.7-4.4 8.9-1.2 15.8.7 19.8 9.3.7 1.1 1.4 1.9 1.9 3-.4.7-.7 1.2-1 1.9-.1.2-.1.6-.1.6z"/><path fill="#29231f" stroke="#29231f" d="M584.8 996.6c-.7.7-1.5 1.4-2.8 2.2-.8.4-1 .7-1.2 1-1.2.3-2.5.6-4.1.5-.6-.5-.7-.8-.8-1.4 2.4-7.9 7-13.1 15.3-13.6 1.5-.1 3.2 1.1 4.7 1.9-.1.2-.2.7-.4.7-.4.3-.6.5-.9.9-1.8 1.4-3.3 2.5-5.1 3.9-1.4 1.1-2.6 2.1-4 3.2-.5.2-.6.4-.7.7z"/><path fill="#2d2523" stroke="#2d2523" d="M543.7 1001.6c-2.1-1.7-3.8-3.2-5.6-5.3 2.4-4.3 4.8-8 7.6-12.4 4.4 5.4 3.9 10.4 4.2 15.5-.4.6-.6 1.1-.9 1.5-1.7.3-3.3.6-5.3.7z"/><path fill="#b9b5ae" stroke="#b9b5ae" d="M549.3 1001.2c0-.7.2-1.2 1-1.9 2.2-1.4 4-2.6 6.2-3.7 3.1-.2 5.8-.5 8.9-.6 2.1.3 3.8.5 5.5 1 1.6 1.3 3.3 2.3 4.9 3.2.2.3.3.6.6 1.1-8.9.6-17.9.9-27.1.9z"/><path fill="#302c2b" stroke="#302c2b" d="M447.3 995.4c-1.8 1.8-3.6 3.7-5.5 5.9-1.7.4-3.3.5-5.5.3-1.1-.7-1.8-1.2-2.3-1.8.1-.5 0-.7.2-1.2.4-1.1.5-1.9.9-2.6 1.4-3 2.8-5.9 4.3-8.9 2.6 2.8 5.2 5.5 7.9 8.3z"/><path fill="#d3cec6" stroke="#d3cec6" d="M644.6 379.4c6.7.3 13.4.6 20.2.9 2.1.1 4.3.2 6.8.5-3.2.8-6.8 1.5-10.4 2.5-7.3.2-14.5-.1-22.2-1-.3-1-.2-1.2.3-1.6.9-.3 1.2-.4 1.8-.4 1 0 1.8-.2 2.8-.4.4-.2.5-.3.7-.5z"/><path fill="#4d4743" stroke="#4d4743" d="M316.7 387.4c5.8 1.1 12.1 2.1 11.5 10.4 0 .5.8.9 1.5 1.7-1.4-.2-3.6-.1-4.6-1.2-3-3.2-5.6-7-8.4-10.9z"/><path fill="#c7c2bb" stroke="#c7c2bb" d="M379.1 1000.7c-6.9-.1-13.7-.1-20.7-.9 1.4-1 3-1.5 4.6-1.8 2.4-.4 4.7-.6 7.5-1 3.1 0 5.8 0 8.5.4 0 1.3 0 2.3.1 3.3z"/><path fill="#d3d0ca" stroke="#d3d0ca" d="M433.9 1000c.6.4 1.3.9 2 1.5-9.1.2-18.2.1-27.7-.4-.3-.3-.3-.7.2-.9 8.9-.2 17.2-.2 25.5-.2z"/><path fill="#ede6d7" stroke="#ede6d7" d="M282 314c-7.4-1-14.8-1.9-22.6-3-.1-1 .3-1.9 1-2.9.8-.1 1.3-.1 2.4.2 1.7.8 2.8 1.4 4 1.7 5.1 1.4 10.1 2.7 15.2 4z"/><path fill="#b9b5ae" stroke="#b9b5ae" d="M379.5 1000.8c-.5-1.1-.5-2.1-.1-3.4 4.5-.4 8.6-.4 12.9-.4.8 0 1.3 0 1.7.4 0 1 0 1.7-.4 2.5-3.1.3-5.9.6-8.6.9h-5.5z"/><path fill="#46423f" stroke="#46423f" d="M815.1 922.9c-1.5-.1-3.2.2-4.4-.4-.8-.4-1.1-2.1-1.3-3.4 1.5.6 2.5 2 3.7 2.1 3.9.2 7.9.1 13.4.1-2 1.8-2.9 2.7-4.2 3.3-.7-.7-1-1.2-1.7-1.7h-5.5z"/><path fill="#d3d0ca" stroke="#d3d0ca" d="M385.3 1001.1c2.4-.6 5.2-.9 8.8-1.2 2-.4 2.9-.9 3.9-1.3 1.5.4 3.1.7 4.8 1.3-.8.9-1.8 1.9-2.9 1.9-4.8.1-9.5-.2-14.6-.7z"/><path fill="#cdc6bd" stroke="#cdc6bd" d="M289.6 973.2c-.3 1-.9 2.6-1.7 2.7-4.3.5-8.7.8-13.5.8-.4-.8-.4-1.3-.4-1.8 5.1-.6 10.1-1.2 15.6-1.7z"/><path fill="#b9b5ae" stroke="#b9b5ae" d="M370 997c-2.3.4-4.6.6-7 1-1.6.3-3.2.8-4.9 1.5-.5.4-1 .4-1.7.3-.4-.8-.4-1.5-.1-2.8 4.1-.7 7.9-.9 12-1 .8 0 1.3 0 1.7.3v.7z"/><path fill="#181512" stroke="#181512" d="M814.9 923.2c1.8-.3 3.5-.3 5.7.1.5 1 .5 1.6.5 2.1-1.4 1.2-2.9 2.4-4.7 3.6-.8-1.7-1.2-3.6-1.5-5.8z"/><path fill="#d3d0ca" stroke="#d3d0ca" d="M350 401c-2.4.3-4.8.7-7.6 1-1.3-.9-2.1-1.6-3.2-2.6 1.6-.6 3.4-.9 5.6-.8 2.1 1.1 3.6 1.8 5.2 2.4z"/><path fill="#46423f" stroke="#46423f" d="M349.2 380.3c4.4-.3 9-.3 13.7.2-4.4.3-9 .3-13.7-.2z"/><path fill="#d3d0ca" stroke="#d3d0ca" d="M308.3 998.3c3.5-.5 7.4-.7 11.5-.5-3.6.5-7.4.6-11.5.5z"/><path fill="#dad7cf" stroke="#dad7cf" d="M307.1 369.6c-1.1.2-2.1.5-3.3 1.1-.8-.7-1.3-1.8-1.9-3.1 1.5-.5 3.1-.6 4.9-.3.3 1.1.3 1.7.3 2.3z"/><path fill="#d3d0ca" stroke="#d3d0ca" d="M327.9 998.5c2.4-.2 5-.1 7.9.3-2.4.2-5.1.2-7.9-.3z"/><path fill="#1d1815" stroke="#1d1815" d="M840.4 868c0-1.3.2-2.8.6-4.6.7-.8 1.4-1.1 3.2-2-1.6 2.9-2.5 4.7-3.8 6.6z"/><path fill="#d3d0ca" stroke="#d3d0ca" d="M247.2 992.3c2-.1 4.2 0 6.6.5-2 .1-4.2-.1-6.6-.5zM694.3 994.7c1.4-.6 3.2-1.1 5.4-1.6-1.4.6-3.2 1.2-5.4 1.6zM317.7 971.1c-1.2.6-2.7 1-4.5 1.2 1.2-.6 2.7-.9 4.5-1.2zM301.3 997.2c1.3-.1 3 0 4.6.4-1.4.2-2.9.1-4.6-.4z"/><path fill="#e2dfd9" stroke="#e2dfd9" d="M258.1 330.4c1.6.3 3.2 1 5.1 1.9-1.6-.3-3.3-.9-5.1-1.9z"/><path fill="#d3d0ca" stroke="#d3d0ca" d="M273.8 974.7c.2.7.2 1.2.2 1.9-.5.4-.9.4-1.7.4-.6-.5-.8-1-1.2-1.8.8-.4 1.6-.5 2.7-.5zM710.4 993c.8-.5 2-1 3.4-1.3-.9.6-2 1-3.4 1.3z"/><path fill="#d3cec6" stroke="#d3cec6" d="M670.4 386c-.3-.4-.3-.9-.4-1.8.5-.4 1.1-.5 1.6-.6-.3.8-.6 1.6-1.2 2.4z"/><path fill="#d3d0ca" stroke="#d3d0ca" d="M288.2 996.3c.8-.2 1.7-.1 2.8.3-.8.2-1.7.1-2.8-.3z"/><path fill="#dad7cf" stroke="#dad7cf" d="M365.2 381.2c.7-.4 1.5-.5 2.6-.5-.7.4-1.5.6-2.6.5z"/><path fill="#d3d0ca" stroke="#d3d0ca" d="M705.2 993.3c.7-.4 1.6-.6 2.6-.6-.7.5-1.5.6-2.6.6z"/><path fill="#1d1815" stroke="#1d1815" d="M836 866c-.5 0-1.1-.1-2-.3.5-.5 1.4-1 2.6-1.4.1.5-.2.9-.5 1.5l-.1.2z"/><path fill="#d3d0ca" stroke="#d3d0ca" d="M247.7 977.2c-.2.4-.8.8-1.5 1 .3-.5.8-.8 1.5-1z"/><path fill="#dad7cf" stroke="#dad7cf" d="M314.7 383.4c.1.5.1.7-.2 1.4-.5-.1-.9-.4-1.2-.8.4-.3.8-.5 1.4-.6z"/><path fill="#181512" stroke="#181512" d="M808.4 935.1c.3-.6.9-1.3 2-1.9-.3.7-1 1.3-2 1.9zM811.3 932.9c.3-.5.8-1.2 1.7-1.8-.2.6-.8 1.2-1.7 1.8z"/><path fill="#14110e" stroke="#14110e" d="M821.4 925.3c-.3-.4-.3-1-.4-1.9.3 0 .6.5 1 1.2 0 .4-.4.6-.6.7z"/><path fill="#b9b5ae" stroke="#b9b5ae" d="M581.1 999.9c-.1-.4.1-.7.6-1 .3.1.3.5.3.7-.2.3-.4.3-.9.3z"/><path fill="#e2dfd9" stroke="#e2dfd9" d="M257.1 329.3c0-.3.2-.3.7-.3.3 0 .2.5.2.8-.4.1-.6 0-.9-.5z"/><path fill="#4d4743" stroke="#4d4743" d="M667.8 967c-1.6 2.3-3.2 4.3-5 6.9-1.1.6-2 .7-2.9.4-.6-1.8-1-3.5-2-4.8-8.4-11.2-17-22.2-25.4-33.4-12.3-16.3-24.4-32.8-36.7-49.4.2-.8.4-1.3 1.1-1.8 1.7.1 2.9.1 4.2.5.9 1 1.7 2.1 2.7 2.3 12.1 3.2 24.2 6.2 36.3 9.3 13.6 3.6 27.1 7.3 40.7 10.7 7 1.8 14.1 2.9 21.4 4.6 1.4.8 2.7 1.4 3.9 2.2-.6 1.4-1 2.5-1.7 3.4-11.4 15.4-22.9 30.8-34.3 46.1-.7.9-1.4 1.8-2.3 3z"/><path fill="#1d1815" stroke="#1d1815" d="M670.5 964c11-15.3 22.5-30.7 33.9-46.1.7-.9 1.1-2 1.9-3.4.3-.4.7-.5 1.2-.5 4.2-.1 8.1.1 11.8-.3 12.3-1.5 24.5-3.1 36.7-4.3-5 8.8-10 17.2-15 25.6-.6.2-1.1.3-2.2.8-2.3 1.2-4 2.2-5.8 3.2-7.7 3-15.3 5.9-22.9 9-6 2.5-11.8 5.2-17.7 7.7-5.7 2.5-11.5 5.1-17.2 7.5-1.3.5-2.9.5-4.7.8z"/><path fill="#151310" stroke="#151310" d="M741.2 935.3c4.8-8.7 9.8-17.1 15.1-26.1 2.8-4.2 5.2-7.8 7.8-11.4 6.3-8.7 12.6-17.2 18.9-25.8 12.5-1 25.1-2 37.6-3.2 1.6-.1 3.1-1.1 5-1.8-.4 1.5-.8 3.6-2 4.5-15.4 12.1-31.1 24-46.6 36.1-9.4 7.5-18.7 15.2-28 22.9-2.3 1.9-3.1 6.2-7.8 4.8zM733.4 939c1.4-1 3.1-2 5.2-3 .1 3.5-2.5 2.9-5.2 3zM829 868.3c.8-.4 1.7-.4 2.8-.4-.8.3-1.7.5-2.8.4z"/><path fill="#1d1815" stroke="#1d1815" d="M836 866c.1.1.2.3.4.4-.1 0-.2-.1-.4-.3v-.1z"/><path fill="#302824" stroke="#302824" d="M783 871.5c-6.3 9.1-12.6 17.6-18.9 26.3-2.6 3.6-5 7.2-7.8 11.1-12.5 1.7-24.7 3.3-37 4.8-3.7.4-7.6.2-11.8 0 3.9-8.4 8.3-16.4 12.6-24.4 4.7-8.7 9.2-17.6 13.9-26.6.5-1.1.9-1.8 1.6-2.7 10.6-6.5 21.1-12.9 31.3-19.6 1.4-.9 2.1-2.9 3.5-4.4 2-1.4 3.5-2.8 5.2-4.1 3.8-3 7.6-5.9 11.4-8.9-1.3 14.7-2.6 29.4-3.8 44.2-.2 1.3-.2 2.6-.2 4.3z"/><path fill="#382e28" stroke="#382e28" d="M787 822.6c-3.8 3.4-7.6 6.3-11.4 9.3-1.7 1.3-3.2 2.7-5.5 3.8-5.7-11-10.9-21.8-16-33-.1-.4-.2-.6-.3-.7.1-.8.2-1.5.6-2.6 3.9-3.3 7.3-6.4 11-9 4-2.7 5.1-6.3 4.5-10.7-.4-2.8-1.3-5.5-1.6-8.3-.3-3.1-.2-6.3-.3-9.4 6.9 7.5 13.9 15 20.7 22.6.9 1.1 1.4 3.1 1.2 4.7-.8 10.9-1.9 21.9-2.9 33.3z"/><path fill="#403936" stroke="#403936" d="M768 761.7c.1 3.4 0 6.6.3 9.7.3 2.8 1.2 5.5 1.6 8.3.6 4.4-.5 8-4.5 10.7-3.7 2.6-7.1 5.7-11 8.6-.7-.5-1.2-1-1.3-1.6-1-17.8-2.1-35.7-3-54 3 2.2 6 4.7 8.8 7.5 2.3 2.1 4.3 4.5 6.8 7 .9 1.2 1.6 2.3 2.3 3.8z"/><path fill="#8f877f" stroke="#8f877f" d="M417 218.9c-5.6-2.4-11-5.2-16.7-7.2-16.4-5.5-32.8-10.8-49.3-16.1-3.7-1.3-7.6-2.1-11.6-3.6.2-1 .5-1.5 1.2-1.9 9.3-4.4 18.1-8.8 27-13.1 6.8-3.4 13.6-6.7 20.8-10 7.7 1.3 14.9 2.7 22.2 4 5.8 1 11.7 1.9 17.8 3 1.1 1 1.9 2 2.6 3.3 0 .8 0 1.3-.2 2-1.7 6.5-3 12.7-4.4 18.9-1.5 6.9-2.9 13.8-4.7 20.7H417z"/><path fill="#382e28" stroke="#382e28" d="M340.3 190.1c-.4.4-.7.9-1.2 1.6-3.3.2-6.7.5-9.8-.2-1.8-.5-3.2-2.6-5-4.3-2.8-6.5-5.1-12.8-7.9-19-6.2-13.7-12.6-27.3-19.2-41.1-.4-1.2-.5-2.3-.6-3.7-.1-.4.2-.4.6-.4.9 0 1.3 0 1.8.3 1.4 1.3 2.6 2.6 4 3.1 17.7 6.6 35.3 13.1 53 19.8 0 .6.1.8 0 1.3-.8 2.2-1.5 4.1-2.2 5.9-4.5 12.2-9 24.4-13.5 36.7z"/><path fill="#fcfcfb" stroke="#fcfcfb" d="M416.8 219.2c1-.3 1.7-.3 2.8.1-6.7 9.7-13.6 19.2-20.8 28.4-5 6.3-10.5 12.2-16.1 18.3-1.5.1-2.7.3-3.7 0-12.9-3.5-25.7-7-38.5-10.8-2.9-.9-5.6-2.7-8.4-4 26.8-10 53.6-20 80.5-30 1.4-.5 2.7-1.1 4.2-2z"/><path fill="#f1eadc" stroke="#f1eadc" d="M331.8 251.3c3.1 1.2 5.8 3 8.7 3.9 12.8 3.8 25.6 7.3 38.5 10.8 1 .3 2.2.1 3.7.3.3.4.3.6.2 1.1-2.1 1.5-3.9 2.8-5.9 3.7-2.1.2-4 .7-6.1.8-3.1-.6-6.1-.9-9-.9-16.4.3-32.8.7-49.2 1-1.6 0-3.2-.7-4.7-1 .4-.4.7-.9 1.2-1.6 1.5-1 3.1-1.5 4.3-2.5 6.1-5.1 12-10.3 18.3-15.6z"/><path fill="#9d9591" stroke="#9d9591" d="M684.8 739c1.8.9 4 1.5 5.4 2.8 7.3 7.1 14.3 14.4 21.6 21.5 13.2 12.7 26.6 25.4 39.8 38.7-20.6 2.7-41.1 4.9-61.9 7-.8.4-1.2.7-2 1-.4.1-.6.1-1.2 0-1.7-.1-3.1-.2-4.5-.6-1.6-1.5-3.1-3.1-4.9-3.8-10.5-3.8-21.1-7.3-31.4-11.4-2.8-1.1-5.1-3.5-7.3-5.5 4.1-4.3 7.8-8.6 11.6-12.7 11.6-12.4 23.2-24.7 34.8-37z"/><path fill="#8f877f" stroke="#8f877f" d="M690 809c20.5-2.1 41-4.3 61.7-6.7.7-.3 1.1-.3 1.8-.3.4.1.5.3.3 1-6.4 19.3-12.5 38.2-18.6 57.1-.3.8-.7 1.5-1.4 2.4-.8-.4-1.3-.9-1.8-1.8-6.3-7.6-12.6-14.9-18.9-22.1-8-9.2-16.1-18.4-23.9-27.7.4-.8.6-1.3.8-1.9z"/><path fill="#5f5046" stroke="#5f5046" d="M682 662c15.3.3 30.7.7 46.5 1-2 5-4.2 10.2-7 14.9-11.5 19.1-23.3 38-35.2 56.7-.8-11.4-1.2-22.5-1.5-33.9-.2-1.1-.5-1.9-.8-3.2-.3-6.1-.6-11.8-.7-17.6 0-.8-.2-1.3-.3-2.3-.6-4.8-1.1-9.2-1.7-13.9.2-.8.4-1.2.7-1.7zM684.8 738.7c-11.6 12.6-23.2 24.9-34.8 37.3-3.8 4.1-7.5 8.4-11.7 12.7-.3.2-.3.3-.3 0-.2-1-.5-1.7-.3-2.3 7.4-23.8 14.9-47.6 22.7-71.4 1.8.8 3.3 1.4 4.4 2.4 5.2 5 10.1 10.2 15.3 15.1 1.6 1.5 3.8 2.5 5.8 3.7-.4.7-.7 1.4-1.1 2.5z"/><path fill="#8f877f" stroke="#8f877f" d="M685.9 736c-2-1-4.2-2-5.8-3.5-5.2-4.9-10.1-10.1-15.3-15.1-1.1-1-2.6-1.6-4.4-2.6-.5-.2-.5-.7-.3-1 .4-.7.7-1.1 1-2 3.7-9.1 7.3-17.8 11-26.5 3-7.1 6.2-14.2 9.2-21.3.6 4.4 1.1 8.8 1.5 13.7-.1 1.2.1 1.7.2 2.3.4 5.7.7 11.4.7 17.7.2 1.6.6 2.5 1 3.4.4 11 .8 22.1 1.3 33.7 0 .5 0 .9-.1 1.2z"/><path fill="#827974" stroke="#827974" d="M256.1 666.4c1.7-1.4 3.5-3.2 5.4-3.3 13.5-.6 27.1-.8 41.2-.9.7.6.8 1 .7 1.8-.6 4.3-1.1 8-1.4 11.8-1 16.1-1.9 32.1-3.1 48.2-.3 4-1.2 8-1.9 12-13.6-23.1-27.2-46.2-40.9-69.6z"/><path fill="#736d68" stroke="#736d68" d="M299.1 739.8c-.1-.3-.2-.5-.6-.8-.3-.5-.3-.9-.1-1.7 1.7-1.4 3.2-2.5 4.5-3.7 7-6.5 14-13 21.2-19.5.1.1.3 0 .4.4 1.1 3.2 2 6 2.9 8.8 6.8 21.5 13.6 43 20 64.6-1.5-.8-2.8-1.5-3.7-2.5-14.9-15.1-29.8-30.4-44.6-45.6z"/><path fill="#a2988f" stroke="#a2988f" d="M324 714c-7.1 6.6-14.1 13.1-21.1 19.6-1.3 1.2-2.8 2.3-4.5 3.4-.7-.2-1-.3-1.3-.7.6-4.3 1.5-8.3 1.8-12.3 1.2-16.1 2.1-32.1 3.1-48.2.3-3.8.8-7.5 1.7-11.6.7.3 1.1.9 1.3 1.5 6.3 15.4 12.6 30.9 18.9 46.7.1.8.1 1.2.1 1.6z"/><path fill="#46423f" stroke="#46423f" d="M324.1 973c1.4-.7 3.4-1 4.2-2.1 12.1-16.5 24.1-33.1 36.2-49.7 6-8.3 12.3-16.4 18.3-24.7 1.6-2.1 2.7-4.5 4.4-7.3 1-.7 1.6-1 2.4-1 4.7 17.4 9.3 34.5 13.8 51.9-3.4 4.2-6.6 8-10.1 11.9-1.3 2.8-2.3 5.4-3.7 8.1-1.1 1.8-2.1 3.4-2.5 5.3-.9 3.5-1.4 7-2.5 10.6-1.8-.1-3.2 0-5-.1h-6c-1.8 0-3.2 0-5-.1-3.9-.1-7.3-.2-11.1-.4-11.4-.4-22.3-.7-33.2-1.2-.1-.6-.2-.9-.2-1.2z"/><path fill="#5f5a57" stroke="#5f5a57" d="M389.4 887.9c-.6.3-1.2.6-2.1 1-1-1.2-1.8-2.5-3.4-3.9-8.6-2-16.4-4-24.2-6-12.9-3.3-25.8-6.7-38.7-10 0-.7 0-1.5.3-2.6.8-.6 1.4-.7 1.6-1.1 9.9-12 19.6-24 29.5-36 5-5.9 10.3-11.5 15.6-17.2.2.1.6 0 .6.4 7 25.4 13.9 50.4 20.8 75.4z"/><path fill="#827974" stroke="#827974" d="M320.7 869.1c13.2 3.2 26.1 6.6 39 9.9 7.8 2 15.6 4 23.8 6-.6 1.1-1.6 2.8-2.9 3.2-21.4 5.7-42.9 11-64.2 16.8-11 3-21.8 6.8-32.7 10.1-1.6.5-3.2.6-5.2.9 6.4-7.6 13.2-15.3 20-22.9 6.7-7.5 13.5-15 20.4-22.8.6-.5 1.1-.8 1.8-1.2z"/><path fill="#b9b5ae" stroke="#b9b5ae" d="M323.8 973c.3.3.4.6.3 1.6-1.6 1.2-3 2.1-4.5 2.3-8.5 1.5-17 2.7-25.4 4.3-1.5.3-2.7 2-4.1 3.1 1.3 1.2 2.3 3 3.7 3.4 5.9 1.7 11.8 3.5 17.8 4.2 12.7 1.4 25.4 2.1 38 3.2.9.1 1.6 1.2 2.4 1.9-19.4-1.6-38.8-3-58.2-5-7.6-.7-15.2-2.4-22.8-4-1.4-.3-2.6-2-3.9-3 1.3-1.2 2.5-3.1 4.1-3.5 7.5-1.7 15.1-3.3 22.8-4.4 9.4-1.4 18.9-2.4 28.7-3.8.4-.2.6-.2 1.1-.3z"/><path fill="#dad7cf" stroke="#dad7cf" d="M699.8 608.7c-8.3 2-16.8 3.7-25.4 5.3-11 1.9-22.1 3.6-33.2 5.4-9.1 1.5-18.2 3.1-28 4.6-.9 0-1.1 0-1.2-.4 1-2.8 1.7-5.3 3.1-7.6 7.9-13.4 16.1-26.7 24.1-40.1 6.4 3 12.9 5.9 19.2 9.1 5.1 2.6 10.1 5.4 15.1 8.3 8.7 5 17.4 10.1 26.3 15.4z"/><path fill="#b7ada2" stroke="#b7ada2" d="M640.2 573.1c-.2.5-.5 1-1.3 1.7-5.8 3-11 5.8-16.3 8.4-9.5 4.6-19 9.2-28.7 13.8-.5 0-.6 0-.8-.4-3-5.5-5.9-10.7-8.9-15.9-6-10.2-12.1-20.5-17.8-30.7 1 0 1.8 0 2.8.1 15.9 5.6 31.3 11.2 46.9 16.4 7.8 2.5 15.9 4.3 23.8 6.5 0 0 .2.1.3.1z"/><path fill="#c1bdb7" stroke="#c1bdb7" d="m594.1 597 28.5-13.8c5.3-2.6 10.5-5.4 16.2-8.1.3 0 .4.4.4.6-8 13.6-16.2 26.9-24.1 40.3-1.4 2.3-2.1 4.8-3.4 7.6-1.1.8-1.8 1.1-2.6 1.1-.4-.8-.7-1.3-1.1-2.1-.7-1.6-1.4-2.9-2.1-4.2-3.9-7.2-7.9-14.3-11.8-21.4z"/><path fill="#e2dfd9" stroke="#e2dfd9" d="M323.9 712.1c-6.3-15.5-12.6-31-18.9-46.4-.2-.6-.6-1.2-1.2-1.9-.3-.6-.4-1-.6-1.6-.1-.7-.1-1.1-.1-1.8 5-2.5 9.9-4.5 14.7-6.9 13.4-6.7 26.6-13.6 39.9-20.3 5-2.5 10.1-5 15.2-7.5-.2-.4-.3-.8-.5-1.2-10.6-1.8-21.3-3.7-31.9-5.5-15.2-2.5-30.3-5-45.5-7.5-2.7-.4-5.5-.9-8.6-1.5 1.3-1.7 2.7-3.8 4.7-4.9 13.5-7.5 27-14.7 40.6-22 4.5-2.4 9.1-4.7 14.3-6.9 6.8 10.4 12.9 20.8 19.2 31.1 3.3 5.4 7.1 10.5 10.7 16.1v2c-.1.6-.1 1-.5 1.5-3.7 5.5-7.2 10.8-10.4 16.3-8.1 13.7-16 27.4-23.9 41.2-5.1 8.8-10 17.8-15.2 26.8-.5.3-.7.5-1.1.8-.5.1-.7.1-.9.1z"/><path fill="#8f877f" stroke="#8f877f" d="M345.9 573.3c-.8-10.1-1.3-20.1-2.2-30-1.2-14.1-2.7-28.3-3.6-42.9 5.2 2.4 10.1 5.1 14.8 8.1 8.8 5.6 17.5 11.3 26.2 17.1 11.7 7.7 23.3 15.6 34.7 23.7-11.6 4.4-23 8.6-34.3 12.8-10.9 4-21.7 8-32.9 12.1-1.1-.1-1.8-.2-2.5-.3 0 0-.1-.4-.2-.6z"/><path fill="#cdc6bd" stroke="#cdc6bd" d="M346 574.3c.8-.3 1.5-.2 2.7.2.9 1 1.2 1.9 1.9 2.2 11.3 5.8 22.7 11.5 34 17.4 2 1 3.7 2.6 5.4 4.3-4.7 8.4-9.4 16.5-14.1 24.6-3.6-5.2-7.4-10.3-10.7-15.7-6.3-10.3-12.4-20.7-18.8-31.1-.4-.7-.4-1.1-.4-1.9z"/><path fill="#b9b5ae" stroke="#b9b5ae" d="M646.1 194.9c1 7.8 1.9 15.7 3 23.5 1.5 10.9 3.3 21.8 4.6 33.1-.8.4-1.2.4-1.9.1-16.9-6.7-33.6-13.1-50.3-19.6-11.2-4.4-22.4-8.9-33.5-13.8 1.1-.9 2-1.7 3-2 11.2-3.5 22.5-6.9 33.7-10.3 13.1-3.9 26.2-7.8 39.6-11.7.8 0 1.2-.1 1.7.1 0 .2.1.6.1.6z"/><path fill="#382e28" stroke="#382e28" d="M646.5 194.9c-.4 0-.5-.4-.5-1-.5-2.3-.9-4.1-1.5-5.8l-14.7-42.9c.1-.1.2-.2.6-.2 9.8-3.5 19.2-7 28.6-10.4 9-3.2 18-6.4 27.4-9.6.5.1.8.1 1 .2-2.9 7.9-5.6 15.9-8.8 23.7-5.3 12.9-10.9 25.6-16.3 38.8-2.8 7.6-9 7.6-15.8 7.2z"/><path fill="#e1d8c5" stroke="#e1d8c5" d="M685.6 270.1c0 .6-.3 1.7-.7 1.8-2.3.2-4.6.1-8 .1 15.6 12.4 30.3 24.3 44.8 36.6-8.4 2.1-16.4 3.8-24.7 5.2-23.9-12-47.7-23.7-71.3-35.5-4.8-2.4-9.3-5.3-13.5-8.1 6.9.2 13.3.7 19.8.8 11.6.1 23.3 0 34.9 0h8.1c3.4-.3 6.8-.6 10.6-.9z"/><path fill="#f1eadc" stroke="#f1eadc" d="M674.7 270.9c-2.4.1-5.1.1-7.8.1-11.6 0-23.3.1-34.9 0-6.5-.1-12.9-.6-20.2-.8-1.4-.1-2.1-.2-2.9-.6-1.5-.7-2.9-1.1-4.6-1.4-.7-.3-1-.7-1.4-1.3.1-.5.1-.7.5-.9 2.6-.1 4.9.2 6.9-.3 13.4-3.8 26.7-7.8 40-11.8.7-.2 1.2-1.3 1.8-2h1.6c7.1 6.3 13.9 12.6 21 19z"/><path fill="#c7c2bb" stroke="#c7c2bb" d="M299 740.3c14.9 14.7 29.8 30 44.7 45.1.9 1 2.2 1.7 3.9 2.7.8.4 1.1.7 1.4 1.3 0 .7 0 1.2-.4 1.6-4.3 1.3-8.2 2.6-12 4-9.6 3.5-19.3 7-28.8 10.7-1.5.7-2.6 2.7-4.3 4.2-2.4.1-4.4.1-6.4.2 0 0-.1-.1-.1-.2.3-21.2.6-42.3 1-63.4.1-1.9.6-3.9 1-6.2z"/><path fill="#181512" stroke="#181512" d="M361.1 412.6c14-.8 28-1.2 42.6-1.2 11.8 7.2 23 14 34.4 21.1 4.4 2.5 7.4 7.5 13.2 6.5 13.5-2.5 27.1-5.1 41-7.5 1.2-.1 2-.2 3.2-.2 5.8 1.1 11.1 1.9 16.8 2.9 4.9 1.1 9.7 1.7 14.2 3.2 8.1 2.6 14.9 1.2 20.9-5.3 3.6-2.1 6.8-4 10-6 7.9-5 15.8-10 23.7-15.1 16.3.8 32.6 1.5 49.4 2.3-.1.6-.7 1.6-1.2 1.6-7.8-.7-13.3 3.1-18.2 8.4-.4.3-.9.5-2 .8-3 1.8-5.4 3.2-7.6 5-12.4 9.9-24.8 19.8-37.1 29.8-1.2.9-1.7 2.6-2.6 4.2 0 .4-.1.6-.4.8-1.7.3-3 .7-4.5.6-1.4-.7-2.8-1.4-4.1-1.4-41.6.3-83.3.6-125.3 1-1-.1-1.8-.1-2.5-.5-1.2-2.3-1.8-4.8-3.5-6.2-10.4-8.4-21-16.6-31.6-24.8-2.4-1.8-5.3-3.1-7.9-4.6l-.1-.3c-1-.8-1.9-1.3-2.9-1.7-5-3.5-10.1-7-15.1-10.5-1-.8-1.8-1.7-2.8-2.9z"/><path fill="#595552" stroke="#595552" d="M312.1 438.9c-.6-.5-1.2-1-2-1.7 4 .3 8.2.6 12.2 1.5 29 6 58 12.2 87.7 18.3 3.5 1.4 6.3 2.7 9 4.3-1.3 1.4-2.4 2.8-3.8 3.5-7.5 3.6-15 7-22.9 10.4-1.3-.4-2.3-.8-3.5-1.4-22.2-10.5-44.1-20.6-66.2-30.7-3.4-1.6-7-2.8-10.5-4.2z"/><path fill="#29231f" stroke="#29231f" d="M419 460.9c-2.7-1.2-5.5-2.5-8.6-3.9-4.2-4.3-7.9-8.8-11.9-12.9-5.3-5.3-10.8-10.3-16.4-15.8 2.5 1.2 5.4 2.5 7.8 4.3 10.6 8.2 21.2 16.4 31.6 24.8 1.7 1.4 2.3 3.9 3.1 6.2-2-.7-3.8-1.7-5.6-2.7zM379.2 426.3c.8.1 1.7.6 2.7 1.4-.8-.2-1.7-.7-2.7-1.4z"/><path fill="#cdc6bd" stroke="#cdc6bd" d="M609.1 625c.8-.3 1.5-.6 2.5-1h1.2c1.5 1.2 2.6 2.6 4.1 3.4 19.7 10.4 39.4 20.7 59.2 31 1.5.8 3.4 1.1 5.5 1.6.4.4.3.9.3 1.6-.2.9-.4 1.3-.6 2.1-3 7.4-6.2 14.5-9.2 21.6-3.7 8.7-7.3 17.4-11.4 26.5-1.1-.1-1.9-.5-2.7-1.2-.4-1.8-.7-3.3-1.4-4.5-5.2-9-10.7-17.8-15.9-26.8-8-13.9-15.9-27.8-24-41.7-2.2-3.7-5-7.1-7.6-11V625z"/><path fill="#9d9591" stroke="#9d9591" d="M389 474.1c1 .3 2 .7 3.4 1.5.5 1.6.5 2.8.9 3.9 5.2 13.9 10.6 27.8 15.7 41.8 3.2 8.8 6 17.8 8.8 27-.7.4-1.2.6-1.8.7-11.6-7.8-23.2-15.7-34.9-23.4-8.7-5.8-17.4-11.5-26.2-17.1-4.7-3-9.6-5.7-14.8-8.6-.8-.6-1.3-1.2-1.9-1.9-.2-.1-.2-.6.2-.8 1.2-.4 2-.5 2.8-.8 15-6.3 30.1-12.7 45.1-19.2 1.1-.5 1.8-2 2.7-3.1z"/><path fill="#a19d99" stroke="#a19d99" d="M675.6 436.7c-.1 1.6-.1 3.3-.9 4.8-8.5 17-17.2 33.9-25.8 50.9-.9 1.7-1.2 3.7-1.6 5.8-.4.5-1 .7-1.9.8-.4 0-.4 0-.5-.4-1.1-1.2-2.1-2.3-3.3-2.8-14.2-5.9-28.4-11.7-42.5-17.7-1.5-.7-2.7-2.1-3.9-3.5 11.9-5.7 23.6-11.2 35.3-16.7 14.6-6.9 29-13.9 43.5-20.8.4-.1.9-.2 1.6-.4z"/><path fill="#514d4a" stroke="#514d4a" d="M673.8 436.8c-14.3 7.2-28.7 14.2-43.3 21.1-11.7 5.5-23.4 11-35.7 16.8-1.2.7-1.9 1-3 1.2-10.3-4.1-20.2-8.1-30.1-12 0-.2.1-.4.5-.9 5.5-2.3 10.6-4.2 15.8-6.1 10.8-2.1 21.7-4 32.5-6.3 14.3-3 28.6-6.4 43-9.6 6.7-1.5 13.4-3 20.3-4.2z"/><path fill="#29231f" stroke="#29231f" d="M578 456.6c-5.2 2.2-10.3 4.1-15.7 6.1.4-1.2.9-2.9 2.1-3.8 12.3-10 24.7-19.9 37.1-29.8 2.2-1.8 4.6-3.2 7.2-4.9-.6 1.7-1.3 3.9-2.7 5.2-8.8 8.4-17.7 16.5-26.6 24.8-.6.5-.9 1.4-1.4 2.4z"/><path fill="#a2988f" stroke="#a2988f" d="M639.9 572.5c-7.9-1.7-16-3.5-23.8-6-15.6-5.2-31-10.8-46.8-16.7 5.3-4.8 10.8-9.3 16.6-13.2 12.2-8.1 24.5-15.9 36.8-23.7 7.4-4.7 14.9-9.3 22.3-13.9-.9 14.8-1.9 29.6-2.9 44.5-.6 9.5-1.4 19-2.2 29z"/><path fill="#7c7672" stroke="#7c7672" d="M297 810.3c2.1-.3 4.1-.3 7-.3 21.3-.1 41.7-.1 62.3-.1.7.5 1.2.8 1.7 1.4-.1.4-.1.6-.1.8-5.2 5.7-10.5 11.3-15.5 17.2-9.9 12-19.6 24-29.5 36-.2.4-.8.5-1.7.7-1.9-2.9-3.8-5.8-5.1-8.8-6.3-15.2-12.6-30.4-19-45.9-.1-.3-.1-.8-.1-1z"/><path fill="#86807c" stroke="#86807c" d="M388.8 473.8c-.7 1.4-1.4 2.9-2.5 3.4-15 6.5-30.1 12.9-45.1 19.2-.8.3-1.6.4-2.8.6-2-3.5-3.4-7-5.1-10.3-7-13.7-14.2-27.3-21.1-41.1-.8-1.6-.3-4-.3-6.3 3.7 1 7.3 2.2 10.7 3.8 22.1 10.1 44 20.2 66.2 30.7z"/><path fill="#3d3734" stroke="#3d3734" d="M299 123h-1.6c1.5-10.2 3.2-20.5 5.1-30.8 1.5-8.4 3-16.9 4.4-25.8.5-.8 1-1.1 1.8-1.4 5.8 4.4 11.2 8.8 16.9 13.1 6.6 4.9 13.3 9.6 20 14.6-.3.3-.5.3-1 .3-4.6 2.8-8.9 5.4-13.1 8.2-10.9 7.3-21.7 14.5-32.5 21.8z"/><path fill="#3b3330" stroke="#3b3330" d="M344.9 93h.9c12.3 4.6 24.5 9.2 36.9 13.8.7.1 1 .2 1.7.6 1.6 1.7 2.8 3.1 4 4.4 7.9 8.7 15.8 17.5 23.2 26.3-9.2 1.3-18.1 2.4-26.9 3.9-8.6 1.4-17.2 3.2-26.1 4.8-1.1.1-1.8.2-2.5.4 0-.2-.1-.4-.1-1.4-3.7-18-7.4-35.4-11.1-52.8zM687.7 125.2c-.5-.1-.8-.1-1.2-.5-.8-1.1-1-2.3-1.8-2.8-6.2-4.5-12.5-9.2-19-13.4-8.1-5.3-16.4-10.3-24.9-15.5-.6 0-.8-.1-1-.1 11.8-8.5 23.7-17 35.6-25.5.8-.5 1.7-.8 3-1.3 2.4 10.7 4.4 21.5 6.5 32.2.9 4.9 1.6 9.9 2.4 15.5.3 1.2.5 1.7.8 2.2.2 2.1.4 4.2.8 6.7.2.8.1 1.2.1 2-.3.4-.7.4-1.3.5z"/><path fill="#382e28" stroke="#382e28" d="M639.5 93.1c.5-.2.7-.1 1.2.3-1.2 7.2-2.8 13.9-4.2 20.7-2.2 10.3-4.3 20.6-6.5 30.9 0 0-.1.1-.4.2-.2 0-.5-.1-.6-.4-.2-1.2-.2-2.1-.7-2.8-5.9-8.3-11.8-16.7-17.8-25-2.4-3.1-5.1-6-7.6-9 .2-.3.3-.6.7-1.1 7-2.6 13.8-5 20.5-7.6 5.1-1.9 10.1-4 15.4-6.2z"/><path fill="#8f877f" stroke="#8f877f" d="M688.3 115.8c-.5-.3-.7-.8-.9-1.6.5.3.8.9.9 1.6z"/><path fill="#938e8c" stroke="#938e8c" d="M493 138h.8c-.1 1.1-.5 2.2-1 3.6-.7 0-1.1-.2-1.8-.8-3.9.4-7.5 1-11.1 1.7-8.6 1.8-17.2 3.7-25.9 5.5h-.2l.3-53c0-1.8.2-3.6.6-5.7 8.4 10.6 16.4 21.6 24.6 32.5 3.9 5.2 8 10.1 12.3 15.2.4.1.4 0 .5.3.3.4.6.5.9.7z"/><path fill="#a7a3a1" stroke="#a7a3a1" d="M431 177c-.7-1-1.5-2-2.6-3.4-5.1-11.2-9.8-21.9-14.5-32.9 0-.7 0-1.2.2-1.7.5-.1.6-.1.8-.1 12.7 3 25.4 6.1 38.5 9.1.4 0 .6 0 .6.3 0 .8 0 1.3-.3 1.8-4 4.6-7.5 9.3-11.2 13.9-3.7 4.4-7.6 8.7-11.5 13z"/><path fill="#d3cec6" stroke="#d3cec6" d="M414.9 138.5c-.2.4-.3.4-1 .4-.9-.3-1.4-.6-1.8-.9-7.9-8.7-15.8-17.5-23.7-26.2-1.2-1.3-2.4-2.7-3.8-4.4 11.2-3.7 22.4-7 34-10.4-.7 9.3-1.9 18.5-3 27.8-.5 3.6-.8 7.1-.9 10.9.3 1 .3 1.7.2 2.8z"/><path fill="#231d1a" stroke="#231d1a" d="M602.7 108c2.7 3 5.4 5.9 7.8 9 6 8.3 11.9 16.7 17.8 25 .5.7.5 1.6.3 2.7-2.2.2-4-.1-5.8-.3-15.3-1.8-30.5-3.6-46-5.7-.4-.9-.8-1.4-.9-2.3 8.8-9.6 17.5-19 26.1-28.4h.7z"/><path fill="#d3cec6" stroke="#d3cec6" d="M601.8 107.7c-8.4 9.7-17.1 19.1-26.2 28.7-.8.4-1.2.5-1.6.6-2.6-12.7-5.2-25.5-7.9-38.6 6.9 1.4 13.8 3.2 20.8 5 4.9 1.3 9.7 2.7 14.9 4.3z"/><path fill="#b1a8a2" stroke="#b1a8a2" d="M491.3 141.1c.4.3.8.5 1.5.8.2.1.6.2.9.6 7.6 24.1 15 47.7 22.4 71.7.3.8.6 1.4.6 2.2-8.4 16.6-16.4 33-24.9 50.2-2.8-6.6-5.3-12.4-7.9-18.1-4.9-10.8-9.9-21.6-15-32.7-.4-1.2-.6-2.1-.5-2.9 1.1-1.5 2.1-2.8 2.5-4.3 3.7-11.5 7.4-23 10.9-34.6 3.3-10.9 6.3-21.9 9.5-32.9z"/><path fill="#6a6561" stroke="#6a6561" d="M516.1 213.9c-7.4-23.7-14.8-47.3-22.2-71.3.7-3.4 2.4-2.4 4.5-1.8 10.5 2.9 21.1 5.5 32.2 8.6.5 1.1.5 1.8.4 2.9-.8 2.8-1.3 5.2-1.8 7.6-3 13.5-5.8 27.1-9 40.6-1 4.6-2.7 8.9-4.1 13.4z"/><path fill="#a7a3a1" stroke="#a7a3a1" d="M531.2 151.9c-.1-.7-.1-1.4-.2-2.5 0-19.4 0-38.4.1-58 5.3 5.2 10.8 10.5 15.7 16.3 8.2 9.7 16 19.7 24.1 29.4.4.6 1.4.6 2.5 1.1.3.6.1.8-.6.9-3.5 1.1-6.5 2.4-9.6 3.3-8.6 2.3-17.2 4.4-25.8 6.8-1.6.4-3 1.8-4.8 2.7h-1.4z"/><path fill="#231d1a" stroke="#231d1a" d="M361.8 358.9c12.5 3.5 25.1 7.5 38.3 11.7.7 1.3.8 2.3.5 3.4-2.8.8-5.2-4.9-8 0-14.4-1.8-28.5-3.5-42.5-5.2 3.2-2.1 6.5-4 9.6-6.2 1-.7 1.5-2.2 2.1-3.7m28.8 12.6s-.1.1 0 0z"/><path fill="#dad7cf" stroke="#dad7cf" d="M349.6 368.8c14.5 1.7 28.6 3.4 43.2 5.4 2.2.8 3.7 1.2 5 2-1.9.9-3.5 1.5-5.1 2.2-18.2-2.5-36.5-4.9-55.2-7.3-2.3-.2-4.1-.4-6.1-1.1.4-1.1.9-1.7 1.5-2.4 5.4.4 10.9.9 16.7 1.2z"/><path fill="#fff" stroke="#fff" d="M332.4 367.5c-.1.8-.6 1.4-1.3 2.3-7.8.1-15.4 0-23.6-.1-.4-.7-.4-1.3-.5-2.2 8.3-.2 16.6-.2 25.4 0z"/><path fill="#151310" stroke="#151310" d="M632.8 368.4c-12.3 2-24.6 3.8-37.5 5.2-1.1-1.7-1.7-3.2-2.3-4.6 4-1.5 8.1-2.9 12.7-4.1 6.1-1.1 11.7-2.5 17.3-3.9 3.2 2.4 6.5 4.7 9.8 7.4z"/><path fill="#302c2b" stroke="#302c2b" d="M623 360.6c-5.6 1.8-11.2 3.2-17 4.2 5.3-1.9 10.7-3.5 16.5-5.2.4.2.4.4.5 1z"/><path fill="#b9b5ae" stroke="#b9b5ae" d="M659.9 974.6c.9 0 1.8-.1 2.9-.4 7.4.5 14.7.8 21.8 1.9 5.8.9 11.6 2.5 17.3 4.1 1.2.3 2.6 2 2.7 3.1.1.8-1.6 2.4-2.8 2.7-5.9 1.7-11.8 3.5-17.8 4.4-10.6 1.5-21.3 2.5-32 3.6-1.4.1-3-.3-4.4-1 11.8-2.7 23.7-4.7 35.5-7 1.4-.3 2.5-1.7 3.7-2.7-1.2-1.1-2.4-3.1-3.8-3.3-7.6-1.2-15.3-2-23.5-3-3.8 0-7.1 0-10.5-.3 0-.6 0-1 .5-1.5 3.7-.2 7.1-.4 10.4-.6z"/><path fill="#afaba8" stroke="#afaba8" d="M660 977c7.7 1 15.4 1.8 23 3 1.4.2 2.6 2.2 3.8 3.3-1.2 1-2.3 2.4-3.7 2.7-11.8 2.3-23.7 4.3-35.8 6.7-.7.3-1.2.3-2.4.3-3.8.9-7.6-1.9-9.9 2-1.1 0-2.1 0-3.8-.3-2.5-.7-4.4-1.2-5.9-2 10-1.8 19.8-3 29.5-4.8 3.6-.7 6.9-2.6 10.6-4-2.3-2.9-3.9-4.9-5.4-6.9zM585.7 995.9c1.2-1.1 2.4-2.1 4.1-2.9 2.3.5 4.1 1 5.8 1 9.2-.3 18.3-.7 27.4-.6v2.6c-2.1 0-4.1 0-6.8-.3-3.7-.3-7-2.4-9.2 1.3-4 0-8.1 0-12.7-.3-3.3-.4-5.9-.6-8.6-.8z"/><path fill="#b9b5ae" stroke="#b9b5ae" d="M635.4 995c1.9-3.9 5.7-1.1 9.2-2-1.9 3.9-5.7 1.1-9.2 2zM607.4 997c1.8-3.7 5.1-1.6 8.3-1.3-2.4.6-5.1 1-8.3 1.3zM623.4 996c-.4-.8-.4-1.5-.1-2.6.8-.4 1.3-.4 1.7-.4 1.8.5 3.7 1 5.8 1.7-2.2.6-4.6 1-7.4 1.3zM585.5 995.9c2.9.2 5.5.4 8.3.8-2.7.4-5.6.5-8.7.3-.2-.7-.1-.9.4-1.1z"/><path fill="#d3d0ca" stroke="#d3d0ca" d="M492.9 137.8c-.2 0-.5-.1-.9-.5.3-.2.6 0 .9.5z"/><path fill="#46423f" stroke="#46423f" d="M362.2 353.3c-.1.3-.3.4-.9.1-.7-.2-1.1-.1-1.4 0-17.4-4.4-34.7-8.8-52.5-13.3 3.6-3.9 7.5-7.7 12-11.9 2 0 3.6.2 5.1.8 13.5 5.4 27 10.9 40.4 16.7-.3 2.7-.6 5-1.4 7.3-.7.2-1 .2-1.3.3z"/><path fill="#e2dfd9" stroke="#e2dfd9" d="M365 345.4c-13.5-5.5-27-11-40.5-16.4-1.5-.6-3.1-.8-5.1-1.1-3.3-1.3-6.1-2.7-9.1-4.7.3-.8.7-1.1 1.4-1.4 4 1.1 7.6 2.1 11.4 3.4.4.3.7.3 1.3.5 1.3.2 2.2.4 3.3.8.5.3.9.4 1.7.7 1.3.3 2.3.6 3.5 1.1 14.5 6 28.8 11.8 43.5 17.8 7.2 3.4 14 6.8 20.9 10 4.2 1.8 8.5 3.4 12.9 5.3.7 1.4 1.2 2.5 1.8 3.6h-.4c-1.6 0-2.9 0-4.2-.3-11-5.3-21.9-10.1-33.1-15.3-3.3-1.5-6.3-2.8-9.3-4z"/><path fill="#ede6d7" stroke="#ede6d7" d="M311.4 321.8c-.4.3-.8.6-1.4 1.2-7.5-1.7-14.8-3.7-22.2-5.6-1.3-.3-2.6-.3-4.4-.4-.7-.7-1-1.5-1.4-2.7 0-.3 0-.3.4-.3 2.2 0 3.9 0 5.8.3 7.9 2.7 15.6 5.1 23.2 7.5z"/><path fill="#46423f" stroke="#46423f" d="M556.1 995.6c-1.8 1.1-3.6 2.3-5.7 3.4-.8-4.7-.3-9.7-4.7-15.1-2.8 4.4-5.2 8.1-7.8 12.1-.9 0-1.6-.4-2.6-1.3-1.4-.8-2.4-1.2-3.4-1.6 0 0 .1-.1 0-.3-.4-.8-.7-1.3-.7-2 .3-10.3.3-20.2.3-30.2-.5 0-1.1-.1-1.6-.1-1 7.1-2.4 14.1-2.7 21.2-.3 4.6-1.2 7.1-6.5 6.1-1.7-5-3.2-9.7-4.8-14.9-4.6 4.5-4.2 10.2-5.5 15.3-.6 0-1 0-1.6-.3-3.8-4.3-7.4-8.3-11-12.6-.1-1.6-.3-2.7-.5-3.8-1.8-9.7.8-17.3 7.8-21.5 6.6 5.1 13.6 7.3 21.6 6 2.4-.4 4.9-.7 7.5-.8 5.5 5 10.9 9.5 18.7 7.8 4.4-1 8.7-2.1 13-2.7-.6 2.5-1.3 4.6-1.9 6.9 0 .5 0 .6-.3 1.1-.6 9.9-4.4 18.5-7.6 27.3z"/><path fill="#4d4743" stroke="#4d4743" d="M447.6 995.2c-3-2.6-5.6-5.3-8.2-8.1-1.5 3-2.9 5.9-4.3 8.9-.4.7-.5 1.5-1.2 2.6-2-.7-3.5-1.6-5-2.9-3-6.6-5.9-12.8-8.9-19.1h-1c0 6.2 0 12.3-.3 18.7-3.4 1.1-6.5 1.9-9.6 2.7-.6-.8-1.3-1.6-1.6-2.7 1-1.3 2.1-2.3 2.5-3.4 1.8-5.6 3.5-11.3 5-16.9.8-3.1 1.4-6.2 1.6-9.4.2-2.2-.3-4.6-.3-6.7 1.1.8 1.9 1.4 2.7 2.5 2.8 10.9 3.7 10.3 12.5 9.2 4.4-.6 8.4-4.3 12.9-6.7 1.4-.3 2.5-.6 4-.9 1.8 0 3.2 0 4.6.4.4 2.3 1 4.3.9 6.2-.2 7.5-.6 15-.9 22.5-1.7 1-3.4 1.9-5.4 3.1z"/><path fill="#7c7672" stroke="#7c7672" d="M509 988.2c.4 0 .8 0 1.5.3 2.2 2 3.9 3.7 5.6 5.4-15.2.4-30.3.7-45.8.6.7-2 1.8-3.6 3.3-5.3 1.4-.1 2.4-.2 3.8-.2h27.9c1.2 0 2.5-.6 3.7-.8z"/><path fill="#3b3330" stroke="#3b3330" d="M521 988c5 .8 5.9-1.7 6.2-6.3.3-7.1 1.7-14.1 2.7-21.2.5 0 1.1.1 1.6.1 0 10 0 19.9-.7 30.2-2.4.6-4.1 1-5.8 1.4-.4 0-.8 0-1.9-.1-1.1-.1-1.6-.2-2.1-.6V988z"/><path fill="#302c2b" stroke="#302c2b" d="M473.2 989.3c-1.1 1.6-2.2 3.2-3.4 5.1-2.1-.2-4.1-.6-6.5-1.5-.3-.5-.3-.7-.3-1.2 1.8-6.3 3.7-12.2 5.5-18.1.6 0 1.2-.1 1.8-.1 1 5.2 2 10.5 2.9 15.8z"/><path fill="#2d2523" stroke="#2d2523" d="M520.7 987.8c.3 1.3.3 2.3 0 3.9-.7 1.1-1.1 1.8-1.6 2.4-.7 0-1.5 0-2.7-.1-2-1.8-3.7-3.5-5.6-5.4.9-5.5.5-11.2 5.1-15.7 1.6 5.2 3.1 9.9 4.8 14.9z"/><path fill="#3b3330" stroke="#3b3330" d="M453.4 992.1c-.1-7.5.3-15 .5-22.5.1-1.9-.5-3.9-.9-6.5 0-1.2 0-1.7.4-2 1.1 1.7 2.5 3.4 2.5 5.1.2 8.5 0 17 0 25.6 0 .1.1.3.1.3h-2.6z"/><path fill="#7c7672" stroke="#7c7672" d="M462.9 992.1c.1.1.1.3.1.8-2.3.1-4.6.1-6.9-.4-.1-.4-.2-.6.2-.6 2.5 0 4.6.1 6.6.2zM525.3 992.5c1.4-.7 3.1-1.1 5.2-1.5.7.5 1 1 1.3 1.8-2 .2-4.1.1-6.5-.3zM519.5 994.1c.1-.6.5-1.3 1.2-2 .8-.2 1.3-.1 2.1.1-.8.7-1.9 1.3-3.3 1.9zM532 993.5c.9 0 1.9.4 3 1-.9 0-1.9-.3-3-1z"/><path fill="#e2dfd9" stroke="#e2dfd9" d="M697.2 314.1c8.1-1.7 16.1-3.4 24.6-5.2h1c-1 1.1-2 2.5-3.4 3-4.6 1.8-9.3 3.3-14.2 5.1-12.9-.3-23.9 5.5-35.4 8.8-.7.2-1.2 1.2-2.2 1.9-3 .8-5.5 1.5-8.5 2.2-16 6.6-31.7 13.2-47.8 19.9-10.8 4.7-21.2 9.4-31.5 14.2-.8.3-1.3 1.3-2.4 2-2 .3-3.7.3-5.1.9-4.7 2.2-9.2 4.6-13.8 6.8-2.4 1.1-5 1.7-7.4 2.6l-.6-1.5c6.8-3.2 13.6-6.3 20.3-9.7 1.4-.7 2.3-2.3 3.8-3.4 1 .2 1.8.6 2.2.4 10.8-5.2 21.6-10.5 32.8-15.7 15.4-6.3 30.4-12.6 45.9-18.8 2.8-1.2 5.3-2.3 8.2-3.5 11.4-3.3 22.5-6.7 33.5-10z"/><path fill="#29231f" stroke="#29231f" d="M659.5 329.8c2.6-.6 5.1-1.3 8.1-1.7 4 3.9 7.6 7.5 11.3 11.5-2 .9-4 1.4-6.4 1.6-4-4.8-6-10.9-13-11.4z"/><path fill="#595552" stroke="#595552" d="M573.2 139.2c.3-.2.5-.4.6-1 0-.2.1-.7.2-.9.4-.4.8-.5 1.4-.6.6.6 1 1.1 1.3 2.3.4 1.9.5 3.4 1.3 4.3 3.9 4.5 8.2 8.7 12 13.3 2.6 3.2 4.7 6.9 6.6 10.4-12.8 2.4-25.2 4.7-37.5 6.6 2-5.2 4-10 6-14.8 2.7-6.6 5.4-13.1 8.1-19.6z"/><path fill="#d3cec6" stroke="#d3cec6" d="M591.7 395c-4.3.3-8.6.7-13.3.6 2.9-4.2 1.2-6.9-2.5-9-2.5-1.4-5.3-2.4-7.7-3.9 6.1-1.1 11.9-1.9 17.9-2.3 2.2.8 4.2 1.8 6.2 1.7 7.6-.1 15.2-.6 22.8-.5 1.7.7 3.3 1.2 4.9 1.5 2 .3 4 .5 6 .8 0 0-.1.4-.4.6-.3.1-.7.3-.7.3H619c-8.6.5-16.3.9-24.4 1.3-1.2.9-2.5 1.6-2.7 2.6-.3 2.1-.1 4.2-.2 6.3z"/><path fill="#231d1a" stroke="#231d1a" d="M595 386.2c7.7-.5 15.4-.9 23.5-1.3 1.5 3.5 2.5 7 3.5 10.8-7.7.3-15.3.2-23.6-.3-3.6-2.7-3.8-5.8-3.4-9.2z"/><path fill="#fff" stroke="#fff" d="M626.5 383.9c-2.5-.3-4.5-.5-6.5-.8-1.6-.3-3.2-.8-4.4-1.6 4.7-.5 9.1-.5 13.9-.2 3.2.7 6 1.1 8.8 1.5-3.8.4-7.5.8-11.8 1.1z"/><path fill="#d3cec6" stroke="#d3cec6" d="M638.3 382.8c-2.8-.4-5.6-.8-8.3-1.7 3-.4 6-.3 9.2.1 0 .5-.2.7-.3.9 0 .4-.2.6-.6.7z"/><path fill="#231d1a" stroke="#231d1a" d="M625.1 385.1c-.2-.3.2-.5.4-.4.9.2 1.7.4 2.5.6-.1.2-.1.4-.1.6-.9-.2-1.8-.4-2.8-.8z"/><path fill="#46423f" stroke="#46423f" d="M638.9 382.1c.1-.2.3-.4.2-.9-.1-.3-.3-.3-.3-.3 0 .2-.1.4.1.9.2.3 0 .4 0 .3z"/><path fill="#afaba8" stroke="#afaba8" d="M352.4 997c-1.2-.7-1.9-1.8-2.8-1.9-12.6-1.1-25.3-1.8-38-3.2-6-.7-11.9-2.5-17.8-4.2-1.4-.4-2.4-2.2-3.7-3.4 1.4-1.1 2.6-2.8 4.1-3.1 8.4-1.6 16.9-2.8 25.4-4.3 1.5-.2 2.9-1.1 4.5-2.1 11.1-.1 22 .2 33.4.8.5.7.5 1.1.1 1.4-3.2.3-5.9.6-8.8.7-2.1-.1-4 .1-6.1.3h-2.2c-8.6 1.1-16.7 2.1-24.8 3.4-1.3.2-2.4 1.9-3.6 3 1 .8 1.7 2.1 2.8 2.5 3.4 1.2 6.9 2.6 10.4 3 12.9 1.6 25.9 2.7 38.8 4.2 1.4.1 2.6 1.2 3.9 1.9-3.8.1-7.6.3-11.7.7-1.4.3-2.4.3-3.9.3z"/><path fill="#d3d0ca" stroke="#d3d0ca" d="M366.2 396.1c2.9-.2 5.4-.2 8.3.2.5 1.2.5 2 .1 2.9-6.8.8-13.2 1.3-19.6 1.9 0 0 0-.2-.1-.7-2-1-3.9-1.6-5.9-2.2 5.7-.6 11.3-1.3 17.2-2.1z"/><path fill="#fff" stroke="#fff" d="M348.7 398.1c2.3.7 4.2 1.3 6.2 2.2-1.3.5-2.7.6-4.5.7-2-.6-3.5-1.3-5.2-2.3 1-.4 2-.5 3.5-.6z"/><path fill="#e6decb" stroke="#e6decb" d="M288 314h-5.6c-5.5-1.3-10.5-2.6-15.6-4-1.2-.3-2.3-.9-3.6-1.7 5.7-5.3 11.6-10.4 17.6-15.2 7.8-6.1 15.8-12 23.6-18.1 1.2-1 2-2.7 3.3-4 1.8.3 3.4 1 5 1 16.4-.3 32.8-.7 49.2-1 2.9 0 5.9.3 8.8 1.2-1.4 1.4-2.8 2.4-4.3 3.1-26.1 12.9-52.3 25.8-78.4 38.7z"/><path fill="#fcfcfb" stroke="#fcfcfb" d="M586 380c-5.9.8-11.7 1.6-18.2 2.7-2.6-.4-4.6-1.4-6.6-1.6-13.1-1.1-26.3-2-39.7-3.1-5-4.1-9.8-8-14.5-12.3 2.9-6.1 5.7-11.9 8.9-17.4 5.2-9.2 10.6-18.2 16.3-27.1 14.2 13.6 28.1 27 42.1 40.3-1.2 1.3-2.1 2.9-3.5 3.6-6.7 3.4-13.5 6.5-20.3 9.7l.6 1.5c2.4-.9 5-1.5 7.4-2.6 4.6-2.2 9.1-4.6 13.8-6.8 1.4-.6 3.1-.6 5.4-.6 2.2 1.1 3.8 2 5.3 2.8.3.6.6 1.2.9 2.2-.9 3.2.5 4.3 3.1 4.8 1.2.6 2.5 1.2 3.5 2.1-1.6.8-3.1 1.3-4.5 1.8m-38.2-3.7c.1.1.1.3.2.4 0-.1.1-.3-.2-.4z"/><path fill="#403936" stroke="#403936" d="M659.1 329.9c7.4.4 9.4 6.5 13 11.3-14 4-27.9 7.6-41.9 11.2-.8.3-1.6.5-2.8.4-2.1-.4-3.7-.4-5.2-.7-3.6-.7-7-1.5-10.5-2.3 15.7-6.7 31.4-13.3 47.4-19.9z"/><path fill="#29231f" stroke="#29231f" d="M611.3 349.8c3.9.8 7.3 1.6 10.9 2.3 1.5.3 3.1.3 4.8.8-14.5 5.4-29 10.6-43.8 16-1.7-.6-3.3-1.5-5.1-2.6.4-1 .9-2 1.7-2.3 10.3-4.8 20.7-9.5 31.5-14.2z"/><path fill="#403936" stroke="#403936" d="M587.3 376c-2.9-.4-4.3-1.5-3-4.6 2.7-1 5.3-1.7 8.3-2.5 1 1.5 1.6 3 2.3 4.7-2.3 1-4.8 1.6-7.6 2.4z"/><path fill="#fcfcfb" stroke="#fcfcfb" d="M407.5 365c1.2 0 2.5 0 4.3.2.8.2 1.2.2 1.5.2-.4-.2-.9-.3-1.3-.4-.6-1.1-1.1-2.2-1.6-3.9 14.1-13.8 28.3-27 42.7-40 6.5 10.4 12.7 20.5 18.7 30.8 2.4 4 4.1 8.4 5.8 12.9-5.6 5.4-11 10.6-16.5 15.5-.7-.7-1.4-.9-2.5-1.2-13.1.7-25.8 1.4-38.9 2.1-1.1.2-1.9.5-3 .8-.8.1-1.2.1-1.7.1-3.4.3-6.8.3-10.1.9-2.8.4-4.7-.3-6.2-3-2-.4-3.7-.8-5.7-1.4 1.3-.9 2.9-1.5 5.1-2.5 1.3-.9 2.1-1.5 2.8-2.1 0-1.1-.1-2.1-.4-3.4.3-1 .9-1.7 1.9-2.8 2-1.2 3.5-2 5.1-2.8m8.4 2.8c2.7 1.3 5.5 2.7 8.2 4 .2-.4.4-.7.6-1.1-2.1-1.3-4.1-2.7-6.2-3.8-.8-.4-2 .2-2.6.9m14.2 6.8c-.6-.8-1.3-1.5-1.9-2.3l-.9.9c.7.5 1.5 1 2.8 1.4m3.1 1.1c-.1-.1-.1-.3-.2-.4 0 .1-.1.3.2.4m3.2.8s.1-.1 0 0z"/><path fill="#302c2b" stroke="#302c2b" d="M407.4 364.7c-1.5 1.1-3 1.9-4.9 2.7-7.3-2.5-14.2-5.1-21.2-7.4-6.3-2.1-12.6-4-19-6.3.2-.5.5-.5 1.7-.6 4 .3 7.1.6 9.6.9.5-2 .7-3.2 1-4.3 10.9 4.9 21.8 9.7 32.8 15z"/><path fill="#3d3734" stroke="#3d3734" d="M360.2 353.5c0-.2.4-.3.9-.2-.2.3-.4.3-.9.2z"/><path fill="#a7a3a1" stroke="#a7a3a1" d="M580.6 411c-7.4 5.1-15.3 10.1-23.2 15.1-3.2 2-6.4 3.9-10.1 5.7-3.9-6.3-7.1-12.4-10.6-18.3-2.4-3.9-5.1-7.7-7.6-11.9-.7-2.8-1.4-5.2-2.1-8-.7-3.8-1.5-7.1-1.9-10.5 3.2 3 6.1 5.9 8.7 9.1-2.5 2.7-2 5.4.7 6.6 2.6 1.1 5.7.9 8.8 1.4.4.7.5 1.2.4 1.9-1.8 3.3-3.3 6.6-4.7 9.9 5.3 0 10.6.1 16-.1 8.3-.2 16.7-.6 25.6-.9z"/><path fill="#afaba8" stroke="#afaba8" d="M539.4 412c1-3.3 2.5-6.6 4.6-9.9 2.2-.4 3.6-.7 5-1 10.4-.9 20.8-1.9 31.2-2.6 3.1-.2 6.2.6 9.5 1.5-1.3 2.8-2.8 4.9-4.2 7-15.5-.4-30.8 0-46.1 5z"/><path fill="#231d1a" stroke="#231d1a" d="M586 407.2c.9-2.3 2.4-4.4 3.9-6.9 12.2-.1 24.3 0 36.8.4.3 2.2.3 4.4.3 6.4 2.5.7 4.6 1.3 6.8 2.3-3.2.1-6.6-.2-10.6-.6-1.2-.1-1.8 0-2.3 0-11.5-.5-23-1-34.9-1.6z"/><path fill="#afaba8" stroke="#afaba8" d="M621 409c.4-.2 1-.3 1.8-.2-.4.3-1.1.4-1.8.2z"/><path fill="#b9b5ae" stroke="#b9b5ae" d="M459.1 379.1c.6.3 1.3.5 2.1 1.5-.6 2.6-1.3 4.5-2.3 6.7-1 2.6-1.6 5-2.5 7.7-.9 2.3-1.5 4.5-2.3 6.9-.9 1.6-1.6 2.9-2.3 4.2L438 432.2c-11.3-6.8-22.5-13.6-33.9-20.7 2.5-.6 5.2-1.2 7.8-1 9.7 1 19.3 2.3 30 3.5-1.7-1.1-2.6-1.8-3.7-3-1.2-2.4-2.2-4.2-2.8-6 3.2.7 6 1.3 8.8 2 .2-.4.3-.8.5-1.2-2.9-1.3-5.8-2.6-8.5-4.2 1.7-1.7 3.2-3.2 4.8-4.6 5.6-4.8 11.2-9.5 16.7-14.3.8-.8.9-2.4 1.4-3.6m-12.7 28.4.1.1s0-.2-.1-.1z"/><path fill="#c7c2bb" stroke="#c7c2bb" d="M435 405c1 1.8 2 3.6 2.9 5.7-8.5-1.1-17-2.7-25.5-4-3.9-.6-7.9-.5-12.6-.8-2.5-1.6-4.3-3.2-6.1-4.8 1.9-4.8 6.5-2.2 10.3-3.8 1.1-.3 1.5-.3 2.1.1 4 .8 7.9 1.2 12.1 1.9 5.8 2.1 11.3 3.9 16.8 5.7z"/><path fill="#29231f" stroke="#29231f" d="M393.5 400.9c2 1.8 3.8 3.4 5.8 5-.9.4-2.1 1.1-3.4 1.1-12 .7-24 1.3-36.4 1.5.6-2.1 1.6-3.8 2.5-5.5.2 0 .4 0 .5-.1.2-.1.3-.3.5-.5-2.5-.3-5-.5-7.7-1 6.1-.9 12.5-1.4 19.8-2.1 5.9-.3 10.9-.4 15.9-.6.7.7 1.5 1.3 2.5 2.2z"/><path fill="#3b3330" stroke="#3b3330" d="M361.6 403c-.5 1.7-1.5 3.4-2.5 5.5-5.8 1.1-11.5 1.9-17.7 2.4-1.2.1-1.8.4-2.4.8-2.4.3-4.8.6-7.7.9 1.2-1 2.6-2.4 4.3-3 5.5-1.7 10.2-6.1 17-4 2.3.7 5.7-1.6 9-2.6z"/><path fill="#4d4743" stroke="#4d4743" d="M339.2 411.7c.4-.4 1-.7 1.7-.8-.4.5-.9.7-1.7.8z"/><path fill="#c7c2bb" stroke="#c7c2bb" d="M549.1 400.7c-1.5.7-2.9 1-4.7 1.3-.6-.6-.7-1.1-1.2-2.2-3.2-2.9-6.2-5.4-9.1-7.8-2.9-3-5.8-5.9-9.2-9.1-1.4-1.7-2.3-3.3-3.1-4.8 13.1 1 26.3 1.9 39.4 3 2 .2 4 1.2 6.4 1.9 3 1.2 5.8 2.2 8.3 3.6 3.7 2.1 5.4 4.8 2.1 9-9.2 1.4-18.3 2.4-27.4 3.6-.6 0-1 .7-1.5 1.5z"/><path fill="#3b3330" stroke="#3b3330" d="M594.6 386.1c0 3.5.2 6.6 3.4 9.2-1.9.3-3.8.3-6 0-.2-2.4-.4-4.5-.1-6.6.2-1 1.5-1.7 2.7-2.6z"/><path fill="#1d1815" stroke="#1d1815" d="M586.1 380.4c1.3-.9 2.8-1.4 4.6-1.9 13.2-2 26-4 39-5.9 2.1-.3 4.2-.3 6.8-.4 2.8 2.2 5.2 4.4 7.8 6.9.1.5 0 .6-.6.6-1.3 0-2.1.2-2.8.5-.4.1-.7.2-1.6.5-.5.2-.3.2-.3.2-3-.1-6-.2-9.5-.1-4.8.2-9.2.2-14 .3-8 .4-15.6.9-23.2 1-2 .1-4-.9-6.2-1.7z"/><path fill="#d3cec6" stroke="#d3cec6" d="M458.6 379.1c0 1.2-.1 2.8-.9 3.6-5.5 4.8-11.1 9.5-16.7 14.3-1.6 1.4-3.1 2.9-5.2 4.6-5.9-1.3-11.4-3-17.2-4.8-3.7-.7-7.2-1.3-10.8-1.8h-.8c-.4-.9-.7-1.8-1.1-2.7-1.9-3.8-.8-6.1 3.2-7.3 1.9-.6 3.8-1.4 5.8-2.5.6-.4 1-.4 2-.2 1.4-.2 2.3-.6 3.1-1 12.8-.8 25.5-1.5 38.6-2.2z"/><path fill="#fcfcfb" stroke="#fcfcfb" d="M391.1 398.4c-5.1.5-10.1.6-15.6.7-.5-.8-.5-1.6-.5-2.7 4.6-.5 9.2-.7 14.2-.7 1 .8 1.5 1.6 1.9 2.7z"/><path fill="#3d3734" stroke="#3d3734" d="M390.4 395.1c0-1.4-2.9-3.9 1.2-4.1 0 1.4-.4 2.8-1.2 4.1z"/><path fill="#e2dfd9" stroke="#e2dfd9" d="M406.7 395c.3 0 .8 0 1 .3-.4.8-1.1 1.3-1.7 1.7h-1.7c.5-.6 1.2-1.3 2.4-2z"/><path fill="#d3cec6" stroke="#d3cec6" d="M394.5 392c.5-.4 1.1-.5 1.7-.6v1.2c-.6-.1-1.2-.2-1.7-.6z"/><path fill="#5f5a57" stroke="#5f5a57" d="M416 958.8c.3 2.2.8 4.6.6 6.8-.2 3.2-.8 6.3-1.6 9.4-1.5 5.6-3.2 11.3-5 16.9-.4 1.1-1.5 2.1-2.6 3.1-4.3-8.3-11.2-10.2-20.4-9.2-1.2-3.4-1.6-6.6-2-9.8.7-3.6 1.2-7.1 2.1-10.6.4-1.9 1.4-3.5 2.9-5.2 5.5 6.5 5.5 6.5 12.7 2.9 3.4-1.7 6.7-3.6 10.1-5.2.8-.3 2.1.6 3.2.9z"/><path fill="#938e8c" stroke="#938e8c" d="M341 978c.5 0 .9 0 1.9.3 2.4.1 4.3-.1 6.1-.3 2.7-.4 5.4-.7 9-1 3.6 0 6.3 0 9 .4-2.6 2-5.2 3.6-8.8 5.9 2.7 1.5 4.6 3.2 6.7 3.6 6.5 1.3 13 2.1 19.5 3.1 2.2.3 4.5.4 6.7.7 1 .8 2.1 1.6 2.8 2.8-.8.4-1.4.5-2.3.5-1.8 0-3.2 0-4.9-.3-10-1.1-19.7-1.7-29.4-2.8-6.2-.7-12.4-1.9-18.5-3.2-1.4-.3-3.3-2.1-3.5-3.5-.1-1.1 1.9-2.6 3-3.8.8-.9 1.8-1.6 2.7-2.4z"/><path fill="#86807c" stroke="#86807c" d="M391 990.4c-2.1 0-4.4-.1-6.6-.4-6.5-1-13-1.8-19.5-3.1-2.1-.4-4-2.1-6.7-3.6 3.6-2.3 6.2-3.9 9.1-5.9.8-.4 1.3-.4 1.9-.1 1.8-.3 3.3-.9 4.9-1.4.7 0 1.4 0 2.7.3 1.4.1 2.3-.1 3.2-.2 1.4 0 2.8-.1 4.6 0 .8 3.2 1.2 6.4 1.9 9.8 1.7 1.6 3 2.9 4.5 4.6z"/><path fill="#afaba8" stroke="#afaba8" d="M429 996.1c1.4.9 2.9 1.8 4.7 2.8.3.2.4.4.3.9-8.4.2-16.7.2-25.5.2-.2-.5.1-1 .5-1.7 3.2-1.1 6.3-1.9 10.2-2.9 3.7.1 6.7.4 9.8.7zM398 998.3c-1 .7-1.9 1.2-3.4 1.6-.6-.8-.6-1.5-.5-2.8.4-1.5.6-2.4.9-3.2 1 1.4 2 2.8 3 4.4z"/><path fill="#a19d99" stroke="#a19d99" d="M394.9 993.8c-.2.9-.4 1.8-.8 2.9-.5.3-1 .3-1.8-.1-.3-1.1-.3-1.8-.3-2.6.5 0 1.1-.1 2.1-.2.4-.1.7-.1.8 0z"/><path fill="#4d4743" stroke="#4d4743" d="M575.9 998.9c-1.7-.6-3.4-1.6-5-3.4 1.3-10.6-1.9-19.5-4.9-28.9.3-2.5.7-4.5 1.2-6.8.1-.7-.1-1.3-.1-2.2 1.9-.3 4-1 5.4-.4 4.2 1.9 8 4.6 12.2 6.5 5.3 2.4 6.4 1.8 8.6-3.5.5-1.1.8-2.2 1.4-3.2 1.7 6.4 3 12.6 4.3 19.3-1 3.8-2 7.3-3 10.7-1.6-.6-3.3-1.8-4.8-1.7-8.3.5-12.9 5.7-15.3 13.6z"/><path fill="#a19d99" stroke="#a19d99" d="M625.3 992.7c-.7.3-1.2.3-2 .3-9.4.3-18.5.7-27.7 1-1.7 0-3.5-.5-5.5-1.1 1.2-1.6 2.7-2.7 4.6-3.6 1.7.7 3 1.7 4.2 1.6 9.5-.7 19-1.6 28.4-2.5 5.5-.5 10.4-2.2 15.2-5.7-2.5-2.2-4.5-3.9-6.1-5.7h23.1c2 2 3.6 4 5.9 6.9-3.7 1.4-7 3.3-10.6 4-9.7 1.8-19.5 3-29.5 4.8z"/><path fill="#938e8c" stroke="#938e8c" d="M636 977.1c2 1.7 4 3.4 6.5 5.6-4.8 3.5-9.7 5.2-15.2 5.7-9.4.9-18.9 1.8-28.4 2.5-1.2.1-2.5-.9-3.9-1.8-.1-.7.1-.9 1-1.1 5.6-.7 10.5-1 15.2-2.1 1.8-.4 3.1-2.4 4.7-3.6-2-1.4-3.8-3.4-6-4.2-3.2-1.1-6.6-1.5-9.5-2.2 2.1-.2 3.8-.4 5.7-.3.9-.1 1.4-.3 2.4-.5 3.5.2 6.6.3 9.8.8 6 .6 11.8.9 17.7 1.2z"/><path fill="#8f877f" stroke="#8f877f" d="M600 975.9c3.3.7 6.7 1.1 9.9 2.2 2.2.8 4 2.8 6 4.2-1.6 1.2-2.9 3.2-4.7 3.6-4.7 1.1-9.6 1.4-15 2-.5 0-.4-.5-.3-.7 1.1-3.6 2.1-7.1 3.3-10.9.5-.4.6-.4.8-.4z"/><path fill="#403936" stroke="#403936" d="M566 967c3 9 6.2 17.9 4.9 28.2-1.7.3-3.4.1-5.5-.6-.4-7-.3-13.5-.5-20 0-2.2-.6-4.4-.9-6.6 0-.2 0-.3.3-.8.8-.2 1.3-.2 1.7-.2z"/><path fill="#3b3330" stroke="#3b3330" d="M563.7 968.3c.6 1.9 1.2 4.1 1.2 6.3.2 6.5.1 13 .1 19.9-2.7.6-5.4.9-8.5 1.1 2.8-8.8 6.6-17.4 7.2-27.3z"/><path fill="#46423f" stroke="#46423f" d="M641.1 380.3c.5-.4 1.3-.6 2.3-.6-.5.4-1.3.6-2.3.6z"/><path fill="#afaba8" stroke="#afaba8" d="M391.6 994c.4.8.4 1.5.4 2.6-4 .4-8.1.4-12.6.4h-8.9c-.5-.1-.5-.3-.2-1 2.1-.7 3.9-.8 5.7-1 3.6-.3 7.3-.6 11-1h4.6z"/><path fill="#a19d99" stroke="#a19d99" d="M386.7 993.7c-3.4.7-7.1 1-10.7 1.3-1.8.2-3.6.3-5.7.7-.7.3-1.2.3-2 .3-1.6-.7-2.8-1.8-4.2-1.9-12.9-1.5-25.9-2.6-38.8-4.2-3.5-.4-7-1.8-10.4-3-1.1-.4-1.8-1.7-2.8-2.5 1.2-1.1 2.3-2.8 3.6-3 8.1-1.3 16.2-2.3 24.8-3.4-.4.8-1.4 1.5-2.2 2.4-1.1 1.2-3.1 2.7-3 3.8.2 1.4 2.1 3.2 3.5 3.5 6.1 1.3 12.3 2.5 18.5 3.2 9.7 1.1 19.4 1.7 29.4 2.8z"/><path fill="#e7e4d9" stroke="#e7e4d9" d="M596.4 884.9c-.2.5-.4 1-.8 2.1-5 18-10 35.4-15.2 52.8-1 0-1.6 0-2.3.1 0 0 .1 0 .1-.2 0-.4-.1-.6-.3-1-2.8-2.6-5.7-4.6-8-7.2-6.8-7.7-16.8-7.1-25.4-10-.7-.3-1.7.6-3 1.1-6.4 2.2-12.4 4.3-18.3 6 2.8-12.8 5.5-25.2 8.4-37.6.4-.7.4-1.3.4-2.4.2-1.4.4-2.5.9-3.6 1.6-.4 3-.6 3.9-1.4 15-13.6 30-27.2 44.9-40.8 8.7-7.9 17.4-15.9 26-23.9 2.6-2.5 4.9-5.3 7.6-7.7.6.9.8 1.6.9 2.6-1.9 6.7-3.6 13-5.4 19.4-4.8 17.2-9.6 34.4-14.4 51.7z"/><path fill="#302c2b" stroke="#302c2b" d="M580.7 939.8c4.9-17.4 9.9-34.8 15-52.5 12.4 16 24.5 32.5 36.8 48.8 8.4 11.2 17 22.2 25.4 33.4 1 1.3 1.4 3 2 4.8-3.3.5-6.7.7-10.9.8-10.9.1-20.9.3-30.9.5-3-.2-6.1-.3-9.7-.7-1.3 0-1.9.3-2.5.5-1.7.1-3.4.3-5.5.5-.6 0-.7 0-1.2-.1-1.5-6.2-2.8-12.4-4.5-19.1-2-2.3-3.6-4-5.3-6.1-3-3.8-5.8-7.3-8.7-10.8z"/><path fill="#403936" stroke="#403936" d="M596.9 884.9c4.3-17.3 9.1-34.5 13.9-51.7 1.8-6.4 3.5-12.7 5.6-19.5.4-.4.7-.7 1.1-.6 9 10.3 17.7 20.6 26.5 30.8 6.3 7.4 12.6 14.7 18.9 22.5-2.9 1.7-5.7 3.6-8.7 4.5-17.7 4.8-35.5 9.4-53.2 14.1-1.2 0-2.4 0-4.1-.1z"/><path fill="#595552" stroke="#595552" d="M601.1 885.4c17.6-5.1 35.4-9.7 53.1-14.5 3-.9 5.8-2.8 9-4.5.5-.4.7-.4.8-.1 0 .8 0 1.3.2 2 7.5 8.8 14.9 17.2 22.3 25.7 5.2 6 10.3 12 15.5 18-7.1-1.4-14.2-2.5-21.2-4.3-13.6-3.4-27.1-7.1-40.7-10.7-12.1-3.1-24.2-6.1-36.3-9.3-1-.2-1.8-1.3-2.7-2.3z"/><path fill="#827974" stroke="#827974" d="M702.2 912.3c-5.4-6.3-10.5-12.3-15.7-18.3-7.4-8.5-14.8-16.9-21.9-25.7 7.1-.7 13.9-.9 20.6-1.6 12.5-1.1 24.9-2.4 37.3-3.8 3.2-.3 6.3-1.2 9.5-1.9.5.6 1 1.1 1.7 1.8-4.4 8.9-8.9 17.8-13.6 26.5-4.3 8-8.7 16-13.1 24.3 0 .4-.4.5-.7.5-1.4-.4-2.7-1-4.1-1.8z"/><path fill="#514d4a" stroke="#514d4a" d="M735.6 860c5.7-18.8 11.8-37.7 18.2-56.8 5.4 10.7 10.6 21.5 16 32.6-.8 1.7-1.5 3.7-2.9 4.6-10.2 6.7-20.7 13.1-31.3 19.6z"/><path fill="#ede6d7" stroke="#ede6d7" d="M469 216.1c5 10.8 10 21.6 14.9 32.4 2.6 5.7 5.1 11.5 7.9 18.1 8.5-17.2 16.5-33.6 25-50 .6.5.9.9 1.2 1.8 3 12.8 6.1 25.1 9.1 38 .1 1.1.3 1.7.4 2.4-.1 0-.1.1-.6.1-2.1.5-3.9.9-5.6 1.5-8.5 2.9-16.9 5.9-25.4 8.7-1.8.6-4 .8-5.7.3-4.5-1.3-8.7-3.3-13.1-4.8-6.3-2-12.6-3.7-19.1-5.9-1.5-.3-3-.4-4.7-.5-1.6.1-2.9.2-4.5.3-1.4.2-2.6.4-4.1.6-9.1 1-17.8 2-26.5 3.2-3.6.5-7.1 1.6-10.6 2.5 0 0-.1 0-.3-.3-1.3-.1-2.3.1-3.7.1-7.1.8-13.9 1.7-20.6 2.5v-.8c5.3-6.4 10.8-12.3 15.8-18.6 7.2-9.2 14.1-18.7 21.2-28.4.5-.4.9-.4 1.8-.1 12.1 12.6 23.7 24.8 35.3 37 .4-.2.9-.4 1.4-.7.5-2.8 1-5.6 1.8-8.7 2.8-10.1 5.3-19.9 8-29.9.5-.3.6-.5.7-.8z"/><path fill="#9d9591" stroke="#9d9591" d="M460 247c-.5 2.9-1 5.7-1.5 8.5-.5.3-1 .5-1.4.7-11.6-12.2-23.2-24.4-35-37 1.4-7.2 2.8-14.1 4.3-21 1.4-6.2 2.7-12.4 4.6-18.8 6.1 9.5 11.6 19 17.2 28.9 3.2 9.5 6.4 18.6 9.3 27.8 1.1 3.6 1.7 7.3 2.5 10.9z"/><path fill="#b8b1aa" stroke="#b8b1aa" d="M448.1 208c-5.5-9.6-11-19.1-16.8-28.8-.3-.6-.3-1.1-.3-1.9 3.9-4.6 7.8-8.9 11.5-13.3 3.7-4.6 7.2-9.3 11.2-13.6 3.4 13.2 6.4 26 9.3 38.9 1.8 7.8 3.4 15.7 5.1 23.6.2.8.4 1.7.8 2.9 0 .6-.1.8-.9 1-4.6-2.2-8.5-4.6-12.7-6.5-2.2-1.1-4.8-1.6-7.2-2.3z"/><path fill="#7c7672" stroke="#7c7672" d="M356 147.5c.8-.5 1.5-.6 2.7-.3 7.2 5 13.8 9.9 20.7 14.4 2.6 1.8 5.7 2.9 8.6 4.6v.8c-6.8 3.3-13.6 6.6-20.4 10-8.9 4.3-17.7 8.7-27 13.1 4.2-12.3 8.7-24.5 13.2-36.7.7-1.8 1.4-3.7 2.2-5.9z"/><path fill="#827974" stroke="#827974" d="M388.4 167c-.4-.2-.4-.3-.3-1.1 7.6-8 15-15.5 22.5-23 .9-.8 2.2-1.3 3.3-1.9 4.7 10.7 9.4 21.4 14.2 32.5-5.8-.6-11.7-1.5-17.5-2.5-7.3-1.3-14.5-2.7-22.2-4z"/><path fill="#1d1815" stroke="#1d1815" d="M344.6 93c4 17.4 7.7 34.8 11.4 52.5-17.7-6-35.3-12.5-53-19.1-1.4-.5-2.6-1.8-4-3.1 10.8-7.6 21.6-14.8 32.5-22.1 4.2-2.8 8.5-5.4 13.1-8.2z"/><path fill="#090909" stroke="#090909" d="M382.9 267.4c6.8-1.1 13.6-2 20.8-2.3 1.6.9 2.7 1.9 3.8 1.8 9.7-.8 17.6 2.9 24.6 9.5 1.4 1.3 3.8 2.3 5.7 2.3 3.8-.1 7.5-1.1 11.6-1.7 4.2.8 2.6 3.2 1.6 4.9-1.6 2.5-3.4 4.8-5.4 7-6.2 6.7-6.3 11-1.1 18.2 2.2 3 3.7 6.6 5.3 10.1-5.1-1.6-10.1-3.3-14.9-5.5-2.5-1.1-4.6-3.1-6.7-5 2.2-2.7 4.1-5.1 6.1-7.5-.5-.4-.9-.8-1.4-1.2-3 3-6 6-9.2 9.1-.8.7-1.3 1.2-2.2 1.8-4.5.1-8.6.2-13 .1-1.7-.5-3.1-.8-4.5-1l-.1-.3c-2.6-3.2-5-6.1-7.5-9.4-.1-5.7-.1-10.9-.1-16.6-4.9 3.6-2.6 9-3.8 13.5-8.1-5.1-15.8-10.2-23.3-15.5 2.7-3 5.3-5.6 7.9-8.3 1.9-1.2 3.7-2.5 5.8-4m29.2 21.4c3.9.8 7.3.1 9.6-3.3 2.7-4 1.7-8.8-2.1-11.3-4.2-2.6-10.1-1.2-12.6 3.1-2.4 4.1-.9 8.2 5.1 11.5z"/><path fill="#baa489" stroke="#baa489" d="M377 271.1c-2.5 3-5.1 5.6-8.2 8.7-15.2 15-30.1 29.5-45.1 44.2-.4.4-.6.7-.8 1-3.6-1.1-7.2-2.1-11.2-3.2-7.9-2.4-15.6-4.8-23.5-7.5 25.9-13.2 52.1-26.1 78.2-39 1.5-.7 2.9-1.7 4.5-2.8 2.1-.7 4-1.2 6.1-1.4z"/><path fill="#514d4a" stroke="#514d4a" d="M664 866h-.8c-6.6-7.4-12.9-14.7-19.2-22.1-8.8-10.2-17.5-20.5-26.5-31.2.5-1.2 1.4-2.1 2.8-2.9 20.9.1 41.3 0 61.7-.1 1.4.1 2.8.2 4.5.7-7.2 18.8-14.9 37.2-22.5 55.6z"/><path fill="#736d68" stroke="#736d68" d="M664 866.3c7.6-18.7 15.3-37.1 22.9-55.8.2-.4.4-.4.9-.2.6.4.8.6 1.1.7 8.1 9.2 16.2 18.4 24.2 27.6 6.3 7.2 12.6 14.5 18.9 22.1-3.2 1-6.3 1.9-9.5 2.2-12.4 1.4-24.8 2.7-37.3 3.8-6.7.7-13.5.9-20.7 1.3-.5-.4-.5-.9-.5-1.7z"/><path fill="#938e8c" stroke="#938e8c" d="M682 809.4c-20.4.4-40.8.5-61.6.1 2.3-3.3 5.1-6.1 7.7-9.2 2.9-3.5 5.5-7.3 8.5-11 .6-.2 1-.2 1.4-.3v-.1c2.6 1.8 4.9 4.2 7.7 5.3 10.3 4.1 20.9 7.6 31.4 11.4 1.8.7 3.3 2.3 4.9 3.8zM689.2 810.9c-.6 0-.8-.2-1.1-.7.4-.5.8-.8 1.6-1.2.1.6-.1 1.1-.5 1.9z"/><path fill="#827974" stroke="#827974" d="M684.8 700.7c-.5-.5-.9-1.4-1.1-2.5.6.6.9 1.4 1.1 2.5zM683.3 679.9c-.4-.5-.6-1-.6-1.7.4.4.6.9.6 1.7z"/><path fill="#dad7cf" stroke="#dad7cf" d="M638 788.7c-.4.4-.8.4-1.8.4-17.9-10.9-35.3-21.8-52.5-32.8-1.2-.7-1.8-2.1-2.3-3.3 1.8-.9 3.2-1.7 4.7-2.5 20.9-10.8 41.8-21.6 62.9-32.3 3.4-1.8 7.3-2.8 10.9-4.1 0 0 0 .5.1.7-7.4 24-14.9 47.8-22.3 71.6-.2.6.1 1.3.3 2.3z"/><path fill="#9d9591" stroke="#9d9591" d="M660.1 713.8c-3.8 1.6-7.7 2.6-11.1 4.4-21.1 10.7-42 21.5-62.9 32.3-1.5.8-2.9 1.6-5 2.5-.8 0-.9 0-1.1-.4-.3-1.8-.7-3.2-.7-4.8 1.4-5.2 2.8-10.1 3.6-15.1 2.9-18.4 5.6-36.9 8.5-55.3.7-4.5 1.7-8.9 2.8-13.1 6.2 4.4 12.3 8.3 18.1 12.6 15.3 11.3 30.5 22.7 45.8 34 .7.4 1.5.8 2.6 1.3.1.5-.2.9-.6 1.6z"/><path fill="#efebe3" stroke="#efebe3" d="M349 789c-.3-.2-.6-.5-1.1-1-6.9-21.7-13.7-43.2-20.5-64.7-.9-2.8-1.8-5.6-2.5-8.8.6-.5.9-.6 1.5-.4 9.3 4.7 18.4 9.2 27.4 13.8 16.5 8.3 32.9 16.6 49.2 25.2-18.1 12.2-36.1 24.1-54 35.9z"/><path fill="#c1bdb7" stroke="#c1bdb7" d="M326.1 713.9c-.3 0-.6.1-1.3.2-.4 0-.6.1-.7 0-.1-.5-.1-.9-.2-1.7.2-.3.4-.3 1.2-.2.6.7.8 1.2 1 1.7z"/><path fill="#efebe3" stroke="#efebe3" d="M389.6 888.2c-7.1-25.3-14-50.3-20.6-75.7 1.2 0 2.2.3 2.9 1 12.7 11.6 25.3 23.2 38 34.9 12.6 11.6 25.3 23.3 38 34.9 1 .9 2.5 1.2 4 2.1 1.8 7.1 3.4 13.9 5 21 1.6 8.5 3.3 16.5 4.6 24.4-6-2.4-11.7-4.7-17.5-7.3-2-.7-3.8-1.6-5.4-1.3-4.9.7-9.7 1.7-14.5 2.8-1.9.5-4 1-5.4 2.2-3.8 3.3-7.3 7.1-11.1 10.5-1.1 1-2.7 1.4-4.1 2.1-4.6-17.1-9.2-34.2-13.9-51.6z"/><path fill="#8f877f" stroke="#8f877f" d="M416.3 958.9c-1.4-.4-2.7-1.3-3.5-1-3.4 1.6-6.7 3.5-10.1 5.2-7.2 3.6-7.2 3.6-12.4-3 .7-2.7 1.7-5.3 3.4-8 6.4-.7 11.9-1.2 17.5-1.9 2.1-.2 4.3-.6 6.3-1.4 1.6-.6 2.9-2.2 4.4-3.1 6.9-4.2 13.9-7.5 21.4-1.1 1.2.9 3.1.9 5 1.4.4 0 .6.1.8.5.7 5.7-1.3 9.9-5.4 13.6-3.4 1-6.4 2.6-9.5 2.6-5.1-.1-10.1-1.1-15.2-1.7-.8-.7-1.6-1.3-2.7-2.1z"/><path fill="#b1a8a2" stroke="#b1a8a2" d="M448 946c-1.6-.5-3.5-.5-4.7-1.4-7.5-6.4-14.5-3.1-21.4 1.1-1.5.9-2.8 2.5-4.4 3.1-2 .8-4.2 1.2-6.3 1.4-5.6.7-11.1 1.2-17.1 1.8 2.7-3.9 5.9-7.7 9.3-11.9 1.5-1 3.1-1.4 4.2-2.4 3.8-3.4 7.3-7.2 11.1-10.5 1.4-1.2 3.5-1.7 5.4-2.2 4.8-1.1 9.6-2.1 14.5-2.8 1.6-.3 3.4.6 5.1 1.5-.1 1.5-.3 2.5-.1 3.3 1.4 6.4 2.9 12.7 4.4 19z"/><path fill="#a19d99" stroke="#a19d99" d="M369 977h-10.6c-.4-.3-.4-.7-.5-1.2 3.4-.2 6.8-.1 10.7.3.4.5.4.7.4.9z"/><path fill="#938e8c" stroke="#938e8c" d="M369.2 977.3c-.2-.5-.2-.7-.2-1.1 1.4-.3 2.8-.3 4.6-.3-1.1.5-2.6 1.1-4.4 1.4zM379.6 975.9c-.5.2-1.4.4-2.5.3.6-.3 1.4-.3 2.5-.3z"/><path fill="#dad7cf" stroke="#dad7cf" d="M451.8 885c-1.4-.5-2.9-.8-3.9-1.7-12.7-11.6-25.4-23.3-38-34.9-12.7-11.7-25.3-23.3-38-34.9-.7-.7-1.7-1-2.9-1.4-.4 0-.8.1-1 0-.1-.2-.1-.4.1-1.1 1.3-1.1 2.3-1.9 3.3-1.9 9.5-.8 19.1-1.7 28.6-2 13.9-.6 27.8-.8 41.8-.8.2.8.3 1.3.4 2.2 1.4 11.3 2.9 22.1 4.3 33 1.8 14.5 3.5 29 5.3 43.5z"/><path fill="#7c7672" stroke="#7c7672" d="M566 550c6.1 10.2 12.2 20.5 18.2 30.7 3 5.2 5.9 10.4 8.5 16.1-15 8.3-29.8 16.2-44.5 24.1-3.2 1.8-6.2 4-9.7 6-1.8.7-3.3 1.5-5.1 2.1-12.2-3.3-24.1-6.5-36-9.6-.7-.2-1.5.3-2.6.4-.8-.6-1.3-1.1-1.7-2 10.3-10.1 20.4-19.9 30.6-29.6 4.8-4.6 9.7-9.2 14.5-13.7 8.2-7.6 16.4-15.1 24.5-22.8 1-.9 1.5-2.5 2.4-3.8.2-.1.5-.1.6.3.2.8.2 1.3.3 1.8z"/><path fill="#bdbcbc" stroke="#bdbcbc" d="M566.4 550c-.5-.5-.5-1-.6-2.2 8.8-24.4 17.6-48.1 26.3-71.7.8-.4 1.5-.7 2.6-1.1 1.7 1 2.9 2.4 4.4 3.1 14.1 6 28.3 11.8 42.5 17.7 1.2.5 2.2 1.6 3.3 2.8-7.3 5-14.8 9.6-22.2 14.3-12.3 7.8-24.6 15.6-36.8 23.7-5.8 3.9-11.3 8.4-17 13-.7.4-1.5.4-2.5.4z"/><path fill="#9d9591" stroke="#9d9591" d="M538.9 626.8c3.1-1.9 6.1-4.1 9.3-5.9 14.7-7.9 29.5-15.8 44.6-23.8.5-.1.6-.1 1.1-.1 4.1 7.1 8.1 14.2 12 21.4.7 1.3 1.4 2.6 1.9 4.5-1.8 1.2-3.5 2-5.2 2-4.3.2-8.7 0-13 .2-15.5.9-31.1 2-46.6 2.8-1.3.1-2.7-.7-4.1-1.1z"/><path fill="#aca298" stroke="#aca298" d="M538.5 626.9c1.8.3 3.2 1.1 4.5 1 15.5-.8 31.1-1.9 46.6-2.8 4.3-.2 8.7 0 13-.2 1.7 0 3.4-.8 5.3-1.6.5.1.8.6 1.2 1.4 0 .8 0 1.2-.3 2.1-5.4 12.1-10.6 23.7-16.1 35.2-1.1-.4-1.9-.7-3-1.1-11.7-6.7-23-13.3-34.4-19.7-6.8-3.8-13.7-7.4-20.7-11.2l-.9-.9c1.5-.7 3-1.5 4.8-2.2z"/><path fill="#a2988f" stroke="#a2988f" d="M326.4 714.1c-.5-.7-.7-1.2-1-1.9-.2-.5 0-.7.8-1.1 16.8-12.4 32.9-24.8 49.2-37 4.8-3.5 9.7-6.8 14.6-9.8.8 5.3 1.5 10.2 2.3 15.1 2.9 17.8 5.7 35.7 8.8 53.6.9 5 2.6 10 3.9 15.4 0 1.8 0 3.1-.3 4.5-.7 0-1.1-.1-1.5-.1-16.5-8.3-32.9-16.6-49.4-24.9-9-4.6-18.1-9.1-27.4-13.8z"/><path fill="#c1bdb7" stroke="#c1bdb7" d="M390 663.9c-4.9 3.4-9.8 6.7-14.6 10.2-16.3 12.2-32.4 24.6-49 36.9 4.7-8.8 9.6-17.8 14.7-26.6 7.9-13.8 15.8-27.5 23.9-41.2 3.2-5.5 6.7-10.8 10.6-16 5.5 11.8 10.4 23.3 15.1 34.9-.4.7-.6 1.3-.7 1.8z"/><path fill="#b7ada2" stroke="#b7ada2" d="M391 662c-5-11.5-9.9-23-15-34.8-.2-.8-.2-1.2.3-1.9 16.1 0 31.7.3 47.2.7 4.5.2 8.9.8 13.4.9 2.7 0 5.4-.6 8.4-.9 1.4 1 2.5 2 3.3 3-2 .8-3.7 1.5-5.3 2.4-16.8 9.9-33.5 19.8-50.5 29.7-.8.4-1.3.6-1.8.9z"/><path fill="#a69d99" stroke="#a69d99" d="M445 626c-2.7.3-5.4.9-8.1.9-4.5-.1-8.9-.7-13.4-.9-15.5-.4-31.1-.7-47.1-1-.5-.4-.5-.8-.5-1.6 4.7-8.5 9.4-16.6 14.4-25 .5-.4.7-.4 1.2-.4 8 4 15.7 7.9 23.3 11.9 10.1 5.3 20.1 10.7 30.2 16.1z"/><path fill="#b7ada2" stroke="#b7ada2" d="M391.2 598h-.9c-2-1.3-3.7-2.9-5.7-3.9-11.3-5.9-22.7-11.6-34-17.4-.7-.3-1-1.2-1.6-2.2 10.8-4.4 21.6-8.4 32.5-12.4 11.3-4.2 22.7-8.4 34.3-12.8.8-.4 1.3-.6 2.2-1 .4-.2.8-.1.8.3.1 1 .2 1.7-.1 2.6-5.9 9.3-11.6 18.5-17.1 27.7-3.6 6.3-7 12.7-10.4 19.1z"/><path fill="#8f877f" stroke="#8f877f" d="M527.1 255.9c-3-12.4-6.1-24.7-8.7-37.5 5-2.8 10.8-4.1 14-7.8 7.1-7.9 12.9-16.9 19-25.6.8-1.2.4-3.3 1-5 2.1-.7 3.8-1.3 5.6-1.6 1.8 12.6 3.8 24.7 7.5 37.6 1.6-2.1 2.3-2.9 2.9-3.8 6.6-9.4 13.1-18.7 19.6-28.2 3.8-5.5 7.3-11.3 11.4-16.9 8.3 4.7 16.3 9.3 24.2 14.1 6.9 4.2 13.6 8.6 20.4 13l-39.3 11.7c-11.2 3.4-22.5 6.8-33.7 10.3-1 .3-1.9 1.1-3.3 2.1-.9.4-1.4.4-2.2.5-1.2.4-2.2.8-2.9 1.4-11.2 11.9-22.4 23.9-33.9 35.8-.8 0-1.2-.1-1.6-.1z"/><path fill="#67605e" stroke="#67605e" d="M644.3 194.2c-7.1-4.4-13.8-8.8-20.7-13-7.9-4.8-15.9-9.4-24.6-14.1-1.1-.1-1.6-.1-2-.1-2.3-3.5-4.4-7.2-7-10.4-3.8-4.6-8.1-8.8-12-13.3-.8-.9-.9-2.4-1.1-4 15.4 1.5 30.6 3.3 45.9 5.1 1.8.2 3.6.5 5.8.7.5 0 .8.1 1 .1 5.1 14.3 10 28.6 14.9 42.9.6 1.7 1 3.5 1.4 5.6-.4.4-.8.5-1.6.5z"/><path fill="#fcfcfb" stroke="#fcfcfb" d="M565.8 218.8c.5-.1 1-.1 1.8-.2 11.5 4.5 22.7 9 33.9 13.4 16.7 6.5 33.4 12.9 50.3 19.6-.3 1-.8 2.1-1.5 2.3-13.3 4-26.6 8-40 11.8-2 .5-4.3.2-7.2.2-4.6-5-8.6-9.8-12.4-14.7-8.3-10.7-16.6-21.6-24.9-32.4z"/><path fill="#1d1815" stroke="#1d1815" d="M630.4 145c1.8-10.3 3.9-20.6 6.1-30.9 1.4-6.8 3-13.5 4.5-20.6 8.3 4.7 16.6 9.7 24.7 15 6.5 4.2 12.8 8.9 19 13.4.8.5 1 1.7 1.4 2.8-9.1 3.5-18.1 6.7-27.1 9.9-9.4 3.4-18.8 6.9-28.6 10.4z"/><path fill="#baa489" stroke="#baa489" d="M697 313.8c-10.8 3.6-21.9 7-33.6 10.1-5.1-4.5-9.6-8.7-14.1-13-11.7-11.1-23.4-22.2-35.3-33.6-2.5-2.6-4.8-4.9-6.7-7.3h1.7c.7 0 1.4.1 2.4.2 5 2.8 9.5 5.7 14.3 8.1 23.6 11.8 47.4 23.5 71.3 35.5z"/><path fill="#090909" stroke="#090909" d="M606.9 270c2.3 2.4 4.6 4.7 7.1 7.7-.2 1.4-.2 2.6-.7 2.9-7.3 4.9-14.7 9.6-22.1 14-.1-2.4.3-4.5-.1-6.4-.6-2.7-1.7-5.3-2.7-7.9-.4.1-.8.3-1.2.5 3.3 14.2 2.5 17.7-6 25-2 1.1-3.7 2.2-5.7 3.2h-1.9c-3.2 0-5.9 0-8.8-.3-3.4-2.1-6.6-3.9-9.9-6-1.8-5.6-3.4-10.9-4.8-15.4-2.1 5.7-1.3 11.6 4.1 17.1.3 1.6 1.1 4 .7 4.3-6.2 3.4-12.5 6.5-18.9 9.7-.5-.5-1-1.1-1.6-1.7 1.4-2.6 2.5-5.5 4.3-7.8 8.4-11.2 8.5-11.2-1.3-21-.7-.7-1.5-1.3-2.1-2.1-1.4-2.1-2.8-4.3-4.1-6.4 2.4-.5 4.8-1.4 7.3-1.3 7.3.2 14.3.2 20.3-5.4 6.2-5.8 13.7-8.3 22.4-5.9 1.7.5 3.9-1.2 6.2-1.9 5.5.7 10.5 1.5 15.5 2.3.4.3.7.7 1.5 1.3 1.1.7 1.8 1.1 2.5 1.5m-44.8 4.5c-3.9 2.9-4.2 6.6-1.8 10.4 2.4 3.7 8.5 4.7 12.5 2.5 3.6-1.9 5.2-6.6 3.7-10.3-1.5-3.6-5.8-5.3-10.5-4.1-1.1.3-2.2.7-3.9 1.5z"/><path fill="#ede6d7" stroke="#ede6d7" d="M602.9 266.9c-5-.5-10-1.3-15.8-2.2-19.9-2.4-39-4.7-58-7.3 0-.6-.1-1-.1-1.3 11.2-12 22.4-24 33.6-35.9.7-.6 1.7-1 2.9-1.4 8.6 10.8 16.9 21.7 25.2 32.4 3.8 4.9 7.8 9.7 12 14.7.3.3.3.5.2 1z"/><path fill="#e1d8c5" stroke="#e1d8c5" d="M607.3 270c-1.1-.4-1.8-.8-2.6-1.5 1.3 0 2.7.4 4.2 1.1-.4.4-.8.4-1.6.4z"/><path fill="#d3cec6" stroke="#d3cec6" d="M403 753.1c.6-.3 1-.2 1.9.1 6.7 4.4 13 8.6 19.9 13.1.9-2.2 1.5-4 2.3-5.7 1.8-3.9 3.8-7.7 5.8-11.4.1.5.2.8.4 1.3.1.7.3 1.1.5 1.9.3 1.4.7 2.5 1.1 4 2.3 16.5 4.7 32.5 7 48.8-.1.5-.2.6-.2.8-13.9.3-27.8.5-41.7 1.1-9.5.3-19.1 1.2-28.6 2-1 0-2 .8-3.2 1.6-.7 0-1.2-.3-1.9-1.1-6-6.5-11.6-12.6-17.3-18.6v-1.6c17.9-12.2 35.9-24.1 54-36.3z"/><path fill="#b9b5ae" stroke="#b9b5ae" d="M348.6 791c6.1 6 11.7 12.1 17.4 18.5-20.3.4-40.7.4-61.6.4.8-1.5 1.9-3.5 3.4-4.2 9.5-3.7 19.2-7.2 28.8-10.7 3.8-1.4 7.7-2.7 12-4z"/><path fill="#4d4743" stroke="#4d4743" d="M418.8 548.2s-.4-.1-.6-.1c-3.2-9-6-18-9.2-26.8-5.1-14-10.5-27.9-15.7-41.8-.4-1.1-.4-2.3-.6-3.8 7.5-3.9 15-7.3 22.5-10.9 1.4-.7 2.5-2.1 3.8-3.5 1.8.6 3.6 1.6 5.7 2.6 1 .1 1.8.1 2.9.5 1.4 1.3 2.2 2.5 3.3 2.9 18.7 8 37.5 15.9 56.3 23.5 2.5 1 5.9.6 8.5-.3 8.4-3 16.6-6.4 24.8-9.8 12.2-5.2 24.4-10.5 36.5-15.8 1.4-.3 2.7-.7 4.4-1 10.2 3.9 20.1 7.9 30.4 12-8.4 23.8-17.2 47.5-26.1 71.6-.1.3-.4.3-.9.4-6.4-4.9-12-9.9-18-14.6-14.1-10.8-28.4-21.6-42.7-32.2-3.4-2.4-7.4-4.1-11.4-6.3-3.4 1.1-6.7 1.8-9.3 3.6-12.2 8.5-24.4 17-36.1 26-9.8 7.5-19.1 15.8-28.5 23.8z"/><path fill="#302824" stroke="#302824" d="M556.9 464.5c-12 5.7-24.2 11-36.4 16.2-8.2 3.4-16.4 6.8-24.8 9.8-2.6.9-6 1.3-8.5.3-18.8-7.6-37.6-15.5-56.3-23.5-1.1-.4-1.9-1.6-2.9-2.9 41.5-.7 83.2-1 124.8-1.3 1.3 0 2.7.7 4.1 1.4z"/><path fill="#9d9591" stroke="#9d9591" d="M438.1 432.5c4.5-9 9.1-17.7 13.7-26.4.7-1.3 1.4-2.6 2.6-4 2.5 2.7 4 6.3 6.7 8 7 4.5 14.5 8.1 22.1 12.3 9.8 5.1 14.2 5 20.1-.5 1.6-.5 2.8-.9 4.3-1.2 3.1 2.3 5.9 4.3 8.5 6.4.8.7 1.8 2.3 1.6 2.6-.7.9-2 1.3-3 2s-1.8 1.6-2.7 2.4c-5.4-.9-10.7-1.7-16.7-3-1.4-.2-2.4.1-3.4.3-13.5 2.5-27.1 5.1-40.6 7.6-5.8 1-8.8-4-13.2-6.5z"/><path fill="#938e8c" stroke="#938e8c" d="M512.3 434.2c.6-.9 1.4-1.8 2.4-2.5s2.3-1.1 3-2c.2-.3-.8-1.9-1.6-2.6-2.6-2.1-5.4-4.1-8.2-6.7 8.8-4.2 17-8.9 21.1-18.4 2.6 3.8 5.3 7.6 7.7 11.5 3.5 5.9 6.7 12 10.2 18.4-5.5 6.7-12.3 8.1-20.4 5.5-4.5-1.5-9.3-2.1-14.2-3.2z"/><path fill="#86807c" stroke="#86807c" d="M492.3 431.5c.6-.3 1.6-.6 2.6-.6-.6.4-1.4.5-2.6.6z"/><path fill="#b8b1aa" stroke="#b8b1aa" d="M593 662c5.2-11.5 10.4-23.1 15.8-34.8 2.9 3.3 5.7 6.7 7.9 10.4 8.1 13.9 16 27.8 24 41.7 5.2 9 10.7 17.8 15.9 26.8.7 1.2 1 2.7 1.4 4.5-15.2-11-30.4-22.4-45.7-33.7-5.8-4.3-11.9-8.2-18.2-12.9-.6-1-.8-1.5-1.1-2z"/><path fill="#736d68" stroke="#736d68" d="M413.9 140.7c-1.1.9-2.4 1.4-3.3 2.2-7.5 7.5-14.9 15-22.5 22.8-3-1.2-6.1-2.3-8.7-4.1-6.9-4.5-13.5-9.4-20.3-14.5 8.4-1.9 17-3.7 25.6-5.1 8.8-1.5 17.7-2.6 26.9-3.9.9.2 1.4.5 2.1.9.2.5.2 1 .2 1.7z"/><path fill="#7c7672" stroke="#7c7672" d="M468.4 212.9c-2-7.9-3.6-15.8-5.4-23.6-2.9-12.9-5.9-25.7-8.9-38.9-.1-.8-.1-1.3 0-2 8.6-2.2 17.2-4.1 25.8-5.9 3.6-.7 7.2-1.3 11.1-1.7-2.9 11.3-5.9 22.3-9.2 33.2-3.5 11.6-7.2 23.1-10.9 34.6-.4 1.5-1.4 2.8-2.5 4.3z"/><path fill="#938e8c" stroke="#938e8c" d="M552 180c-.2 1.7.2 3.8-.6 5-6.1 8.7-11.9 17.7-19 25.6-3.2 3.7-9 5-14.1 7.4-.6-.5-.9-.9-1.3-1.6-.3-.8-.6-1.4-.9-2.2 1.4-4.8 3.1-9.1 4.1-13.7 3.2-13.5 6-27.1 9-40.6.5-2.4 1-4.8 1.8-7.6.6-.4.9-.4 1.7 0 6.7 9.4 13 18.6 19.3 27.7z"/><path fill="#86807c" stroke="#86807c" d="M552.4 180c-6.7-9.1-13-18.3-19.4-27.7 1.4-1.3 2.8-2.7 4.4-3.1 8.6-2.4 17.2-4.5 25.8-6.8 3.1-.9 6.1-2.2 9.6-3.3-2.3 6.6-5 13.1-7.7 19.7-2 4.8-4 9.6-6.3 15-.5 1.8-.6 3-.8 4.2-1.8.7-3.5 1.3-5.6 2z"/><path fill="#3d3734" stroke="#3d3734" d="M400.6 374c-.4.6-1.2 1.2-2.3 1.8-1.8-.4-3.3-.8-5.1-1.5 2.2-5.2 4.6.5 7.4-.3zM390.5 371.5c0 .1.1 0 0 0z"/><path fill="#afaba8" stroke="#afaba8" d="M618.3 975.9c9.8-.5 19.8-.7 30.3-.7.4.5.4.9.4 1.5-4 .3-8.1.3-12.6.3-6.3-.2-12.1-.5-18.1-1.1z"/><path fill="#3d3734" stroke="#3d3734" d="M374.3 349.4c0 1.4-.2 2.6-.7 4.6-2.5-.3-5.6-.6-9.2-1-.1-2.3.2-4.6.5-7.3 3.1.9 6.1 2.2 9.4 3.7z"/><path fill="#151310" stroke="#151310" d="M428 307c2.3 1.6 4.4 3.6 6.9 4.7 4.8 2.2 9.8 3.9 15.2 5.7 1.3.8 2.1 1.7 2.9 2.9-.1.2-.2.6-.2.6-14.1 13.2-28.3 26.4-42.6 39.9-4.4-1.3-8.7-2.9-12.9-4.7-6.9-3.2-13.7-6.6-20.7-10.3 1.9-1.4 4.4-2 5.6-3.6 5-6.6 9.7-13.3 14.3-20.2 2.4-3.8 4.3-8 6.6-12.2.3-.5.5-.7 1.2-.8 1.8.3 3.2.6 4.9 1.2 5.3 2.8 9.9 2.2 12.8-1.3.4-.6.9-1.1 1.9-1.6 1.7 0 2.9-.1 4.1-.3z"/><path fill="#1d1815" stroke="#1d1815" d="M403.9 309c-.3.1-.5.3-1.2.8-2.5.5-4.5.5-6.4 1-19.3 4.7-38.5 9.4-57.8 14.2-2 .5-3.8 2-5.8 3-1-.2-2-.5-3.5-1.1-.8-.5-1.2-.6-1.6-.7-1-.1-1.9-.3-3.2-.8-.4-.8-.4-1.1-.5-1.5 14.8-14.6 29.7-29.1 44.8-43.8 8 4.9 15.7 10 23.8 15.3 1.1 1.9 1.7 3.4 2.4 5.2 3.1 2.7 6.1 5.1 9.1 7.4v.3c0 .4 0 .5-.1.7z"/><path fill="#3d3734" stroke="#3d3734" d="M332.9 328.3c1.8-1.3 3.6-2.8 5.6-3.3 19.3-4.8 38.5-9.5 57.8-14.2 1.9-.5 3.9-.5 6.3-.8-1.8 4-3.7 8.2-6.1 12-4.6 6.9-9.3 13.6-14.3 20.2-1.2 1.6-3.7 2.2-5.9 3.4-14.6-5.5-28.9-11.3-43.4-17.3zM323.7 324c.3.3.3.6.4 1.3-.3.2-.6.2-1-.1 0-.5.2-.8.6-1.2zM327.7 326.5c.3-.2.7-.1 1.2.2-.3.2-.7.1-1.2-.2z"/><path fill="#151310" stroke="#151310" d="M532.6 885.1c-.2 1-.4 2.1-.8 3.7-.2 1.1-.3 1.7-.4 2.2-2.7 12.4-5.4 24.8-8.5 37.8-.5 1.5-.6 2.3-1.1 3.3-5.9 6.1-11.5 12-17 17.9-6.7 4.2-9.3 11.8-7.5 21.5.2 1.1.4 2.2.1 3.8-1.7.3-3 .2-4.4-.2-.8-4.7-2.1-9-2.3-13.3-.1-4.6 1.2-9.2 1.2-13.8.2-30 .1-60 .1-89.9v-7.3c2.5 1.9 3.9 2.7 5 3.7 9.6 9.2 19.2 18.4 28.6 27.7 2 2 3.9 3 6.6 2.1l.4.8z"/><path fill="#736d68" stroke="#736d68" d="M589.5 950.9c1.6 1.8 3.2 3.5 4.8 5.6-.2 1.5-.5 2.6-1 3.7-2.2 5.3-3.3 5.9-8.6 3.5-4.2-1.9-8-4.6-12.2-6.5-1.4-.6-3.5.1-5.6.6-.6 1-.8 1.6-1 2.2v-.1c-4.3 1-8.6 2.1-13 3.1-7.8 1.7-13.2-2.8-18.5-8.1.5-3 1-5.5 1.9-7.9.8-.7 1.2-1.3 2.1-2 6-3.6 11.9-5.5 18.3-2.1 4.2 2.2 8.2 4.8 12.3 7.5 2.5.1 4.9-.4 7.3-.3 4.4.1 8.8.5 13.2.8z"/><path fill="#67605e" stroke="#67605e" d="M536 947c-.6 2.4-1.1 4.9-1.8 7.6-2.6.7-5.1 1-7.5 1.4-8 1.3-15-.9-21.6-6 5.2-5.9 10.8-11.8 17-17.7 5 4.9 9.5 9.8 13.9 14.7z"/><path fill="#595552" stroke="#595552" d="M493.1 975.4c1.3.1 2.6.2 4.3.3 4 3.9 7.6 7.9 11.4 12.2-1 .5-2.3 1.1-3.5 1.1-9.2 0-18.3 0-27.9-.4 2.3-4.2 4.9-8 7.6-11.8.4-.6 1.4-.7 2.6-1 2.1-.1 3.8-.2 5.5-.4z"/><path fill="#3b3330" stroke="#3b3330" d="M566 966.6c-.4.4-.9.4-1.7.4.3-2.1 1-4.2 1.6-6.7 0-.4 0-.3.3-.3h.8c-.3 2.1-.7 4.1-1 6.6z"/><path fill="#67605e" stroke="#67605e" d="M444 959.9c3.8-3.5 5.8-7.7 5.4-13.4 4.6-5.2 8.8-9.9 13.3-14.3 4.4 4.4 8.7 8.6 12.8 12.9 1.1 1.1 1.9 2.6 2.5 4-1.1.8-2 1.3-2.5 2.2-2.3 3.9-5.2 6.1-10.2 4.8-3.6-.9-7.5-.7-11.6-1.1-.2 0-.7-.1-.7-.4-.9-.5-1.7-.7-2.5-.9.5.4 1 .9 1.5 1.7 0 1.1-.1 1.8-.4 2.6-1.5 1.7-2.5 3.4-3.6 5-1.1.3-2.2.6-3.6.5-.4-1.4-.4-2.5-.4-3.6z"/><path fill="#595552" stroke="#595552" d="M443.7 960.1c.3.9.3 2 .3 3.5-4.1 2.7-8.1 6.4-12.5 7-8.8 1.1-9.7 1.7-12.5-9.2 5.1.2 10.1 1.2 15.2 1.3 3.1 0 6.1-1.6 9.5-2.6z"/><path fill="#3b3330" stroke="#3b3330" d="M428.9 995.7c-3 .1-6-.2-9.4-.6-.5-6.2-.5-12.3-.5-18.5h1c3 6.3 5.9 12.5 8.9 19.1z"/><path fill="#595552" stroke="#595552" d="M448.4 963c.7-1.6 1.7-3.3 3.3-4.8.7.4 1 .6 1.3 1.2v3.2c-1.4.4-2.8.4-4.6.4z"/><path fill="#46423f" stroke="#46423f" d="M453.4 961.1c-.4-.5-.4-1-.2-2 .5-1.7.6-2.9.8-4 3.8.3 7.7.1 11.3 1 5 1.3 7.9-.9 10.2-4.8.5-.9 1.4-1.4 2.8-2.2 6.6 4 9.6 9.8 9.6 17 0 3.2-.5 6.5-.7 9.7-.8.3-1.8.4-2.2 1-2.7 3.8-5.3 7.6-8 11.8-1 .4-2 .5-3.4.6-1.3-5.2-2.3-10.5-3.3-15.7-.6 0-1.2.1-1.8.1-1.8 5.9-3.7 11.8-5.5 18.1-2.1.3-4.2.2-6.7 0-.4-8.5-.2-17-.4-25.5 0-1.7-1.4-3.4-2.5-5.1z"/><path fill="#181512" stroke="#181512" d="M529 257.7c19.1 2.3 38.2 4.6 57.7 7.1-1.6.8-3.8 2.5-5.5 2-8.7-2.4-16.2.1-22.4 5.9-6 5.6-13 5.6-20.3 5.4-2.5-.1-4.9.8-7.3 1.3 1.3 2.1 2.7 4.3 4.1 6.4.6.8 1.4 1.4 2.1 2.1 9.8 9.8 9.7 9.8 1.3 21-1.8 2.3-2.9 5.2-4.3 7.8.6.6 1.1 1.2 1.6 1.7 6.4-3.2 12.7-6.3 18.9-9.7.4-.3-.4-2.7-.5-4.5.2-.7.4-.9.6-1.2 3.2 1.8 6.4 3.6 10 6 3.4.4 6.2.2 9.1 0h1.8c2.4-.6 4.2-1.2 6.3-2 4.8-3 8.7-6.2 9.1-12 7.3-4.8 14.7-9.5 22-14.4.5-.3.5-1.5.8-2.6 11.8 10.7 23.5 21.8 35.2 32.9 4.5 4.3 9 8.5 13.7 13-2.2 1.4-4.7 2.5-7.6 3.3-3.4-1.5-6.2-2.9-9.3-3.6-18.9-4.7-37.9-9.4-56.9-14-2.2-.5-4.6-.4-6.9-.6-.4.7-.8 1.3-1.1 1.9 9.3 11.9 18.7 23.7 28 35.5-10.8 5.2-21.6 10.5-32.4 15.7-.4.2-1.2-.2-2.2-.4-14.3-13.5-28.2-26.9-42.6-40.8-1.2-3-2-5.5-2.7-8.4-.3-7.1-.7-13.7-.9-20.7 0-2.5-.3-4.7-.3-7.2-.1-8.8-.4-17.3-.7-25.7 0 0 0-.1.3-.2.7-.5 1-.7 1.3-1z"/><path fill="#302c2b" stroke="#302c2b" d="M609.6 346.4c-9.7-11.8-19.1-23.6-28.4-35.5.3-.6.7-1.2 1.1-1.9 2.3.2 4.7.1 6.9.6 19 4.6 38 9.3 56.9 14 3.1.7 5.9 2.1 8.9 3.6-15 6.6-30 12.9-45.4 19.2z"/><path fill="#827974" stroke="#827974" d="M558 178.4c.2-1.6.3-2.8.8-4.2 12.6-2.5 25-4.8 37.8-7.2h2.1c-3.4 5.7-6.9 11.5-10.7 17-6.5 9.5-13 18.8-19.6 28.2-.6.9-1.3 1.7-2.9 3.8-3.7-12.9-5.7-25-7.5-37.6z"/><path fill="#a19d99" stroke="#a19d99" d="M348.8 977.7c-1.6.5-3.5.7-5.6.6 1.6-.5 3.5-.7 5.6-.6z"/><path fill="#d3cec6" stroke="#d3cec6" d="M529.2 313c.8 2.4 1.6 4.9 2.5 7.7-5.2 9.4-10.6 18.4-15.8 27.6-3.2 5.5-6 11.3-9.3 17.3-3.4-1.1-6.4-2.6-9.5-4.5-.7-2.6-1.8-4.8-2-7-.5-7.3-.9-14.6-1.1-21.8-.4-18.1-.7-36.2-1-54.7 0-1.5 0-2.5.3-3.5 1.4 1.6 2.6 3 3.7 4.4 9.7 12.6 19.4 25.1 29.3 37.9 1.3-1.6 2.1-2.5 2.9-3.4z"/><path fill="#2d2523" stroke="#2d2523" d="M497.1 361.6c3.1 1.4 6.1 2.9 9.5 4.4 5.1 4 9.9 7.9 14.9 12 1.1 1.6 2 3.2 3 4.9 1 3.6 1.8 6.9 2.3 10.8-1.2.5-2 .4-2.8 0-1.8-2.5-3.1-5.9-5.3-6.6-8.7-2.8-17.7-4.8-26.9-7.4-2.9.3-5.6.5-8.2 1.4-6.2 2.1-12.4 4.6-18.9 6.9-2.1-.3-3.8-.6-5.6-1 .8-1.9 1.5-3.8 2.2-6 5.3-5.6 10.7-10.8 16.7-16.2 3.7-1.4 6.9-2.5 10.4-3.7 3.2.2 5.9.3 8.7.5z"/><path fill="#e2dfd9" stroke="#e2dfd9" d="M548 376.3c.1.1 0 .3 0 .4-.1-.1-.1-.3 0-.4z"/><path fill="#dfd9d2" stroke="#dfd9d2" d="M488 361.1c-3.1 1.2-6.3 2.3-9.7 3.5-2.4-4.3-4.1-8.7-6.5-12.7-6-10.3-12.2-20.4-18.7-30.8-.3-.2-.2-.6.2-.9 1.1-1.6 1.8-2.9 2.8-4.2 1.7-1 3.3-1.7 4.3-2.9 9.5-12.2 18.9-24.5 28.5-36.7.9-1.1 2.7-1.6 4.1-2.4 0 1.1 0 2.1-.4 3.7-.8 1.2-1.5 1.8-1.5 2.5-.4 7.4-.8 14.9-1.1 22.3-.7 19.5-1.3 39.1-2 58.6z"/><path fill="#e2dfd9" stroke="#e2dfd9" d="M415.7 367.6c.8-.5 2-1.1 2.8-.7 2.1 1.1 4.1 2.5 6.2 3.8-.2.4-.4.7-.6 1.1-2.7-1.3-5.5-2.7-8.4-4.2zM429.8 374.6c-1-.4-1.8-.9-2.5-1.4l.9-.9c.6.8 1.3 1.5 1.6 2.3z"/><path fill="#dad7cf" stroke="#dad7cf" d="M419.7 381.2c-.5.5-1.4.9-2.5 1.1.6-.6 1.4-.9 2.5-1.1z"/><path fill="#e2dfd9" stroke="#e2dfd9" d="M433 375.7c-.1-.1 0-.3 0-.4.1.1.1.3 0 .4zM412 365c.4.1.9.2 1.3.4-.3 0-.7 0-1.2-.2l-.1-.2zM436.5 376.5c0-.1-.1 0 0 0z"/><path fill="#090909" stroke="#090909" d="M524 394.1c.8 0 1.6.1 2.7 0 1 2.3 1.7 4.7 2.4 7.5-4.2 9.9-12.4 14.6-21.6 18.7-1.4.7-2.6 1.1-4.4 1.4-.8-1-1.7-2.1-1.5-2.5 3.6-7.1 7.1-14.3 11.2-21.1 1.3-2.2 4.1-3.5 6.6-5.1 1.8.4 3.2.7 4.6 1.1z"/><path fill="#afaba8" stroke="#afaba8" d="M533.8 392.2c3.2 2.2 6.2 4.7 9.2 7.5-2.8 0-5.9.2-8.5-.9-2.7-1.2-3.2-3.9-.7-6.6z"/><path fill="#090909" stroke="#090909" d="M483 422.1c-7.4-3.9-14.9-7.5-21.9-12-2.7-1.7-4.2-5.3-6.5-8.3.3-2.3.9-4.5 2.2-6.8 3.1-1.1 5.7-2 8.6-3 1.5.1 2.5.2 3.6.6 4.6 8.7 9.2 17.1 13.6 25.5.6 1.1.3 2.7.4 4z"/><path fill="#e2dfd9" stroke="#e2dfd9" d="M419 397c5.4 1.6 10.9 3.3 16.7 4.9 3.2 1.3 6.1 2.6 9 3.9-.2.4-.3.8-.5 1.2-2.8-.7-5.6-1.3-8.8-2-5.9-1.8-11.4-3.6-17-6 .1-1 .3-1.5.6-2z"/><path fill="#3d3734" stroke="#3d3734" d="M465 392c-2.5 1-5.1 1.9-8 2.8.3-2.5.9-4.9 1.9-7.5 2 .1 3.7.4 5.8 1.1.3 1.5.3 2.6.3 3.6z"/><path fill="#e2dfd9" stroke="#e2dfd9" d="M446.4 407.4c.1 0 .1.2.1.2s-.1-.1-.1-.2z"/><path fill="#dad7cf" stroke="#dad7cf" d="M418.6 396.8c.1.7-.1 1.2-.5 2-4.1-.2-8-.6-12-1.4.5-.8 1.2-1.3 1.9-2.1 3.4.2 6.9.8 10.6 1.5z"/><path fill="#46423f" stroke="#46423f" d="M567.2 959.8c-.4.2-.6.2-1 .2-.1-.6.1-1.2.5-1.9.4.4.6 1 .5 1.7z"/><path fill="#4d4743" stroke="#4d4743" d="M606.1 975.6c.4-.4 1-.7 1.8-.7-.4.4-.9.6-1.8.7z"/><path fill="#c1bdb7" stroke="#c1bdb7" d="M580 753h.8c1.1 1.2 1.7 2.6 2.9 3.3 17.2 11 34.6 21.9 52.3 32.9-2.4 3.8-5 7.6-7.9 11.1-2.6 3.1-5.4 5.9-8.2 9.1-1 1.2-1.9 2.1-2.8 3.3 0 .3-.3.6-.5.7-.5-.6-.7-1.3-1.6-2.5-19.2-1.6-37.8-2.7-56.4-4-4.9-.3-9.8-1.5-14.9-2.7.1-2.4.3-4.4.5-6.4 1.5-14.6 3.1-29.2 4.8-44 .1-.4.2-.6.5-.8 1-1.1 1.6-2.1 2.4-3.3 3 5.4 2.3 12.8 9.6 16.3 6-4.2 12.2-8.6 18.5-13m-28.2 2c-.2.2-.6.3-.7.5 0 .2.3.5.4.8.1-.3.3-.5.3-1.3z"/><path fill="#d3d0ca" stroke="#d3d0ca" d="M543.8 804.6c5 .8 9.9 2 14.8 2.3 18.6 1.3 37.2 2.4 56.1 3.8-2.1 2.9-4.4 5.7-7 8.2-8.6 8-17.3 16-26 23.9-14.9 13.6-29.9 27.2-44.9 40.8-.9.8-2.3 1-3.9 1.4-.4-.1-.5-.3-.5-1.1.2-2 .4-3.5.7-5.3.6-3.7 1-7.2 1.5-11 .2-1.8.3-3.2.6-4.9.3-1.4.4-2.6.7-4.1.4-4.2.8-7.9 1.3-11.9.3-1.4.4-2.6.7-4.1.2-1.4.3-2.5.5-3.8.5-2.5.7-4.7 1.2-7.2.2-1.8.3-3.2.6-4.9.3-1.4.4-2.6.6-4.1.4-2.8.7-5.2 1.2-8 .3-2.4.5-4.5.9-6.9.2-1.1.3-1.9.4-2.7.2-.1.5-.4.5-.4z"/><path fill="#938e8c" stroke="#938e8c" d="M569 950.1c-4.1-2.4-8.1-5-12.3-7.2-6.4-3.4-12.3-1.5-18.3 1.7.9-7.7 2.2-14.9 3.5-22.1.9-.4 1.9-1.3 2.6-1 8.6 2.9 18.6 2.3 25.4 10 2.3 2.6 5.2 4.6 7.8 7.3.1.6.3.9.5 1.1 0 0-.1 0-.1.4-3.1 3.4-6.1 6.6-9.1 9.8z"/><path fill="#86807c" stroke="#86807c" d="M541.5 922.6c-.9 7.1-2.2 14.3-3.5 22-.5 1.1-.9 1.7-1.7 2.4-4.7-4.9-9.2-9.8-13.9-14.8-.1-1.1 0-1.9.4-3 6.3-2.3 12.3-4.4 18.7-6.6zM569 950.4c3-3.5 6-6.7 9.1-10.2.7-.4 1.3-.4 2.3-.4 3.2 3.5 6 7 9 10.8-4.3 0-8.7-.4-13.1-.5-2.4-.1-4.8.4-7.3.3z"/><path fill="#d3d0ca" stroke="#d3d0ca" d="M531.6 891c-.1-.5 0-1.1.3-1.8.1.5.1 1.1-.3 1.8z"/><path fill="#86807c" stroke="#86807c" d="M578.2 939.7c-.2 0-.4-.3-.3-.6.2 0 .3.2.3.6z"/><path fill="#fcfcfb" stroke="#fcfcfb" d="M493.3 274.1c-1.7.7-3.5 1.2-4.4 2.3-9.6 12.2-19 24.5-28.5 36.7-1 1.2-2.6 1.9-4.3 2.5.4-19.1 1.2-37.9 2-56.6 6.4 1.9 12.7 3.6 19 5.6 4.4 1.5 8.6 3.5 13.1 4.8 1.7.5 3.9.3 5.7-.3 8.5-2.8 16.9-5.8 25.4-8.7 1.7-.6 3.5-1 5.6-1.5.8 8.4 1.1 16.9.8 25.9-.2 2.8.2 5.1.5 7.3.4 6.7.8 13.3 1.1 20.4-.9 1.4-1.7 2.3-3 3.9-9.9-12.8-19.6-25.3-29.3-37.9-1.1-1.4-2.3-2.8-3.7-4.4z"/><path fill="#29231f" stroke="#29231f" d="M458 258.7c-.7 19-1.5 37.8-2.3 56.9-.6 1.7-1.3 3-2.4 4.4-1.1-.9-1.9-1.8-3-2.9-2.1-3.4-3.6-7-5.8-10-5.2-7.2-5.1-11.5 1.1-18.2 2-2.2 3.8-4.5 5.4-7 1-1.7 2.6-4.1-1.6-5.3-2.2-6.3.5-12.9 6.5-17.5-.8-.2-1.5-.5-2.3-.8 1.4 0 2.9.1 4.4.4z"/><path fill="#151310" stroke="#151310" d="M453.3 258.2c1.1.4 1.8.7 2.6.9-6 4.6-8.7 11.2-6.9 17.5-3.7 1-7.4 2-11.2 2.1-1.9 0-4.3-1-5.7-2.3-7-6.6-14.9-10.3-24.6-9.5-1.1.1-2.2-.9-3.4-1.8.9-.5 1.9-.7 3.4-.4.8.6 1.2.7 1.6.7-.5-.2-1.1-.4-1.6-.7 3.6-.8 7.1-1.9 10.7-2.4 8.7-1.2 17.4-2.2 26.7-2.9 1.8-.1 3-.4 4.2-.8 1.3-.2 2.6-.3 4.2-.4z"/><path fill="#b7ada2" stroke="#b7ada2" d="M448.2 208.3c2.3.4 4.9.9 7.1 2 4.2 1.9 8.1 4.3 12.5 6.6-2.2 10-4.7 19.8-7.5 29.9-1.1-3.4-1.7-7.1-2.8-10.7-2.9-9.2-6.1-18.3-9.3-27.8z"/><path fill="#29231f" stroke="#29231f" d="M448.8 258.5c-.9.5-2.1.8-3.5 1 .9-.6 2.1-.8 3.5-1z"/><path fill="#d3cec6" stroke="#d3cec6" d="M529.1 257.4c-.4.6-.7.8-1.3 1.2-.4-.5-.6-1.1-.7-2.2.4-.5.8-.4 1.6-.4.3.4.4.8.4 1.4z"/><path fill="#938e8c" stroke="#938e8c" d="M411.8 288.7c-5.7-3.2-7.2-7.3-4.8-11.4 2.5-4.3 8.4-5.7 12.6-3.1 3.8 2.5 4.8 7.3 2.1 11.3-2.3 3.4-5.7 4.1-9.9 3.2z"/><path fill="#86807c" stroke="#86807c" d="M394.8 300.3c-.6-1.5-1.2-3-1.9-4.8.8-4.8-1.5-10.2 3.4-13.8 0 5.7 0 10.9-.1 16.9-.6 1.1-1 1.4-1.4 1.7z"/><path fill="#1d1815" stroke="#1d1815" d="M428.2 306.7c-1.4.5-2.6.6-4.1.5 2.8-3.2 5.8-6.2 8.8-9.2.5.4.9.8 1.4 1.2-2 2.4-3.9 4.8-6.1 7.5zM421.5 308.9c-2.4 3.5-7 4.1-12.4 1.1-.2-.5-.3-.9-.3-.9 4.1 0 8.2-.1 12.7-.2z"/><path fill="#514d4a" stroke="#514d4a" d="M394.9 300.6c.3-.6.7-.9 1.3-1.5 2.7 2.5 5.1 5.4 7.7 8.6-2.9-2-5.9-4.4-9-7.1zM408.5 309c.3.1.4.5.4.7-1.4-.1-2.8-.4-4.6-.7-.3-.2-.3-.3-.3-.8 1.4 0 2.8.3 4.5.8z"/><path fill="#a2988f" stroke="#a2988f" d="M592.7 662c.6.5.8 1 1.2 1.7-.8 4.8-1.8 9.2-2.5 13.7-2.9 18.4-5.6 36.9-8.5 55.3-.8 5-2.2 9.9-3.9 14.9-6.8-16.3-12.9-32.6-19.2-48.9-3.2-7.9-6.6-15.8-10-24.1 0-1.1 0-1.8.3-2.7.5-.4.7-.6 1.3-.9 11.6-2.4 22.9-4.6 34.1-7.1 1.6-.4 3-1.9 4.5-2.9.8.3 1.6.6 2.7 1z"/><path fill="#a7a3a1" stroke="#a7a3a1" d="M549.8 675c3.4 7.9 6.8 15.8 10 23.7 6.3 16.3 12.4 32.6 18.9 49.1.6 1.6 1 3 1.3 4.8-6.3 4.8-12.5 9.2-18.5 13.4-7.3-3.5-6.6-10.9-9.6-16.3-.8 1.2-1.4 2.2-2.4 3-.5-.4-.6-.5-.5-1v-2.1c.1-1.3.1-2.3.4-3.6.4-23.9.4-47.5.4-71z"/><path fill="#1d1815" stroke="#1d1815" d="M541.8 815c-.3 2.4-.6 4.8-1.3 7.7-.4 1.7-.5 3-.5 4.3-.1 1.4-.2 2.8-.8 4.6-3.7 2.6-4.6 4.9-1 7.5 0 1-.1 2.1-.7 3.5-3.9 1.8-2.4 3.1-.4 4.4-.4 3.7-.8 7.4-1.6 11.6-.4 1.8-.5 3.1-.5 4.4-.1 1.4-.2 2.8-.7 4.6-.7 4.1-1.1 7.8-1.4 11.4-.1 1.4-.3 2.9-.6 4.7-2.8 1.5-4.7.5-6.7-1.5-9.4-9.3-19-18.5-28.6-27.7-1.1-1-2.5-1.8-5-3.7v7.3c0 29.9.1 59.9-.1 89.9 0 4.6-1.3 9.2-1.2 13.8.2 4.3 1.5 8.6 2.3 13.3-1.6.5-3.3.6-5.4.7-.2-3.2.3-6.5.3-9.7 0-7.2-3-13-9.3-17.1-1.2-1.3-2-2.8-3.1-3.9-4.1-4.3-8.4-8.5-12.9-13.2-.5-.7-.6-.8-.8-1-1.6-8-3.3-16-4.6-24.7-.1-3.5-.5-6.4-.9-9.3-.8-5.5-3-11.3 2.3-16 5.7-5 11.5-9.9 16.9-15.3 5.4-5.3 10.4-11 15.9-16.6 5.3-3.8 10.4-7.3 15.2-11.2 9.6-7.8 18.9-15.9 28.7-23.8 2.5.3 4.5.7 6.5 1z"/><path fill="#231d1a" stroke="#231d1a" d="M491 849c-5.1 5.6-10.1 11.3-15.5 16.6-5.4 5.4-11.2 10.3-16.9 15.3-5.3 4.7-3.1 10.5-2.3 16 .4 2.9.8 5.8.9 8.9-1.9-6.5-3.5-13.3-5.3-20.4-1.9-14.9-3.6-29.4-5.4-43.9-1.4-10.9-2.9-21.7-4-33 1.6.1 2.8.6 3.8 1.4 14.9 13 29.8 26.1 44.7 39.1z"/><path fill="#938e8c" stroke="#938e8c" d="M461.5 930.8c.5.3.6.4.9.8-4.2 5-8.4 9.7-12.9 14.4-.6.1-.8 0-1.2 0-1.8-6.3-3.3-12.6-4.7-19-.2-.8 0-1.8.3-3 5.9 2.1 11.6 4.4 17.6 6.8z"/><path fill="#3b3330" stroke="#3b3330" d="M491.4 849c-15.3-13-30.2-26.1-45.1-39.1-1-.8-2.2-1.3-3.7-1.9-.5-.4-.6-.9-.8-1.7-.1-.5 0-.6.5-1 1.2-.3 2-.3 3 0 15.8.4 31.2.6 47.2.7 14.5 0 28.6-.1 42.7.1 1.6 0 3.2 1.2 4.7 2.2-1.8 2.1-3.4 3.9-5 5.7-9.4 7.9-18.7 16-28.3 23.8-4.8 3.9-9.9 7.4-15.2 11.2z"/><path fill="#67605e" stroke="#67605e" d="M493 495c3.7 2 7.7 3.7 11.1 6.1 14.3 10.6 28.6 21.4 42.7 32.2 6 4.7 11.6 9.7 17.8 14.6-.4 1.3-.9 2.9-1.9 3.8-8.1 7.7-16.3 15.2-24.5 22.8-4.8 4.5-9.7 9.1-14.5 13.7-10.2 9.7-20.3 19.5-30.9 29.6-.9.3-1.3.3-1.7 0-.1-.8-.1-1.3.1-2.2.3-1.3.8-2.3.8-3.2 0-33.1-.1-66.2 0-99.4.1-6 .7-12 1-18z"/><path fill="#29231f" stroke="#29231f" d="M491.1 618.2c.4-.1.8-.1 1.5-.1.9.6 1.4 1.1 2.2 2 .3.3.4.7.1 1 1.2 4.4 2.7 8.7 3.7 12.9-1.8 1.5-4.3 2.9-4.5 4.6-1 8.7-1.8 17.4-2 26.2-.3 12.6-.1 25.3-.1 38 0 5.7 0 11.4-.4 17.2-13.3 7.1-26.2 14.2-39.2 21-6.3 3.3-12.7 6.1-19.1 9.2-.2-.2-.3-.5-.3-1.3.2-1.7.3-2.8.7-3.9.8-.8 1.5-1.4 1.8-2.1 5.6-12.7 11-25.5 16.6-38.2 5.3-11.8 10.6-23.5 15.9-35.3 4.7-10.4 9.5-20.7 14.1-31.1 2.5-5.7 4.6-11.6 6.8-17.6.1-.2.1-.7.4-.8.8-.6 1.3-1.2 1.8-1.7z"/><path fill="#5f5a57" stroke="#5f5a57" d="M495.2 620.8s-.1-.4-.1-.6c.8-.5 1.6-1 2.3-.8 11.9 3.1 23.8 6.3 36 9.6.6.4.8.6 1.3 1.4 4.1 10.6 8 20.6 11.8 30.7.7 1.9.8 4.1.8 6.1-9.9-8.6-19.6-17.2-29.2-25.8-7.7-6.8-15.3-13.7-22.9-20.6z"/><path fill="#8f877f" stroke="#8f877f" d="M547.7 667.3c-.4-2.1-.5-4.3-1.2-6.2-3.8-10.1-7.7-20.1-11.6-30.6 6.7 3.3 13.6 6.9 20.4 10.7 11.4 6.4 22.7 13 34.4 19.7-1.2 1.1-2.6 2.6-4.2 3-11.2 2.5-22.5 4.7-34.4 7.1h-1.4c-.2 0-.6-.1-.6-.4-.5-1.3-1-2.3-1.4-3.3z"/><path fill="#aca298" stroke="#aca298" d="M390.7 662.1c.8-.4 1.3-.6 2.1-.6 4.5 1.5 8.6 3 12.8 3.8 9.1 1.8 18.2 3.2 27.4 5.2 0 3.1 0 5.8-.4 8.5-1.5 1.2-3 2.2-3.5 3.6-3.9 10.8-7.4 21.8-11.4 32.7-4 11-8.4 21.8-12.7 32.7-1.3-5-3-10-3.9-15-3.1-17.9-5.9-35.8-8.8-53.6-.8-4.9-1.5-9.8-2.3-15.1.1-.9.3-1.5.7-2.2z"/><path fill="#afaba8" stroke="#afaba8" d="M405 748.4c4.3-11.3 8.7-22.1 12.7-33.1 4-10.9 7.5-21.9 11.4-32.7.5-1.4 2-2.4 3.5-3.1.5 7.1.5 13.7.6 20.3 0 15.1.1 30.2.2 45.3-.1 1-.2 2.1-.5 3.6-2 4.2-4 8-5.8 11.9-.8 1.7-1.4 3.5-2.3 5.7-6.9-4.5-13.2-8.7-19.6-13.1-.2-1.7-.2-3-.2-4.8z"/><path fill="#7c7672" stroke="#7c7672" d="M491.1 617.8c-.5.9-1 1.5-2 1.9-13.7 3-26.8 6.2-39.9 9.3h-.3c-1.1-1-2.2-2-3.6-3-10.4-5.4-20.4-10.8-30.5-16.1-7.6-4-15.3-7.9-23.3-11.9 3.1-6.4 6.5-12.8 10.1-19.1 5.5-9.2 11.2-18.4 17.5-27.7 1.8.4 3.1.7 4 1.5 5.2 4.7 10.3 9.4 15.3 14.2 10 9.7 19.9 19.5 30.1 29 7.3 6.9 15 13.4 22.5 20.1 0 .5 0 1 .1 1.8z"/><path fill="#938e8c" stroke="#938e8c" d="M432.9 670c-9.1-1.5-18.2-2.9-27.3-4.7-4.2-.8-8.3-2.3-12.5-3.9 16.7-10.2 33.4-20.1 50.2-30 1.6-.9 3.3-1.6 5.3-2.4.3 0 .5 0 .5.4-2 5.8-4 11.2-6.1 16.5-2.8 7.5-5.8 14.9-8.9 22.6-.5.6-.8 1.1-1.2 1.5z"/><path fill="#6a6561" stroke="#6a6561" d="M491.2 615.6c-7.7-6.3-15.4-12.8-22.7-19.7-10.2-9.5-20.1-19.3-30.1-29-5-4.8-10.1-9.5-15.3-14.2-.9-.8-2.2-1.1-3.7-1.7-.4-.7-.5-1.4-.6-2.4 9.4-8.4 18.7-16.7 28.5-24.2 11.7-9 23.9-17.5 36.1-26 2.6-1.8 5.9-2.5 9.3-3.6 0 6.2-.6 12.2-.7 18.2-.1 33.2 0 66.3 0 99.4 0 .9-.5 1.9-.8 3.2z"/><path fill="#938e8c" stroke="#938e8c" d="M562.4 274.3c1.4-.6 2.5-1 3.6-1.3 4.7-1.2 9 .5 10.5 4.1 1.5 3.7-.1 8.4-3.7 10.3-4 2.2-10.1 1.2-12.5-2.5-2.4-3.8-2.1-7.5 2.1-10.6z"/><path fill="#736d68" stroke="#736d68" d="M591.2 294.6c-.3 6.2-4.2 9.4-9.1 12-.4-.4-.5-.6-.6-.8 8.2-7.3 9-10.8 5.7-25 .4-.2.8-.4 1.2-.5 1 2.6 2.1 5.2 2.7 7.9.4 1.9 0 4 .1 6.4z"/><path fill="#46423f" stroke="#46423f" d="M554.9 302.7c-.1.6-.3.8-.7 1.2-5.4-5-6.2-10.9-4.1-16.6 1.4 4.5 3 9.8 4.8 15.4z"/><path fill="#302c2b" stroke="#302c2b" d="M581.2 305.8c.4.2.5.4.6 1-1.7 1-3.5 1.6-5.6 2.2 1.3-1 3-2.1 5-3.2zM573.6 309c-2.4.2-5.2.4-8.3.3 2.4-.3 5.1-.3 8.3-.3z"/><path fill="#231d1a" stroke="#231d1a" d="M433.3 750.5c6.4-3.4 12.8-6.2 19.1-9.5 13-6.8 25.9-13.9 39.6-20.8 16.3 8.7 31.9 17.3 47.6 25.8 3 1.6 6.2 2.7 9.3 4 .1.4.1.9-.4 1.7-38.6.3-76.7.3-114.7.3-.2-.4-.4-.8-.5-1.5z"/><path fill="#332c27" stroke="#332c27" d="M433.8 752.4c38-.4 76.1-.4 114.6-.4.5.2.6.3.7.8.1.4 0 .6-.5 1-1.6.5-2.8.5-3.8 1-13.2 6.5-26.3 13.2-39.6 19.5-4.9 2.3-10.1 3.8-15.4 5.4-14.2-6.8-28.2-13.5-42.3-19.8-4-1.8-8.4-2.6-12.6-3.9-.4-1.1-.8-2.2-1.1-3.6z"/><path fill="#231d1a" stroke="#231d1a" d="M434.9 756.4c4.2.9 8.6 1.7 12.6 3.5 14.1 6.3 28.1 13 42.1 20.1-1.3 1.7-2.6 3-4.2 3.8-12.4 5.8-24.8 11.4-37.1 17.3-1.4.7-2.2 2.6-3.3 3.9h-2.6c-2.8-16.1-5.2-32.1-7.5-48.6z"/><path fill="#151310" stroke="#151310" d="M483.2 422.4c-.3-1.6 0-3.2-.6-4.3-4.4-8.4-9-16.8-13.1-25.6 8.1-.8 15.8-1.2 23.9-1.4 4.8.4 9.2.6 13.6.9 4 .3 8 .7 12 1-2.1 1.6-4.9 2.9-6.2 5.1-4.1 6.8-7.6 14-11.2 21.1-.2.4.7 1.5 1.2 2.5-5.4 5.7-9.8 5.8-19.6.7z"/><path fill="#3b3330" stroke="#3b3330" d="M453.7 955c.1 1.2 0 2.4-.5 3.8-.5 0-.8-.2-1.2-.6-.1-1 0-1.7.2-2.8.5-.4.6-.4.8-.5 0 0 .5.1.7.1z"/><path fill="#595552" stroke="#595552" d="M453 954.6c-.2.4-.3.4-.8.4-.7-.4-1.2-.9-1.7-1.3.8.2 1.6.4 2.5.9z"/><path fill="#d3cec6" stroke="#d3cec6" d="M528.4 291.8c-.5-1.9-.9-4.2-.9-6.6.6 1.9.9 4.1.9 6.6z"/><path fill="#ede6d7" stroke="#ede6d7" d="M488.4 361.1c.3-19.5.9-39.1 1.6-58.6.3-7.4.7-14.9 1.1-22.3 0-.7.7-1.3 1.5-2.1.7 18 1 36.1 1.4 54.2.2 7.2.6 14.5 1.1 21.8.2 2.2 1.3 4.4 2 7-2.8.3-5.5.2-8.7 0z"/><path fill="#46423f" stroke="#46423f" d="M493 391c-7.7.3-15.4.7-23.6 1.2-1.5 0-2.5-.1-4-.2-.4-1-.4-2.1-.4-3.6 6.2-2.7 12.4-5.2 18.6-7.3 2.6-.9 5.3-1.1 8.2-1 .6 4.1.9 7.5 1.2 10.9z"/><path fill="#3b3330" stroke="#3b3330" d="M493.4 391.1c-.7-3.5-1-6.9-1.3-10.7 8.9 1.9 17.9 3.9 26.6 6.7 2.2.7 3.5 4.1 5.3 6.6-1.4 0-2.8-.3-4.6-.7-4.4-.3-8.4-.7-12.4-1-4.4-.3-8.8-.5-13.6-.9z"/><path fill="#2d2523" stroke="#2d2523" d="M445.3 805.3c.8-1.6 1.6-3.5 3-4.2 12.3-5.9 24.7-11.5 37.1-17.3 1.6-.8 2.9-2.1 4.5-3.5 5.2-2.2 10.4-3.7 15.3-6 13.3-6.3 26.4-13 39.6-19.5 1-.5 2.2-.5 3.7-.8-1.2 14.6-2.8 29.2-4.3 43.8-.2 2-.4 4-.5 6.4.1.4-.2.7-.7.7-1.4-.1-2.3-.1-3-.5-13.2-6.4-26.5-12.9-39.6-19.5-4.7-2.3-9.3-1-9.3 3.1.1 6-2.1 12.1.9 18-15.5-.1-30.9-.3-46.7-.7z"/><path fill="#a7a3a1" stroke="#a7a3a1" d="M551.9 755.3c-.1.5-.3.7-.4 1-.1-.3-.4-.6-.4-.8.1-.2.5-.3.8-.2z"/><path fill="#332c27" stroke="#332c27" d="M492.5 806c-3.5-5.9-1.3-12-1.4-18 0-4.1 4.6-5.4 9.3-3.1 13.1 6.6 26.4 13.1 39.6 19.5.7.4 1.6.4 2.8.6.4.8.3 1.6-.2 2.7-1.2.3-1.9.3-2.6.3-1.6-.7-3.2-1.9-4.8-1.9-14.1-.2-28.2-.1-42.7-.1z"/><path fill="#231d1a" stroke="#231d1a" d="M539.9 808.3c.8-.3 1.5-.3 2.5-.3.1 2.1-.1 4.2-.4 6.6-2.2.1-4.2-.3-6.7-.6 1.2-1.8 2.8-3.6 4.6-5.7zM533.1 878.6c.1-3.2.5-6.9 1.1-10.6-.1 3.4-.5 6.9-1.1 10.6zM538.4 838.8c-3.8-2.3-2.9-4.6.7-6.8 0 2.1-.2 4.3-.7 6.8zM537.2 846.7c-2.1-1-3.6-2.3.2-3.7.2 1.1.1 2.3-.2 3.7zM535.2 862.7c-.2-1-.1-2.3.2-3.6.2 1 .1 2.2-.2 3.6zM540.2 826.7c-.2-1-.1-2.3.2-3.6.2 1 .1 2.2-.2 3.6z"/><path fill="#090909" stroke="#090909" d="M407.6 264.8c.4.2 1 .4 1.5.6-.4 0-.8-.1-1.4-.4-.2-.2-.1-.2-.1-.2z"/><path fill="#231d1a" stroke="#231d1a" d="M549.1 670.9s.4.1.5.3c.2.5.3.7.3.8-.1.8-.1 1.5-.1 2.6 0 23.9 0 47.5-.4 71-2-3-3.8-5.8-5.2-8.8-6-13.8-12-27.6-17.9-41.4-2-4.7-3.6-9.6-4.9-14.4 6.5-2.1 12.6-4 18.7-6.2 3-1.1 6-2.6 9-3.9z"/><path fill="#a7a3a1" stroke="#a7a3a1" d="M550.1 671.9c-.2 0-.3-.2-.3-.6.3-.3.4-.3.9-.3.1.3-.1.5-.6.9z"/><path fill="#2d2523" stroke="#2d2523" d="M521 681c1.7 4.8 3.3 9.7 5.3 14.4 5.9 13.8 11.9 27.6 17.9 41.4 1.4 3 3.2 5.8 4.8 9.1.1 1.4.1 2.4 0 3.7-3.2-.9-6.4-2-9.4-3.6-15.7-8.5-31.3-17.1-47.3-25.9-.3-5.9-.3-11.6-.3-17.3 0-12.7-.2-25.4.1-38 .2-8.8 1-17.5 2-26.2.2-1.7 2.7-3.1 4.8-4.4 4.3 8.3 7.8 16.5 11.5 24.6 3.5 7.4 7.1 14.8 10.6 22.2z"/><path fill="#403936" stroke="#403936" d="M433 670.5c.3-.9.6-1.4 1.5-2.1 13.2-11.6 25.9-22.8 38.7-34 5.2-4.6 10.5-9 15.7-13.5-2.2 5.8-4.3 11.7-6.8 17.4-4.6 10.4-9.4 20.7-14.1 31.1-5.3 11.8-10.6 23.5-15.9 35.3-5.6 12.7-11 25.5-16.6 38.2-.3.7-1 1.3-1.8 2.1-.4-15-.5-30.1-.5-45.2-.1-6.6-.1-13.2-.2-20.3v-9z"/><path fill="#181512" stroke="#181512" d="M521.4 681c-3.9-7.4-7.5-14.8-11-22.2-3.7-8.1-7.2-16.3-11.1-24.6-1.7-4.4-3.2-8.7-4.4-13.1 7.9 6.6 15.5 13.5 23.2 20.3 9.6 8.6 19.3 17.2 29.2 25.8.8 1.1 1.3 2.1 1.8 3.4-3 1.6-6 3.1-9 4.2-6.1 2.2-12.2 4.1-18.7 6.2z"/><path fill="#6e6966" stroke="#6e6966" d="M488.9 620.7c-5.2 4.7-10.5 9.1-15.7 13.7-12.8 11.2-25.5 22.4-38.6 33.8 2.6-7.4 5.6-14.8 8.4-22.3 2.1-5.3 4.1-10.7 6.2-16.5 13.1-3.5 26.2-6.7 39.6-9.6.2.2.2.7.1.9z"/></svg>