<svg version="1.1" id="Layer_1" xmlns="http://www.w3.org/2000/svg" xmlns:xlink="http://www.w3.org/1999/xlink" x="0px" y="0px" width="100%" viewBox="0 0 500 500" enable-background="new 0 0 500 500" xml:space="preserve">
<path fill="#0d1113" opacity="1.000000" stroke="#0d1113" d="M 33.1 147.8 C 31.9 145.7 30.6 143.6 29.1 141 C 28.4 139.8 27.8 139.2 27.3 138.6 C 27.3 138.6 27.2 138.2 27.1 137.8 C 26.7 137.2 26.5 137 26.2 136.7 C 26.2 136.7 26.1 136.3 26 135.9 C 25.6 135.4 25.3 135.2 25 135 C 25 135 25 135 25.1 134.7 C 24.8 134.1 24.6 133.9 24.3 133.6 C 24.3 133.6 24.2 133.3 24.1 132.9 C 23.7 132.2 23.4 132 23.1 131.8 C 23.1 131.8 23 131.4 22.9 131 C 22.5 130.4 22.3 130.2 22 130 C 22 130 22 130 22 129.7 C 21.7 129 21.3 128.5 20.9 128.1 C 20.9 127.9 20.9 127.8 20.8 127 C 20.1 122.4 19.4 118.5 18.8 114.6 C 16.5 100.7 14.2 86.9 12 73 C 12 73 12 73 12.2 72.8 C 12.6 72.4 12.9 72.2 13.5 72.1 C 14.6 72.1 15.3 72.1 16.1 72.4 C 18.5 74.1 20.7 75.9 23.3 76.9 C 34.6 81 46.1 84.9 57.4 89 C 62.3 90.8 67.1 93 72.1 95.3 C 72.5 96.4 72.8 97.2 72.7 98.1 C 71.6 99.9 70.4 101.6 70.2 103.4 C 66.4 127.3 62.7 151.3 58.9 175.2 C 58.5 177.8 58.1 180.7 54.2 179.9 C 54.2 179.9 54 180.2 53.9 179.9 C 53.5 179.4 53.3 179.2 53 179 C 51.5 176.5 50 174 48.2 171 C 47.7 170.2 47.4 170 47.1 169.8 C 46.9 169.3 46.6 168.9 46.2 167.9 C 45.7 167.2 45.5 167 45.2 166.7 C 44.5 165.7 43.9 164.6 43.1 163 C 42.6 162.3 42.3 162.1 42.1 161.9 C 40.1 158.8 38.2 155.7 36.1 152 C 35.6 151.3 35.3 151.1 35.1 150.9 C 34.8 150.4 34.6 149.9 34.2 148.9 C 33.7 148.2 33.4 148 33.1 147.8 z"></path>
<path fill="#05080c" opacity="1.000000" stroke="#05080c" d="M 491 80 C 491 80.4 491 80.9 490.5 81.7 C 490 83 490 84 490 85 C 487.9 98.8 486.2 112.7 483.6 126.4 C 482.8 130.4 479.8 134 477.6 137.8 C 474 143.8 470.3 149.7 466 155.9 C 464.9 157.1 464.5 158.1 464 159.1 C 462.2 162.3 460.4 165.5 457.9 168.9 C 456.9 170.1 456.4 171.1 456 172 C 456 172 456 172 455.7 172.1 C 454.9 173.1 454.5 174.1 454.1 175.1 C 454.1 175.1 454 175.1 453.8 175.1 C 453.4 175.7 453.2 176.4 453 177 C 452.6 177.9 452.1 178.8 451 179.9 C 449.2 177.9 447.5 175.9 447.1 173.6 C 443.8 154.8 440.6 135.9 437.5 117 C 436.2 109.4 435.2 101.7 434.4 94 C 436.7 93 438.6 92 440.6 91.3 C 455.7 85.8 470.9 80.4 485.9 74.8 C 487.1 74.4 488 73 489.4 72 C 490.2 72 490.7 71.9 491.2 71.9 C 491.3 73.7 491.5 75.4 491.2 77.6 C 490.8 78.7 490.9 79.4 491 80 z"></path>
<path fill="#789786" opacity="1.000000" stroke="#789786" d="M 413.3 430.1 C 412.7 430.7 412.2 431.3 411 431.6 C 407.8 431.4 405.1 431.2 402.5 431.6 C 383.1 434.1 363.8 436.6 344.1 439.1 C 343.2 438.7 342.6 438.4 342.2 438 C 342.7 438 342.8 438 343.3 437.7 C 344.1 431.8 344.7 426.2 344.9 420.6 C 345.4 405.4 345.7 390.2 346.2 374.9 C 346.2 373.6 347.3 372.3 348.3 371 C 349 371 349.5 371.1 350 371.5 C 354 375.8 358 379.8 362.1 383.6 C 375.5 396 388.8 408.4 402.3 420.7 C 405 423.1 408.1 424.9 411 427 C 411 427 411 427 411 427.3 C 411.3 428 411.7 428.5 412.1 429.2 C 412.6 429.7 413 429.9 413.3 430.1 z"></path>
<path fill="#dee6cf" opacity="1.000000" stroke="#dee6cf" d="M 289 60.1 C 295 60.7 301.1 61.3 307.6 62.2 C 308 62.5 308 63 307.6 63 C 306.1 64.3 304.3 65.6 304.1 67.1 C 301.2 82.6 298.6 98.2 296 113.8 C 294.2 124.8 292.7 135.9 290.7 147 C 290.3 147 290.2 147 289.6 147 C 288.2 146.6 287 146.3 286.2 145.7 C 280 141.3 274 136.7 267.8 132.3 C 263.2 129.1 258.5 126.1 253.7 122.9 C 253 122.6 252.5 122.3 252 121.6 C 252 120.5 252 119.8 252.2 119 C 252.7 119 252.8 119 253.3 119 C 254.4 118.2 255.2 117.6 255.7 116.8 C 267 99.6 278.3 82.4 289.4 65.1 C 290.1 64 289.2 61.8 289 60.1 z"></path>
<path fill="#f1f4ed" opacity="1.000000" stroke="#f1f4ed" d="M 252 119 C 252 119.8 252 120.5 252 121.6 C 252 122 252 122 251.7 122.1 C 239.3 130.9 227.2 139.5 214.9 147.8 C 214.5 146.6 214.3 145.8 214 144.6 C 213.6 141.6 213.3 138.9 212.9 136.3 C 208.9 111.9 205 87.5 201.3 62.9 C 203.8 62.1 205.9 61.6 208.1 61 C 208.5 61 208.9 61 210 61 C 212.3 62.1 214.5 62.9 215.6 64.4 C 222.2 74.2 228.5 84.2 235 94 C 240.6 102.4 246.3 110.7 252 119 z"></path>
<path fill="#1c2527" opacity="1.000000" stroke="#1c2527" d="M 384 15.3 C 384.4 15.1 384.9 14.9 385.7 15.2 C 392 24.6 398 33.4 403.9 42.4 C 405.3 44.5 406.6 46.8 407.7 49.2 C 402.1 63.7 396.7 78 391.4 92.3 C 388.1 101.2 385.1 110.1 382 119.4 C 381.9 119.9 381.8 120.2 381.5 120.3 C 380.8 120 380.5 119.9 379.8 119.5 C 374.7 116.9 369.9 114.4 364.8 111.8 C 364.3 111.5 364 111.4 363.6 111.4 C 363.5 111.4 363.4 111.4 363.6 111 C 365.1 105 366.6 99.4 367.9 93.7 C 372.4 72.9 377 52 381.4 31.1 C 382.5 25.9 383.2 20.6 384 15.3 z"></path>
<path fill="#0d1114" opacity="1.000000" stroke="#0d1114" d="M 434 94 C 435.2 101.7 436.2 109.4 437.5 117 C 440.6 135.9 443.8 154.8 447.1 173.6 C 447.5 175.9 449.2 177.9 450.8 180 C 450.7 181 450.3 181.9 449.5 183.3 C 448.8 183.7 448.4 183.9 448 184 C 448 184 448.1 183.9 447.8 183.7 C 443.9 181.7 440.1 180 436.4 178.2 C 423.3 172.1 410.1 166 397.1 159.5 C 405.1 144.9 413 130.8 420.9 116.5 C 424.7 109.7 428.3 102.8 432 96 C 432 96 432 96 432.2 95.9 C 432.7 95.6 432.9 95.3 433 94.7 C 433 94.3 433 94.2 433.2 94 C 433.5 94 434 94 434 94 z"></path>
<path fill="#131719" opacity="1.000000" stroke="#131719" d="M 54.1 180.2 C 58.1 180.7 58.5 177.8 58.9 175.2 C 62.7 151.3 66.4 127.3 70.2 103.4 C 70.4 101.6 71.6 99.9 72.9 98.3 C 85.1 119 96.6 139.6 108.1 160.4 C 108 160.6 108 161 107.7 161.1 C 90.6 168.9 73.8 176.5 56.8 184.1 C 56.2 183.8 55.9 183.6 55.6 183.4 C 55.5 183.1 55.4 182.8 55.1 182 C 54.7 181.3 54.4 181 54.1 180.8 C 54.1 180.8 54.1 180.4 54.1 180.2 z"></path>
<path fill="#dae0d0" opacity="1.000000" stroke="#dae0d0" d="M 458 222 C 458 222.4 458 222.8 458 223.9 C 453.6 236.7 449.4 248.8 445 260.9 C 444.6 262 443.7 263 442.6 264 C 422.4 257.8 402.7 251.6 382.9 245.5 C 377.6 243.9 372.1 242.6 366.4 241 C 365.4 239.7 364.6 238.5 364 237 C 369.3 235.5 374.4 233.9 379.5 233.1 C 394.5 230.7 409.6 228.4 424.6 226.3 C 435.7 224.7 446.9 223.4 458 222 z"></path>
<path fill="#d7d9d6" opacity="1.000000" stroke="#d7d9d6" d="M 458 221.8 C 446.9 223.4 435.7 224.7 424.6 226.3 C 409.6 228.4 394.5 230.7 379.5 233.1 C 374.4 233.9 369.3 235.5 363.8 236.9 C 362.5 236.2 361.7 235.4 360.9 234.2 C 360.5 233.3 360.2 232.8 360 231.9 C 360.4 231.5 360.7 231.2 361.4 231 C 362.9 230.4 364.2 229.9 365.3 229.3 C 382.5 219.9 399.6 210.5 416.7 201.1 C 427.2 195.4 437.6 189.7 448.1 183.9 C 448.1 183.9 448 184 448 184.4 C 450.7 194.5 453.3 204.3 456 214 C 456 214.7 456.1 215.5 456.1 216.9 C 456.7 218.7 457.4 219.9 458 221 C 458 221.2 458 221.3 458 221.8 z"></path>
<path fill="#f6fdfa" opacity="1.000000" stroke="#f6fdfa" d="M 291 147 C 292.7 135.9 294.2 124.8 296 113.8 C 298.6 98.2 301.2 82.6 304.1 67.1 C 304.3 65.6 306.1 64.3 308 63 C 314.9 63.4 321 63.7 327 64 C 327.6 64.2 328.1 64.3 328.9 64.9 C 329.4 65.2 329.7 65.1 330 65 C 335.4 65.3 340.7 65.7 346.6 66.3 C 347.1 67.7 347.1 68.8 346.7 70 C 346 70.3 345.4 70.5 345.2 70.9 C 334.8 86.4 324.4 101.9 314 117.5 C 313 119.1 312.6 121.2 311.6 123 C 308.1 127 305.1 131 302 135 C 302 135 302 135 301.8 135.1 C 301.3 135.5 301.1 135.7 300.7 136.1 C 300 136.8 299.5 137.4 298.8 138.1 C 298.3 138.9 298.2 139.4 297.7 140.2 C 295.6 142.5 293.8 144.8 291.7 147 C 291.5 147 291 147 291 147 z"></path>
<path fill="#fbfdf9" opacity="1.000000" stroke="#fbfdf9" d="M 201 63 C 205 87.5 208.9 111.9 212.9 136.3 C 213.3 138.9 213.6 141.6 213.6 144.5 C 211.6 143.3 209.8 141.6 207.9 139.8 C 207.5 139.4 207.3 139.2 207 139 C 207 139 207 139 206.9 138.8 C 206.6 138.3 206.3 138.1 206 138 C 206 138 206 138 206 137.7 C 202 132.2 198 127.1 194 121.6 C 182.8 104.6 171.7 88 160.6 71.4 C 160.1 70.7 159 70.4 158.1 69.7 C 158.1 68.9 158.2 68.5 158.5 68 C 159.6 67.7 160.3 67.3 161.1 67 C 165.5 66.3 169.9 65.7 174.9 65.3 C 184 64.7 192.5 63.9 201 63 z"></path>
<path fill="#1a1d20" opacity="1.000000" stroke="#1a1d20" d="M 204 490 C 190.5 483.2 176.9 476.6 163.6 469.7 C 140.2 457.7 117 445.4 93.4 432.8 C 93.8 432.2 94.4 432 95.4 431.9 C 98.4 432.1 100.9 431.9 103.3 432.2 C 122.6 434.8 141.8 437.4 161.1 440.2 C 161.7 440.8 162.1 441.1 162.7 441.7 C 175.7 456.3 188.6 470.6 201.3 484.9 C 202.5 486.3 203.1 488.3 204 490 z"></path>
<path fill="#090d0f" opacity="1.000000" stroke="#090d0f" d="M 158.2 68 C 158.2 68.5 158.1 68.9 157.9 70 C 155.8 78.7 153.9 86.7 151.9 94.7 C 150.6 99.8 149 104.7 147.1 109.8 C 144.9 110.7 143 111.4 141 111.8 C 137.8 96.5 134.6 81.7 131.5 66.9 C 128 50.3 124.5 33.6 121.4 17 C 121.9 16.9 122.1 16.9 122.3 16.9 C 130.3 20.4 137.1 25.1 141 33.6 C 146.1 44.7 152 55.5 157.8 67 C 158 67.7 158.1 67.9 158.2 68 z"></path>
<path fill="#131719" opacity="1.000000" stroke="#131719" d="M 344.4 439.2 C 363.8 436.6 383.1 434.1 402.5 431.6 C 405.1 431.2 407.8 431.4 410.7 431.6 C 379.4 448.4 347.8 464.9 316.2 481.4 C 311.5 483.8 306.6 485.8 301.5 487.7 C 314.9 471.9 328.5 456.5 342.1 441 C 342.1 441 342 441.1 342.3 441 C 342.7 440.6 342.9 440.3 343.3 440 C 343.9 439.7 344.2 439.4 344.4 439.2 z"></path>
<path fill="#070b0d" opacity="1.000000" stroke="#070b0d" d="M 347.1 70 C 347.1 68.8 347.1 67.7 347 66.3 C 352.3 56 358.4 46.4 362.8 36 C 367 26.1 375.2 20.9 383.7 15.4 C 383.2 20.6 382.5 25.9 381.4 31.1 C 377 52 372.4 72.9 367.9 93.7 C 366.6 99.4 365.1 105 363.3 110.9 C 360.9 110.1 359 109 357 107.5 C 354.9 98.2 353 89.3 350.7 80.5 C 349.8 76.9 348.3 73.5 347.1 70 z"></path>
<path fill="#fcfefc" opacity="1.000000" stroke="#fcfefc" d="M 43 232 C 43.3 231.3 43.6 230.5 44.2 229.2 C 45.3 227 46.1 225.4 47 224.2 C 50.4 233.2 54 241.8 57.2 250.5 C 59 255.6 60.4 260.8 61.7 266.1 C 58.8 269.1 56.3 272 53.7 274.7 C 44.7 284.5 35.8 294.3 26.5 303.8 C 23.8 306.6 20.2 308.6 17 310.6 C 17 309.9 17 309.4 17 309 C 17 309 17 309 17.3 308.9 C 20.4 300.1 23.2 291.6 26 283 C 26 283 26 283 26.3 282.8 C 29.1 274.6 31.5 266.6 34 258.5 C 34 258.5 34 258.5 34.3 258.1 C 37.3 249.2 40.1 240.6 43 232 z"></path>
<path fill="#d9ddda" opacity="1.000000" stroke="#d9ddda" d="M 443 264 C 443.7 263 444.6 262 445 260.9 C 449.4 248.8 453.6 236.7 458 224.3 C 459.1 224.8 460.6 225.6 460.9 226.8 C 463.1 234.4 464.9 242.1 467.1 249.7 C 468.2 253.3 470.1 256.7 471.2 260.3 C 474.1 269.5 476.5 278.8 479.4 288 C 481.1 293.6 483.4 299.1 485.4 304.8 C 485.8 306.1 485.8 307.7 485.7 309.5 C 483 307.6 480.7 305.3 478.5 302.9 C 471.3 295.2 464.2 287.3 457 279.6 C 452.8 275.2 448.3 271.2 443.8 267 C 443.5 267 443 267 443 266.6 C 443 265.5 443 264.8 443 264 z"></path>
<path fill="#15191c" opacity="1.000000" stroke="#15191c" d="M 122.2 16.6 C 122.1 16.9 121.9 16.9 121 17 C 118.4 19.4 116.3 21.6 114.5 24 C 108.6 32.3 102.8 40.7 96.7 49.2 C 95.2 50.7 94 52 92.8 53.4 C 89.5 56.9 86.3 60.5 83 63.6 C 79.1 50.4 75.4 37.5 71.2 24.8 C 70.4 22.3 70.8 17.9 66 18 C 67.7 17.2 69.3 15.9 71 15.7 C 79.6 15.2 88.2 15 97.7 14.9 C 104.4 14.8 110.2 14.6 116 14.3 C 116.8 14.3 117.5 14.2 118.8 14.5 C 119.9 14.9 120.4 14.9 121 15 C 121.4 15.4 121.8 15.8 122.2 16.6 z"></path>
<path fill="#e1e4de" opacity="1.000000" stroke="#e1e4de" d="M 252.2 119 C 246.3 110.7 240.6 102.4 235 94 C 228.5 84.2 222.2 74.2 215.6 64.4 C 214.5 62.9 212.3 62.1 210.3 61 C 218.6 59.9 227.2 59 235.9 57.8 C 240 57.2 244 56.1 248.1 55.5 C 250.2 55.2 252.3 55.4 254.5 56 C 253.7 58.3 252.1 60 252.1 61.7 C 252.3 80.8 252.7 99.9 253 119 C 252.8 119 252.7 119 252.2 119 z"></path>
<path fill="#d6dbd0" opacity="1.000000" stroke="#d6dbd0" d="M 253.3 119 C 252.7 99.9 252.3 80.8 252.1 61.7 C 252.1 60 253.7 58.3 254.8 56.3 C 255.5 56 255.9 56 256.8 56.2 C 257.4 56.7 257.7 56.9 258 57 C 258.2 57 258.3 57 259 57.3 C 260.6 57.4 261.8 57.2 263 56.9 C 263.8 57.2 264.6 57.5 265.9 58.1 C 268.3 58.4 270.2 58.2 272 58 C 272.4 58 272.9 58 273.8 58.4 C 276.4 59.2 278.7 59.6 281 60 C 281.2 60 281.3 60 282 60.3 C 284 60.4 285.5 60.2 287 60 C 287.4 60 287.9 60 288.7 60.1 C 289.2 61.8 290.1 64 289.4 65.1 C 278.3 82.4 267 99.6 255.7 116.8 C 255.2 117.6 254.4 118.2 253.3 119 z"></path>
<path fill="#0f1215" opacity="1.000000" stroke="#0f1215" d="M 408 49 C 406.6 46.8 405.3 44.5 403.9 42.4 C 398 33.4 392 24.6 386 15.3 C 392.4 15.1 398.7 15.2 405.6 15.7 C 407.1 16.1 408.1 16 409 15.9 C 415.7 16 422.4 16.1 429.9 16.5 C 432.5 16.9 434.3 16.9 436.1 17 C 436.1 17 436.2 17.1 436.2 17.6 C 435.6 20.1 435 22.2 434.4 24.3 C 430.3 37.5 426.1 50.8 421.6 64 C 420.1 62.8 418.9 61.8 417.8 60.6 C 414.5 56.8 411.2 52.8 408 49 z"></path>
<path fill="#d0dace" opacity="1.000000" stroke="#d0dace" d="M 49.8 382.2 C 48.9 380.9 47.8 379.6 47 378.2 C 37.5 359.2 28.1 340.2 18.7 321.2 C 17.6 319.2 17.1 316.9 16.6 314.4 C 29.3 316.4 41.7 318.7 54 321.5 C 53.7 330.6 53.4 339.2 52.9 347.9 C 52.5 354.1 51.5 360.4 51.2 366.7 C 51 371 51.7 375.4 51.8 380.1 C 51.1 380.9 50.6 381.4 50 382 C 49.9 382.1 49.8 382.2 49.8 382.2 z"></path>
<path fill="#dce1cd" opacity="1.000000" stroke="#dce1cd" d="M 95 431.9 C 94.4 432 93.8 432.2 93.1 432.7 C 89.7 429.3 86.3 425.7 83.2 422 C 78.2 416.1 73.5 410 68.6 404.2 C 63.6 398.3 58.4 392.5 53.1 386.1 C 52.6 385 52.3 384.5 51.9 384.1 C 51.9 384.1 52 384 51.9 383.8 C 51.6 383.3 51.3 383.1 51 383.1 C 51 383.1 51 383 51 382.8 C 51 382.3 51 382.2 51.4 382 C 66 384.2 80.1 386.5 94.2 388.5 C 97.8 389 101.4 388.8 105.2 389.1 C 105.7 389.4 105.8 389.7 105.9 390.4 C 102 402.2 98 413.5 94.2 424.9 C 93.7 426.5 94 428.2 94.2 430.1 C 94.6 430.8 94.8 431.3 95 431.9 z"></path>
<path fill="#a4beab" opacity="1.000000" stroke="#a4beab" d="M 413.6 430 C 413 429.9 412.6 429.7 412.1 428.9 C 411.7 427.9 411.3 427.4 411 427 C 411 427 411 427 411 426.6 C 407.1 414.4 403.1 402.7 399.3 390.9 C 399.8 390.6 399.9 390.3 400.4 390 C 401.8 390 402.9 390 403.8 389.8 C 420.2 386.9 436.6 384 453 381.3 C 453 382.1 453 382.5 453 382.9 C 452.8 383.2 452.6 383.5 451.8 383.9 C 448.2 387.4 445 390.7 442 394.2 C 441.7 394.5 442.2 395.5 442.4 396.2 C 438.6 401.1 435 406.2 431 411 C 425.5 417.5 419.6 423.6 413.6 430 z"></path>
<path fill="#e4e8e3" opacity="1.000000" stroke="#e4e8e3" d="M 204.2 490.3 C 203.1 488.3 202.5 486.3 201.3 484.9 C 188.6 470.6 175.7 456.3 162.8 441.6 C 162.8 441.2 163 441 163.4 441.1 C 176.7 446.1 189.7 451.2 202.8 456.6 C 203.2 457.5 203.6 458 204 458.6 C 212.3 469.5 220.7 480.5 229 491.5 C 227.8 492 226.6 492.9 225.4 492.9 C 220.6 493.1 215.8 493.3 211.1 492.9 C 208.8 492.7 206.6 491.4 204.2 490.3 z"></path>
<path fill="#88ac98" opacity="1.000000" stroke="#88ac98" d="M 470.3 348.3 C 470.2 348.7 470.1 349 469.6 349.7 C 468.9 350.8 468.6 351.6 468.4 352.3 C 468.3 352.7 468.2 353.1 467.7 353.7 C 467 354.8 466.7 355.6 466.4 356.4 C 466.3 356.7 466.2 357.1 465.7 357.7 C 463.2 362.1 461.2 366.2 459.2 370.2 C 459.1 370.6 459 371 458.5 371.7 C 457.8 372.8 457.5 373.5 457.2 374.2 C 457.1 374.6 457 374.9 456.5 375.6 C 455.4 376 454.8 376.1 454.1 375.7 C 453 357.2 452 339.1 451.4 321 C 463.5 318.6 475.3 316.3 487 314 C 486.4 315.7 485.8 317.5 484.6 319.6 C 483.6 321.4 483 322.8 482.4 324.2 C 482.4 324.2 482.3 324.7 481.9 325 C 481.1 326.3 480.7 327.2 480.3 328.2 C 479.2 330.5 478.2 332.9 476.6 335.6 C 476 336.8 475.7 337.5 475.4 338.2 C 474.3 340.6 473.2 342.9 471.6 345.7 C 470.8 346.8 470.6 347.5 470.3 348.3 z"></path>
<path fill="#f4f7f2" opacity="1.000000" stroke="#f4f7f2" d="M 54.1 321.1 C 41.7 318.7 29.3 316.4 16.4 314 C 16 313.3 16 312.5 16.3 311.3 C 16.5 311 16.9 311 16.9 311 C 20.2 308.6 23.8 306.6 26.5 303.8 C 35.8 294.3 44.7 284.5 53.7 274.7 C 56.3 272 58.8 269.1 61.9 266.1 C 62.7 266 62.8 266 63 266.4 C 61.7 272.6 60.3 278.4 59.5 284.3 C 57.8 296.2 56.5 308.2 54.9 320.3 C 54.6 320.8 54.4 321 54.1 321.1 z"></path>
<path fill="#cdd6d5" opacity="1.000000" stroke="#cdd6d5" d="M 487.1 313.6 C 475.3 316.3 463.5 318.6 451.1 320.9 C 450.2 320.7 449.9 320.7 449.4 320.6 C 449.2 320.2 449.1 320.1 449.1 319.5 C 449.4 317.2 450.1 315.2 449.9 313.3 C 449.5 307.9 448.7 302.6 448 297.2 C 446.7 287.1 445.3 277.1 444 267 C 448.3 271.2 452.8 275.2 457 279.6 C 464.2 287.3 471.3 295.2 478.5 302.9 C 480.7 305.3 483 307.6 485.7 310 C 486.4 311.1 486.7 312.2 487.1 313.6 z"></path>
<path fill="#070b0d" opacity="1.000000" stroke="#070b0d" d="M 65.7 18.1 C 70.8 17.9 70.4 22.3 71.2 24.8 C 75.4 37.5 79.1 50.4 82.7 63.6 C 82.3 64 82.1 64 81.6 64 C 69.2 58.2 57.1 52.4 45.2 46.5 C 44.2 46 43.8 44.3 43.1 43.2 C 48.9 36.6 54.8 29.9 61.2 23.1 C 61.9 22.7 62 22.5 62 22.2 C 63.2 20.9 64.3 19.6 65.7 18.1 z"></path>
<path fill="#3b3e3b" opacity="1.000000" stroke="#3b3e3b" d="M 42.8 43.3 C 43.8 44.3 44.2 46 45.2 46.5 C 57.1 52.4 69.2 58.2 81.4 64.3 C 72.3 65.8 63.2 66.9 54 67.9 C 41.4 69.4 28.7 70.7 16 72 C 15.3 72.1 14.6 72.1 13.5 71.8 C 13.2 71.6 13.1 71.1 13.1 71.1 C 22.9 61.9 32.7 52.7 42.8 43.3 z"></path>
<path fill="#222527" opacity="1.000000" stroke="#222527" d="M 491.1 71.6 C 490.7 71.9 490.2 72 488.9 72 C 466.4 69.7 444.7 67.3 423 64.8 C 423 64.5 423 64 423.4 64 C 435.1 58.5 446.6 53.1 457.9 47.5 C 459.3 46.8 460.1 44.9 461.2 43.6 C 471.2 52.8 481.1 62 491.1 71.6 z"></path>
<path fill="#000103" opacity="1.000000" stroke="#000103" d="M 461.1 43.3 C 460.1 44.9 459.3 46.8 457.9 47.5 C 446.6 53.1 435.1 58.5 423.1 64 C 422.3 64 422.2 64 422 64 C 426.1 50.8 430.3 37.5 434.4 24.3 C 435 22.2 435.6 20.1 436.2 17.6 C 441.1 22.1 446 27.1 451 32.7 C 451.8 33.9 452.5 34.4 453.2 34.9 C 455.8 37.6 458.4 40.3 461.1 43.3 z"></path>
<path fill="#b6beb1" opacity="1.000000" stroke="#b6beb1" d="M 229.2 491.4 C 220.7 480.5 212.3 469.5 204 458.6 C 203.6 458 203.2 457.5 202.9 456.5 C 202.9 456.1 203.1 455.9 203.5 455.9 C 206.2 456.4 208.5 456.8 210.7 457.1 C 224.5 458.8 238.2 460.5 252 462.4 C 252 463.2 252 463.6 251.7 464.1 C 244.2 473.3 237 482.2 229.8 491.2 C 229.8 491.2 229.4 491.3 229.2 491.4 z"></path>
<path fill="#97b1aa" opacity="1.000000" stroke="#97b1aa" d="M 342.1 441.1 C 328.5 456.5 314.9 471.9 301.1 487.7 C 299.9 489.3 298.8 490.6 297.3 491.4 C 297.2 488.1 297.2 485.3 297.7 482.6 C 299 474.4 300.5 466.2 301.9 457.6 C 301.9 456.8 301.9 456.3 301.9 455.9 C 301.9 455.9 301.9 455.9 302.2 455.9 C 310.3 452.9 317.8 449.7 325.5 446.8 C 331 444.7 336.6 443 342.1 441.1 z"></path>
<path fill="#8ea093" opacity="1.000000" stroke="#8ea093" d="M 301.9 457.9 C 300.5 466.2 299 474.4 297.7 482.6 C 297.2 485.3 297.2 488.1 297 491.3 C 282.6 491.9 268.3 492 253.5 491.6 C 252.7 482 252.3 473 252 464 C 252 463.6 252 463.2 252.2 462.4 C 252.6 462 252.8 462.1 253.1 462.4 C 254.2 463.9 255.2 465 256.1 466.2 C 262 473.5 268 480.8 274 488.4 C 276.3 491.3 277.7 489.7 279.1 487.8 C 282.8 482.7 286.4 477.6 290.2 472.6 C 294 467.7 298 462.8 301.9 457.9 z"></path>
<path fill="#9ea99c" opacity="1.000000" stroke="#9ea99c" d="M 251.7 464.1 C 252.3 473 252.7 482 253 491.5 C 245.5 491.9 238 491.8 230.1 491.5 C 237 482.2 244.2 473.3 251.7 464.1 z"></path>
<path fill="#d9ddda" opacity="1.000000" stroke="#d9ddda" d="M 456.3 213.8 C 453.3 204.3 450.7 194.5 448 184.4 C 448.4 183.9 448.8 183.7 449.4 183.6 C 451.9 192.4 454 201.3 456.1 210.3 C 456.4 211.3 456.4 212.5 456.3 213.8 z"></path>
<path fill="#d0dace" opacity="1.000000" stroke="#d0dace" d="M 46.9 223.8 C 46.1 225.4 45.3 227 44.2 228.8 C 43.8 228 43.3 226.9 43.6 226 C 45.8 218.5 48.1 211 51 203.2 C 51.4 203 51.9 202.9 51.9 203.3 C 50.2 210.2 48.6 216.6 46.9 223.2 C 46.9 223.4 46.9 223.8 46.9 223.8 z"></path>
<path fill="#e1e6d4" opacity="1.000000" stroke="#e1e6d4" d="M 201.3 62.9 C 192.5 63.9 184 64.7 175.3 65.3 C 181.7 64 188.3 62.9 194.9 62.1 C 199 61.5 203.1 61.3 207.6 61 C 205.9 61.6 203.8 62.1 201.3 62.9 z"></path>
<path fill="#d0dace" opacity="1.000000" stroke="#d0dace" d="M 42.6 232.1 C 40.1 240.6 37.3 249.2 34.2 258.1 C 36.7 249.7 39.5 240.9 42.6 232.1 z"></path>
<path fill="#d0dace" opacity="1.000000" stroke="#d0dace" d="M 25.7 283.2 C 23.2 291.6 20.4 300.1 17.3 308.9 C 19.8 300.5 22.6 291.9 25.7 283.2 z"></path>
<path fill="#d0dace" opacity="1.000000" stroke="#d0dace" d="M 33.7 258.8 C 31.5 266.6 29.1 274.6 26.3 282.8 C 28.5 275 30.9 267 33.7 258.8 z"></path>
<path fill="#b6cbbb" opacity="1.000000" stroke="#b6cbbb" d="M 442.7 396 C 442.2 395.5 441.7 394.5 442 394.2 C 445 390.7 448.2 387.4 451.6 384 C 448.9 388 445.9 391.9 442.7 396 z"></path>
<path fill="#bbc9bd" opacity="1.000000" stroke="#bbc9bd" d="M 51.9 202.9 C 51.9 202.9 51.4 203 51.2 203 C 52.4 196.8 53.8 190.5 55.4 183.8 C 55.9 183.6 56.2 183.8 56.8 184.4 C 57 185.2 57 185.6 56.8 186.3 C 55 192.1 53.4 197.5 51.9 202.9 z"></path>
<path fill="#e3f2e1" opacity="1.000000" stroke="#e3f2e1" d="M 326.6 64 C 321 63.7 314.9 63.4 308.4 63 C 308 63 308 62.5 308 62.3 C 314.1 62.7 320.1 63.3 326.6 64 z"></path>
<path fill="#b6cbbb" opacity="1.000000" stroke="#b6cbbb" d="M 459.5 370.1 C 461.2 366.2 463.2 362.1 465.6 358 C 463.9 362 461.9 366 459.5 370.1 z"></path>
<path fill="#2a3334" opacity="1.000000" stroke="#2a3334" d="M 115.5 14.2 C 110.2 14.6 104.4 14.8 98.2 15 C 103.5 14.6 109.3 14.4 115.5 14.2 z"></path>
<path fill="#b6cbbb" opacity="1.000000" stroke="#b6cbbb" d="M 454.2 376.1 C 454.8 376.1 455.4 376 456.3 375.9 C 455.6 378.1 454.6 380.4 453.3 382.8 C 453 382.5 453 382.1 453 381 C 453 380.2 453 380 453.3 379.7 C 453.8 378.4 454 377.3 454.2 376.1 z"></path>
<path fill="#dee6cf" opacity="1.000000" stroke="#dee6cf" d="M 280.8 59.7 C 278.7 59.6 276.4 59.2 274.1 58.5 C 276.2 58.5 278.4 59 280.8 59.7 z"></path>
<path fill="#dee6cf" opacity="1.000000" stroke="#dee6cf" d="M 271.8 57.7 C 270.2 58.2 268.3 58.4 266.2 58.3 C 267.8 57.8 269.7 57.6 271.8 57.7 z"></path>
<path fill="#dee6cf" opacity="1.000000" stroke="#dee6cf" d="M 286.8 59.7 C 285.5 60.2 284 60.4 282.2 60.3 C 283.5 59.8 285 59.7 286.8 59.7 z"></path>
<path fill="#d9ddda" opacity="1.000000" stroke="#d9ddda" d="M 458.3 220.8 C 457.4 219.9 456.7 218.7 456.1 217.2 C 456.9 218.1 457.7 219.4 458.3 220.8 z"></path>
<path fill="#c9d2cf" opacity="1.000000" stroke="#c9d2cf" d="M 482.7 324.1 C 483 322.8 483.6 321.4 484.5 319.9 C 484.2 321.2 483.6 322.6 482.7 324.1 z"></path>
<path fill="#e1e4de" opacity="1.000000" stroke="#e1e4de" d="M 262.8 56.7 C 261.8 57.2 260.6 57.4 259.2 57.3 C 260.2 56.9 261.4 56.7 262.8 56.7 z"></path>
<path fill="#222527" opacity="1.000000" stroke="#222527" d="M 490.2 84.7 C 490 84 490 83 490.3 82 C 490.5 82.8 490.5 83.6 490.2 84.7 z"></path>
<path fill="#1c2527" opacity="1.000000" stroke="#1c2527" d="M 408.8 15.7 C 408.1 16 407.1 16.1 406 15.9 C 406.8 15.6 407.7 15.6 408.8 15.7 z"></path>
<path fill="#1c2527" opacity="1.000000" stroke="#1c2527" d="M 435.8 16.7 C 434.3 16.9 432.5 16.9 430.4 16.6 C 431.9 16.4 433.7 16.4 435.8 16.7 z"></path>
<path fill="#0d1114" opacity="1.000000" stroke="#0d1114" d="M 456.3 171.9 C 456.4 171.1 456.9 170.1 457.6 169 C 457.5 169.9 457.1 170.9 456.3 171.9 z"></path>
<path fill="#0d1114" opacity="1.000000" stroke="#0d1114" d="M 454.4 175 C 454.5 174.1 454.9 173.1 455.7 172.1 C 455.6 173 455.1 173.9 454.4 175 z"></path>
<path fill="#c9d2cf" opacity="1.000000" stroke="#c9d2cf" d="M 480.6 328.1 C 480.7 327.2 481.1 326.3 481.8 325.2 C 481.7 326.1 481.3 327 480.6 328.1 z"></path>
<path fill="#0d1114" opacity="1.000000" stroke="#0d1114" d="M 464.3 159 C 464.5 158.1 464.9 157.1 465.7 156.1 C 465.6 157 465.1 157.9 464.3 159 z"></path>
<path fill="#0f1215" opacity="1.000000" stroke="#0f1215" d="M 453.1 34.6 C 452.5 34.4 451.8 33.9 451.1 33 C 451.8 33.2 452.4 33.7 453.1 34.6 z"></path>
<path fill="#222527" opacity="1.000000" stroke="#222527" d="M 491.2 79.8 C 490.9 79.4 490.8 78.7 491 78 C 491.3 78.5 491.3 79 491.2 79.8 z"></path>
<path fill="#bbc9bd" opacity="1.000000" stroke="#bbc9bd" d="M 27.2 138.9 C 27.8 139.2 28.4 139.8 28.9 140.7 C 28.3 140.5 27.7 139.9 27.2 138.9 z"></path>
<path fill="#0d1114" opacity="1.000000" stroke="#0d1114" d="M 453.3 176.9 C 453.2 176.4 453.4 175.7 453.8 175.1 C 454 175.6 453.8 176.2 453.3 176.9 z"></path>
<path fill="#b6cbbb" opacity="1.000000" stroke="#b6cbbb" d="M 470.6 348.2 C 470.6 347.5 470.8 346.8 471.4 346 C 471.4 346.6 471.2 347.3 470.6 348.2 z"></path>
<path fill="#b6cbbb" opacity="1.000000" stroke="#b6cbbb" d="M 468.6 352.2 C 468.6 351.6 468.9 350.8 469.5 350 C 469.5 350.6 469.2 351.3 468.6 352.2 z"></path>
<path fill="#b6cbbb" opacity="1.000000" stroke="#b6cbbb" d="M 457.5 374.1 C 457.5 373.5 457.8 372.8 458.3 372 C 458.4 372.6 458.1 373.3 457.5 374.1 z"></path>
<path fill="#b6cbbb" opacity="1.000000" stroke="#b6cbbb" d="M 466.7 356.2 C 466.7 355.6 467 354.8 467.6 354 C 467.6 354.7 467.3 355.4 466.7 356.2 z"></path>
<path fill="#c9d2cf" opacity="1.000000" stroke="#c9d2cf" d="M 475.7 338.1 C 475.7 337.5 476 336.8 476.5 336 C 476.6 336.6 476.3 337.3 475.7 338.1 z"></path>
<path fill="#d6dbd0" opacity="1.000000" stroke="#d6dbd0" d="M 158.5 68 C 158.1 67.9 158 67.7 158 67.3 C 158.8 67 159.6 67 160.7 67 C 160.3 67.3 159.6 67.7 158.5 68 z"></path>
<path fill="#bbc9bd" opacity="1.000000" stroke="#bbc9bd" d="M 20.9 128.4 C 21.3 128.5 21.7 129 22 129.7 C 21.6 129.6 21.2 129.1 20.9 128.4 z"></path>
<path fill="#2a3334" opacity="1.000000" stroke="#2a3334" d="M 120.8 14.7 C 120.4 14.9 119.9 14.9 119.2 14.6 C 119.6 14.4 120.1 14.4 120.8 14.7 z"></path>
<path fill="#d0dace" opacity="1.000000" stroke="#d0dace" d="M 51.9 384.4 C 52.3 384.5 52.6 385 53 385.8 C 52.6 385.6 52.3 385.2 51.9 384.4 z"></path>
<path fill="#bbc9bd" opacity="1.000000" stroke="#bbc9bd" d="M 12.8 71.2 C 13.1 71.1 13.2 71.6 13.1 71.8 C 12.9 72.2 12.6 72.4 12.2 72.8 C 12.1 72.4 12.3 71.8 12.8 71.2 z"></path>
<path fill="#d0dace" opacity="1.000000" stroke="#d0dace" d="M 17 310.6 C 16.9 311 16.5 311 16.3 310.9 C 16.2 310.4 16.4 309.8 16.8 309.1 C 17 309.4 17 309.9 17 310.6 z"></path>
<path fill="#e3f2e1" opacity="1.000000" stroke="#e3f2e1" d="M 329.7 65 C 329.7 65.1 329.4 65.2 329.1 65.1 C 329 64.9 329.5 65 329.7 65 z"></path>
<path fill="#e1e4de" opacity="1.000000" stroke="#e1e4de" d="M 257.9 56.8 C 257.7 56.9 257.4 56.7 257.1 56.2 C 257.3 56.1 257.6 56.3 257.9 56.8 z"></path>
<path fill="#15191c" opacity="1.000000" stroke="#15191c" d="M 61.8 22.3 C 62 22.5 61.9 22.7 61.5 22.9 C 61.2 22.7 61.4 22.4 61.8 22.3 z"></path>
<path fill="#bbc9bd" opacity="1.000000" stroke="#bbc9bd" d="M 26.1 137 C 26.5 137 26.7 137.2 27 137.7 C 26.7 137.8 26.4 137.5 26.1 137 z"></path>
<path fill="#bbc9bd" opacity="1.000000" stroke="#bbc9bd" d="M 47.1 170.1 C 47.4 170 47.7 170.2 48 170.7 C 47.7 170.8 47.4 170.6 47.1 170.1 z"></path>
<path fill="#bbc9bd" opacity="1.000000" stroke="#bbc9bd" d="M 45.1 167 C 45.5 167 45.7 167.2 46 167.7 C 45.7 167.8 45.4 167.6 45.1 167 z"></path>
<path fill="#bbc9bd" opacity="1.000000" stroke="#bbc9bd" d="M 42 162.2 C 42.3 162.1 42.6 162.3 42.9 162.8 C 42.6 162.8 42.3 162.6 42 162.2 z"></path>
<path fill="#bbc9bd" opacity="1.000000" stroke="#bbc9bd" d="M 53 179.2 C 53.3 179.2 53.5 179.4 53.8 179.8 C 53.5 179.9 53.2 179.7 53 179.2 z"></path>
<path fill="#bbc9bd" opacity="1.000000" stroke="#bbc9bd" d="M 54.1 181.1 C 54.4 181 54.7 181.3 54.9 181.8 C 54.6 181.8 54.3 181.6 54.1 181.1 z"></path>
<path fill="#bbc9bd" opacity="1.000000" stroke="#bbc9bd" d="M 35 151.2 C 35.3 151.1 35.6 151.3 35.9 151.8 C 35.6 151.9 35.3 151.7 35 151.2 z"></path>
<path fill="#bbc9bd" opacity="1.000000" stroke="#bbc9bd" d="M 33.1 148.1 C 33.4 148 33.7 148.2 34 148.7 C 33.7 148.8 33.4 148.6 33.1 148.1 z"></path>
<path fill="#bbc9bd" opacity="1.000000" stroke="#bbc9bd" d="M 25 135.2 C 25.3 135.2 25.6 135.4 25.8 135.8 C 25.5 135.9 25.2 135.7 25 135.2 z"></path>
<path fill="#bbc9bd" opacity="1.000000" stroke="#bbc9bd" d="M 24.3 133.9 C 24.6 133.9 24.8 134.1 25.1 134.7 C 24.8 134.7 24.5 134.4 24.3 133.9 z"></path>
<path fill="#bbc9bd" opacity="1.000000" stroke="#bbc9bd" d="M 23.1 132.1 C 23.4 132 23.7 132.2 24 132.7 C 23.7 132.8 23.4 132.6 23.1 132.1 z"></path>
<path fill="#bbc9bd" opacity="1.000000" stroke="#bbc9bd" d="M 22 130.2 C 22.3 130.2 22.5 130.4 22.7 130.8 C 22.4 130.9 22.2 130.7 22 130.2 z"></path>
<path fill="#d0dace" opacity="1.000000" stroke="#d0dace" d="M 51 382 C 51 382.2 51 382.3 51 382.8 C 50.6 383 50.3 382.9 50 382.4 C 49.8 382.2 49.9 382.1 50.2 382 C 50.5 382 51 382 51 382 z"></path>
<path fill="#d0dace" opacity="1.000000" stroke="#d0dace" d="M 51 383.3 C 51.3 383.1 51.6 383.3 51.9 383.8 C 51.7 383.9 51.4 383.7 51 383.3 z"></path>
<path fill="#06090c" opacity="1.000000" stroke="#06090c" d="M 16.1 72.4 C 28.7 70.7 41.4 69.4 54 67.9 C 63.2 66.9 72.3 65.8 81.7 64.3 C 82.1 64 82.3 64 82.7 64 C 86.3 60.5 89.5 56.9 92.8 53.4 C 94 52 95.2 50.7 96.7 49.5 C 102.7 64.5 108.4 79.1 113.9 93.9 C 117.2 102.5 120.1 111.3 122.8 119.9 C 108.6 112.8 94.8 105.9 81 99 C 78.1 97.5 75 96.3 72 95 C 67.1 93 62.3 90.8 57.4 89 C 46.1 84.9 34.6 81 23.3 76.9 C 20.7 75.9 18.5 74.1 16.1 72.4 z"></path>
<path fill="#293136" opacity="1.000000" stroke="#293136" d="M 72.1 95.3 C 75 96.3 78.1 97.5 81 99 C 94.8 105.9 108.6 112.8 123.1 119.9 C 124 120.1 124.2 120.2 124.3 120.6 C 123.1 123.3 122.1 125.7 121.1 128.2 C 116.7 138.8 112.4 149.5 108.1 160.2 C 96.6 139.6 85.1 119 73.3 98.2 C 72.8 97.2 72.5 96.4 72.1 95.3 z"></path>
<path fill="#000103" opacity="1.000000" stroke="#000103" d="M 423 65 C 444.7 67.3 466.4 69.7 488.6 72 C 488 73 487.1 74.4 485.9 74.8 C 470.9 80.4 455.7 85.8 440.6 91.3 C 438.6 92 436.7 93 434.4 94 C 434 94 433.5 94 433.2 93.6 C 430 86.5 426.9 79.7 424.2 72.8 C 423.3 70.4 423.4 67.6 423 65 z"></path>
<path fill="#718c79" opacity="1.000000" stroke="#718c79" d="M 342.1 441 C 336.6 443 331 444.7 325.5 446.8 C 317.8 449.7 310.3 452.9 302 455.6 C 288.6 452.2 275.8 449.1 263.2 445.6 C 272.3 436.6 281.4 427.9 290.3 419 C 293.8 415.5 296.8 411.6 300.1 407.7 C 301.4 406.8 302.5 406.2 303.8 405.9 C 316.7 416.8 329.3 427.4 342 438.1 C 342.6 438.4 343.2 438.7 344.1 439.1 C 344.2 439.4 343.9 439.7 343.1 440.1 C 342.4 440.5 342.2 440.8 342 441.1 C 342 441.1 342.1 441 342.1 441 z"></path>
<path fill="#b6cbbb" opacity="1.000000" stroke="#b6cbbb" d="M 347.9 371 C 347.3 372.3 346.2 373.6 346.2 374.9 C 345.7 390.2 345.4 405.4 344.9 420.6 C 344.7 426.2 344.1 431.8 343.3 437.3 C 332.6 411.2 322.2 385.2 312 359.1 C 309.7 353.5 308.1 347.6 306.5 341.9 C 318.1 349.7 329.4 357.5 340.7 365.1 C 342 366 343.6 366.4 345.3 367.2 C 346.4 368.1 347.2 368.9 347.8 369.9 C 347.8 370.4 347.9 370.7 347.9 371 z"></path>
<path fill="#a5c2b0" opacity="1.000000" stroke="#a5c2b0" d="M 306.2 341.9 C 308.1 347.6 309.7 353.5 312 359.1 C 322.2 385.2 332.6 411.2 343 437.6 C 342.8 438 342.7 438 342.2 438 C 329.3 427.4 316.7 416.8 303.8 405.4 C 303.7 398.1 303.9 391.6 304.1 384.8 C 304.2 384.4 304.1 384.2 304.1 383.8 C 304.1 383.3 304.1 383.2 304 382.7 C 303.8 381.9 303.5 381.4 303.5 380.6 C 304.2 367.6 304.6 354.8 305.3 342 C 305.7 341.9 305.9 341.9 306.1 341.9 C 306.1 341.9 306.2 341.9 306.2 341.9 z"></path>
<path fill="#607568" opacity="1.000000" stroke="#607568" d="M 399.1 391 C 403.1 402.7 407.1 414.4 411.1 426.6 C 408.1 424.9 405 423.1 402.3 420.7 C 388.8 408.4 375.5 396 362.1 383.6 C 358 379.8 354 375.8 350.4 371.5 C 354.2 372.4 357.8 373.7 361.3 375.1 C 373.2 379.9 385.2 384.7 397.3 389.6 C 397.9 389.8 398.4 389.9 398.9 390.2 C 399 390.6 399.1 390.8 399.1 391 z"></path>
<path fill="#1f282b" opacity="1.000000" stroke="#1f282b" d="M 397.1 389.4 C 385.2 384.7 373.2 379.9 361.3 375.1 C 357.8 373.7 354.2 372.4 350.3 371.1 C 349.5 371.1 349 371 348.3 371 C 347.9 370.7 347.8 370.4 347.8 369.5 C 348 368.6 348 368.3 348.4 368 C 358.2 363.7 367.6 359.3 377.3 355 C 378.4 354.6 379.1 354.3 379.9 354.2 C 379.9 354.6 380 354.8 380 355.4 C 381.1 357.7 382.2 359.8 383.2 361.8 C 387.9 371 392.5 380.2 397.1 389.4 z"></path>
<path fill="#607568" opacity="1.000000" stroke="#607568" d="M 411 427.3 C 411.3 427.4 411.7 427.9 412 428.7 C 411.7 428.5 411.3 428 411 427.3 z"></path>
<path fill="#f8fef7" opacity="1.000000" stroke="#f8fef7" d="M 290.7 147 C 291 147 291.5 147 292.1 147 C 296.3 147.9 299.8 148.9 303.3 149.6 C 312.2 151.5 321.1 153.2 330.2 155.2 C 332 157.9 333.5 160.5 335 163.4 C 335 164.5 334.9 165.2 334.7 166.1 C 329.6 179.6 324.8 192.8 319.8 206 C 319.3 206 319.2 206 319 205.6 C 312.6 192.7 306.2 180.2 299.8 167.7 C 296.7 161.7 293.3 155.9 290.1 149.6 C 290 148.5 290 147.8 290 147 C 290.2 147 290.3 147 290.7 147 z"></path>
<path fill="#f8fef7" opacity="1.000000" stroke="#f8fef7" d="M 252 122 C 252.5 122.3 253 122.6 253.7 123.3 C 260.3 142.5 266.7 161.3 273 180.3 C 273 181.1 273 181.6 272.5 182 C 258.7 182 245.4 182 232 181.7 C 232 181.5 232 181 232.2 180.7 C 236.2 169.1 240.1 157.8 243.9 146.5 C 246.7 138.4 249.3 130.2 252 122 C 252 122 252 122 252 122 z"></path>
<path fill="#d5d4c8" opacity="1.000000" stroke="#d5d4c8" d="M 273 180 C 266.7 161.3 260.3 142.5 254 123.4 C 258.5 126.1 263.2 129.1 267.8 132.3 C 274 136.7 280 141.3 286.2 145.7 C 287 146.3 288.2 146.6 289.6 147 C 290 147.8 290 148.5 289.8 149.8 C 285.1 159 280.8 167.6 276.4 176.1 C 275.6 177.6 274.1 178.7 273 180 z"></path>
<path fill="#f8fcf4" opacity="1.000000" stroke="#f8fcf4" d="M 208 140 C 209.8 141.6 211.6 143.3 213.7 145 C 214.3 145.8 214.5 146.6 214.9 148.1 C 215 149.1 215 149.6 214.7 150.1 C 214.1 150.7 213.6 150.9 213.4 151.4 C 204.7 168.4 196 185.5 187.4 202.6 C 186.9 203.5 187.1 204.9 186.9 206.2 C 186.4 207 185.9 207.4 185.1 207.9 C 172.2 215.6 159.7 223.4 146.9 230.9 C 145.1 228.6 143.4 226.6 142.2 224.3 C 133.7 208.9 125.3 193.5 117.1 178 C 114.1 172.5 111.7 166.7 109.5 161 C 113.8 161 117.6 160.9 121.4 161.1 C 137.3 162 153.1 163 169.2 163.8 C 169.7 163.1 169.8 162.5 170.3 161.8 C 171.4 160.5 172.3 159.2 173 158 C 178.6 148.2 184.2 138.4 189.7 128.5 C 191.4 125.4 193.2 125.4 195.4 127.9 C 196.7 129.4 197.8 131.1 199.3 132.4 C 201.4 134.4 203.8 136.2 206 138 C 206 138 206 138 206.1 138.2 C 206.4 138.7 206.7 138.9 207 139 C 207 139 207 139 207.1 139.2 C 207.5 139.6 207.8 139.8 208 140 z"></path>
<path fill="#d5d4c8" opacity="1.000000" stroke="#d5d4c8" d="M 215 150 C 215 149.6 215 149.1 215 148.4 C 227.2 139.5 239.3 130.9 251.7 122.1 C 249.3 130.2 246.7 138.4 243.9 146.5 C 240.1 157.8 236.2 169.1 231.9 180.5 C 226 170.4 220.5 160.2 215 150 z"></path>
<path fill="#04070b" opacity="1.000000" stroke="#04070b" d="M 423 64.8 C 423.4 67.6 423.3 70.4 424.2 72.8 C 426.9 79.7 430 86.5 433 93.6 C 433 94.2 433 94.3 432.8 94.9 C 432.3 95.4 432.1 95.7 432 96 C 432 96 432 96 431.6 96 C 429.6 96.6 427.8 97.1 426.2 97.9 C 415.9 103 405.8 108.2 395.5 113.2 C 391.1 115.3 386.5 117.1 382 119 C 385.1 110.1 388.1 101.2 391.4 92.3 C 396.7 78 402.1 63.7 407.7 49.2 C 411.2 52.8 414.5 56.8 417.8 60.6 C 418.9 61.8 420.1 62.8 421.6 64 C 422.2 64 422.3 64 422.8 64 C 423 64 423 64.5 423 64.8 z"></path>
<path fill="#ecf8cf" opacity="1.000000" stroke="#ecf8cf" d="M 380.1 119.8 C 380.5 119.9 380.8 120 381.5 120.6 C 386.7 134 391.4 147 395.9 159.9 C 395.4 160 395.2 160 394.6 160 C 377.3 161.3 360.5 162.7 343.7 163.9 C 341.1 164.1 338.5 163.3 336 162.7 C 336 162.5 336 162 336.4 162 C 337.7 161.3 338.7 160.7 339.5 160 C 351.2 148.7 362.9 137.3 374.5 126 C 376.5 124 378.2 121.9 380.1 119.8 z"></path>
<path fill="#161d20" opacity="1.000000" stroke="#161d20" d="M 396.2 159.9 C 391.4 147 386.7 134 381.8 120.7 C 381.8 120.2 381.9 119.9 382 119.4 C 386.5 117.1 391.1 115.3 395.5 113.2 C 405.8 108.2 415.9 103 426.2 97.9 C 427.8 97.1 429.6 96.6 431.6 96 C 428.3 102.8 424.7 109.7 420.9 116.5 C 413 130.8 405.1 144.9 396.9 159.5 C 396.6 159.9 396.2 159.9 396.2 159.9 z"></path>
<path fill="#dae0d0" opacity="1.000000" stroke="#dae0d0" d="M 379.8 119.5 C 378.2 121.9 376.5 124 374.5 126 C 362.9 137.3 351.2 148.7 339.5 160 C 338.7 160.7 337.7 161.3 336.4 161.6 C 340.1 151.5 344.1 141.7 348 131.9 C 351.1 124.3 354 116.6 357 108.7 C 357 108.2 357 108.1 357 107.9 C 359 109 360.9 110.1 363.1 111.3 C 363.4 111.4 363.5 111.4 363.7 111.6 C 364.3 111.9 364.6 112 365 112 C 369.9 114.4 374.7 116.9 379.8 119.5 z"></path>
<path fill="#070b0d" opacity="1.000000" stroke="#070b0d" d="M 364.8 111.8 C 364.6 112 364.3 111.9 363.8 111.6 C 364 111.4 364.3 111.5 364.8 111.8 z"></path>
<path fill="#cbd1c9" opacity="1.000000" stroke="#cbd1c9" d="M 395.9 159.9 C 396.2 159.9 396.6 159.9 396.8 159.8 C 410.1 166 423.3 172.1 436.4 178.2 C 440.1 180 443.9 181.7 447.8 183.7 C 437.6 189.7 427.2 195.4 416.7 201.1 C 399.6 210.5 382.5 219.9 365.3 229.3 C 364.2 229.9 362.9 230.4 361.4 230.6 C 371.4 209.8 381.8 189.4 392 168.9 C 393.4 166.1 394 163 395 160 C 395.2 160 395.4 160 395.9 159.9 z"></path>
<path fill="#161d20" opacity="1.000000" stroke="#161d20" d="M 432.2 95.9 C 432.1 95.7 432.3 95.4 432.8 95.1 C 432.9 95.3 432.7 95.6 432.2 95.9 z"></path>
<path fill="#ebefe9" opacity="1.000000" stroke="#ebefe9" d="M 109 161 C 111.7 166.7 114.1 172.5 117.1 178 C 125.3 193.5 133.7 208.9 142.2 224.3 C 143.4 226.6 145.1 228.6 146.8 231.2 C 147.1 231.5 147 232 146.7 232 C 145.9 232.4 145.5 232.7 144.8 232.7 C 144.1 231.8 143.6 231 142.9 230.6 C 131.7 224.6 120.4 218.7 109.3 212.6 C 95.6 205.2 82.1 197.6 68.4 190.3 C 64.8 188.4 60.8 187.4 56.9 186 C 57 185.6 57 185.2 57.1 184.5 C 73.8 176.5 90.6 168.9 107.9 161.1 C 108.7 161 108.9 161 109 161 z"></path>
<path fill="#e3e6ca" opacity="1.000000" stroke="#e3e6ca" d="M 109.5 161 C 108.9 161 108.7 161 108.3 161 C 108 161 108 160.6 108.1 160.4 C 112.4 149.5 116.7 138.8 121.1 128.2 C 122.1 125.7 123.1 123.3 124.6 120.5 C 125.3 120.2 125.6 120.1 126 120.4 C 129.2 124.2 132.2 127.7 135.4 130.9 C 146.6 142 157.8 152.9 169 163.9 C 153.1 163 137.3 162 121.4 161.1 C 117.6 160.9 113.8 161 109.5 161 z"></path>
<path fill="#c5d5c4" opacity="1.000000" stroke="#c5d5c4" d="M 442.6 264 C 443 264.8 443 265.5 442.7 266.8 C 435.9 276.1 429.4 284.9 422.6 293.5 C 419.6 297.3 416 300.6 412.4 303.9 C 410.7 301.8 409.2 299.9 407.8 297.8 C 407.6 297.3 407.4 297.1 407 296.7 C 404.4 293 402 289.6 399.6 286.2 C 388.6 271.2 377.7 256.2 366.7 241.1 C 372.1 242.6 377.6 243.9 382.9 245.5 C 402.7 251.6 422.4 257.8 442.6 264 z"></path>
<path fill="#161d20" opacity="1.000000" stroke="#161d20" d="M 366.4 241 C 377.7 256.2 388.6 271.2 399.6 286.2 C 402 289.6 404.4 293 406.6 296.6 C 397.2 295 388.2 293 379.1 290.7 C 374.3 284 369.4 277.7 364.8 271.3 C 361.1 266 357.6 260.4 354 254.6 C 354.8 251.5 355.3 248.7 356.2 246.1 C 357.6 242.2 359.3 238.4 360.9 234.5 C 361.7 235.4 362.5 236.2 363.6 237.2 C 364.6 238.5 365.4 239.7 366.4 241 z"></path>
<path fill="#d9ddda" opacity="1.000000" stroke="#d9ddda" d="M 394.6 160 C 394 163 393.4 166.1 392 168.9 C 381.8 189.4 371.4 209.8 361.1 230.6 C 360.7 231.2 360.4 231.5 359.8 231.9 C 359.1 231.9 358.9 231.7 358.8 231 C 354.6 218.8 350.4 206.9 346 195.1 C 342.4 185.3 338.6 175.6 334.9 165.9 C 334.9 165.2 335 164.5 335.2 163.4 C 335.6 163 335.8 163 336 163 C 338.5 163.3 341.1 164.1 343.7 163.9 C 360.5 162.7 377.3 161.3 394.6 160 z"></path>
<path fill="#070b0d" opacity="1.000000" stroke="#070b0d" d="M 358.8 231.4 C 358.9 231.7 359.1 231.9 359.7 232.1 C 360.2 232.8 360.5 233.3 360.9 234.2 C 359.3 238.4 357.6 242.2 356.2 246.1 C 355.3 248.7 354.8 251.5 353.7 254.6 C 349.8 252.1 346.5 248.8 342.6 246.5 C 338.7 244.1 334.2 242.8 330.2 240.7 C 337.4 238.3 344.3 236.2 351.2 233.9 C 353.3 233.2 355.1 231.9 357.4 230.9 C 358 231.1 358.4 231.2 358.8 231.4 z"></path>
<path fill="#e1e4d8" opacity="1.000000" stroke="#e1e4d8" d="M 357 107.5 C 357 108.1 357 108.2 356.6 108.7 C 341.8 113.7 327.4 118.4 312.7 123 C 312.3 123 312.1 123 311.9 123 C 312.6 121.2 313 119.1 314 117.5 C 324.4 101.9 334.8 86.4 345.2 70.9 C 345.4 70.5 346 70.3 346.7 70 C 348.3 73.5 349.8 76.9 350.7 80.5 C 353 89.3 354.9 98.2 357 107.5 z"></path>
<path fill="#f8fcf4" opacity="1.000000" stroke="#f8fcf4" d="M 330 155 C 321.1 153.2 312.2 151.5 303.3 149.6 C 299.8 148.9 296.3 147.9 292.4 147 C 293.8 144.8 295.6 142.5 297.9 140 C 298.7 139.1 298.8 138.5 299 138 C 299.5 137.4 300 136.8 300.9 136 C 301.6 135.5 301.8 135.3 302 135 C 302 135 302 135 302.3 135 C 306.1 131.6 309.6 128.3 313.4 125.1 C 319.1 135.2 324.5 145.1 330 155 z"></path>
<path fill="#ebede4" opacity="1.000000" stroke="#ebede4" d="M 313.1 124.9 C 309.6 128.3 306.1 131.6 302.3 135 C 305.1 131 308.1 127 311.6 123 C 312.1 123 312.3 123 312.7 123.3 C 313 124.1 313 124.5 313.1 124.9 z"></path>
<path fill="#ebede4" opacity="1.000000" stroke="#ebede4" d="M 298.8 138.1 C 298.8 138.5 298.7 139.1 298.2 139.8 C 298.2 139.4 298.3 138.9 298.8 138.1 z"></path>
<path fill="#ebede4" opacity="1.000000" stroke="#ebede4" d="M 301.8 135.1 C 301.8 135.3 301.6 135.5 301.2 135.9 C 301.1 135.7 301.3 135.5 301.8 135.1 z"></path>
<path fill="#ebede4" opacity="1.000000" stroke="#ebede4" d="M 206 137.7 C 203.8 136.2 201.4 134.4 199.3 132.4 C 197.8 131.1 196.7 129.4 195.4 127.9 C 193.2 125.4 191.4 125.4 189.7 128.5 C 184.2 138.4 178.6 148.2 173 158 C 172.3 159.2 171.4 160.5 170 161.6 C 162.6 144.4 155.8 127.2 149.4 110 C 159.8 112.9 169.7 115.9 179.6 118.7 C 184.4 120 189.3 120.9 194.1 122 C 198 127.1 202 132.2 206 137.7 z"></path>
<path fill="#d6dbd0" opacity="1.000000" stroke="#d6dbd0" d="M 194 121.6 C 189.3 120.9 184.4 120 179.6 118.7 C 169.7 115.9 159.8 112.9 149 109.9 C 148 109.8 147.7 109.8 147.5 109.8 C 149 104.7 150.6 99.8 151.9 94.7 C 153.9 86.7 155.8 78.7 157.9 70.3 C 159 70.4 160.1 70.7 160.6 71.4 C 171.7 88 182.8 104.6 194 121.6 z"></path>
<path fill="#ebede4" opacity="1.000000" stroke="#ebede4" d="M 207.9 139.8 C 207.8 139.8 207.5 139.6 207.1 139.2 C 207.3 139.2 207.5 139.4 207.9 139.8 z"></path>
<path fill="#ebede4" opacity="1.000000" stroke="#ebede4" d="M 206.9 138.8 C 206.7 138.9 206.4 138.7 206.1 138.2 C 206.3 138.1 206.6 138.3 206.9 138.8 z"></path>
<path fill="#bbc9bd" opacity="1.000000" stroke="#bbc9bd" d="M 95.4 431.9 C 94.8 431.3 94.6 430.8 94.3 429.8 C 104.7 419.6 115.1 409.8 125.5 400.1 C 133.2 392.9 141 386 148.6 378.8 C 151.2 376.4 153.6 373.7 156.3 371 C 156.7 370.5 156.8 370.1 157.3 369.8 C 157.9 369.7 158.2 369.6 158.7 370 C 159.6 393 160.3 415.4 161 438.3 C 161 439.1 161 439.6 161 440 C 141.8 437.4 122.6 434.8 103.3 432.2 C 100.9 431.9 98.4 432.1 95.4 431.9 z"></path>
<path fill="#d6dbd0" opacity="1.000000" stroke="#d6dbd0" d="M 161.1 440.2 C 161 439.6 161 439.1 161.4 438.3 C 162.2 438 162.6 438 163 438.4 C 163 439.5 163 440.3 163 441 C 163 441 162.8 441.2 162.7 441.3 C 162.1 441.1 161.7 440.8 161.1 440.2 z"></path>
<path fill="#2a3334" opacity="1.000000" stroke="#2a3334" d="M 126 120.1 C 125.6 120.1 125.3 120.2 124.7 120.2 C 124.2 120.2 124 120.1 123.4 120.1 C 120.1 111.3 117.2 102.5 113.9 93.9 C 108.4 79.1 102.7 64.5 97 49.4 C 102.8 40.7 108.6 32.3 114.5 24 C 116.3 21.6 118.4 19.4 120.7 17 C 124.5 33.6 128 50.3 131.5 66.9 C 134.6 81.7 137.8 96.5 140.8 112.1 C 135.7 115.2 130.9 117.7 126 120.1 z"></path>
<path fill="#d5d6cf" opacity="1.000000" stroke="#d5d6cf" d="M 126 120.4 C 130.9 117.7 135.7 115.2 140.8 112.5 C 143 111.4 144.9 110.7 147.1 109.8 C 147.7 109.8 148 109.8 148.6 109.9 C 155.8 127.2 162.6 144.4 169.7 161.8 C 169.8 162.5 169.7 163.1 169.2 163.8 C 157.8 152.9 146.6 142 135.4 130.9 C 132.2 127.7 129.2 124.2 126 120.4 z"></path>
<path fill="#97b1aa" opacity="1.000000" stroke="#97b1aa" d="M 342.3 441 C 342.2 440.8 342.4 440.5 342.8 440.1 C 342.9 440.3 342.7 440.6 342.3 441 z"></path>
<path fill="#f6f8ec" opacity="1.000000" stroke="#f6f8ec" d="M 47 224.2 C 46.9 223.8 46.9 223.4 47.4 223.2 C 54.8 224 61.8 224.9 68.8 226 C 83.5 228.2 98.1 230.5 112.7 232.8 C 122.5 234.2 132.3 235.6 142 237.3 C 140.9 238.7 139.9 239.8 138.5 240.9 C 114.9 248.2 91.6 255.5 68.4 262.8 C 66.8 263.4 65.5 264.9 63.7 266 C 63.5 266 63 266 63 266 C 62.8 266 62.7 266 62.2 266 C 60.4 260.8 59 255.6 57.2 250.5 C 54 241.8 50.4 233.2 47 224.2 z"></path>
<path fill="#c9d2cf" opacity="1.000000" stroke="#c9d2cf" d="M 412.6 304.1 C 416 300.6 419.6 297.3 422.6 293.5 C 429.4 284.9 435.9 276.1 442.7 267.2 C 443 267 443.5 267 443.8 267 C 445.3 277.1 446.7 287.1 448 297.2 C 448.7 302.6 449.5 307.9 449.9 313.3 C 450.1 315.2 449.4 317.2 448.7 319.5 C 436.9 315.6 425.5 311.3 414 306.7 C 413.5 305.6 413 304.9 412.6 304.1 z"></path>
<path fill="#e1e6d4" opacity="1.000000" stroke="#e1e6d4" d="M 51.4 382 C 51 382 50.5 382 50.3 382 C 50.6 381.4 51.1 380.9 51.9 379.7 C 56 370.4 60.1 361.7 64 352.9 C 66.8 346.4 69.4 339.8 72.4 333.3 C 74.1 334.8 75.6 336.3 77 338 C 82.7 345 88.3 352 94.1 359.3 C 94.8 360.4 95.4 361.3 96 362.5 C 99 371.5 102 380.2 105 388.9 C 101.4 388.8 97.8 389 94.2 388.5 C 80.1 386.5 66 384.2 51.4 382 z"></path>
<path fill="#afae98" opacity="1.000000" stroke="#afae98" d="M 72 333.3 C 69.4 339.8 66.8 346.4 64 352.9 C 60.1 361.7 56 370.4 52 379.5 C 51.7 375.4 51 371 51.2 366.7 C 51.5 360.4 52.5 354.1 52.9 347.9 C 53.4 339.2 53.7 330.6 54 321.5 C 54.4 321 54.6 320.8 55.2 320.3 C 55.8 320.2 55.9 320.2 56.1 320.6 C 57.3 321.9 58.5 323 59.8 323.9 C 63.8 327 67.9 330.2 72 333.3 z"></path>
<path fill="#a7a68a" opacity="1.000000" stroke="#a7a68a" d="M 156.1 371.1 C 153.6 373.7 151.2 376.4 148.6 378.8 C 141 386 133.2 392.9 125.5 400.1 C 115.1 409.8 104.7 419.6 94.1 429.6 C 94 428.2 93.7 426.5 94.2 424.9 C 98 413.5 102 402.2 106.2 390.4 C 106.7 390 106.9 390 107.3 389.8 C 107.8 389.6 108 389.3 108 389 C 108 389 108 389 108.4 389 C 117.4 385.7 126.1 382.3 134.7 379 C 141.8 376.4 149 373.8 156.1 371.1 z"></path>
<path fill="#858785" opacity="1.000000" stroke="#858785" d="M 107.1 389.9 C 106.9 390 106.7 390 106.3 390 C 105.8 389.7 105.7 389.4 105.2 389.1 C 102 380.2 99 371.5 96.3 362.3 C 106 359.3 115.5 356.8 124.9 354.8 C 122.6 359.7 120.1 364.1 117.8 368.7 C 114.5 375.5 111.3 382.3 108 389 C 108 389 108 389 107.8 389.1 C 107.3 389.3 107.1 389.6 107.1 389.9 z"></path>
<path fill="#afc7b5" opacity="1.000000" stroke="#afc7b5" d="M 453 379.9 C 453 380 453 380.2 453 380.7 C 436.6 384 420.2 386.9 403.8 389.8 C 402.9 390 401.8 390 400.3 389.8 C 399.7 389.7 399.3 389.4 399.5 389 C 402.8 379.5 405.9 370.3 409.3 361 C 410.9 359.5 412.1 358.2 413.3 356.8 C 419.5 349.2 425.8 341.5 432.1 334.2 C 439.2 349.7 446.1 364.8 453 379.9 z"></path>
<path fill="#afc7b5" opacity="1.000000" stroke="#afc7b5" d="M 399.3 390.9 C 399.1 390.8 399 390.6 399 390.1 C 399.1 389.7 399.3 389.4 399.3 389.4 C 399.3 389.4 399.7 389.7 399.8 389.8 C 399.9 390.3 399.8 390.6 399.3 390.9 z"></path>
<path fill="#c4c7b4" opacity="1.000000" stroke="#c4c7b4" d="M 163.4 441.1 C 163 440.3 163 439.5 163 438.4 C 163 438 163 438 163.4 438 C 170.7 431.9 177.6 425.8 184.7 419.8 C 190 415.4 195.5 411.2 200.9 407.3 C 201.3 422 201.6 436.2 202 450.4 C 202.1 452 202.7 453.6 203.1 455.4 C 203.1 455.5 203.1 455.9 203.1 455.9 C 203.1 455.9 202.9 456.1 202.8 456.2 C 189.7 451.2 176.7 446.1 163.4 441.1 z"></path>
<path fill="#768775" opacity="1.000000" stroke="#768775" d="M 453.3 379.7 C 446.1 364.8 439.2 349.7 432.3 333.9 C 438 329.2 443.8 325 449.6 320.9 C 449.9 320.7 450.2 320.7 450.7 321 C 452 339.1 453 357.2 454.1 375.7 C 454 377.3 453.8 378.4 453.3 379.7 z"></path>
<path fill="#f1f4ed" opacity="1.000000" stroke="#f1f4ed" d="M 56.1 320.2 C 55.9 320.2 55.8 320.2 55.3 320.1 C 56.5 308.2 57.8 296.2 59.5 284.3 C 60.3 278.4 61.7 272.6 63 266.4 C 63 266 63.5 266 64 266.2 C 71 275.8 77.3 285.4 83.9 294.7 C 86.3 298.1 89.4 300.9 92.1 304.4 C 91.8 305.5 91.6 306.2 91.1 306.8 C 79.2 311.2 67.7 315.7 56.1 320.2 z"></path>
<path fill="#2a3132" opacity="1.000000" stroke="#2a3132" d="M 449.4 320.6 C 443.8 325 438 329.2 432.1 333.6 C 425.8 341.5 419.5 349.2 413.3 356.8 C 412.1 358.2 410.9 359.5 409.4 360.9 C 409.1 361 409 360.9 409 360.5 C 410.4 342.7 411.7 325.3 413.1 307.6 C 413.4 307.2 413.7 307 414.1 307 C 425.5 311.3 436.9 315.6 448.6 319.9 C 449.1 320.1 449.2 320.2 449.4 320.6 z"></path>
<path fill="#04070b" opacity="1.000000" stroke="#04070b" d="M 203.5 455.9 C 203.1 455.9 203.1 455.5 203.5 455.3 C 216.7 452.1 229.4 449.1 242.6 446.2 C 246.3 445.4 249.6 444.7 253.4 444 C 256.8 444.7 259.9 445.3 263.1 445.9 C 275.8 449.1 288.6 452.2 301.6 455.6 C 301.9 455.9 301.9 455.9 301.5 455.9 C 298.9 456.3 296.8 456.7 294.7 457 C 287.8 458 280.9 458.9 273.5 459.9 C 266.4 460.6 259.7 461.4 253 462.1 C 252.8 462.1 252.6 462 252.2 462.1 C 238.2 460.5 224.5 458.8 210.7 457.1 C 208.5 456.8 206.2 456.4 203.5 455.9 z"></path>
<path fill="#768775" opacity="1.000000" stroke="#768775" d="M 274 459.9 C 280.9 458.9 287.8 458 294.7 457 C 296.8 456.7 298.9 456.3 301.5 455.9 C 301.9 456.3 301.9 456.8 301.9 457.6 C 298 462.8 294 467.7 290.2 472.6 C 286.4 477.6 282.8 482.7 279.1 487.8 C 277.7 489.7 276.3 491.3 274.3 488.1 C 274.4 478.3 274.2 469.1 274 459.9 z"></path>
<path fill="#727675" opacity="1.000000" stroke="#727675" d="M 273.5 459.9 C 274.2 469.1 274.4 478.3 274.2 487.8 C 268 480.8 262 473.5 256.1 466.2 C 255.2 465 254.2 463.9 253.1 462.4 C 259.7 461.4 266.4 460.6 273.5 459.9 z"></path>
<path fill="#ffffff" opacity="1.000000" stroke="#ffffff" d="M 142 237 C 132.3 235.6 122.5 234.2 112.7 232.8 C 98.1 230.5 83.5 228.2 68.8 226 C 61.8 224.9 54.8 224 47.4 223 C 48.6 216.6 50.2 210.2 51.9 203.3 C 53.4 197.5 55 192.1 56.8 186.3 C 60.8 187.4 64.8 188.4 68.4 190.3 C 82.1 197.6 95.6 205.2 109.3 212.6 C 120.4 218.7 131.7 224.6 142.9 230.6 C 143.6 231 144.1 231.8 144.7 233 C 143.9 234.7 143 235.9 142 237 z"></path>
<path fill="#000306" opacity="1.000000" stroke="#000306" d="M 304 385 C 303.9 391.6 303.7 398.1 303.6 405.1 C 302.5 406.2 301.4 406.8 299.8 407.7 C 297.3 408.6 295.4 409.1 293.6 409.8 C 280 415 266.4 420.1 252.9 425.2 C 252.9 425.1 253 425 253 424.5 C 253 421.4 253 418.7 253.4 416 C 254.5 415.6 255.3 415.4 256 415 C 271.7 404.7 287.5 394.4 303.3 384.3 C 303.5 384.7 303.7 384.9 304 385 z"></path>
<path fill="#495b52" opacity="1.000000" stroke="#495b52" d="M 252.9 425.3 C 266.4 420.1 280 415 293.6 409.8 C 295.4 409.1 297.3 408.6 299.6 407.9 C 296.8 411.6 293.8 415.5 290.3 419 C 281.4 427.9 272.3 436.6 263.2 445.6 C 259.9 445.3 256.8 444.7 253.4 443.6 C 253 437.1 252.9 431.2 252.9 425.3 z"></path>
<path fill="#e7f3f1" opacity="1.000000" stroke="#e7f3f1" d="M 345 367 C 343.6 366.4 342 366 340.7 365.1 C 329.4 357.5 318.1 349.7 306.5 341.9 C 306.2 341.9 306.1 341.9 306.1 341.6 C 305.7 340.9 305.4 340.5 304.8 339.9 C 295.9 334.6 287.3 329.4 278.6 324.3 C 273.5 321.4 268.2 318.8 262.9 315.7 C 262.2 315 261.6 314.5 261 313.7 C 261 313.3 261 313.1 261.4 312.9 C 271.8 308.8 281.8 304.8 291.7 300.6 C 295.6 299 299.3 296.9 303.4 295 C 303.9 294.9 304.2 294.9 304.6 295 C 305.7 296.5 306.5 297.7 307.3 299.3 C 308.8 302.7 310.4 305.8 312 308.8 C 316.3 316.9 320.6 325.1 324.9 333.5 C 325.3 334.2 325.6 334.6 326 335.4 C 332.4 346.2 338.7 356.6 345 367 z"></path>
<path fill="#04070b" opacity="1.000000" stroke="#04070b" d="M 345.3 367.2 C 338.7 356.6 332.4 346.2 326.3 335.1 C 328.1 334.9 329.9 335.2 331.5 335.8 C 336.7 337.8 341.8 339.9 347 342 C 347 342 347 342 347 342.5 C 347 345.4 346.9 347.9 347 350.4 C 347.3 356.3 347.7 362.1 348 368 C 348 368.3 348 368.6 347.9 369.2 C 347.2 368.9 346.4 368.1 345.3 367.2 z"></path>
<path fill="#e3f2e1" opacity="1.000000" stroke="#e3f2e1" d="M 263 316 C 268.2 318.8 273.5 321.4 278.6 324.3 C 287.3 329.4 295.9 334.6 304.8 340.2 C 305 341.2 305 341.6 305 342 C 304.6 354.8 304.2 367.6 303.3 380.3 C 300.6 377 298.2 373.6 295.9 369.9 C 295.5 368.7 295.1 367.8 294.5 366.9 C 284 350 273.5 333 263 316 z"></path>
<path fill="#06090c" opacity="1.000000" stroke="#06090c" d="M 303.2 384.1 C 287.5 394.4 271.7 404.7 256 415 C 255.3 415.4 254.5 415.6 253.1 416 C 252.5 416 252 416 252.1 415.6 C 252.4 413.1 252.9 411 253 408.9 C 253.1 400.9 253 393 253.5 385.1 C 270.6 384.4 287.3 383.7 304 383 C 304.1 383.2 304.1 383.3 303.9 383.8 C 303.6 384 303.2 384.1 303.2 384.1 z"></path>
<path fill="#1f282b" opacity="1.000000" stroke="#1f282b" d="M 304 382.7 C 287.3 383.7 270.6 384.4 253.5 385 C 252.9 384.9 252.8 384.8 252.9 384.3 C 253 379.4 253.1 375 253.6 370.4 C 268 370.3 282 370.3 295.9 370.3 C 298.2 373.6 300.6 377 303.1 380.6 C 303.5 381.4 303.8 381.9 304 382.7 z"></path>
<path fill="#b6cbbb" opacity="1.000000" stroke="#b6cbbb" d="M 305.3 342 C 305 341.6 305 341.2 305.1 340.4 C 305.4 340.5 305.7 340.9 306.1 341.6 C 305.9 341.9 305.7 341.9 305.3 342 z"></path>
<path fill="#1f282b" opacity="1.000000" stroke="#1f282b" d="M 303.3 384.3 C 303.2 384.1 303.6 384 303.9 384 C 304.1 384.2 304.2 384.4 304.1 384.8 C 303.7 384.9 303.5 384.7 303.3 384.3 z"></path>
<path fill="#404e54" opacity="1.000000" stroke="#404e54" d="M 399.5 389 C 399.3 389.4 399.1 389.7 399 389.8 C 398.4 389.9 397.9 389.8 397.3 389.6 C 392.5 380.2 387.9 371 383.2 361.8 C 382.2 359.8 381.1 357.7 380.4 355.4 C 382.9 355.4 385 355.7 387.1 356.2 C 394.4 357.7 401.7 359.3 409 360.9 C 409 360.9 409.1 361 409 361 C 405.9 370.3 402.8 379.5 399.5 389 z"></path>
<path fill="#43464a" opacity="1.000000" stroke="#43464a" d="M 409 360.5 C 401.7 359.3 394.4 357.7 387.1 356.2 C 385 355.7 382.9 355.4 380.4 355 C 380 354.8 379.9 354.6 380.1 353.9 C 382.8 349.6 385.3 345.8 388.2 341.8 C 396.7 330.3 404.8 319.1 413 307.9 C 411.7 325.3 410.4 342.7 409 360.5 z"></path>
<path fill="#070b0d" opacity="1.000000" stroke="#070b0d" d="M 348.4 368 C 347.7 362.1 347.3 356.3 347 350.4 C 346.9 347.9 347 345.4 347.4 342.5 C 349.6 342 351.3 342 353 342.4 C 354.8 344.1 356.3 345.9 358.2 346.8 C 364.4 349.7 370.7 352.3 377 355 C 367.6 359.3 358.2 363.7 348.4 368 z"></path>
<path fill="#0d1114" opacity="1.000000" stroke="#0d1114" d="M 377.3 355 C 370.7 352.3 364.4 349.7 358.2 346.8 C 356.3 345.9 354.8 344.1 353.5 342.4 C 365.3 342 376.6 342 387.9 342 C 385.3 345.8 382.8 349.6 380 353.7 C 379.1 354.3 378.4 354.6 377.3 355 z"></path>
<path fill="#d2d2c9" opacity="1.000000" stroke="#d2d2c9" d="M 313.4 125.1 C 313 124.5 313 124.1 313 123.3 C 327.4 118.4 341.8 113.7 356.6 109 C 354 116.6 351.1 124.3 348 131.9 C 344.1 141.7 340.1 151.5 336.1 161.7 C 336 162 336 162.5 336 162.7 C 335.8 163 335.6 163 335.2 163 C 333.5 160.5 332 157.9 330.2 155.2 C 324.5 145.1 319.1 135.2 313.4 125.1 z"></path>
<path fill="#c2cabf" opacity="1.000000" stroke="#c2cabf" d="M 358.8 231 C 358.4 231.2 358 231.1 357.2 230.6 C 344.5 222.7 332.2 215.1 319.9 207.3 C 319.9 207.1 319.8 206.8 319.9 206.6 C 320 206.4 320 206 320 206 C 324.8 192.8 329.6 179.6 334.7 166.1 C 338.6 175.6 342.4 185.3 346 195.1 C 350.4 206.9 354.6 218.8 358.8 231 z"></path>
<path fill="#e6ede8" opacity="1.000000" stroke="#e6ede8" d="M 273 180.3 C 274.1 178.7 275.6 177.6 276.4 176.1 C 280.8 167.6 285.1 159 289.8 150.2 C 293.3 155.9 296.7 161.7 299.8 167.7 C 306.2 180.2 312.6 192.7 318.9 205.7 C 318.9 206.1 318.9 206.1 318.5 206.1 C 317.5 205.9 316.8 205.8 316.3 205.5 C 302.5 198 288.8 190.6 274.7 183 C 273.9 183 273.4 183 273 182.7 C 273 182.5 273 182 273 182 C 273 181.6 273 181.1 273 180.3 z"></path>
<path fill="#e6ede8" opacity="1.000000" stroke="#e6ede8" d="M 319.8 206 C 320 206 320 206.4 319.7 206.6 C 319.2 206.6 319 206.4 318.9 206.1 C 318.9 206.1 318.9 206.1 319 206 C 319.2 206 319.3 206 319.8 206 z"></path>
<path fill="#f1f4ed" opacity="1.000000" stroke="#f1f4ed" d="M 214.7 150.1 C 220.5 160.2 226 170.4 231.7 180.8 C 232 181 232 181.5 232 182 C 232 182.7 232 182.8 231.7 183 C 230.9 183.3 230.5 183.6 229.7 184 C 227.4 185 225.5 186 223.5 187 C 211.4 193.3 199.2 199.7 187 206 C 187.1 204.9 186.9 203.5 187.4 202.6 C 196 185.5 204.7 168.4 213.4 151.4 C 213.6 150.9 214.1 150.7 214.7 150.1 z"></path>
<path fill="#ebefe9" opacity="1.000000" stroke="#ebefe9" d="M 232 183 C 232 182.8 232 182.7 232 182.2 C 245.4 182 258.7 182 272.5 182 C 273 182 273 182.5 272.7 182.9 C 268.4 187.5 264.4 191.7 260.5 196 C 258.2 198.5 256.1 201.3 253.7 203.9 C 252.9 204 252.5 204.1 251.9 203.8 C 245.2 196.7 238.6 189.8 232 183 z"></path>
<path fill="#d9d7ca" opacity="1.000000" stroke="#d9d7ca" d="M 186.9 206.2 C 199.2 199.7 211.4 193.3 223.5 187 C 225.5 186 227.4 185 229.6 184.3 C 225.3 193 220.5 201.2 215.9 209.6 C 211.5 217.7 207.3 225.9 202.8 234.1 C 202.3 234.4 202.1 234.7 201.6 235 C 200.8 235 200.3 235 199.5 234.9 C 194.5 225.9 189.8 217.2 185.1 208.3 C 185.2 208.2 185.5 207.9 185.5 207.9 C 185.9 207.4 186.4 207 186.9 206.2 z"></path>
<path fill="#575653" opacity="1.000000" stroke="#575653" d="M 185.1 207.9 C 185.5 207.9 185.2 208.2 185 208.7 C 182.6 218.9 180.4 228.6 178 238.1 C 177.7 239.2 176.1 239.9 174.8 240.5 C 165.3 237.5 156.1 234.7 147 232 C 147 232 147.1 231.5 147.1 231.3 C 159.7 223.4 172.2 215.6 185.1 207.9 z"></path>
<path fill="#252b2d" opacity="1.000000" stroke="#252b2d" d="M 146.7 232 C 156.1 234.7 165.3 237.5 174.8 240.8 C 175 241.6 175 241.8 174.6 242 C 169 244.4 163.5 246.3 158.7 249.4 C 155.8 251.3 154.1 255 151.6 258 C 146.4 263.9 141.5 269.7 136.8 275.7 C 133 280.7 129.6 285.9 125.6 291 C 117.9 292.4 110.5 293.4 105 297.7 C 106.2 300.6 107.1 302.8 107.7 304.8 C 105.6 303.1 103.8 301.6 102.2 299.8 C 101.3 299.1 100.1 298.5 98.7 297.9 C 98.3 297.5 98.1 297.2 98 296.5 C 99.3 294.3 100.6 292.4 102 290.5 C 114.3 274 126.6 257.5 138.8 240.9 C 139.9 239.8 140.9 238.7 142 237.3 C 143 235.9 143.9 234.7 144.9 233.3 C 145.5 232.7 145.9 232.4 146.7 232 z"></path>
<path fill="#030509" opacity="1.000000" stroke="#030509" d="M 388.2 341.8 C 376.6 342 365.3 342 353.5 342 C 351.3 342 349.6 342 347.4 342 C 347 342 347 342 347.1 341.7 C 347.5 341 347.8 340.5 348.3 339.9 C 360 331.5 371.4 323.2 382.9 315.1 C 391.1 309.3 399.5 303.7 407.8 298 C 409.2 299.9 410.7 301.8 412.4 303.9 C 413 304.9 413.5 305.6 414 306.7 C 413.7 307 413.4 307.2 413.1 307.6 C 404.8 319.1 396.7 330.3 388.2 341.8 z"></path>
<path fill="#1f282b" opacity="1.000000" stroke="#1f282b" d="M 407.8 297.8 C 399.5 303.7 391.1 309.3 382.9 315.1 C 371.4 323.2 360 331.5 348 339.6 C 347.6 333.3 347.8 327.1 348.1 320.7 C 349.4 319.3 350.4 318.3 351.5 317.3 C 360.7 308.5 369.9 299.8 379.1 291 C 388.2 293 397.2 295 406.6 297 C 407.4 297.1 407.6 297.3 407.8 297.8 z"></path>
<path fill="#000306" opacity="1.000000" stroke="#000306" d="M 379.1 290.7 C 369.9 299.8 360.7 308.5 351.5 317.3 C 350.4 318.3 349.4 319.3 347.8 320.7 C 346.9 321 346.4 321 346 320.6 C 344.7 319.2 343.6 317.9 342.2 317.2 C 333 312 323.8 306.8 314.5 301.8 C 312.2 300.6 309.7 299.9 307.3 299 C 306.5 297.7 305.7 296.5 304.6 294.7 C 304.1 293.8 304 293.4 304.2 292.9 C 306 284.8 307.5 276.9 309 268.6 C 309.4 265.2 309.6 262.3 310.1 259.4 C 311.3 252.9 313.9 247.5 320.7 245 C 322.4 244.4 323.6 242.7 325.4 241.3 C 326.1 241.2 326.6 241.1 327.4 241 C 328.5 241 329.3 241 330 241 C 334.2 242.8 338.7 244.1 342.6 246.5 C 346.5 248.8 349.8 252.1 353.6 255 C 357.6 260.4 361.1 266 364.8 271.3 C 369.4 277.7 374.3 284 379.1 290.7 M 319.5 262.3 C 319.3 262.9 319.1 263.4 318.4 264.6 C 318.3 268.1 318.1 271.6 318 275.9 C 318.4 279.3 318.7 282.7 318.7 286.1 C 318.8 286.1 318.9 286 319.5 285.7 C 322.7 285.9 326 285.8 329.2 286.3 C 335.4 287.2 341.9 284.2 345.1 278.6 C 348.4 273 347.7 265.8 343.5 261 C 336 252.4 324.3 252.9 320 262 C 320 262 320 262 319.5 262.3 z"></path>
<path fill="#15191c" opacity="1.000000" stroke="#15191c" d="M 330.2 240.7 C 329.3 241 328.5 241 327.4 240.6 C 325.6 233.6 324.4 227 322.8 220.4 C 322 216.9 320.4 213.5 319.2 209.7 C 319.5 208.7 319.7 208.1 320 207.5 C 332.2 215.1 344.5 222.7 356.9 230.5 C 355.1 231.9 353.3 233.2 351.2 233.9 C 344.3 236.2 337.4 238.3 330.2 240.7 z"></path>
<path fill="#f9fcfa" opacity="1.000000" stroke="#f9fcfa" d="M 163 438 C 162.6 438 162.2 438 161.4 438 C 160.3 415.4 159.6 393 158.8 369.8 C 159.1 368.9 159.1 368.6 159.4 368.1 C 166.5 356.3 173.4 344.8 180.5 333 C 186.8 320.8 192.8 308.9 199 296.7 C 199.7 295.9 200.2 295.4 201.1 294.9 C 201.6 295 201.8 295 202.1 295.3 C 215.5 301.4 228.8 307.2 242 313.3 C 242 313.7 242 313.9 242 314.3 C 242 314.5 242 315 241.7 315 C 229.4 322.6 217.3 330 205.7 337.9 C 203.3 339.4 202.5 343.1 200.6 346.1 C 199.9 346.8 199.4 347.3 199.2 347.9 C 189.7 371.1 180.1 394.4 170.7 417.7 C 168 424.4 165.6 431.2 163 438 C 163 438 163 438 163 438 z"></path>
<path fill="#505752" opacity="1.000000" stroke="#505752" d="M 108.4 389 C 111.3 382.3 114.5 375.5 117.8 368.7 C 120.1 364.1 122.6 359.7 124.9 354.7 C 124.9 354.1 124.9 353.9 125.2 354.1 C 126.1 354.4 126.7 354.7 127.6 355 C 137 359.3 146.1 363.6 155.1 367.9 C 155.8 368.3 156.4 369.2 157 369.8 C 156.8 370.1 156.7 370.5 156.3 371 C 149 373.8 141.8 376.4 134.7 379 C 126.1 382.3 117.4 385.7 108.4 389 z"></path>
<path fill="#0f1215" opacity="1.000000" stroke="#0f1215" d="M 157.3 369.8 C 156.4 369.2 155.8 368.3 155.1 367.9 C 146.1 363.6 137 359.3 127.7 354.6 C 136.7 350.9 145.8 347.4 155.2 343.9 C 155.7 343.6 155.9 343.4 156 343 C 156 343 156.1 343 156.3 343 C 156.5 343 157 343.1 157.1 343.5 C 157.8 352 158.4 360.1 159.1 368.3 C 159.1 368.6 159.1 368.9 158.7 369.3 C 158.2 369.6 157.9 369.7 157.3 369.8 z"></path>
<path fill="#d2dbcb" opacity="1.000000" stroke="#d2dbcb" d="M 138.5 240.9 C 126.6 257.5 114.3 274 102 290.5 C 100.6 292.4 99.3 294.3 97.7 296.7 C 95.6 299.5 93.9 301.8 92.2 304 C 89.4 300.9 86.3 298.1 83.9 294.7 C 77.3 285.4 71 275.8 64.2 266.2 C 65.5 264.9 66.8 263.4 68.4 262.8 C 91.6 255.5 114.9 248.2 138.5 240.9 z"></path>
<path fill="#727675" opacity="1.000000" stroke="#727675" d="M 56.1 320.6 C 67.7 315.7 79.2 311.2 91.3 307.2 C 91.9 308 92 308.5 92.1 309.4 C 92.9 323.4 94 336.9 94.8 350.4 C 94.9 353.2 94.3 356.1 94 359 C 88.3 352 82.7 345 77 338 C 75.6 336.3 74.1 334.8 72.4 333.3 C 67.9 330.2 63.8 327 59.8 323.9 C 58.5 323 57.3 321.9 56.1 320.6 z"></path>
<path fill="#293136" opacity="1.000000" stroke="#293136" d="M 94.1 359.3 C 94.3 356.1 94.9 353.2 94.8 350.4 C 94 336.9 92.9 323.4 92.4 309.4 C 93.5 309.6 94.4 310.2 95 310.9 C 102.3 321.2 109.7 331.5 117.1 342.2 C 119.8 346.3 122.4 350.1 124.9 353.9 C 124.9 353.9 124.9 354.1 124.9 354.3 C 115.5 356.8 106 359.3 96.3 361.9 C 95.4 361.3 94.8 360.4 94.1 359.3 z"></path>
<path fill="#505752" opacity="1.000000" stroke="#505752" d="M 107.3 389.8 C 107.1 389.6 107.3 389.3 107.8 389.1 C 108 389.3 107.8 389.6 107.3 389.8 z"></path>
<path fill="#d6dbd0" opacity="1.000000" stroke="#d6dbd0" d="M 163.4 438 C 165.6 431.2 168 424.4 170.7 417.7 C 180.1 394.4 189.7 371.1 199.2 347.9 C 199.4 347.3 199.9 346.8 200.7 346.4 C 201.3 347.4 201.8 348.2 201.8 349 C 201.9 360 202 371.1 202 382.4 C 201.7 383.5 201.4 384.3 201.1 385.3 C 201 385.5 201.1 386 201 386.5 C 201 393.2 201.1 399.5 201.1 406 C 200.9 406.5 200.9 406.7 200.9 406.9 C 195.5 411.2 190 415.4 184.7 419.8 C 177.6 425.8 170.7 431.9 163.4 438 z"></path>
<path fill="#b6beb1" opacity="1.000000" stroke="#b6beb1" d="M 200.9 407.3 C 200.9 406.7 200.9 406.5 201.3 406.2 C 202.8 406.8 203.8 407.5 204.9 408.6 C 206 410.2 207 411.5 208.2 412.6 C 219.5 423.8 230.9 435 242.2 446.2 C 229.4 449.1 216.7 452.1 203.5 455.1 C 202.7 453.6 202.1 452 202 450.4 C 201.6 436.2 201.3 422 200.9 407.3 z"></path>
<path fill="#06090c" opacity="1.000000" stroke="#06090c" d="M 117 341.9 C 109.7 331.5 102.3 321.2 95 310.9 C 94.4 310.2 93.5 309.6 92.5 309 C 92 308.5 91.9 308 91.6 307.2 C 91.6 306.2 91.8 305.5 92.1 304.4 C 93.9 301.8 95.6 299.5 97.7 297 C 98.1 297.2 98.3 297.5 98.9 298.2 C 100.2 299.1 101.1 299.5 102 300 C 103.8 301.6 105.6 303.1 108 305 C 124.7 316.9 140.9 328.4 157.1 340.3 C 157.5 341 157.7 341.5 158 342 C 158 342 158 342 157.7 342 C 156.8 342 156.4 342 155.5 342.1 C 142.3 342 129.7 341.9 117 341.9 z"></path>
<path fill="#696d6f" opacity="1.000000" stroke="#696d6f" d="M 242.6 446.2 C 230.9 435 219.5 423.8 208.2 412.6 C 207 411.5 206 410.2 205.3 408.5 C 213.5 411 221.4 413.9 229.3 416.7 C 237.2 419.5 245.1 422.2 253 425 C 253 425 252.9 425.1 252.9 425.2 C 252.9 431.2 253 437.1 253 443.5 C 249.6 444.7 246.3 445.4 242.6 446.2 z"></path>
<path fill="#0f1215" opacity="1.000000" stroke="#0f1215" d="M 253 424.5 C 245.1 422.2 237.2 419.5 229.3 416.7 C 221.4 413.9 213.5 411 205.2 408.2 C 203.8 407.5 202.8 406.8 201.4 405.9 C 201.1 399.5 201 393.2 201.3 386.6 C 212.3 392.8 222.8 399.4 233.5 405.7 C 239.6 409.3 245.8 412.6 252 416 C 252 416 252.5 416 252.8 416 C 253 418.7 253 421.4 253 424.5 z"></path>
<path fill="#ffffff" opacity="1.000000" stroke="#ffffff" d="M 242 315 C 242 315 242 314.5 242.4 314.3 C 248.9 315.4 255 316.4 261 314 C 261.6 314.5 262.2 315 262.9 315.7 C 273.5 333 284 350 294.5 366.9 C 295.1 367.8 295.5 368.7 295.9 369.9 C 282 370.3 268 370.3 253.1 370.3 C 238.1 370.3 224.1 370.2 210.1 369.9 C 217.1 357.9 223.9 346.4 230.7 334.8 C 234.6 328.2 238.3 321.6 242 315 z"></path>
<path fill="#c6cfc6" opacity="1.000000" stroke="#c6cfc6" d="M 303.1 295 C 299.3 296.9 295.6 299 291.7 300.6 C 281.8 304.8 271.8 308.8 261.4 312.5 C 258.3 300.7 255.6 289.4 253 277.8 C 253 277.3 253 277.2 253.3 277 C 253.5 277 254 277 254.3 277.1 C 256.3 278 258 278.7 259.7 279.4 C 274.1 284.6 288.6 289.8 303.1 295 z"></path>
<path fill="#0f1215" opacity="1.000000" stroke="#0f1215" d="M 307.3 299.3 C 309.7 299.9 312.2 300.6 314.5 301.8 C 323.8 306.8 333 312 342.2 317.2 C 343.6 317.9 344.7 319.2 345.8 320.9 C 342.7 323 339.7 324.3 336.8 326 C 332.8 328.3 328.9 330.8 324.9 333.2 C 320.6 325.1 316.3 316.9 312 308.8 C 310.4 305.8 308.8 302.7 307.3 299.3 z"></path>
<path fill="#cdd6d5" opacity="1.000000" stroke="#cdd6d5" d="M 303.4 295 C 288.6 289.8 274.1 284.6 259.7 279.4 C 258 278.7 256.3 278 254.6 276.9 C 264.6 275.3 274.8 274.1 285.1 273.3 C 291.5 280.1 297.6 286.6 303.8 293 C 304 293.4 304.1 293.8 304.3 294.5 C 304.2 294.9 303.9 294.9 303.4 295 z"></path>
<path fill="#f6f8ec" opacity="1.000000" stroke="#f6f8ec" d="M 253 278 C 255.6 289.4 258.3 300.7 261 312.5 C 261 313.1 261 313.3 261 313.7 C 255 316.4 248.9 315.4 242.4 314 C 242 313.9 242 313.7 242.3 313 C 243.7 308.7 244.8 304.8 246 300.9 C 248.3 293.2 250.6 285.6 253 278 z"></path>
<path fill="#15191c" opacity="1.000000" stroke="#15191c" d="M 324.9 333.5 C 328.9 330.8 332.8 328.3 336.8 326 C 339.7 324.3 342.7 323 345.8 321.3 C 346.4 321 346.9 321 347.6 321 C 347.8 327.1 347.6 333.3 347.7 339.7 C 347.8 340.5 347.5 341 347.1 341.7 C 341.8 339.9 336.7 337.8 331.5 335.8 C 329.9 335.2 328.1 334.9 326.2 334.8 C 325.6 334.6 325.3 334.2 324.9 333.5 z"></path>
<path fill="#1a1d20" opacity="1.000000" stroke="#1a1d20" d="M 252.1 415.6 C 245.8 412.6 239.6 409.3 233.5 405.7 C 222.8 399.4 212.3 392.8 201.4 386.2 C 201.1 386 201 385.5 201.6 385.3 C 219 385 235.9 384.9 252.8 384.8 C 252.8 384.8 252.9 384.9 253 385 C 253 393 253.1 400.9 253 408.9 C 252.9 411 252.4 413.1 252.1 415.6 z"></path>
<path fill="#53595d" opacity="1.000000" stroke="#53595d" d="M 252.9 384.3 C 235.9 384.9 219 385 201.7 385.1 C 201.4 384.3 201.7 383.5 202.3 382.2 C 205.1 377.9 207.5 374 210 370.2 C 224.1 370.2 238.1 370.3 252.7 370.4 C 253.1 375 253 379.4 252.9 384.3 z"></path>
<path fill="#cecfbe" opacity="1.000000" stroke="#cecfbe" d="M 319.9 207.3 C 319.7 208.1 319.5 208.7 318.9 209.8 C 313.8 218.9 309 227.5 304 236.1 C 303.5 236 303.2 236 302.9 235.8 C 302.5 235 302.3 234.5 302 233.7 C 301.7 232.3 301.6 231.3 301.2 230.5 C 294.1 218 286.9 205.7 279.8 193.2 C 278 189.9 276.6 186.4 275 183.1 C 288.8 190.6 302.5 198 316.3 205.5 C 316.8 205.8 317.5 205.9 318.5 206.1 C 319 206.4 319.2 206.6 319.7 206.7 C 319.8 206.8 319.9 207.1 319.9 207.3 z"></path>
<path fill="#d4dfb9" opacity="1.000000" stroke="#d4dfb9" d="M 274.7 183 C 276.6 186.4 278 189.9 279.8 193.2 C 286.9 205.7 294.1 218 301.2 230.5 C 301.6 231.3 301.7 232.3 301.6 233.6 C 292.2 228.4 283.1 223.1 274.1 217.4 C 267.3 213.1 260.7 208.4 254 203.9 C 256.1 201.3 258.2 198.5 260.5 196 C 264.4 191.7 268.4 187.5 272.7 183.2 C 273.4 183 273.9 183 274.7 183 z"></path>
<path fill="#e7ecd5" opacity="1.000000" stroke="#e7ecd5" d="M 203 234 C 207.3 225.9 211.5 217.7 215.9 209.6 C 220.5 201.2 225.3 193 230 184.3 C 230.5 183.6 230.9 183.3 231.7 183 C 238.6 189.8 245.2 196.7 251.9 204 C 252 204.6 252 205 251.7 205 C 242.9 210.2 234.5 215.5 226 220.6 C 218.4 225.1 210.7 229.6 203 234 C 203 234 203 234 203 234 z"></path>
<path fill="#b6c2a4" opacity="1.000000" stroke="#b6c2a4" d="M 252 205 C 252 205 252 204.6 252 204.3 C 252.5 204.1 252.9 204 253.7 203.9 C 260.7 208.4 267.3 213.1 274.1 217.4 C 283.1 223.1 292.2 228.4 301.6 234 C 302.3 234.5 302.5 235 302.5 235.8 C 300.7 235.9 299.2 235.9 297.7 235.7 C 282.5 233.8 267.3 231.8 252.1 229.4 C 252 220.9 252 213 252 205 z"></path>
<path fill="#e1e6d4" opacity="1.000000" stroke="#e1e6d4" d="M 199.8 235.1 C 200.3 235 200.8 235 201.9 235 C 202.7 235 202.8 235 202.9 235.3 C 203.1 236 203.4 236.9 203.6 236.8 C 208.5 236.1 213.3 235.1 218.2 234.4 C 229.1 232.9 240.1 231.5 251 230.3 C 251 230.7 251 230.8 250.9 231.3 C 244.5 240 238.2 248.3 232.1 256.8 C 228.6 261.7 225.3 266.9 221.7 272 C 221 272 220.7 272 220.1 271.7 C 213.7 260.6 207.4 249.7 201.2 238.6 C 200.7 237.2 200.2 236.1 199.8 235.1 z"></path>
<path fill="#15191c" opacity="1.000000" stroke="#15191c" d="M 199.5 234.9 C 200.2 236.1 200.7 237.2 200.8 238.8 C 199.4 246.8 198.3 254.3 196.9 261.7 C 196.7 262.9 195.7 263.9 195 264.6 C 194.7 262.6 194.2 261 194 259.4 C 193 250.7 184.2 242.6 175 242 C 175 242 175 241.9 175 241.9 C 175 241.8 175 241.6 175 241.1 C 176.1 239.9 177.7 239.2 178 238.1 C 180.4 228.6 182.6 218.9 184.9 208.9 C 189.8 217.2 194.5 225.9 199.5 234.9 z"></path>
<path fill="#e7ecd5" opacity="1.000000" stroke="#e7ecd5" d="M 203 235 C 202.8 235 202.7 235 202.3 235 C 202.1 234.7 202.3 234.4 202.8 234.1 C 203 234 203 234 203 234.3 C 203 234.5 203 235 203 235 z"></path>
<path fill="#05080c" opacity="1.000000" stroke="#05080c" d="M 126 291 C 129.6 285.9 133 280.7 136.8 275.7 C 141.5 269.7 146.4 263.9 151.6 258 C 152 258 152 258 152 258.4 C 151.7 260.2 151.2 261.7 151.2 263.1 C 151.7 271 152.6 278.9 152.9 286.8 C 153 290.7 154.2 292.2 158.1 292.1 C 166.8 291.9 175.5 291.5 184 292.2 C 188.4 292.5 194.7 290.6 195.7 298.1 C 194 299.2 192.6 300.1 191.2 300.9 C 179.8 306.9 168.4 312.9 156.6 318.9 C 152.1 315.4 147.9 312 143.9 308.3 C 137.8 302.6 131.9 296.8 126 291 z"></path>
<path fill="#272d2f" opacity="1.000000" stroke="#272d2f" d="M 125.6 291 C 131.9 296.8 137.8 302.6 143.9 308.3 C 147.9 312 152.1 315.4 156.6 319.2 C 157 319.6 157 319.8 156.8 320.2 C 156.5 320.9 156.4 321.4 156.4 321.9 C 156.6 327.9 156.8 334 157 340 C 140.9 328.4 124.7 316.9 108.3 305.1 C 107.1 302.8 106.2 300.6 105 297.7 C 110.5 293.4 117.9 292.4 125.6 291 z"></path>
<path fill="#05080c" opacity="1.000000" stroke="#05080c" d="M 151.9 257.9 C 154.1 255 155.8 251.3 158.7 249.4 C 163.5 246.3 169 244.4 174.6 242 C 175 241.9 175 242 175 242.4 C 178.2 247 181.7 251.2 180.6 257 C 169.6 253.8 163.6 256.6 157.9 266.7 C 156.2 263.3 158.3 257.8 152 258 C 152 258 152 258 151.9 257.9 z"></path>
<path fill="#272d2f" opacity="1.000000" stroke="#272d2f" d="M 102.2 299.8 C 101.1 299.5 100.2 299.1 99.1 298.3 C 100.1 298.5 101.3 299.1 102.2 299.8 z"></path>
<path fill="#0d1114" opacity="1.000000" stroke="#0d1114" d="M 325 241.4 C 323.6 242.7 322.4 244.4 320.7 245 C 313.9 247.5 311.3 252.9 310.1 259.4 C 309.6 262.3 309.4 265.2 308.6 268.6 C 302.5 269.9 296.8 271 291.1 271.7 C 289.4 272 287.7 271.3 286 270.6 C 292.2 259.2 298.2 248.2 304.7 237.1 C 311.7 238.5 318.4 240 325 241.4 z"></path>
<path fill="#090d0f" opacity="1.000000" stroke="#090d0f" d="M 318 275.1 C 318.1 271.6 318.3 268.1 318.9 264.1 C 319.6 263.1 319.8 262.5 320 262 C 320 262 320 262 320.4 262 C 322.8 262 324.9 262 326.8 262.4 C 327 264.9 326.8 267.6 328 269 C 328.9 269.9 332.3 269.8 333.7 268.8 C 336.5 266.8 335.6 264 333.9 261.2 C 334.5 260.7 335 260.3 335.4 260.4 C 341.1 261.9 344.4 268.1 342.8 274.1 C 341.5 279.1 334.6 284 330 282.3 C 325.7 280.7 322 277.5 318 275.1 z"></path>
<path fill="#575653" opacity="1.000000" stroke="#575653" d="M 325.4 241.3 C 318.4 240 311.7 238.5 304.7 236.9 C 304.3 236.4 304.3 236.3 304.3 236.1 C 309 227.5 313.8 218.9 318.8 210.1 C 320.4 213.5 322 216.9 322.8 220.4 C 324.4 227 325.6 233.6 327 240.6 C 326.6 241.1 326.1 241.2 325.4 241.3 z"></path>
<path fill="#272d2f" opacity="1.000000" stroke="#272d2f" d="M 286 271 C 287.7 271.3 289.4 272 291.1 271.7 C 296.8 271 302.5 269.9 308.6 269 C 307.5 276.9 306 284.8 304.2 292.9 C 297.6 286.6 291.5 280.1 285.1 273 C 285 272.3 285 272.2 285.1 271.8 C 285.5 271.3 285.7 271.1 286 271 z"></path>
<path fill="#1c2527" opacity="1.000000" stroke="#1c2527" d="M 318 275.5 C 322 277.5 325.7 280.7 330 282.3 C 334.6 284 341.5 279.1 342.8 274.1 C 344.4 268.1 341.1 261.9 335.4 260.4 C 335 260.3 334.5 260.7 333.6 261.1 C 331 261.5 329 261.8 327 262 C 324.9 262 322.8 262 320.4 262 C 324.3 252.9 336 252.4 343.5 261 C 347.7 265.8 348.4 273 345.1 278.6 C 341.9 284.2 335.4 287.2 329.2 286.3 C 326 285.8 322.7 285.9 319.2 285.8 C 319 286 319 286 319 286 C 318.7 282.7 318.4 279.3 318 275.5 z"></path>
<path fill="#1c2527" opacity="1.000000" stroke="#1c2527" d="M 319.8 262.1 C 319.8 262.5 319.6 263.1 319.2 263.8 C 319.1 263.4 319.3 262.9 319.8 262.1 z"></path>
<path fill="#1c2527" opacity="1.000000" stroke="#1c2527" d="M 319 286 C 318.9 286 318.8 286.1 318.9 286.1 C 319 286 319 286 319 286 z"></path>
<path fill="#d3dad5" opacity="1.000000" stroke="#d3dad5" d="M 210.1 369.9 C 207.5 374 205.1 377.9 202.3 381.9 C 202 371.1 201.9 360 201.8 349 C 201.8 348.2 201.3 347.4 201 346.2 C 202.5 343.1 203.3 339.4 205.7 337.9 C 217.3 330 229.4 322.6 241.7 315 C 238.3 321.6 234.6 328.2 230.7 334.8 C 223.9 346.4 217.1 357.9 210.1 369.9 z"></path>
<path fill="#030509" opacity="1.000000" stroke="#030509" d="M 181 257 C 181.7 251.2 178.2 247 175 242.4 C 184.2 242.6 193 250.7 194 259.4 C 194.2 261 194.7 262.6 195 265 C 195.3 267.2 195.7 268.6 196 270.4 C 197.8 278.3 199.5 285.7 201.2 293.4 C 201 294.1 200.9 294.5 200.8 294.9 C 200.2 295.4 199.7 295.9 198.7 296.7 C 197.5 297.2 196.7 297.6 196 297.9 C 194.7 290.6 188.4 292.5 184 292.2 C 175.5 291.5 166.8 291.9 158.1 292.1 C 154.2 292.2 153 290.7 152.9 286.8 C 152.6 278.9 151.7 271 151.2 263.1 C 151.2 261.7 151.7 260.2 152 258.4 C 158.3 257.8 156.2 263.3 157.9 267.1 C 156.9 279.7 161.9 284.2 168.8 286.1 C 172.6 287.1 177.1 285.9 181.8 285.7 C 183.7 285.7 185.3 285.7 186.8 285.7 C 186.8 283 186.8 280.7 186.9 277.9 C 187 273.6 187 269.8 187 265.6 C 185 262.5 183 259.8 181 257 z"></path>
<path fill="#ebede4" opacity="1.000000" stroke="#ebede4" d="M 253 277.8 C 250.6 285.6 248.3 293.2 246 300.9 C 244.8 304.8 243.7 308.7 242.3 312.8 C 228.8 307.2 215.5 301.4 202.4 295.2 C 202.6 294.1 202.8 293.6 203.4 293 C 215.7 288.9 227.6 284.9 239.5 280.7 C 242.4 279.7 245.2 278.3 248.4 277 C 250.2 277 251.5 277 252.9 277 C 253 277 253.1 277 253.1 277 C 253 277.2 253 277.3 253 277.8 z"></path>
<path fill="#53595d" opacity="1.000000" stroke="#53595d" d="M 195.7 298.1 C 196.7 297.6 197.5 297.2 198.5 296.9 C 192.8 308.9 186.8 320.8 180.3 332.7 C 179.2 332.4 178.6 332.1 177.8 331.6 C 170.7 327.6 163.9 323.8 157 320 C 157 319.8 157 319.6 157 319.2 C 168.4 312.9 179.8 306.9 191.2 300.9 C 192.6 300.1 194 299.2 195.7 298.1 z"></path>
<path fill="#090d0f" opacity="1.000000" stroke="#090d0f" d="M 178 331.9 C 178.6 332.1 179.2 332.4 180 332.9 C 173.4 344.8 166.5 356.3 159.4 368.1 C 158.4 360.1 157.8 352 157.3 343.3 C 157.6 342.5 157.8 342.3 158 342 C 158 342 158 342 158.4 342 C 164.5 339.7 170.3 337.4 176 334.9 C 176.9 334.5 177.3 332.9 178 331.9 z"></path>
<path fill="#ebefe9" opacity="1.000000" stroke="#ebefe9" d="M 203 293 C 202.8 293.6 202.6 294.1 202.2 294.9 C 201.8 295 201.6 295 201.1 294.9 C 200.9 294.5 201 294.1 201.4 293.4 C 202 292.9 202.3 292.7 202.7 292.7 C 202.8 292.8 203 293 203 293 z"></path>
<path fill="#43464a" opacity="1.000000" stroke="#43464a" d="M 117.1 342.2 C 129.7 341.9 142.3 342 155.5 342.3 C 156 342.5 156.1 343 156.1 343 C 156.1 343 156 343 155.8 343.1 C 155.3 343.4 155.1 343.7 155 344 C 145.8 347.4 136.7 350.9 127.4 354.6 C 126.7 354.7 126.1 354.4 125.2 354.1 C 122.4 350.1 119.8 346.3 117.1 342.2 z"></path>
<path fill="#1a1d20" opacity="1.000000" stroke="#1a1d20" d="M 156.3 343 C 156.1 343 156 342.5 156 342.3 C 156.4 342 156.8 342 157.7 342 C 157.8 342.3 157.6 342.5 157.2 342.9 C 157 343.1 156.5 343 156.3 343 z"></path>
<path fill="#1a1d20" opacity="1.000000" stroke="#1a1d20" d="M 155.2 343.9 C 155.1 343.7 155.3 343.4 155.8 343.2 C 155.9 343.4 155.7 343.6 155.2 343.9 z"></path>
<path fill="#1a1d20" opacity="1.000000" stroke="#1a1d20" d="M 177.8 331.6 C 177.3 332.9 176.9 334.5 176 334.9 C 170.3 337.4 164.5 339.7 158.4 342 C 157.7 341.5 157.5 341 157.1 340.3 C 156.8 334 156.6 327.9 156.4 321.9 C 156.4 321.4 156.5 320.9 156.8 320.2 C 163.9 323.8 170.7 327.6 177.8 331.6 z"></path>
<path fill="#d0dace" opacity="1.000000" stroke="#d0dace" d="M 285 272 C 285 272.2 285 272.3 285 272.7 C 274.8 274.1 264.6 275.3 254.3 276.7 C 254 277 253.5 277 253.3 277 C 253.1 277 253 277 253 276.5 C 252.9 261.4 252.9 246.7 253.3 232 C 258.6 238.4 263.5 244.7 268.5 251.1 C 273.9 258 279.5 265 285 272 z"></path>
<path fill="#d4dec2" opacity="1.000000" stroke="#d4dec2" d="M 285.1 271.8 C 279.5 265 273.9 258 268.5 251.1 C 263.5 244.7 258.6 238.4 253.1 231.9 C 252.3 231.6 252.1 231.3 252 230.7 C 252 230.5 252 230 252 230 C 252.1 229.9 252.1 229.8 252.1 229.8 C 267.3 231.8 282.5 233.8 297.7 235.7 C 299.2 235.9 300.7 235.9 302.6 236 C 303.2 236 303.5 236 304 236.1 C 304.3 236.3 304.3 236.4 304.3 236.9 C 298.2 248.2 292.2 259.2 286 270.6 C 285.7 271.1 285.5 271.3 285.1 271.8 z"></path>
<path fill="#cecfbe" opacity="1.000000" stroke="#cecfbe" d="M 202.9 235.3 C 203 235 203 234.5 203 234.3 C 210.7 229.6 218.4 225.1 226 220.6 C 234.5 215.5 242.9 210.2 251.7 205 C 252 213 252 220.9 252.1 229.4 C 252.1 229.8 252.1 229.9 251.8 230 C 251.5 230 251 230 251 230 C 240.1 231.5 229.1 232.9 218.2 234.4 C 213.3 235.1 208.5 236.1 203.6 236.8 C 203.4 236.9 203.1 236 202.9 235.3 z"></path>
<path fill="#f4f7f2" opacity="1.000000" stroke="#f4f7f2" d="M 252 231 C 252.1 231.3 252.3 231.6 252.7 231.9 C 252.9 246.7 252.9 261.4 252.9 276.5 C 251.5 277 250.2 277 248.2 276.7 C 241.3 276 235.1 275.7 229 274.9 C 226.6 274.6 224.3 273 222 272 C 225.3 266.9 228.6 261.7 232.1 256.8 C 238.2 248.3 244.5 240 251.1 231.3 C 251.7 231 251.8 231 252 231 z"></path>
<path fill="#0d1114" opacity="1.000000" stroke="#0d1114" d="M 196 270 C 195.7 268.6 195.3 267.2 195 265.4 C 195.7 263.9 196.7 262.9 196.9 261.7 C 198.3 254.3 199.4 246.8 200.9 239.2 C 207.4 249.7 213.7 260.6 220 272 C 220.1 272.5 219.8 272.9 219.4 272.6 C 211.3 271.6 203.6 270.8 196 270 z"></path>
<path fill="#ebefe9" opacity="1.000000" stroke="#ebefe9" d="M 219.8 272.9 C 219.8 272.9 220.1 272.5 220.2 272.3 C 220.7 272 221 272 221.7 272 C 224.3 273 226.6 274.6 229 274.9 C 235.1 275.7 241.3 276 247.7 276.7 C 245.2 278.3 242.4 279.7 239.5 280.7 C 227.6 284.9 215.7 288.9 203.4 293 C 203 293 202.8 292.8 202.8 292.4 C 208.5 285.6 214.2 279.2 219.8 272.9 z"></path>
<path fill="#ebede4" opacity="1.000000" stroke="#ebede4" d="M 252 230.7 C 251.8 231 251.7 231 251.3 231 C 251 230.8 251 230.7 251 230.3 C 251 230 251.5 230 251.8 230 C 252 230 252 230.5 252 230.7 z"></path>
<path fill="#252b2d" opacity="1.000000" stroke="#252b2d" d="M 180.6 257 C 183 259.8 185 262.5 186.7 265.5 C 183.7 264.5 181 263.3 178 262 C 175.8 261.7 174 261.5 172 261 C 165 261.4 163.1 263.4 162 271.4 C 163.3 280.7 172.2 285.3 180.5 281.3 C 182.1 280.5 183.7 279.9 185.2 279.5 C 183.9 281.8 182.6 283.7 181.4 285.7 C 177.1 285.9 172.6 287.1 168.8 286.1 C 161.9 284.2 156.9 279.7 158 267.5 C 163.6 256.6 169.6 253.8 180.6 257 z"></path>
<path fill="#f1f4ed" opacity="1.000000" stroke="#f1f4ed" d="M 326.8 262.4 C 329 261.8 331 261.5 333.4 261.4 C 335.6 264 336.5 266.8 333.7 268.8 C 332.3 269.8 328.9 269.9 328 269 C 326.8 267.6 327 264.9 326.8 262.4 z"></path>
<path fill="#090d0f" opacity="1.000000" stroke="#090d0f" d="M 185.3 279.2 C 183.7 279.9 182.1 280.5 180.5 281.3 C 172.2 285.3 163.3 280.7 162.4 271.4 C 165.2 269.7 167.6 268.3 170.1 267.3 C 172.1 270.6 174.9 270.9 177.4 269.4 C 180.3 267.6 180.3 264.8 178.3 262.1 C 181 263.3 183.7 264.5 186.7 265.8 C 187 269.8 187 273.6 186.7 278 C 186 278.7 185.7 279 185.3 279.2 z"></path>
<path fill="#2a3334" opacity="1.000000" stroke="#2a3334" d="M 219.4 272.6 C 214.2 279.2 208.5 285.6 202.7 292.3 C 202.3 292.7 202 292.9 201.5 293.1 C 199.5 285.7 197.8 278.3 196 270.4 C 203.6 270.8 211.3 271.6 219.4 272.6 z"></path>
<path fill="#858785" opacity="1.000000" stroke="#858785" d="M 185.2 279.5 C 185.7 279 186 278.7 186.6 278.4 C 186.8 280.7 186.8 283 186.8 285.7 C 185.3 285.7 183.7 285.7 181.8 285.7 C 182.6 283.7 183.9 281.8 185.2 279.5 z"></path>
<path fill="#e4e8e3" opacity="1.000000" stroke="#e4e8e3" d="M 178 262 C 180.3 264.8 180.3 267.6 177.4 269.4 C 174.9 270.9 172.1 270.6 170.2 267 C 170.8 264.6 171.5 263 172.2 261.3 C 174 261.5 175.8 261.7 178 262 z"></path>
<path fill="#0f1215" opacity="1.000000" stroke="#0f1215" d="M 172 261 C 171.5 263 170.8 264.6 170 266.6 C 167.6 268.3 165.2 269.7 162.4 271 C 163.1 263.4 165 261.4 172 261 z"></path>
</svg>