<svg version="1.1" id="Layer_1" xmlns="http://www.w3.org/2000/svg" xmlns:xlink="http://www.w3.org/1999/xlink" x="0px" y="0px"
	 width="100%" viewBox="0 0 1024 1024" enable-background="new 0 0 1024 1024" xml:space="preserve">
<path fill="#181818" opacity="1.000000" stroke="none" 
	d="M 406.7 681.2 C 406.3 681.1 405.9 681.1 405.2 680.6 C 403.1 679.5 401.3 678.9 399.5 678.3 C 398.5 677.9 397.6 677.5 396.2 676.7 C 394.1 675.5 392.4 674.9 390.6 674.2 C 389.6 673.8 388.6 673.4 387.3 672.5 C 386.1 671.7 385.3 671.5 384.5 671.3 C 379.1 668.3 373.8 665.4 368.2 661.8 C 366.5 660.5 365.1 659.9 363.7 659.2 C 343.4 646.9 326.1 631.1 311 613 C 285.6 582.7 270 547.8 261.6 509.2 C 254.6 477.1 252.2 444.6 255.2 411.9 C 256.4 398.8 260 385.8 263.4 373 C 265.4 365.8 270.3 359.8 276.8 355.5 C 286 349.2 295.6 351.4 305.1 354.5 C 335.9 364.6 358.1 385.4 375.9 411.6 C 376.4 412.3 376.8 413 377.7 414.4 C 377.9 412.7 378.2 411.7 378.2 410.7 C 376.4 365.6 389.6 324.4 412 285.8 C 437.8 241 472.9 205 516.1 176.7 C 519.7 174.4 522.1 174.7 525.5 176.8 C 565.9 201.5 595.2 236 615 278.7 C 632.5 316.4 639.7 356.2 639.9 397.4 C 639.9 399.1 639.9 400.7 639.9 403.2 C 641.5 401.7 642.6 400.9 643.6 399.9 C 666.6 376.6 694.3 362.6 726.8 358.4 C 733.3 357.5 740.1 358.1 746.7 358.2 C 751.2 358.3 754 361 756.1 364.6 C 763.5 377 767.5 390.5 769.6 404.6 C 776.8 453.1 770.9 500.2 752.7 545.6 C 731.4 598.5 694.2 637 643.9 663.1 C 619.7 675.8 594.1 684.9 567.4 690.9 C 564.1 691.7 560.8 692.5 557.2 692.6 C 579.6 684.1 598.5 670.9 614.6 653.4 C 633.4 633 645.3 608.7 650.3 581.6 C 662.1 518.1 646.4 461.6 605 412.2 C 602.1 408.8 599.1 405.3 595.5 402.7 C 591.3 399.6 589.8 395.7 589.1 391 C 584.5 359.9 574.2 330.6 558.1 303.7 C 549.4 289.1 538.5 275.7 528.6 261.8 C 528 261 527.1 260.4 526 259.4 C 482 298.4 451.7 344.8 443.6 404 C 453.2 382.3 463.4 361 476.8 341.2 C 490.3 321.3 505.6 303 524.1 286.1 C 553.3 316.8 572.3 352.7 583.9 391.8 C 579.5 395.4 575.5 398.2 572 401.5 C 537.7 434.1 514.8 473.8 500.1 518.4 C 496.5 529.4 494.3 540.9 491.4 552.2 C 491 554.1 490.5 555.9 489.7 558.7 C 475.4 500.3 448 450.1 406.3 406.6 C 402.7 412.1 399 417 396 422.2 C 370.3 466.4 359.3 514 364.6 565 C 368.8 606.4 384.9 642.3 417.8 669.3 C 425 675.2 433.4 679.8 441.7 685.5 C 442.9 686.3 443.7 686.5 444.4 686.8 C 445.1 687.1 445.8 687.4 446.7 688.2 C 445.8 690 444.6 691.2 443.4 692.4 C 442.5 692.3 441.6 692.2 440.3 691.6 C 436.7 690.5 433.6 689.9 430.4 689.3 C 430.4 689.3 430 689.4 430 689.4 C 430 689.4 429.5 689.3 429 688.9 C 428 688.4 427.3 688.3 426.7 688.2 C 426 688.1 425.3 688 424.3 687.5 C 423.4 687 422.7 686.9 422.1 686.7 C 421.6 686.7 421.1 686.6 420.3 686.1 C 417.9 685.1 416 684.5 414 684 C 413.6 683.9 413.1 683.9 412.3 683.4 C 410.2 682.3 408.4 681.7 406.7 681.2 M 344.6 464.8 C 344.6 464.8 344.4 464.6 344.4 463.9 C 343.7 462.4 343 461 342.2 458.9 C 329 432 286.9 381.7 277.6 382.7 C 283 390.5 287.8 398.3 293.5 405.3 C 309.1 424.7 325.1 443.8 341 463.6 C 341.4 464.1 341.9 464.6 342.6 465.6 C 342.9 465.9 343.2 466.2 343.6 467 C 343.7 467.3 343.9 467.6 344.2 468.6 C 344.8 469.5 345.5 470.4 346.1 471.2 C 346.5 471.1 346.8 470.9 347.1 470.7 C 346.5 469.4 345.8 468.1 345.2 466.1 C 345 465.8 344.8 465.4 344.6 464.8 M 690.9 446.4 C 708 426.5 725.2 406.7 742.4 386.8 C 742 386.4 741.7 386 741.4 385.6 C 740.2 386.2 738.8 386.6 737.8 387.4 C 735.1 389.4 732.7 391.8 730.1 393.8 C 711 408.6 694.1 425.5 681.2 446 C 674.7 456.5 668.5 467.6 668.3 478.8 C 675.1 469 682.8 458 690.9 446.4 M 436.5 688.3 C 436.3 688 436 687.7 435.8 687.5 C 435.7 687.5 435.5 687.7 435.4 687.8 C 435.7 688.1 435.9 688.3 436.5 688.3 z"/>
<path fill="#181818" opacity="1.000000" stroke="none" 
	d="M 549.7 687.8 C 538.7 691.3 528 694.7 516.4 698.4 C 531.2 706.1 545.2 713.8 559.6 720.7 C 607.1 743.6 657.4 752.8 709.8 749.2 C 724.9 748.1 739.9 744.1 754.9 741.6 C 756.7 741.3 759 741.5 760.4 742.5 C 789.4 763.7 814 789.3 834.5 818.8 C 834.8 819.3 835 819.9 835.8 821.4 C 826.4 824.8 817.4 828.6 808.1 831.5 C 770.3 843.7 731.5 849.1 691.9 845.2 C 633 839.5 584.7 813.7 548.3 766.7 C 533.2 747.1 521.1 725.7 513.5 702.1 C 513.2 701.3 512.8 700.5 512.4 699.8 C 512.2 699.6 511.9 699.4 511.5 699.2 C 498.9 731.8 481.1 761.2 456.6 786.2 C 430.6 812.8 400.1 832.1 363.1 839.3 C 349.9 841.8 336.3 843.1 322.9 843.3 C 280.6 844 239.5 836.7 199.3 823.7 C 197.6 823.1 196 822.4 192.8 821.3 C 200.8 809.7 208 798.5 216 788 C 229.6 770.2 245.1 754.1 262.3 739.8 C 263.9 738.5 266.5 737.1 268.3 737.5 C 293.2 743.4 318.4 744.6 343.8 743.9 C 377.2 742.8 410 737.8 442 727.8 C 462.5 721.3 482.2 712.9 500.7 702 C 502 701.2 503.2 700.4 505.7 698.9 C 499.8 698 495.2 697.5 490.6 696.6 C 446.2 688.4 415.5 662.2 396 622.5 C 381.9 594 378.4 563.5 380.4 532 C 382.5 499.9 391.5 470 406.8 441.9 C 407.3 441 407.8 440.1 408.3 439.3 C 408.5 439.1 408.9 439 409.7 438.6 C 432.9 465.6 450.6 496 464.6 528.7 C 478.6 561.2 488.4 595 495.4 629.9 C 495.5 628.9 495.9 627.9 495.9 626.9 C 495.1 613.3 494.9 599.6 493.3 586.1 C 492.1 576 494.7 566.9 497.6 557.8 C 514.2 505.5 540.7 458.9 579.3 419.5 C 582.4 416.3 584.1 416.6 587.2 419.6 C 613.9 446.2 629.9 478.2 635.7 515.3 C 641.2 549.8 638.1 583.5 623.3 615.4 C 608 648.5 583.7 672.9 549.7 687.8 M 790.6 804.1 C 792 804.4 793.4 804.7 794.8 805 C 794.9 804.5 795 804 795.1 803.6 C 794.1 803 793.1 802.4 791.7 801.6 C 791.4 801.3 791.1 801.3 790.3 800.8 C 785.2 798.2 780.3 795.3 775 793.1 C 757.3 786 739.8 778.5 721.8 772.4 C 711.2 768.9 699.8 767.9 688.8 765.8 C 688.6 766.3 688.5 766.9 688.4 767.4 C 689.3 767.9 690.2 768.5 691.2 768.9 C 706 774.3 720.7 779.9 735.5 785.1 C 752 790.9 768.5 796.2 785.3 802.1 C 785.9 802.3 786.5 802.5 787.7 802.9 C 788.3 802.9 789 803 789.8 803.1 C 789.8 803.1 790.2 803.4 790.6 804.1 M 241.7 803.2 C 276.9 792 311.4 778.9 344.6 762.6 C 304.6 767.5 269.6 785.1 234.9 803.6 C 235 804.1 235.2 804.6 235.3 805.1 C 237.2 804.5 239.1 804 241.7 803.2 z"/>
<path fill="#181818" opacity="1.000000" stroke="none" 
	d="M 596.7 695.7 C 612.8 690 629.3 685.4 644.9 678.6 C 707.4 651.3 749.4 604.5 772.3 540.5 C 786.5 500.7 791 459.6 786.4 417.6 C 784.1 395.6 778.4 374.6 768.7 354.6 C 763.3 343.5 755 339.1 743.3 339 C 720.8 338.9 699.9 344.7 680.2 355.1 C 671.1 359.9 662.5 365.5 653.4 370.9 C 652.2 363.8 651.4 356.4 649.6 349.2 C 644.5 329 639.1 308.8 633.5 288.6 C 632.6 285.3 633 283.2 635.3 280.7 C 655.9 258.5 680.8 243.1 709.3 233.2 C 712.8 232 714.4 233 716.2 235.6 C 734.3 261.1 747.1 288.7 751.1 320 C 751.3 321.5 751.5 323 751.7 324.2 C 757.7 325.4 763.5 326.6 769.3 327.7 C 775.5 328.8 779.3 332.2 781.2 338.3 C 785.6 352.9 790.1 367.4 794.6 382 C 795 383.4 795.4 384.9 795.9 386.6 C 813.8 378 832.4 373 851.6 369.8 C 870.9 366.6 890.3 365.4 910.7 366 C 910.2 372.7 909.8 379.1 909.2 385.5 C 906.4 415.5 901.4 445.2 891.6 473.8 C 859.6 568.3 796.3 633.6 704.9 672.2 C 682.9 681.5 659.9 688.2 635.5 692.2 C 634.2 692.5 633.6 692.8 633 693.1 C 631.6 693.3 630.1 693.5 628.1 693.5 C 626.7 693.7 625.8 694.1 624.8 694.5 C 623.5 694.6 622.1 694.8 620.2 694.7 C 617.7 695 615.8 695.5 614 696 C 612.7 696.2 611.5 696.3 609.5 696.3 C 607.4 696.5 606.1 696.9 604.8 697.3 C 603.5 697.5 602.1 697.6 600.1 697.5 C 598.5 696.7 597.6 696.2 596.7 695.7 M 830 431.7 C 848.4 416.3 866.7 401 885.5 385.3 C 872.4 384 828.2 421.1 825.1 436.4 C 827.1 434.5 828.3 433.3 830 431.7 z"/>
<path fill="#181818" opacity="1.000000" stroke="none" 
	d="M 866.5 686.5 C 830.1 710.2 790.8 725.7 748.3 732.8 C 720.9 737.5 693.3 738.2 665.6 736.5 C 638.4 734.8 611.6 730.8 585.4 723.6 C 576.6 721.1 568 718 559.3 715.2 C 559.4 714.7 559.5 714.3 559.6 713.9 C 561.5 713.9 563.5 713.8 565.4 713.9 C 611.5 715.2 656.3 708.7 699.5 692.2 C 773.8 663.8 831.3 615.1 872.6 547.3 C 880.8 533.9 887.2 519.4 894.1 505.2 C 895.6 502.3 897 500.9 900.3 500.9 C 932 500.6 962.6 505.4 991.7 518.3 C 993.7 519.2 995.5 520.3 997.8 521.6 C 972 590.9 928.3 645.7 866.5 686.5 M 954.1 534.7 C 922.7 547 896.1 561.9 895 568.5 C 920.5 558.2 945.7 548.3 967.3 531 C 963.1 532.1 959 533.3 954.1 534.7 z"/>
<path fill="#191919" opacity="1.000000" stroke="none" 
	d="M 224.6 365.4 C 230.5 370.9 236.2 375.9 241.5 381.5 C 243 383.1 244.1 386.2 243.7 388.4 C 239.4 413.2 238.8 438.1 239.9 463.1 C 242.6 524.5 260.9 580.4 301.6 627.6 C 331.2 661.9 367.9 685.6 411.7 698.1 C 411.8 698.1 411.8 698.4 412.1 699.5 C 403.2 698.7 394.7 698.4 386.2 697.3 C 301.9 686.4 235.9 644.5 185.3 577.3 C 158.3 541.3 140 501.1 130.7 457 C 123.3 421.9 121.3 386.5 125.8 350.8 C 126.8 343 127.8 335.2 128.9 327.5 C 129.2 325.4 130 323.4 130.5 321.2 C 165.5 328.7 196.7 343.1 224.6 365.4 M 282.2 638.2 C 281.5 637.8 280.8 637.4 279.8 636.4 C 279 635.9 278.2 635.3 277.2 634.3 C 276.5 633.8 275.8 633.4 274.9 632.3 C 267.3 624.7 259.4 617.4 252.3 609.3 C 220.5 572.8 197.4 531 181.1 485.6 C 167.6 447.8 156.2 409.3 144.1 370.3 C 143.2 367.4 142.3 364.5 141.5 361.6 C 141 361.8 140.6 361.9 140.2 362 C 140.9 365.8 141.6 369.6 142.4 374.2 C 147.5 399.3 151.7 424.5 158 449.3 C 171.8 504.2 196.3 554 233.6 597 C 245.7 611 258.5 624.5 273.7 635.4 C 273.7 635.4 273.7 635.4 274.1 636 C 275.8 637.1 277.4 638.3 279.1 639.3 C 279.1 639.3 279.2 639.3 279.6 640.1 C 280.9 640.5 282.2 640.9 283.4 641.3 C 283.1 640.5 282.8 639.6 282.2 638.2 M 284 640.5 C 283.8 641.1 283.6 641.8 283.8 643 C 285.3 643.9 286.8 644.8 288.7 646.3 C 289.4 646.7 290.2 647.1 291.2 648 C 294.8 650.2 298.4 652.3 302 654.4 C 302.3 653.9 302.7 653.3 303 652.8 C 299.1 650.3 295.2 647.8 291.1 645 C 290.8 644.8 290.4 644.6 289.5 643.9 C 288 642.9 286.6 641.8 284 640.5 z"/>
<path fill="#181818" opacity="1.000000" stroke="none" 
	d="M 34.7 515.3 C 33.2 510 31.9 505 30.2 498.7 C 41.4 496.5 52 493.9 62.7 492.3 C 81.1 489.6 99.6 490 118 492.1 C 121.6 492.6 123.8 493.4 125.2 497.5 C 146.1 559.7 182.1 611.4 234.2 651.5 C 266.7 676.5 302.8 694.4 343.3 702.7 C 374.8 709.2 406.6 710.7 438.7 708.6 C 440.4 708.4 442 708.5 443.7 708.5 C 443.9 708.5 444.2 708.9 445.6 709.9 C 429.1 714.1 413.6 718.6 397.8 721.9 C 373.1 726.9 348.1 729 322.9 729 C 250.6 728.8 187.7 704 133.1 657.3 C 96.1 625.8 66.5 588.6 46.1 544.4 C 41.8 535 38.6 525.2 34.7 515.3 M 75.3 519.4 C 62.6 513.9 61.8 513.7 57.2 514.6 C 78.5 530.6 103.6 539 127.3 550.4 C 123.1 545.9 118.8 541.5 113.7 538.7 C 101.3 531.9 88.6 525.9 75.3 519.4 z"/>
<path fill="#1a1a1a" opacity="1.000000" stroke="none" 
	d="M 282.7 250.8 C 287.7 241.4 292.5 232.4 298 222.2 C 309.5 232.2 320.1 240.7 330 250 C 349.6 268.5 366 289.6 377.3 314.3 C 379.4 318.7 379.6 322 377.4 326.7 C 370.7 340.4 367 355 364.4 370 C 364.3 370.8 364.1 371.6 363.8 373.6 C 350.6 360.6 336.5 350.1 320.3 342.7 C 304.1 335.2 287.2 330.7 268.4 334.8 C 267.3 305.6 272.2 277.9 282.7 250.8 M 307.8 260.8 C 318.8 280.2 329.8 299.6 340.7 318.9 C 341.2 318.7 341.6 318.4 342.1 318.2 C 336.7 290.8 321.8 268.5 303.7 248 C 303.2 248.2 302.7 248.4 302.3 248.6 C 304 252.5 305.7 256.4 307.8 260.8 z"/>
<path fill="#383a39" opacity="1.000000" stroke="none" 
	d="M 443.7 692.7 C 444.6 691.2 445.8 690 447 688.4 C 453.9 690.5 460.8 693.1 467.7 695.7 C 467.7 696.1 467.6 696.5 467.6 696.9 C 459.7 695.6 451.8 694.3 443.7 692.7 z"/>
<path fill="#5e5f5f" opacity="1.000000" stroke="none" 
	d="M 596.3 695.6 C 597.6 696.2 598.5 696.7 599.7 697.5 C 594.8 698.4 589.7 699 584.6 699.7 C 584.5 699.2 584.5 698.7 584.4 698.3 C 588.2 697.4 592.1 696.5 596.3 695.6 z"/>
<path fill="#383a39" opacity="1.000000" stroke="none" 
	d="M 430.7 689.6 C 433.6 689.9 436.7 690.5 439.9 691.5 C 437 691.2 434 690.5 430.7 689.6 z"/>
<path fill="#383a39" opacity="1.000000" stroke="none" 
	d="M 414.2 684.3 C 416 684.5 417.9 685.1 420 685.9 C 418.2 685.7 416.3 685.1 414.2 684.3 z"/>
<path fill="#5e5f5f" opacity="1.000000" stroke="none" 
	d="M 614.3 696.2 C 615.8 695.5 617.7 695 619.8 694.7 C 618.2 695.4 616.4 695.8 614.3 696.2 z"/>
<path fill="#383a39" opacity="1.000000" stroke="none" 
	d="M 399.7 678.5 C 401.3 678.9 403.1 679.5 405 680.4 C 403.3 680.1 401.6 679.5 399.7 678.5 z"/>
<path fill="#383a39" opacity="1.000000" stroke="none" 
	d="M 406.9 681.5 C 408.4 681.7 410.2 682.3 412 683.2 C 410.4 682.9 408.7 682.3 406.9 681.5 z"/>
<path fill="#383a39" opacity="1.000000" stroke="none" 
	d="M 390.8 674.5 C 392.4 674.9 394.1 675.5 396 676.5 C 394.4 676.2 392.7 675.5 390.8 674.5 z"/>
<path fill="#383a39" opacity="1.000000" stroke="none" 
	d="M 363.8 659.5 C 365.1 659.9 366.5 660.5 368 661.6 C 366.7 661.2 365.3 660.5 363.8 659.5 z"/>
<path fill="#5e5f5f" opacity="1.000000" stroke="none" 
	d="M 605.1 697.5 C 606.1 696.9 607.4 696.5 609.1 696.3 C 608.1 696.8 606.8 697.2 605.1 697.5 z"/>
<path fill="#5e5f5f" opacity="1.000000" stroke="none" 
	d="M 625.2 694.6 C 625.8 694.1 626.7 693.7 627.8 693.5 C 627.1 694.1 626.3 694.4 625.2 694.6 z"/>
<path fill="#383a39" opacity="1.000000" stroke="none" 
	d="M 426.7 688.4 C 427.3 688.3 428 688.4 428.8 688.8 C 428.3 688.9 427.6 688.8 426.7 688.4 z"/>
<path fill="#383a39" opacity="1.000000" stroke="none" 
	d="M 384.7 671.5 C 385.3 671.5 386.1 671.7 387 672.3 C 386.3 672.4 385.6 672.1 384.7 671.5 z"/>
<path fill="#5e5f5f" opacity="1.000000" stroke="none" 
	d="M 633.2 693.3 C 633.6 692.8 634.2 692.5 635.1 692.3 C 634.7 692.8 634 693.1 633.2 693.3 z"/>
<path fill="#383a39" opacity="1.000000" stroke="none" 
	d="M 422.2 687 C 422.7 686.9 423.4 687 424 687.4 C 423.5 687.5 422.9 687.4 422.2 687 z"/>
<path fill="#383a39" opacity="1.000000" stroke="none" 
	d="M 444.3 686.5 C 443.7 686.5 442.9 686.3 442 685.7 C 442.6 685.7 443.4 686 444.3 686.5 z"/>
<path fill="#b5b4b5" opacity="1.000000" stroke="none" 
	d="M 341 463.3 C 341.4 462.1 341.7 461.1 342.3 459.9 C 343 461 343.7 462.4 343.9 464.3 C 343.1 464.9 342.7 465 342.4 465.1 C 341.9 464.6 341.4 464.1 341 463.3 z"/>
<path fill="#b5b4b5" opacity="1.000000" stroke="none" 
	d="M 345.2 466.7 C 345.8 468.1 346.5 469.4 347.1 470.7 C 346.8 470.9 346.5 471.1 346.1 471.2 C 345.5 470.4 344.8 469.5 344.3 468.1 C 344.8 467.3 345 467 345.2 466.7 z"/>
<path fill="#383a39" opacity="1.000000" stroke="none" 
	d="M 436.4 688.4 C 435.9 688.3 435.7 688.1 435.4 687.8 C 435.5 687.7 435.7 687.5 435.8 687.5 C 436 687.7 436.3 688 436.4 688.4 z"/>
<path fill="#ebecec" opacity="1.000000" stroke="none" 
	d="M 345.2 466.4 C 345 467 344.8 467.3 344.3 467.8 C 343.9 467.6 343.7 467.3 343.8 466.4 C 344.3 465.5 344.5 465.3 344.6 465 C 344.8 465.4 345 465.8 345.2 466.4 z"/>
<path fill="#ebecec" opacity="1.000000" stroke="none" 
	d="M 342.5 465.4 C 342.7 465 343.1 464.9 343.9 464.7 C 344.4 464.6 344.6 464.8 344.6 464.9 C 344.5 465.3 344.3 465.5 343.8 466.1 C 343.2 466.2 342.9 465.9 342.5 465.4 z"/>
<path fill="#cdcece" opacity="1.000000" stroke="none" 
	d="M 792.1 801.9 C 793.1 802.4 794.1 803 795.1 803.6 C 795 804 794.9 804.5 794.8 805 C 793.4 804.7 792 804.4 790.8 803.6 C 791.3 802.7 791.7 802.3 792.1 801.9 z"/>
<path fill="#cdcece" opacity="1.000000" stroke="none" 
	d="M 785.2 801.9 C 785.7 801.8 786.3 801.9 787 802.3 C 786.5 802.5 785.9 802.3 785.2 801.9 z"/>
<path fill="#ebecec" opacity="1.000000" stroke="none" 
	d="M 791.9 801.7 C 791.7 802.3 791.3 802.7 790.5 803.2 C 790.2 803.4 789.8 803.1 789.7 803.1 C 789.8 802.7 789.9 802.4 790.4 801.7 C 791.1 801.3 791.4 801.3 791.9 801.7 z"/>
<path fill="#b5b4b5" opacity="1.000000" stroke="none" 
	d="M 291.4 645.3 C 295.2 647.8 299.1 650.3 303 652.8 C 302.7 653.3 302.3 653.9 302 654.4 C 298.4 652.3 294.8 650.2 291.2 647.2 C 291.2 646 291.3 645.7 291.4 645.3 z"/>
<path fill="#8b8b8a" opacity="1.000000" stroke="none" 
	d="M 144 370.7 C 143.5 371.6 143.1 372.2 142.5 373.1 C 141.6 369.6 140.9 365.8 140.2 362 C 140.6 361.9 141 361.8 141.5 361.6 C 142.3 364.5 143.2 367.4 144 370.7 z"/>
<path fill="#d7d7d7" opacity="1.000000" stroke="none" 
	d="M 288.3 645.8 C 286.8 644.8 285.3 643.9 284 642.5 C 284.4 641.6 284.7 641.2 285.1 640.8 C 286.6 641.8 288 642.9 289.3 644.4 C 288.9 645.3 288.6 645.5 288.3 645.8 z"/>
<path fill="#d7d7d7" opacity="1.000000" stroke="none" 
	d="M 277.3 634.5 C 276.6 634.9 275.8 635 274.3 635.3 C 273.7 635.4 273.7 635.4 273.7 635.4 C 274 634.7 274.3 634.1 274.9 633.1 C 275.8 633.4 276.5 633.8 277.3 634.5 z"/>
<path fill="#d7d7d7" opacity="1.000000" stroke="none" 
	d="M 279.1 639.3 C 279.2 638.7 279.4 638 279.8 637.2 C 280.8 637.4 281.5 637.8 281.8 638.6 C 280.7 639.1 279.9 639.2 279.2 639.3 C 279.2 639.3 279.1 639.3 279.1 639.3 z"/>
<path fill="#eeefef" opacity="1.000000" stroke="none" 
	d="M 284.5 640.7 C 284.7 641.2 284.4 641.6 283.8 642.2 C 283.6 641.8 283.8 641.1 284.5 640.7 z"/>
</svg>